<?xml version="1.0" encoding="UTF-8"?><svg xmlns="http://www.w3.org/2000/svg" viewBox="0 0 800 1120"><defs><style>.cls-1{stroke-width:.18px;}.cls-1,.cls-2,.cls-3,.cls-4{fill:none;stroke:#231f20;stroke-linecap:round;stroke-linejoin:round;}.cls-2{stroke-width:.75px;}.cls-3{stroke-width:.3px;}.cls-4{stroke-width:.8px;}</style></defs><g id="Wall"><rect class="cls-4" x="332.06" y="459.15" width="3.13" height="3.13"/><rect class="cls-4" x="332.06" y="559.34" width="3.13" height="3.13"/><rect class="cls-4" x="335.82" y="563.1" width="3.13" height="3.13"/><rect class="cls-4" x="464.81" y="559.34" width="3.13" height="3.13"/><rect class="cls-4" x="461.05" y="563.1" width="3.13" height="3.13"/><rect class="cls-4" x="385.91" y="563.1" width="3.13" height="3.13"/><rect class="cls-4" x="360.86" y="563.1" width="3.13" height="3.13"/><rect class="cls-4" x="410.95" y="508.62" width="3.13" height="3.13"/><rect class="cls-4" x="436" y="459.15" width="3.13" height="3.13"/><rect class="cls-4" x="410.95" y="459.15" width="3.13" height="3.13"/><rect class="cls-4" x="385.9" y="459.15" width="3.13" height="3.13"/><rect class="cls-4" x="360.85" y="459.15" width="3.13" height="3.13"/><rect class="cls-4" x="385.9" y="508.62" width="3.13" height="3.13"/><rect class="cls-4" x="336.44" y="459.15" width="3.13" height="3.13"/><rect class="cls-4" x="336.44" y="434.73" width="3.13" height="3.13"/><rect class="cls-4" x="460.43" y="434.73" width="3.13" height="3.13"/><rect class="cls-4" x="436.01" y="434.73" width="3.13" height="3.13"/><rect class="cls-4" x="410.96" y="434.73" width="3.13" height="3.13"/><rect class="cls-4" x="385.91" y="434.73" width="3.13" height="3.13"/><rect class="cls-4" x="360.86" y="434.73" width="3.13" height="3.13"/><rect class="cls-4" x="460.43" y="459.15" width="3.13" height="3.13"/><rect class="cls-4" x="360.85" y="508.62" width="3.13" height="3.13"/><rect class="cls-4" x="436" y="484.2" width="3.13" height="3.13"/><rect class="cls-4" x="410.95" y="484.2" width="3.13" height="3.13"/><rect class="cls-4" x="385.9" y="484.2" width="3.13" height="3.13"/><rect class="cls-4" x="360.85" y="484.2" width="3.13" height="3.13"/><rect class="cls-4" x="336.44" y="484.2" width="3.13" height="3.13"/><rect class="cls-4" x="460.43" y="484.2" width="3.13" height="3.13"/><rect class="cls-4" x="336.44" y="508.62" width="3.13" height="3.13"/><rect class="cls-4" x="435.38" y="563.1" width="3.13" height="3.13"/><rect class="cls-4" x="464.81" y="509.87" width="3.13" height="3.13"/><rect class="cls-4" x="332.06" y="509.87" width="3.13" height="3.13"/><rect class="cls-4" x="332.06" y="533.67" width="3.13" height="3.13"/><rect class="cls-4" x="460.43" y="508.62" width="3.13" height="3.13"/><line class="cls-4" x1="335.19" y1="562.47" x2="335.19" y2="559.34"/><rect class="cls-4" x="436" y="508.62" width="3.13" height="3.13"/><rect class="cls-4" x="410.96" y="563.1" width="3.13" height="3.13"/><rect class="cls-4" x="464.81" y="434.11" width="3.13" height="3.13"/><rect class="cls-4" x="464.81" y="459.15" width="3.13" height="3.13"/><rect class="cls-4" x="464.81" y="484.2" width="3.13" height="3.13"/><rect class="cls-4" x="464.81" y="534.3" width="3.13" height="3.13"/><rect class="cls-4" x="335.82" y="430.35" width="3.13" height="3.13"/><rect class="cls-4" x="461.05" y="430.35" width="3.13" height="3.13"/><rect class="cls-4" x="436.01" y="430.35" width="3.13" height="3.13"/><rect class="cls-4" x="410.96" y="430.35" width="3.13" height="3.13"/><rect class="cls-4" x="385.91" y="430.35" width="3.13" height="3.13"/><rect class="cls-4" x="360.86" y="430.35" width="3.13" height="3.13"/><rect class="cls-4" x="332.06" y="434.11" width="3.13" height="3.13"/><rect class="cls-4" x="332.06" y="484.2" width="3.13" height="3.13"/></g><g id="Window_Door_Stairs"><line class="cls-1" x1="389.03" y1="460.72" x2="410.95" y2="460.72"/><rect class="cls-1" x="439.14" y="528.66" width="6.89" height="9.39"/><rect class="cls-1" x="446.02" y="528.66" width="6.89" height="9.39"/><rect class="cls-1" x="452.91" y="528.66" width="6.89" height="9.39"/><rect class="cls-1" x="439.14" y="528.66" width="6.89" height="9.39"/><line class="cls-1" x1="336.44" y1="538.05" x2="463.56" y2="538.05"/><polyline class="cls-1" points="435.38 566.23 332.06 566.23 332.06 430.35 467.94 430.35 467.94 566.23 464.18 566.23"/><path class="cls-1" d="M340.83,489.84h41.64c.83,0,1.63,.33,2.21,.92s.92,1.38,.92,2.21v12.52c0,.83-.33,1.63-.92,2.21s-1.38,.92-2.21,.92h-41.64c-.83,0-1.63-.33-2.21-.92s-.92-1.38-.92-2.21v-12.52c0-.83,.33-1.63,.92-2.21s1.38-.92,2.21-.92Z"/><path class="cls-1" d="M455.42,502.99c0-.32-.03-.65-.09-.97-.06-.34-.16-.67-.28-.99-.27-.68-.67-1.29-1.19-1.8-.51-.51-1.13-.92-1.8-1.19-.32-.13-.65-.22-.99-.28-.32-.06-.64-.09-.97-.09s-.65,.03-.97,.09c-.34,.06-.67,.16-.99,.28-.68,.27-1.29,.67-1.8,1.19s-.92,1.13-1.19,1.8c-.13,.32-.22,.65-.28,.99-.06,.32-.09,.64-.09,.97s.03,.65,.09,.97c.06,.34,.16,.67,.28,.99,.27,.68,.67,1.29,1.19,1.8,.51,.51,1.13,.92,1.8,1.19,.32,.13,.65,.22,.99,.28,.32,.06,.64,.09,.97,.09s.65-.03,.97-.09c.34-.06,.67-.16,.99-.28,.68-.27,1.29-.67,1.8-1.19s.92-1.13,1.19-1.8c.13-.32,.22-.65,.28-.99,.06-.32,.09-.64,.09-.97Z"/><rect class="cls-1" x="418.79" y="503.61" width="6.26" height="9.39"/><rect class="cls-1" x="425.05" y="503.61" width="6.26" height="9.39"/><line class="cls-1" x1="439.13" y1="460.72" x2="460.43" y2="460.72"/><line class="cls-1" x1="414.08" y1="460.72" x2="436" y2="460.72"/><line class="cls-1" x1="363.98" y1="460.72" x2="385.9" y2="460.72"/><line class="cls-1" x1="339.57" y1="460.72" x2="360.85" y2="460.72"/><line class="cls-1" x1="461.05" y1="566.23" x2="438.51" y2="566.23"/></g><g id="Accessory"><line class="cls-3" x1="336.44" y1="434.73" x2="336.44" y2="487.33"/><line class="cls-3" x1="336.44" y1="513.01" x2="336.44" y2="538.05"/><line class="cls-3" x1="336.44" y1="488.58" x2="336.44" y2="511.75"/><line class="cls-3" x1="463.56" y1="457.9" x2="467.94" y2="457.9"/><line class="cls-3" x1="463.56" y1="487.33" x2="463.56" y2="457.9"/><polyline class="cls-3" points="463.56 434.73 463.56 438.49 467.94 438.49"/><line class="cls-3" x1="464.81" y1="434.11" x2="464.81" y2="437.24"/><line class="cls-3" x1="467.94" y1="437.24" x2="464.81" y2="437.24"/><line class="cls-3" x1="467.94" y1="437.24" x2="467.94" y2="438.49"/><line class="cls-3" x1="464.81" y1="459.15" x2="464.81" y2="559.34"/><line class="cls-3" x1="467.94" y1="457.9" x2="467.94" y2="459.15"/><line class="cls-3" x1="464.81" y1="459.15" x2="467.94" y2="459.15"/><polyline class="cls-3" points="417.53 511.75 417.53 502.35 432.56 502.36 432.56 511.75 463.56 511.75"/><line class="cls-3" x1="336.44" y1="487.33" x2="463.56" y2="487.33"/><polyline class="cls-3" points="336.44 538.05 332.06 538.05 332.06 536.8"/><line class="cls-3" x1="336.44" y1="488.58" x2="463.56" y2="488.58"/><line class="cls-3" x1="463.56" y1="434.73" x2="336.44" y2="434.73"/><polyline class="cls-3" points="335.19 434.11 335.19 433.48 464.81 433.48 464.81 434.11"/><polyline class="cls-3" points="464.81 562.47 464.81 563.1 461.05 563.1"/><polyline class="cls-3" points="336.44 511.75 389.03 511.75 389.03 502.36 410.95 502.36 410.95 511.75 417.53 511.75"/><polyline class="cls-3" points="336.44 513.01 390.28 513.01 390.28 503.61 409.7 503.61 409.7 513.01 418.79 513.01 418.79 503.61 431.31 503.61 431.31 513.01 463.56 513.01"/><line class="cls-3" x1="463.56" y1="511.75" x2="463.56" y2="488.58"/><polyline class="cls-3" points="459.8 561.85 463.56 561.85 463.56 513.01"/><polyline class="cls-3" points="459.8 561.85 336.44 561.85 336.44 558.09 332.06 558.09 332.06 559.34 335.19 559.34"/><line class="cls-3" x1="335.19" y1="536.8" x2="335.19" y2="434.11"/><polyline class="cls-3" points="461.05 563.1 335.19 563.1 335.19 562.47"/></g><g id="TEXT"><path d="M402.94,457.18h-5.43v-1.05h2.19v-8.03l-2.06,1.03v-1.2l2.23-1.15h1.03v9.35h2.04v1.05Z"/><path d="M402.67,481.29h-5.68v-.87c1.44-1.61,2.38-2.68,2.8-3.23s.78-1.12,1.05-1.72c.27-.6,.4-1.2,.4-1.79s-.17-1.03-.52-1.36c-.35-.33-.84-.5-1.47-.5-.48,0-1.13,.15-1.95,.45l-.17-1.03c.74-.31,1.51-.47,2.31-.47,.92,0,1.67,.26,2.23,.78,.56,.52,.85,1.21,.85,2.08,0,.62-.15,1.24-.44,1.85-.29,.61-.66,1.2-1.12,1.76-.46,.56-1.34,1.57-2.65,3.02h4.35v1.05Z"/><circle class="cls-2" cx="765.53" cy="1024.02" r="11.44"/><g><path d="M32.2,1028.91h-5.43v-1.05h2.19v-8.03l-2.07,1.03v-1.2l2.23-1.15h1.03v9.35h2.04v1.05Z"/><path d="M63.43,1019.72c-.62-.21-1.2-.32-1.75-.32-.62,0-1.13,.14-1.53,.43-.39,.29-.59,.69-.59,1.22,0,.63,.52,1.17,1.54,1.65,.76,.35,1.27,.6,1.51,.73,.25,.14,.5,.33,.75,.56s.46,.52,.61,.85c.15,.32,.23,.69,.23,1.09,0,1.01-.34,1.79-1.01,2.34-.68,.55-1.47,.83-2.39,.83s-1.67-.18-2.34-.53l.25-1.03c.79,.36,1.47,.53,2.06,.53,.68,0,1.23-.18,1.64-.53,.41-.35,.62-.84,.62-1.46,0-.46-.13-.85-.4-1.17-.27-.32-.76-.65-1.49-.98-.74-.34-1.22-.58-1.44-.7-.22-.12-.43-.3-.65-.52s-.38-.47-.5-.74c-.12-.27-.18-.57-.18-.89,0-.85,.31-1.52,.92-2s1.39-.72,2.34-.72c.69,0,1.37,.11,2.05,.32l-.27,1.03Z"/><path d="M73.19,1028.91h-1.14v-4.89c0-.68-.11-1.17-.33-1.48-.22-.31-.56-.46-1.02-.46-.7,0-1.45,.43-2.25,1.3v5.52h-1.14v-10.33h1.14v3.82c.82-.87,1.68-1.3,2.59-1.3,1.43,0,2.15,.86,2.15,2.59v5.22Z"/><path d="M82.42,1025.14h-5.24c0,.86,.25,1.58,.75,2.14s1.12,.84,1.84,.84,1.41-.12,2.15-.37l.2,.92c-.67,.3-1.46,.45-2.36,.45-1.13,0-2.05-.36-2.74-1.09s-1.04-1.71-1.04-2.94,.31-2.18,.93-2.9c.62-.72,1.43-1.08,2.41-1.08,.88,0,1.61,.33,2.2,1,.59,.67,.89,1.56,.89,2.67v.36Zm-1.25-.93c0-.6-.19-1.1-.56-1.51-.37-.41-.79-.61-1.25-.61-.59,0-1.08,.2-1.47,.59s-.6,.9-.65,1.53h3.92Z"/><path d="M91.16,1028.91h-1.14v-1.1c-.23,.38-.57,.69-1.01,.93-.44,.24-.9,.37-1.38,.37-.87,0-1.56-.39-2.07-1.17-.51-.78-.76-1.77-.76-2.96,0-1.12,.26-2.04,.79-2.78,.53-.73,1.23-1.1,2.11-1.1,.96,0,1.74,.39,2.32,1.17v-3.69h1.14v10.33Zm-1.14-2.34v-3.17c-.55-.88-1.21-1.32-1.98-1.32-.63,0-1.13,.28-1.49,.84-.37,.56-.55,1.27-.55,2.12s.17,1.61,.52,2.18c.34,.57,.82,.86,1.42,.86,.29,0,.58-.08,.87-.23,.29-.16,.57-.39,.83-.7,.26-.31,.39-.5,.39-.57Z"/><path d="M31.93,1050.91h-5.68v-.87c1.44-1.61,2.38-2.68,2.81-3.23s.78-1.12,1.05-1.72c.27-.6,.4-1.2,.4-1.79s-.17-1.03-.52-1.36c-.35-.33-.84-.5-1.47-.5-.48,0-1.13,.15-1.95,.45l-.17-1.03c.74-.31,1.51-.47,2.31-.47,.92,0,1.67,.26,2.23,.78,.56,.52,.85,1.21,.85,2.08,0,.62-.14,1.24-.44,1.85s-.66,1.2-1.12,1.76c-.45,.56-1.34,1.57-2.65,3.02h4.35v1.05Z"/><path d="M62.48,1045.25c.69,.16,1.23,.47,1.62,.94s.59,1.02,.59,1.66c0,.94-.34,1.68-1.02,2.24-.68,.56-1.5,.83-2.46,.83h-2.94v-10.33h2.86c1,0,1.77,.22,2.34,.66,.56,.44,.84,1.05,.84,1.85,0,.49-.16,.92-.49,1.3-.33,.38-.77,.66-1.34,.83v.03Zm-3.01-.56h1.41c1.47,0,2.2-.52,2.2-1.58,0-.48-.18-.85-.54-1.1-.36-.26-.89-.38-1.59-.38h-1.48v3.06Zm0,5.18h1.36c.8,0,1.43-.18,1.89-.54,.47-.36,.7-.86,.7-1.49,0-.67-.23-1.19-.69-1.55s-1.12-.55-1.99-.55h-1.27v4.13Z"/><path d="M73.42,1047.14h-5.24c0,.86,.25,1.58,.75,2.14,.5,.56,1.11,.84,1.84,.84s1.41-.12,2.15-.37l.2,.92c-.67,.3-1.46,.45-2.36,.45-1.13,0-2.05-.36-2.74-1.09s-1.04-1.71-1.04-2.94,.31-2.18,.93-2.9c.62-.72,1.43-1.08,2.41-1.08,.88,0,1.61,.33,2.2,1s.89,1.56,.89,2.67v.36Zm-1.24-.93c0-.6-.19-1.1-.56-1.51-.37-.41-.79-.61-1.25-.61-.59,0-1.08,.2-1.47,.59-.39,.39-.6,.9-.65,1.53h3.92Z"/><path d="M82.19,1050.91h-1.14v-4.89c0-.68-.11-1.17-.33-1.48-.22-.31-.56-.46-1.02-.46-.7,0-1.45,.43-2.25,1.3v5.52h-1.14v-7.63h1.14v1.12c.82-.87,1.68-1.3,2.59-1.3,1.43,0,2.15,.86,2.15,2.59v5.22Z"/><path d="M91.16,1050.66c-.66,.3-1.39,.45-2.19,.45-1.2,0-2.16-.36-2.87-1.09-.72-.73-1.07-1.7-1.07-2.91s.36-2.18,1.08-2.91c.72-.73,1.67-1.09,2.84-1.09,.77,0,1.5,.13,2.19,.4l-.3,.95c-.69-.24-1.32-.36-1.88-.36-.84,0-1.51,.27-2,.81-.49,.54-.74,1.28-.74,2.21,0,.85,.25,1.56,.76,2.14,.51,.58,1.17,.87,1.98,.87,.64,0,1.31-.12,1.99-.37l.2,.92Z"/><path d="M100.19,1050.91h-1.14v-4.89c0-.68-.11-1.17-.33-1.48-.22-.31-.56-.46-1.02-.46-.7,0-1.45,.43-2.25,1.3v5.52h-1.14v-10.33h1.14v3.82c.82-.87,1.68-1.3,2.59-1.3,1.43,0,2.15,.86,2.15,2.59v5.22Z"/></g></g></svg>