<?xml version="1.0" encoding="UTF-8"?><svg xmlns="http://www.w3.org/2000/svg" viewBox="0 0 800 1120"><defs><style>.cls-1{stroke-width:.18px;}.cls-1,.cls-2,.cls-3,.cls-4{fill:none;stroke:#231f20;stroke-linecap:round;stroke-linejoin:round;}.cls-2{stroke-width:.75px;}.cls-3{stroke-width:.3px;}.cls-4{stroke-width:.8px;}</style></defs><g id="Wall"><rect class="cls-4" x="332.06" y="533.67" width="3.13" height="3.13"/><rect class="cls-4" x="435.38" y="563.1" width="3.13" height="3.13"/><rect class="cls-4" x="332.06" y="509.25" width="3.13" height="3.13"/><rect class="cls-4" x="332.06" y="484.2" width="3.13" height="3.13"/><rect class="cls-4" x="332.06" y="459.15" width="3.13" height="3.13"/><rect class="cls-4" x="332.06" y="434.11" width="3.13" height="3.13"/><rect class="cls-4" x="360.86" y="430.35" width="3.13" height="3.13"/><rect class="cls-4" x="385.91" y="430.35" width="3.13" height="3.13"/><rect class="cls-4" x="410.96" y="430.35" width="3.13" height="3.13"/><rect class="cls-4" x="436.01" y="430.35" width="3.13" height="3.13"/><rect class="cls-4" x="461.05" y="430.35" width="3.13" height="3.13"/><rect class="cls-4" x="335.82" y="430.35" width="3.13" height="3.13"/><rect class="cls-4" x="464.81" y="534.3" width="3.13" height="3.13"/><rect class="cls-4" x="464.81" y="509.25" width="3.13" height="3.13"/><rect class="cls-4" x="464.81" y="484.2" width="3.13" height="3.13"/><rect class="cls-4" x="464.81" y="459.15" width="3.13" height="3.13"/><rect class="cls-4" x="464.81" y="434.11" width="3.13" height="3.13"/><rect class="cls-4" x="360.86" y="563.1" width="3.13" height="3.13"/><rect class="cls-4" x="385.91" y="563.1" width="3.13" height="3.13"/><rect class="cls-4" x="461.05" y="563.1" width="3.13" height="3.13"/><rect class="cls-4" x="464.81" y="559.34" width="3.13" height="3.13"/><rect class="cls-4" x="335.82" y="563.1" width="3.13" height="3.13"/><rect class="cls-4" x="332.06" y="559.34" width="3.13" height="3.13"/><rect class="cls-4" x="410.96" y="563.1" width="3.13" height="3.13"/><line class="cls-4" x1="335.19" y1="562.47" x2="335.19" y2="559.34"/></g><g id="Window_Door_Stairs"><rect class="cls-1" x="418.79" y="503.61" width="6.26" height="9.39"/><polyline class="cls-1" points="403.13 487.96 403.13 478.57 396.87 478.57 396.87 487.96"/><polyline class="cls-1" points="410.33 513.01 410.33 503.61 389.67 503.61 389.67 513.01"/><path class="cls-1" d="M385.28,448.82c0-.63-.06-1.26-.17-1.88-.12-.66-.31-1.3-.55-1.92-.52-1.31-1.3-2.5-2.3-3.5-1-1-2.19-1.78-3.5-2.3-.62-.25-1.27-.43-1.92-.55-.62-.11-1.25-.17-1.88-.17s-1.26,.06-1.88,.17c-.66,.12-1.3,.31-1.92,.55-1.31,.52-2.5,1.3-3.5,2.3s-1.78,2.19-2.3,3.5c-.25,.62-.43,1.27-.55,1.92-.11,.62-.17,1.25-.17,1.88s.06,1.26,.17,1.88c.12,.66,.31,1.3,.55,1.92,.52,1.31,1.3,2.5,2.3,3.5,1,1,2.19,1.78,3.5,2.3,.62,.25,1.27,.43,1.92,.55,.62,.11,1.25,.17,1.88,.17s1.26-.06,1.88-.17c.66-.12,1.3-.31,1.92-.55,1.31-.52,2.5-1.3,3.5-2.3,1-1,1.78-2.19,2.3-3.5,.25-.62,.43-1.27,.55-1.92,.11-.62,.17-1.25,.17-1.88Z"/><path class="cls-1" d="M400.63,511.71c0-.08-.01-.16-.04-.23-.03-.08-.08-.15-.14-.21s-.13-.11-.21-.14c-.07-.03-.15-.04-.23-.04s-.16,.01-.23,.04c-.08,.03-.15,.08-.21,.14s-.11,.13-.14,.21c-.03,.07-.04,.15-.04,.23s.01,.16,.04,.23c.03,.08,.08,.15,.14,.21s.13,.11,.21,.14c.07,.03,.15,.04,.23,.04s.16-.01,.23-.04c.08-.03,.15-.08,.21-.14,.06-.06,.11-.13,.14-.21,.03-.07,.04-.15,.04-.23Z"/><path class="cls-1" d="M455.42,502.99c0-.32-.03-.65-.09-.97-.06-.34-.16-.67-.28-.99-.27-.68-.67-1.29-1.19-1.8-.51-.51-1.13-.92-1.8-1.19-.32-.13-.65-.22-.99-.28-.32-.06-.64-.09-.97-.09s-.65,.03-.97,.09c-.34,.06-.67,.16-.99,.28-.68,.27-1.29,.67-1.8,1.19-.51,.51-.92,1.13-1.19,1.8-.13,.32-.22,.65-.28,.99-.06,.32-.09,.64-.09,.97s.03,.65,.09,.97c.06,.34,.16,.67,.28,.99,.27,.68,.67,1.29,1.19,1.8,.51,.51,1.13,.92,1.8,1.19,.32,.13,.65,.22,.99,.28,.32,.06,.64,.09,.97,.09s.65-.03,.97-.09c.34-.06,.67-.16,.99-.28,.68-.27,1.29-.67,1.8-1.19,.51-.51,.92-1.13,1.19-1.8,.13-.32,.22-.65,.28-.99,.06-.32,.09-.64,.09-.97Z"/><path class="cls-1" d="M340.83,491.09h41.64c.83,0,1.63,.33,2.21,.92,.59,.59,.92,1.38,.92,2.21v12.52c0,.83-.33,1.63-.92,2.21-.59,.59-1.38,.92-2.21,.92h-41.64c-.83,0-1.63-.33-2.21-.92s-.92-1.38-.92-2.21v-12.52c0-.83,.33-1.63,.92-2.21,.59-.59,1.38-.92,2.21-.92Z"/><line class="cls-1" x1="459.8" y1="566.23" x2="439.76" y2="566.23"/><line class="cls-1" x1="459.8" y1="561.85" x2="439.76" y2="561.85"/><line class="cls-1" x1="336.44" y1="538.05" x2="439.14" y2="538.05"/><line class="cls-1" x1="431.31" y1="513.01" x2="463.56" y2="513.01"/><line class="cls-1" x1="396.56" y1="487.96" x2="463.56" y2="487.96"/><line class="cls-1" x1="336.44" y1="462.91" x2="463.56" y2="462.91"/><line class="cls-1" x1="336.44" y1="487.96" x2="396.56" y2="487.96"/><line class="cls-1" x1="336.44" y1="513.01" x2="418.79" y2="513.01"/><rect class="cls-1" x="439.14" y="528.66" width="6.89" height="9.39"/><rect class="cls-1" x="452.91" y="528.66" width="6.89" height="9.39"/><polyline class="cls-1" points="452.91 528.66 446.02 528.66 446.02 538.05 452.91 538.05"/><polyline class="cls-1" points="446.02 528.66 439.14 528.66 439.14 538.05 446.02 538.05"/><polyline class="cls-1" points="435.38 566.23 332.06 566.23 332.06 430.35 467.94 430.35 467.94 566.23 464.18 566.23"/><polyline class="cls-1" points="425.05 513.01 431.31 513.01 431.31 503.61 425.05 503.61"/><line class="cls-1" x1="459.8" y1="538.05" x2="463.56" y2="538.05"/></g><g id="Accessory"><polyline class="cls-3" points="461.05 566.23 459.8 566.23 459.8 561.85 463.56 561.85 463.56 434.73"/><polyline class="cls-3" points="438.51 566.23 439.76 566.23 439.76 561.85 336.44 561.85 336.44 558.09 332.06 558.09 332.06 559.34 335.19 559.34"/><polyline class="cls-3" points="435.38 563.1 335.19 563.1 335.19 562.47"/><line class="cls-3" x1="335.19" y1="536.8" x2="335.19" y2="434.11"/><polyline class="cls-3" points="336.44 538.05 332.06 538.05 332.06 536.8"/><line class="cls-3" x1="336.44" y1="434.73" x2="336.44" y2="538.05"/><line class="cls-3" x1="463.56" y1="434.73" x2="336.44" y2="434.73"/><polyline class="cls-3" points="464.81 562.47 464.81 563.1 461.05 563.1"/><line class="cls-3" x1="464.81" y1="434.11" x2="464.81" y2="559.34"/><polyline class="cls-3" points="335.19 434.11 335.19 433.48 464.81 433.48 464.81 434.11"/></g><g id="TEXT"><path d="M439.9,457.18h-5.43v-1.05h2.19v-8.03l-2.06,1.03v-1.2l2.23-1.15h1.03v9.35h2.04v1.05Z"/><path d="M439.63,481.29h-5.68v-.87c1.44-1.61,2.38-2.68,2.8-3.23s.78-1.12,1.05-1.72c.27-.6,.4-1.2,.4-1.79s-.17-1.03-.52-1.36c-.35-.33-.84-.5-1.47-.5-.48,0-1.13,.15-1.95,.45l-.17-1.03c.74-.31,1.51-.47,2.31-.47,.92,0,1.67,.26,2.23,.78,.56,.52,.85,1.21,.85,2.08,0,.62-.15,1.24-.44,1.85-.29,.61-.66,1.2-1.12,1.76-.46,.56-1.34,1.57-2.65,3.02h4.35v1.05Z"/><path d="M363.07,500.56c.63,.18,1.14,.5,1.52,.96,.38,.47,.57,.99,.57,1.57,0,.91-.35,1.67-1.06,2.29-.71,.62-1.54,.93-2.5,.93-.82,0-1.56-.18-2.21-.54l.23-.99c.68,.32,1.35,.48,2.01,.48,.62,0,1.16-.19,1.6-.58,.44-.39,.66-.89,.66-1.5s-.24-1.09-.71-1.46c-.47-.38-1.1-.56-1.88-.56h-.32v-.99h.09c.75,0,1.37-.18,1.86-.53,.49-.35,.73-.83,.73-1.43,0-.49-.18-.87-.53-1.15-.35-.28-.83-.41-1.45-.41-.53,0-1.13,.14-1.79,.43l-.16-1.03c.66-.3,1.33-.45,2.01-.45,.92,0,1.68,.24,2.28,.73,.6,.49,.9,1.11,.9,1.87,0,.53-.18,1.02-.55,1.48-.36,.46-.8,.74-1.31,.86v.04Z"/><path d="M403.36,531.5h-1.28v2.39h-1.2v-2.39h-4.5v-.92l4.08-7.03h1.62v6.9h1.28v1.05Zm-2.48-1.05v-5.71l-3.28,5.71h3.28Z"/><path d="M361.11,527.72c.33-.09,.66-.13,.97-.13,.98,0,1.75,.3,2.31,.9,.57,.6,.85,1.34,.85,2.24,0,.94-.33,1.73-.99,2.38-.66,.65-1.46,.98-2.41,.98s-1.66-.15-2.27-.45l.24-1.02c.66,.28,1.35,.42,2.06,.42,.63,0,1.14-.2,1.53-.61,.39-.41,.58-.97,.58-1.7,0-.69-.18-1.22-.55-1.59-.37-.37-.84-.56-1.41-.56-.42,0-.83,.08-1.24,.24l-.72-.33v-4.94h4.72v1.05h-3.68v3.12Z"/><circle class="cls-2" cx="765.53" cy="1024.02" r="11.44"/><g><path d="M32.2,1028.91h-5.43v-1.05h2.19v-8.03l-2.07,1.03v-1.2l2.23-1.15h1.03v9.35h2.04v1.05Z"/><path d="M63.43,1019.72c-.62-.21-1.2-.32-1.75-.32-.62,0-1.13,.14-1.53,.43-.39,.29-.59,.69-.59,1.22,0,.63,.52,1.17,1.54,1.65,.76,.35,1.27,.6,1.51,.73,.25,.14,.5,.33,.75,.56s.46,.52,.61,.85c.15,.32,.23,.69,.23,1.09,0,1.01-.34,1.79-1.01,2.34-.68,.55-1.47,.83-2.39,.83s-1.67-.18-2.34-.53l.25-1.03c.79,.36,1.47,.53,2.06,.53,.68,0,1.23-.18,1.64-.53,.41-.35,.62-.84,.62-1.46,0-.46-.13-.85-.4-1.17-.27-.32-.76-.65-1.49-.98-.74-.34-1.22-.58-1.44-.7-.22-.12-.43-.3-.65-.52s-.38-.47-.5-.74c-.12-.27-.18-.57-.18-.89,0-.85,.31-1.52,.92-2s1.39-.72,2.34-.72c.69,0,1.37,.11,2.05,.32l-.27,1.03Z"/><path d="M72.63,1028.91h-3.12v-9.35h-1.99v-.99h3.13v9.35h1.98v.99Z"/><path d="M82.42,1025.14h-5.24c0,.86,.25,1.58,.75,2.14s1.12,.84,1.84,.84,1.41-.12,2.15-.37l.2,.92c-.67,.3-1.46,.45-2.36,.45-1.13,0-2.05-.36-2.74-1.09s-1.04-1.71-1.04-2.94,.31-2.18,.93-2.9c.62-.72,1.43-1.08,2.41-1.08,.88,0,1.61,.33,2.2,1,.59,.67,.89,1.56,.89,2.67v.36Zm-1.25-.93c0-.6-.19-1.1-.56-1.51-.37-.41-.79-.61-1.25-.61-.59,0-1.08,.2-1.47,.59s-.6,.9-.65,1.53h3.92Z"/><path d="M91.42,1025.14h-5.24c0,.86,.25,1.58,.75,2.14,.5,.56,1.11,.84,1.84,.84s1.41-.12,2.15-.37l.2,.92c-.67,.3-1.46,.45-2.36,.45-1.13,0-2.05-.36-2.74-1.09s-1.04-1.71-1.04-2.94,.31-2.18,.93-2.9c.62-.72,1.43-1.08,2.41-1.08,.88,0,1.61,.33,2.21,1s.89,1.56,.89,2.67v.36Zm-1.25-.93c0-.6-.19-1.1-.56-1.51-.37-.41-.79-.61-1.24-.61-.59,0-1.08,.2-1.47,.59-.39,.39-.6,.9-.65,1.53h3.92Z"/><path d="M95.46,1022.27c.25-.35,.6-.63,1.03-.85s.89-.32,1.37-.32c.88,0,1.57,.36,2.07,1.09,.5,.73,.75,1.67,.75,2.83s-.26,2.15-.79,2.93c-.53,.78-1.23,1.17-2.12,1.17-.47,0-.92-.12-1.33-.35-.41-.24-.74-.55-.98-.94v4.12h-1.14v-10.65h1.14v.99Zm0,1.13v3.17c.21,.43,.51,.79,.87,1.08,.37,.29,.75,.43,1.14,.43,.62,0,1.1-.29,1.47-.86,.36-.58,.55-1.29,.55-2.15s-.17-1.6-.52-2.15-.83-.83-1.45-.83c-.81,0-1.49,.44-2.05,1.32Z"/><path d="M31.93,1050.91h-5.68v-.87c1.44-1.61,2.38-2.68,2.81-3.23s.78-1.12,1.05-1.72c.27-.6,.4-1.2,.4-1.79s-.17-1.03-.52-1.36c-.35-.33-.84-.5-1.47-.5-.48,0-1.13,.15-1.95,.45l-.17-1.03c.74-.31,1.51-.47,2.31-.47,.92,0,1.67,.26,2.23,.78,.56,.52,.85,1.21,.85,2.08,0,.62-.14,1.24-.44,1.85s-.66,1.2-1.12,1.76c-.45,.56-1.34,1.57-2.65,3.02h4.35v1.05Z"/><path d="M65.33,1050.91h-1.5l-3.03-4.7h-1.33v4.7h-1.2v-10.33h2.92c.98,0,1.76,.24,2.32,.71,.57,.48,.85,1.14,.85,1.99,0,.63-.21,1.19-.62,1.68-.42,.49-.99,.82-1.71,1l3.3,4.95Zm-5.87-5.74h1.52c.63,0,1.15-.17,1.54-.52,.4-.34,.59-.78,.59-1.3,0-1.15-.7-1.73-2.11-1.73h-1.55v3.54Z"/><path d="M73.42,1047.14h-5.24c0,.86,.25,1.58,.75,2.14,.5,.56,1.11,.84,1.84,.84s1.41-.12,2.15-.37l.2,.92c-.67,.3-1.46,.45-2.36,.45-1.13,0-2.05-.36-2.74-1.09s-1.04-1.71-1.04-2.94,.31-2.18,.93-2.9c.62-.72,1.43-1.08,2.41-1.08,.88,0,1.61,.33,2.2,1s.89,1.56,.89,2.67v.36Zm-1.24-.93c0-.6-.19-1.1-.56-1.51-.37-.41-.79-.61-1.25-.61-.59,0-1.08,.2-1.47,.59-.39,.39-.6,.9-.65,1.53h3.92Z"/><path d="M81.64,1050.91h-3.12v-9.35h-1.99v-.99h3.13v9.35h1.98v.99Z"/><path d="M91.38,1050.91h-1.13c-.09-.31-.14-.72-.14-1.23-.65,.95-1.53,1.43-2.65,1.43-.57,0-1.07-.2-1.5-.6-.43-.4-.65-.92-.65-1.56,0-.38,.08-.71,.23-1s.37-.53,.67-.73c.29-.2,.65-.35,1.07-.47,.42-.12,.92-.19,1.49-.24l1.28-.1v-.37c0-1.31-.61-1.96-1.83-1.96-.29,0-.65,.06-1.09,.19-.44,.12-.82,.27-1.14,.44l-.3-.82c1.04-.53,2.01-.8,2.9-.8,1.74,0,2.61,.92,2.61,2.76v3.28c0,.66,.06,1.25,.19,1.77Zm-1.33-2.26v-1.38c-1.03,.09-1.74,.18-2.12,.26-.38,.08-.72,.23-1,.45-.28,.22-.42,.52-.42,.89,0,.34,.12,.62,.36,.83s.54,.32,.92,.32c.4,0,.81-.12,1.21-.36,.4-.24,.75-.57,1.05-1Z"/><path d="M100.47,1050.91h-1.29l-2.04-2.99-2.12,2.99h-1.22l2.72-3.82-2.72-3.81h1.31l2.05,2.97,2.09-2.97h1.22l-2.7,3.76,2.7,3.87Z"/><path d="M29.89,1067.36c.63,.18,1.13,.5,1.52,.96,.38,.47,.57,.99,.57,1.57,0,.91-.35,1.67-1.06,2.29-.71,.62-1.54,.93-2.5,.93-.82,0-1.56-.18-2.2-.54l.23-.99c.68,.32,1.35,.48,2.01,.48,.62,0,1.16-.19,1.6-.58,.44-.39,.66-.89,.66-1.5s-.24-1.09-.71-1.46c-.47-.38-1.1-.56-1.88-.56h-.31v-.99h.09c.75,0,1.37-.18,1.86-.53,.49-.35,.73-.83,.73-1.43,0-.49-.18-.87-.53-1.15-.35-.28-.83-.41-1.45-.41-.53,0-1.13,.14-1.79,.43l-.16-1.03c.66-.3,1.33-.45,2.01-.45,.92,0,1.68,.24,2.28,.73,.6,.49,.9,1.11,.9,1.87,0,.53-.18,1.02-.55,1.48-.36,.46-.8,.74-1.31,.86v.04Z"/><path d="M64.58,1072.27c-.81,.56-1.75,.84-2.82,.84-1.34,0-2.35-.46-3.05-1.38-.7-.92-1.04-2.25-1.04-3.98s.34-2.99,1.01-3.94c.67-.95,1.7-1.42,3.08-1.42,.5,0,.99,.06,1.48,.19s.88,.3,1.18,.51l-.4,.94c-.69-.39-1.44-.59-2.26-.59-.95,0-1.66,.35-2.12,1.04-.46,.69-.7,1.78-.7,3.28,0,2.87,.94,4.31,2.82,4.31,.8,0,1.61-.24,2.45-.73l.37,.95Z"/><path d="M72.63,1072.91h-3.12v-9.35h-1.99v-.99h3.13v9.35h1.98v.99Z"/><path d="M82.42,1069.14h-5.24c0,.86,.25,1.58,.75,2.14s1.12,.84,1.84,.84,1.41-.12,2.15-.37l.2,.92c-.67,.3-1.46,.45-2.36,.45-1.13,0-2.05-.36-2.74-1.09s-1.04-1.71-1.04-2.94,.31-2.18,.93-2.9c.62-.72,1.43-1.08,2.41-1.08,.88,0,1.61,.33,2.2,1,.59,.67,.89,1.56,.89,2.67v.36Zm-1.25-.93c0-.6-.19-1.1-.56-1.51-.37-.41-.79-.61-1.25-.61-.59,0-1.08,.2-1.47,.59s-.6,.9-.65,1.53h3.92Z"/><path d="M91.38,1072.91h-1.13c-.09-.31-.14-.72-.14-1.23-.65,.95-1.53,1.43-2.65,1.43-.57,0-1.07-.2-1.5-.6-.43-.4-.65-.92-.65-1.56,0-.38,.08-.71,.23-1s.37-.53,.67-.73c.29-.2,.65-.35,1.07-.47,.42-.12,.92-.19,1.49-.24l1.28-.1v-.37c0-1.31-.61-1.96-1.83-1.96-.29,0-.65,.06-1.09,.19-.44,.12-.82,.27-1.14,.44l-.3-.82c1.04-.53,2.01-.8,2.9-.8,1.74,0,2.61,.92,2.61,2.76v3.28c0,.66,.06,1.25,.19,1.77Zm-1.33-2.26v-1.38c-1.03,.09-1.74,.18-2.12,.26-.38,.08-.72,.23-1,.45-.28,.22-.42,.52-.42,.89,0,.34,.12,.62,.36,.83s.54,.32,.92,.32c.4,0,.81-.12,1.21-.36,.4-.24,.75-.57,1.05-1Z"/><path d="M100.19,1072.91h-1.14v-4.89c0-.68-.11-1.17-.33-1.48-.22-.31-.56-.46-1.02-.46-.7,0-1.45,.43-2.25,1.3v5.52h-1.14v-7.63h1.14v1.12c.82-.87,1.68-1.3,2.59-1.3,1.43,0,2.15,.86,2.15,2.59v5.22Z"/><path d="M32.6,1092.53h-1.27v2.39h-1.2v-2.39h-4.5v-.92l4.08-7.03h1.62v6.9h1.27v1.05Zm-2.47-1.05v-5.71l-3.28,5.71h3.28Z"/><path d="M64.01,1094.91h-5.4v-10.33h5.35v1.05h-4.15v3.2h3.99v1.05h-3.99v3.99h4.2v1.05Z"/><path d="M73.38,1094.91h-1.14c-.09-.31-.14-.72-.14-1.23-.65,.95-1.53,1.43-2.65,1.43-.57,0-1.07-.2-1.5-.6-.43-.4-.65-.92-.65-1.56,0-.38,.08-.71,.23-1s.37-.53,.67-.73c.29-.2,.65-.35,1.07-.47,.42-.12,.92-.19,1.49-.24l1.28-.1v-.37c0-1.31-.61-1.96-1.83-1.96-.29,0-.65,.06-1.09,.19-.44,.12-.82,.27-1.14,.44l-.3-.82c1.04-.53,2.01-.8,2.9-.8,1.74,0,2.61,.92,2.61,2.76v3.28c0,.66,.06,1.25,.19,1.77Zm-1.33-2.26v-1.38c-1.03,.09-1.74,.18-2.12,.26-.38,.08-.72,.23-1,.45-.28,.22-.42,.52-.42,.89,0,.34,.12,.62,.36,.83s.54,.32,.92,.32c.41,0,.81-.12,1.21-.36,.4-.24,.75-.57,1.05-1Z"/><path d="M82.26,1094.57c-.77,.35-1.52,.53-2.26,.53-1.36,0-2.04-.72-2.04-2.16v-4.67h-1.46v-.99h1.46v-2.09h1.11v2.09h2.59v.99h-2.59v4.37c0,.46,.1,.82,.31,1.08,.21,.26,.48,.38,.83,.38,.62,0,1.24-.14,1.85-.42l.2,.89Z"/></g><g><path d="M200.48,1022.75c.33-.09,.66-.13,.97-.13,.98,0,1.75,.3,2.31,.9,.57,.6,.85,1.34,.85,2.24,0,.94-.33,1.73-.99,2.38-.66,.65-1.46,.98-2.41,.98s-1.66-.15-2.27-.45l.24-1.02c.66,.28,1.35,.42,2.06,.42,.63,0,1.14-.2,1.53-.61s.58-.97,.58-1.7c0-.69-.18-1.22-.55-1.59-.37-.37-.84-.56-1.41-.56-.42,0-.83,.08-1.25,.24l-.72-.33v-4.94h4.72v1.05h-3.68v3.12Z"/><path d="M237.98,1018.58l-1.32,10.33h-1.11l-1.76-5.82-1.75,5.82h-1.14l-1.29-10.33h1.19l.87,8.4,1.52-5.08h1.2l1.53,5.1,.89-8.42h1.17Z"/><path d="M242.79,1021.1c1.05,0,1.88,.37,2.51,1.1,.62,.73,.93,1.7,.93,2.89s-.31,2.18-.93,2.92c-.62,.74-1.46,1.11-2.51,1.11s-1.89-.37-2.51-1.1c-.62-.74-.93-1.71-.93-2.92s.31-2.17,.93-2.9c.62-.73,1.46-1.09,2.5-1.09Zm0,7.02c.69,0,1.24-.29,1.64-.88s.6-1.3,.6-2.13c0-.88-.2-1.6-.59-2.17s-.95-.85-1.65-.85-1.26,.28-1.65,.84c-.39,.56-.59,1.29-.59,2.18s.2,1.56,.59,2.14c.4,.58,.94,.87,1.64,.87Z"/><path d="M254.87,1021.49l-.46,1.1c-.5-.22-.94-.33-1.3-.33-.34,0-.67,.1-.99,.29-.32,.19-.62,.47-.89,.83-.27,.36-.41,.56-.41,.6v4.94h-1.13v-7.63h1.13v1.55c.61-1.15,1.4-1.73,2.37-1.73,.58,0,1.14,.13,1.68,.39Z"/><path d="M264.5,1028.91h-1.5l-3.24-3.79-.75,.64v3.15h-1.14v-10.33h1.14v5.92l3.58-3.22h1.46l-3.48,3.12,3.93,4.51Z"/></g></g></svg>