<?xml version="1.0" encoding="UTF-8"?><svg xmlns="http://www.w3.org/2000/svg" viewBox="0 0 800 1120"><defs><style>.cls-1{stroke-width:.75px;}.cls-1,.cls-2,.cls-3,.cls-4,.cls-5{fill:none;stroke:#231f20;stroke-linecap:round;stroke-linejoin:round;}.cls-2{stroke-dasharray:0 2;stroke-width:.24px;}.cls-6{stroke-width:0px;}.cls-3{stroke-width:.85px;}.cls-4{stroke-width:.43px;}.cls-5{stroke-width:.28px;}</style></defs><g id="Below"><line class="cls-2" x1="341.65" y1="189.51" x2="457.46" y2="189.51"/><line class="cls-2" x1="463.63" y1="189.51" x2="664.21" y2="189.51"/><line class="cls-2" x1="135.33" y1="189.51" x2="276.25" y2="189.51"/><path class="cls-2" d="m457.46,192.59s-115.82,0-115.82,0"/><line class="cls-2" x1="363.88" y1="803.82" x2="448.43" y2="803.82"/><line class="cls-2" x1="363.88" y1="702.09" x2="448.43" y2="702.09"/><path class="cls-2" d="m448.43,806.9s-84.55,0-84.55,0"/><line class="cls-2" x1="670.93" y1="415.2" x2="670.93" y2="534.05"/><path class="cls-2" d="m667.85,533.88s0-118.68,0-118.68"/><line class="cls-2" x1="132.58" y1="415.2" x2="132.58" y2="534.05"/><path class="cls-2" d="m129.5,533.88s0-118.68,0-118.68"/></g><g id="Wall"><path class="cls-3" d="m551.83,806.69v-6.26"/><path class="cls-3" d="m335.8,312h-144.02"/><path class="cls-3" d="m135.42,312h53.22"/><path class="cls-3" d="m135.42,312h0"/><path class="cls-3" d="m457.9,294.78v120.54"/><path class="cls-3" d="m464.16,294.78h-6.26"/><path class="cls-3" d="m464.16,415.32v-120.54"/><path class="cls-3" d="m457.9,415.32h6.26"/><path class="cls-3" d="m464.16,257.21h-6.26"/><path class="cls-3" d="m464.16,189.89v67.32"/><line class="cls-3" x1="457.9" y1="189.89" x2="457.9" y2="257.21"/><path class="cls-3" d="m335.8,294.78h6.26"/><path class="cls-3" d="m335.8,308.87v-14.09"/><line class="cls-3" x1="342.06" y1="415.32" x2="342.06" y2="294.78"/><line class="cls-3" x1="342.06" y1="257.21" x2="342.06" y2="189.89"/><path class="cls-3" d="m335.8,257.21h6.26"/><path class="cls-3" d="m335.8,196.15v61.05"/><path class="cls-3" d="m282.6,196.15h53.2"/><path class="cls-3" d="m282.6,211.03v-14.87"/><path class="cls-3" d="m276.34,211.03h6.26"/><path class="cls-3" d="m276.34,189.89v21.13"/><path class="cls-3" d="m342.06,189.89h-65.72"/><path class="cls-3" d="m514.26,694h-3.13"/><path class="cls-3" d="m514.26,725.28v-31.28"/><path class="cls-3" d="m558.09,725.28h-43.83"/><path class="cls-3" d="m670.85,725.28h-109.62"/><polyline class="cls-3" points="511.13 694 511.13 728.41 664.58 728.41"/><line class="cls-3" x1="285.73" y1="600.05" x2="285.73" y2="618.83"/><line class="cls-3" x1="243.46" y1="618.83" x2="285.73" y2="618.83"/><line class="cls-3" x1="285.73" y1="600.05" x2="288.86" y2="600.05"/><path class="cls-3" d="m514.26,540.56h87.67"/><path class="cls-3" d="m514.26,622.1v-81.55"/><path class="cls-3" d="m511.13,622.1h3.13"/><path class="cls-3" d="m511.13,540.56v81.55"/><path class="cls-3" d="m511.13,534.3v6.26"/><path class="cls-3" d="m601.93,534.3h-90.8"/><line class="cls-3" x1="664.58" y1="534.32" x2="670.85" y2="534.32"/><line class="cls-3" x1="664.58" y1="534.32" x2="670.85" y2="534.32"/><line class="cls-3" x1="601.93" y1="534.3" x2="601.93" y2="540.56"/><path class="cls-3" d="m342.06,618.83v3.13"/><path class="cls-3" d="m363.97,618.83h-21.92"/><path class="cls-3" d="m363.97,659.58v-40.75"/><path class="cls-3" d="m399.98,659.58h-36.01"/><path class="cls-3" d="m363.97,662.72h36.01"/><path class="cls-3" d="m363.97,806.69v-143.97"/><path class="cls-3" d="m357.71,806.69h6.26"/><path class="cls-3" d="m357.71,621.96v39.14"/><path class="cls-3" d="m342.06,621.96h15.65"/><path class="cls-3" d="m288.86,618.83h21.89"/><path class="cls-3" d="m288.86,600.05v18.79"/><path class="cls-3" d="m357.71,661.1v145.59"/><line class="cls-3" x1="511.13" y1="415.29" x2="631.67" y2="415.32"/><line class="cls-3" x1="511.13" y1="409.03" x2="631.67" y2="409.06"/><line class="cls-3" x1="631.67" y1="415.32" x2="631.67" y2="409.06"/><path class="cls-3" d="m454.75,622.1h18.79"/><path class="cls-3" d="m454.77,725.28c0-34.39,0-55.26,0-62.59"/><polyline class="cls-3" points="454.77 728.41 473.55 728.41 473.55 725.28 454.77 725.28"/><line class="cls-3" x1="399.98" y1="659.58" x2="399.98" y2="662.72"/><line class="cls-3" x1="241.87" y1="415.32" x2="289.43" y2="415.32"/><line class="cls-3" x1="241.87" y1="408.93" x2="289.43" y2="408.93"/><line class="cls-3" x1="289.43" y1="415.32" x2="289.43" y2="408.93"/><line class="cls-3" x1="135.42" y1="312" x2="135.42" y2="330.78"/><line class="cls-3" x1="135.42" y1="189.89" x2="135.42" y2="308.87"/><path class="cls-3" d="m191.77,415.32v-6.27"/><path class="cls-3" d="m129.15,415.32h62.62"/><path class="cls-3" d="m335.8,415.32v-103.32"/><path class="cls-3" d="m342.06,415.32h-6.26"/><polyline class="cls-3" points="135.42 308.87 135.42 308.87 335.8 308.87"/><line class="cls-3" x1="129.15" y1="409.18" x2="129.15" y2="415.32"/><line class="cls-3" x1="129.15" y1="189.89" x2="129.15" y2="330.78"/><line class="cls-3" x1="135.42" y1="330.78" x2="129.15" y2="330.78"/><line class="cls-3" x1="241.87" y1="408.93" x2="241.87" y2="415.32"/><line class="cls-3" x1="129.15" y1="189.89" x2="135.42" y2="189.89"/><line class="cls-3" x1="511.13" y1="415.29" x2="511.13" y2="409.06"/><path class="cls-3" d="m153.52,764.19c.07,0,.13.07.2.17"/><line class="cls-3" x1="464.16" y1="534.3" x2="464.19" y2="537.43"/><line class="cls-3" x1="445.17" y1="537.43" x2="445.17" y2="575"/><line class="cls-3" x1="420.33" y1="537.43" x2="420.33" y2="575"/><line class="cls-3" x1="335.79" y1="537.43" x2="335.73" y2="534.3"/><line class="cls-3" x1="445.17" y1="537.43" x2="464.16" y2="537.43"/><line class="cls-3" x1="335.76" y1="537.43" x2="420.33" y2="537.43"/><line class="cls-3" x1="464.14" y1="575" x2="464.13" y2="578.13"/><line class="cls-3" x1="445.17" y1="575" x2="464.14" y2="575"/><line class="cls-3" x1="335.8" y1="578.13" x2="464.16" y2="578.13"/><line class="cls-3" x1="335.8" y1="578.13" x2="335.8" y2="575"/><line class="cls-3" x1="335.8" y1="575" x2="420.33" y2="575"/><line class="cls-3" x1="129.15" y1="562.47" x2="129.15" y2="534.3"/><line class="cls-3" x1="135.42" y1="562.47" x2="135.42" y2="534.3"/><line class="cls-3" x1="135.42" y1="562.47" x2="129.15" y2="562.47"/><line class="cls-3" x1="129.15" y1="600.05" x2="129.15" y2="806.69"/><line class="cls-3" x1="135.42" y1="600.05" x2="129.15" y2="600.05"/><line class="cls-3" x1="335.73" y1="534.3" x2="464.16" y2="534.3"/><line class="cls-3" x1="670.81" y1="189.89" x2="664.55" y2="189.89"/><line class="cls-3" x1="664.55" y1="409.06" x2="664.55" y2="189.89"/><line class="cls-3" x1="670.81" y1="415.32" x2="670.81" y2="189.89"/><line class="cls-3" x1="464.16" y1="189.89" x2="457.9" y2="189.89"/><line class="cls-3" x1="664.55" y1="415.32" x2="670.81" y2="415.32"/><line class="cls-3" x1="664.55" y1="409.06" x2="664.55" y2="415.32"/><line class="cls-3" x1="129.15" y1="806.69" x2="135.42" y2="806.69"/><line class="cls-3" x1="135.42" y1="534.3" x2="129.15" y2="534.3"/><path class="cls-3" d="m135.42,806.69v-184.73"/><line class="cls-3" x1="664.58" y1="662.69" x2="670.85" y2="662.69"/><path class="cls-3" d="m135.42,618.74v-18.7"/><path class="cls-3" d="m240.33,618.82c-34.97-.03-69.95-.05-104.92-.08"/><path class="cls-3" d="m310.75,621.96v-3.13"/><path class="cls-3" d="m285.73,621.96h25.02"/><path class="cls-3" d="m245.03,621.96h40.7"/><path class="cls-3" d="m135.42,621.96h109.61"/><path class="cls-3" d="m243.46,600.05h-3.13"/><path class="cls-3" d="m243.46,618.83v-18.78"/><path class="cls-3" d="m240.33,618.82v-18.78"/><path class="cls-3" d="m240.33,562.47v-28.18"/><path class="cls-3" d="m243.46,562.47h-3.13"/><path class="cls-3" d="m243.46,540.56v21.92"/><path class="cls-3" d="m289.24,534.3h-48.91"/><path class="cls-3" d="m289.36,562.47v-28.18"/><path class="cls-3" d="m285.73,562.47h3.47"/><path class="cls-3" d="m285.73,540.56v21.92"/><line class="cls-3" x1="285.73" y1="540.56" x2="243.46" y2="540.56"/><path class="cls-3" d="m670.85,725.28v81.4"/><path class="cls-3" d="m670.85,534.32v128.37"/><path class="cls-3" d="m664.58,662.69v-128.37"/><path class="cls-3" d="m664.58,800.43v-72.01"/><polyline class="cls-3" points="664.58 800.43 645.77 800.39 645.77 806.69"/><line class="cls-3" x1="670.85" y1="806.69" x2="645.77" y2="806.69"/><line class="cls-3" x1="454.78" y1="784.79" x2="454.77" y2="728.41"/><path class="cls-3" d="m448.49,662.72c0,29.72.02,77.71.04,143.97"/><path class="cls-3" d="m448.49,659.58h-9.37v3.13h9.37"/><path class="cls-3" d="m448.49,618.83v40.75"/><path class="cls-3" d="m473.54,618.83h-25.05"/><path class="cls-3" d="m473.54,622.1v-3.27"/><line class="cls-3" x1="454.78" y1="784.79" x2="454.79" y2="800.45"/><polyline class="cls-3" points="561.22 662.69 633.24 662.69 633.24 659.56 511.13 659.56 511.13 662.69 558.09 662.69"/><line class="cls-3" x1="561.22" y1="725.28" x2="561.22" y2="662.69"/><line class="cls-3" x1="558.09" y1="725.28" x2="558.09" y2="662.69"/><line class="cls-3" x1="454.77" y1="659.56" x2="454.75" y2="622.1"/><polyline class="cls-3" points="454.77 662.69 473.55 662.69 473.55 659.56 454.77 659.56"/><polyline class="cls-3" points="188.64 409.05 135.42 409.05 135.42 368.36 129.15 368.36 129.15 409.18"/><polyline class="cls-3" points="191.77 409.05 191.77 368.36 188.64 368.36 188.64 409.05"/><polyline class="cls-3" points="191.77 312 191.77 330.78 188.64 330.78 188.64 312"/><path class="cls-3" d="m551.83,800.43c-32.35,0-64.69.01-97.04.02"/><path class="cls-3" d="m448.53,806.69h103.3"/></g><g id="Window_Door_Stairs"><line class="cls-5" x1="129.15" y1="330.78" x2="129.15" y2="368.36"/><line class="cls-5" x1="240.33" y1="540.56" x2="135.42" y2="540.56"/><line class="cls-5" x1="664.58" y1="662.69" x2="664.58" y2="725.28"/><line class="cls-5" x1="670.85" y1="662.69" x2="670.85" y2="725.28"/><line class="cls-5" x1="601.93" y1="559.34" x2="664.58" y2="559.34"/><line class="cls-5" x1="601.93" y1="540.56" x2="664.58" y2="540.56"/><line class="cls-5" x1="601.93" y1="534.3" x2="664.58" y2="534.32"/><line class="cls-5" x1="135.42" y1="562.47" x2="135.42" y2="600.05"/><line class="cls-5" x1="399.98" y1="659.58" x2="439.12" y2="659.58"/><line class="cls-5" x1="551.83" y1="806.69" x2="645.77" y2="806.69"/><line class="cls-5" x1="551.83" y1="800.41" x2="645.77" y2="800.41"/><line class="cls-5" x1="342.09" y1="257.21" x2="457.9" y2="257.21"/><line class="cls-5" x1="342.09" y1="250.95" x2="457.9" y2="250.95"/><line class="cls-5" x1="135.42" y1="806.69" x2="342.06" y2="806.69"/><line class="cls-5" x1="631.67" y1="409.06" x2="664.55" y2="409.06"/><line class="cls-5" x1="631.67" y1="415.32" x2="664.55" y2="415.32"/><line class="cls-5" x1="129.15" y1="562.47" x2="129.15" y2="600.05"/><line class="cls-5" x1="399.98" y1="662.72" x2="439.12" y2="662.72"/><line class="cls-5" x1="191.77" y1="409.05" x2="241.87" y2="409.05"/><line class="cls-5" x1="191.77" y1="415.32" x2="241.87" y2="415.32"/><line class="cls-5" x1="135.42" y1="368.36" x2="135.42" y2="330.78"/><line class="cls-5" x1="276.3" y1="207.11" x2="135.42" y2="207.11"/><line class="cls-5" x1="276.3" y1="211.81" x2="135.42" y2="211.81"/><line class="cls-5" x1="397.16" y1="537.43" x2="397.16" y2="575"/><line class="cls-5" x1="388.39" y1="537.43" x2="388.39" y2="575"/><line class="cls-5" x1="414.69" y1="537.43" x2="414.69" y2="575"/><line class="cls-5" x1="405.93" y1="537.43" x2="405.93" y2="575"/><line class="cls-5" x1="379.63" y1="537.43" x2="379.63" y2="575"/><line class="cls-5" x1="370.86" y1="537.43" x2="370.86" y2="575"/><line class="cls-5" x1="362.1" y1="537.43" x2="362.1" y2="575"/><line class="cls-5" x1="353.33" y1="537.43" x2="353.33" y2="575"/><line class="cls-5" x1="344.56" y1="537.43" x2="344.56" y2="575"/><line class="cls-5" x1="335.8" y1="537.43" x2="335.8" y2="575"/><line class="cls-5" x1="464.22" y1="207.11" x2="664.55" y2="207.11"/><line class="cls-5" x1="464.22" y1="211.81" x2="664.55" y2="211.81"/><line class="cls-5" x1="327.03" y1="537.43" x2="327.03" y2="575"/><line class="cls-5" x1="335.8" y1="575" x2="327.03" y2="575"/><line class="cls-5" x1="335.76" y1="537.43" x2="327.03" y2="537.43"/><line class="cls-5" x1="283.17" y1="534.29" x2="283.17" y2="415.32"/><line class="cls-5" x1="289.43" y1="534.29" x2="289.43" y2="415.32"/><line class="cls-5" x1="517.39" y1="534.26" x2="517.39" y2="415.29"/><line class="cls-5" x1="511.13" y1="534.26" x2="511.13" y2="415.29"/><line class="cls-5" x1="240.33" y1="534.3" x2="135.42" y2="534.3"/></g><g id="Accessory"><polyline class="cls-4" points="511.13 728.41 511.13 737.81 664.58 737.81"/><polyline class="cls-4" points="473.55 728.41 473.55 737.81 454.77 737.81"/><line class="cls-4" x1="342.06" y1="806.69" x2="357.71" y2="806.69"/><line class="cls-4" x1="188.64" y1="330.78" x2="135.42" y2="330.78"/><line class="cls-4" x1="473.55" y1="725.28" x2="473.55" y2="662.69"/><polyline class="cls-4" points="601.93 540.56 601.93 559.34 514.26 559.34"/><line class="cls-4" x1="240.33" y1="600.05" x2="135.42" y2="600.05"/><line class="cls-4" x1="135.42" y1="562.47" x2="240.33" y2="562.47"/><line class="cls-4" x1="664.58" y1="784.77" x2="454.79" y2="784.78"/><line class="cls-4" x1="335.73" y1="513.94" x2="335.73" y2="534.3"/><line class="cls-4" x1="464.16" y1="513.94" x2="464.16" y2="534.3"/><line class="cls-4" x1="335.73" y1="513.94" x2="464.16" y2="513.94"/><rect class="cls-4" x="335.83" y="451.33" width="128.34" height="25.05"/><line class="cls-4" x1="463.96" y1="537.43" x2="463.96" y2="575"/><line class="cls-4" x1="664.55" y1="393.4" x2="511.13" y2="393.37"/><line class="cls-4" x1="511.13" y1="409.06" x2="511.13" y2="393.37"/><line class="cls-4" x1="335.8" y1="294.78" x2="135.42" y2="294.78"/><line class="cls-4" x1="335.8" y1="330.78" x2="191.77" y2="330.78"/><line class="cls-4" x1="342.06" y1="806.69" x2="342.06" y2="621.96"/><line class="cls-4" x1="282.6" y1="211.03" x2="335.8" y2="211.03"/><polyline class="cls-4" points="363.97 618.83 379.63 618.83 379.63 659.58"/></g><g id="TEXT"><circle class="cls-1" cx="765.53" cy="1024.02" r="11.44"/><line class="cls-1" x1="765.53" y1="1012.57" x2="765.53" y2="1024.02"/><path class="cls-6" d="m402.9,503.37h-5.43v-1.05h2.19v-8.03l-2.06,1.03v-1.2l2.23-1.15h1.03v9.35h2.04v1.05Z"/><path class="cls-6" d="m570.17,311.58h-5.68v-.87c1.44-1.61,2.38-2.68,2.8-3.23s.78-1.12,1.05-1.72c.27-.6.4-1.2.4-1.79s-.17-1.03-.52-1.36c-.35-.33-.84-.5-1.47-.5-.48,0-1.13.15-1.95.45l-.17-1.03c.74-.31,1.51-.47,2.31-.47.92,0,1.67.26,2.23.78.56.52.85,1.21.85,2.08,0,.62-.15,1.24-.44,1.85-.29.61-.66,1.2-1.12,1.76-.46.56-1.34,1.57-2.65,3.02h4.35v1.05Z"/><path class="cls-6" d="m398.96,347.53c.63.18,1.14.5,1.52.96.38.47.57.99.57,1.57,0,.91-.35,1.67-1.06,2.29-.71.62-1.54.93-2.5.93-.82,0-1.56-.18-2.21-.54l.23-.99c.68.32,1.35.48,2.01.48.62,0,1.16-.19,1.6-.58.44-.39.66-.89.66-1.5s-.24-1.09-.71-1.46c-.47-.38-1.1-.56-1.88-.56h-.32v-.99h.09c.75,0,1.37-.18,1.86-.53.49-.35.73-.83.73-1.43,0-.49-.18-.87-.53-1.15-.35-.28-.83-.41-1.45-.41-.53,0-1.13.14-1.79.43l-.16-1.03c.66-.3,1.33-.45,2.01-.45.92,0,1.68.24,2.28.73.6.49.9,1.11.9,1.87,0,.53-.18,1.02-.55,1.48-.36.46-.8.74-1.31.86v.04Z"/><path class="cls-6" d="m191.23,586.25h-1.27v2.39h-1.2v-2.39h-4.5v-.92l4.08-7.03h1.62v6.9h1.27v1.05Zm-2.48-1.05v-5.71l-3.28,5.71h3.28Z"/><path class="cls-6" d="m262.46,582.47c.33-.09.66-.13.97-.13.98,0,1.75.3,2.31.9.57.6.85,1.34.85,2.24,0,.94-.33,1.73-.99,2.38-.66.65-1.46.98-2.41.98s-1.66-.15-2.27-.45l.24-1.02c.66.28,1.35.42,2.06.42.63,0,1.14-.2,1.53-.61.39-.41.58-.97.58-1.7,0-.69-.18-1.22-.55-1.59-.37-.37-.84-.56-1.41-.56-.42,0-.83.08-1.25.24l-.72-.33v-4.94h4.72v1.05h-3.68v3.12Z"/><path class="cls-6" d="m534.85,693.72c.33-.09.66-.13.97-.13.98,0,1.75.3,2.31.9.57.6.85,1.34.85,2.24,0,.94-.33,1.73-.99,2.38-.66.65-1.46.98-2.41.98s-1.66-.15-2.27-.45l.24-1.02c.66.28,1.35.42,2.06.42.63,0,1.14-.2,1.53-.61.39-.41.58-.97.58-1.7,0-.69-.18-1.22-.55-1.59-.37-.37-.84-.56-1.41-.56-.42,0-.83.08-1.24.24l-.72-.33v-4.94h4.72v1.05h-3.68v3.12Z"/><path class="cls-6" d="m590.7,613.04c.64-.52,1.34-.78,2.1-.78.87,0,1.6.28,2.19.84.58.56.88,1.28.88,2.16,0,.97-.26,1.78-.78,2.41-.52.63-1.21.95-2.07.95-1.1,0-1.98-.51-2.62-1.52-.64-1.01-.97-2.25-.97-3.72,0-1.56.34-2.87,1.01-3.92.67-1.05,1.59-1.58,2.76-1.58.81,0,1.5.12,2.09.36l-.19,1.07c-.68-.25-1.3-.37-1.86-.37-.8,0-1.42.38-1.86,1.14-.45.76-.67,1.75-.67,2.95Zm.04,1.03c0,.88.21,1.69.62,2.41.42.72.94,1.08,1.57,1.08.53,0,.94-.19,1.23-.59.29-.39.43-.93.43-1.62,0-.63-.16-1.14-.48-1.5-.32-.37-.76-.55-1.34-.55-.75,0-1.43.25-2.04.76Z"/><path class="cls-6" d="m265.07,368.83c.64-.52,1.35-.78,2.1-.78.87,0,1.6.28,2.19.84.58.56.88,1.28.88,2.16,0,.97-.26,1.78-.78,2.41s-1.21.95-2.07.95c-1.1,0-1.98-.51-2.62-1.52-.64-1.01-.97-2.25-.97-3.72,0-1.56.34-2.87,1.01-3.92s1.59-1.58,2.76-1.58c.81,0,1.5.12,2.09.36l-.19,1.07c-.68-.25-1.3-.37-1.86-.37-.8,0-1.42.38-1.86,1.14s-.67,1.75-.67,2.95Zm.04,1.03c0,.88.21,1.69.62,2.41.42.72.94,1.08,1.57,1.08.53,0,.94-.19,1.23-.59.29-.39.43-.93.43-1.62,0-.63-.16-1.14-.48-1.5-.32-.37-.76-.55-1.34-.55-.75,0-1.43.25-2.04.76Z"/><path class="cls-6" d="m165.12,364.74l-4.09,9.48h-1.23l4.04-9.29h-4.84v-1.05h6.13v.86Z"/><path class="cls-6" d="m237.57,254.97c-.6.52-1.3.78-2.1.78-.87,0-1.6-.28-2.19-.84-.58-.56-.88-1.28-.88-2.17,0-.95.28-1.74.84-2.39.56-.65,1.28-.97,2.16-.97,1.08,0,1.92.49,2.53,1.48s.91,2.24.91,3.76-.35,2.81-1.07,3.89c-.71,1.07-1.66,1.61-2.85,1.61-.8,0-1.49-.12-2.08-.37l.19-1.06c.67.25,1.29.37,1.86.37.81,0,1.46-.39,1.94-1.18s.73-1.76.73-2.92Zm-.03-1.03c0-.93-.19-1.74-.56-2.44-.38-.7-.87-1.05-1.48-1.05-.55,0-.99.2-1.32.61-.33.41-.49.94-.49,1.59,0,.6.17,1.09.5,1.48.33.38.77.58,1.31.58.75,0,1.4-.23,1.95-.69l.1-.07Z"/><path class="cls-6" d="m410.18,625.34h-5.43v-1.05h2.19v-8.03l-2.06,1.03v-1.2l2.23-1.15h1.03v9.35h2.04v1.05Z"/><path class="cls-6" d="m416.21,614.81c1.09,0,1.93.47,2.52,1.41.59.94.88,2.26.88,3.96s-.29,2.95-.86,3.92c-.57.96-1.42,1.45-2.55,1.45s-1.93-.47-2.52-1.41-.89-2.26-.89-3.96.29-2.96.86-3.92c.57-.96,1.42-1.45,2.54-1.45Zm0,9.67c.72,0,1.26-.34,1.61-1.03.35-.69.52-1.78.52-3.28s-.17-2.6-.52-3.28c-.35-.68-.88-1.02-1.61-1.02s-1.25.35-1.6,1.05c-.35.7-.53,1.78-.53,3.25s.17,2.58.52,3.27c.35.69.88,1.04,1.6,1.04Zm-.03-5.4c.31,0,.57.11.78.32s.32.47.32.78-.11.59-.32.82c-.21.23-.47.34-.78.34s-.55-.11-.77-.34c-.21-.23-.32-.5-.32-.82s.1-.57.31-.78c.21-.21.46-.31.77-.31Z"/><path class="cls-6" d="m241.89,719.96h-5.43v-1.05h2.19v-8.03l-2.07,1.03v-1.2l2.23-1.15h1.03v9.35h2.04v1.05Z"/><path class="cls-6" d="m250.89,719.96h-5.43v-1.05h2.19v-8.03l-2.07,1.03v-1.2l2.23-1.15h1.03v9.35h2.04v1.05Z"/><path class="cls-6" d="m563.85,764.61c.7.21,1.25.55,1.64,1.05.39.49.58,1.07.58,1.73,0,.95-.31,1.7-.94,2.26-.63.56-1.4.83-2.32.83s-1.75-.28-2.37-.84c-.62-.56-.93-1.31-.93-2.23,0-.65.2-1.23.6-1.73s.96-.85,1.68-1.06c-.57-.15-1.03-.43-1.37-.85-.34-.42-.52-.88-.52-1.4,0-.66.26-1.27.79-1.8.53-.54,1.22-.81,2.09-.81s1.56.27,2.12.81c.56.54.84,1.14.84,1.81,0,.5-.18.97-.53,1.39-.35.42-.81.71-1.36.86Zm-1.07.53c-1.34.39-2.01,1.13-2.01,2.2,0,.63.2,1.13.61,1.51.41.38.88.57,1.43.57s1.04-.19,1.43-.56c.39-.37.58-.88.58-1.52,0-.48-.13-.92-.4-1.3-.27-.38-.82-.68-1.64-.9Zm0-1.03s.14-.03.35-.09.39-.13.54-.22c.15-.09.29-.19.41-.33s.23-.29.31-.46c.08-.18.12-.38.12-.6,0-.47-.17-.86-.5-1.17-.34-.31-.75-.46-1.22-.46s-.86.16-1.19.48-.5.7-.5,1.16c0,.29.06.54.18.75.12.21.27.39.45.52.18.13.38.23.62.31.23.07.38.11.45.11Z"/><path class="cls-6" d="m619.12,690.41l-4.09,9.48h-1.23l4.04-9.29h-4.84v-1.05h6.13v.86Z"/><path class="cls-6" d="m32.2,1028.91h-5.43v-1.05h2.19v-8.03l-2.07,1.03v-1.2l2.23-1.15h1.03v9.35h2.04v1.05Z"/><path class="cls-6" d="m65.57,1028.91h-1.52l-3.49-5.07-1.09,1.19v3.88h-1.2v-10.33h1.2v4.95l4.58-4.95h1.38l-4.04,4.37,4.17,5.97Z"/><path class="cls-6" d="m71.29,1028.91h-1.14v-6.64h-2.25v-.99h3.39v7.63Zm-.56-10.52c.21,0,.4.08.55.23.15.15.23.34.23.55,0,.23-.07.41-.22.56s-.33.23-.55.23c-.2,0-.38-.08-.53-.24-.15-.16-.23-.34-.23-.55s.08-.39.23-.55c.15-.16.33-.23.53-.23Z"/><path class="cls-6" d="m82.27,1028.57c-.77.35-1.52.53-2.26.53-1.36,0-2.04-.72-2.04-2.16v-4.67h-1.46v-.99h1.46v-2.09h1.11v2.09h2.59v.99h-2.59v4.37c0,.46.1.82.31,1.08.21.26.48.38.83.38.62,0,1.24-.14,1.85-.42l.2.89Z"/><path class="cls-6" d="m91.16,1028.66c-.66.3-1.39.45-2.19.45-1.2,0-2.16-.36-2.87-1.09-.72-.73-1.07-1.7-1.07-2.91s.36-2.18,1.08-2.91c.72-.73,1.67-1.09,2.84-1.09.77,0,1.5.13,2.19.4l-.3.95c-.69-.24-1.32-.36-1.88-.36-.84,0-1.51.27-2,.81-.49.54-.74,1.28-.74,2.21,0,.85.25,1.56.76,2.14.51.58,1.17.87,1.98.87.64,0,1.31-.12,1.99-.37l.2.92Z"/><path class="cls-6" d="m100.19,1028.91h-1.14v-4.89c0-.68-.11-1.17-.33-1.48-.22-.31-.56-.46-1.02-.46-.7,0-1.45.43-2.25,1.3v5.52h-1.14v-10.33h1.14v3.82c.82-.87,1.68-1.3,2.59-1.3,1.43,0,2.15.86,2.15,2.59v5.22Z"/><path class="cls-6" d="m109.42,1025.14h-5.24c0,.86.25,1.58.75,2.14.5.56,1.11.84,1.84.84s1.41-.12,2.15-.37l.2.92c-.67.3-1.46.45-2.36.45-1.13,0-2.05-.36-2.74-1.09s-1.04-1.71-1.04-2.94.31-2.18.93-2.9c.62-.72,1.43-1.08,2.41-1.08.88,0,1.61.33,2.2,1s.89,1.56.89,2.67v.36Zm-1.25-.93c0-.6-.19-1.1-.56-1.51-.37-.41-.79-.61-1.25-.61-.59,0-1.08.2-1.47.59-.39.39-.6.9-.65,1.53h3.92Z"/><path class="cls-6" d="m118.2,1028.91h-1.14v-4.89c0-.68-.11-1.17-.33-1.48-.22-.31-.56-.46-1.02-.46-.7,0-1.45.43-2.25,1.3v5.52h-1.14v-7.63h1.14v1.12c.82-.87,1.68-1.3,2.59-1.3,1.43,0,2.15.86,2.15,2.59v5.22Z"/><path class="cls-6" d="m31.93,1050.91h-5.68v-.87c1.44-1.61,2.38-2.68,2.81-3.23s.78-1.12,1.05-1.72c.27-.6.4-1.2.4-1.79s-.17-1.03-.52-1.36c-.35-.33-.84-.5-1.47-.5-.48,0-1.13.15-1.95.45l-.17-1.03c.74-.31,1.51-.47,2.31-.47.92,0,1.67.26,2.23.78.56.52.85,1.21.85,2.08,0,.62-.15,1.24-.44,1.85s-.66,1.2-1.12,1.76-1.34,1.57-2.65,3.02h4.35v1.05Z"/><path class="cls-6" d="m64.23,1050.91h-5.62v-10.33h1.2v9.29h4.42v1.05Z"/><path class="cls-6" d="m71.29,1050.91h-1.14v-6.64h-2.25v-.99h3.39v7.63Zm-.56-10.52c.21,0,.4.08.55.23.15.15.23.34.23.55,0,.23-.07.41-.22.56s-.33.23-.55.23c-.2,0-.38-.08-.53-.24-.15-.16-.23-.34-.23-.55s.08-.39.23-.55c.15-.16.33-.23.53-.23Z"/><path class="cls-6" d="m82.54,1043.28l-2.89,7.63h-1.04l-2.88-7.63h1.25l2.16,6.07,2.16-6.07h1.25Z"/><path class="cls-6" d="m89.29,1050.91h-1.14v-6.64h-2.25v-.99h3.39v7.63Zm-.56-10.52c.21,0,.4.08.55.23.15.15.23.34.23.55,0,.23-.07.41-.22.56s-.33.23-.55.23c-.2,0-.38-.08-.53-.24-.15-.16-.23-.34-.23-.55s.08-.39.23-.55c.15-.16.33-.23.53-.23Z"/><path class="cls-6" d="m100.19,1050.91h-1.14v-4.89c0-.68-.11-1.17-.33-1.48-.22-.31-.56-.46-1.02-.46-.7,0-1.45.43-2.25,1.3v5.52h-1.14v-7.63h1.14v1.12c.82-.87,1.68-1.3,2.59-1.3,1.43,0,2.15.86,2.15,2.59v5.22Z"/><path class="cls-6" d="m105.43,1048.04c-.71.35-1.07.65-1.07.92,0,.14.08.26.25.36s.39.15.67.15l2.57-.07c.61,0,1.08.15,1.42.45.34.3.51.72.51,1.27,0,.86-.39,1.55-1.16,2.06-.77.51-1.67.77-2.7.77-.84,0-1.54-.18-2.07-.53-.54-.35-.81-.81-.81-1.37,0-.61.42-1.12,1.25-1.54-.69-.32-1.03-.72-1.03-1.19,0-.54.44-1.04,1.33-1.5-.41-.25-.73-.57-.94-.97s-.33-.81-.33-1.25c0-.72.24-1.31.73-1.77.49-.46,1.1-.69,1.83-.69.53,0,1,.11,1.43.33l2.26-.34v1.11h-1.46c.22.39.33.84.33,1.36,0,.69-.24,1.28-.73,1.76-.48.48-1.1.72-1.84.72-.16,0-.31,0-.45-.02Zm.49,5.01c.75,0,1.39-.17,1.92-.5.53-.33.79-.75.79-1.24s-.38-.76-1.13-.76c-.25,0-.68.01-1.29.04-.39.02-.69.03-.91.03-.11,0-.27.09-.5.26-.23.18-.4.35-.52.53-.12.18-.18.36-.18.55,0,.3.17.55.5.77.33.21.77.32,1.31.32Zm-.04-5.88c.42,0,.76-.15,1.03-.44.27-.29.4-.67.4-1.14,0-.49-.13-.88-.39-1.16-.26-.28-.61-.42-1.04-.42-.41,0-.75.15-1.02.44-.28.29-.41.67-.41,1.14s.14.84.41,1.13c.28.3.62.44,1.02.44Z"/><path class="cls-6" d="m29.89,1067.36c.63.18,1.14.5,1.52.96.38.47.57.99.57,1.57,0,.91-.35,1.67-1.06,2.29-.71.62-1.54.93-2.5.93-.82,0-1.56-.18-2.2-.54l.23-.99c.68.32,1.35.48,2.01.48.62,0,1.16-.19,1.6-.58.44-.39.66-.89.66-1.5s-.24-1.09-.71-1.46c-.47-.38-1.1-.56-1.88-.56h-.31v-.99h.09c.75,0,1.37-.18,1.86-.53.49-.35.73-.83.73-1.43,0-.49-.18-.87-.53-1.15-.35-.28-.83-.41-1.45-.41-.53,0-1.13.14-1.79.43l-.16-1.03c.66-.3,1.33-.45,2.01-.45.92,0,1.68.24,2.28.73.6.49.9,1.11.9,1.87,0,.53-.18,1.02-.55,1.48-.36.46-.8.74-1.31.86v.04Z"/><path class="cls-6" d="m58.26,1062.58h2.04c1.35,0,2.44.46,3.25,1.38.82.92,1.22,2.18,1.22,3.79s-.41,2.91-1.24,3.81c-.83.9-1.89,1.35-3.18,1.35h-2.09v-10.33Zm1.2,9.29h.85c.98,0,1.76-.36,2.33-1.09s.86-1.74.86-3.03-.29-2.29-.86-3.02c-.57-.74-1.35-1.1-2.33-1.1h-.85v8.24Z"/><path class="cls-6" d="m71.29,1072.91h-1.14v-6.64h-2.25v-.99h3.39v7.63Zm-.56-10.52c.21,0,.4.08.55.23.15.15.23.34.23.55,0,.23-.07.41-.22.56s-.33.23-.55.23c-.2,0-.38-.08-.53-.24-.15-.16-.23-.34-.23-.55s.08-.39.23-.55c.15-.16.33-.23.53-.23Z"/><path class="cls-6" d="m82.19,1072.91h-1.14v-4.89c0-.68-.11-1.17-.33-1.48-.22-.31-.56-.46-1.02-.46-.7,0-1.45.43-2.25,1.3v5.52h-1.14v-7.63h1.14v1.12c.82-.87,1.68-1.3,2.59-1.3,1.43,0,2.15.86,2.15,2.59v5.22Z"/><path class="cls-6" d="m89.29,1072.91h-1.14v-6.64h-2.25v-.99h3.39v7.63Zm-.56-10.52c.21,0,.4.08.55.23.15.15.23.34.23.55,0,.23-.07.41-.22.56s-.33.23-.55.23c-.2,0-.38-.08-.53-.24-.15-.16-.23-.34-.23-.55s.08-.39.23-.55c.15-.16.33-.23.53-.23Z"/><path class="cls-6" d="m100.19,1072.91h-1.14v-4.89c0-.68-.11-1.17-.33-1.48-.22-.31-.56-.46-1.02-.46-.7,0-1.45.43-2.25,1.3v5.52h-1.14v-7.63h1.14v1.12c.82-.87,1.68-1.3,2.59-1.3,1.43,0,2.15.86,2.15,2.59v5.22Z"/><path class="cls-6" d="m105.43,1070.04c-.71.35-1.07.65-1.07.92,0,.14.08.26.25.36s.39.15.67.15l2.57-.07c.61,0,1.08.15,1.42.45.34.3.51.72.51,1.27,0,.86-.39,1.55-1.16,2.06-.77.51-1.67.77-2.7.77-.84,0-1.54-.18-2.07-.53-.54-.35-.81-.81-.81-1.37,0-.61.42-1.12,1.25-1.54-.69-.32-1.03-.72-1.03-1.19,0-.54.44-1.04,1.33-1.5-.41-.25-.73-.57-.94-.97s-.33-.81-.33-1.25c0-.72.24-1.31.73-1.77.49-.46,1.1-.69,1.83-.69.53,0,1,.11,1.43.33l2.26-.34v1.11h-1.46c.22.39.33.84.33,1.36,0,.69-.24,1.28-.73,1.76-.48.48-1.1.72-1.84.72-.16,0-.31,0-.45-.02Zm.49,5.01c.75,0,1.39-.17,1.92-.5.53-.33.79-.75.79-1.24s-.38-.76-1.13-.76c-.25,0-.68.01-1.29.04-.39.02-.69.03-.91.03-.11,0-.27.09-.5.26-.23.18-.4.35-.52.53-.12.18-.18.36-.18.55,0,.3.17.55.5.77.33.21.77.32,1.31.32Zm-.04-5.88c.42,0,.76-.15,1.03-.44.27-.29.4-.67.4-1.14,0-.49-.13-.88-.39-1.16-.26-.28-.61-.42-1.04-.42-.41,0-.75.15-1.02.44-.28.29-.41.67-.41,1.14s.14.84.41,1.13c.28.3.62.44,1.02.44Z"/><path class="cls-6" d="m32.6,1092.53h-1.27v2.39h-1.2v-2.39h-4.5v-.92l4.08-7.03h1.62v6.9h1.27v1.05Zm-2.48-1.05v-5.71l-3.28,5.71h3.28Z"/><path class="cls-6" d="m64.23,1094.91h-5.62v-10.33h1.2v9.29h4.42v1.05Z"/><path class="cls-6" d="m73.38,1094.91h-1.14c-.09-.31-.14-.72-.14-1.23-.65.95-1.53,1.43-2.65,1.43-.57,0-1.07-.2-1.5-.6-.43-.4-.65-.92-.65-1.56,0-.38.08-.71.23-1s.37-.53.67-.73c.29-.2.65-.35,1.07-.47.42-.12.92-.19,1.49-.24l1.28-.1v-.37c0-1.31-.61-1.96-1.83-1.96-.29,0-.65.06-1.09.19-.44.12-.82.27-1.14.44l-.3-.82c1.04-.53,2.01-.8,2.9-.8,1.74,0,2.61.92,2.61,2.76v3.28c0,.66.06,1.25.19,1.77Zm-1.33-2.26v-1.38c-1.03.09-1.74.18-2.12.26-.38.08-.72.23-1,.45-.28.22-.42.52-.42.89,0,.34.12.62.36.83s.54.32.92.32c.41,0,.81-.12,1.21-.36.4-.24.75-.57,1.05-1Z"/><path class="cls-6" d="m82.18,1094.91h-1.14v-1.13c-.82.87-1.68,1.31-2.59,1.31-1.43,0-2.15-.87-2.15-2.6v-5.21h1.14v4.89c0,.65.1,1.13.31,1.45.21.32.55.48,1.04.48.7,0,1.45-.43,2.25-1.3v-5.51h1.14v7.63Z"/><path class="cls-6" d="m91.19,1094.91h-1.14v-4.89c0-.68-.11-1.17-.33-1.48-.22-.31-.56-.46-1.02-.46-.7,0-1.45.43-2.25,1.3v5.52h-1.14v-7.63h1.14v1.12c.82-.87,1.68-1.3,2.59-1.3,1.43,0,2.15.86,2.15,2.59v5.22Z"/><path class="cls-6" d="m100.17,1094.91h-1.14v-1.1c-.23.38-.57.69-1.01.93-.44.24-.9.37-1.38.37-.87,0-1.56-.39-2.07-1.17-.51-.78-.76-1.77-.76-2.96,0-1.12.26-2.04.79-2.78.53-.73,1.23-1.1,2.11-1.1.96,0,1.74.39,2.32,1.17v-3.69h1.14v10.33Zm-1.14-2.34v-3.17c-.55-.88-1.21-1.32-1.98-1.32-.63,0-1.13.28-1.49.84-.37.56-.55,1.27-.55,2.12s.17,1.61.52,2.18c.34.57.82.86,1.42.86.29,0,.58-.08.87-.23.29-.16.57-.39.83-.7.26-.31.39-.5.39-.57Z"/><path class="cls-6" d="m109.31,1087.49l-.46,1.1c-.5-.22-.94-.33-1.3-.33-.34,0-.67.1-.99.29-.32.19-.62.47-.89.83-.27.36-.41.56-.41.6v4.94h-1.14v-7.63h1.14v1.55c.61-1.15,1.4-1.73,2.37-1.73.58,0,1.14.13,1.68.39Z"/><path class="cls-6" d="m118.54,1087.28l-2.89,7.63c-.42,1.12-.84,1.91-1.25,2.35-.41.44-.88.67-1.41.67-.47,0-.93-.09-1.39-.26l.19-.92c.37.12.7.18,1,.18.41,0,.75-.16,1.01-.48s.53-.84.8-1.56l-2.86-7.62h1.25l2.16,6.09,2.16-6.09h1.25Z"/><path class="cls-6" d="m200.48,1022.75c.33-.09.66-.13.97-.13.98,0,1.75.3,2.31.9.57.6.85,1.34.85,2.24,0,.94-.33,1.73-.99,2.38-.66.65-1.46.98-2.41.98s-1.66-.15-2.27-.45l.24-1.02c.66.28,1.35.42,2.06.42.63,0,1.14-.2,1.53-.61.39-.41.58-.97.58-1.7,0-.69-.18-1.22-.55-1.59-.37-.37-.84-.56-1.41-.56-.42,0-.83.08-1.25.24l-.72-.33v-4.94h4.72v1.05h-3.68v3.12Z"/><path class="cls-6" d="m237.98,1018.58l-1.32,10.33h-1.11l-1.76-5.82-1.75,5.82h-1.14l-1.29-10.33h1.19l.87,8.4,1.52-5.08h1.2l1.53,5.1.89-8.42h1.17Z"/><path class="cls-6" d="m246.14,1028.27c-.81.56-1.75.84-2.82.84-1.34,0-2.35-.46-3.05-1.38-.7-.92-1.04-2.25-1.04-3.98s.34-2.99,1.01-3.94c.67-.95,1.7-1.42,3.08-1.42.5,0,.99.06,1.48.19s.88.3,1.18.51l-.4.94c-.69-.39-1.44-.59-2.26-.59-.95,0-1.66.35-2.12,1.04-.46.69-.7,1.78-.7,3.28,0,2.87.94,4.31,2.82,4.31.8,0,1.61-.24,2.45-.73l.37.95Z"/><path class="cls-6" d="m199.96,1045.53c.64-.52,1.34-.78,2.1-.78.87,0,1.6.28,2.19.84.58.56.88,1.28.88,2.16,0,.97-.26,1.78-.78,2.41s-1.21.95-2.07.95c-1.1,0-1.98-.51-2.62-1.52-.64-1.01-.97-2.25-.97-3.72,0-1.56.33-2.87,1.01-3.92.67-1.05,1.59-1.58,2.76-1.58.81,0,1.5.12,2.09.36l-.19,1.07c-.68-.25-1.3-.37-1.86-.37-.8,0-1.42.38-1.86,1.14s-.67,1.75-.67,2.95Zm.04,1.03c0,.88.21,1.69.62,2.41.42.72.94,1.08,1.57,1.08.53,0,.94-.19,1.23-.59.29-.39.43-.93.43-1.62,0-.63-.16-1.14-.48-1.5-.32-.37-.76-.55-1.34-.55-.75,0-1.43.25-2.04.76Z"/><path class="cls-6" d="m235.03,1045.25c.69.16,1.23.47,1.62.94s.59,1.02.59,1.66c0,.94-.34,1.68-1.02,2.24-.68.56-1.5.83-2.46.83h-2.94v-10.33h2.86c1,0,1.78.22,2.34.66.56.44.84,1.05.84,1.85,0,.49-.16.92-.49,1.3-.32.38-.77.66-1.34.83v.03Zm-3.01-.56h1.41c1.47,0,2.2-.52,2.2-1.58,0-.48-.18-.85-.54-1.1-.36-.26-.89-.38-1.59-.38h-1.48v3.06Zm0,5.18h1.36c.8,0,1.43-.18,1.89-.54.47-.36.7-.86.7-1.49,0-.67-.23-1.19-.69-1.55s-1.12-.55-1.99-.55h-1.27v4.13Z"/><path class="cls-6" d="m245.98,1047.14h-5.24c0,.86.25,1.58.75,2.14.5.56,1.11.84,1.84.84s1.41-.12,2.15-.37l.2.92c-.67.3-1.46.45-2.36.45-1.13,0-2.05-.36-2.74-1.09s-1.04-1.71-1.04-2.94.31-2.18.93-2.9c.62-.72,1.43-1.08,2.41-1.08.88,0,1.61.33,2.21,1s.89,1.56.89,2.67v.36Zm-1.25-.93c0-.6-.19-1.1-.56-1.51-.37-.41-.79-.61-1.25-.61-.59,0-1.08.2-1.47.59-.39.39-.6.9-.65,1.53h3.92Z"/><path class="cls-6" d="m254.72,1050.91h-1.14v-1.1c-.23.38-.57.69-1.01.93-.44.24-.9.37-1.38.37-.87,0-1.56-.39-2.07-1.17-.51-.78-.76-1.77-.76-2.96,0-1.12.26-2.04.79-2.78.53-.73,1.23-1.1,2.11-1.1.96,0,1.74.39,2.32,1.17v-3.69h1.14v10.33Zm-1.14-2.34v-3.17c-.55-.88-1.21-1.32-1.98-1.32-.63,0-1.13.28-1.49.84-.37.56-.55,1.27-.55,2.12s.17,1.61.52,2.18c.34.57.82.86,1.42.86.29,0,.58-.08.87-.23.29-.16.57-.39.83-.7.26-.31.39-.5.39-.57Z"/><path class="cls-6" d="m204.89,1063.44l-4.09,9.48h-1.23l4.04-9.29h-4.84v-1.05h6.13v.86Z"/><path class="cls-6" d="m235.03,1067.25c.69.16,1.23.47,1.62.94s.59,1.02.59,1.66c0,.94-.34,1.68-1.02,2.24-.68.56-1.5.83-2.46.83h-2.94v-10.33h2.86c1,0,1.78.22,2.34.66.56.44.84,1.05.84,1.85,0,.49-.16.92-.49,1.3-.32.38-.77.66-1.34.83v.03Zm-3.01-.56h1.41c1.47,0,2.2-.52,2.2-1.58,0-.48-.18-.85-.54-1.1-.36-.26-.89-.38-1.59-.38h-1.48v3.06Zm0,5.18h1.36c.8,0,1.43-.18,1.89-.54.47-.36.7-.86.7-1.49,0-.67-.23-1.19-.69-1.55s-1.12-.55-1.99-.55h-1.27v4.13Z"/><path class="cls-6" d="m245.94,1072.91h-1.14c-.09-.31-.14-.72-.14-1.23-.65.95-1.53,1.43-2.65,1.43-.57,0-1.07-.2-1.5-.6-.43-.4-.65-.92-.65-1.56,0-.38.08-.71.23-1s.37-.53.67-.73c.29-.2.65-.35,1.07-.47.42-.12.92-.19,1.49-.24l1.28-.1v-.37c0-1.31-.61-1.96-1.83-1.96-.29,0-.65.06-1.09.19-.44.12-.82.27-1.14.44l-.3-.82c1.04-.53,2.01-.8,2.9-.8,1.74,0,2.61.92,2.61,2.76v3.28c0,.66.06,1.25.19,1.77Zm-1.33-2.26v-1.38c-1.03.09-1.74.18-2.12.26-.38.08-.72.23-1,.45-.28.22-.42.52-.42.89,0,.34.12.62.36.83s.54.32.92.32c.41,0,.81-.12,1.21-.36.4-.24.75-.57,1.05-1Z"/><path class="cls-6" d="m254.82,1072.57c-.77.35-1.52.53-2.26.53-1.36,0-2.04-.72-2.04-2.16v-4.67h-1.46v-.99h1.46v-2.09h1.11v2.09h2.59v.99h-2.59v4.37c0,.46.1.82.31,1.08.21.26.48.38.83.38.62,0,1.24-.14,1.85-.42l.2.89Z"/><path class="cls-6" d="m263.75,1072.91h-1.14v-4.89c0-.68-.11-1.17-.33-1.48-.22-.31-.56-.46-1.02-.46-.7,0-1.45.43-2.25,1.3v5.52h-1.14v-10.33h1.14v3.82c.82-.87,1.68-1.3,2.59-1.3,1.43,0,2.15.86,2.15,2.59v5.22Z"/><path class="cls-6" d="m272.87,1065.49l-.46,1.1c-.5-.22-.94-.33-1.3-.33-.34,0-.67.1-.99.29-.32.19-.62.47-.89.83-.27.36-.41.56-.41.6v4.94h-1.14v-7.63h1.14v1.55c.61-1.15,1.4-1.73,2.37-1.73.58,0,1.13.13,1.68.39Z"/><path class="cls-6" d="m278.8,1065.1c1.05,0,1.88.37,2.5,1.1s.93,1.7.93,2.89-.31,2.18-.93,2.92-1.46,1.11-2.5,1.11-1.89-.37-2.51-1.1c-.62-.74-.93-1.71-.93-2.92s.31-2.17.93-2.9c.62-.73,1.46-1.09,2.5-1.09Zm0,7.02c.69,0,1.24-.29,1.64-.88s.6-1.3.6-2.13c0-.88-.2-1.6-.59-2.17s-.94-.85-1.65-.85-1.26.28-1.65.84c-.39.56-.59,1.29-.59,2.18s.2,1.56.59,2.14c.4.58.94.87,1.64.87Z"/><path class="cls-6" d="m287.8,1065.1c1.05,0,1.88.37,2.5,1.1s.93,1.7.93,2.89-.31,2.18-.93,2.92-1.46,1.11-2.5,1.11-1.89-.37-2.51-1.1c-.62-.74-.93-1.71-.93-2.92s.31-2.17.93-2.9c.62-.73,1.46-1.09,2.5-1.09Zm0,7.02c.69,0,1.24-.29,1.64-.88s.6-1.3.6-2.13c0-.88-.2-1.6-.59-2.17s-.95-.85-1.65-.85-1.26.28-1.65.84c-.39.56-.59,1.29-.59,2.18s.2,1.56.59,2.14c.4.58.94.87,1.64.87Z"/><path class="cls-6" d="m300.36,1072.91h-1.14v-5.01c0-1.21-.22-1.82-.67-1.82-.23,0-.48.21-.76.63-.28.42-.41.65-.41.69v5.51h-1.14v-5.01c0-1.21-.23-1.82-.68-1.82-.22,0-.48.21-.75.63-.28.42-.41.65-.41.69v5.51h-1.14v-7.63h1.1v1.15c.21-.4.47-.73.77-.97.29-.24.59-.36.88-.36.31,0,.58.12.83.36.24.24.41.57.51.97.21-.4.47-.73.77-.97.3-.24.59-.36.88-.36.92,0,1.38.83,1.38,2.47v5.34Z"/><path class="cls-6" d="m202.84,1089.25c.7.21,1.25.55,1.64,1.05.39.49.58,1.07.58,1.73,0,.95-.31,1.7-.94,2.26-.63.56-1.4.83-2.32.83s-1.75-.28-2.37-.84c-.62-.56-.93-1.31-.93-2.23,0-.65.2-1.23.6-1.73s.96-.85,1.68-1.06c-.57-.15-1.03-.43-1.37-.85-.34-.42-.52-.88-.52-1.4,0-.66.26-1.27.79-1.8.53-.54,1.22-.81,2.09-.81s1.56.27,2.12.81c.56.54.84,1.14.84,1.81,0,.5-.18.97-.53,1.39-.35.42-.81.71-1.36.86Zm-1.07.53c-1.34.39-2.01,1.13-2.01,2.2,0,.63.2,1.13.61,1.51.41.38.88.57,1.43.57s1.04-.19,1.43-.56c.39-.37.58-.88.58-1.52,0-.48-.13-.92-.4-1.3-.27-.38-.82-.68-1.64-.9Zm0-1.03s.14-.03.35-.09.39-.13.54-.22c.15-.09.29-.19.41-.33s.23-.29.31-.46c.08-.18.12-.38.12-.6,0-.47-.17-.86-.51-1.17-.34-.31-.74-.46-1.22-.46s-.86.16-1.19.48-.5.7-.5,1.16c0,.29.06.54.18.75.12.21.27.39.45.52.18.13.38.23.62.31.23.07.38.11.45.11Z"/><path class="cls-6" d="m235.99,1085.72c-.62-.21-1.2-.32-1.75-.32-.62,0-1.13.14-1.53.43-.39.29-.59.69-.59,1.22,0,.63.51,1.17,1.54,1.65.76.35,1.27.6,1.51.73.25.14.5.33.75.56s.46.52.61.85c.15.32.23.69.23,1.09,0,1.01-.34,1.79-1.01,2.34-.68.55-1.47.83-2.39.83s-1.67-.18-2.34-.53l.25-1.03c.79.36,1.47.53,2.06.53.68,0,1.23-.18,1.64-.53.41-.35.62-.84.62-1.46,0-.46-.13-.85-.4-1.17-.27-.32-.76-.65-1.49-.98-.74-.34-1.22-.58-1.44-.7-.22-.12-.43-.3-.65-.52s-.38-.47-.5-.74c-.12-.27-.18-.57-.18-.89,0-.85.31-1.52.92-2s1.39-.72,2.34-.72c.69,0,1.37.11,2.05.32l-.27,1.03Z"/><path class="cls-6" d="m245.82,1094.57c-.77.35-1.52.53-2.26.53-1.36,0-2.04-.72-2.04-2.16v-4.67h-1.46v-.99h1.46v-2.09h1.11v2.09h2.59v.99h-2.59v4.37c0,.46.1.82.31,1.08.21.26.48.38.83.38.62,0,1.24-.14,1.85-.42l.2.89Z"/><path class="cls-6" d="m254.74,1094.91h-1.14v-1.13c-.82.87-1.68,1.31-2.59,1.31-1.43,0-2.15-.87-2.15-2.6v-5.21h1.14v4.89c0,.65.1,1.13.31,1.45.21.32.55.48,1.04.48.7,0,1.45-.43,2.25-1.3v-5.51h1.14v7.63Z"/><path class="cls-6" d="m263.72,1094.91h-1.14v-1.1c-.23.38-.57.69-1.01.93-.44.24-.9.37-1.38.37-.87,0-1.57-.39-2.07-1.17-.51-.78-.76-1.77-.76-2.96,0-1.12.26-2.04.79-2.78.53-.73,1.23-1.1,2.11-1.1.96,0,1.74.39,2.32,1.17v-3.69h1.14v10.33Zm-1.14-2.34v-3.17c-.55-.88-1.21-1.32-1.98-1.32-.63,0-1.13.28-1.49.84-.37.56-.55,1.27-.55,2.12s.17,1.61.52,2.18c.34.57.82.86,1.42.86.29,0,.58-.08.87-.23.29-.16.57-.39.83-.7.26-.31.39-.5.39-.57Z"/><path class="cls-6" d="m273.1,1087.28l-2.89,7.63c-.42,1.12-.84,1.91-1.25,2.35-.41.44-.88.67-1.41.67-.47,0-.93-.09-1.39-.26l.19-.92c.37.12.7.18,1,.18.41,0,.75-.16,1.01-.48s.53-.84.8-1.56l-2.86-7.62h1.25l2.16,6.09,2.16-6.09h1.25Z"/><path class="cls-6" d="m373.77,1023.95c-.6.52-1.3.78-2.1.78-.87,0-1.6-.28-2.19-.84-.58-.56-.88-1.28-.88-2.17,0-.95.28-1.74.84-2.39.56-.65,1.28-.97,2.16-.97,1.08,0,1.92.49,2.53,1.48s.91,2.24.91,3.76-.35,2.81-1.07,3.89c-.71,1.07-1.66,1.61-2.85,1.61-.8,0-1.49-.12-2.08-.37l.19-1.06c.67.25,1.29.37,1.86.37.81,0,1.46-.39,1.94-1.18.49-.79.73-1.76.73-2.92Zm-.03-1.03c0-.93-.19-1.74-.56-2.44-.38-.7-.87-1.05-1.48-1.05-.55,0-.99.2-1.32.61-.33.41-.49.94-.49,1.59,0,.6.17,1.09.5,1.48.33.38.77.58,1.31.58.75,0,1.4-.23,1.95-.69l.09-.07Z"/><path class="cls-6" d="m407.98,1018.58l-1.32,10.33h-1.11l-1.76-5.82-1.75,5.82h-1.14l-1.29-10.33h1.19l.87,8.4,1.52-5.08h1.2l1.53,5.1.89-8.42h1.17Z"/><path class="cls-6" d="m412.79,1021.1c1.05,0,1.88.37,2.5,1.1s.93,1.7.93,2.89-.31,2.18-.93,2.92-1.46,1.11-2.5,1.11-1.89-.37-2.51-1.1c-.62-.74-.93-1.71-.93-2.92s.31-2.17.93-2.9c.62-.73,1.46-1.09,2.5-1.09Zm0,7.02c.69,0,1.24-.29,1.64-.88s.6-1.3.6-2.13c0-.88-.2-1.6-.59-2.17s-.94-.85-1.65-.85-1.26.28-1.65.84c-.39.56-.59,1.29-.59,2.18s.2,1.56.59,2.14c.4.58.94.87,1.64.87Z"/><path class="cls-6" d="m424.87,1021.49l-.46,1.1c-.5-.22-.94-.33-1.3-.33-.34,0-.67.1-.99.29-.32.19-.62.47-.89.83-.27.36-.41.56-.41.6v4.94h-1.14v-7.63h1.14v1.55c.61-1.15,1.4-1.73,2.37-1.73.58,0,1.13.13,1.68.39Z"/><path class="cls-6" d="m434.5,1028.91h-1.5l-3.24-3.79-.75.64v3.15h-1.14v-10.33h1.14v5.92l3.58-3.22h1.46l-3.48,3.12,3.93,4.51Z"/><path class="cls-6" d="m442.87,1021.49l-.46,1.1c-.5-.22-.94-.33-1.3-.33-.34,0-.67.1-.99.29-.32.19-.62.47-.89.83-.27.36-.41.56-.41.6v4.94h-1.14v-7.63h1.14v1.55c.61-1.15,1.4-1.73,2.37-1.73.58,0,1.13.13,1.68.39Z"/><path class="cls-6" d="m448.8,1021.1c1.05,0,1.88.37,2.5,1.1s.93,1.7.93,2.89-.31,2.18-.93,2.92-1.46,1.11-2.5,1.11-1.89-.37-2.51-1.1c-.62-.74-.93-1.71-.93-2.92s.31-2.17.93-2.9c.62-.73,1.46-1.09,2.5-1.09Zm0,7.02c.69,0,1.24-.29,1.64-.88s.6-1.3.6-2.13c0-.88-.2-1.6-.59-2.17s-.94-.85-1.65-.85-1.26.28-1.65.84c-.39.56-.59,1.29-.59,2.18s.2,1.56.59,2.14c.4.58.94.87,1.64.87Z"/><path class="cls-6" d="m457.8,1021.1c1.05,0,1.88.37,2.5,1.1s.93,1.7.93,2.89-.31,2.18-.93,2.92-1.46,1.11-2.5,1.11-1.89-.37-2.51-1.1c-.62-.74-.93-1.71-.93-2.92s.31-2.17.93-2.9c.62-.73,1.46-1.09,2.5-1.09Zm0,7.02c.69,0,1.24-.29,1.64-.88s.6-1.3.6-2.13c0-.88-.2-1.6-.59-2.17s-.95-.85-1.65-.85-1.26.28-1.65.84c-.39.56-.59,1.29-.59,2.18s.2,1.56.59,2.14c.4.58.94.87,1.64.87Z"/><path class="cls-6" d="m470.36,1028.91h-1.14v-5.01c0-1.21-.22-1.82-.67-1.82-.23,0-.48.21-.76.63-.28.42-.41.65-.41.69v5.51h-1.14v-5.01c0-1.21-.23-1.82-.68-1.82-.22,0-.48.21-.75.63-.28.42-.41.65-.41.69v5.51h-1.14v-7.63h1.1v1.15c.21-.4.47-.73.77-.97.29-.24.59-.36.88-.36.31,0,.58.12.83.36.24.24.41.57.51.97.21-.4.47-.73.77-.97.3-.24.59-.36.88-.36.92,0,1.38.83,1.38,2.47v5.34Z"/><path class="cls-6" d="m374.76,1050.91h-5.43v-1.05h2.19v-8.03l-2.07,1.03v-1.2l2.23-1.15h1.03v9.35h2.04v1.05Z"/><path class="cls-6" d="m380.79,1040.38c1.09,0,1.93.47,2.52,1.41.59.94.88,2.26.88,3.96s-.29,2.95-.86,3.92c-.57.96-1.42,1.45-2.55,1.45s-1.93-.47-2.52-1.41-.89-2.26-.89-3.96.29-2.96.86-3.92c.57-.96,1.42-1.45,2.54-1.45Zm0,9.67c.72,0,1.26-.34,1.61-1.03.35-.69.52-1.78.52-3.28s-.17-2.6-.52-3.28c-.35-.68-.88-1.02-1.61-1.02s-1.25.35-1.6,1.05c-.35.7-.53,1.78-.53,3.25s.17,2.58.52,3.27c.35.69.88,1.04,1.6,1.04Zm-.03-5.4c.31,0,.57.11.78.32s.32.47.32.78-.11.59-.32.82c-.21.23-.47.34-.78.34s-.55-.11-.77-.34c-.21-.23-.32-.5-.32-.82s.1-.57.31-.78c.21-.21.46-.31.77-.31Z"/><path class="cls-6" d="m406.57,1050.91h-5.4v-10.33h5.35v1.05h-4.15v3.2h3.99v1.05h-3.99v3.99h4.2v1.05Z"/><path class="cls-6" d="m415.75,1050.91h-1.14v-4.89c0-.68-.11-1.17-.33-1.48-.22-.31-.56-.46-1.02-.46-.7,0-1.45.43-2.25,1.3v5.52h-1.14v-7.63h1.14v1.12c.82-.87,1.68-1.3,2.59-1.3,1.43,0,2.15.86,2.15,2.59v5.22Z"/><path class="cls-6" d="m424.82,1050.57c-.77.35-1.52.53-2.26.53-1.36,0-2.04-.72-2.04-2.16v-4.67h-1.46v-.99h1.46v-2.09h1.11v2.09h2.59v.99h-2.59v4.37c0,.46.1.82.31,1.08.21.26.48.38.83.38.62,0,1.24-.14,1.85-.42l.2.89Z"/><path class="cls-6" d="m433.87,1043.49l-.46,1.1c-.5-.22-.94-.33-1.3-.33-.34,0-.67.1-.99.29-.32.19-.62.47-.89.83-.27.36-.41.56-.41.6v4.94h-1.13v-7.63h1.13v1.55c.61-1.15,1.4-1.73,2.37-1.73.58,0,1.14.13,1.68.39Z"/><path class="cls-6" d="m443.1,1043.28l-2.89,7.63c-.42,1.12-.84,1.91-1.25,2.35-.41.44-.88.67-1.41.67-.47,0-.93-.09-1.39-.26l.19-.92c.37.12.7.18,1,.18.41,0,.75-.16,1.01-.48s.53-.84.8-1.56l-2.86-7.62h1.25l2.16,6.09,2.16-6.09h1.25Z"/><path class="cls-6" d="m374.76,1072.91h-5.43v-1.05h2.19v-8.03l-2.07,1.03v-1.2l2.23-1.15h1.03v9.35h2.04v1.05Z"/><path class="cls-6" d="m383.76,1072.91h-5.43v-1.05h2.19v-8.03l-2.07,1.03v-1.2l2.23-1.15h1.03v9.35h2.04v1.05Z"/><path class="cls-6" d="m407.12,1072.18c-.84.62-1.78.93-2.81.93-1.34,0-2.36-.46-3.05-1.37-.69-.91-1.04-2.24-1.04-4s.33-3.01,1.01-3.96c.67-.94,1.7-1.41,3.09-1.41.5,0,.99.06,1.48.19s.88.3,1.18.51l-.4.94c-.69-.39-1.44-.59-2.26-.59-.95,0-1.65.35-2.12,1.04-.47.69-.7,1.79-.7,3.27,0,2.87.94,4.31,2.82,4.31.71,0,1.24-.15,1.6-.45v-2.55h-1.86v-1.04h3.06v4.16Z"/><path class="cls-6" d="m415.94,1072.91h-1.14c-.09-.31-.14-.72-.14-1.23-.65.95-1.53,1.43-2.65,1.43-.57,0-1.07-.2-1.5-.6-.43-.4-.65-.92-.65-1.56,0-.38.08-.71.23-1s.37-.53.67-.73c.29-.2.65-.35,1.07-.47.42-.12.92-.19,1.49-.24l1.28-.1v-.37c0-1.31-.61-1.96-1.83-1.96-.29,0-.65.06-1.09.19-.44.12-.82.27-1.14.44l-.3-.82c1.04-.53,2.01-.8,2.9-.8,1.74,0,2.61.92,2.61,2.76v3.28c0,.66.06,1.25.19,1.77Zm-1.33-2.26v-1.38c-1.03.09-1.74.18-2.12.26-.38.08-.72.23-1,.45-.28.22-.42.52-.42.89,0,.34.12.62.36.83s.54.32.92.32c.41,0,.81-.12,1.21-.36.4-.24.75-.57,1.05-1Z"/><path class="cls-6" d="m424.87,1065.49l-.46,1.1c-.5-.22-.94-.33-1.3-.33-.34,0-.67.1-.99.29-.32.19-.62.47-.89.83-.27.36-.41.56-.41.6v4.94h-1.14v-7.63h1.14v1.55c.61-1.15,1.4-1.73,2.37-1.73.58,0,1.13.13,1.68.39Z"/><path class="cls-6" d="m433.94,1072.91h-1.14c-.09-.31-.14-.72-.14-1.23-.65.95-1.53,1.43-2.65,1.43-.57,0-1.07-.2-1.5-.6-.43-.4-.65-.92-.65-1.56,0-.38.08-.71.23-1s.37-.53.67-.73c.29-.2.65-.35,1.07-.47.42-.12.92-.19,1.49-.24l1.28-.1v-.37c0-1.31-.61-1.96-1.83-1.96-.29,0-.65.06-1.09.19-.44.12-.82.27-1.14.44l-.3-.82c1.04-.53,2.01-.8,2.9-.8,1.74,0,2.61.92,2.61,2.76v3.28c0,.66.06,1.25.19,1.77Zm-1.33-2.26v-1.38c-1.03.09-1.74.18-2.12.26-.38.08-.72.23-1,.45-.28.22-.42.52-.42.89,0,.34.12.62.36.83s.54.32.92.32c.41,0,.81-.12,1.21-.36.4-.24.75-.57,1.05-1Z"/><path class="cls-6" d="m438.99,1070.04c-.71.35-1.07.65-1.07.92,0,.14.08.26.25.36.16.1.39.15.67.15l2.57-.07c.61,0,1.08.15,1.42.45.34.3.51.72.51,1.27,0,.86-.39,1.55-1.16,2.06-.77.51-1.67.77-2.7.77-.84,0-1.54-.18-2.07-.53-.54-.35-.81-.81-.81-1.37,0-.61.42-1.12,1.25-1.54-.69-.32-1.03-.72-1.03-1.19,0-.54.44-1.04,1.33-1.5-.41-.25-.73-.57-.95-.97s-.33-.81-.33-1.25c0-.72.24-1.31.73-1.77.49-.46,1.1-.69,1.83-.69.53,0,1,.11,1.43.33l2.26-.34v1.11h-1.46c.22.39.33.84.33,1.36,0,.69-.24,1.28-.73,1.76-.48.48-1.1.72-1.84.72-.16,0-.31,0-.45-.02Zm.49,5.01c.75,0,1.39-.17,1.92-.5.53-.33.79-.75.79-1.24s-.38-.76-1.13-.76c-.25,0-.68.01-1.29.04-.39.02-.69.03-.91.03-.11,0-.27.09-.5.26-.23.18-.4.35-.52.53-.12.18-.18.36-.18.55,0,.3.17.55.5.77.33.21.77.32,1.31.32Zm-.04-5.88c.42,0,.76-.15,1.03-.44.27-.29.4-.67.4-1.14,0-.49-.13-.88-.39-1.16-.26-.28-.61-.42-1.04-.42-.41,0-.75.15-1.02.44-.28.29-.41.67-.41,1.14s.14.84.41,1.13c.28.3.62.44,1.02.44Z"/><path class="cls-6" d="m451.98,1069.14h-5.24c0,.86.25,1.58.75,2.14.5.56,1.11.84,1.84.84s1.41-.12,2.15-.37l.2.92c-.67.3-1.46.45-2.36.45-1.13,0-2.05-.36-2.74-1.09s-1.04-1.71-1.04-2.94.31-2.18.93-2.9c.62-.72,1.43-1.08,2.41-1.08.88,0,1.61.33,2.21,1s.89,1.56.89,2.67v.36Zm-1.25-.93c0-.6-.19-1.1-.56-1.51-.37-.41-.79-.61-1.25-.61-.59,0-1.08.2-1.47.59-.39.39-.6.9-.65,1.53h3.92Z"/><path class="cls-6" d="m374.76,1094.91h-5.43v-1.05h2.19v-8.03l-2.07,1.03v-1.2l2.23-1.15h1.03v9.35h2.04v1.05Z"/><path class="cls-6" d="m383.49,1094.91h-5.68v-.87c1.44-1.61,2.38-2.68,2.8-3.23s.78-1.12,1.05-1.72c.27-.6.4-1.2.4-1.79s-.17-1.03-.52-1.36c-.35-.33-.84-.5-1.47-.5-.48,0-1.13.15-1.95.45l-.17-1.03c.74-.31,1.51-.47,2.31-.47.92,0,1.67.26,2.23.78.56.52.85,1.21.85,2.08,0,.62-.15,1.24-.44,1.85-.29.61-.66,1.2-1.12,1.76s-1.34,1.57-2.65,3.02h4.35v1.05Z"/><path class="cls-6" d="m407.89,1094.91h-1.5l-3.03-4.7h-1.33v4.7h-1.2v-10.33h2.92c.98,0,1.76.24,2.33.71.57.48.85,1.14.85,1.99,0,.63-.21,1.19-.62,1.68-.42.49-.99.82-1.71,1l3.3,4.95Zm-5.87-5.74h1.52c.63,0,1.15-.17,1.55-.52.4-.34.59-.78.59-1.3,0-1.15-.7-1.73-2.11-1.73h-1.54v3.54Z"/><path class="cls-6" d="m415.74,1094.91h-1.14v-1.13c-.82.87-1.68,1.31-2.59,1.31-1.43,0-2.15-.87-2.15-2.6v-5.21h1.14v4.89c0,.65.1,1.13.31,1.45.21.32.55.48,1.04.48.7,0,1.45-.43,2.25-1.3v-5.51h1.14v7.63Z"/><path class="cls-6" d="m425.35,1094.91h-1.14v-5.01c0-1.21-.22-1.82-.67-1.82-.23,0-.48.21-.76.63-.28.42-.41.65-.41.69v5.51h-1.13v-5.01c0-1.21-.23-1.82-.68-1.82-.22,0-.47.21-.75.63-.28.42-.41.65-.41.69v5.51h-1.14v-7.63h1.1v1.15c.21-.4.47-.73.76-.97.3-.24.59-.36.88-.36.31,0,.58.12.83.36.24.24.41.57.5.97.21-.4.47-.73.77-.97.3-.24.59-.36.88-.36.92,0,1.38.83,1.38,2.47v5.34Z"/><path class="cls-6" d="m429.01,1088.27c.25-.35.6-.63,1.03-.85.43-.21.89-.32,1.37-.32.88,0,1.57.36,2.07,1.09.5.73.75,1.67.75,2.83s-.26,2.15-.79,2.93c-.53.78-1.23,1.17-2.12,1.17-.47,0-.92-.12-1.33-.35-.41-.24-.74-.55-.98-.94v4.12h-1.14v-10.65h1.14v.99Zm0,1.13v3.17c.21.43.51.79.87,1.08s.74.43,1.13.43c.62,0,1.1-.29,1.47-.86.36-.58.55-1.29.55-2.15s-.17-1.6-.52-2.15-.83-.83-1.45-.83c-.81,0-1.49.44-2.05,1.32Z"/><path class="cls-6" d="m442.74,1094.91h-1.14v-1.13c-.82.87-1.68,1.31-2.59,1.31-1.43,0-2.15-.87-2.15-2.6v-5.21h1.14v4.89c0,.65.1,1.13.31,1.45.21.32.55.48,1.04.48.7,0,1.45-.43,2.25-1.3v-5.51h1.14v7.63Z"/><path class="cls-6" d="m450.96,1088.37c-.64-.21-1.24-.31-1.81-.31-.62,0-1.11.1-1.47.31-.36.21-.54.48-.54.83,0,.22.08.41.25.58.17.16.5.32,1,.46l1.09.31c.5.14.91.31,1.23.51.32.2.55.44.71.72.16.28.24.61.24.98,0,.73-.31,1.3-.92,1.72-.61.42-1.39.63-2.33.63s-1.71-.14-2.32-.42l.22-.99c.64.3,1.33.45,2.06.45.63,0,1.15-.12,1.55-.36.4-.24.6-.55.6-.94,0-.26-.1-.5-.3-.71-.2-.21-.66-.42-1.4-.65-.59-.18-1.03-.32-1.3-.41-.28-.09-.54-.22-.78-.4s-.42-.39-.54-.63c-.12-.24-.19-.52-.19-.82,0-.66.29-1.18.86-1.57s1.34-.58,2.29-.58c.62,0,1.3.1,2.05.31l-.26.96Z"/><path class="cls-6" d="m546.17,1028.91h-5.43v-1.05h2.19v-8.03l-2.07,1.03v-1.2l2.23-1.15h1.03v9.35h2.04v1.05Z"/><path class="cls-6" d="m552.86,1023.36c.63.18,1.13.5,1.52.96.38.47.57.99.57,1.57,0,.91-.35,1.67-1.06,2.29-.71.62-1.54.93-2.5.93-.82,0-1.56-.18-2.21-.54l.23-.99c.68.32,1.35.48,2.01.48.62,0,1.16-.19,1.6-.58.44-.39.66-.89.66-1.5s-.24-1.09-.71-1.46c-.47-.38-1.1-.56-1.88-.56h-.31v-.99h.09c.75,0,1.37-.18,1.86-.53.49-.35.73-.83.73-1.43,0-.49-.18-.87-.53-1.15-.35-.28-.83-.41-1.45-.41-.53,0-1.13.14-1.79.43l-.16-1.03c.66-.3,1.33-.45,2.01-.45.92,0,1.68.24,2.28.73.6.49.9,1.11.9,1.87,0,.53-.18,1.02-.55,1.48-.36.46-.8.74-1.31.86v.04Z"/><path class="cls-6" d="m579,1019.55h-3.19v9.36h-1.19v-9.36h-3.2v-.97h7.58v.97Z"/><path class="cls-6" d="m587.39,1025.14h-5.24c0,.86.25,1.58.75,2.14.5.56,1.11.84,1.84.84s1.41-.12,2.15-.37l.2.92c-.67.3-1.46.45-2.36.45-1.13,0-2.05-.36-2.74-1.09s-1.04-1.71-1.04-2.94.31-2.18.93-2.9c.62-.72,1.43-1.08,2.41-1.08.88,0,1.61.33,2.2,1s.89,1.56.89,2.67v.36Zm-1.25-.93c0-.6-.19-1.1-.56-1.51-.37-.41-.79-.61-1.25-.61-.59,0-1.08.2-1.47.59-.39.39-.6.9-.65,1.53h3.92Z"/><path class="cls-6" d="m596.28,1021.49l-.46,1.1c-.5-.22-.94-.33-1.3-.33-.34,0-.67.1-.99.29-.32.19-.62.47-.89.83-.27.36-.41.56-.41.6v4.94h-1.13v-7.63h1.13v1.55c.61-1.15,1.4-1.73,2.37-1.73.58,0,1.14.13,1.68.39Z"/><path class="cls-6" d="m605.28,1021.49l-.46,1.1c-.5-.22-.94-.33-1.3-.33-.34,0-.67.1-.99.29-.32.19-.62.47-.89.83-.27.36-.41.56-.41.6v4.94h-1.14v-7.63h1.14v1.55c.61-1.15,1.4-1.73,2.37-1.73.58,0,1.13.13,1.68.39Z"/><path class="cls-6" d="m614.36,1028.91h-1.14c-.09-.31-.14-.72-.14-1.23-.65.95-1.53,1.43-2.65,1.43-.57,0-1.07-.2-1.5-.6-.43-.4-.65-.92-.65-1.56,0-.38.08-.71.23-1s.37-.53.67-.73c.29-.2.65-.35,1.07-.47.42-.12.92-.19,1.49-.24l1.28-.1v-.37c0-1.31-.61-1.96-1.83-1.96-.29,0-.65.06-1.09.19-.44.12-.82.27-1.14.44l-.3-.82c1.04-.53,2.01-.8,2.9-.8,1.74,0,2.61.92,2.61,2.76v3.28c0,.66.06,1.25.19,1.77Zm-1.33-2.26v-1.38c-1.03.09-1.74.18-2.12.26-.38.08-.72.23-1,.45-.28.22-.42.52-.42.89,0,.34.12.62.36.83s.54.32.92.32c.41,0,.81-.12,1.21-.36.4-.24.75-.57,1.05-1Z"/><path class="cls-6" d="m623.14,1028.66c-.66.3-1.39.45-2.19.45-1.2,0-2.16-.36-2.88-1.09-.72-.73-1.07-1.7-1.07-2.91s.36-2.18,1.08-2.91c.72-.73,1.67-1.09,2.84-1.09.77,0,1.5.13,2.19.4l-.3.95c-.69-.24-1.32-.36-1.88-.36-.84,0-1.51.27-2,.81-.49.54-.74,1.28-.74,2.21,0,.85.25,1.56.76,2.14.51.58,1.17.87,1.99.87.64,0,1.31-.12,1.99-.37l.2.92Z"/><path class="cls-6" d="m632.4,1025.14h-5.24c0,.86.25,1.58.75,2.14.5.56,1.11.84,1.84.84s1.41-.12,2.15-.37l.2.92c-.67.3-1.46.45-2.36.45-1.13,0-2.05-.36-2.74-1.09s-1.04-1.71-1.04-2.94.31-2.18.93-2.9c.62-.72,1.43-1.08,2.41-1.08.88,0,1.61.33,2.21,1s.89,1.56.89,2.67v.36Zm-1.25-.93c0-.6-.19-1.1-.56-1.51-.37-.41-.79-.61-1.25-.61-.59,0-1.08.2-1.47.59-.39.39-.6.9-.65,1.53h3.92Z"/></g></svg>