<?xml version="1.0" encoding="UTF-8"?><svg xmlns="http://www.w3.org/2000/svg" xmlns:xlink="http://www.w3.org/1999/xlink" viewBox="0 0 800 1120"><defs><style>.cls-1{stroke-width:.35px;}.cls-1,.cls-2,.cls-3,.cls-4,.cls-5,.cls-6,.cls-7,.cls-8,.cls-9,.cls-10{fill:none;}.cls-1,.cls-2,.cls-3,.cls-5,.cls-6,.cls-8,.cls-9,.cls-10{stroke:#231f20;}.cls-1,.cls-2,.cls-7,.cls-8,.cls-9,.cls-10{stroke-linecap:round;stroke-linejoin:round;}.cls-2{stroke-width:.75px;}.cls-3,.cls-6{stroke-width:.1px;}.cls-11{fill:url(#BRICKS);}.cls-11,.cls-4,.cls-12,.cls-13,.cls-14,.cls-15,.cls-16,.cls-17{stroke-width:0px;}.cls-5{stroke-width:.1px;}.cls-6{stroke-linecap:square;}.cls-12{fill:url(#_10_lpi_10_-3);}.cls-13{fill:url(#_10_lpi_10_-2);}.cls-14{fill:url(#BRICKS-2);}.cls-15{fill:url(#BRICKS-3);}.cls-16{fill:url(#_10_lpi_10_);}.cls-7{stroke:#5b5b5b;stroke-width:.2px;}.cls-8{stroke-width:.85px;}.cls-9{stroke-width:.43px;}.cls-10{stroke-width:.28px;}</style><pattern id="_10_lpi_10_" x="0" y="0" width="72" height="72" patternTransform="translate(715.1 -20030.1) rotate(-90)" patternUnits="userSpaceOnUse" viewBox="0 0 72 72"><rect class="cls-4" width="72" height="72"/><line class="cls-5" x1="71.75" y1="68.4" x2="144.25" y2="68.4"/><line class="cls-5" x1="71.75" y1="54" x2="144.25" y2="54"/><line class="cls-5" x1="71.75" y1="39.6" x2="144.25" y2="39.6"/><line class="cls-5" x1="71.75" y1="25.2" x2="144.25" y2="25.2"/><line class="cls-5" x1="71.75" y1="10.8" x2="144.25" y2="10.8"/><line class="cls-5" x1="71.75" y1="61.2" x2="144.25" y2="61.2"/><line class="cls-5" x1="71.75" y1="46.8" x2="144.25" y2="46.8"/><line class="cls-5" x1="71.75" y1="32.4" x2="144.25" y2="32.4"/><line class="cls-5" x1="71.75" y1="18" x2="144.25" y2="18"/><line class="cls-5" x1="71.75" y1="3.6" x2="144.25" y2="3.6"/><line class="cls-5" x1="-.25" y1="68.4" x2="72.25" y2="68.4"/><line class="cls-5" x1="-.25" y1="54" x2="72.25" y2="54"/><line class="cls-5" x1="-.25" y1="39.6" x2="72.25" y2="39.6"/><line class="cls-5" x1="-.25" y1="25.2" x2="72.25" y2="25.2"/><line class="cls-5" x1="-.25" y1="10.8" x2="72.25" y2="10.8"/><line class="cls-5" x1="-.25" y1="61.2" x2="72.25" y2="61.2"/><line class="cls-5" x1="-.25" y1="46.8" x2="72.25" y2="46.8"/><line class="cls-5" x1="-.25" y1="32.4" x2="72.25" y2="32.4"/><line class="cls-5" x1="-.25" y1="18" x2="72.25" y2="18"/><line class="cls-5" x1="-.25" y1="3.6" x2="72.25" y2="3.6"/><line class="cls-5" x1="-72.25" y1="68.4" x2=".25" y2="68.4"/><line class="cls-5" x1="-72.25" y1="54" x2=".25" y2="54"/><line class="cls-5" x1="-72.25" y1="39.6" x2=".25" y2="39.6"/><line class="cls-5" x1="-72.25" y1="25.2" x2=".25" y2="25.2"/><line class="cls-5" x1="-72.25" y1="10.8" x2=".25" y2="10.8"/><line class="cls-5" x1="-72.25" y1="61.2" x2=".25" y2="61.2"/><line class="cls-5" x1="-72.25" y1="46.8" x2=".25" y2="46.8"/><line class="cls-5" x1="-72.25" y1="32.4" x2=".25" y2="32.4"/><line class="cls-5" x1="-72.25" y1="18" x2=".25" y2="18"/><line class="cls-5" x1="-72.25" y1="3.6" x2=".25" y2="3.6"/></pattern><pattern id="_10_lpi_10_-2" patternTransform="translate(188.95 -3353.58)" xlink:href="#_10_lpi_10_"/><pattern id="_10_lpi_10_-3" patternTransform="translate(188.95 -3353.58)" xlink:href="#_10_lpi_10_"/><pattern id="BRICKS" x="0" y="0" width="57.6" height="43.2" patternTransform="translate(-3398.14 -17499.12) rotate(-90) scale(.7 .53)" patternUnits="userSpaceOnUse" viewBox="0 0 57.6 43.2"><rect class="cls-4" x="0" width="57.6" height="43.2"/><line class="cls-6" x1="57.59" y1=".8" x2="115.21" y2=".8"/><line class="cls-6" x1="57.59" y1="8" x2="115.21" y2="8"/><line class="cls-6" x1="57.59" y1="15.2" x2="115.21" y2="15.2"/><line class="cls-6" x1="57.59" y1="22.4" x2="115.21" y2="22.4"/><line class="cls-6" x1="57.59" y1="29.6" x2="115.21" y2="29.6"/><line class="cls-6" x1="57.59" y1="36.8" x2="115.21" y2="36.8"/><line class="cls-3" x1="53.96" y1="8.01" x2="53.96" y2="15.2"/><line class="cls-3" x1="39.56" y1="8.01" x2="39.56" y2="15.2"/><line class="cls-3" x1="25.16" y1="8.01" x2="25.16" y2="15.2"/><line class="cls-3" x1="10.76" y1="8.01" x2="10.76" y2="15.2"/><line class="cls-3" x1="53.96" y1="22.38" x2="53.96" y2="29.57"/><line class="cls-3" x1="39.56" y1="22.38" x2="39.56" y2="29.57"/><line class="cls-3" x1="25.16" y1="22.38" x2="25.16" y2="29.57"/><line class="cls-3" x1="10.76" y1="22.38" x2="10.76" y2="29.57"/><line class="cls-3" x1="53.96" y1="36.82" x2="53.96" y2="44.2"/><line class="cls-3" x1="39.56" y1="36.82" x2="39.56" y2="44.2"/><line class="cls-3" x1="25.16" y1="36.82" x2="25.16" y2="44.2"/><line class="cls-3" x1="10.76" y1="36.82" x2="10.76" y2="44.2"/><line class="cls-3" x1="46.75" y1="29.57" x2="46.75" y2="36.76"/><line class="cls-3" x1="32.35" y1="29.57" x2="32.35" y2="36.76"/><line class="cls-3" x1="17.95" y1="29.57" x2="17.95" y2="36.76"/><line class="cls-3" x1="3.55" y1="29.57" x2="3.55" y2="36.76"/><line class="cls-3" x1="46.75" y1="15.2" x2="46.75" y2="22.38"/><line class="cls-3" x1="32.35" y1="15.2" x2="32.35" y2="22.38"/><line class="cls-3" x1="17.95" y1="15.2" x2="17.95" y2="22.38"/><line class="cls-3" x1="3.55" y1="15.2" x2="3.55" y2="22.38"/><line class="cls-3" x1="46.75" y1=".82" x2="46.75" y2="8.01"/><line class="cls-3" x1="32.35" y1=".82" x2="32.35" y2="8.01"/><line class="cls-3" x1="17.95" y1=".82" x2="17.95" y2="8.01"/><line class="cls-3" x1="3.55" y1=".82" x2="3.55" y2="8.01"/><line class="cls-6" x1="-.01" y1=".8" x2="57.61" y2=".8"/><line class="cls-6" x1="-.01" y1="8" x2="57.61" y2="8"/><line class="cls-6" x1="-.01" y1="15.2" x2="57.61" y2="15.2"/><line class="cls-6" x1="-.01" y1="22.4" x2="57.61" y2="22.4"/><line class="cls-6" x1="-.01" y1="29.6" x2="57.61" y2="29.6"/><line class="cls-6" x1="-.01" y1="36.8" x2="57.61" y2="36.8"/><line class="cls-6" x1="-57.61" y1=".8" x2=".01" y2=".8"/><line class="cls-6" x1="-57.61" y1="8" x2=".01" y2="8"/><line class="cls-6" x1="-57.61" y1="15.2" x2=".01" y2="15.2"/><line class="cls-6" x1="-57.61" y1="22.4" x2=".01" y2="22.4"/><line class="cls-6" x1="-57.61" y1="29.6" x2=".01" y2="29.6"/><line class="cls-6" x1="-57.61" y1="36.8" x2=".01" y2="36.8"/><line class="cls-3" x1="53.96" y1="-6.38" x2="53.96" y2="1"/><line class="cls-3" x1="39.56" y1="-6.38" x2="39.56" y2="1"/><line class="cls-3" x1="25.16" y1="-6.38" x2="25.16" y2="1"/><line class="cls-3" x1="10.76" y1="-6.38" x2="10.76" y2="1"/></pattern><pattern id="BRICKS-2" patternTransform="translate(-3395.06 -17499.12) rotate(-90) scale(.7 .53)" xlink:href="#BRICKS"/><pattern id="BRICKS-3" patternTransform="translate(-3392.42 -17499.12) rotate(-90) scale(.7 .53)" xlink:href="#BRICKS"/></defs><g id="Hatch"><polygon class="cls-16" points="276.69 256.88 279.44 256.99 279.55 263.27 338.89 263.16 339 256.99 342.19 256.88 342.19 252.81 457.68 252.92 457.68 294.54 132.03 294.54 132.03 192.81 276.03 192.48 276.69 256.88"/><rect class="cls-16" x="279.99" y="192.81" width="58.79" height="70.68"/></g><g id="Below"><line class="cls-7" x1="129.44" y1="533.97" x2="129.44" y2="415.05"/><polyline class="cls-7" points="457.98 403.78 340.32 403.78 340.32 416.92 457.98 416.92"/><line class="cls-7" x1="659.47" y1="378.41" x2="670.93" y2="378.41"/><line class="cls-7" x1="659.47" y1="379.67" x2="670.93" y2="379.67"/><line class="cls-7" x1="659.47" y1="350.4" x2="670.93" y2="350.4"/><line class="cls-7" x1="659.47" y1="351.65" x2="670.93" y2="351.65"/><line class="cls-7" x1="659.47" y1="322.39" x2="670.93" y2="322.39"/><line class="cls-7" x1="659.47" y1="323.64" x2="670.93" y2="323.64"/><line class="cls-7" x1="659.47" y1="294.38" x2="670.93" y2="294.38"/><line class="cls-7" x1="659.47" y1="295.63" x2="670.93" y2="295.63"/><line class="cls-7" x1="659.47" y1="266.37" x2="670.93" y2="266.37"/><line class="cls-7" x1="659.47" y1="267.62" x2="670.93" y2="267.62"/><line class="cls-7" x1="659.47" y1="238.36" x2="670.93" y2="238.36"/><line class="cls-7" x1="659.47" y1="239.61" x2="670.93" y2="239.61"/><line class="cls-7" x1="659.47" y1="210.35" x2="670.93" y2="210.35"/><line class="cls-7" x1="659.47" y1="211.6" x2="670.93" y2="211.6"/><line class="cls-7" x1="659.46" y1="195.97" x2="659.58" y2="408.79"/><line class="cls-7" x1="659.46" y1="197.22" x2="670.92" y2="197.22"/><line class="cls-7" x1="659.46" y1="195.97" x2="670.92" y2="195.97"/><line class="cls-7" x1="671.04" y1="407.54" x2="659.58" y2="407.54"/><line class="cls-7" x1="671.04" y1="408.79" x2="659.58" y2="408.79"/><line class="cls-7" x1="588.3" y1="378.41" x2="599.76" y2="378.41"/><line class="cls-7" x1="588.3" y1="379.67" x2="599.76" y2="379.67"/><line class="cls-7" x1="588.3" y1="350.4" x2="599.76" y2="350.4"/><line class="cls-7" x1="588.3" y1="351.65" x2="599.76" y2="351.65"/><line class="cls-7" x1="588.3" y1="322.39" x2="599.76" y2="322.39"/><line class="cls-7" x1="588.3" y1="323.64" x2="599.76" y2="323.64"/><line class="cls-7" x1="588.3" y1="294.38" x2="599.76" y2="294.38"/><line class="cls-7" x1="588.3" y1="295.63" x2="599.76" y2="295.63"/><line class="cls-7" x1="588.3" y1="266.37" x2="599.76" y2="266.37"/><line class="cls-7" x1="588.3" y1="267.62" x2="599.76" y2="267.62"/><line class="cls-7" x1="588.3" y1="238.36" x2="599.76" y2="238.36"/><line class="cls-7" x1="588.3" y1="239.61" x2="599.76" y2="239.61"/><line class="cls-7" x1="588.3" y1="210.35" x2="599.76" y2="210.35"/><line class="cls-7" x1="588.3" y1="211.6" x2="599.76" y2="211.6"/><line class="cls-7" x1="588.29" y1="195.97" x2="588.41" y2="408.79"/><line class="cls-7" x1="588.3" y1="197.22" x2="599.75" y2="197.22"/><line class="cls-7" x1="588.29" y1="195.97" x2="599.75" y2="195.97"/><line class="cls-7" x1="599.87" y1="407.54" x2="588.41" y2="407.54"/><line class="cls-7" x1="599.87" y1="408.79" x2="588.41" y2="408.79"/><line class="cls-7" x1="517.53" y1="378.41" x2="528.99" y2="378.41"/><line class="cls-7" x1="517.53" y1="379.67" x2="528.99" y2="379.67"/><line class="cls-7" x1="517.53" y1="350.4" x2="528.99" y2="350.4"/><line class="cls-7" x1="517.53" y1="351.65" x2="528.99" y2="351.65"/><line class="cls-7" x1="517.53" y1="322.39" x2="528.99" y2="322.39"/><line class="cls-7" x1="517.53" y1="323.64" x2="528.99" y2="323.64"/><line class="cls-7" x1="517.53" y1="294.38" x2="528.99" y2="294.38"/><line class="cls-7" x1="517.53" y1="295.63" x2="528.99" y2="295.63"/><line class="cls-7" x1="517.53" y1="266.37" x2="528.99" y2="266.37"/><line class="cls-7" x1="517.53" y1="267.62" x2="528.99" y2="267.62"/><line class="cls-7" x1="517.53" y1="238.36" x2="528.99" y2="238.36"/><line class="cls-7" x1="517.53" y1="239.61" x2="528.99" y2="239.61"/><line class="cls-7" x1="529.1" y1="407.54" x2="517.64" y2="407.54"/><line class="cls-7" x1="606.89" y1="412.23" x2="600.01" y2="412.23"/><line class="cls-7" x1="535.98" y1="412.23" x2="529.1" y2="412.23"/><line class="cls-7" x1="529.1" y1="408.79" x2="517.64" y2="408.79"/><line class="cls-7" x1="517.52" y1="195.97" x2="517.64" y2="408.79"/><line class="cls-7" x1="517.52" y1="189.71" x2="517.52" y2="189.71"/><line class="cls-7" x1="517.52" y1="195.97" x2="528.98" y2="195.97"/><line class="cls-7" x1="517.52" y1="197.22" x2="528.98" y2="197.22"/><line class="cls-7" x1="514.39" y1="197.22" x2="514.39" y2="197.22"/><line class="cls-7" x1="599.88" y1="192.52" x2="606.77" y2="192.52"/><line class="cls-7" x1="528.98" y1="192.52" x2="535.86" y2="192.52"/><line class="cls-7" x1="517.53" y1="211.6" x2="528.99" y2="211.6"/><line class="cls-7" x1="517.53" y1="210.35" x2="528.99" y2="210.35"/><line class="cls-7" x1="606.77" y1="189.7" x2="606.89" y2="415.05"/><line class="cls-7" x1="535.86" y1="189.7" x2="535.99" y2="415.05"/><path class="cls-7" d="m580.9,421.22c0-.3-.06-.59-.16-.86-.12-.3-.3-.57-.52-.8s-.5-.4-.8-.52c-.28-.11-.57-.16-.86-.16s-.59.06-.86.16c-.3.12-.57.3-.8.52s-.4.5-.52.8c-.11.28-.16.57-.16.86s.06.59.16.86c.12.3.3.57.52.8.23.23.5.4.8.52.28.11.57.16.86.16s.59-.06.86-.16c.3-.12.57-.3.8-.52.23-.23.4-.5.52-.8.11-.28.16-.57.16-.86Z"/><polyline class="cls-7" points="514.3 427.48 630.19 427.48 630.19 415.21"/><path class="cls-7" d="m573.95,421.22c0-.3-.06-.59-.16-.86-.12-.3-.3-.57-.52-.8s-.5-.4-.8-.52c-.28-.11-.57-.16-.86-.16s-.59.06-.86.16c-.3.12-.57.3-.8.52s-.4.5-.52.8c-.11.28-.16.57-.16.86s.06.59.16.86c.12.3.3.57.52.8s.5.4.8.52c.28.11.57.16.86.16s.59-.06.86-.16c.3-.12.57-.3.8-.52s.4-.5.52-.8c.11-.28.16-.57.16-.86Z"/><line class="cls-7" x1="655.58" y1="803.24" x2="655.58" y2="696.73"/><line class="cls-7" x1="559.73" y1="698.24" x2="559.73" y2="696.73"/><line class="cls-7" x1="559.73" y1="803.44" x2="559.73" y2="716.6"/><line class="cls-7" x1="655.58" y1="715.51" x2="668.1" y2="715.51"/><path class="cls-7" d="m664.18,710.82c0-.3-.06-.59-.16-.86-.12-.3-.3-.57-.52-.8s-.5-.4-.8-.52c-.28-.11-.57-.16-.86-.16s-.59.06-.86.16c-.3.12-.57.3-.8.52-.23.23-.4.5-.52.8-.11.28-.16.57-.16.86s.06.59.16.86c.12.3.3.57.52.8s.5.4.8.52c.28.11.57.16.86.16s.59-.06.86-.16c.3-.12.57-.3.8-.52s.4-.5.52-.8c.11-.28.16-.57.16-.86Z"/><line class="cls-7" x1="463.86" y1="803.24" x2="463.86" y2="696.73"/><line class="cls-7" x1="364.04" y1="803.44" x2="448.56" y2="803.44"/><line class="cls-7" x1="448.56" y1="803.44" x2="448.52" y2="696.73"/><polyline class="cls-7" points="670.91 696.73 670.91 806.26 448.56 806.26"/><polyline class="cls-7" points="668.1 696.73 668.1 803.44 451.37 803.44 451.34 696.73"/><polyline class="cls-7" points="364.04 806.26 129.44 806.24 129.44 696.72"/><line class="cls-7" x1="364.04" y1="696.73" x2="364.04" y2="803.44"/><polyline class="cls-7" points="361.22 696.73 361.22 803.44 132.25 803.43 132.25 696.72"/><path class="cls-7" d="m573.26,529.4c.18-.18.33-.39.45-.63.12-.25.2-.51.23-.78s.01-.55-.05-.82c-.06-.25-.16-.49-.3-.71-.14-.22-.31-.41-.52-.57-.22-.17-.46-.3-.72-.39s-.53-.13-.81-.12c-.26,0-.51.06-.76.15-.24.09-.47.22-.67.39-.21.17-.39.38-.53.62-.14.24-.24.5-.29.77-.05.25-.05.51-.01.77.04.26.12.5.24.73.13.24.29.46.5.65.2.19.44.33.69.44.24.1.49.16.75.17"/><path class="cls-7" d="m580.62,526.63c-.27-.5-.71-.89-1.24-1.09-.53-.2-1.12-.2-1.65,0-.53.2-.98.59-1.24,1.09-.27.5-.35,1.09-.22,1.64"/><line class="cls-7" x1="511.49" y1="415.05" x2="511.49" y2="533.97"/><line class="cls-7" x1="288.65" y1="521.47" x2="511.49" y2="521.47"/><line class="cls-7" x1="514.3" y1="521.47" x2="594.32" y2="521.47"/><line class="cls-7" x1="342.2" y1="405.66" x2="342.2" y2="415.05"/><line class="cls-7" x1="132.25" y1="307.07" x2="457.92" y2="307.07"/><line class="cls-7" x1="132.25" y1="294.55" x2="457.91" y2="294.55"/><line class="cls-7" x1="342.2" y1="252.77" x2="457.89" y2="252.77"/><polyline class="cls-7" points="288.65 533.97 288.65 412.23 132.25 412.23 132.25 192.52 276.48 192.52"/><polyline class="cls-7" points="342.2 405.66 456.1 405.66 456.1 415.05 342.2 415.05"/><line class="cls-7" x1="188.13" y1="524.17" x2="188.13" y2="521.47"/><path class="cls-7" d="m235.94,527.73c0-.3-.06-.59-.16-.86-.12-.3-.3-.57-.52-.8s-.5-.4-.8-.52c-.28-.11-.57-.16-.86-.16s-.59.06-.86.16c-.3.12-.57.3-.8.52-.23.23-.4.5-.52.8-.11.28-.16.57-.16.86s.06.59.16.86c.12.3.3.57.52.8s.5.4.8.52c.28.11.57.16.86.16s.59-.06.86-.16c.3-.12.57-.3.8-.52s.4-.5.52-.8c.11-.28.16-.57.16-.86Z"/><path class="cls-7" d="m242.89,527.73c0-.3-.06-.59-.16-.86-.12-.3-.3-.57-.52-.8s-.5-.4-.8-.52c-.28-.11-.57-.16-.86-.16s-.59.06-.86.16c-.3.12-.57.3-.8.52-.23.23-.4.5-.52.8-.11.28-.16.57-.16.86s.06.59.16.86c.12.3.3.57.52.8s.5.4.8.52c.28.11.57.16.86.16s.59-.06.86-.16c.3-.12.57-.3.8-.52s.4-.5.52-.8c.11-.28.16-.57.16-.86Z"/><line class="cls-7" x1="188.13" y1="521.47" x2="285.83" y2="521.47"/><line class="cls-7" x1="463.86" y1="715.51" x2="451.34" y2="715.51"/><path class="cls-7" d="m459.95,710.82c0-.3-.06-.59-.16-.86-.12-.3-.3-.57-.52-.8s-.5-.4-.8-.52c-.28-.11-.57-.16-.86-.16s-.59.06-.86.16c-.3.12-.57.3-.8.52-.23.23-.4.5-.52.8-.11.28-.16.57-.16.86s.06.59.16.86c.12.3.3.57.52.8.23.23.5.4.8.52.28.11.57.16.86.16s.59-.06.86-.16c.3-.12.57-.3.8-.52.23-.23.4-.5.52-.8.11-.28.16-.57.16-.86Z"/><line class="cls-7" x1="249.31" y1="294.55" x2="249.31" y2="307.07"/><path class="cls-7" d="m246.97,300.81c0-.3-.06-.59-.16-.86-.12-.3-.3-.57-.52-.8s-.5-.4-.8-.52c-.28-.11-.57-.16-.86-.16s-.59.06-.86.16c-.3.12-.57.3-.8.52s-.4.5-.52.8c-.11.28-.16.57-.16.86s.06.59.16.86c.12.3.3.57.52.8s.5.4.8.52c.28.11.57.16.86.16s.59-.06.86-.16c.3-.12.57-.3.8-.52s.4-.5.52-.8c.11-.28.16-.57.16-.86Z"/><line class="cls-7" x1="230.54" y1="294.55" x2="230.54" y2="307.07"/><path class="cls-7" d="m237.58,300.81c0-.3-.06-.59-.16-.86-.12-.3-.3-.57-.52-.8s-.5-.4-.8-.52c-.28-.11-.57-.16-.86-.16s-.59.06-.86.16c-.3.12-.57.3-.8.52s-.4.5-.52.8c-.11.28-.16.57-.16.86s.06.59.16.86c.12.3.3.57.52.8s.5.4.8.52c.28.11.57.16.86.16s.59-.06.86-.16c.3-.12.57-.3.8-.52s.4-.5.52-.8c.11-.28.16-.57.16-.86Z"/><line class="cls-7" x1="656.33" y1="189.71" x2="656.45" y2="415.05"/><line class="cls-7" x1="585.16" y1="189.71" x2="585.29" y2="415.05"/><line class="cls-7" x1="514.39" y1="189.71" x2="514.51" y2="414.84"/><line class="cls-7" x1="342.13" y1="192.84" x2="457.93" y2="192.84"/><line class="cls-7" x1="342.13" y1="189.71" x2="457.93" y2="189.71"/><line class="cls-7" x1="364.04" y1="806.26" x2="448.56" y2="806.26"/><line class="cls-7" x1="670.87" y1="533.97" x2="670.87" y2="415.05"/><line class="cls-7" x1="667.74" y1="533.97" x2="667.74" y2="415.05"/><line class="cls-7" x1="132.57" y1="533.97" x2="132.57" y2="415.05"/><rect class="cls-7" x="471.82" y="698.24" width="89.77" height="18.36"/><rect class="cls-7" x="473.7" y="700.12" width="86.02" height="14.61"/><line class="cls-7" x1="528.98" y1="189.71" x2="529.1" y2="415.05"/><line class="cls-7" x1="599.88" y1="189.71" x2="600.01" y2="415.05"/><line class="cls-7" x1="457.89" y1="249.95" x2="457.98" y2="416.92"/><line class="cls-7" x1="514.3" y1="415.05" x2="457.98" y2="415.05"/><polyline class="cls-7" points="285.83 533.97 285.83 415.05 129.44 415.05 129.44 189.71 342.17 189.71 342.2 249.95 457.89 249.95 457.97 189.71 670.92 189.71 670.92 415.05 514.3 415.05 514.3 533.97"/><line class="cls-7" x1="340.43" y1="412.22" x2="288.65" y2="412.22"/><polygon class="cls-16" points="457.68 403.53 340.1 403.86 340.1 412.14 132.01 412.14 132.01 306.87 457.48 306.87 457.68 403.53"/><polygon class="cls-16" points="511.52 415.09 458.01 415.09 458.01 416.9 340.27 416.9 340.1 412.28 288.58 412.44 288.74 521.43 511.21 521.69 511.52 415.09"/><polygon class="cls-13" points="559.63 696.81 559.74 698.13 561.61 698.24 561.5 716.63 559.74 716.63 559.77 803.38 655.4 803.38 655.51 696.96 559.63 696.81"/><polygon class="cls-12" points="559.8 696.84 559.69 698.16 471.88 698.3 471.88 716.63 559.69 716.65 559.65 803.41 464.02 803.41 463.91 696.98 559.8 696.84"/><polygon class="cls-11" points="529.1 415.05 458.01 415.09 457.97 189.71 528.98 189.71 528.98 195.97 517.13 196.11 517.63 408.89 529.02 408.81 529.1 415.05"/><polygon class="cls-14" points="600.22 415.05 535.96 415.09 535.91 189.71 600.09 189.71 600.1 195.97 588.25 196.11 588.74 408.89 600.14 408.81 600.22 415.05"/><polygon class="cls-15" points="670.9 415.05 606.63 415.09 606.59 189.71 670.77 189.71 670.78 195.97 658.93 196.11 659.42 408.89 670.82 408.81 670.9 415.05"/></g><g id="Wall"><path class="cls-8" d="m135.7,540.23v150.23"/><line class="cls-8" x1="211.92" y1="540.23" x2="214.2" y2="533.97"/><line class="cls-8" x1="214.2" y1="533.97" x2="232.73" y2="533.97"/><path class="cls-8" d="m467.44,540.23v-6.24"/><path class="cls-8" d="m336,540.23h131.45"/><path class="cls-8" d="m336,533.99v6.24"/><path class="cls-8" d="m467.44,533.99h-131.45"/><path class="cls-8" d="m232.73,533.97c18.98,0,37.96,0,56.94,0"/><path class="cls-8" d="m514.39,540.23c10.43,0,26.75,0,48.98,0"/><path class="cls-8" d="m514.39,576.23v-36"/><path class="cls-8" d="m511.26,533.97c11.47,0,28.08,0,49.83,0"/><path class="cls-8" d="m511.26,576.23v-42.26"/><line class="cls-8" x1="514.39" y1="576.23" x2="511.26" y2="576.23"/><path class="cls-8" d="m336,690.47v6.26"/><path class="cls-8" d="m511.26,690.47h-175.26"/><line class="cls-8" x1="511.26" y1="690.47" x2="511.26" y2="651.35"/><line class="cls-8" x1="514.39" y1="651.35" x2="511.26" y2="651.35"/><line class="cls-8" x1="587.94" y1="605.96" x2="587.94" y2="624.74"/><line class="cls-8" x1="591.07" y1="602.84" x2="591.07" y2="621.61"/><line class="cls-8" x1="664.62" y1="624.74" x2="587.94" y2="624.74"/><path class="cls-8" d="m664.62,540.23c-12.52,0-26.77,0-42.73,0"/><path class="cls-8" d="m664.62,621.61v-81.38"/><path class="cls-8" d="m591.07,621.61h73.55"/><polyline class="cls-8" points="511.26 602.84 511.26 601.27 514.39 601.27 514.39 602.84"/><path class="cls-8" d="m591.07,602.84h-76.68"/><line class="cls-8" x1="514.39" y1="626.31" x2="511.26" y2="626.31"/><path class="cls-8" d="m514.39,605.96v20.34"/><path class="cls-8" d="m587.94,605.96h-73.55"/><path class="cls-8" d="m511.26,624.74v1.56"/><path class="cls-8" d="m511.26,602.84v21.91"/><line class="cls-8" x1="286.55" y1="576.23" x2="286.55" y2="576.23"/><line class="cls-8" x1="264.01" y1="600.36" x2="264.01" y2="597.23"/><path class="cls-8" d="m229.6,600.37c1.04,0,12.51,0,34.41-.01"/><path class="cls-8" d="m229.6,540.23v60.14"/><path class="cls-8" d="m211.92,540.23h17.68"/><path class="cls-8" d="m289.68,533.97c-23.16,0-48.32,0-75.48,0"/><path class="cls-8" d="m289.68,600.37v-66.4"/><path class="cls-8" d="m286.55,600.37h3.13"/><path class="cls-8" d="m286.55,540.23v60.14"/><path class="cls-8" d="m232.73,540.23c17.94,0,35.88,0,53.82,0"/><path class="cls-8" d="m232.73,597.24v-57.01"/><path class="cls-8" d="m229.6,690.46v-58.79"/><path class="cls-8" d="m135.7,690.46h93.91"/><path class="cls-8" d="m153.4,540.23c-8.67,0-14.57,0-17.7,0"/><line class="cls-8" x1="264.01" y1="634.8" x2="264.01" y2="631.67"/><path class="cls-8" d="m289.68,696.73c-18.98,0-37.96-.01-56.94-.02"/><path class="cls-8" d="m289.68,631.67v65.07"/><path class="cls-8" d="m232.73,690.46c0-23.47,0-34.28,0-55.66"/><path class="cls-8" d="m286.55,690.47c-17.94,0-35.88-.01-53.82-.02"/><path class="cls-8" d="m286.55,631.67v58.81"/><line class="cls-8" x1="627.04" y1="690.47" x2="627.04" y2="696.73"/><line class="cls-8" x1="545.67" y1="690.47" x2="545.67" y2="696.73"/><path class="cls-8" d="m514.39,690.47h31.28"/><path class="cls-8" d="m514.39,651.35v39.13"/><path class="cls-8" d="m664.62,690.47v-65.73"/><path class="cls-8" d="m627.04,690.47c12.52,0,25.05,0,37.57,0"/><path class="cls-8" d="m670.87,696.73c-14.61,0-29.22,0-43.83,0"/><path class="cls-8" d="m670.87,533.97v162.76"/><path class="cls-8" d="m622.94,533.97c17.35,0,33.32,0,47.93,0"/><line class="cls-8" x1="336" y1="696.73" x2="545.67" y2="696.73"/><polyline class="cls-8" points="622.94 533.97 615.49 513.51 612.56 514.61"/><path class="cls-8" d="m232.73,597.24c3.03,0,13.46,0,31.28-.01"/><path class="cls-8" d="m286.55,631.67h3.13"/><path class="cls-8" d="m229.6,631.67h34.41"/><path class="cls-8" d="m232.73,634.8h31.28"/><polyline class="cls-8" points="232.73 696.72 129.44 696.72 129.44 533.97 152.35 533.97"/><polyline class="cls-8" points="152.35 533.97 159.8 513.51 162.73 514.61"/><line class="cls-8" x1="153.4" y1="540.23" x2="162.73" y2="514.61"/><line class="cls-8" x1="561.09" y1="533.97" x2="561.31" y2="534.57"/><line class="cls-8" x1="621.89" y1="540.23" x2="612.56" y2="514.61"/><line class="cls-8" x1="563.37" y1="540.23" x2="561.09" y2="533.97"/></g><g id="Window_Door_Stairs"><line class="cls-10" x1="458.68" y1="540.23" x2="458.68" y2="574.66"/><line class="cls-10" x1="162.73" y1="514.61" x2="214.2" y2="533.97"/><line class="cls-10" x1="176.3" y1="523.06" x2="177.37" y2="520.12"/><line class="cls-10" x1="598.99" y1="523.06" x2="597.92" y2="520.12"/><line class="cls-10" x1="613.66" y1="517.54" x2="562.19" y2="536.9"/><line class="cls-10" x1="612.56" y1="514.61" x2="561.09" y2="533.97"/><line class="cls-10" x1="344.76" y1="540.23" x2="344.76" y2="574.66"/><line class="cls-10" x1="353.52" y1="540.23" x2="353.52" y2="574.66"/><line class="cls-10" x1="362.29" y1="540.23" x2="362.29" y2="574.66"/><line class="cls-10" x1="371.05" y1="540.23" x2="371.05" y2="574.66"/><line class="cls-10" x1="379.81" y1="540.23" x2="379.81" y2="574.66"/><line class="cls-10" x1="388.58" y1="540.23" x2="388.58" y2="574.66"/><line class="cls-10" x1="397.34" y1="540.23" x2="397.34" y2="574.66"/><line class="cls-10" x1="406.1" y1="540.23" x2="406.1" y2="574.66"/><line class="cls-10" x1="423.63" y1="540.23" x2="423.63" y2="574.66"/><line class="cls-10" x1="414.86" y1="540.23" x2="414.86" y2="574.66"/><line class="cls-10" x1="432.39" y1="540.23" x2="432.39" y2="574.66"/><line class="cls-10" x1="441.15" y1="540.23" x2="441.15" y2="574.66"/><line class="cls-10" x1="449.92" y1="540.23" x2="449.92" y2="574.66"/><polyline class="cls-10" points="356.84 700.79 356.84 799.2 136.65 799.18 136.65 700.79"/><line class="cls-10" x1="467.44" y1="540.23" x2="467.44" y2="574.66"/><line class="cls-10" x1="336" y1="696.73" x2="289.68" y2="696.73"/><line class="cls-10" x1="545.67" y1="690.47" x2="627.04" y2="690.47"/><line class="cls-10" x1="511.26" y1="533.97" x2="467.44" y2="533.99"/><line class="cls-10" x1="336" y1="533.99" x2="289.68" y2="533.97"/><line class="cls-10" x1="627.04" y1="696.73" x2="545.67" y2="696.73"/><line class="cls-10" x1="336" y1="540.23" x2="336" y2="574.66"/><line class="cls-10" x1="511.26" y1="540.22" x2="467.44" y2="540.24"/><line class="cls-10" x1="336" y1="540.23" x2="289.68" y2="540.22"/><polyline class="cls-1" points="339.07 257 342.2 257 342.17 189.71 276.48 189.71 276.51 257"/><line class="cls-1" x1="276.51" y1="257" x2="279.63" y2="257"/><rect class="cls-1" x="279.62" y="192.84" width="59.43" height="70.42"/><rect class="cls-1" x="457.68" y="189.53" width="213.31" height="225.55"/><line class="cls-10" x1="511.26" y1="574.66" x2="467.44" y2="574.66"/><line class="cls-10" x1="336" y1="690.47" x2="289.68" y2="690.47"/><line class="cls-10" x1="161.62" y1="517.54" x2="213.09" y2="536.9"/><line class="cls-10" x1="585.5" y1="189.18" x2="585.5" y2="415.09"/><line class="cls-10" x1="514.49" y1="189.18" x2="514.49" y2="415.09"/><line class="cls-10" x1="656.18" y1="189.18" x2="656.18" y2="415.09"/><line class="cls-10" x1="606.63" y1="189.18" x2="606.63" y2="415.09"/><line class="cls-10" x1="600.36" y1="189.18" x2="600.36" y2="415.09"/><line class="cls-10" x1="535.96" y1="189.18" x2="535.96" y2="415.09"/><line class="cls-10" x1="529.35" y1="189.18" x2="529.35" y2="415.09"/></g><g id="Accessory"><line class="cls-9" x1="587.94" y1="624.74" x2="514.39" y2="624.74"/><path class="cls-9" d="m135.38,748c0-.1-.02-.2-.05-.29-.04-.1-.1-.19-.17-.27s-.17-.13-.27-.17c-.09-.04-.19-.05-.29-.05s-.2.02-.29.05c-.1.04-.19.1-.27.17s-.13.17-.17.27c-.04.09-.05.19-.05.29s.02.2.05.29c.04.1.1.19.17.27.08.08.17.13.27.17.09.04.19.05.29.05s.2-.02.29-.05c.1-.04.19-.1.27-.17.08-.08.13-.17.17-.27.04-.09.05-.19.05-.29Z"/><path class="cls-9" d="m359.65,801.08c0-.1-.02-.2-.05-.29-.04-.1-.1-.19-.17-.27-.08-.08-.17-.13-.27-.17-.09-.04-.19-.05-.29-.05s-.2.02-.29.05c-.1.04-.19.1-.27.17-.08.08-.13.17-.17.27-.04.09-.05.19-.05.29s.02.2.05.29c.04.1.1.19.17.27.08.08.17.13.27.17.09.04.19.05.29.05s.2-.02.29-.05c.1-.04.19-.1.27-.17.08-.08.13-.17.17-.27.04-.09.05-.19.05-.29Z"/><path class="cls-9" d="m210.43,796.9c0-.1-.02-.2-.05-.29-.04-.1-.1-.19-.17-.27-.08-.08-.17-.13-.27-.17-.09-.04-.19-.05-.29-.05s-.2.02-.29.05c-.1.04-.19.1-.27.17-.08.08-.13.17-.17.27-.04.09-.05.19-.05.29s.02.2.05.29c.04.1.1.19.17.27.08.08.17.13.27.17.09.04.19.05.29.05s.2-.02.29-.05c.1-.04.19-.1.27-.17.08-.08.13-.17.17-.27.04-.09.05-.19.05-.29Z"/><path class="cls-9" d="m139.57,700.79c0-.1-.02-.2-.05-.29-.04-.1-.1-.19-.17-.27-.08-.08-.17-.13-.27-.17-.09-.04-.19-.05-.29-.05s-.2.02-.29.05c-.1.04-.19.1-.27.17s-.13.17-.17.27c-.04.09-.05.19-.05.29s.02.2.05.29c.04.1.1.19.17.27.08.08.17.13.27.17.09.04.19.05.29.05s.2-.02.29-.05c.1-.04.19-.1.27-.17s.13-.17.17-.27c.04-.09.05-.19.05-.29Z"/><line class="cls-9" x1="467.44" y1="576.23" x2="289.68" y2="576.23"/><line class="cls-9" x1="467.44" y1="574.66" x2="467.44" y2="576.23"/><line class="cls-9" x1="563.37" y1="540.23" x2="621.89" y2="540.23"/><path class="cls-9" d="m139.57,796.88c0-.1-.02-.2-.05-.29-.04-.1-.1-.19-.17-.27-.08-.08-.17-.13-.27-.17-.09-.04-.19-.05-.29-.05s-.2.02-.29.05c-.1.04-.19.1-.27.17s-.13.17-.17.27c-.04.09-.05.19-.05.29s.02.2.05.29c.04.1.1.19.17.27.08.08.17.13.27.17.09.04.19.05.29.05s.2-.02.29-.05c.1-.04.19-.1.27-.17s.13-.17.17-.27c.04-.09.05-.19.05-.29Z"/><path class="cls-9" d="m284.61,801.08c0-.1-.02-.2-.05-.29-.04-.1-.1-.19-.17-.27-.08-.08-.17-.13-.27-.17-.09-.04-.19-.05-.29-.05s-.2.02-.29.05c-.1.04-.19.1-.27.17s-.13.17-.17.27c-.04.09-.05.19-.05.29s.02.2.05.29c.04.1.1.19.17.27.08.08.17.13.27.17.09.04.19.05.29.05s.2-.02.29-.05c.1-.04.19-.1.27-.17.08-.08.13-.17.17-.27.04-.09.05-.19.05-.29Z"/><path class="cls-9" d="m210.43,801.08c0-.1-.02-.2-.05-.29-.04-.1-.1-.19-.17-.27s-.17-.13-.27-.17c-.09-.04-.19-.05-.29-.05s-.2.02-.29.05c-.1.04-.19.1-.27.17-.08.08-.13.17-.17.27-.04.09-.05.19-.05.29s.02.2.05.29c.04.1.1.19.17.27.08.08.17.13.27.17.09.04.19.05.29.05s.2-.02.29-.05c.1-.04.19-.1.27-.17s.13-.17.17-.27c.04-.09.05-.19.05-.29Z"/><path class="cls-9" d="m359.65,700.79c0-.1-.02-.2-.05-.29-.04-.1-.1-.19-.17-.27s-.17-.13-.27-.17c-.09-.04-.19-.05-.29-.05s-.2.02-.29.05c-.1.04-.19.1-.27.17-.08.08-.13.17-.17.27-.04.09-.05.19-.05.29s.02.2.05.29c.04.1.1.19.17.27.08.08.17.13.27.17.09.04.19.05.29.05s.2-.02.29-.05c.1-.04.19-.1.27-.17s.13-.17.17-.27c.04-.09.05-.19.05-.29Z"/><path class="cls-9" d="m359.65,748c0-.1-.02-.2-.05-.29-.04-.1-.1-.19-.17-.27-.08-.08-.17-.13-.27-.17-.09-.04-.19-.05-.29-.05s-.2.02-.29.05c-.1.04-.19.1-.27.17-.08.08-.13.17-.17.27-.04.09-.05.19-.05.29s.02.2.05.29c.04.1.1.19.17.27.08.08.17.13.27.17.09.04.19.05.29.05s.2-.02.29-.05c.1-.04.19-.1.27-.17.08-.08.13-.17.17-.27.04-.09.05-.19.05-.29Z"/><path class="cls-9" d="m135.38,801.08c0-.1-.02-.2-.05-.29-.04-.1-.1-.19-.17-.27-.08-.08-.17-.13-.27-.17-.09-.04-.19-.05-.29-.05s-.2.02-.29.05c-.1.04-.19.1-.27.17s-.13.17-.17.27c-.04.09-.05.19-.05.29s.02.2.05.29c.04.1.1.19.17.27.08.08.17.13.27.17.09.04.19.05.29.05s.2-.02.29-.05c.1-.04.19-.1.27-.17s.13-.17.17-.27c.04-.09.05-.19.05-.29Z"/><line class="cls-9" x1="664.62" y1="602.84" x2="591.07" y2="602.84"/><line class="cls-9" x1="135.7" y1="671.68" x2="229.6" y2="671.68"/><path class="cls-9" d="m135.38,700.79c0-.1-.02-.2-.05-.29-.04-.1-.1-.19-.17-.27-.08-.08-.17-.13-.27-.17-.09-.04-.19-.05-.29-.05s-.2.02-.29.05c-.1.04-.19.1-.27.17-.08.08-.13.17-.17.27-.04.09-.05.19-.05.29s.02.2.05.29c.04.1.1.19.17.27s.17.13.27.17c.09.04.19.05.29.05s.2-.02.29-.05c.1-.04.19-.1.27-.17.08-.08.13-.17.17-.27.04-.09.05-.19.05-.29Z"/><path class="cls-9" d="m355.47,796.9c0-.1-.02-.2-.05-.29-.04-.1-.1-.19-.17-.27-.08-.08-.17-.13-.27-.17-.09-.04-.19-.05-.29-.05s-.2.02-.29.05c-.1.04-.19.1-.27.17s-.13.17-.17.27c-.04.09-.05.19-.05.29s.02.2.05.29c.04.1.1.19.17.27.08.08.17.13.27.17.09.04.19.05.29.05s.2-.02.29-.05c.1-.04.19-.1.27-.17s.13-.17.17-.27c.04-.09.05-.19.05-.29Z"/><path class="cls-9" d="m355.46,700.79c0-.1-.02-.2-.05-.29-.04-.1-.1-.19-.17-.27-.08-.08-.17-.13-.27-.17-.09-.04-.19-.05-.29-.05s-.2.02-.29.05c-.1.04-.19.1-.27.17-.08.08-.13.17-.17.27-.04.09-.05.19-.05.29s.02.2.05.29c.04.1.1.19.17.27.08.08.17.13.27.17.09.04.19.05.29.05s.2-.02.29-.05c.1-.04.19-.1.27-.17.08-.08.13-.17.17-.27.04-.09.05-.19.05-.29Z"/><path class="cls-9" d="m355.46,748c0-.1-.02-.2-.05-.29-.04-.1-.1-.19-.17-.27s-.17-.13-.27-.17c-.09-.04-.19-.05-.29-.05s-.2.02-.29.05c-.1.04-.19.1-.27.17s-.13.17-.17.27c-.04.09-.05.19-.05.29s.02.2.05.29c.04.1.1.19.17.27s.17.13.27.17c.09.04.19.05.29.05s.2-.02.29-.05c.1-.04.19-.1.27-.17s.13-.17.17-.27c.04-.09.05-.19.05-.29Z"/><path class="cls-9" d="m284.61,796.9c0-.1-.02-.2-.05-.29-.04-.1-.1-.19-.17-.27-.08-.08-.17-.13-.27-.17-.09-.04-.19-.05-.29-.05s-.2.02-.29.05c-.1.04-.19.1-.27.17s-.13.17-.17.27c-.04.09-.05.19-.05.29s.02.2.05.29c.04.1.1.19.17.27.08.08.17.13.27.17.09.04.19.05.29.05s.2-.02.29-.05c.1-.04.19-.1.27-.17s.13-.17.17-.27c.04-.09.05-.19.05-.29Z"/><path class="cls-9" d="m139.57,748c0-.1-.02-.2-.05-.29-.04-.1-.1-.19-.17-.27-.08-.08-.17-.13-.27-.17-.09-.04-.19-.05-.29-.05s-.2.02-.29.05c-.1.04-.19.1-.27.17-.08.08-.13.17-.17.27-.04.09-.05.19-.05.29s.02.2.05.29c.04.1.1.19.17.27.08.08.17.13.27.17.09.04.19.05.29.05s.2-.02.29-.05c.1-.04.19-.1.27-.17.08-.08.13-.17.17-.27.04-.09.05-.19.05-.29Z"/><line class="cls-9" x1="153.4" y1="540.23" x2="211.92" y2="540.23"/><line class="cls-9" x1="467.44" y1="574.66" x2="289.68" y2="574.66"/></g><g id="TEXT"><circle class="cls-2" cx="765.53" cy="1024.02" r="11.44"/><line class="cls-2" x1="765.53" y1="1012.57" x2="765.53" y2="1024.02"/><path class="cls-17" d="m32.2,1028.91h-5.43v-1.05h2.19v-8.03l-2.07,1.03v-1.2l2.23-1.15h1.03v9.35h2.04v1.05Z"/><path class="cls-17" d="m65.57,1028.91h-1.52l-3.49-5.07-1.09,1.19v3.88h-1.2v-10.33h1.2v4.95l4.58-4.95h1.38l-4.04,4.37,4.17,5.97Z"/><path class="cls-17" d="m71.29,1028.91h-1.14v-6.64h-2.25v-.99h3.39v7.63Zm-.56-10.52c.21,0,.4.08.55.23.15.15.23.34.23.55,0,.23-.07.41-.22.56s-.33.23-.55.23c-.2,0-.38-.08-.53-.24-.15-.16-.23-.34-.23-.55s.08-.39.23-.55c.15-.16.33-.23.53-.23Z"/><path class="cls-17" d="m82.27,1028.57c-.77.35-1.52.53-2.26.53-1.36,0-2.04-.72-2.04-2.16v-4.67h-1.46v-.99h1.46v-2.09h1.11v2.09h2.59v.99h-2.59v4.37c0,.46.1.82.31,1.08.21.26.48.38.83.38.62,0,1.24-.14,1.85-.42l.2.89Z"/><path class="cls-17" d="m91.16,1028.66c-.66.3-1.39.45-2.19.45-1.2,0-2.16-.36-2.87-1.09-.72-.73-1.07-1.7-1.07-2.91s.36-2.18,1.08-2.91c.72-.73,1.67-1.09,2.84-1.09.77,0,1.5.13,2.19.4l-.3.95c-.69-.24-1.32-.36-1.88-.36-.84,0-1.51.27-2,.81-.49.54-.74,1.28-.74,2.21,0,.85.25,1.56.76,2.14.51.58,1.17.87,1.98.87.64,0,1.31-.12,1.99-.37l.2.92Z"/><path class="cls-17" d="m100.19,1028.91h-1.14v-4.89c0-.68-.11-1.17-.33-1.48-.22-.31-.56-.46-1.02-.46-.7,0-1.45.43-2.25,1.3v5.52h-1.14v-10.33h1.14v3.82c.82-.87,1.68-1.3,2.59-1.3,1.43,0,2.15.86,2.15,2.59v5.22Z"/><path class="cls-17" d="m109.42,1025.14h-5.24c0,.86.25,1.58.75,2.14.5.56,1.11.84,1.84.84s1.41-.12,2.15-.37l.2.92c-.67.3-1.46.45-2.36.45-1.13,0-2.05-.36-2.74-1.09s-1.04-1.71-1.04-2.94.31-2.18.93-2.9c.62-.72,1.43-1.08,2.41-1.08.88,0,1.61.33,2.2,1s.89,1.56.89,2.67v.36Zm-1.25-.93c0-.6-.19-1.1-.56-1.51-.37-.41-.79-.61-1.25-.61-.59,0-1.08.2-1.47.59-.39.39-.6.9-.65,1.53h3.92Z"/><path class="cls-17" d="m118.2,1028.91h-1.14v-4.89c0-.68-.11-1.17-.33-1.48-.22-.31-.56-.46-1.02-.46-.7,0-1.45.43-2.25,1.3v5.52h-1.14v-7.63h1.14v1.12c.82-.87,1.68-1.3,2.59-1.3,1.43,0,2.15.86,2.15,2.59v5.22Z"/><path class="cls-17" d="m31.93,1050.91h-5.68v-.87c1.44-1.61,2.38-2.68,2.81-3.23s.78-1.12,1.05-1.72c.27-.6.4-1.2.4-1.79s-.17-1.03-.52-1.36c-.35-.33-.84-.5-1.47-.5-.48,0-1.13.15-1.95.45l-.17-1.03c.74-.31,1.51-.47,2.31-.47.92,0,1.67.26,2.23.78.56.52.85,1.21.85,2.08,0,.62-.15,1.24-.44,1.85s-.66,1.2-1.12,1.76-1.34,1.57-2.65,3.02h4.35v1.05Z"/><path class="cls-17" d="m64.23,1050.91h-5.62v-10.33h1.2v9.29h4.42v1.05Z"/><path class="cls-17" d="m71.29,1050.91h-1.14v-6.64h-2.25v-.99h3.39v7.63Zm-.56-10.52c.21,0,.4.08.55.23.15.15.23.34.23.55,0,.23-.07.41-.22.56s-.33.23-.55.23c-.2,0-.38-.08-.53-.24-.15-.16-.23-.34-.23-.55s.08-.39.23-.55c.15-.16.33-.23.53-.23Z"/><path class="cls-17" d="m82.54,1043.28l-2.89,7.63h-1.04l-2.88-7.63h1.25l2.16,6.07,2.16-6.07h1.25Z"/><path class="cls-17" d="m89.29,1050.91h-1.14v-6.64h-2.25v-.99h3.39v7.63Zm-.56-10.52c.21,0,.4.08.55.23.15.15.23.34.23.55,0,.23-.07.41-.22.56s-.33.23-.55.23c-.2,0-.38-.08-.53-.24-.15-.16-.23-.34-.23-.55s.08-.39.23-.55c.15-.16.33-.23.53-.23Z"/><path class="cls-17" d="m100.19,1050.91h-1.14v-4.89c0-.68-.11-1.17-.33-1.48-.22-.31-.56-.46-1.02-.46-.7,0-1.45.43-2.25,1.3v5.52h-1.14v-7.63h1.14v1.12c.82-.87,1.68-1.3,2.59-1.3,1.43,0,2.15.86,2.15,2.59v5.22Z"/><path class="cls-17" d="m105.43,1048.04c-.71.35-1.07.65-1.07.92,0,.14.08.26.25.36s.39.15.67.15l2.57-.07c.61,0,1.08.15,1.42.45.34.3.51.72.51,1.27,0,.86-.39,1.55-1.16,2.06-.77.51-1.67.77-2.7.77-.84,0-1.54-.18-2.07-.53-.54-.35-.81-.81-.81-1.37,0-.61.42-1.12,1.25-1.54-.69-.32-1.03-.72-1.03-1.19,0-.54.44-1.04,1.33-1.5-.41-.25-.73-.57-.94-.97s-.33-.81-.33-1.25c0-.72.24-1.31.73-1.77.49-.46,1.1-.69,1.83-.69.53,0,1,.11,1.43.33l2.26-.34v1.11h-1.46c.22.39.33.84.33,1.36,0,.69-.24,1.28-.73,1.76-.48.48-1.1.72-1.84.72-.16,0-.31,0-.45-.02Zm.49,5.01c.75,0,1.39-.17,1.92-.5.53-.33.79-.75.79-1.24s-.38-.76-1.13-.76c-.25,0-.68.01-1.29.04-.39.02-.69.03-.91.03-.11,0-.27.09-.5.26-.23.18-.4.35-.52.53-.12.18-.18.36-.18.55,0,.3.17.55.5.77.33.21.77.32,1.31.32Zm-.04-5.88c.42,0,.76-.15,1.03-.44.27-.29.4-.67.4-1.14,0-.49-.13-.88-.39-1.16-.26-.28-.61-.42-1.04-.42-.41,0-.75.15-1.02.44-.28.29-.41.67-.41,1.14s.14.84.41,1.13c.28.3.62.44,1.02.44Z"/><path class="cls-17" d="m29.89,1067.36c.63.18,1.14.5,1.52.96.38.47.57.99.57,1.57,0,.91-.35,1.67-1.06,2.29-.71.62-1.54.93-2.5.93-.82,0-1.56-.18-2.2-.54l.23-.99c.68.32,1.35.48,2.01.48.62,0,1.16-.19,1.6-.58.44-.39.66-.89.66-1.5s-.24-1.09-.71-1.46c-.47-.38-1.1-.56-1.88-.56h-.31v-.99h.09c.75,0,1.37-.18,1.86-.53.49-.35.73-.83.73-1.43,0-.49-.18-.87-.53-1.15-.35-.28-.83-.41-1.45-.41-.53,0-1.13.14-1.79.43l-.16-1.03c.66-.3,1.33-.45,2.01-.45.92,0,1.68.24,2.28.73.6.49.9,1.11.9,1.87,0,.53-.18,1.02-.55,1.48-.36.46-.8.74-1.31.86v.04Z"/><path class="cls-17" d="m58.26,1062.58h2.04c1.35,0,2.44.46,3.25,1.38.82.92,1.22,2.18,1.22,3.79s-.41,2.91-1.24,3.81c-.83.9-1.89,1.35-3.18,1.35h-2.09v-10.33Zm1.2,9.29h.85c.98,0,1.76-.36,2.33-1.09s.86-1.74.86-3.03-.29-2.29-.86-3.02c-.57-.74-1.35-1.1-2.33-1.1h-.85v8.24Z"/><path class="cls-17" d="m71.29,1072.91h-1.14v-6.64h-2.25v-.99h3.39v7.63Zm-.56-10.52c.21,0,.4.08.55.23.15.15.23.34.23.55,0,.23-.07.41-.22.56s-.33.23-.55.23c-.2,0-.38-.08-.53-.24-.15-.16-.23-.34-.23-.55s.08-.39.23-.55c.15-.16.33-.23.53-.23Z"/><path class="cls-17" d="m82.19,1072.91h-1.14v-4.89c0-.68-.11-1.17-.33-1.48-.22-.31-.56-.46-1.02-.46-.7,0-1.45.43-2.25,1.3v5.52h-1.14v-7.63h1.14v1.12c.82-.87,1.68-1.3,2.59-1.3,1.43,0,2.15.86,2.15,2.59v5.22Z"/><path class="cls-17" d="m89.29,1072.91h-1.14v-6.64h-2.25v-.99h3.39v7.63Zm-.56-10.52c.21,0,.4.08.55.23.15.15.23.34.23.55,0,.23-.07.41-.22.56s-.33.23-.55.23c-.2,0-.38-.08-.53-.24-.15-.16-.23-.34-.23-.55s.08-.39.23-.55c.15-.16.33-.23.53-.23Z"/><path class="cls-17" d="m100.19,1072.91h-1.14v-4.89c0-.68-.11-1.17-.33-1.48-.22-.31-.56-.46-1.02-.46-.7,0-1.45.43-2.25,1.3v5.52h-1.14v-7.63h1.14v1.12c.82-.87,1.68-1.3,2.59-1.3,1.43,0,2.15.86,2.15,2.59v5.22Z"/><path class="cls-17" d="m105.43,1070.04c-.71.35-1.07.65-1.07.92,0,.14.08.26.25.36s.39.15.67.15l2.57-.07c.61,0,1.08.15,1.42.45.34.3.51.72.51,1.27,0,.86-.39,1.55-1.16,2.06-.77.51-1.67.77-2.7.77-.84,0-1.54-.18-2.07-.53-.54-.35-.81-.81-.81-1.37,0-.61.42-1.12,1.25-1.54-.69-.32-1.03-.72-1.03-1.19,0-.54.44-1.04,1.33-1.5-.41-.25-.73-.57-.94-.97s-.33-.81-.33-1.25c0-.72.24-1.31.73-1.77.49-.46,1.1-.69,1.83-.69.53,0,1,.11,1.43.33l2.26-.34v1.11h-1.46c.22.39.33.84.33,1.36,0,.69-.24,1.28-.73,1.76-.48.48-1.1.72-1.84.72-.16,0-.31,0-.45-.02Zm.49,5.01c.75,0,1.39-.17,1.92-.5.53-.33.79-.75.79-1.24s-.38-.76-1.13-.76c-.25,0-.68.01-1.29.04-.39.02-.69.03-.91.03-.11,0-.27.09-.5.26-.23.18-.4.35-.52.53-.12.18-.18.36-.18.55,0,.3.17.55.5.77.33.21.77.32,1.31.32Zm-.04-5.88c.42,0,.76-.15,1.03-.44.27-.29.4-.67.4-1.14,0-.49-.13-.88-.39-1.16-.26-.28-.61-.42-1.04-.42-.41,0-.75.15-1.02.44-.28.29-.41.67-.41,1.14s.14.84.41,1.13c.28.3.62.44,1.02.44Z"/><path class="cls-17" d="m32.6,1092.53h-1.27v2.39h-1.2v-2.39h-4.5v-.92l4.08-7.03h1.62v6.9h1.27v1.05Zm-2.48-1.05v-5.71l-3.28,5.71h3.28Z"/><path class="cls-17" d="m64.23,1094.91h-5.62v-10.33h1.2v9.29h4.42v1.05Z"/><path class="cls-17" d="m73.38,1094.91h-1.14c-.09-.31-.14-.72-.14-1.23-.65.95-1.53,1.43-2.65,1.43-.57,0-1.07-.2-1.5-.6-.43-.4-.65-.92-.65-1.56,0-.38.08-.71.23-1s.37-.53.67-.73c.29-.2.65-.35,1.07-.47.42-.12.92-.19,1.49-.24l1.28-.1v-.37c0-1.31-.61-1.96-1.83-1.96-.29,0-.65.06-1.09.19-.44.12-.82.27-1.14.44l-.3-.82c1.04-.53,2.01-.8,2.9-.8,1.74,0,2.61.92,2.61,2.76v3.28c0,.66.06,1.25.19,1.77Zm-1.33-2.26v-1.38c-1.03.09-1.74.18-2.12.26-.38.08-.72.23-1,.45-.28.22-.42.52-.42.89,0,.34.12.62.36.83s.54.32.92.32c.41,0,.81-.12,1.21-.36.4-.24.75-.57,1.05-1Z"/><path class="cls-17" d="m82.18,1094.91h-1.14v-1.13c-.82.87-1.68,1.31-2.59,1.31-1.43,0-2.15-.87-2.15-2.6v-5.21h1.14v4.89c0,.65.1,1.13.31,1.45.21.32.55.48,1.04.48.7,0,1.45-.43,2.25-1.3v-5.51h1.14v7.63Z"/><path class="cls-17" d="m91.19,1094.91h-1.14v-4.89c0-.68-.11-1.17-.33-1.48-.22-.31-.56-.46-1.02-.46-.7,0-1.45.43-2.25,1.3v5.52h-1.14v-7.63h1.14v1.12c.82-.87,1.68-1.3,2.59-1.3,1.43,0,2.15.86,2.15,2.59v5.22Z"/><path class="cls-17" d="m100.17,1094.91h-1.14v-1.1c-.23.38-.57.69-1.01.93-.44.24-.9.37-1.38.37-.87,0-1.56-.39-2.07-1.17-.51-.78-.76-1.77-.76-2.96,0-1.12.26-2.04.79-2.78.53-.73,1.23-1.1,2.11-1.1.96,0,1.74.39,2.32,1.17v-3.69h1.14v10.33Zm-1.14-2.34v-3.17c-.55-.88-1.21-1.32-1.98-1.32-.63,0-1.13.28-1.49.84-.37.56-.55,1.27-.55,2.12s.17,1.61.52,2.18c.34.57.82.86,1.42.86.29,0,.58-.08.87-.23.29-.16.57-.39.83-.7.26-.31.39-.5.39-.57Z"/><path class="cls-17" d="m109.31,1087.49l-.46,1.1c-.5-.22-.94-.33-1.3-.33-.34,0-.67.1-.99.29-.32.19-.62.47-.89.83-.27.36-.41.56-.41.6v4.94h-1.14v-7.63h1.14v1.55c.61-1.15,1.4-1.73,2.37-1.73.58,0,1.14.13,1.68.39Z"/><path class="cls-17" d="m118.54,1087.28l-2.89,7.63c-.42,1.12-.84,1.91-1.25,2.35-.41.44-.88.67-1.41.67-.47,0-.93-.09-1.39-.26l.19-.92c.37.12.7.18,1,.18.41,0,.75-.16,1.01-.48s.53-.84.8-1.56l-2.86-7.62h1.25l2.16,6.09,2.16-6.09h1.25Z"/><path class="cls-17" d="m200.48,1022.75c.33-.09.66-.13.97-.13.98,0,1.75.3,2.31.9.57.6.85,1.34.85,2.24,0,.94-.33,1.73-.99,2.38-.66.65-1.46.98-2.41.98s-1.66-.15-2.27-.45l.24-1.02c.66.28,1.35.42,2.06.42.63,0,1.14-.2,1.53-.61.39-.41.58-.97.58-1.7,0-.69-.18-1.22-.55-1.59-.37-.37-.84-.56-1.41-.56-.42,0-.83.08-1.25.24l-.72-.33v-4.94h4.72v1.05h-3.68v3.12Z"/><path class="cls-17" d="m237.98,1018.58l-1.32,10.33h-1.11l-1.76-5.82-1.75,5.82h-1.14l-1.29-10.33h1.19l.87,8.4,1.52-5.08h1.2l1.53,5.1.89-8.42h1.17Z"/><path class="cls-17" d="m246.14,1028.27c-.81.56-1.75.84-2.82.84-1.34,0-2.35-.46-3.05-1.38-.7-.92-1.04-2.25-1.04-3.98s.34-2.99,1.01-3.94c.67-.95,1.7-1.42,3.08-1.42.5,0,.99.06,1.48.19s.88.3,1.18.51l-.4.94c-.69-.39-1.44-.59-2.26-.59-.95,0-1.66.35-2.12,1.04-.46.69-.7,1.78-.7,3.28,0,2.87.94,4.31,2.82,4.31.8,0,1.61-.24,2.45-.73l.37.95Z"/><path class="cls-17" d="m199.96,1045.53c.64-.52,1.34-.78,2.1-.78.87,0,1.6.28,2.19.84.58.56.88,1.28.88,2.16,0,.97-.26,1.78-.78,2.41s-1.21.95-2.07.95c-1.1,0-1.98-.51-2.62-1.52-.64-1.01-.97-2.25-.97-3.72,0-1.56.33-2.87,1.01-3.92.67-1.05,1.59-1.58,2.76-1.58.81,0,1.5.12,2.09.36l-.19,1.07c-.68-.25-1.3-.37-1.86-.37-.8,0-1.42.38-1.86,1.14s-.67,1.75-.67,2.95Zm.04,1.03c0,.88.21,1.69.62,2.41.42.72.94,1.08,1.57,1.08.53,0,.94-.19,1.23-.59.29-.39.43-.93.43-1.62,0-.63-.16-1.14-.48-1.5-.32-.37-.76-.55-1.34-.55-.75,0-1.43.25-2.04.76Z"/><path class="cls-17" d="m235.03,1045.25c.69.16,1.23.47,1.62.94s.59,1.02.59,1.66c0,.94-.34,1.68-1.02,2.24-.68.56-1.5.83-2.46.83h-2.94v-10.33h2.86c1,0,1.78.22,2.34.66.56.44.84,1.05.84,1.85,0,.49-.16.92-.49,1.3-.32.38-.77.66-1.34.83v.03Zm-3.01-.56h1.41c1.47,0,2.2-.52,2.2-1.58,0-.48-.18-.85-.54-1.1-.36-.26-.89-.38-1.59-.38h-1.48v3.06Zm0,5.18h1.36c.8,0,1.43-.18,1.89-.54.47-.36.7-.86.7-1.49,0-.67-.23-1.19-.69-1.55s-1.12-.55-1.99-.55h-1.27v4.13Z"/><path class="cls-17" d="m245.98,1047.14h-5.24c0,.86.25,1.58.75,2.14.5.56,1.11.84,1.84.84s1.41-.12,2.15-.37l.2.92c-.67.3-1.46.45-2.36.45-1.13,0-2.05-.36-2.74-1.09s-1.04-1.71-1.04-2.94.31-2.18.93-2.9c.62-.72,1.43-1.08,2.41-1.08.88,0,1.61.33,2.21,1s.89,1.56.89,2.67v.36Zm-1.25-.93c0-.6-.19-1.1-.56-1.51-.37-.41-.79-.61-1.25-.61-.59,0-1.08.2-1.47.59-.39.39-.6.9-.65,1.53h3.92Z"/><path class="cls-17" d="m254.72,1050.91h-1.14v-1.1c-.23.38-.57.69-1.01.93-.44.24-.9.37-1.38.37-.87,0-1.56-.39-2.07-1.17-.51-.78-.76-1.77-.76-2.96,0-1.12.26-2.04.79-2.78.53-.73,1.23-1.1,2.11-1.1.96,0,1.74.39,2.32,1.17v-3.69h1.14v10.33Zm-1.14-2.34v-3.17c-.55-.88-1.21-1.32-1.98-1.32-.63,0-1.13.28-1.49.84-.37.56-.55,1.27-.55,2.12s.17,1.61.52,2.18c.34.57.82.86,1.42.86.29,0,.58-.08.87-.23.29-.16.57-.39.83-.7.26-.31.39-.5.39-.57Z"/><path class="cls-17" d="m204.89,1063.44l-4.09,9.48h-1.23l4.04-9.29h-4.84v-1.05h6.13v.86Z"/><path class="cls-17" d="m235.03,1067.25c.69.16,1.23.47,1.62.94s.59,1.02.59,1.66c0,.94-.34,1.68-1.02,2.24-.68.56-1.5.83-2.46.83h-2.94v-10.33h2.86c1,0,1.78.22,2.34.66.56.44.84,1.05.84,1.85,0,.49-.16.92-.49,1.3-.32.38-.77.66-1.34.83v.03Zm-3.01-.56h1.41c1.47,0,2.2-.52,2.2-1.58,0-.48-.18-.85-.54-1.1-.36-.26-.89-.38-1.59-.38h-1.48v3.06Zm0,5.18h1.36c.8,0,1.43-.18,1.89-.54.47-.36.7-.86.7-1.49,0-.67-.23-1.19-.69-1.55s-1.12-.55-1.99-.55h-1.27v4.13Z"/><path class="cls-17" d="m245.94,1072.91h-1.14c-.09-.31-.14-.72-.14-1.23-.65.95-1.53,1.43-2.65,1.43-.57,0-1.07-.2-1.5-.6-.43-.4-.65-.92-.65-1.56,0-.38.08-.71.23-1s.37-.53.67-.73c.29-.2.65-.35,1.07-.47.42-.12.92-.19,1.49-.24l1.28-.1v-.37c0-1.31-.61-1.96-1.83-1.96-.29,0-.65.06-1.09.19-.44.12-.82.27-1.14.44l-.3-.82c1.04-.53,2.01-.8,2.9-.8,1.74,0,2.61.92,2.61,2.76v3.28c0,.66.06,1.25.19,1.77Zm-1.33-2.26v-1.38c-1.03.09-1.74.18-2.12.26-.38.08-.72.23-1,.45-.28.22-.42.52-.42.89,0,.34.12.62.36.83s.54.32.92.32c.41,0,.81-.12,1.21-.36.4-.24.75-.57,1.05-1Z"/><path class="cls-17" d="m254.82,1072.57c-.77.35-1.52.53-2.26.53-1.36,0-2.04-.72-2.04-2.16v-4.67h-1.46v-.99h1.46v-2.09h1.11v2.09h2.59v.99h-2.59v4.37c0,.46.1.82.31,1.08.21.26.48.38.83.38.62,0,1.24-.14,1.85-.42l.2.89Z"/><path class="cls-17" d="m263.75,1072.91h-1.14v-4.89c0-.68-.11-1.17-.33-1.48-.22-.31-.56-.46-1.02-.46-.7,0-1.45.43-2.25,1.3v5.52h-1.14v-10.33h1.14v3.82c.82-.87,1.68-1.3,2.59-1.3,1.43,0,2.15.86,2.15,2.59v5.22Z"/><path class="cls-17" d="m272.87,1065.49l-.46,1.1c-.5-.22-.94-.33-1.3-.33-.34,0-.67.1-.99.29-.32.19-.62.47-.89.83-.27.36-.41.56-.41.6v4.94h-1.14v-7.63h1.14v1.55c.61-1.15,1.4-1.73,2.37-1.73.58,0,1.13.13,1.68.39Z"/><path class="cls-17" d="m278.8,1065.1c1.05,0,1.88.37,2.5,1.1s.93,1.7.93,2.89-.31,2.18-.93,2.92-1.46,1.11-2.5,1.11-1.89-.37-2.51-1.1c-.62-.74-.93-1.71-.93-2.92s.31-2.17.93-2.9c.62-.73,1.46-1.09,2.5-1.09Zm0,7.02c.69,0,1.24-.29,1.64-.88s.6-1.3.6-2.13c0-.88-.2-1.6-.59-2.17s-.94-.85-1.65-.85-1.26.28-1.65.84c-.39.56-.59,1.29-.59,2.18s.2,1.56.59,2.14c.4.58.94.87,1.64.87Z"/><path class="cls-17" d="m287.8,1065.1c1.05,0,1.88.37,2.5,1.1s.93,1.7.93,2.89-.31,2.18-.93,2.92-1.46,1.11-2.5,1.11-1.89-.37-2.51-1.1c-.62-.74-.93-1.71-.93-2.92s.31-2.17.93-2.9c.62-.73,1.46-1.09,2.5-1.09Zm0,7.02c.69,0,1.24-.29,1.64-.88s.6-1.3.6-2.13c0-.88-.2-1.6-.59-2.17s-.95-.85-1.65-.85-1.26.28-1.65.84c-.39.56-.59,1.29-.59,2.18s.2,1.56.59,2.14c.4.58.94.87,1.64.87Z"/><path class="cls-17" d="m300.36,1072.91h-1.14v-5.01c0-1.21-.22-1.82-.67-1.82-.23,0-.48.21-.76.63-.28.42-.41.65-.41.69v5.51h-1.14v-5.01c0-1.21-.23-1.82-.68-1.82-.22,0-.48.21-.75.63-.28.42-.41.65-.41.69v5.51h-1.14v-7.63h1.1v1.15c.21-.4.47-.73.77-.97.29-.24.59-.36.88-.36.31,0,.58.12.83.36.24.24.41.57.51.97.21-.4.47-.73.77-.97.3-.24.59-.36.88-.36.92,0,1.38.83,1.38,2.47v5.34Z"/><path class="cls-17" d="m202.84,1089.25c.7.21,1.25.55,1.64,1.05.39.49.58,1.07.58,1.73,0,.95-.31,1.7-.94,2.26-.63.56-1.4.83-2.32.83s-1.75-.28-2.37-.84c-.62-.56-.93-1.31-.93-2.23,0-.65.2-1.23.6-1.73s.96-.85,1.68-1.06c-.57-.15-1.03-.43-1.37-.85-.34-.42-.52-.88-.52-1.4,0-.66.26-1.27.79-1.8.53-.54,1.22-.81,2.09-.81s1.56.27,2.12.81c.56.54.84,1.14.84,1.81,0,.5-.18.97-.53,1.39-.35.42-.81.71-1.36.86Zm-1.07.53c-1.34.39-2.01,1.13-2.01,2.2,0,.63.2,1.13.61,1.51.41.38.88.57,1.43.57s1.04-.19,1.43-.56c.39-.37.58-.88.58-1.52,0-.48-.13-.92-.4-1.3-.27-.38-.82-.68-1.64-.9Zm0-1.03s.14-.03.35-.09.39-.13.54-.22c.15-.09.29-.19.41-.33s.23-.29.31-.46c.08-.18.12-.38.12-.6,0-.47-.17-.86-.51-1.17-.34-.31-.74-.46-1.22-.46s-.86.16-1.19.48-.5.7-.5,1.16c0,.29.06.54.18.75.12.21.27.39.45.52.18.13.38.23.62.31.23.07.38.11.45.11Z"/><path class="cls-17" d="m235.99,1085.72c-.62-.21-1.2-.32-1.75-.32-.62,0-1.13.14-1.53.43-.39.29-.59.69-.59,1.22,0,.63.51,1.17,1.54,1.65.76.35,1.27.6,1.51.73.25.14.5.33.75.56s.46.52.61.85c.15.32.23.69.23,1.09,0,1.01-.34,1.79-1.01,2.34-.68.55-1.47.83-2.39.83s-1.67-.18-2.34-.53l.25-1.03c.79.36,1.47.53,2.06.53.68,0,1.23-.18,1.64-.53.41-.35.62-.84.62-1.46,0-.46-.13-.85-.4-1.17-.27-.32-.76-.65-1.49-.98-.74-.34-1.22-.58-1.44-.7-.22-.12-.43-.3-.65-.52s-.38-.47-.5-.74c-.12-.27-.18-.57-.18-.89,0-.85.31-1.52.92-2s1.39-.72,2.34-.72c.69,0,1.37.11,2.05.32l-.27,1.03Z"/><path class="cls-17" d="m245.82,1094.57c-.77.35-1.52.53-2.26.53-1.36,0-2.04-.72-2.04-2.16v-4.67h-1.46v-.99h1.46v-2.09h1.11v2.09h2.59v.99h-2.59v4.37c0,.46.1.82.31,1.08.21.26.48.38.83.38.62,0,1.24-.14,1.85-.42l.2.89Z"/><path class="cls-17" d="m254.74,1094.91h-1.14v-1.13c-.82.87-1.68,1.31-2.59,1.31-1.43,0-2.15-.87-2.15-2.6v-5.21h1.14v4.89c0,.65.1,1.13.31,1.45.21.32.55.48,1.04.48.7,0,1.45-.43,2.25-1.3v-5.51h1.14v7.63Z"/><path class="cls-17" d="m263.72,1094.91h-1.14v-1.1c-.23.38-.57.69-1.01.93-.44.24-.9.37-1.38.37-.87,0-1.57-.39-2.07-1.17-.51-.78-.76-1.77-.76-2.96,0-1.12.26-2.04.79-2.78.53-.73,1.23-1.1,2.11-1.1.96,0,1.74.39,2.32,1.17v-3.69h1.14v10.33Zm-1.14-2.34v-3.17c-.55-.88-1.21-1.32-1.98-1.32-.63,0-1.13.28-1.49.84-.37.56-.55,1.27-.55,2.12s.17,1.61.52,2.18c.34.57.82.86,1.42.86.29,0,.58-.08.87-.23.29-.16.57-.39.83-.7.26-.31.39-.5.39-.57Z"/><path class="cls-17" d="m273.1,1087.28l-2.89,7.63c-.42,1.12-.84,1.91-1.25,2.35-.41.44-.88.67-1.41.67-.47,0-.93-.09-1.39-.26l.19-.92c.37.12.7.18,1,.18.41,0,.75-.16,1.01-.48s.53-.84.8-1.56l-2.86-7.62h1.25l2.16,6.09,2.16-6.09h1.25Z"/><path class="cls-17" d="m373.77,1023.95c-.6.52-1.3.78-2.1.78-.87,0-1.6-.28-2.19-.84-.58-.56-.88-1.28-.88-2.17,0-.95.28-1.74.84-2.39.56-.65,1.28-.97,2.16-.97,1.08,0,1.92.49,2.53,1.48s.91,2.24.91,3.76-.35,2.81-1.07,3.89c-.71,1.07-1.66,1.61-2.85,1.61-.8,0-1.49-.12-2.08-.37l.19-1.06c.67.25,1.29.37,1.86.37.81,0,1.46-.39,1.94-1.18.49-.79.73-1.76.73-2.92Zm-.03-1.03c0-.93-.19-1.74-.56-2.44-.38-.7-.87-1.05-1.48-1.05-.55,0-.99.2-1.32.61-.33.41-.49.94-.49,1.59,0,.6.17,1.09.5,1.48.33.38.77.58,1.31.58.75,0,1.4-.23,1.95-.69l.09-.07Z"/><path class="cls-17" d="m407.98,1018.58l-1.32,10.33h-1.11l-1.76-5.82-1.75,5.82h-1.14l-1.29-10.33h1.19l.87,8.4,1.52-5.08h1.2l1.53,5.1.89-8.42h1.17Z"/><path class="cls-17" d="m412.79,1021.1c1.05,0,1.88.37,2.5,1.1s.93,1.7.93,2.89-.31,2.18-.93,2.92-1.46,1.11-2.5,1.11-1.89-.37-2.51-1.1c-.62-.74-.93-1.71-.93-2.92s.31-2.17.93-2.9c.62-.73,1.46-1.09,2.5-1.09Zm0,7.02c.69,0,1.24-.29,1.64-.88s.6-1.3.6-2.13c0-.88-.2-1.6-.59-2.17s-.94-.85-1.65-.85-1.26.28-1.65.84c-.39.56-.59,1.29-.59,2.18s.2,1.56.59,2.14c.4.58.94.87,1.64.87Z"/><path class="cls-17" d="m424.87,1021.49l-.46,1.1c-.5-.22-.94-.33-1.3-.33-.34,0-.67.1-.99.29-.32.19-.62.47-.89.83-.27.36-.41.56-.41.6v4.94h-1.14v-7.63h1.14v1.55c.61-1.15,1.4-1.73,2.37-1.73.58,0,1.13.13,1.68.39Z"/><path class="cls-17" d="m434.5,1028.91h-1.5l-3.24-3.79-.75.64v3.15h-1.14v-10.33h1.14v5.92l3.58-3.22h1.46l-3.48,3.12,3.93,4.51Z"/><path class="cls-17" d="m442.87,1021.49l-.46,1.1c-.5-.22-.94-.33-1.3-.33-.34,0-.67.1-.99.29-.32.19-.62.47-.89.83-.27.36-.41.56-.41.6v4.94h-1.14v-7.63h1.14v1.55c.61-1.15,1.4-1.73,2.37-1.73.58,0,1.13.13,1.68.39Z"/><path class="cls-17" d="m448.8,1021.1c1.05,0,1.88.37,2.5,1.1s.93,1.7.93,2.89-.31,2.18-.93,2.92-1.46,1.11-2.5,1.11-1.89-.37-2.51-1.1c-.62-.74-.93-1.71-.93-2.92s.31-2.17.93-2.9c.62-.73,1.46-1.09,2.5-1.09Zm0,7.02c.69,0,1.24-.29,1.64-.88s.6-1.3.6-2.13c0-.88-.2-1.6-.59-2.17s-.94-.85-1.65-.85-1.26.28-1.65.84c-.39.56-.59,1.29-.59,2.18s.2,1.56.59,2.14c.4.58.94.87,1.64.87Z"/><path class="cls-17" d="m457.8,1021.1c1.05,0,1.88.37,2.5,1.1s.93,1.7.93,2.89-.31,2.18-.93,2.92-1.46,1.11-2.5,1.11-1.89-.37-2.51-1.1c-.62-.74-.93-1.71-.93-2.92s.31-2.17.93-2.9c.62-.73,1.46-1.09,2.5-1.09Zm0,7.02c.69,0,1.24-.29,1.64-.88s.6-1.3.6-2.13c0-.88-.2-1.6-.59-2.17s-.95-.85-1.65-.85-1.26.28-1.65.84c-.39.56-.59,1.29-.59,2.18s.2,1.56.59,2.14c.4.58.94.87,1.64.87Z"/><path class="cls-17" d="m470.36,1028.91h-1.14v-5.01c0-1.21-.22-1.82-.67-1.82-.23,0-.48.21-.76.63-.28.42-.41.65-.41.69v5.51h-1.14v-5.01c0-1.21-.23-1.82-.68-1.82-.22,0-.48.21-.75.63-.28.42-.41.65-.41.69v5.51h-1.14v-7.63h1.1v1.15c.21-.4.47-.73.77-.97.29-.24.59-.36.88-.36.31,0,.58.12.83.36.24.24.41.57.51.97.21-.4.47-.73.77-.97.3-.24.59-.36.88-.36.92,0,1.38.83,1.38,2.47v5.34Z"/><path class="cls-17" d="m374.76,1050.91h-5.43v-1.05h2.19v-8.03l-2.07,1.03v-1.2l2.23-1.15h1.03v9.35h2.04v1.05Z"/><path class="cls-17" d="m380.79,1040.38c1.09,0,1.93.47,2.52,1.41.59.94.88,2.26.88,3.96s-.29,2.95-.86,3.92c-.57.96-1.42,1.45-2.55,1.45s-1.93-.47-2.52-1.41-.89-2.26-.89-3.96.29-2.96.86-3.92c.57-.96,1.42-1.45,2.54-1.45Zm0,9.67c.72,0,1.26-.34,1.61-1.03.35-.69.52-1.78.52-3.28s-.17-2.6-.52-3.28c-.35-.68-.88-1.02-1.61-1.02s-1.25.35-1.6,1.05c-.35.7-.53,1.78-.53,3.25s.17,2.58.52,3.27c.35.69.88,1.04,1.6,1.04Zm-.03-5.4c.31,0,.57.11.78.32s.32.47.32.78-.11.59-.32.82c-.21.23-.47.34-.78.34s-.55-.11-.77-.34c-.21-.23-.32-.5-.32-.82s.1-.57.31-.78c.21-.21.46-.31.77-.31Z"/><path class="cls-17" d="m406.57,1050.91h-5.4v-10.33h5.35v1.05h-4.15v3.2h3.99v1.05h-3.99v3.99h4.2v1.05Z"/><path class="cls-17" d="m415.75,1050.91h-1.14v-4.89c0-.68-.11-1.17-.33-1.48-.22-.31-.56-.46-1.02-.46-.7,0-1.45.43-2.25,1.3v5.52h-1.14v-7.63h1.14v1.12c.82-.87,1.68-1.3,2.59-1.3,1.43,0,2.15.86,2.15,2.59v5.22Z"/><path class="cls-17" d="m424.82,1050.57c-.77.35-1.52.53-2.26.53-1.36,0-2.04-.72-2.04-2.16v-4.67h-1.46v-.99h1.46v-2.09h1.11v2.09h2.59v.99h-2.59v4.37c0,.46.1.82.31,1.08.21.26.48.38.83.38.62,0,1.24-.14,1.85-.42l.2.89Z"/><path class="cls-17" d="m433.87,1043.49l-.46,1.1c-.5-.22-.94-.33-1.3-.33-.34,0-.67.1-.99.29-.32.19-.62.47-.89.83-.27.36-.41.56-.41.6v4.94h-1.13v-7.63h1.13v1.55c.61-1.15,1.4-1.73,2.37-1.73.58,0,1.14.13,1.68.39Z"/><path class="cls-17" d="m443.1,1043.28l-2.89,7.63c-.42,1.12-.84,1.91-1.25,2.35-.41.44-.88.67-1.41.67-.47,0-.93-.09-1.39-.26l.19-.92c.37.12.7.18,1,.18.41,0,.75-.16,1.01-.48s.53-.84.8-1.56l-2.86-7.62h1.25l2.16,6.09,2.16-6.09h1.25Z"/><path class="cls-17" d="m374.76,1072.91h-5.43v-1.05h2.19v-8.03l-2.07,1.03v-1.2l2.23-1.15h1.03v9.35h2.04v1.05Z"/><path class="cls-17" d="m383.76,1072.91h-5.43v-1.05h2.19v-8.03l-2.07,1.03v-1.2l2.23-1.15h1.03v9.35h2.04v1.05Z"/><path class="cls-17" d="m407.12,1072.18c-.84.62-1.78.93-2.81.93-1.34,0-2.36-.46-3.05-1.37-.69-.91-1.04-2.24-1.04-4s.33-3.01,1.01-3.96c.67-.94,1.7-1.41,3.09-1.41.5,0,.99.06,1.48.19s.88.3,1.18.51l-.4.94c-.69-.39-1.44-.59-2.26-.59-.95,0-1.65.35-2.12,1.04-.47.69-.7,1.79-.7,3.27,0,2.87.94,4.31,2.82,4.31.71,0,1.24-.15,1.6-.45v-2.55h-1.86v-1.04h3.06v4.16Z"/><path class="cls-17" d="m415.94,1072.91h-1.14c-.09-.31-.14-.72-.14-1.23-.65.95-1.53,1.43-2.65,1.43-.57,0-1.07-.2-1.5-.6-.43-.4-.65-.92-.65-1.56,0-.38.08-.71.23-1s.37-.53.67-.73c.29-.2.65-.35,1.07-.47.42-.12.92-.19,1.49-.24l1.28-.1v-.37c0-1.31-.61-1.96-1.83-1.96-.29,0-.65.06-1.09.19-.44.12-.82.27-1.14.44l-.3-.82c1.04-.53,2.01-.8,2.9-.8,1.74,0,2.61.92,2.61,2.76v3.28c0,.66.06,1.25.19,1.77Zm-1.33-2.26v-1.38c-1.03.09-1.74.18-2.12.26-.38.08-.72.23-1,.45-.28.22-.42.52-.42.89,0,.34.12.62.36.83s.54.32.92.32c.41,0,.81-.12,1.21-.36.4-.24.75-.57,1.05-1Z"/><path class="cls-17" d="m424.87,1065.49l-.46,1.1c-.5-.22-.94-.33-1.3-.33-.34,0-.67.1-.99.29-.32.19-.62.47-.89.83-.27.36-.41.56-.41.6v4.94h-1.14v-7.63h1.14v1.55c.61-1.15,1.4-1.73,2.37-1.73.58,0,1.13.13,1.68.39Z"/><path class="cls-17" d="m433.94,1072.91h-1.14c-.09-.31-.14-.72-.14-1.23-.65.95-1.53,1.43-2.65,1.43-.57,0-1.07-.2-1.5-.6-.43-.4-.65-.92-.65-1.56,0-.38.08-.71.23-1s.37-.53.67-.73c.29-.2.65-.35,1.07-.47.42-.12.92-.19,1.49-.24l1.28-.1v-.37c0-1.31-.61-1.96-1.83-1.96-.29,0-.65.06-1.09.19-.44.12-.82.27-1.14.44l-.3-.82c1.04-.53,2.01-.8,2.9-.8,1.74,0,2.61.92,2.61,2.76v3.28c0,.66.06,1.25.19,1.77Zm-1.33-2.26v-1.38c-1.03.09-1.74.18-2.12.26-.38.08-.72.23-1,.45-.28.22-.42.52-.42.89,0,.34.12.62.36.83s.54.32.92.32c.41,0,.81-.12,1.21-.36.4-.24.75-.57,1.05-1Z"/><path class="cls-17" d="m438.99,1070.04c-.71.35-1.07.65-1.07.92,0,.14.08.26.25.36.16.1.39.15.67.15l2.57-.07c.61,0,1.08.15,1.42.45.34.3.51.72.51,1.27,0,.86-.39,1.55-1.16,2.06-.77.51-1.67.77-2.7.77-.84,0-1.54-.18-2.07-.53-.54-.35-.81-.81-.81-1.37,0-.61.42-1.12,1.25-1.54-.69-.32-1.03-.72-1.03-1.19,0-.54.44-1.04,1.33-1.5-.41-.25-.73-.57-.95-.97s-.33-.81-.33-1.25c0-.72.24-1.31.73-1.77.49-.46,1.1-.69,1.83-.69.53,0,1,.11,1.43.33l2.26-.34v1.11h-1.46c.22.39.33.84.33,1.36,0,.69-.24,1.28-.73,1.76-.48.48-1.1.72-1.84.72-.16,0-.31,0-.45-.02Zm.49,5.01c.75,0,1.39-.17,1.92-.5.53-.33.79-.75.79-1.24s-.38-.76-1.13-.76c-.25,0-.68.01-1.29.04-.39.02-.69.03-.91.03-.11,0-.27.09-.5.26-.23.18-.4.35-.52.53-.12.18-.18.36-.18.55,0,.3.17.55.5.77.33.21.77.32,1.31.32Zm-.04-5.88c.42,0,.76-.15,1.03-.44.27-.29.4-.67.4-1.14,0-.49-.13-.88-.39-1.16-.26-.28-.61-.42-1.04-.42-.41,0-.75.15-1.02.44-.28.29-.41.67-.41,1.14s.14.84.41,1.13c.28.3.62.44,1.02.44Z"/><path class="cls-17" d="m451.98,1069.14h-5.24c0,.86.25,1.58.75,2.14.5.56,1.11.84,1.84.84s1.41-.12,2.15-.37l.2.92c-.67.3-1.46.45-2.36.45-1.13,0-2.05-.36-2.74-1.09s-1.04-1.71-1.04-2.94.31-2.18.93-2.9c.62-.72,1.43-1.08,2.41-1.08.88,0,1.61.33,2.21,1s.89,1.56.89,2.67v.36Zm-1.25-.93c0-.6-.19-1.1-.56-1.51-.37-.41-.79-.61-1.25-.61-.59,0-1.08.2-1.47.59-.39.39-.6.9-.65,1.53h3.92Z"/><path class="cls-17" d="m374.76,1094.91h-5.43v-1.05h2.19v-8.03l-2.07,1.03v-1.2l2.23-1.15h1.03v9.35h2.04v1.05Z"/><path class="cls-17" d="m383.49,1094.91h-5.68v-.87c1.44-1.61,2.38-2.68,2.8-3.23s.78-1.12,1.05-1.72c.27-.6.4-1.2.4-1.79s-.17-1.03-.52-1.36c-.35-.33-.84-.5-1.47-.5-.48,0-1.13.15-1.95.45l-.17-1.03c.74-.31,1.51-.47,2.31-.47.92,0,1.67.26,2.23.78.56.52.85,1.21.85,2.08,0,.62-.15,1.24-.44,1.85-.29.61-.66,1.2-1.12,1.76s-1.34,1.57-2.65,3.02h4.35v1.05Z"/><path class="cls-17" d="m407.89,1094.91h-1.5l-3.03-4.7h-1.33v4.7h-1.2v-10.33h2.92c.98,0,1.76.24,2.33.71.57.48.85,1.14.85,1.99,0,.63-.21,1.19-.62,1.68-.42.49-.99.82-1.71,1l3.3,4.95Zm-5.87-5.74h1.52c.63,0,1.15-.17,1.55-.52.4-.34.59-.78.59-1.3,0-1.15-.7-1.73-2.11-1.73h-1.54v3.54Z"/><path class="cls-17" d="m415.74,1094.91h-1.14v-1.13c-.82.87-1.68,1.31-2.59,1.31-1.43,0-2.15-.87-2.15-2.6v-5.21h1.14v4.89c0,.65.1,1.13.31,1.45.21.32.55.48,1.04.48.7,0,1.45-.43,2.25-1.3v-5.51h1.14v7.63Z"/><path class="cls-17" d="m425.35,1094.91h-1.14v-5.01c0-1.21-.22-1.82-.67-1.82-.23,0-.48.21-.76.63-.28.42-.41.65-.41.69v5.51h-1.13v-5.01c0-1.21-.23-1.82-.68-1.82-.22,0-.47.21-.75.63-.28.42-.41.65-.41.69v5.51h-1.14v-7.63h1.1v1.15c.21-.4.47-.73.76-.97.3-.24.59-.36.88-.36.31,0,.58.12.83.36.24.24.41.57.5.97.21-.4.47-.73.77-.97.3-.24.59-.36.88-.36.92,0,1.38.83,1.38,2.47v5.34Z"/><path class="cls-17" d="m429.01,1088.27c.25-.35.6-.63,1.03-.85.43-.21.89-.32,1.37-.32.88,0,1.57.36,2.07,1.09.5.73.75,1.67.75,2.83s-.26,2.15-.79,2.93c-.53.78-1.23,1.17-2.12,1.17-.47,0-.92-.12-1.33-.35-.41-.24-.74-.55-.98-.94v4.12h-1.14v-10.65h1.14v.99Zm0,1.13v3.17c.21.43.51.79.87,1.08s.74.43,1.13.43c.62,0,1.1-.29,1.47-.86.36-.58.55-1.29.55-2.15s-.17-1.6-.52-2.15-.83-.83-1.45-.83c-.81,0-1.49.44-2.05,1.32Z"/><path class="cls-17" d="m442.74,1094.91h-1.14v-1.13c-.82.87-1.68,1.31-2.59,1.31-1.43,0-2.15-.87-2.15-2.6v-5.21h1.14v4.89c0,.65.1,1.13.31,1.45.21.32.55.48,1.04.48.7,0,1.45-.43,2.25-1.3v-5.51h1.14v7.63Z"/><path class="cls-17" d="m450.96,1088.37c-.64-.21-1.24-.31-1.81-.31-.62,0-1.11.1-1.47.31-.36.21-.54.48-.54.83,0,.22.08.41.25.58.17.16.5.32,1,.46l1.09.31c.5.14.91.31,1.23.51.32.2.55.44.71.72.16.28.24.61.24.98,0,.73-.31,1.3-.92,1.72-.61.42-1.39.63-2.33.63s-1.71-.14-2.32-.42l.22-.99c.64.3,1.33.45,2.06.45.63,0,1.15-.12,1.55-.36.4-.24.6-.55.6-.94,0-.26-.1-.5-.3-.71-.2-.21-.66-.42-1.4-.65-.59-.18-1.03-.32-1.3-.41-.28-.09-.54-.22-.78-.4s-.42-.39-.54-.63c-.12-.24-.19-.52-.19-.82,0-.66.29-1.18.86-1.57s1.34-.58,2.29-.58c.62,0,1.3.1,2.05.31l-.26.96Z"/><path class="cls-17" d="m546.17,1028.91h-5.43v-1.05h2.19v-8.03l-2.07,1.03v-1.2l2.23-1.15h1.03v9.35h2.04v1.05Z"/><path class="cls-17" d="m552.86,1023.36c.63.18,1.13.5,1.52.96.38.47.57.99.57,1.57,0,.91-.35,1.67-1.06,2.29-.71.62-1.54.93-2.5.93-.82,0-1.56-.18-2.21-.54l.23-.99c.68.32,1.35.48,2.01.48.62,0,1.16-.19,1.6-.58.44-.39.66-.89.66-1.5s-.24-1.09-.71-1.46c-.47-.38-1.1-.56-1.88-.56h-.31v-.99h.09c.75,0,1.37-.18,1.86-.53.49-.35.73-.83.73-1.43,0-.49-.18-.87-.53-1.15-.35-.28-.83-.41-1.45-.41-.53,0-1.13.14-1.79.43l-.16-1.03c.66-.3,1.33-.45,2.01-.45.92,0,1.68.24,2.28.73.6.49.9,1.11.9,1.87,0,.53-.18,1.02-.55,1.48-.36.46-.8.74-1.31.86v.04Z"/><path class="cls-17" d="m579,1019.55h-3.19v9.36h-1.19v-9.36h-3.2v-.97h7.58v.97Z"/><path class="cls-17" d="m587.39,1025.14h-5.24c0,.86.25,1.58.75,2.14.5.56,1.11.84,1.84.84s1.41-.12,2.15-.37l.2.92c-.67.3-1.46.45-2.36.45-1.13,0-2.05-.36-2.74-1.09s-1.04-1.71-1.04-2.94.31-2.18.93-2.9c.62-.72,1.43-1.08,2.41-1.08.88,0,1.61.33,2.2,1s.89,1.56.89,2.67v.36Zm-1.25-.93c0-.6-.19-1.1-.56-1.51-.37-.41-.79-.61-1.25-.61-.59,0-1.08.2-1.47.59-.39.39-.6.9-.65,1.53h3.92Z"/><path class="cls-17" d="m596.28,1021.49l-.46,1.1c-.5-.22-.94-.33-1.3-.33-.34,0-.67.1-.99.29-.32.19-.62.47-.89.83-.27.36-.41.56-.41.6v4.94h-1.13v-7.63h1.13v1.55c.61-1.15,1.4-1.73,2.37-1.73.58,0,1.14.13,1.68.39Z"/><path class="cls-17" d="m605.28,1021.49l-.46,1.1c-.5-.22-.94-.33-1.3-.33-.34,0-.67.1-.99.29-.32.19-.62.47-.89.83-.27.36-.41.56-.41.6v4.94h-1.14v-7.63h1.14v1.55c.61-1.15,1.4-1.73,2.37-1.73.58,0,1.13.13,1.68.39Z"/><path class="cls-17" d="m614.36,1028.91h-1.14c-.09-.31-.14-.72-.14-1.23-.65.95-1.53,1.43-2.65,1.43-.57,0-1.07-.2-1.5-.6-.43-.4-.65-.92-.65-1.56,0-.38.08-.71.23-1s.37-.53.67-.73c.29-.2.65-.35,1.07-.47.42-.12.92-.19,1.49-.24l1.28-.1v-.37c0-1.31-.61-1.96-1.83-1.96-.29,0-.65.06-1.09.19-.44.12-.82.27-1.14.44l-.3-.82c1.04-.53,2.01-.8,2.9-.8,1.74,0,2.61.92,2.61,2.76v3.28c0,.66.06,1.25.19,1.77Zm-1.33-2.26v-1.38c-1.03.09-1.74.18-2.12.26-.38.08-.72.23-1,.45-.28.22-.42.52-.42.89,0,.34.12.62.36.83s.54.32.92.32c.41,0,.81-.12,1.21-.36.4-.24.75-.57,1.05-1Z"/><path class="cls-17" d="m623.14,1028.66c-.66.3-1.39.45-2.19.45-1.2,0-2.16-.36-2.88-1.09-.72-.73-1.07-1.7-1.07-2.91s.36-2.18,1.08-2.91c.72-.73,1.67-1.09,2.84-1.09.77,0,1.5.13,2.19.4l-.3.95c-.69-.24-1.32-.36-1.88-.36-.84,0-1.51.27-2,.81-.49.54-.74,1.28-.74,2.21,0,.85.25,1.56.76,2.14.51.58,1.17.87,1.99.87.64,0,1.31-.12,1.99-.37l.2.92Z"/><path class="cls-17" d="m632.4,1025.14h-5.24c0,.86.25,1.58.75,2.14.5.56,1.11.84,1.84.84s1.41-.12,2.15-.37l.2.92c-.67.3-1.46.45-2.36.45-1.13,0-2.05-.36-2.74-1.09s-1.04-1.71-1.04-2.94.31-2.18.93-2.9c.62-.72,1.43-1.08,2.41-1.08.88,0,1.61.33,2.21,1s.89,1.56.89,2.67v.36Zm-1.25-.93c0-.6-.19-1.1-.56-1.51-.37-.41-.79-.61-1.25-.61-.59,0-1.08.2-1.47.59-.39.39-.6.9-.65,1.53h3.92Z"/><path class="cls-17" d="m588.59,572.57c.64-.52,1.34-.78,2.1-.78.87,0,1.6.28,2.19.84.58.56.88,1.28.88,2.16,0,.97-.26,1.78-.78,2.41-.52.63-1.21.95-2.07.95-1.1,0-1.98-.51-2.62-1.52-.64-1.01-.97-2.25-.97-3.72,0-1.56.34-2.87,1.01-3.92.67-1.05,1.59-1.58,2.76-1.58.81,0,1.5.12,2.09.36l-.19,1.07c-.68-.25-1.3-.37-1.86-.37-.8,0-1.42.38-1.86,1.14-.45.76-.67,1.75-.67,2.95Zm.04,1.03c0,.88.21,1.69.62,2.41.42.72.94,1.08,1.57,1.08.53,0,.94-.19,1.23-.59.29-.39.43-.93.43-1.62,0-.63-.16-1.14-.48-1.5-.32-.37-.76-.55-1.34-.55-.75,0-1.43.25-2.04.76Z"/><path class="cls-17" d="m588.59,658.78c.64-.52,1.34-.78,2.1-.78.87,0,1.6.28,2.19.84.58.56.88,1.28.88,2.16,0,.97-.26,1.78-.78,2.41-.52.63-1.21.95-2.07.95-1.1,0-1.98-.51-2.62-1.52-.64-1.01-.97-2.25-.97-3.72,0-1.56.34-2.87,1.01-3.92.67-1.05,1.59-1.58,2.76-1.58.81,0,1.5.12,2.09.36l-.19,1.07c-.68-.25-1.3-.37-1.86-.37-.8,0-1.42.38-1.86,1.14-.45.76-.67,1.75-.67,2.95Zm.04,1.03c0,.88.21,1.69.62,2.41.42.72.94,1.08,1.57,1.08.53,0,.94-.19,1.23-.59.29-.39.43-.93.43-1.62,0-.63-.16-1.14-.48-1.5-.32-.37-.76-.55-1.34-.55-.75,0-1.43.25-2.04.76Z"/><path class="cls-17" d="m257.19,657.99c.33-.09.66-.13.97-.13.98,0,1.75.3,2.31.9.57.6.85,1.34.85,2.24,0,.94-.33,1.73-.99,2.38-.66.65-1.46.98-2.41.98s-1.66-.15-2.27-.45l.24-1.02c.66.28,1.35.42,2.06.42.63,0,1.14-.2,1.53-.61.39-.41.58-.97.58-1.7,0-.69-.18-1.22-.55-1.59-.37-.37-.84-.56-1.41-.56-.42,0-.83.08-1.24.24l-.72-.33v-4.94h4.72v1.05h-3.68v3.12Z"/><path class="cls-17" d="m245.96,754.32h-5.43v-1.05h2.19v-8.03l-2.06,1.03v-1.2l2.23-1.15h1.03v9.35h2.04v1.05Z"/><path class="cls-17" d="m252.65,748.77c.63.18,1.14.5,1.52.96.38.47.57.99.57,1.57,0,.91-.35,1.67-1.06,2.29-.71.62-1.54.93-2.5.93-.82,0-1.56-.18-2.21-.54l.23-.99c.68.32,1.35.48,2.01.48.62,0,1.16-.19,1.6-.58.44-.39.66-.89.66-1.5s-.24-1.09-.71-1.46c-.47-.38-1.1-.56-1.88-.56h-.32v-.99h.09c.75,0,1.37-.18,1.86-.53.49-.35.73-.83.73-1.43,0-.49-.18-.87-.53-1.15-.35-.28-.83-.41-1.45-.41-.53,0-1.13.14-1.79.43l-.16-1.03c.66-.3,1.33-.45,2.01-.45.92,0,1.68.24,2.28.73.6.49.9,1.11.9,1.87,0,.53-.18,1.02-.55,1.48-.36.46-.8.74-1.31.86v.04Z"/><path class="cls-17" d="m261.6,559.56l-4.09,9.48h-1.23l4.04-9.29h-4.84v-1.05h6.13v.86Z"/><path class="cls-17" d="m181.36,608.24c.64-.52,1.34-.78,2.1-.78.87,0,1.6.28,2.19.84.58.56.88,1.28.88,2.16,0,.97-.26,1.78-.78,2.41-.52.63-1.21.95-2.07.95-1.1,0-1.98-.51-2.62-1.52-.64-1.01-.97-2.25-.97-3.72,0-1.56.34-2.87,1.01-3.92.67-1.05,1.59-1.58,2.76-1.58.81,0,1.5.12,2.09.36l-.19,1.07c-.68-.25-1.3-.37-1.86-.37-.8,0-1.42.38-1.86,1.14-.45.76-.67,1.75-.67,2.95Zm.04,1.03c0,.88.21,1.69.62,2.41.42.72.94,1.08,1.57,1.08.53,0,.94-.19,1.23-.59.29-.39.43-.93.43-1.62,0-.63-.16-1.14-.48-1.5-.32-.37-.76-.55-1.34-.55-.75,0-1.43.25-2.04.76Z"/><path class="cls-17" d="m403.61,631.46h-5.43v-1.05h2.19v-8.03l-2.06,1.03v-1.2l2.23-1.15h1.03v9.35h2.04v1.05Z"/><path class="cls-17" d="m412.34,631.46h-5.68v-.87c1.44-1.61,2.38-2.68,2.8-3.23s.78-1.12,1.05-1.72c.27-.6.4-1.2.4-1.79s-.17-1.03-.52-1.36c-.35-.33-.84-.5-1.47-.5-.48,0-1.13.15-1.95.45l-.17-1.03c.74-.31,1.51-.47,2.31-.47.92,0,1.67.26,2.23.78.56.52.85,1.21.85,2.08,0,.62-.15,1.24-.44,1.85-.29.61-.66,1.2-1.12,1.76-.46.56-1.34,1.57-2.65,3.02h4.35v1.05Z"/></g></svg>