<?xml version="1.0" encoding="UTF-8"?>
<svg id="Layer_1" xmlns="http://www.w3.org/2000/svg" version="1.1" viewBox="0 0 800 1120">
  <!-- Generator: Adobe Illustrator 29.3.0, SVG Export Plug-In . SVG Version: 2.1.0 Build 146)  -->
  <defs>
    <style>
      .st0 {
        stroke-width: .8px;
      }

      .st0, .st1, .st2, .st3, .st4 {
        fill: none;
        stroke: #231f20;
        stroke-linecap: round;
        stroke-linejoin: round;
      }

      .st1 {
        stroke-width: 1.2px;
      }

      .st2 {
        stroke-width: .3px;
      }

      .st3 {
        stroke-width: .4px;
      }

      .st4 {
        stroke-dasharray: 0 2;
        stroke-width: .2px;
      }
    </style>
  </defs>
  <g id="Below">
    <line class="st4" x1="341.6" y1="189.5" x2="457.5" y2="189.5"/>
    <line class="st4" x1="463.6" y1="189.5" x2="664.2" y2="189.5"/>
    <line class="st4" x1="135.3" y1="189.5" x2="276.2" y2="189.5"/>
    <path class="st4" d="M457.5,192.6h-115.8"/>
    <line class="st4" x1="363.9" y1="803.8" x2="448.4" y2="803.8"/>
    <line class="st4" x1="363.9" y1="702.1" x2="448.4" y2="702.1"/>
    <path class="st4" d="M448.4,806.9h-84.5"/>
    <line class="st4" x1="670.9" y1="415.2" x2="670.9" y2="534"/>
    <path class="st4" d="M667.8,533.9v-118.7"/>
    <line class="st4" x1="132.6" y1="415.2" x2="132.6" y2="534"/>
    <path class="st4" d="M129.5,533.9v-118.7"/>
  </g>
  <g id="Wall">
    <path class="st1" d="M551.8,806.7v-6.3"/>
    <path class="st1" d="M335.8,312h-144"/>
    <path class="st1" d="M135.4,312h53.2"/>
    <path class="st1" d="M135.4,312h0"/>
    <path class="st1" d="M457.9,294.8v120.5"/>
    <path class="st1" d="M464.2,294.8h-6.3"/>
    <path class="st1" d="M464.2,415.3v-120.5"/>
    <path class="st1" d="M457.9,415.3h6.3"/>
    <path class="st1" d="M464.2,257.2h-6.3"/>
    <path class="st1" d="M464.2,189.9v67.3"/>
    <line class="st1" x1="457.9" y1="189.9" x2="457.9" y2="257.2"/>
    <path class="st1" d="M335.8,294.8h6.3"/>
    <path class="st1" d="M335.8,308.9v-14.1"/>
    <line class="st1" x1="342.1" y1="415.3" x2="342.1" y2="294.8"/>
    <line class="st1" x1="342.1" y1="257.2" x2="342.1" y2="189.9"/>
    <path class="st1" d="M335.8,257.2h6.3"/>
    <path class="st1" d="M335.8,196.1v61"/>
    <path class="st1" d="M282.6,196.1h53.2"/>
    <path class="st1" d="M282.6,211v-14.9"/>
    <path class="st1" d="M276.3,211h6.3"/>
    <path class="st1" d="M276.3,189.9v21.1"/>
    <path class="st1" d="M342.1,189.9h-65.7"/>
    <path class="st1" d="M514.3,694h-3.1"/>
    <path class="st1" d="M514.3,725.3v-31.3"/>
    <path class="st1" d="M558.1,725.3h-43.8"/>
    <path class="st1" d="M670.8,725.3h-109.6"/>
    <polyline class="st1" points="511.1 694 511.1 728.4 664.6 728.4"/>
    <line class="st1" x1="285.7" y1="600" x2="285.7" y2="618.8"/>
    <line class="st1" x1="243.5" y1="618.8" x2="285.7" y2="618.8"/>
    <line class="st1" x1="285.7" y1="600" x2="288.9" y2="600"/>
    <path class="st1" d="M514.3,540.6h87.7"/>
    <path class="st1" d="M514.3,622.1v-81.5"/>
    <path class="st1" d="M511.1,622.1h3.1"/>
    <path class="st1" d="M511.1,540.6v81.5"/>
    <path class="st1" d="M511.1,534.3v6.3"/>
    <path class="st1" d="M601.9,534.3h-90.8"/>
    <line class="st1" x1="664.6" y1="534.3" x2="670.8" y2="534.3"/>
    <line class="st1" x1="664.6" y1="534.3" x2="670.8" y2="534.3"/>
    <line class="st1" x1="601.9" y1="534.3" x2="601.9" y2="540.6"/>
    <path class="st1" d="M342.1,618.8v3.1"/>
    <path class="st1" d="M364,618.8h-21.9"/>
    <path class="st1" d="M364,659.6v-40.8"/>
    <path class="st1" d="M400,659.6h-36"/>
    <path class="st1" d="M364,662.7h36"/>
    <path class="st1" d="M364,806.7v-144"/>
    <path class="st1" d="M357.7,806.7h6.3"/>
    <path class="st1" d="M357.7,622v39.1"/>
    <path class="st1" d="M342.1,622h15.6"/>
    <path class="st1" d="M288.9,618.8h21.9"/>
    <path class="st1" d="M288.9,600v18.8"/>
    <path class="st1" d="M357.7,661.1v145.6"/>
    <line class="st1" x1="511.1" y1="415.3" x2="631.7" y2="415.3"/>
    <line class="st1" x1="511.1" y1="409" x2="631.7" y2="409.1"/>
    <line class="st1" x1="631.7" y1="415.3" x2="631.7" y2="409.1"/>
    <path class="st1" d="M454.8,622.1h18.8"/>
    <path class="st1" d="M454.8,725.3v-62.6"/>
    <polyline class="st1" points="454.8 728.4 473.5 728.4 473.5 725.3 454.8 725.3"/>
    <line class="st1" x1="400" y1="659.6" x2="400" y2="662.7"/>
    <line class="st1" x1="241.9" y1="415.3" x2="289.4" y2="415.3"/>
    <line class="st1" x1="241.9" y1="408.9" x2="289.4" y2="408.9"/>
    <line class="st1" x1="289.4" y1="415.3" x2="289.4" y2="408.9"/>
    <line class="st1" x1="135.4" y1="312" x2="135.4" y2="330.8"/>
    <line class="st1" x1="135.4" y1="189.9" x2="135.4" y2="308.9"/>
    <path class="st1" d="M191.8,415.3v-6.3"/>
    <path class="st1" d="M129.1,415.3h62.6"/>
    <path class="st1" d="M335.8,415.3v-103.3"/>
    <path class="st1" d="M342.1,415.3h-6.3"/>
    <polyline class="st1" points="135.4 308.9 135.4 308.9 335.8 308.9"/>
    <line class="st1" x1="129.1" y1="409.2" x2="129.1" y2="415.3"/>
    <line class="st1" x1="129.1" y1="189.9" x2="129.1" y2="330.8"/>
    <line class="st1" x1="135.4" y1="330.8" x2="129.1" y2="330.8"/>
    <line class="st1" x1="241.9" y1="408.9" x2="241.9" y2="415.3"/>
    <line class="st1" x1="129.1" y1="189.9" x2="135.4" y2="189.9"/>
    <line class="st1" x1="511.1" y1="415.3" x2="511.1" y2="409.1"/>
    <path class="st1" d="M153.5,764.2c0,0,.1,0,.2.2"/>
    <line class="st1" x1="464.2" y1="534.3" x2="464.2" y2="537.4"/>
    <line class="st1" x1="445.2" y1="537.4" x2="445.2" y2="575"/>
    <line class="st1" x1="420.3" y1="537.4" x2="420.3" y2="575"/>
    <line class="st1" x1="335.8" y1="537.4" x2="335.7" y2="534.3"/>
    <line class="st1" x1="445.2" y1="537.4" x2="464.2" y2="537.4"/>
    <line class="st1" x1="335.8" y1="537.4" x2="420.3" y2="537.4"/>
    <line class="st1" x1="464.1" y1="575" x2="464.1" y2="578.1"/>
    <line class="st1" x1="445.2" y1="575" x2="464.1" y2="575"/>
    <line class="st1" x1="335.8" y1="578.1" x2="464.2" y2="578.1"/>
    <line class="st1" x1="335.8" y1="578.1" x2="335.8" y2="575"/>
    <line class="st1" x1="335.8" y1="575" x2="420.3" y2="575"/>
    <line class="st1" x1="129.1" y1="562.5" x2="129.1" y2="534.3"/>
    <line class="st1" x1="135.4" y1="562.5" x2="135.4" y2="534.3"/>
    <line class="st1" x1="135.4" y1="562.5" x2="129.1" y2="562.5"/>
    <line class="st1" x1="129.1" y1="600" x2="129.1" y2="806.7"/>
    <line class="st1" x1="135.4" y1="600" x2="129.1" y2="600"/>
    <line class="st1" x1="335.7" y1="534.3" x2="464.2" y2="534.3"/>
    <line class="st1" x1="670.8" y1="189.9" x2="664.5" y2="189.9"/>
    <line class="st1" x1="664.5" y1="409.1" x2="664.5" y2="189.9"/>
    <line class="st1" x1="670.8" y1="415.3" x2="670.8" y2="189.9"/>
    <line class="st1" x1="464.2" y1="189.9" x2="457.9" y2="189.9"/>
    <line class="st1" x1="664.5" y1="415.3" x2="670.8" y2="415.3"/>
    <line class="st1" x1="664.5" y1="409.1" x2="664.5" y2="415.3"/>
    <line class="st1" x1="129.1" y1="806.7" x2="135.4" y2="806.7"/>
    <line class="st1" x1="135.4" y1="534.3" x2="129.1" y2="534.3"/>
    <path class="st1" d="M135.4,806.7v-184.7"/>
    <line class="st1" x1="664.6" y1="662.7" x2="670.8" y2="662.7"/>
    <path class="st1" d="M135.4,618.7v-18.7"/>
    <path class="st1" d="M240.3,618.8c-35,0-69.9,0-104.9,0"/>
    <path class="st1" d="M310.8,622v-3.1"/>
    <path class="st1" d="M285.7,622h25"/>
    <path class="st1" d="M245,622h40.7"/>
    <path class="st1" d="M135.4,622h109.6"/>
    <path class="st1" d="M243.5,600h-3.1"/>
    <path class="st1" d="M243.5,618.8v-18.8"/>
    <path class="st1" d="M240.3,618.8v-18.8"/>
    <path class="st1" d="M240.3,562.5v-28.2"/>
    <path class="st1" d="M243.5,562.5h-3.1"/>
    <path class="st1" d="M243.5,540.6v21.9"/>
    <path class="st1" d="M289.2,534.3h-48.9"/>
    <path class="st1" d="M289.4,562.5v-28.2"/>
    <path class="st1" d="M285.7,562.5h3.5"/>
    <path class="st1" d="M285.7,540.6v21.9"/>
    <line class="st1" x1="285.7" y1="540.6" x2="243.5" y2="540.6"/>
    <path class="st1" d="M670.8,725.3v81.4"/>
    <path class="st1" d="M670.8,534.3v128.4"/>
    <path class="st1" d="M664.6,662.7v-128.4"/>
    <path class="st1" d="M664.6,800.4v-72"/>
    <polyline class="st1" points="664.6 800.4 645.8 800.4 645.8 806.7"/>
    <line class="st1" x1="670.8" y1="806.7" x2="645.8" y2="806.7"/>
    <line class="st1" x1="454.8" y1="784.8" x2="454.8" y2="728.4"/>
    <path class="st1" d="M448.5,662.7c0,29.7,0,77.7,0,144"/>
    <path class="st1" d="M448.5,659.6h-9.4v3.1h9.4"/>
    <path class="st1" d="M448.5,618.8v40.8"/>
    <path class="st1" d="M473.5,618.8h-25"/>
    <path class="st1" d="M473.5,622.1v-3.3"/>
    <line class="st1" x1="454.8" y1="784.8" x2="454.8" y2="800.5"/>
    <polyline class="st1" points="561.2 662.7 633.2 662.7 633.2 659.6 511.1 659.6 511.1 662.7 558.1 662.7"/>
    <line class="st1" x1="561.2" y1="725.3" x2="561.2" y2="662.7"/>
    <line class="st1" x1="558.1" y1="725.3" x2="558.1" y2="662.7"/>
    <line class="st1" x1="454.8" y1="659.6" x2="454.8" y2="622.1"/>
    <polyline class="st1" points="454.8 662.7 473.5 662.7 473.5 659.6 454.8 659.6"/>
    <polyline class="st1" points="188.6 409 135.4 409 135.4 368.4 129.1 368.4 129.1 409.2"/>
    <polyline class="st1" points="191.8 409 191.8 368.4 188.6 368.4 188.6 409"/>
    <polyline class="st1" points="191.8 312 191.8 330.8 188.6 330.8 188.6 312"/>
    <path class="st1" d="M551.8,800.4c-32.3,0-64.7,0-97,0"/>
    <path class="st1" d="M448.5,806.7h103.3"/>
  </g>
  <g id="Window_Door_Stairs">
    <line class="st2" x1="129.1" y1="330.8" x2="129.1" y2="368.4"/>
    <line class="st2" x1="240.3" y1="540.6" x2="135.4" y2="540.6"/>
    <line class="st2" x1="664.6" y1="662.7" x2="664.6" y2="725.3"/>
    <line class="st2" x1="670.8" y1="662.7" x2="670.8" y2="725.3"/>
    <line class="st2" x1="601.9" y1="559.3" x2="664.6" y2="559.3"/>
    <line class="st2" x1="601.9" y1="540.6" x2="664.6" y2="540.6"/>
    <line class="st2" x1="601.9" y1="534.3" x2="664.6" y2="534.3"/>
    <line class="st2" x1="135.4" y1="562.5" x2="135.4" y2="600"/>
    <line class="st2" x1="400" y1="659.6" x2="439.1" y2="659.6"/>
    <line class="st2" x1="551.8" y1="806.7" x2="645.8" y2="806.7"/>
    <line class="st2" x1="551.8" y1="800.4" x2="645.8" y2="800.4"/>
    <line class="st2" x1="342.1" y1="257.2" x2="457.9" y2="257.2"/>
    <line class="st2" x1="342.1" y1="250.9" x2="457.9" y2="250.9"/>
    <line class="st2" x1="135.4" y1="806.7" x2="342.1" y2="806.7"/>
    <line class="st2" x1="631.7" y1="409.1" x2="664.5" y2="409.1"/>
    <line class="st2" x1="631.7" y1="415.3" x2="664.5" y2="415.3"/>
    <line class="st2" x1="129.1" y1="562.5" x2="129.1" y2="600"/>
    <line class="st2" x1="400" y1="662.7" x2="439.1" y2="662.7"/>
    <line class="st2" x1="191.8" y1="409" x2="241.9" y2="409"/>
    <line class="st2" x1="191.8" y1="415.3" x2="241.9" y2="415.3"/>
    <line class="st2" x1="135.4" y1="368.4" x2="135.4" y2="330.8"/>
    <line class="st2" x1="276.3" y1="207.1" x2="135.4" y2="207.1"/>
    <line class="st2" x1="276.3" y1="211.8" x2="135.4" y2="211.8"/>
    <line class="st2" x1="397.2" y1="537.4" x2="397.2" y2="575"/>
    <line class="st2" x1="388.4" y1="537.4" x2="388.4" y2="575"/>
    <line class="st2" x1="414.7" y1="537.4" x2="414.7" y2="575"/>
    <line class="st2" x1="405.9" y1="537.4" x2="405.9" y2="575"/>
    <line class="st2" x1="379.6" y1="537.4" x2="379.6" y2="575"/>
    <line class="st2" x1="370.9" y1="537.4" x2="370.9" y2="575"/>
    <line class="st2" x1="362.1" y1="537.4" x2="362.1" y2="575"/>
    <line class="st2" x1="353.3" y1="537.4" x2="353.3" y2="575"/>
    <line class="st2" x1="344.6" y1="537.4" x2="344.6" y2="575"/>
    <line class="st2" x1="335.8" y1="537.4" x2="335.8" y2="575"/>
    <line class="st2" x1="464.2" y1="207.1" x2="664.5" y2="207.1"/>
    <line class="st2" x1="464.2" y1="211.8" x2="664.5" y2="211.8"/>
    <line class="st2" x1="327" y1="537.4" x2="327" y2="575"/>
    <line class="st2" x1="335.8" y1="575" x2="327" y2="575"/>
    <line class="st2" x1="335.8" y1="537.4" x2="327" y2="537.4"/>
    <line class="st2" x1="283.2" y1="534.3" x2="283.2" y2="415.3"/>
    <line class="st2" x1="289.4" y1="534.3" x2="289.4" y2="415.3"/>
    <line class="st2" x1="517.4" y1="534.3" x2="517.4" y2="415.3"/>
    <line class="st2" x1="511.1" y1="534.3" x2="511.1" y2="415.3"/>
    <line class="st2" x1="240.3" y1="534.3" x2="135.4" y2="534.3"/>
  </g>
  <g id="Accessory">
    <polyline class="st3" points="511.1 728.4 511.1 737.8 664.6 737.8"/>
    <polyline class="st3" points="473.5 728.4 473.5 737.8 454.8 737.8"/>
    <line class="st3" x1="342.1" y1="806.7" x2="357.7" y2="806.7"/>
    <line class="st3" x1="188.6" y1="330.8" x2="135.4" y2="330.8"/>
    <line class="st3" x1="473.5" y1="725.3" x2="473.5" y2="662.7"/>
    <polyline class="st3" points="601.9 540.6 601.9 559.3 514.3 559.3"/>
    <line class="st3" x1="240.3" y1="600" x2="135.4" y2="600"/>
    <line class="st3" x1="135.4" y1="562.5" x2="240.3" y2="562.5"/>
    <line class="st3" x1="664.6" y1="784.8" x2="454.8" y2="784.8"/>
    <line class="st3" x1="335.7" y1="513.9" x2="335.7" y2="534.3"/>
    <line class="st3" x1="464.2" y1="513.9" x2="464.2" y2="534.3"/>
    <line class="st3" x1="335.7" y1="513.9" x2="464.2" y2="513.9"/>
    <rect class="st3" x="335.8" y="451.3" width="128.3" height="25"/>
    <line class="st3" x1="464" y1="537.4" x2="464" y2="575"/>
    <line class="st3" x1="664.5" y1="393.4" x2="511.1" y2="393.4"/>
    <line class="st3" x1="511.1" y1="409.1" x2="511.1" y2="393.4"/>
    <line class="st3" x1="335.8" y1="294.8" x2="135.4" y2="294.8"/>
    <line class="st3" x1="335.8" y1="330.8" x2="191.8" y2="330.8"/>
    <line class="st3" x1="342.1" y1="806.7" x2="342.1" y2="622"/>
    <line class="st3" x1="282.6" y1="211" x2="335.8" y2="211"/>
    <polyline class="st3" points="364 618.8 379.6 618.8 379.6 659.6"/>
  </g>
  <g id="TEXT">
    <circle class="st0" cx="765.5" cy="1024" r="11.4"/>
    <line class="st0" x1="765.5" y1="1012.6" x2="765.5" y2="1024"/>
    <path d="M402.9,503.4h-5.4v-1h2.2v-8l-2.1,1v-1.2l2.2-1.1h1v9.4h2v1h0Z"/>
    <path d="M570.2,311.6h-5.7v-.9c1.4-1.6,2.4-2.7,2.8-3.2s.8-1.1,1-1.7c.3-.6.4-1.2.4-1.8s-.2-1-.5-1.4c-.3-.3-.8-.5-1.5-.5s-1.1.1-2,.5l-.2-1c.7-.3,1.5-.5,2.3-.5s1.7.3,2.2.8.8,1.2.8,2.1-.2,1.2-.4,1.9c-.3.6-.7,1.2-1.1,1.8s-1.3,1.6-2.7,3h4.3v1h0Z"/>
    <path d="M399,347.5c.6.2,1.1.5,1.5,1,.4.5.6,1,.6,1.6,0,.9-.4,1.7-1.1,2.3s-1.5.9-2.5.9-1.6-.2-2.2-.5l.2-1c.7.3,1.4.5,2,.5s1.2-.2,1.6-.6c.4-.4.7-.9.7-1.5s-.2-1.1-.7-1.5c-.5-.4-1.1-.6-1.9-.6h-.3v-1h0c.8,0,1.4-.2,1.9-.5s.7-.8.7-1.4-.2-.9-.5-1.1-.8-.4-1.5-.4-1.1.1-1.8.4l-.2-1c.7-.3,1.3-.5,2-.5s1.7.2,2.3.7c.6.5.9,1.1.9,1.9s-.2,1-.5,1.5c-.4.5-.8.7-1.3.9h0s0,0,0,0Z"/>
    <path d="M191.2,586.2h-1.3v2.4h-1.2v-2.4h-4.5v-.9l4.1-7h1.6v6.9h1.3v1ZM188.8,585.2v-5.7l-3.3,5.7h3.3Z"/>
    <path d="M262.5,582.5c.3,0,.7-.1,1-.1,1,0,1.8.3,2.3.9.6.6.9,1.3.9,2.2s-.3,1.7-1,2.4-1.5,1-2.4,1-1.7-.2-2.3-.5l.2-1c.7.3,1.4.4,2.1.4s1.1-.2,1.5-.6c.4-.4.6-1,.6-1.7s-.2-1.2-.5-1.6c-.4-.4-.8-.6-1.4-.6s-.8,0-1.2.2l-.7-.3v-4.9h4.7v1h-3.7v3.1h0Z"/>
    <path d="M534.8,693.7c.3,0,.7-.1,1-.1,1,0,1.8.3,2.3.9.6.6.8,1.3.8,2.2s-.3,1.7-1,2.4-1.5,1-2.4,1-1.7-.2-2.3-.5l.2-1c.7.3,1.3.4,2.1.4s1.1-.2,1.5-.6.6-1,.6-1.7-.2-1.2-.5-1.6c-.4-.4-.8-.6-1.4-.6s-.8,0-1.2.2l-.7-.3v-4.9h4.7v1h-3.7v3.1h0Z"/>
    <path d="M590.7,613c.6-.5,1.3-.8,2.1-.8s1.6.3,2.2.8c.6.6.9,1.3.9,2.2s-.3,1.8-.8,2.4c-.5.6-1.2,1-2.1,1s-2-.5-2.6-1.5-1-2.2-1-3.7.3-2.9,1-3.9,1.6-1.6,2.8-1.6,1.5.1,2.1.4l-.2,1.1c-.7-.2-1.3-.4-1.9-.4-.8,0-1.4.4-1.9,1.1-.5.8-.7,1.8-.7,3h0ZM590.7,614.1c0,.9.2,1.7.6,2.4.4.7.9,1.1,1.6,1.1s.9-.2,1.2-.6c.3-.4.4-.9.4-1.6s-.2-1.1-.5-1.5c-.3-.4-.8-.5-1.3-.5s-1.4.2-2,.8h0Z"/>
    <path d="M265.1,368.8c.6-.5,1.4-.8,2.1-.8s1.6.3,2.2.8c.6.6.9,1.3.9,2.2s-.3,1.8-.8,2.4-1.2,1-2.1,1-2-.5-2.6-1.5c-.6-1-1-2.2-1-3.7s.3-2.9,1-3.9,1.6-1.6,2.8-1.6,1.5.1,2.1.4l-.2,1.1c-.7-.2-1.3-.4-1.9-.4-.8,0-1.4.4-1.9,1.1s-.7,1.8-.7,3h0ZM265.1,369.9c0,.9.2,1.7.6,2.4.4.7.9,1.1,1.6,1.1s.9-.2,1.2-.6c.3-.4.4-.9.4-1.6s-.2-1.1-.5-1.5c-.3-.4-.8-.5-1.3-.5s-1.4.2-2,.8h0Z"/>
    <path d="M165.1,364.7l-4.1,9.5h-1.2l4-9.3h-4.8v-1h6.1v.9h0Z"/>
    <path d="M237.6,255c-.6.5-1.3.8-2.1.8s-1.6-.3-2.2-.8c-.6-.6-.9-1.3-.9-2.2s.3-1.7.8-2.4,1.3-1,2.2-1,1.9.5,2.5,1.5.9,2.2.9,3.8-.4,2.8-1.1,3.9c-.7,1.1-1.7,1.6-2.9,1.6s-1.5-.1-2.1-.4l.2-1.1c.7.2,1.3.4,1.9.4.8,0,1.5-.4,1.9-1.2s.7-1.8.7-2.9h0ZM237.5,253.9c0-.9-.2-1.7-.6-2.4-.4-.7-.9-1.1-1.5-1.1s-1,.2-1.3.6-.5.9-.5,1.6.2,1.1.5,1.5c.3.4.8.6,1.3.6s1.4-.2,1.9-.7h.1c0,0,0,0,0,0Z"/>
    <path d="M410.2,625.3h-5.4v-1h2.2v-8l-2.1,1v-1.2l2.2-1.2h1v9.3h2v1h0Z"/>
    <path d="M416.2,614.8c1.1,0,1.9.5,2.5,1.4s.9,2.3.9,4-.3,3-.9,3.9c-.6,1-1.4,1.5-2.5,1.5s-1.9-.5-2.5-1.4-.9-2.3-.9-4,.3-3,.9-3.9c.6-1,1.4-1.5,2.5-1.5h0ZM416.2,624.5c.7,0,1.3-.3,1.6-1,.4-.7.5-1.8.5-3.3s-.2-2.6-.5-3.3c-.4-.7-.9-1-1.6-1s-1.2.3-1.6,1-.5,1.8-.5,3.2.2,2.6.5,3.3c.4.7.9,1,1.6,1h0ZM416.2,619.1c.3,0,.6.1.8.3s.3.5.3.8-.1.6-.3.8c-.2.2-.5.3-.8.3s-.5-.1-.8-.3c-.2-.2-.3-.5-.3-.8s.1-.6.3-.8.5-.3.8-.3h0Z"/>
    <path d="M241.9,720h-5.4v-1h2.2v-8l-2.1,1v-1.2l2.2-1.2h1v9.3h2v1h0Z"/>
    <path d="M250.9,720h-5.4v-1h2.2v-8l-2.1,1v-1.2l2.2-1.2h1v9.3h2v1h0Z"/>
    <path d="M563.8,764.6c.7.2,1.2.5,1.6,1,.4.5.6,1.1.6,1.7,0,1-.3,1.7-.9,2.3s-1.4.8-2.3.8-1.8-.3-2.4-.8-.9-1.3-.9-2.2.2-1.2.6-1.7,1-.8,1.7-1.1c-.6-.2-1-.4-1.4-.8-.3-.4-.5-.9-.5-1.4s.3-1.3.8-1.8c.5-.5,1.2-.8,2.1-.8s1.6.3,2.1.8.8,1.1.8,1.8-.2,1-.5,1.4c-.3.4-.8.7-1.4.9h0ZM562.8,765.1c-1.3.4-2,1.1-2,2.2s.2,1.1.6,1.5.9.6,1.4.6,1-.2,1.4-.6.6-.9.6-1.5-.1-.9-.4-1.3-.8-.7-1.6-.9h0ZM562.8,764.1s.1,0,.3,0,.4-.1.5-.2c.2,0,.3-.2.4-.3s.2-.3.3-.5c0-.2.1-.4.1-.6,0-.5-.2-.9-.5-1.2-.3-.3-.8-.5-1.2-.5s-.9.2-1.2.5-.5.7-.5,1.2,0,.5.2.8.3.4.5.5.4.2.6.3c.2,0,.4.1.5.1h0Z"/>
    <path d="M619.1,690.4l-4.1,9.5h-1.2l4-9.3h-4.8v-1h6.1v.9h0Z"/>
    <path d="M32.2,1028.9h-5.4v-1.1h2.2v-8l-2.1,1v-1.2l2.2-1.2h1v9.4h2v1.1h0Z"/>
    <path d="M65.6,1028.9h-1.5l-3.5-5.1-1.1,1.2v3.9h-1.2v-10.3h1.2v5l4.6-5h1.4l-4,4.4,4.2,6h0Z"/>
    <path d="M71.3,1028.9h-1.1v-6.6h-2.2v-1h3.4v7.6ZM70.7,1018.4c.2,0,.4,0,.6.2.2.2.2.3.2.5s0,.4-.2.6-.3.2-.6.2-.4,0-.5-.2-.2-.3-.2-.5,0-.4.2-.5.3-.2.5-.2h0Z"/>
    <path d="M82.3,1028.6c-.8.3-1.5.5-2.3.5-1.4,0-2-.7-2-2.2v-4.7h-1.5v-1h1.5v-2.1h1.1v2.1h2.6v1h-2.6v4.4c0,.5,0,.8.3,1.1s.5.4.8.4c.6,0,1.2-.1,1.8-.4,0,0,.2.9.2.9Z"/>
    <path d="M91.2,1028.7c-.7.3-1.4.4-2.2.4-1.2,0-2.2-.4-2.9-1.1-.7-.7-1.1-1.7-1.1-2.9s.4-2.2,1.1-2.9,1.7-1.1,2.8-1.1,1.5.1,2.2.4l-.3,1c-.7-.2-1.3-.4-1.9-.4-.8,0-1.5.3-2,.8s-.7,1.3-.7,2.2.2,1.6.8,2.1,1.2.9,2,.9,1.3-.1,2-.4l.2.9h0Z"/>
    <path d="M100.2,1028.9h-1.1v-4.9c0-.7-.1-1.2-.3-1.5s-.6-.5-1-.5c-.7,0-1.4.4-2.2,1.3v5.5h-1.1v-10.3h1.1v3.8c.8-.9,1.7-1.3,2.6-1.3,1.4,0,2.2.9,2.2,2.6v5.2h0Z"/>
    <path d="M109.4,1025.1h-5.2c0,.9.2,1.6.8,2.1s1.1.8,1.8.8,1.4-.1,2.2-.4l.2.9c-.7.3-1.5.4-2.4.4s-2.1-.4-2.7-1.1-1-1.7-1-2.9.3-2.2.9-2.9c.6-.7,1.4-1.1,2.4-1.1s1.6.3,2.2,1,.9,1.6.9,2.7v.4h0ZM108.2,1024.2c0-.6-.2-1.1-.6-1.5-.4-.4-.8-.6-1.2-.6s-1.1.2-1.5.6-.6.9-.7,1.5h3.9Z"/>
    <path d="M118.2,1028.9h-1.1v-4.9c0-.7-.1-1.2-.3-1.5s-.6-.5-1-.5c-.7,0-1.4.4-2.2,1.3v5.5h-1.1v-7.6h1.1v1.1c.8-.9,1.7-1.3,2.6-1.3,1.4,0,2.2.9,2.2,2.6v5.2h0Z"/>
    <path d="M31.9,1050.9h-5.7v-.9c1.4-1.6,2.4-2.7,2.8-3.2s.8-1.1,1-1.7c.3-.6.4-1.2.4-1.8s-.2-1-.5-1.4-.8-.5-1.5-.5-1.1.2-2,.4l-.2-1c.7-.3,1.5-.5,2.3-.5s1.7.3,2.2.8.9,1.2.9,2.1-.1,1.2-.4,1.8-.7,1.2-1.1,1.8-1.3,1.6-2.6,3h4.4v1.1h0Z"/>
    <path d="M64.2,1050.9h-5.6v-10.3h1.2v9.3h4.4v1.1h0Z"/>
    <path d="M71.3,1050.9h-1.1v-6.6h-2.2v-1h3.4v7.6ZM70.7,1040.4c.2,0,.4,0,.6.2s.2.3.2.6,0,.4-.2.6-.3.2-.6.2-.4,0-.5-.2-.2-.3-.2-.6,0-.4.2-.6.3-.2.5-.2h0Z"/>
    <path d="M82.5,1043.3l-2.9,7.6h-1l-2.9-7.6h1.2l2.2,6.1,2.2-6.1h1.2,0Z"/>
    <path d="M89.3,1050.9h-1.1v-6.6h-2.2v-1h3.4v7.6ZM88.7,1040.4c.2,0,.4,0,.6.2s.2.3.2.6,0,.4-.2.6-.3.2-.6.2-.4,0-.5-.2-.2-.3-.2-.6,0-.4.2-.6.3-.2.5-.2h0Z"/>
    <path d="M100.2,1050.9h-1.1v-4.9c0-.7-.1-1.2-.3-1.5-.2-.3-.6-.5-1-.5-.7,0-1.4.4-2.2,1.3v5.5h-1.1v-7.6h1.1v1.1c.8-.9,1.7-1.3,2.6-1.3,1.4,0,2.2.9,2.2,2.6v5.2h0Z"/>
    <path d="M105.4,1048c-.7.3-1.1.7-1.1.9s0,.3.2.4.4.2.7.2h2.6c.6,0,1.1,0,1.4.4.3.3.5.7.5,1.3,0,.9-.4,1.6-1.2,2.1-.8.5-1.7.8-2.7.8s-1.5-.2-2.1-.5c-.5-.3-.8-.8-.8-1.4s.4-1.1,1.2-1.5c-.7-.3-1-.7-1-1.2s.4-1,1.3-1.5c-.4-.2-.7-.6-.9-1s-.3-.8-.3-1.2c0-.7.2-1.3.7-1.8.5-.5,1.1-.7,1.8-.7s1,.1,1.4.3l2.3-.3v1.1h-1.5c.2.4.3.8.3,1.4s-.2,1.3-.7,1.8c-.5.5-1.1.7-1.8.7s-.3,0-.4,0h0ZM105.9,1053.1c.8,0,1.4-.2,1.9-.5s.8-.8.8-1.2-.4-.8-1.1-.8-.7,0-1.3,0c-.4,0-.7,0-.9,0s-.3,0-.5.3c-.2.2-.4.3-.5.5-.1.2-.2.4-.2.6,0,.3.2.6.5.8.3.2.8.3,1.3.3h0ZM105.9,1047.2c.4,0,.8-.2,1-.4.3-.3.4-.7.4-1.1s-.1-.9-.4-1.2-.6-.4-1-.4-.8.2-1,.4c-.3.3-.4.7-.4,1.1s.1.8.4,1.1c.3.3.6.4,1,.4h0Z"/>
    <path d="M29.9,1067.4c.6.2,1.1.5,1.5,1,.4.5.6,1,.6,1.6,0,.9-.4,1.7-1.1,2.3s-1.5.9-2.5.9-1.6-.2-2.2-.5l.2-1c.7.3,1.4.5,2,.5s1.2-.2,1.6-.6.7-.9.7-1.5-.2-1.1-.7-1.5c-.5-.4-1.1-.6-1.9-.6h-.3v-1h0c.8,0,1.4-.2,1.9-.5s.7-.8.7-1.4-.2-.9-.5-1.2-.8-.4-1.5-.4-1.1.1-1.8.4l-.2-1c.7-.3,1.3-.4,2-.4s1.7.2,2.3.7.9,1.1.9,1.9-.2,1-.5,1.5c-.4.5-.8.7-1.3.9h0s0,0,0,0Z"/>
    <path d="M58.3,1062.6h2c1.3,0,2.4.5,3.2,1.4.8.9,1.2,2.2,1.2,3.8s-.4,2.9-1.2,3.8c-.8.9-1.9,1.3-3.2,1.3h-2.1v-10.3h0ZM59.5,1071.9h.8c1,0,1.8-.4,2.3-1.1s.9-1.7.9-3-.3-2.3-.9-3c-.6-.7-1.3-1.1-2.3-1.1h-.8v8.2Z"/>
    <path d="M71.3,1072.9h-1.1v-6.6h-2.2v-1h3.4v7.6ZM70.7,1062.4c.2,0,.4,0,.6.2s.2.3.2.6,0,.4-.2.6-.3.2-.6.2-.4,0-.5-.2-.2-.3-.2-.6,0-.4.2-.6.3-.2.5-.2h0Z"/>
    <path d="M82.2,1072.9h-1.1v-4.9c0-.7-.1-1.2-.3-1.5-.2-.3-.6-.5-1-.5-.7,0-1.4.4-2.2,1.3v5.5h-1.1v-7.6h1.1v1.1c.8-.9,1.7-1.3,2.6-1.3,1.4,0,2.2.9,2.2,2.6v5.2h0Z"/>
    <path d="M89.3,1072.9h-1.1v-6.6h-2.2v-1h3.4v7.6ZM88.7,1062.4c.2,0,.4,0,.6.2s.2.3.2.6,0,.4-.2.6-.3.2-.6.2-.4,0-.5-.2-.2-.3-.2-.6,0-.4.2-.6.3-.2.5-.2h0Z"/>
    <path d="M100.2,1072.9h-1.1v-4.9c0-.7-.1-1.2-.3-1.5-.2-.3-.6-.5-1-.5-.7,0-1.4.4-2.2,1.3v5.5h-1.1v-7.6h1.1v1.1c.8-.9,1.7-1.3,2.6-1.3,1.4,0,2.2.9,2.2,2.6v5.2h0Z"/>
    <path d="M105.4,1070c-.7.3-1.1.7-1.1.9s0,.3.2.4.4.2.7.2h2.6c.6,0,1.1,0,1.4.4.3.3.5.7.5,1.3,0,.9-.4,1.6-1.2,2.1-.8.5-1.7.8-2.7.8s-1.5-.2-2.1-.5c-.5-.3-.8-.8-.8-1.4s.4-1.1,1.2-1.5c-.7-.3-1-.7-1-1.2s.4-1,1.3-1.5c-.4-.2-.7-.6-.9-1s-.3-.8-.3-1.2c0-.7.2-1.3.7-1.8.5-.5,1.1-.7,1.8-.7s1,.1,1.4.3l2.3-.3v1.1h-1.5c.2.4.3.8.3,1.4s-.2,1.3-.7,1.8c-.5.5-1.1.7-1.8.7s-.3,0-.4,0h0ZM105.9,1075.1c.8,0,1.4-.2,1.9-.5s.8-.8.8-1.2-.4-.8-1.1-.8-.7,0-1.3,0c-.4,0-.7,0-.9,0s-.3,0-.5.3c-.2.2-.4.3-.5.5-.1.2-.2.4-.2.6,0,.3.2.6.5.8.3.2.8.3,1.3.3h0ZM105.9,1069.2c.4,0,.8-.2,1-.4.3-.3.4-.7.4-1.1s-.1-.9-.4-1.2-.6-.4-1-.4-.8.2-1,.4c-.3.3-.4.7-.4,1.1s.1.8.4,1.1c.3.3.6.4,1,.4h0Z"/>
    <path d="M32.6,1092.5h-1.3v2.4h-1.2v-2.4h-4.5v-.9l4.1-7h1.6v6.9h1.3v1.1ZM30.1,1091.5v-5.7l-3.3,5.7h3.3Z"/>
    <path d="M64.2,1094.9h-5.6v-10.3h1.2v9.3h4.4v1.1h0Z"/>
    <path d="M73.4,1094.9h-1.1c0-.3-.1-.7-.1-1.2-.7.9-1.5,1.4-2.7,1.4s-1.1-.2-1.5-.6-.7-.9-.7-1.6,0-.7.2-1,.4-.5.7-.7c.3-.2.7-.3,1.1-.5s.9-.2,1.5-.2h1.3v-.5c0-1.3-.6-2-1.8-2s-.7,0-1.1.2c-.4.1-.8.3-1.1.4l-.3-.8c1-.5,2-.8,2.9-.8,1.7,0,2.6.9,2.6,2.8v3.3c0,.7,0,1.2.2,1.8h0ZM72,1092.7v-1.4c-1,0-1.7.2-2.1.3-.4,0-.7.2-1,.4s-.4.5-.4.9.1.6.4.8.5.3.9.3.8-.1,1.2-.4.8-.6,1.1-1h0Z"/>
    <path d="M82.2,1094.9h-1.1v-1.1c-.8.9-1.7,1.3-2.6,1.3-1.4,0-2.2-.9-2.2-2.6v-5.2h1.1v4.9c0,.7,0,1.1.3,1.4s.6.5,1,.5c.7,0,1.4-.4,2.2-1.3v-5.5h1.1v7.6h0Z"/>
    <path d="M91.2,1094.9h-1.1v-4.9c0-.7-.1-1.2-.3-1.5-.2-.3-.6-.5-1-.5-.7,0-1.4.4-2.2,1.3v5.5h-1.1v-7.6h1.1v1.1c.8-.9,1.7-1.3,2.6-1.3,1.4,0,2.2.9,2.2,2.6v5.2h0Z"/>
    <path d="M100.2,1094.9h-1.1v-1.1c-.2.4-.6.7-1,.9-.4.2-.9.4-1.4.4-.9,0-1.6-.4-2.1-1.2s-.8-1.8-.8-3,.3-2,.8-2.8c.5-.7,1.2-1.1,2.1-1.1s1.7.4,2.3,1.2v-3.7h1.1v10.3h0ZM99,1092.6v-3.2c-.6-.9-1.2-1.3-2-1.3s-1.1.3-1.5.8c-.4.6-.6,1.3-.6,2.1s.2,1.6.5,2.2c.3.6.8.9,1.4.9s.6,0,.9-.2c.3-.2.6-.4.8-.7.3-.3.4-.5.4-.6h0Z"/>
    <path d="M109.3,1087.5l-.5,1.1c-.5-.2-.9-.3-1.3-.3s-.7,0-1,.3c-.3.2-.6.5-.9.8s-.4.6-.4.6v4.9h-1.1v-7.6h1.1v1.6c.6-1.2,1.4-1.7,2.4-1.7s1.1.1,1.7.4h0Z"/>
    <path d="M118.5,1087.3l-2.9,7.6c-.4,1.1-.8,1.9-1.2,2.3s-.9.7-1.4.7-.9,0-1.4-.3l.2-.9c.4.1.7.2,1,.2s.8-.2,1-.5.5-.8.8-1.6l-2.9-7.6h1.2l2.2,6.1,2.2-6.1h1.2,0Z"/>
    <path d="M200.5,1022.8c.3,0,.7-.1,1-.1,1,0,1.8.3,2.3.9.6.6.9,1.3.9,2.2s-.3,1.7-1,2.4-1.5,1-2.4,1-1.7-.2-2.3-.4l.2-1c.7.3,1.4.4,2.1.4s1.1-.2,1.5-.6.6-1,.6-1.7-.2-1.2-.6-1.6c-.4-.4-.8-.6-1.4-.6s-.8,0-1.2.2l-.7-.3v-4.9h4.7v1h-3.7v3.1h0Z"/>
    <path d="M238,1018.6l-1.3,10.3h-1.1l-1.8-5.8-1.8,5.8h-1.1l-1.3-10.3h1.2l.9,8.4,1.5-5.1h1.2l1.5,5.1.9-8.4h1.2Z"/>
    <path d="M246.1,1028.3c-.8.6-1.8.8-2.8.8s-2.4-.5-3.1-1.4-1-2.2-1-4,.3-3,1-3.9,1.7-1.4,3.1-1.4,1,0,1.5.2.9.3,1.2.5l-.4.9c-.7-.4-1.4-.6-2.3-.6s-1.7.3-2.1,1c-.5.7-.7,1.8-.7,3.3,0,2.9.9,4.3,2.8,4.3s1.6-.2,2.4-.7l.4.9h0Z"/>
    <path d="M200,1045.5c.6-.5,1.3-.8,2.1-.8s1.6.3,2.2.8c.6.6.9,1.3.9,2.2s-.3,1.8-.8,2.4-1.2.9-2.1.9-2-.5-2.6-1.5-1-2.2-1-3.7.3-2.9,1-3.9c.7-1.1,1.6-1.6,2.8-1.6s1.5.1,2.1.4l-.2,1.1c-.7-.2-1.3-.4-1.9-.4-.8,0-1.4.4-1.9,1.1s-.7,1.8-.7,2.9h0ZM200,1046.6c0,.9.2,1.7.6,2.4.4.7.9,1.1,1.6,1.1s.9-.2,1.2-.6c.3-.4.4-.9.4-1.6s-.2-1.1-.5-1.5c-.3-.4-.8-.6-1.3-.6s-1.4.2-2,.8h0Z"/>
    <path d="M235,1045.2c.7.2,1.2.5,1.6.9s.6,1,.6,1.7c0,.9-.3,1.7-1,2.2-.7.6-1.5.8-2.5.8h-2.9v-10.3h2.9c1,0,1.8.2,2.3.7.6.4.8,1.1.8,1.8s-.2.9-.5,1.3c-.3.4-.8.7-1.3.8h0s0,0,0,0ZM232,1044.7h1.4c1.5,0,2.2-.5,2.2-1.6s-.2-.8-.5-1.1c-.4-.3-.9-.4-1.6-.4h-1.5v3.1h0ZM232,1049.9h1.4c.8,0,1.4-.2,1.9-.5.5-.4.7-.9.7-1.5s-.2-1.2-.7-1.6-1.1-.6-2-.6h-1.3v4.1h0Z"/>
    <path d="M246,1047.1h-5.2c0,.9.2,1.6.8,2.1s1.1.8,1.8.8,1.4-.1,2.1-.4l.2.9c-.7.3-1.5.4-2.4.4s-2.1-.4-2.7-1.1-1-1.7-1-2.9.3-2.2.9-2.9,1.4-1.1,2.4-1.1,1.6.3,2.2,1,.9,1.6.9,2.7v.4h0ZM244.7,1046.2c0-.6-.2-1.1-.6-1.5s-.8-.6-1.2-.6-1.1.2-1.5.6-.6.9-.6,1.5h3.9Z"/>
    <path d="M254.7,1050.9h-1.1v-1.1c-.2.4-.6.7-1,.9-.4.2-.9.4-1.4.4-.9,0-1.6-.4-2.1-1.2-.5-.8-.8-1.8-.8-3s.3-2,.8-2.8c.5-.7,1.2-1.1,2.1-1.1s1.7.4,2.3,1.2v-3.7h1.1v10.3h0ZM253.6,1048.6v-3.2c-.6-.9-1.2-1.3-2-1.3s-1.1.3-1.5.8c-.4.6-.6,1.3-.6,2.1s.2,1.6.5,2.2c.3.6.8.9,1.4.9s.6,0,.9-.2c.3-.2.6-.4.8-.7.3-.3.4-.5.4-.6h0Z"/>
    <path d="M204.9,1063.4l-4.1,9.5h-1.2l4-9.3h-4.8v-1.1h6.1v.9h0Z"/>
    <path d="M235,1067.2c.7.2,1.2.5,1.6.9s.6,1,.6,1.7c0,.9-.3,1.7-1,2.2-.7.6-1.5.8-2.5.8h-2.9v-10.3h2.9c1,0,1.8.2,2.3.7.6.4.8,1.1.8,1.8s-.2.9-.5,1.3c-.3.4-.8.7-1.3.8h0s0,0,0,0ZM232,1066.7h1.4c1.5,0,2.2-.5,2.2-1.6s-.2-.8-.5-1.1c-.4-.3-.9-.4-1.6-.4h-1.5v3.1h0ZM232,1071.9h1.4c.8,0,1.4-.2,1.9-.5.5-.4.7-.9.7-1.5s-.2-1.2-.7-1.6-1.1-.6-2-.6h-1.3v4.1h0Z"/>
    <path d="M245.9,1072.9h-1.1c0-.3-.1-.7-.1-1.2-.6.9-1.5,1.4-2.6,1.4s-1.1-.2-1.5-.6-.6-.9-.6-1.6,0-.7.2-1,.4-.5.7-.7c.3-.2.6-.3,1.1-.5.4-.1.9-.2,1.5-.2h1.3v-.5c0-1.3-.6-2-1.8-2s-.6,0-1.1.2c-.4.1-.8.3-1.1.4l-.3-.8c1-.5,2-.8,2.9-.8,1.7,0,2.6.9,2.6,2.8v3.3c0,.7,0,1.2.2,1.8h0ZM244.6,1070.7v-1.4c-1,0-1.7.2-2.1.3-.4,0-.7.2-1,.4s-.4.5-.4.9.1.6.4.8.5.3.9.3.8-.1,1.2-.4c.4-.2.8-.6,1.1-1h0Z"/>
    <path d="M254.8,1072.6c-.8.3-1.5.5-2.3.5-1.4,0-2-.7-2-2.2v-4.7h-1.5v-1h1.5v-2.1h1.1v2.1h2.6v1h-2.6v4.4c0,.5.1.8.3,1.1.2.3.5.4.8.4.6,0,1.2-.1,1.9-.4l.2.9h0Z"/>
    <path d="M263.8,1072.9h-1.1v-4.9c0-.7-.1-1.2-.3-1.5-.2-.3-.6-.5-1-.5-.7,0-1.5.4-2.2,1.3v5.5h-1.1v-10.3h1.1v3.8c.8-.9,1.7-1.3,2.6-1.3,1.4,0,2.1.9,2.1,2.6v5.2h0Z"/>
    <path d="M272.9,1065.5l-.5,1.1c-.5-.2-.9-.3-1.3-.3s-.7,0-1,.3c-.3.2-.6.5-.9.8-.3.4-.4.6-.4.6v4.9h-1.1v-7.6h1.1v1.6c.6-1.2,1.4-1.7,2.4-1.7s1.1.1,1.7.4h0Z"/>
    <path d="M278.8,1065.1c1,0,1.9.4,2.5,1.1s.9,1.7.9,2.9-.3,2.2-.9,2.9-1.5,1.1-2.5,1.1-1.9-.4-2.5-1.1c-.6-.7-.9-1.7-.9-2.9s.3-2.2.9-2.9,1.5-1.1,2.5-1.1h0ZM278.8,1072.1c.7,0,1.2-.3,1.6-.9s.6-1.3.6-2.1-.2-1.6-.6-2.2-.9-.8-1.6-.8-1.3.3-1.6.8c-.4.6-.6,1.3-.6,2.2s.2,1.6.6,2.1c.4.6.9.9,1.6.9h0Z"/>
    <path d="M287.8,1065.1c1,0,1.9.4,2.5,1.1s.9,1.7.9,2.9-.3,2.2-.9,2.9-1.5,1.1-2.5,1.1-1.9-.4-2.5-1.1c-.6-.7-.9-1.7-.9-2.9s.3-2.2.9-2.9,1.5-1.1,2.5-1.1h0ZM287.8,1072.1c.7,0,1.2-.3,1.6-.9s.6-1.3.6-2.1-.2-1.6-.6-2.2-1-.8-1.6-.8-1.3.3-1.6.8c-.4.6-.6,1.3-.6,2.2s.2,1.6.6,2.1c.4.6.9.9,1.6.9h0Z"/>
    <path d="M300.4,1072.9h-1.1v-5c0-1.2-.2-1.8-.7-1.8s-.5.2-.8.6-.4.7-.4.7v5.5h-1.1v-5c0-1.2-.2-1.8-.7-1.8s-.5.2-.8.6c-.3.4-.4.7-.4.7v5.5h-1.1v-7.6h1.1v1.2c.2-.4.5-.7.8-1,.3-.2.6-.4.9-.4s.6.1.8.4c.2.2.4.6.5,1,.2-.4.5-.7.8-1s.6-.4.9-.4c.9,0,1.4.8,1.4,2.5v5.3h0Z"/>
    <path d="M202.8,1089.2c.7.2,1.2.6,1.6,1.1.4.5.6,1.1.6,1.7,0,.9-.3,1.7-.9,2.3s-1.4.8-2.3.8-1.8-.3-2.4-.8c-.6-.6-.9-1.3-.9-2.2s.2-1.2.6-1.7,1-.8,1.7-1.1c-.6-.2-1-.4-1.4-.8-.3-.4-.5-.9-.5-1.4s.3-1.3.8-1.8c.5-.5,1.2-.8,2.1-.8s1.6.3,2.1.8.8,1.1.8,1.8-.2,1-.5,1.4-.8.7-1.4.9h0ZM201.8,1089.8c-1.3.4-2,1.1-2,2.2s.2,1.1.6,1.5.9.6,1.4.6,1-.2,1.4-.6c.4-.4.6-.9.6-1.5s-.1-.9-.4-1.3c-.3-.4-.8-.7-1.6-.9h0ZM201.8,1088.8s.1,0,.4,0,.4-.1.5-.2.3-.2.4-.3.2-.3.3-.5c0-.2.1-.4.1-.6,0-.5-.2-.9-.5-1.2s-.7-.5-1.2-.5-.9.2-1.2.5-.5.7-.5,1.2,0,.5.2.8.3.4.4.5.4.2.6.3c.2,0,.4.1.4.1h0Z"/>
    <path d="M236,1085.7c-.6-.2-1.2-.3-1.8-.3s-1.1.1-1.5.4c-.4.3-.6.7-.6,1.2s.5,1.2,1.5,1.7c.8.3,1.3.6,1.5.7.2.1.5.3.8.6s.5.5.6.8c.1.3.2.7.2,1.1,0,1-.3,1.8-1,2.3-.7.6-1.5.8-2.4.8s-1.7-.2-2.3-.5l.2-1c.8.4,1.5.5,2.1.5s1.2-.2,1.6-.5.6-.8.6-1.5-.1-.8-.4-1.2c-.3-.3-.8-.7-1.5-1-.7-.3-1.2-.6-1.4-.7s-.4-.3-.6-.5-.4-.5-.5-.7-.2-.6-.2-.9c0-.8.3-1.5.9-2s1.4-.7,2.3-.7,1.4.1,2.1.3l-.3,1h0Z"/>
    <path d="M245.8,1094.6c-.8.3-1.5.5-2.3.5-1.4,0-2-.7-2-2.2v-4.7h-1.5v-1h1.5v-2.1h1.1v2.1h2.6v1h-2.6v4.4c0,.5.1.8.3,1.1.2.3.5.4.8.4.6,0,1.2-.1,1.9-.4l.2.9h0Z"/>
    <path d="M254.7,1094.9h-1.1v-1.1c-.8.9-1.7,1.3-2.6,1.3-1.4,0-2.1-.9-2.1-2.6v-5.2h1.1v4.9c0,.7.1,1.1.3,1.4.2.3.6.5,1,.5.7,0,1.4-.4,2.2-1.3v-5.5h1.1v7.6h0Z"/>
    <path d="M263.7,1094.9h-1.1v-1.1c-.2.4-.6.7-1,.9-.4.2-.9.4-1.4.4-.9,0-1.6-.4-2.1-1.2-.5-.8-.8-1.8-.8-3s.3-2,.8-2.8c.5-.7,1.2-1.1,2.1-1.1s1.7.4,2.3,1.2v-3.7h1.1v10.3h0ZM262.6,1092.6v-3.2c-.5-.9-1.2-1.3-2-1.3s-1.1.3-1.5.8c-.4.6-.5,1.3-.5,2.1s.2,1.6.5,2.2c.3.6.8.9,1.4.9s.6,0,.9-.2c.3-.2.6-.4.8-.7.3-.3.4-.5.4-.6h0Z"/>
    <path d="M273.1,1087.3l-2.9,7.6c-.4,1.1-.8,1.9-1.2,2.3s-.9.7-1.4.7-.9,0-1.4-.3l.2-.9c.4.1.7.2,1,.2s.8-.2,1-.5.5-.8.8-1.6l-2.9-7.6h1.2l2.2,6.1,2.2-6.1h1.2,0Z"/>
    <path d="M373.8,1024c-.6.5-1.3.8-2.1.8s-1.6-.3-2.2-.8c-.6-.6-.9-1.3-.9-2.2s.3-1.7.8-2.4,1.3-1,2.2-1,1.9.5,2.5,1.5.9,2.2.9,3.8-.4,2.8-1.1,3.9c-.7,1.1-1.7,1.6-2.9,1.6s-1.5-.1-2.1-.4l.2-1.1c.7.2,1.3.4,1.9.4.8,0,1.5-.4,1.9-1.2.5-.8.7-1.8.7-2.9h0ZM373.7,1022.9c0-.9-.2-1.7-.6-2.4-.4-.7-.9-1-1.5-1s-1,.2-1.3.6c-.3.4-.5.9-.5,1.6s.2,1.1.5,1.5c.3.4.8.6,1.3.6s1.4-.2,2-.7h0Z"/>
    <path d="M408,1018.6l-1.3,10.3h-1.1l-1.8-5.8-1.8,5.8h-1.1l-1.3-10.3h1.2l.9,8.4,1.5-5.1h1.2l1.5,5.1.9-8.4h1.2Z"/>
    <path d="M412.8,1021.1c1,0,1.9.4,2.5,1.1s.9,1.7.9,2.9-.3,2.2-.9,2.9-1.5,1.1-2.5,1.1-1.9-.4-2.5-1.1c-.6-.7-.9-1.7-.9-2.9s.3-2.2.9-2.9c.6-.7,1.5-1.1,2.5-1.1h0ZM412.8,1028.1c.7,0,1.2-.3,1.6-.9s.6-1.3.6-2.1-.2-1.6-.6-2.2-.9-.8-1.6-.8-1.3.3-1.6.8c-.4.6-.6,1.3-.6,2.2s.2,1.6.6,2.1c.4.6.9.9,1.6.9h0Z"/>
    <path d="M424.9,1021.5l-.5,1.1c-.5-.2-.9-.3-1.3-.3s-.7,0-1,.3c-.3.2-.6.5-.9.8-.3.4-.4.6-.4.6v4.9h-1.1v-7.6h1.1v1.5c.6-1.2,1.4-1.7,2.4-1.7s1.1.1,1.7.4h0Z"/>
    <path d="M434.5,1028.9h-1.5l-3.2-3.8-.8.6v3.2h-1.1v-10.3h1.1v5.9l3.6-3.2h1.5l-3.5,3.1,3.9,4.5h0Z"/>
    <path d="M442.9,1021.5l-.5,1.1c-.5-.2-.9-.3-1.3-.3s-.7,0-1,.3c-.3.2-.6.5-.9.8-.3.4-.4.6-.4.6v4.9h-1.1v-7.6h1.1v1.5c.6-1.2,1.4-1.7,2.4-1.7s1.1.1,1.7.4h0Z"/>
    <path d="M448.8,1021.1c1,0,1.9.4,2.5,1.1s.9,1.7.9,2.9-.3,2.2-.9,2.9-1.5,1.1-2.5,1.1-1.9-.4-2.5-1.1c-.6-.7-.9-1.7-.9-2.9s.3-2.2.9-2.9c.6-.7,1.5-1.1,2.5-1.1h0ZM448.8,1028.1c.7,0,1.2-.3,1.6-.9s.6-1.3.6-2.1-.2-1.6-.6-2.2-.9-.8-1.6-.8-1.3.3-1.6.8c-.4.6-.6,1.3-.6,2.2s.2,1.6.6,2.1c.4.6.9.9,1.6.9h0Z"/>
    <path d="M457.8,1021.1c1,0,1.9.4,2.5,1.1s.9,1.7.9,2.9-.3,2.2-.9,2.9-1.5,1.1-2.5,1.1-1.9-.4-2.5-1.1c-.6-.7-.9-1.7-.9-2.9s.3-2.2.9-2.9c.6-.7,1.5-1.1,2.5-1.1h0ZM457.8,1028.1c.7,0,1.2-.3,1.6-.9s.6-1.3.6-2.1-.2-1.6-.6-2.2-1-.8-1.6-.8-1.3.3-1.6.8c-.4.6-.6,1.3-.6,2.2s.2,1.6.6,2.1c.4.6.9.9,1.6.9h0Z"/>
    <path d="M470.4,1028.9h-1.1v-5c0-1.2-.2-1.8-.7-1.8s-.5.2-.8.6-.4.7-.4.7v5.5h-1.1v-5c0-1.2-.2-1.8-.7-1.8s-.5.2-.8.6c-.3.4-.4.7-.4.7v5.5h-1.1v-7.6h1.1v1.2c.2-.4.5-.7.8-1,.3-.2.6-.4.9-.4s.6.1.8.4c.2.2.4.6.5,1,.2-.4.5-.7.8-1s.6-.4.9-.4c.9,0,1.4.8,1.4,2.5v5.3h0Z"/>
    <path d="M374.8,1050.9h-5.4v-1.1h2.2v-8l-2.1,1v-1.2l2.2-1.2h1v9.3h2v1.1h0Z"/>
    <path d="M380.8,1040.4c1.1,0,1.9.5,2.5,1.4.6.9.9,2.3.9,4s-.3,2.9-.9,3.9c-.6,1-1.4,1.4-2.5,1.4s-1.9-.5-2.5-1.4-.9-2.3-.9-4,.3-3,.9-3.9c.6-1,1.4-1.4,2.5-1.4h0ZM380.8,1050.1c.7,0,1.3-.3,1.6-1,.4-.7.5-1.8.5-3.3s-.2-2.6-.5-3.3c-.4-.7-.9-1-1.6-1s-1.2.3-1.6,1.1c-.4.7-.5,1.8-.5,3.2s.2,2.6.5,3.3c.4.7.9,1,1.6,1h0ZM380.8,1044.7c.3,0,.6.1.8.3s.3.5.3.8-.1.6-.3.8c-.2.2-.5.3-.8.3s-.5-.1-.8-.3c-.2-.2-.3-.5-.3-.8s.1-.6.3-.8c.2-.2.5-.3.8-.3h0Z"/>
    <path d="M406.6,1050.9h-5.4v-10.3h5.4v1.1h-4.1v3.2h4v1.1h-4v4h4.2v1.1h0Z"/>
    <path d="M415.8,1050.9h-1.1v-4.9c0-.7-.1-1.2-.3-1.5-.2-.3-.6-.5-1-.5-.7,0-1.5.4-2.2,1.3v5.5h-1.1v-7.6h1.1v1.1c.8-.9,1.7-1.3,2.6-1.3,1.4,0,2.1.9,2.1,2.6v5.2h0Z"/>
    <path d="M424.8,1050.6c-.8.3-1.5.5-2.3.5-1.4,0-2-.7-2-2.2v-4.7h-1.5v-1h1.5v-2.1h1.1v2.1h2.6v1h-2.6v4.4c0,.5.1.8.3,1.1s.5.4.8.4c.6,0,1.2-.1,1.9-.4l.2.9h0Z"/>
    <path d="M433.9,1043.5l-.5,1.1c-.5-.2-.9-.3-1.3-.3s-.7,0-1,.3c-.3.2-.6.5-.9.8-.3.4-.4.6-.4.6v4.9h-1.1v-7.6h1.1v1.6c.6-1.2,1.4-1.7,2.4-1.7s1.1.1,1.7.4h0Z"/>
    <path d="M443.1,1043.3l-2.9,7.6c-.4,1.1-.8,1.9-1.2,2.3s-.9.7-1.4.7-.9,0-1.4-.3l.2-.9c.4.1.7.2,1,.2s.8-.2,1-.5.5-.8.8-1.6l-2.9-7.6h1.2l2.2,6.1,2.2-6.1h1.2,0Z"/>
    <path d="M374.8,1072.9h-5.4v-1.1h2.2v-8l-2.1,1v-1.2l2.2-1.2h1v9.3h2v1.1h0Z"/>
    <path d="M383.8,1072.9h-5.4v-1.1h2.2v-8l-2.1,1v-1.2l2.2-1.2h1v9.3h2v1.1h0Z"/>
    <path d="M407.1,1072.2c-.8.6-1.8.9-2.8.9s-2.4-.5-3-1.4-1-2.2-1-4,.3-3,1-4c.7-.9,1.7-1.4,3.1-1.4s1,0,1.5.2.9.3,1.2.5l-.4.9c-.7-.4-1.4-.6-2.3-.6s-1.6.3-2.1,1c-.5.7-.7,1.8-.7,3.3,0,2.9.9,4.3,2.8,4.3s1.2-.2,1.6-.4v-2.6h-1.9v-1h3.1v4.2h0Z"/>
    <path d="M415.9,1072.9h-1.1c0-.3-.1-.7-.1-1.2-.6.9-1.5,1.4-2.6,1.4s-1.1-.2-1.5-.6-.6-.9-.6-1.6,0-.7.2-1,.4-.5.7-.7c.3-.2.6-.3,1.1-.5s.9-.2,1.5-.2h1.3v-.5c0-1.3-.6-2-1.8-2s-.6,0-1.1.2c-.4.1-.8.3-1.1.4l-.3-.8c1-.5,2-.8,2.9-.8,1.7,0,2.6.9,2.6,2.8v3.3c0,.7,0,1.2.2,1.8h0ZM414.6,1070.7v-1.4c-1,0-1.7.2-2.1.3s-.7.2-1,.4-.4.5-.4.9.1.6.4.8.5.3.9.3.8-.1,1.2-.4.8-.6,1-1h0Z"/>
    <path d="M424.9,1065.5l-.5,1.1c-.5-.2-.9-.3-1.3-.3s-.7,0-1,.3c-.3.2-.6.5-.9.8-.3.4-.4.6-.4.6v4.9h-1.1v-7.6h1.1v1.6c.6-1.2,1.4-1.7,2.4-1.7s1.1.1,1.7.4h0Z"/>
    <path d="M433.9,1072.9h-1.1c0-.3-.1-.7-.1-1.2-.6.9-1.5,1.4-2.6,1.4s-1.1-.2-1.5-.6-.6-.9-.6-1.6,0-.7.2-1,.4-.5.7-.7c.3-.2.6-.3,1.1-.5s.9-.2,1.5-.2h1.3v-.5c0-1.3-.6-2-1.8-2s-.6,0-1.1.2c-.4.1-.8.3-1.1.4l-.3-.8c1-.5,2-.8,2.9-.8,1.7,0,2.6.9,2.6,2.8v3.3c0,.7,0,1.2.2,1.8h0ZM432.6,1070.7v-1.4c-1,0-1.7.2-2.1.3s-.7.2-1,.4-.4.5-.4.9.1.6.4.8.5.3.9.3.8-.1,1.2-.4.8-.6,1-1h0Z"/>
    <path d="M439,1070c-.7.3-1.1.7-1.1.9s0,.3.2.4c.2,0,.4.2.7.2h2.6c.6,0,1.1,0,1.4.4.3.3.5.7.5,1.3,0,.9-.4,1.6-1.2,2.1s-1.7.8-2.7.8-1.5-.2-2.1-.5c-.5-.3-.8-.8-.8-1.4s.4-1.1,1.2-1.5c-.7-.3-1-.7-1-1.2s.4-1,1.3-1.5c-.4-.2-.7-.6-1-1s-.3-.8-.3-1.2c0-.7.2-1.3.7-1.8.5-.5,1.1-.7,1.8-.7s1,.1,1.4.3l2.3-.3v1.1h-1.5c.2.4.3.8.3,1.4s-.2,1.3-.7,1.8c-.5.5-1.1.7-1.8.7s-.3,0-.5,0h0ZM439.5,1075.1c.8,0,1.4-.2,1.9-.5s.8-.8.8-1.2-.4-.8-1.1-.8-.7,0-1.3,0c-.4,0-.7,0-.9,0s-.3,0-.5.3c-.2.2-.4.3-.5.5s-.2.4-.2.6c0,.3.2.6.5.8.3.2.8.3,1.3.3h0ZM439.4,1069.2c.4,0,.8-.2,1-.4.3-.3.4-.7.4-1.1s-.1-.9-.4-1.2-.6-.4-1-.4-.8.2-1,.4c-.3.3-.4.7-.4,1.1s.1.8.4,1.1c.3.3.6.4,1,.4h0Z"/>
    <path d="M452,1069.1h-5.2c0,.9.2,1.6.8,2.1s1.1.8,1.8.8,1.4-.1,2.1-.4l.2.9c-.7.3-1.5.4-2.4.4s-2-.4-2.7-1.1-1-1.7-1-2.9.3-2.2.9-2.9,1.4-1.1,2.4-1.1,1.6.3,2.2,1,.9,1.6.9,2.7v.4h0ZM450.7,1068.2c0-.6-.2-1.1-.6-1.5s-.8-.6-1.2-.6-1.1.2-1.5.6-.6.9-.6,1.5h3.9Z"/>
    <path d="M374.8,1094.9h-5.4v-1.1h2.2v-8l-2.1,1v-1.2l2.2-1.2h1v9.3h2v1.1h0Z"/>
    <path d="M383.5,1094.9h-5.7v-.9c1.4-1.6,2.4-2.7,2.8-3.2s.8-1.1,1-1.7.4-1.2.4-1.8-.2-1-.5-1.4c-.4-.3-.8-.5-1.5-.5s-1.1.2-2,.4l-.2-1c.7-.3,1.5-.5,2.3-.5s1.7.3,2.2.8.9,1.2.9,2.1-.1,1.2-.4,1.8-.7,1.2-1.1,1.8-1.3,1.6-2.6,3h4.4v1.1h0Z"/>
    <path d="M407.9,1094.9h-1.5l-3-4.7h-1.3v4.7h-1.2v-10.3h2.9c1,0,1.8.2,2.3.7.6.5.9,1.1.9,2s-.2,1.2-.6,1.7c-.4.5-1,.8-1.7,1l3.3,4.9h0ZM402,1089.2h1.5c.6,0,1.1-.2,1.5-.5.4-.3.6-.8.6-1.3,0-1.2-.7-1.7-2.1-1.7h-1.5v3.5h0Z"/>
    <path d="M415.7,1094.9h-1.1v-1.1c-.8.9-1.7,1.3-2.6,1.3-1.4,0-2.1-.9-2.1-2.6v-5.2h1.1v4.9c0,.7.1,1.1.3,1.4s.5.5,1,.5c.7,0,1.5-.4,2.2-1.3v-5.5h1.1v7.6h0Z"/>
    <path d="M425.4,1094.9h-1.1v-5c0-1.2-.2-1.8-.7-1.8s-.5.2-.8.6-.4.7-.4.7v5.5h-1.1v-5c0-1.2-.2-1.8-.7-1.8s-.5.2-.8.6-.4.7-.4.7v5.5h-1.1v-7.6h1.1v1.2c.2-.4.5-.7.8-1,.3-.2.6-.4.9-.4s.6.1.8.4c.2.2.4.6.5,1,.2-.4.5-.7.8-1s.6-.4.9-.4c.9,0,1.4.8,1.4,2.5v5.3h0Z"/>
    <path d="M429,1088.3c.2-.3.6-.6,1-.8.4-.2.9-.3,1.4-.3.9,0,1.6.4,2.1,1.1s.8,1.7.8,2.8-.3,2.2-.8,2.9-1.2,1.2-2.1,1.2-.9-.1-1.3-.3c-.4-.2-.7-.6-1-.9v4.1h-1.1v-10.7h1.1v1h0ZM429,1089.4v3.2c.2.4.5.8.9,1.1s.7.4,1.1.4c.6,0,1.1-.3,1.5-.9.4-.6.5-1.3.5-2.2s-.2-1.6-.5-2.2-.8-.8-1.5-.8-1.5.4-2,1.3h0Z"/>
    <path d="M442.7,1094.9h-1.1v-1.1c-.8.9-1.7,1.3-2.6,1.3-1.4,0-2.1-.9-2.1-2.6v-5.2h1.1v4.9c0,.7.1,1.1.3,1.4s.5.5,1,.5c.7,0,1.5-.4,2.2-1.3v-5.5h1.1v7.6h0Z"/>
    <path d="M451,1088.4c-.6-.2-1.2-.3-1.8-.3s-1.1,0-1.5.3c-.4.2-.5.5-.5.8s0,.4.2.6c.2.2.5.3,1,.5l1.1.3c.5.1.9.3,1.2.5s.5.4.7.7.2.6.2,1c0,.7-.3,1.3-.9,1.7-.6.4-1.4.6-2.3.6s-1.7-.1-2.3-.4l.2-1c.6.3,1.3.4,2.1.4s1.1-.1,1.5-.4.6-.6.6-.9-.1-.5-.3-.7c-.2-.2-.7-.4-1.4-.7-.6-.2-1-.3-1.3-.4-.3,0-.5-.2-.8-.4s-.4-.4-.5-.6-.2-.5-.2-.8c0-.7.3-1.2.9-1.6s1.3-.6,2.3-.6,1.3,0,2,.3l-.3,1h0Z"/>
    <path d="M546.2,1028.9h-5.4v-1.1h2.2v-8l-2.1,1v-1.2l2.2-1.2h1v9.4h2v1.1h0Z"/>
    <path d="M552.9,1023.4c.6.2,1.1.5,1.5,1,.4.5.6,1,.6,1.6,0,.9-.3,1.7-1.1,2.3s-1.5.9-2.5.9-1.6-.2-2.2-.5l.2-1c.7.3,1.3.5,2,.5s1.2-.2,1.6-.6.7-.9.7-1.5-.2-1.1-.7-1.5c-.5-.4-1.1-.6-1.9-.6h-.3v-1h0c.8,0,1.4-.2,1.9-.5.5-.3.7-.8.7-1.4s-.2-.9-.5-1.2c-.3-.3-.8-.4-1.5-.4s-1.1.1-1.8.4l-.2-1c.7-.3,1.3-.5,2-.5s1.7.2,2.3.7c.6.5.9,1.1.9,1.9s-.2,1-.5,1.5c-.4.5-.8.7-1.3.9h0s0,0,0,0Z"/>
    <path d="M579,1019.5h-3.2v9.4h-1.2v-9.4h-3.2v-1h7.6v1h0Z"/>
    <path d="M587.4,1025.1h-5.2c0,.9.2,1.6.8,2.1s1.1.8,1.8.8,1.4-.1,2.2-.4l.2.9c-.7.3-1.5.4-2.4.4s-2-.4-2.7-1.1-1-1.7-1-2.9.3-2.2.9-2.9c.6-.7,1.4-1.1,2.4-1.1s1.6.3,2.2,1,.9,1.6.9,2.7v.4h0ZM586.1,1024.2c0-.6-.2-1.1-.6-1.5-.4-.4-.8-.6-1.2-.6s-1.1.2-1.5.6c-.4.4-.6.9-.7,1.5h3.9Z"/>
    <path d="M596.3,1021.5l-.5,1.1c-.5-.2-.9-.3-1.3-.3s-.7,0-1,.3-.6.5-.9.8c-.3.4-.4.6-.4.6v4.9h-1.1v-7.6h1.1v1.5c.6-1.2,1.4-1.7,2.4-1.7s1.1.1,1.7.4h0Z"/>
    <path d="M605.3,1021.5l-.5,1.1c-.5-.2-.9-.3-1.3-.3s-.7,0-1,.3-.6.5-.9.8c-.3.4-.4.6-.4.6v4.9h-1.1v-7.6h1.1v1.5c.6-1.2,1.4-1.7,2.4-1.7s1.1.1,1.7.4h0Z"/>
    <path d="M614.4,1028.9h-1.1c0-.3-.1-.7-.1-1.2-.7.9-1.5,1.4-2.7,1.4s-1.1-.2-1.5-.6-.7-.9-.7-1.6,0-.7.2-1,.4-.5.7-.7c.3-.2.7-.3,1.1-.5s.9-.2,1.5-.2h1.3v-.5c0-1.3-.6-2-1.8-2s-.7,0-1.1.2c-.4.1-.8.3-1.1.4l-.3-.8c1-.5,2-.8,2.9-.8,1.7,0,2.6.9,2.6,2.8v3.3c0,.7,0,1.2.2,1.8h0ZM613,1026.7v-1.4c-1,0-1.7.2-2.1.3s-.7.2-1,.4-.4.5-.4.9.1.6.4.8.5.3.9.3.8-.1,1.2-.4.8-.6,1-1h0Z"/>
    <path d="M623.1,1028.7c-.7.3-1.4.4-2.2.4-1.2,0-2.2-.4-2.9-1.1-.7-.7-1.1-1.7-1.1-2.9s.4-2.2,1.1-2.9c.7-.7,1.7-1.1,2.8-1.1s1.5.1,2.2.4l-.3,1c-.7-.2-1.3-.4-1.9-.4-.8,0-1.5.3-2,.8s-.7,1.3-.7,2.2.2,1.6.8,2.1,1.2.9,2,.9,1.3-.1,2-.4l.2.9h0Z"/>
    <path d="M632.4,1025.1h-5.2c0,.9.2,1.6.8,2.1s1.1.8,1.8.8,1.4-.1,2.2-.4l.2.9c-.7.3-1.5.4-2.4.4s-2-.4-2.7-1.1-1-1.7-1-2.9.3-2.2.9-2.9c.6-.7,1.4-1.1,2.4-1.1s1.6.3,2.2,1,.9,1.6.9,2.7v.4h0ZM631.2,1024.2c0-.6-.2-1.1-.6-1.5-.4-.4-.8-.6-1.2-.6s-1.1.2-1.5.6c-.4.4-.6.9-.7,1.5h3.9Z"/>
  </g>
</svg>