<?xml version="1.0" encoding="UTF-8"?>
<svg id="Layer_1" xmlns="http://www.w3.org/2000/svg" xmlns:xlink="http://www.w3.org/1999/xlink" version="1.1" viewBox="0 0 800 1120">
  <!-- Generator: Adobe Illustrator 29.3.0, SVG Export Plug-In . SVG Version: 2.1.0 Build 146)  -->
  <defs>
    <style>
      .st0, .st1, .st2, .st3, .st4, .st5, .st6, .st7, .st8 {
        fill: none;
      }

      .st1 {
        stroke-width: .8px;
      }

      .st1, .st2, .st3, .st4, .st5, .st6 {
        stroke-linecap: round;
        stroke-linejoin: round;
      }

      .st1, .st2, .st3, .st4, .st5, .st7, .st8 {
        stroke: #231f20;
      }

      .st2 {
        stroke-width: 1.2px;
      }

      .st9 {
        fill: url(#BRICKS-2);
      }

      .st10 {
        fill: url(#BRICKS-3);
      }

      .st3 {
        stroke-width: .3px;
      }

      .st4 {
        stroke-width: .4px;
      }

      .st5 {
        stroke-width: .3px;
      }

      .st6 {
        stroke: #5b5b5b;
        stroke-width: .2px;
      }

      .st11 {
        fill: url(#_10_lpi_10_);
      }

      .st12 {
        fill: url(#BRICKS);
      }

      .st13 {
        fill: url(#_10_lpi_10_-2);
      }

      .st14 {
        fill: url(#_10_lpi_10_-3);
      }

      .st7 {
        stroke-linecap: square;
      }

      .st7, .st8 {
        stroke-width: .1px;
      }
    </style>
    <pattern id="_10_lpi_10_" data-name=" 10 lpi 10 " x="0" y="0" width="72" height="72" patternTransform="translate(-15772.9 5667.1) rotate(-90) scale(1 -1)" patternUnits="userSpaceOnUse" viewBox="0 0 72 72">
      <g>
        <rect class="st0" width="72" height="72"/>
        <rect class="st0" width="72" height="72"/>
        <line class="st8" x1="71.8" y1="3.6" x2="144.2" y2="3.6"/>
        <line class="st8" x1="71.8" y1="18" x2="144.2" y2="18"/>
        <line class="st8" x1="71.8" y1="32.4" x2="144.2" y2="32.4"/>
        <line class="st8" x1="71.8" y1="46.8" x2="144.2" y2="46.8"/>
        <line class="st8" x1="71.8" y1="61.2" x2="144.2" y2="61.2"/>
        <line class="st8" x1="71.8" y1="10.8" x2="144.2" y2="10.8"/>
        <line class="st8" x1="71.8" y1="25.2" x2="144.2" y2="25.2"/>
        <line class="st8" x1="71.8" y1="39.6" x2="144.2" y2="39.6"/>
        <line class="st8" x1="71.8" y1="54" x2="144.2" y2="54"/>
        <line class="st8" x1="71.8" y1="68.4" x2="144.2" y2="68.4"/>
        <line class="st8" x1="-.2" y1="3.6" x2="72.2" y2="3.6"/>
        <line class="st8" x1="-.2" y1="18" x2="72.2" y2="18"/>
        <line class="st8" x1="-.2" y1="32.4" x2="72.2" y2="32.4"/>
        <line class="st8" x1="-.2" y1="46.8" x2="72.2" y2="46.8"/>
        <line class="st8" x1="-.2" y1="61.2" x2="72.2" y2="61.2"/>
        <line class="st8" x1="-.2" y1="10.8" x2="72.2" y2="10.8"/>
        <line class="st8" x1="-.2" y1="25.2" x2="72.2" y2="25.2"/>
        <line class="st8" x1="-.2" y1="39.6" x2="72.2" y2="39.6"/>
        <line class="st8" x1="-.2" y1="54" x2="72.2" y2="54"/>
        <line class="st8" x1="-.2" y1="68.4" x2="72.2" y2="68.4"/>
        <line class="st8" x1="-72.2" y1="3.6" x2=".2" y2="3.6"/>
        <line class="st8" x1="-72.2" y1="18" x2=".2" y2="18"/>
        <line class="st8" x1="-72.2" y1="32.4" x2=".2" y2="32.4"/>
        <line class="st8" x1="-72.2" y1="46.8" x2=".2" y2="46.8"/>
        <line class="st8" x1="-72.2" y1="61.2" x2=".2" y2="61.2"/>
        <line class="st8" x1="-72.2" y1="10.8" x2=".2" y2="10.8"/>
        <line class="st8" x1="-72.2" y1="25.2" x2=".2" y2="25.2"/>
        <line class="st8" x1="-72.2" y1="39.6" x2=".2" y2="39.6"/>
        <line class="st8" x1="-72.2" y1="54" x2=".2" y2="54"/>
        <line class="st8" x1="-72.2" y1="68.4" x2=".2" y2="68.4"/>
      </g>
    </pattern>
    <pattern id="_10_lpi_10_-2" data-name=" 10 lpi 10 -2" x="0" y="0" width="72" height="72" patternTransform="translate(243.9 -11970.4) scale(1 -1)" patternUnits="userSpaceOnUse" viewBox="0 0 72 72">
      <g>
        <rect class="st0" width="72" height="72"/>
        <rect class="st0" width="72" height="72"/>
        <line class="st8" x1="71.8" y1="3.6" x2="144.2" y2="3.6"/>
        <line class="st8" x1="71.8" y1="18" x2="144.2" y2="18"/>
        <line class="st8" x1="71.8" y1="32.4" x2="144.2" y2="32.4"/>
        <line class="st8" x1="71.8" y1="46.8" x2="144.2" y2="46.8"/>
        <line class="st8" x1="71.8" y1="61.2" x2="144.2" y2="61.2"/>
        <line class="st8" x1="71.8" y1="10.8" x2="144.2" y2="10.8"/>
        <line class="st8" x1="71.8" y1="25.2" x2="144.2" y2="25.2"/>
        <line class="st8" x1="71.8" y1="39.6" x2="144.2" y2="39.6"/>
        <line class="st8" x1="71.8" y1="54" x2="144.2" y2="54"/>
        <line class="st8" x1="71.8" y1="68.4" x2="144.2" y2="68.4"/>
        <line class="st8" x1="-.2" y1="3.6" x2="72.2" y2="3.6"/>
        <line class="st8" x1="-.2" y1="18" x2="72.2" y2="18"/>
        <line class="st8" x1="-.2" y1="32.4" x2="72.2" y2="32.4"/>
        <line class="st8" x1="-.2" y1="46.8" x2="72.2" y2="46.8"/>
        <line class="st8" x1="-.2" y1="61.2" x2="72.2" y2="61.2"/>
        <line class="st8" x1="-.2" y1="10.8" x2="72.2" y2="10.8"/>
        <line class="st8" x1="-.2" y1="25.2" x2="72.2" y2="25.2"/>
        <line class="st8" x1="-.2" y1="39.6" x2="72.2" y2="39.6"/>
        <line class="st8" x1="-.2" y1="54" x2="72.2" y2="54"/>
        <line class="st8" x1="-.2" y1="68.4" x2="72.2" y2="68.4"/>
        <line class="st8" x1="-72.2" y1="3.6" x2=".2" y2="3.6"/>
        <line class="st8" x1="-72.2" y1="18" x2=".2" y2="18"/>
        <line class="st8" x1="-72.2" y1="32.4" x2=".2" y2="32.4"/>
        <line class="st8" x1="-72.2" y1="46.8" x2=".2" y2="46.8"/>
        <line class="st8" x1="-72.2" y1="61.2" x2=".2" y2="61.2"/>
        <line class="st8" x1="-72.2" y1="10.8" x2=".2" y2="10.8"/>
        <line class="st8" x1="-72.2" y1="25.2" x2=".2" y2="25.2"/>
        <line class="st8" x1="-72.2" y1="39.6" x2=".2" y2="39.6"/>
        <line class="st8" x1="-72.2" y1="54" x2=".2" y2="54"/>
        <line class="st8" x1="-72.2" y1="68.4" x2=".2" y2="68.4"/>
      </g>
    </pattern>
    <pattern id="_10_lpi_10_-3" data-name=" 10 lpi 10 -3" x="0" y="0" width="72" height="72" patternTransform="translate(243.9 -11970.4) scale(1 -1)" patternUnits="userSpaceOnUse" viewBox="0 0 72 72">
      <g>
        <rect class="st0" width="72" height="72"/>
        <rect class="st0" width="72" height="72"/>
        <line class="st8" x1="71.8" y1="3.6" x2="144.2" y2="3.6"/>
        <line class="st8" x1="71.8" y1="18" x2="144.2" y2="18"/>
        <line class="st8" x1="71.8" y1="32.4" x2="144.2" y2="32.4"/>
        <line class="st8" x1="71.8" y1="46.8" x2="144.2" y2="46.8"/>
        <line class="st8" x1="71.8" y1="61.2" x2="144.2" y2="61.2"/>
        <line class="st8" x1="71.8" y1="10.8" x2="144.2" y2="10.8"/>
        <line class="st8" x1="71.8" y1="25.2" x2="144.2" y2="25.2"/>
        <line class="st8" x1="71.8" y1="39.6" x2="144.2" y2="39.6"/>
        <line class="st8" x1="71.8" y1="54" x2="144.2" y2="54"/>
        <line class="st8" x1="71.8" y1="68.4" x2="144.2" y2="68.4"/>
        <line class="st8" x1="-.2" y1="3.6" x2="72.2" y2="3.6"/>
        <line class="st8" x1="-.2" y1="18" x2="72.2" y2="18"/>
        <line class="st8" x1="-.2" y1="32.4" x2="72.2" y2="32.4"/>
        <line class="st8" x1="-.2" y1="46.8" x2="72.2" y2="46.8"/>
        <line class="st8" x1="-.2" y1="61.2" x2="72.2" y2="61.2"/>
        <line class="st8" x1="-.2" y1="10.8" x2="72.2" y2="10.8"/>
        <line class="st8" x1="-.2" y1="25.2" x2="72.2" y2="25.2"/>
        <line class="st8" x1="-.2" y1="39.6" x2="72.2" y2="39.6"/>
        <line class="st8" x1="-.2" y1="54" x2="72.2" y2="54"/>
        <line class="st8" x1="-.2" y1="68.4" x2="72.2" y2="68.4"/>
        <line class="st8" x1="-72.2" y1="3.6" x2=".2" y2="3.6"/>
        <line class="st8" x1="-72.2" y1="18" x2=".2" y2="18"/>
        <line class="st8" x1="-72.2" y1="32.4" x2=".2" y2="32.4"/>
        <line class="st8" x1="-72.2" y1="46.8" x2=".2" y2="46.8"/>
        <line class="st8" x1="-72.2" y1="61.2" x2=".2" y2="61.2"/>
        <line class="st8" x1="-72.2" y1="10.8" x2=".2" y2="10.8"/>
        <line class="st8" x1="-72.2" y1="25.2" x2=".2" y2="25.2"/>
        <line class="st8" x1="-72.2" y1="39.6" x2=".2" y2="39.6"/>
        <line class="st8" x1="-72.2" y1="54" x2=".2" y2="54"/>
        <line class="st8" x1="-72.2" y1="68.4" x2=".2" y2="68.4"/>
      </g>
    </pattern>
    <pattern id="BRICKS" x="0" y="0" width="57.6" height="43.2" patternTransform="translate(-15818.2 5473.4) rotate(-90) scale(.7 -.5)" patternUnits="userSpaceOnUse" viewBox="0 0 57.6 43.2">
      <g>
        <rect class="st0" width="57.6" height="43.2"/>
        <rect class="st0" x="0" width="57.6" height="43.2"/>
        <line class="st7" x1="57.6" y1="42.4" x2="115.2" y2="42.4"/>
        <line class="st7" x1="57.6" y1="35.2" x2="115.2" y2="35.2"/>
        <line class="st7" x1="57.6" y1="28" x2="115.2" y2="28"/>
        <line class="st7" x1="57.6" y1="20.8" x2="115.2" y2="20.8"/>
        <line class="st7" x1="57.6" y1="13.6" x2="115.2" y2="13.6"/>
        <line class="st7" x1="57.6" y1="6.4" x2="115.2" y2="6.4"/>
        <line class="st8" x1="54" y1="35.2" x2="54" y2="28"/>
        <line class="st8" x1="39.6" y1="35.2" x2="39.6" y2="28"/>
        <line class="st8" x1="25.2" y1="35.2" x2="25.2" y2="28"/>
        <line class="st8" x1="10.8" y1="35.2" x2="10.8" y2="28"/>
        <line class="st8" x1="54" y1="20.8" x2="54" y2="13.6"/>
        <line class="st8" x1="39.6" y1="20.8" x2="39.6" y2="13.6"/>
        <line class="st8" x1="25.2" y1="20.8" x2="25.2" y2="13.6"/>
        <line class="st8" x1="10.8" y1="20.8" x2="10.8" y2="13.6"/>
        <line class="st8" x1="54" y1="6.4" x2="54" y2="-1"/>
        <line class="st8" x1="39.6" y1="6.4" x2="39.6" y2="-1"/>
        <line class="st8" x1="25.2" y1="6.4" x2="25.2" y2="-1"/>
        <line class="st8" x1="10.8" y1="6.4" x2="10.8" y2="-1"/>
        <line class="st8" x1="46.8" y1="13.6" x2="46.8" y2="6.4"/>
        <line class="st8" x1="32.4" y1="13.6" x2="32.4" y2="6.4"/>
        <line class="st8" x1="18" y1="13.6" x2="18" y2="6.4"/>
        <line class="st8" x1="3.6" y1="13.6" x2="3.6" y2="6.4"/>
        <line class="st8" x1="46.8" y1="28" x2="46.8" y2="20.8"/>
        <line class="st8" x1="32.4" y1="28" x2="32.4" y2="20.8"/>
        <line class="st8" x1="18" y1="28" x2="18" y2="20.8"/>
        <line class="st8" x1="3.6" y1="28" x2="3.6" y2="20.8"/>
        <line class="st8" x1="46.8" y1="42.4" x2="46.8" y2="35.2"/>
        <line class="st8" x1="32.4" y1="42.4" x2="32.4" y2="35.2"/>
        <line class="st8" x1="18" y1="42.4" x2="18" y2="35.2"/>
        <line class="st8" x1="3.6" y1="42.4" x2="3.6" y2="35.2"/>
        <line class="st7" x1="0" y1="42.4" x2="57.6" y2="42.4"/>
        <line class="st7" x1="0" y1="35.2" x2="57.6" y2="35.2"/>
        <line class="st7" x1="0" y1="28" x2="57.6" y2="28"/>
        <line class="st7" x1="0" y1="20.8" x2="57.6" y2="20.8"/>
        <line class="st7" x1="0" y1="13.6" x2="57.6" y2="13.6"/>
        <line class="st7" x1="0" y1="6.4" x2="57.6" y2="6.4"/>
        <line class="st7" x1="-57.6" y1="42.4" x2="0" y2="42.4"/>
        <line class="st7" x1="-57.6" y1="35.2" x2="0" y2="35.2"/>
        <line class="st7" x1="-57.6" y1="28" x2="0" y2="28"/>
        <line class="st7" x1="-57.6" y1="20.8" x2="0" y2="20.8"/>
        <line class="st7" x1="-57.6" y1="13.6" x2="0" y2="13.6"/>
        <line class="st7" x1="-57.6" y1="6.4" x2="0" y2="6.4"/>
        <line class="st8" x1="54" y1="49.6" x2="54" y2="42.2"/>
        <line class="st8" x1="39.6" y1="49.6" x2="39.6" y2="42.2"/>
        <line class="st8" x1="25.2" y1="49.6" x2="25.2" y2="42.2"/>
        <line class="st8" x1="10.8" y1="49.6" x2="10.8" y2="42.2"/>
      </g>
    </pattern>
    <pattern id="BRICKS-2" x="0" y="0" width="57.6" height="43.2" patternTransform="translate(-15815.1 5473.4) rotate(-90) scale(.7 -.5)" patternUnits="userSpaceOnUse" viewBox="0 0 57.6 43.2">
      <g>
        <rect class="st0" width="57.6" height="43.2"/>
        <rect class="st0" x="0" width="57.6" height="43.2"/>
        <line class="st7" x1="57.6" y1="42.4" x2="115.2" y2="42.4"/>
        <line class="st7" x1="57.6" y1="35.2" x2="115.2" y2="35.2"/>
        <line class="st7" x1="57.6" y1="28" x2="115.2" y2="28"/>
        <line class="st7" x1="57.6" y1="20.8" x2="115.2" y2="20.8"/>
        <line class="st7" x1="57.6" y1="13.6" x2="115.2" y2="13.6"/>
        <line class="st7" x1="57.6" y1="6.4" x2="115.2" y2="6.4"/>
        <line class="st8" x1="54" y1="35.2" x2="54" y2="28"/>
        <line class="st8" x1="39.6" y1="35.2" x2="39.6" y2="28"/>
        <line class="st8" x1="25.2" y1="35.2" x2="25.2" y2="28"/>
        <line class="st8" x1="10.8" y1="35.2" x2="10.8" y2="28"/>
        <line class="st8" x1="54" y1="20.8" x2="54" y2="13.6"/>
        <line class="st8" x1="39.6" y1="20.8" x2="39.6" y2="13.6"/>
        <line class="st8" x1="25.2" y1="20.8" x2="25.2" y2="13.6"/>
        <line class="st8" x1="10.8" y1="20.8" x2="10.8" y2="13.6"/>
        <line class="st8" x1="54" y1="6.4" x2="54" y2="-1"/>
        <line class="st8" x1="39.6" y1="6.4" x2="39.6" y2="-1"/>
        <line class="st8" x1="25.2" y1="6.4" x2="25.2" y2="-1"/>
        <line class="st8" x1="10.8" y1="6.4" x2="10.8" y2="-1"/>
        <line class="st8" x1="46.8" y1="13.6" x2="46.8" y2="6.4"/>
        <line class="st8" x1="32.4" y1="13.6" x2="32.4" y2="6.4"/>
        <line class="st8" x1="18" y1="13.6" x2="18" y2="6.4"/>
        <line class="st8" x1="3.6" y1="13.6" x2="3.6" y2="6.4"/>
        <line class="st8" x1="46.8" y1="28" x2="46.8" y2="20.8"/>
        <line class="st8" x1="32.4" y1="28" x2="32.4" y2="20.8"/>
        <line class="st8" x1="18" y1="28" x2="18" y2="20.8"/>
        <line class="st8" x1="3.6" y1="28" x2="3.6" y2="20.8"/>
        <line class="st8" x1="46.8" y1="42.4" x2="46.8" y2="35.2"/>
        <line class="st8" x1="32.4" y1="42.4" x2="32.4" y2="35.2"/>
        <line class="st8" x1="18" y1="42.4" x2="18" y2="35.2"/>
        <line class="st8" x1="3.6" y1="42.4" x2="3.6" y2="35.2"/>
        <line class="st7" x1="0" y1="42.4" x2="57.6" y2="42.4"/>
        <line class="st7" x1="0" y1="35.2" x2="57.6" y2="35.2"/>
        <line class="st7" x1="0" y1="28" x2="57.6" y2="28"/>
        <line class="st7" x1="0" y1="20.8" x2="57.6" y2="20.8"/>
        <line class="st7" x1="0" y1="13.6" x2="57.6" y2="13.6"/>
        <line class="st7" x1="0" y1="6.4" x2="57.6" y2="6.4"/>
        <line class="st7" x1="-57.6" y1="42.4" x2="0" y2="42.4"/>
        <line class="st7" x1="-57.6" y1="35.2" x2="0" y2="35.2"/>
        <line class="st7" x1="-57.6" y1="28" x2="0" y2="28"/>
        <line class="st7" x1="-57.6" y1="20.8" x2="0" y2="20.8"/>
        <line class="st7" x1="-57.6" y1="13.6" x2="0" y2="13.6"/>
        <line class="st7" x1="-57.6" y1="6.4" x2="0" y2="6.4"/>
        <line class="st8" x1="54" y1="49.6" x2="54" y2="42.2"/>
        <line class="st8" x1="39.6" y1="49.6" x2="39.6" y2="42.2"/>
        <line class="st8" x1="25.2" y1="49.6" x2="25.2" y2="42.2"/>
        <line class="st8" x1="10.8" y1="49.6" x2="10.8" y2="42.2"/>
      </g>
    </pattern>
    <pattern id="BRICKS-3" x="0" y="0" width="57.6" height="43.2" patternTransform="translate(-15812.5 5473.4) rotate(-90) scale(.7 -.5)" patternUnits="userSpaceOnUse" viewBox="0 0 57.6 43.2">
      <g>
        <rect class="st0" width="57.6" height="43.2"/>
        <rect class="st0" x="0" width="57.6" height="43.2"/>
        <line class="st7" x1="57.6" y1="42.4" x2="115.2" y2="42.4"/>
        <line class="st7" x1="57.6" y1="35.2" x2="115.2" y2="35.2"/>
        <line class="st7" x1="57.6" y1="28" x2="115.2" y2="28"/>
        <line class="st7" x1="57.6" y1="20.8" x2="115.2" y2="20.8"/>
        <line class="st7" x1="57.6" y1="13.6" x2="115.2" y2="13.6"/>
        <line class="st7" x1="57.6" y1="6.4" x2="115.2" y2="6.4"/>
        <line class="st8" x1="54" y1="35.2" x2="54" y2="28"/>
        <line class="st8" x1="39.6" y1="35.2" x2="39.6" y2="28"/>
        <line class="st8" x1="25.2" y1="35.2" x2="25.2" y2="28"/>
        <line class="st8" x1="10.8" y1="35.2" x2="10.8" y2="28"/>
        <line class="st8" x1="54" y1="20.8" x2="54" y2="13.6"/>
        <line class="st8" x1="39.6" y1="20.8" x2="39.6" y2="13.6"/>
        <line class="st8" x1="25.2" y1="20.8" x2="25.2" y2="13.6"/>
        <line class="st8" x1="10.8" y1="20.8" x2="10.8" y2="13.6"/>
        <line class="st8" x1="54" y1="6.4" x2="54" y2="-1"/>
        <line class="st8" x1="39.6" y1="6.4" x2="39.6" y2="-1"/>
        <line class="st8" x1="25.2" y1="6.4" x2="25.2" y2="-1"/>
        <line class="st8" x1="10.8" y1="6.4" x2="10.8" y2="-1"/>
        <line class="st8" x1="46.8" y1="13.6" x2="46.8" y2="6.4"/>
        <line class="st8" x1="32.4" y1="13.6" x2="32.4" y2="6.4"/>
        <line class="st8" x1="18" y1="13.6" x2="18" y2="6.4"/>
        <line class="st8" x1="3.6" y1="13.6" x2="3.6" y2="6.4"/>
        <line class="st8" x1="46.8" y1="28" x2="46.8" y2="20.8"/>
        <line class="st8" x1="32.4" y1="28" x2="32.4" y2="20.8"/>
        <line class="st8" x1="18" y1="28" x2="18" y2="20.8"/>
        <line class="st8" x1="3.6" y1="28" x2="3.6" y2="20.8"/>
        <line class="st8" x1="46.8" y1="42.4" x2="46.8" y2="35.2"/>
        <line class="st8" x1="32.4" y1="42.4" x2="32.4" y2="35.2"/>
        <line class="st8" x1="18" y1="42.4" x2="18" y2="35.2"/>
        <line class="st8" x1="3.6" y1="42.4" x2="3.6" y2="35.2"/>
        <line class="st7" x1="0" y1="42.4" x2="57.6" y2="42.4"/>
        <line class="st7" x1="0" y1="35.2" x2="57.6" y2="35.2"/>
        <line class="st7" x1="0" y1="28" x2="57.6" y2="28"/>
        <line class="st7" x1="0" y1="20.8" x2="57.6" y2="20.8"/>
        <line class="st7" x1="0" y1="13.6" x2="57.6" y2="13.6"/>
        <line class="st7" x1="0" y1="6.4" x2="57.6" y2="6.4"/>
        <line class="st7" x1="-57.6" y1="42.4" x2="0" y2="42.4"/>
        <line class="st7" x1="-57.6" y1="35.2" x2="0" y2="35.2"/>
        <line class="st7" x1="-57.6" y1="28" x2="0" y2="28"/>
        <line class="st7" x1="-57.6" y1="20.8" x2="0" y2="20.8"/>
        <line class="st7" x1="-57.6" y1="13.6" x2="0" y2="13.6"/>
        <line class="st7" x1="-57.6" y1="6.4" x2="0" y2="6.4"/>
        <line class="st8" x1="54" y1="49.6" x2="54" y2="42.2"/>
        <line class="st8" x1="39.6" y1="49.6" x2="39.6" y2="42.2"/>
        <line class="st8" x1="25.2" y1="49.6" x2="25.2" y2="42.2"/>
        <line class="st8" x1="10.8" y1="49.6" x2="10.8" y2="42.2"/>
      </g>
    </pattern>
  </defs>
  <g id="Hatch">
    <polygon class="st11" points="276.7 256.9 279.4 257 279.5 263.3 338.9 263.2 339 257 342.2 256.9 342.2 252.8 457.7 252.9 457.7 294.5 132 294.5 132 192.8 276 192.5 276.7 256.9"/>
    <rect class="st11" x="280" y="192.8" width="58.8" height="70.7"/>
  </g>
  <g id="Below">
    <line class="st6" x1="129.4" y1="534" x2="129.4" y2="415"/>
    <polyline class="st6" points="458 403.8 340.3 403.8 340.3 416.9 458 416.9"/>
    <line class="st6" x1="659.5" y1="378.4" x2="670.9" y2="378.4"/>
    <line class="st6" x1="659.5" y1="379.7" x2="670.9" y2="379.7"/>
    <line class="st6" x1="659.5" y1="350.4" x2="670.9" y2="350.4"/>
    <line class="st6" x1="659.5" y1="351.6" x2="670.9" y2="351.6"/>
    <line class="st6" x1="659.5" y1="322.4" x2="670.9" y2="322.4"/>
    <line class="st6" x1="659.5" y1="323.6" x2="670.9" y2="323.6"/>
    <line class="st6" x1="659.5" y1="294.4" x2="670.9" y2="294.4"/>
    <line class="st6" x1="659.5" y1="295.6" x2="670.9" y2="295.6"/>
    <line class="st6" x1="659.5" y1="266.4" x2="670.9" y2="266.4"/>
    <line class="st6" x1="659.5" y1="267.6" x2="670.9" y2="267.6"/>
    <line class="st6" x1="659.5" y1="238.4" x2="670.9" y2="238.4"/>
    <line class="st6" x1="659.5" y1="239.6" x2="670.9" y2="239.6"/>
    <line class="st6" x1="659.5" y1="210.4" x2="670.9" y2="210.4"/>
    <line class="st6" x1="659.5" y1="211.6" x2="670.9" y2="211.6"/>
    <line class="st6" x1="659.5" y1="196" x2="659.6" y2="408.8"/>
    <line class="st6" x1="659.5" y1="197.2" x2="670.9" y2="197.2"/>
    <line class="st6" x1="659.5" y1="196" x2="670.9" y2="196"/>
    <line class="st6" x1="671" y1="407.5" x2="659.6" y2="407.5"/>
    <line class="st6" x1="671" y1="408.8" x2="659.6" y2="408.8"/>
    <line class="st6" x1="588.3" y1="378.4" x2="599.8" y2="378.4"/>
    <line class="st6" x1="588.3" y1="379.7" x2="599.8" y2="379.7"/>
    <line class="st6" x1="588.3" y1="350.4" x2="599.8" y2="350.4"/>
    <line class="st6" x1="588.3" y1="351.6" x2="599.8" y2="351.6"/>
    <line class="st6" x1="588.3" y1="322.4" x2="599.8" y2="322.4"/>
    <line class="st6" x1="588.3" y1="323.6" x2="599.8" y2="323.6"/>
    <line class="st6" x1="588.3" y1="294.4" x2="599.8" y2="294.4"/>
    <line class="st6" x1="588.3" y1="295.6" x2="599.8" y2="295.6"/>
    <line class="st6" x1="588.3" y1="266.4" x2="599.8" y2="266.4"/>
    <line class="st6" x1="588.3" y1="267.6" x2="599.8" y2="267.6"/>
    <line class="st6" x1="588.3" y1="238.4" x2="599.8" y2="238.4"/>
    <line class="st6" x1="588.3" y1="239.6" x2="599.8" y2="239.6"/>
    <line class="st6" x1="588.3" y1="210.4" x2="599.8" y2="210.4"/>
    <line class="st6" x1="588.3" y1="211.6" x2="599.8" y2="211.6"/>
    <line class="st6" x1="588.3" y1="196" x2="588.4" y2="408.8"/>
    <line class="st6" x1="588.3" y1="197.2" x2="599.8" y2="197.2"/>
    <line class="st6" x1="588.3" y1="196" x2="599.8" y2="196"/>
    <line class="st6" x1="599.9" y1="407.5" x2="588.4" y2="407.5"/>
    <line class="st6" x1="599.9" y1="408.8" x2="588.4" y2="408.8"/>
    <line class="st6" x1="517.5" y1="378.4" x2="529" y2="378.4"/>
    <line class="st6" x1="517.5" y1="379.7" x2="529" y2="379.7"/>
    <line class="st6" x1="517.5" y1="350.4" x2="529" y2="350.4"/>
    <line class="st6" x1="517.5" y1="351.6" x2="529" y2="351.6"/>
    <line class="st6" x1="517.5" y1="322.4" x2="529" y2="322.4"/>
    <line class="st6" x1="517.5" y1="323.6" x2="529" y2="323.6"/>
    <line class="st6" x1="517.5" y1="294.4" x2="529" y2="294.4"/>
    <line class="st6" x1="517.5" y1="295.6" x2="529" y2="295.6"/>
    <line class="st6" x1="517.5" y1="266.4" x2="529" y2="266.4"/>
    <line class="st6" x1="517.5" y1="267.6" x2="529" y2="267.6"/>
    <line class="st6" x1="517.5" y1="238.4" x2="529" y2="238.4"/>
    <line class="st6" x1="517.5" y1="239.6" x2="529" y2="239.6"/>
    <line class="st6" x1="529.1" y1="407.5" x2="517.6" y2="407.5"/>
    <line class="st6" x1="606.9" y1="412.2" x2="600" y2="412.2"/>
    <line class="st6" x1="536" y1="412.2" x2="529.1" y2="412.2"/>
    <line class="st6" x1="529.1" y1="408.8" x2="517.6" y2="408.8"/>
    <line class="st6" x1="517.5" y1="196" x2="517.6" y2="408.8"/>
    <line class="st6" x1="517.5" y1="189.7" x2="517.5" y2="189.7"/>
    <line class="st6" x1="517.5" y1="196" x2="529" y2="196"/>
    <line class="st6" x1="517.5" y1="197.2" x2="529" y2="197.2"/>
    <line class="st6" x1="514.4" y1="197.2" x2="514.4" y2="197.2"/>
    <line class="st6" x1="599.9" y1="192.5" x2="606.8" y2="192.5"/>
    <line class="st6" x1="529" y1="192.5" x2="535.9" y2="192.5"/>
    <line class="st6" x1="517.5" y1="211.6" x2="529" y2="211.6"/>
    <line class="st6" x1="517.5" y1="210.4" x2="529" y2="210.4"/>
    <line class="st6" x1="606.8" y1="189.7" x2="606.9" y2="415"/>
    <line class="st6" x1="535.9" y1="189.7" x2="536" y2="415"/>
    <path class="st6" d="M580.9,421.2c0-.3,0-.6-.2-.9-.1-.3-.3-.6-.5-.8s-.5-.4-.8-.5c-.3-.1-.6-.2-.9-.2s-.6,0-.9.2c-.3.1-.6.3-.8.5s-.4.5-.5.8c-.1.3-.2.6-.2.9s0,.6.2.9c.1.3.3.6.5.8.2.2.5.4.8.5.3.1.6.2.9.2s.6,0,.9-.2c.3-.1.6-.3.8-.5.2-.2.4-.5.5-.8.1-.3.2-.6.2-.9Z"/>
    <polyline class="st6" points="514.3 427.5 630.2 427.5 630.2 415.2"/>
    <path class="st6" d="M574,421.2c0-.3,0-.6-.2-.9-.1-.3-.3-.6-.5-.8s-.5-.4-.8-.5c-.3-.1-.6-.2-.9-.2s-.6,0-.9.2c-.3.1-.6.3-.8.5s-.4.5-.5.8c-.1.3-.2.6-.2.9s0,.6.2.9c.1.3.3.6.5.8s.5.4.8.5c.3.1.6.2.9.2s.6,0,.9-.2c.3-.1.6-.3.8-.5s.4-.5.5-.8c.1-.3.2-.6.2-.9Z"/>
    <line class="st6" x1="655.6" y1="803.2" x2="655.6" y2="696.7"/>
    <line class="st6" x1="559.7" y1="698.2" x2="559.7" y2="696.7"/>
    <line class="st6" x1="559.7" y1="803.4" x2="559.7" y2="716.6"/>
    <line class="st6" x1="655.6" y1="715.5" x2="668.1" y2="715.5"/>
    <path class="st6" d="M664.2,710.8c0-.3,0-.6-.2-.9-.1-.3-.3-.6-.5-.8s-.5-.4-.8-.5c-.3-.1-.6-.2-.9-.2s-.6,0-.9.2c-.3.1-.6.3-.8.5-.2.2-.4.5-.5.8-.1.3-.2.6-.2.9s0,.6.2.9c.1.3.3.6.5.8s.5.4.8.5c.3.1.6.2.9.2s.6,0,.9-.2c.3-.1.6-.3.8-.5s.4-.5.5-.8c.1-.3.2-.6.2-.9Z"/>
    <line class="st6" x1="463.9" y1="803.2" x2="463.9" y2="696.7"/>
    <line class="st6" x1="364" y1="803.4" x2="448.6" y2="803.4"/>
    <line class="st6" x1="448.6" y1="803.4" x2="448.5" y2="696.7"/>
    <polyline class="st6" points="670.9 696.7 670.9 806.3 448.6 806.3"/>
    <polyline class="st6" points="668.1 696.7 668.1 803.4 451.4 803.4 451.3 696.7"/>
    <polyline class="st6" points="364 806.3 129.4 806.2 129.4 696.7"/>
    <line class="st6" x1="364" y1="696.7" x2="364" y2="803.4"/>
    <polyline class="st6" points="361.2 696.7 361.2 803.4 132.2 803.4 132.2 696.7"/>
    <path class="st6" d="M573.3,529.4c.2-.2.3-.4.5-.6.1-.2.2-.5.2-.8s0-.5,0-.8c0-.2-.2-.5-.3-.7-.1-.2-.3-.4-.5-.6-.2-.2-.5-.3-.7-.4s-.5-.1-.8-.1c-.3,0-.5,0-.8.2-.2,0-.5.2-.7.4-.2.2-.4.4-.5.6s-.2.5-.3.8c0,.2,0,.5,0,.8s.1.5.2.7c.1.2.3.5.5.7.2.2.4.3.7.4.2,0,.5.2.8.2"/>
    <path class="st6" d="M580.6,526.6c-.3-.5-.7-.9-1.2-1.1-.5-.2-1.1-.2-1.7,0s-1,.6-1.2,1.1c-.3.5-.3,1.1-.2,1.6"/>
    <line class="st6" x1="511.5" y1="415" x2="511.5" y2="534"/>
    <line class="st6" x1="288.6" y1="521.5" x2="511.5" y2="521.5"/>
    <line class="st6" x1="514.3" y1="521.5" x2="594.3" y2="521.5"/>
    <line class="st6" x1="342.2" y1="405.7" x2="342.2" y2="415"/>
    <line class="st6" x1="132.2" y1="307.1" x2="457.9" y2="307.1"/>
    <line class="st6" x1="132.2" y1="294.5" x2="457.9" y2="294.5"/>
    <line class="st6" x1="342.2" y1="252.8" x2="457.9" y2="252.8"/>
    <polyline class="st6" points="288.6 534 288.6 412.2 132.2 412.2 132.2 192.5 276.5 192.5"/>
    <polyline class="st6" points="342.2 405.7 456.1 405.7 456.1 415 342.2 415"/>
    <line class="st6" x1="188.1" y1="524.2" x2="188.1" y2="521.5"/>
    <path class="st6" d="M235.9,527.7c0-.3,0-.6-.2-.9-.1-.3-.3-.6-.5-.8s-.5-.4-.8-.5c-.3-.1-.6-.2-.9-.2s-.6,0-.9.2c-.3.1-.6.3-.8.5-.2.2-.4.5-.5.8-.1.3-.2.6-.2.9s0,.6.2.9c.1.3.3.6.5.8s.5.4.8.5c.3.1.6.2.9.2s.6,0,.9-.2c.3-.1.6-.3.8-.5s.4-.5.5-.8c.1-.3.2-.6.2-.9Z"/>
    <path class="st6" d="M242.9,527.7c0-.3,0-.6-.2-.9-.1-.3-.3-.6-.5-.8s-.5-.4-.8-.5c-.3-.1-.6-.2-.9-.2s-.6,0-.9.2c-.3.1-.6.3-.8.5-.2.2-.4.5-.5.8-.1.3-.2.6-.2.9s0,.6.2.9c.1.3.3.6.5.8s.5.4.8.5c.3.1.6.2.9.2s.6,0,.9-.2c.3-.1.6-.3.8-.5s.4-.5.5-.8c.1-.3.2-.6.2-.9Z"/>
    <line class="st6" x1="188.1" y1="521.5" x2="285.8" y2="521.5"/>
    <line class="st6" x1="463.9" y1="715.5" x2="451.3" y2="715.5"/>
    <path class="st6" d="M460,710.8c0-.3,0-.6-.2-.9-.1-.3-.3-.6-.5-.8s-.5-.4-.8-.5c-.3-.1-.6-.2-.9-.2s-.6,0-.9.2c-.3.1-.6.3-.8.5-.2.2-.4.5-.5.8-.1.3-.2.6-.2.9s0,.6.2.9c.1.3.3.6.5.8.2.2.5.4.8.5.3.1.6.2.9.2s.6,0,.9-.2c.3-.1.6-.3.8-.5.2-.2.4-.5.5-.8.1-.3.2-.6.2-.9Z"/>
    <line class="st6" x1="249.3" y1="294.5" x2="249.3" y2="307.1"/>
    <path class="st6" d="M247,300.8c0-.3,0-.6-.2-.9-.1-.3-.3-.6-.5-.8s-.5-.4-.8-.5c-.3-.1-.6-.2-.9-.2s-.6,0-.9.2c-.3.1-.6.3-.8.5s-.4.5-.5.8c-.1.3-.2.6-.2.9s0,.6.2.9c.1.3.3.6.5.8s.5.4.8.5c.3.1.6.2.9.2s.6,0,.9-.2c.3-.1.6-.3.8-.5s.4-.5.5-.8c.1-.3.2-.6.2-.9Z"/>
    <line class="st6" x1="230.5" y1="294.5" x2="230.5" y2="307.1"/>
    <path class="st6" d="M237.6,300.8c0-.3,0-.6-.2-.9-.1-.3-.3-.6-.5-.8s-.5-.4-.8-.5c-.3-.1-.6-.2-.9-.2s-.6,0-.9.2c-.3.1-.6.3-.8.5s-.4.5-.5.8c-.1.3-.2.6-.2.9s0,.6.2.9c.1.3.3.6.5.8s.5.4.8.5c.3.1.6.2.9.2s.6,0,.9-.2c.3-.1.6-.3.8-.5s.4-.5.5-.8c.1-.3.2-.6.2-.9Z"/>
    <line class="st6" x1="656.3" y1="189.7" x2="656.5" y2="415"/>
    <line class="st6" x1="585.2" y1="189.7" x2="585.3" y2="415"/>
    <line class="st6" x1="514.4" y1="189.7" x2="514.5" y2="414.8"/>
    <line class="st6" x1="342.1" y1="192.8" x2="457.9" y2="192.8"/>
    <line class="st6" x1="342.1" y1="189.7" x2="457.9" y2="189.7"/>
    <line class="st6" x1="364" y1="806.3" x2="448.6" y2="806.3"/>
    <line class="st6" x1="670.9" y1="534" x2="670.9" y2="415"/>
    <line class="st6" x1="667.7" y1="534" x2="667.7" y2="415"/>
    <line class="st6" x1="132.6" y1="534" x2="132.6" y2="415"/>
    <rect class="st6" x="471.8" y="698.2" width="89.8" height="18.4"/>
    <rect class="st6" x="473.7" y="700.1" width="86" height="14.6"/>
    <line class="st6" x1="529" y1="189.7" x2="529.1" y2="415"/>
    <line class="st6" x1="599.9" y1="189.7" x2="600" y2="415"/>
    <line class="st6" x1="457.9" y1="249.9" x2="458" y2="416.9"/>
    <line class="st6" x1="514.3" y1="415" x2="458" y2="415"/>
    <polyline class="st6" points="285.8 534 285.8 415 129.4 415 129.4 189.7 342.2 189.7 342.2 249.9 457.9 249.9 458 189.7 670.9 189.7 670.9 415 514.3 415 514.3 534"/>
    <line class="st6" x1="340.4" y1="412.2" x2="288.6" y2="412.2"/>
    <polygon class="st11" points="457.7 403.5 340.1 403.9 340.1 412.1 132 412.1 132 306.9 457.5 306.9 457.7 403.5"/>
    <polygon class="st11" points="511.5 415.1 458 415.1 458 416.9 340.3 416.9 340.1 412.3 288.6 412.4 288.7 521.4 511.2 521.7 511.5 415.1"/>
    <polygon class="st13" points="559.6 696.8 559.7 698.1 561.6 698.2 561.5 716.6 559.7 716.6 559.8 803.4 655.4 803.4 655.5 697 559.6 696.8"/>
    <polygon class="st14" points="559.8 696.8 559.7 698.2 471.9 698.3 471.9 716.6 559.7 716.7 559.7 803.4 464 803.4 463.9 697 559.8 696.8"/>
    <polygon class="st12" points="529.1 415 458 415.1 458 189.7 529 189.7 529 196 517.1 196.1 517.6 408.9 529 408.8 529.1 415"/>
    <polygon class="st9" points="600.2 415 536 415.1 535.9 189.7 600.1 189.7 600.1 196 588.2 196.1 588.7 408.9 600.1 408.8 600.2 415"/>
    <polygon class="st10" points="670.9 415 606.6 415.1 606.6 189.7 670.8 189.7 670.8 196 658.9 196.1 659.4 408.9 670.8 408.8 670.9 415"/>
  </g>
  <g id="Wall">
    <path class="st2" d="M135.7,540.2v150.2"/>
    <line class="st2" x1="211.9" y1="540.2" x2="214.2" y2="534"/>
    <line class="st2" x1="214.2" y1="534" x2="232.7" y2="534"/>
    <path class="st2" d="M467.4,540.2v-6.2"/>
    <path class="st2" d="M336,540.2h131.5"/>
    <path class="st2" d="M336,534v6.2"/>
    <path class="st2" d="M467.4,534h-131.5"/>
    <path class="st2" d="M232.7,534h56.9"/>
    <path class="st2" d="M514.4,540.2h49"/>
    <path class="st2" d="M514.4,576.2v-36"/>
    <path class="st2" d="M511.3,534h49.8"/>
    <path class="st2" d="M511.3,576.2v-42.3"/>
    <line class="st2" x1="514.4" y1="576.2" x2="511.3" y2="576.2"/>
    <path class="st2" d="M336,690.5v6.3"/>
    <path class="st2" d="M511.3,690.5h-175.3"/>
    <line class="st2" x1="511.3" y1="690.5" x2="511.3" y2="651.3"/>
    <line class="st2" x1="514.4" y1="651.3" x2="511.3" y2="651.3"/>
    <line class="st2" x1="587.9" y1="606" x2="587.9" y2="624.7"/>
    <line class="st2" x1="591.1" y1="602.8" x2="591.1" y2="621.6"/>
    <line class="st2" x1="664.6" y1="624.7" x2="587.9" y2="624.7"/>
    <path class="st2" d="M664.6,540.2h-42.7"/>
    <path class="st2" d="M664.6,621.6v-81.4"/>
    <path class="st2" d="M591.1,621.6h73.5"/>
    <polyline class="st2" points="511.3 602.8 511.3 601.3 514.4 601.3 514.4 602.8"/>
    <path class="st2" d="M591.1,602.8h-76.7"/>
    <line class="st2" x1="514.4" y1="626.3" x2="511.3" y2="626.3"/>
    <path class="st2" d="M514.4,606v20.3"/>
    <path class="st2" d="M587.9,606h-73.5"/>
    <path class="st2" d="M511.3,624.7v1.6"/>
    <path class="st2" d="M511.3,602.8v21.9"/>
    <line class="st2" x1="286.5" y1="576.2" x2="286.5" y2="576.2"/>
    <line class="st2" x1="264" y1="600.4" x2="264" y2="597.2"/>
    <path class="st2" d="M229.6,600.4c1,0,12.5,0,34.4,0"/>
    <path class="st2" d="M229.6,540.2v60.1"/>
    <path class="st2" d="M211.9,540.2h17.7"/>
    <path class="st2" d="M289.7,534h-75.5"/>
    <path class="st2" d="M289.7,600.4v-66.4"/>
    <path class="st2" d="M286.5,600.4h3.1"/>
    <path class="st2" d="M286.5,540.2v60.1"/>
    <path class="st2" d="M232.7,540.2h53.8"/>
    <path class="st2" d="M232.7,597.2v-57"/>
    <path class="st2" d="M229.6,690.5v-58.8"/>
    <path class="st2" d="M135.7,690.5h93.9"/>
    <path class="st2" d="M153.4,540.2h-17.7"/>
    <line class="st2" x1="264" y1="634.8" x2="264" y2="631.7"/>
    <path class="st2" d="M289.7,696.7c-19,0-38,0-56.9,0"/>
    <path class="st2" d="M289.7,631.7v65.1"/>
    <path class="st2" d="M232.7,690.5v-55.7"/>
    <path class="st2" d="M286.5,690.5c-17.9,0-35.9,0-53.8,0"/>
    <path class="st2" d="M286.5,631.7v58.8"/>
    <line class="st2" x1="627" y1="690.5" x2="627" y2="696.7"/>
    <line class="st2" x1="545.7" y1="690.5" x2="545.7" y2="696.7"/>
    <path class="st2" d="M514.4,690.5h31.3"/>
    <path class="st2" d="M514.4,651.3v39.1"/>
    <path class="st2" d="M664.6,690.5v-65.7"/>
    <path class="st2" d="M627,690.5h37.6"/>
    <path class="st2" d="M670.9,696.7h-43.8"/>
    <path class="st2" d="M670.9,534v162.8"/>
    <path class="st2" d="M622.9,534h47.9"/>
    <line class="st2" x1="336" y1="696.7" x2="545.7" y2="696.7"/>
    <polyline class="st2" points="622.9 534 615.5 513.5 612.6 514.6"/>
    <path class="st2" d="M232.7,597.2c3,0,13.5,0,31.3,0"/>
    <path class="st2" d="M286.5,631.7h3.1"/>
    <path class="st2" d="M229.6,631.7h34.4"/>
    <path class="st2" d="M232.7,634.8h31.3"/>
    <polyline class="st2" points="232.7 696.7 129.4 696.7 129.4 534 152.4 534"/>
    <polyline class="st2" points="152.4 534 159.8 513.5 162.7 514.6"/>
    <line class="st2" x1="153.4" y1="540.2" x2="162.7" y2="514.6"/>
    <line class="st2" x1="561.1" y1="534" x2="561.3" y2="534.6"/>
    <line class="st2" x1="621.9" y1="540.2" x2="612.6" y2="514.6"/>
    <line class="st2" x1="563.4" y1="540.2" x2="561.1" y2="534"/>
  </g>
  <g id="Window_Door_Stairs">
    <line class="st3" x1="458.7" y1="540.2" x2="458.7" y2="574.7"/>
    <line class="st3" x1="162.7" y1="514.6" x2="214.2" y2="534"/>
    <line class="st3" x1="176.3" y1="523.1" x2="177.4" y2="520.1"/>
    <line class="st3" x1="599" y1="523.1" x2="597.9" y2="520.1"/>
    <line class="st3" x1="613.7" y1="517.5" x2="562.2" y2="536.9"/>
    <line class="st3" x1="612.6" y1="514.6" x2="561.1" y2="534"/>
    <line class="st3" x1="344.8" y1="540.2" x2="344.8" y2="574.7"/>
    <line class="st3" x1="353.5" y1="540.2" x2="353.5" y2="574.7"/>
    <line class="st3" x1="362.3" y1="540.2" x2="362.3" y2="574.7"/>
    <line class="st3" x1="371" y1="540.2" x2="371" y2="574.7"/>
    <line class="st3" x1="379.8" y1="540.2" x2="379.8" y2="574.7"/>
    <line class="st3" x1="388.6" y1="540.2" x2="388.6" y2="574.7"/>
    <line class="st3" x1="397.3" y1="540.2" x2="397.3" y2="574.7"/>
    <line class="st3" x1="406.1" y1="540.2" x2="406.1" y2="574.7"/>
    <line class="st3" x1="423.6" y1="540.2" x2="423.6" y2="574.7"/>
    <line class="st3" x1="414.9" y1="540.2" x2="414.9" y2="574.7"/>
    <line class="st3" x1="432.4" y1="540.2" x2="432.4" y2="574.7"/>
    <line class="st3" x1="441.1" y1="540.2" x2="441.1" y2="574.7"/>
    <line class="st3" x1="449.9" y1="540.2" x2="449.9" y2="574.7"/>
    <polyline class="st3" points="356.8 700.8 356.8 799.2 136.6 799.2 136.6 700.8"/>
    <line class="st3" x1="467.4" y1="540.2" x2="467.4" y2="574.7"/>
    <line class="st3" x1="336" y1="696.7" x2="289.7" y2="696.7"/>
    <line class="st3" x1="545.7" y1="690.5" x2="627" y2="690.5"/>
    <line class="st3" x1="511.3" y1="534" x2="467.4" y2="534"/>
    <line class="st3" x1="336" y1="534" x2="289.7" y2="534"/>
    <line class="st3" x1="627" y1="696.7" x2="545.7" y2="696.7"/>
    <line class="st3" x1="336" y1="540.2" x2="336" y2="574.7"/>
    <line class="st3" x1="511.3" y1="540.2" x2="467.4" y2="540.2"/>
    <line class="st3" x1="336" y1="540.2" x2="289.7" y2="540.2"/>
    <polyline class="st5" points="339.1 257 342.2 257 342.2 189.7 276.5 189.7 276.5 257"/>
    <line class="st5" x1="276.5" y1="257" x2="279.6" y2="257"/>
    <rect class="st5" x="279.6" y="192.8" width="59.4" height="70.4"/>
    <rect class="st5" x="457.7" y="189.5" width="213.3" height="225.6"/>
    <line class="st3" x1="511.3" y1="574.7" x2="467.4" y2="574.7"/>
    <line class="st3" x1="336" y1="690.5" x2="289.7" y2="690.5"/>
    <line class="st3" x1="161.6" y1="517.5" x2="213.1" y2="536.9"/>
    <line class="st3" x1="585.5" y1="189.2" x2="585.5" y2="415.1"/>
    <line class="st3" x1="514.5" y1="189.2" x2="514.5" y2="415.1"/>
    <line class="st3" x1="656.2" y1="189.2" x2="656.2" y2="415.1"/>
    <line class="st3" x1="606.6" y1="189.2" x2="606.6" y2="415.1"/>
    <line class="st3" x1="600.4" y1="189.2" x2="600.4" y2="415.1"/>
    <line class="st3" x1="536" y1="189.2" x2="536" y2="415.1"/>
    <line class="st3" x1="529.3" y1="189.2" x2="529.3" y2="415.1"/>
  </g>
  <g id="Accessory">
    <line class="st4" x1="587.9" y1="624.7" x2="514.4" y2="624.7"/>
    <path class="st4" d="M135.4,748c0,0,0-.2,0-.3,0,0-.1-.2-.2-.3s-.2-.1-.3-.2c0,0-.2,0-.3,0s-.2,0-.3,0c-.1,0-.2,0-.3.2s-.1.2-.2.3c0,0,0,.2,0,.3s0,.2,0,.3c0,0,.1.2.2.3,0,0,.2.1.3.2,0,0,.2,0,.3,0s.2,0,.3,0c.1,0,.2,0,.3-.2,0,0,.1-.2.2-.3,0,0,0-.2,0-.3Z"/>
    <path class="st4" d="M359.6,801.1c0,0,0-.2,0-.3,0,0-.1-.2-.2-.3,0,0-.2-.1-.3-.2,0,0-.2,0-.3,0s-.2,0-.3,0c-.1,0-.2,0-.3.2,0,0-.1.2-.2.3,0,0,0,.2,0,.3s0,.2,0,.3c0,0,.1.2.2.3,0,0,.2.1.3.2,0,0,.2,0,.3,0s.2,0,.3,0c.1,0,.2,0,.3-.2,0,0,.1-.2.2-.3,0,0,0-.2,0-.3Z"/>
    <path class="st4" d="M210.4,796.9c0,0,0-.2,0-.3,0,0-.1-.2-.2-.3,0,0-.2-.1-.3-.2,0,0-.2,0-.3,0s-.2,0-.3,0c-.1,0-.2,0-.3.2,0,0-.1.2-.2.3,0,0,0,.2,0,.3s0,.2,0,.3c0,0,.1.2.2.3,0,0,.2.1.3.2,0,0,.2,0,.3,0s.2,0,.3,0c.1,0,.2,0,.3-.2,0,0,.1-.2.2-.3,0,0,0-.2,0-.3Z"/>
    <path class="st4" d="M139.6,700.8c0,0,0-.2,0-.3,0,0-.1-.2-.2-.3,0,0-.2-.1-.3-.2,0,0-.2,0-.3,0s-.2,0-.3,0c-.1,0-.2,0-.3.2s-.1.2-.2.3c0,0,0,.2,0,.3s0,.2,0,.3c0,0,.1.2.2.3,0,0,.2.1.3.2,0,0,.2,0,.3,0s.2,0,.3,0c.1,0,.2,0,.3-.2s.1-.2.2-.3c0,0,0-.2,0-.3Z"/>
    <line class="st4" x1="467.4" y1="576.2" x2="289.7" y2="576.2"/>
    <line class="st4" x1="467.4" y1="574.7" x2="467.4" y2="576.2"/>
    <line class="st4" x1="563.4" y1="540.2" x2="621.9" y2="540.2"/>
    <path class="st4" d="M139.6,796.9c0,0,0-.2,0-.3,0,0-.1-.2-.2-.3,0,0-.2-.1-.3-.2,0,0-.2,0-.3,0s-.2,0-.3,0c-.1,0-.2,0-.3.2s-.1.2-.2.3c0,0,0,.2,0,.3s0,.2,0,.3c0,0,.1.2.2.3,0,0,.2.1.3.2,0,0,.2,0,.3,0s.2,0,.3,0c.1,0,.2,0,.3-.2s.1-.2.2-.3c0,0,0-.2,0-.3Z"/>
    <path class="st4" d="M284.6,801.1c0,0,0-.2,0-.3,0,0-.1-.2-.2-.3,0,0-.2-.1-.3-.2,0,0-.2,0-.3,0s-.2,0-.3,0c-.1,0-.2,0-.3.2s-.1.2-.2.3c0,0,0,.2,0,.3s0,.2,0,.3c0,0,.1.2.2.3,0,0,.2.1.3.2,0,0,.2,0,.3,0s.2,0,.3,0c.1,0,.2,0,.3-.2,0,0,.1-.2.2-.3,0,0,0-.2,0-.3Z"/>
    <path class="st4" d="M210.4,801.1c0,0,0-.2,0-.3,0,0-.1-.2-.2-.3s-.2-.1-.3-.2c0,0-.2,0-.3,0s-.2,0-.3,0c-.1,0-.2,0-.3.2,0,0-.1.2-.2.3,0,0,0,.2,0,.3s0,.2,0,.3c0,0,.1.2.2.3,0,0,.2.1.3.2,0,0,.2,0,.3,0s.2,0,.3,0c.1,0,.2,0,.3-.2s.1-.2.2-.3c0,0,0-.2,0-.3Z"/>
    <path class="st4" d="M359.6,700.8c0,0,0-.2,0-.3,0,0-.1-.2-.2-.3s-.2-.1-.3-.2c0,0-.2,0-.3,0s-.2,0-.3,0c-.1,0-.2,0-.3.2,0,0-.1.2-.2.3,0,0,0,.2,0,.3s0,.2,0,.3c0,0,.1.2.2.3,0,0,.2.1.3.2,0,0,.2,0,.3,0s.2,0,.3,0c.1,0,.2,0,.3-.2s.1-.2.2-.3c0,0,0-.2,0-.3Z"/>
    <path class="st4" d="M359.6,748c0,0,0-.2,0-.3,0,0-.1-.2-.2-.3,0,0-.2-.1-.3-.2,0,0-.2,0-.3,0s-.2,0-.3,0c-.1,0-.2,0-.3.2,0,0-.1.2-.2.3,0,0,0,.2,0,.3s0,.2,0,.3c0,0,.1.2.2.3,0,0,.2.1.3.2,0,0,.2,0,.3,0s.2,0,.3,0c.1,0,.2,0,.3-.2,0,0,.1-.2.2-.3,0,0,0-.2,0-.3Z"/>
    <path class="st4" d="M135.4,801.1c0,0,0-.2,0-.3,0,0-.1-.2-.2-.3,0,0-.2-.1-.3-.2,0,0-.2,0-.3,0s-.2,0-.3,0c-.1,0-.2,0-.3.2s-.1.2-.2.3c0,0,0,.2,0,.3s0,.2,0,.3c0,0,.1.2.2.3,0,0,.2.1.3.2,0,0,.2,0,.3,0s.2,0,.3,0c.1,0,.2,0,.3-.2s.1-.2.2-.3c0,0,0-.2,0-.3Z"/>
    <line class="st4" x1="664.6" y1="602.8" x2="591.1" y2="602.8"/>
    <line class="st4" x1="135.7" y1="671.7" x2="229.6" y2="671.7"/>
    <path class="st4" d="M135.4,700.8c0,0,0-.2,0-.3,0,0-.1-.2-.2-.3,0,0-.2-.1-.3-.2,0,0-.2,0-.3,0s-.2,0-.3,0c-.1,0-.2,0-.3.2,0,0-.1.2-.2.3,0,0,0,.2,0,.3s0,.2,0,.3c0,0,.1.2.2.3s.2.1.3.2c0,0,.2,0,.3,0s.2,0,.3,0c.1,0,.2,0,.3-.2,0,0,.1-.2.2-.3,0,0,0-.2,0-.3Z"/>
    <path class="st4" d="M355.5,796.9c0,0,0-.2,0-.3,0,0-.1-.2-.2-.3,0,0-.2-.1-.3-.2,0,0-.2,0-.3,0s-.2,0-.3,0c-.1,0-.2,0-.3.2s-.1.2-.2.3c0,0,0,.2,0,.3s0,.2,0,.3c0,0,.1.2.2.3,0,0,.2.1.3.2,0,0,.2,0,.3,0s.2,0,.3,0c.1,0,.2,0,.3-.2s.1-.2.2-.3c0,0,0-.2,0-.3Z"/>
    <path class="st4" d="M355.5,700.8c0,0,0-.2,0-.3,0,0-.1-.2-.2-.3,0,0-.2-.1-.3-.2,0,0-.2,0-.3,0s-.2,0-.3,0c-.1,0-.2,0-.3.2,0,0-.1.2-.2.3,0,0,0,.2,0,.3s0,.2,0,.3c0,0,.1.2.2.3,0,0,.2.1.3.2,0,0,.2,0,.3,0s.2,0,.3,0c.1,0,.2,0,.3-.2,0,0,.1-.2.2-.3,0,0,0-.2,0-.3Z"/>
    <path class="st4" d="M355.5,748c0,0,0-.2,0-.3,0,0-.1-.2-.2-.3s-.2-.1-.3-.2c0,0-.2,0-.3,0s-.2,0-.3,0c-.1,0-.2,0-.3.2s-.1.2-.2.3c0,0,0,.2,0,.3s0,.2,0,.3c0,0,.1.2.2.3s.2.1.3.2c0,0,.2,0,.3,0s.2,0,.3,0c.1,0,.2,0,.3-.2s.1-.2.2-.3c0,0,0-.2,0-.3Z"/>
    <path class="st4" d="M284.6,796.9c0,0,0-.2,0-.3,0,0-.1-.2-.2-.3,0,0-.2-.1-.3-.2,0,0-.2,0-.3,0s-.2,0-.3,0c-.1,0-.2,0-.3.2s-.1.2-.2.3c0,0,0,.2,0,.3s0,.2,0,.3c0,0,.1.2.2.3,0,0,.2.1.3.2,0,0,.2,0,.3,0s.2,0,.3,0c.1,0,.2,0,.3-.2s.1-.2.2-.3c0,0,0-.2,0-.3Z"/>
    <path class="st4" d="M139.6,748c0,0,0-.2,0-.3,0,0-.1-.2-.2-.3,0,0-.2-.1-.3-.2,0,0-.2,0-.3,0s-.2,0-.3,0c-.1,0-.2,0-.3.2,0,0-.1.2-.2.3,0,0,0,.2,0,.3s0,.2,0,.3c0,0,.1.2.2.3,0,0,.2.1.3.2,0,0,.2,0,.3,0s.2,0,.3,0c.1,0,.2,0,.3-.2,0,0,.1-.2.2-.3,0,0,0-.2,0-.3Z"/>
    <line class="st4" x1="153.4" y1="540.2" x2="211.9" y2="540.2"/>
    <line class="st4" x1="467.4" y1="574.7" x2="289.7" y2="574.7"/>
  </g>
  <g id="TEXT">
    <circle class="st1" cx="765.5" cy="1024" r="11.4"/>
    <line class="st1" x1="765.5" y1="1012.6" x2="765.5" y2="1024"/>
    <path d="M32.2,1028.9h-5.4v-1.1h2.2v-8l-2.1,1v-1.2l2.2-1.2h1v9.4h2v1.1h0Z"/>
    <path d="M65.6,1028.9h-1.5l-3.5-5.1-1.1,1.2v3.9h-1.2v-10.3h1.2v5l4.6-5h1.4l-4,4.4,4.2,6h0Z"/>
    <path d="M71.3,1028.9h-1.1v-6.6h-2.2v-1h3.4v7.6ZM70.7,1018.4c.2,0,.4,0,.6.2.2.2.2.3.2.5s0,.4-.2.6-.3.2-.6.2-.4,0-.5-.2-.2-.3-.2-.5,0-.4.2-.5.3-.2.5-.2h0Z"/>
    <path d="M82.3,1028.6c-.8.3-1.5.5-2.3.5-1.4,0-2-.7-2-2.2v-4.7h-1.5v-1h1.5v-2.1h1.1v2.1h2.6v1h-2.6v4.4c0,.5,0,.8.3,1.1s.5.4.8.4c.6,0,1.2-.1,1.8-.4,0,0,.2.9.2.9Z"/>
    <path d="M91.2,1028.7c-.7.3-1.4.4-2.2.4-1.2,0-2.2-.4-2.9-1.1-.7-.7-1.1-1.7-1.1-2.9s.4-2.2,1.1-2.9,1.7-1.1,2.8-1.1,1.5.1,2.2.4l-.3,1c-.7-.2-1.3-.4-1.9-.4-.8,0-1.5.3-2,.8s-.7,1.3-.7,2.2.2,1.6.8,2.1,1.2.9,2,.9,1.3-.1,2-.4l.2.9h0Z"/>
    <path d="M100.2,1028.9h-1.1v-4.9c0-.7-.1-1.2-.3-1.5s-.6-.5-1-.5c-.7,0-1.4.4-2.2,1.3v5.5h-1.1v-10.3h1.1v3.8c.8-.9,1.7-1.3,2.6-1.3,1.4,0,2.2.9,2.2,2.6v5.2h0Z"/>
    <path d="M109.4,1025.1h-5.2c0,.9.2,1.6.8,2.1s1.1.8,1.8.8,1.4-.1,2.2-.4l.2.9c-.7.3-1.5.4-2.4.4s-2.1-.4-2.7-1.1-1-1.7-1-2.9.3-2.2.9-2.9c.6-.7,1.4-1.1,2.4-1.1s1.6.3,2.2,1,.9,1.6.9,2.7v.4h0ZM108.2,1024.2c0-.6-.2-1.1-.6-1.5-.4-.4-.8-.6-1.2-.6s-1.1.2-1.5.6-.6.9-.7,1.5h3.9Z"/>
    <path d="M118.2,1028.9h-1.1v-4.9c0-.7-.1-1.2-.3-1.5s-.6-.5-1-.5c-.7,0-1.4.4-2.2,1.3v5.5h-1.1v-7.6h1.1v1.1c.8-.9,1.7-1.3,2.6-1.3,1.4,0,2.2.9,2.2,2.6v5.2h0Z"/>
    <path d="M31.9,1050.9h-5.7v-.9c1.4-1.6,2.4-2.7,2.8-3.2s.8-1.1,1-1.7c.3-.6.4-1.2.4-1.8s-.2-1-.5-1.4-.8-.5-1.5-.5-1.1.2-2,.4l-.2-1c.7-.3,1.5-.5,2.3-.5s1.7.3,2.2.8.9,1.2.9,2.1-.1,1.2-.4,1.8-.7,1.2-1.1,1.8-1.3,1.6-2.6,3h4.4v1.1h0Z"/>
    <path d="M64.2,1050.9h-5.6v-10.3h1.2v9.3h4.4v1.1h0Z"/>
    <path d="M71.3,1050.9h-1.1v-6.6h-2.2v-1h3.4v7.6ZM70.7,1040.4c.2,0,.4,0,.6.2s.2.3.2.6,0,.4-.2.6-.3.2-.6.2-.4,0-.5-.2-.2-.3-.2-.6,0-.4.2-.6.3-.2.5-.2h0Z"/>
    <path d="M82.5,1043.3l-2.9,7.6h-1l-2.9-7.6h1.2l2.2,6.1,2.2-6.1h1.2,0Z"/>
    <path d="M89.3,1050.9h-1.1v-6.6h-2.2v-1h3.4v7.6ZM88.7,1040.4c.2,0,.4,0,.6.2s.2.3.2.6,0,.4-.2.6-.3.2-.6.2-.4,0-.5-.2-.2-.3-.2-.6,0-.4.2-.6.3-.2.5-.2h0Z"/>
    <path d="M100.2,1050.9h-1.1v-4.9c0-.7-.1-1.2-.3-1.5-.2-.3-.6-.5-1-.5-.7,0-1.4.4-2.2,1.3v5.5h-1.1v-7.6h1.1v1.1c.8-.9,1.7-1.3,2.6-1.3,1.4,0,2.2.9,2.2,2.6v5.2h0Z"/>
    <path d="M105.4,1048c-.7.3-1.1.7-1.1.9s0,.3.2.4.4.2.7.2h2.6c.6,0,1.1,0,1.4.4.3.3.5.7.5,1.3,0,.9-.4,1.6-1.2,2.1-.8.5-1.7.8-2.7.8s-1.5-.2-2.1-.5c-.5-.3-.8-.8-.8-1.4s.4-1.1,1.2-1.5c-.7-.3-1-.7-1-1.2s.4-1,1.3-1.5c-.4-.2-.7-.6-.9-1s-.3-.8-.3-1.2c0-.7.2-1.3.7-1.8.5-.5,1.1-.7,1.8-.7s1,.1,1.4.3l2.3-.3v1.1h-1.5c.2.4.3.8.3,1.4s-.2,1.3-.7,1.8c-.5.5-1.1.7-1.8.7s-.3,0-.4,0h0ZM105.9,1053.1c.8,0,1.4-.2,1.9-.5s.8-.8.8-1.2-.4-.8-1.1-.8-.7,0-1.3,0c-.4,0-.7,0-.9,0s-.3,0-.5.3c-.2.2-.4.3-.5.5-.1.2-.2.4-.2.6,0,.3.2.6.5.8.3.2.8.3,1.3.3h0ZM105.9,1047.2c.4,0,.8-.2,1-.4.3-.3.4-.7.4-1.1s-.1-.9-.4-1.2-.6-.4-1-.4-.8.2-1,.4c-.3.3-.4.7-.4,1.1s.1.8.4,1.1c.3.3.6.4,1,.4h0Z"/>
    <path d="M29.9,1067.4c.6.2,1.1.5,1.5,1,.4.5.6,1,.6,1.6,0,.9-.4,1.7-1.1,2.3s-1.5.9-2.5.9-1.6-.2-2.2-.5l.2-1c.7.3,1.4.5,2,.5s1.2-.2,1.6-.6.7-.9.7-1.5-.2-1.1-.7-1.5c-.5-.4-1.1-.6-1.9-.6h-.3v-1h0c.8,0,1.4-.2,1.9-.5s.7-.8.7-1.4-.2-.9-.5-1.2-.8-.4-1.5-.4-1.1.1-1.8.4l-.2-1c.7-.3,1.3-.4,2-.4s1.7.2,2.3.7.9,1.1.9,1.9-.2,1-.5,1.5c-.4.5-.8.7-1.3.9h0s0,0,0,0Z"/>
    <path d="M58.3,1062.6h2c1.3,0,2.4.5,3.2,1.4.8.9,1.2,2.2,1.2,3.8s-.4,2.9-1.2,3.8c-.8.9-1.9,1.3-3.2,1.3h-2.1v-10.3h0ZM59.5,1071.9h.8c1,0,1.8-.4,2.3-1.1s.9-1.7.9-3-.3-2.3-.9-3c-.6-.7-1.3-1.1-2.3-1.1h-.8v8.2Z"/>
    <path d="M71.3,1072.9h-1.1v-6.6h-2.2v-1h3.4v7.6ZM70.7,1062.4c.2,0,.4,0,.6.2s.2.3.2.6,0,.4-.2.6-.3.2-.6.2-.4,0-.5-.2-.2-.3-.2-.6,0-.4.2-.6.3-.2.5-.2h0Z"/>
    <path d="M82.2,1072.9h-1.1v-4.9c0-.7-.1-1.2-.3-1.5-.2-.3-.6-.5-1-.5-.7,0-1.4.4-2.2,1.3v5.5h-1.1v-7.6h1.1v1.1c.8-.9,1.7-1.3,2.6-1.3,1.4,0,2.2.9,2.2,2.6v5.2h0Z"/>
    <path d="M89.3,1072.9h-1.1v-6.6h-2.2v-1h3.4v7.6ZM88.7,1062.4c.2,0,.4,0,.6.2s.2.3.2.6,0,.4-.2.6-.3.2-.6.2-.4,0-.5-.2-.2-.3-.2-.6,0-.4.2-.6.3-.2.5-.2h0Z"/>
    <path d="M100.2,1072.9h-1.1v-4.9c0-.7-.1-1.2-.3-1.5-.2-.3-.6-.5-1-.5-.7,0-1.4.4-2.2,1.3v5.5h-1.1v-7.6h1.1v1.1c.8-.9,1.7-1.3,2.6-1.3,1.4,0,2.2.9,2.2,2.6v5.2h0Z"/>
    <path d="M105.4,1070c-.7.3-1.1.7-1.1.9s0,.3.2.4.4.2.7.2h2.6c.6,0,1.1,0,1.4.4.3.3.5.7.5,1.3,0,.9-.4,1.6-1.2,2.1-.8.5-1.7.8-2.7.8s-1.5-.2-2.1-.5c-.5-.3-.8-.8-.8-1.4s.4-1.1,1.2-1.5c-.7-.3-1-.7-1-1.2s.4-1,1.3-1.5c-.4-.2-.7-.6-.9-1s-.3-.8-.3-1.2c0-.7.2-1.3.7-1.8.5-.5,1.1-.7,1.8-.7s1,.1,1.4.3l2.3-.3v1.1h-1.5c.2.4.3.8.3,1.4s-.2,1.3-.7,1.8c-.5.5-1.1.7-1.8.7s-.3,0-.4,0h0ZM105.9,1075.1c.8,0,1.4-.2,1.9-.5s.8-.8.8-1.2-.4-.8-1.1-.8-.7,0-1.3,0c-.4,0-.7,0-.9,0s-.3,0-.5.3c-.2.2-.4.3-.5.5-.1.2-.2.4-.2.6,0,.3.2.6.5.8.3.2.8.3,1.3.3h0ZM105.9,1069.2c.4,0,.8-.2,1-.4.3-.3.4-.7.4-1.1s-.1-.9-.4-1.2-.6-.4-1-.4-.8.2-1,.4c-.3.3-.4.7-.4,1.1s.1.8.4,1.1c.3.3.6.4,1,.4h0Z"/>
    <path d="M32.6,1092.5h-1.3v2.4h-1.2v-2.4h-4.5v-.9l4.1-7h1.6v6.9h1.3v1.1ZM30.1,1091.5v-5.7l-3.3,5.7h3.3Z"/>
    <path d="M64.2,1094.9h-5.6v-10.3h1.2v9.3h4.4v1.1h0Z"/>
    <path d="M73.4,1094.9h-1.1c0-.3-.1-.7-.1-1.2-.7.9-1.5,1.4-2.7,1.4s-1.1-.2-1.5-.6-.7-.9-.7-1.6,0-.7.2-1,.4-.5.7-.7c.3-.2.7-.3,1.1-.5s.9-.2,1.5-.2h1.3v-.5c0-1.3-.6-2-1.8-2s-.7,0-1.1.2c-.4.1-.8.3-1.1.4l-.3-.8c1-.5,2-.8,2.9-.8,1.7,0,2.6.9,2.6,2.8v3.3c0,.7,0,1.2.2,1.8h0ZM72,1092.7v-1.4c-1,0-1.7.2-2.1.3-.4,0-.7.2-1,.4s-.4.5-.4.9.1.6.4.8.5.3.9.3.8-.1,1.2-.4.8-.6,1.1-1h0Z"/>
    <path d="M82.2,1094.9h-1.1v-1.1c-.8.9-1.7,1.3-2.6,1.3-1.4,0-2.2-.9-2.2-2.6v-5.2h1.1v4.9c0,.7,0,1.1.3,1.4s.6.5,1,.5c.7,0,1.4-.4,2.2-1.3v-5.5h1.1v7.6h0Z"/>
    <path d="M91.2,1094.9h-1.1v-4.9c0-.7-.1-1.2-.3-1.5-.2-.3-.6-.5-1-.5-.7,0-1.4.4-2.2,1.3v5.5h-1.1v-7.6h1.1v1.1c.8-.9,1.7-1.3,2.6-1.3,1.4,0,2.2.9,2.2,2.6v5.2h0Z"/>
    <path d="M100.2,1094.9h-1.1v-1.1c-.2.4-.6.7-1,.9-.4.2-.9.4-1.4.4-.9,0-1.6-.4-2.1-1.2s-.8-1.8-.8-3,.3-2,.8-2.8c.5-.7,1.2-1.1,2.1-1.1s1.7.4,2.3,1.2v-3.7h1.1v10.3h0ZM99,1092.6v-3.2c-.6-.9-1.2-1.3-2-1.3s-1.1.3-1.5.8c-.4.6-.6,1.3-.6,2.1s.2,1.6.5,2.2c.3.6.8.9,1.4.9s.6,0,.9-.2c.3-.2.6-.4.8-.7.3-.3.4-.5.4-.6h0Z"/>
    <path d="M109.3,1087.5l-.5,1.1c-.5-.2-.9-.3-1.3-.3s-.7,0-1,.3c-.3.2-.6.5-.9.8s-.4.6-.4.6v4.9h-1.1v-7.6h1.1v1.6c.6-1.2,1.4-1.7,2.4-1.7s1.1.1,1.7.4h0Z"/>
    <path d="M118.5,1087.3l-2.9,7.6c-.4,1.1-.8,1.9-1.2,2.3s-.9.7-1.4.7-.9,0-1.4-.3l.2-.9c.4.1.7.2,1,.2s.8-.2,1-.5.5-.8.8-1.6l-2.9-7.6h1.2l2.2,6.1,2.2-6.1h1.2,0Z"/>
    <path d="M200.5,1022.8c.3,0,.7-.1,1-.1,1,0,1.8.3,2.3.9.6.6.9,1.3.9,2.2s-.3,1.7-1,2.4-1.5,1-2.4,1-1.7-.2-2.3-.4l.2-1c.7.3,1.4.4,2.1.4s1.1-.2,1.5-.6.6-1,.6-1.7-.2-1.2-.6-1.6c-.4-.4-.8-.6-1.4-.6s-.8,0-1.2.2l-.7-.3v-4.9h4.7v1h-3.7v3.1h0Z"/>
    <path d="M238,1018.6l-1.3,10.3h-1.1l-1.8-5.8-1.8,5.8h-1.1l-1.3-10.3h1.2l.9,8.4,1.5-5.1h1.2l1.5,5.1.9-8.4h1.2Z"/>
    <path d="M246.1,1028.3c-.8.6-1.8.8-2.8.8s-2.4-.5-3.1-1.4-1-2.2-1-4,.3-3,1-3.9,1.7-1.4,3.1-1.4,1,0,1.5.2.9.3,1.2.5l-.4.9c-.7-.4-1.4-.6-2.3-.6s-1.7.3-2.1,1c-.5.7-.7,1.8-.7,3.3,0,2.9.9,4.3,2.8,4.3s1.6-.2,2.4-.7l.4.9h0Z"/>
    <path d="M200,1045.5c.6-.5,1.3-.8,2.1-.8s1.6.3,2.2.8c.6.6.9,1.3.9,2.2s-.3,1.8-.8,2.4-1.2.9-2.1.9-2-.5-2.6-1.5-1-2.2-1-3.7.3-2.9,1-3.9c.7-1.1,1.6-1.6,2.8-1.6s1.5.1,2.1.4l-.2,1.1c-.7-.2-1.3-.4-1.9-.4-.8,0-1.4.4-1.9,1.1s-.7,1.8-.7,2.9h0ZM200,1046.6c0,.9.2,1.7.6,2.4.4.7.9,1.1,1.6,1.1s.9-.2,1.2-.6c.3-.4.4-.9.4-1.6s-.2-1.1-.5-1.5c-.3-.4-.8-.6-1.3-.6s-1.4.2-2,.8h0Z"/>
    <path d="M235,1045.2c.7.2,1.2.5,1.6.9s.6,1,.6,1.7c0,.9-.3,1.7-1,2.2-.7.6-1.5.8-2.5.8h-2.9v-10.3h2.9c1,0,1.8.2,2.3.7.6.4.8,1.1.8,1.8s-.2.9-.5,1.3c-.3.4-.8.7-1.3.8h0s0,0,0,0ZM232,1044.7h1.4c1.5,0,2.2-.5,2.2-1.6s-.2-.8-.5-1.1c-.4-.3-.9-.4-1.6-.4h-1.5v3.1h0ZM232,1049.9h1.4c.8,0,1.4-.2,1.9-.5.5-.4.7-.9.7-1.5s-.2-1.2-.7-1.6-1.1-.6-2-.6h-1.3v4.1h0Z"/>
    <path d="M246,1047.1h-5.2c0,.9.2,1.6.8,2.1s1.1.8,1.8.8,1.4-.1,2.1-.4l.2.9c-.7.3-1.5.4-2.4.4s-2.1-.4-2.7-1.1-1-1.7-1-2.9.3-2.2.9-2.9,1.4-1.1,2.4-1.1,1.6.3,2.2,1,.9,1.6.9,2.7v.4h0ZM244.7,1046.2c0-.6-.2-1.1-.6-1.5s-.8-.6-1.2-.6-1.1.2-1.5.6-.6.9-.6,1.5h3.9Z"/>
    <path d="M254.7,1050.9h-1.1v-1.1c-.2.4-.6.7-1,.9-.4.2-.9.4-1.4.4-.9,0-1.6-.4-2.1-1.2-.5-.8-.8-1.8-.8-3s.3-2,.8-2.8c.5-.7,1.2-1.1,2.1-1.1s1.7.4,2.3,1.2v-3.7h1.1v10.3h0ZM253.6,1048.6v-3.2c-.6-.9-1.2-1.3-2-1.3s-1.1.3-1.5.8c-.4.6-.6,1.3-.6,2.1s.2,1.6.5,2.2c.3.6.8.9,1.4.9s.6,0,.9-.2c.3-.2.6-.4.8-.7.3-.3.4-.5.4-.6h0Z"/>
    <path d="M204.9,1063.4l-4.1,9.5h-1.2l4-9.3h-4.8v-1.1h6.1v.9h0Z"/>
    <path d="M235,1067.2c.7.2,1.2.5,1.6.9s.6,1,.6,1.7c0,.9-.3,1.7-1,2.2-.7.6-1.5.8-2.5.8h-2.9v-10.3h2.9c1,0,1.8.2,2.3.7.6.4.8,1.1.8,1.8s-.2.9-.5,1.3c-.3.4-.8.7-1.3.8h0s0,0,0,0ZM232,1066.7h1.4c1.5,0,2.2-.5,2.2-1.6s-.2-.8-.5-1.1c-.4-.3-.9-.4-1.6-.4h-1.5v3.1h0ZM232,1071.9h1.4c.8,0,1.4-.2,1.9-.5.5-.4.7-.9.7-1.5s-.2-1.2-.7-1.6-1.1-.6-2-.6h-1.3v4.1h0Z"/>
    <path d="M245.9,1072.9h-1.1c0-.3-.1-.7-.1-1.2-.6.9-1.5,1.4-2.6,1.4s-1.1-.2-1.5-.6-.6-.9-.6-1.6,0-.7.2-1,.4-.5.7-.7c.3-.2.6-.3,1.1-.5.4-.1.9-.2,1.5-.2h1.3v-.5c0-1.3-.6-2-1.8-2s-.6,0-1.1.2c-.4.1-.8.3-1.1.4l-.3-.8c1-.5,2-.8,2.9-.8,1.7,0,2.6.9,2.6,2.8v3.3c0,.7,0,1.2.2,1.8h0ZM244.6,1070.7v-1.4c-1,0-1.7.2-2.1.3-.4,0-.7.2-1,.4s-.4.5-.4.9.1.6.4.8.5.3.9.3.8-.1,1.2-.4c.4-.2.8-.6,1.1-1h0Z"/>
    <path d="M254.8,1072.6c-.8.3-1.5.5-2.3.5-1.4,0-2-.7-2-2.2v-4.7h-1.5v-1h1.5v-2.1h1.1v2.1h2.6v1h-2.6v4.4c0,.5.1.8.3,1.1.2.3.5.4.8.4.6,0,1.2-.1,1.9-.4l.2.9h0Z"/>
    <path d="M263.8,1072.9h-1.1v-4.9c0-.7-.1-1.2-.3-1.5-.2-.3-.6-.5-1-.5-.7,0-1.5.4-2.2,1.3v5.5h-1.1v-10.3h1.1v3.8c.8-.9,1.7-1.3,2.6-1.3,1.4,0,2.1.9,2.1,2.6v5.2h0Z"/>
    <path d="M272.9,1065.5l-.5,1.1c-.5-.2-.9-.3-1.3-.3s-.7,0-1,.3c-.3.2-.6.5-.9.8-.3.4-.4.6-.4.6v4.9h-1.1v-7.6h1.1v1.6c.6-1.2,1.4-1.7,2.4-1.7s1.1.1,1.7.4h0Z"/>
    <path d="M278.8,1065.1c1,0,1.9.4,2.5,1.1s.9,1.7.9,2.9-.3,2.2-.9,2.9-1.5,1.1-2.5,1.1-1.9-.4-2.5-1.1c-.6-.7-.9-1.7-.9-2.9s.3-2.2.9-2.9,1.5-1.1,2.5-1.1h0ZM278.8,1072.1c.7,0,1.2-.3,1.6-.9s.6-1.3.6-2.1-.2-1.6-.6-2.2-.9-.8-1.6-.8-1.3.3-1.6.8c-.4.6-.6,1.3-.6,2.2s.2,1.6.6,2.1c.4.6.9.9,1.6.9h0Z"/>
    <path d="M287.8,1065.1c1,0,1.9.4,2.5,1.1s.9,1.7.9,2.9-.3,2.2-.9,2.9-1.5,1.1-2.5,1.1-1.9-.4-2.5-1.1c-.6-.7-.9-1.7-.9-2.9s.3-2.2.9-2.9,1.5-1.1,2.5-1.1h0ZM287.8,1072.1c.7,0,1.2-.3,1.6-.9s.6-1.3.6-2.1-.2-1.6-.6-2.2-1-.8-1.6-.8-1.3.3-1.6.8c-.4.6-.6,1.3-.6,2.2s.2,1.6.6,2.1c.4.6.9.9,1.6.9h0Z"/>
    <path d="M300.4,1072.9h-1.1v-5c0-1.2-.2-1.8-.7-1.8s-.5.2-.8.6-.4.7-.4.7v5.5h-1.1v-5c0-1.2-.2-1.8-.7-1.8s-.5.2-.8.6c-.3.4-.4.7-.4.7v5.5h-1.1v-7.6h1.1v1.2c.2-.4.5-.7.8-1,.3-.2.6-.4.9-.4s.6.1.8.4c.2.2.4.6.5,1,.2-.4.5-.7.8-1s.6-.4.9-.4c.9,0,1.4.8,1.4,2.5v5.3h0Z"/>
    <path d="M202.8,1089.2c.7.2,1.2.6,1.6,1.1.4.5.6,1.1.6,1.7,0,.9-.3,1.7-.9,2.3s-1.4.8-2.3.8-1.8-.3-2.4-.8c-.6-.6-.9-1.3-.9-2.2s.2-1.2.6-1.7,1-.8,1.7-1.1c-.6-.2-1-.4-1.4-.8-.3-.4-.5-.9-.5-1.4s.3-1.3.8-1.8c.5-.5,1.2-.8,2.1-.8s1.6.3,2.1.8.8,1.1.8,1.8-.2,1-.5,1.4-.8.7-1.4.9h0ZM201.8,1089.8c-1.3.4-2,1.1-2,2.2s.2,1.1.6,1.5.9.6,1.4.6,1-.2,1.4-.6c.4-.4.6-.9.6-1.5s-.1-.9-.4-1.3c-.3-.4-.8-.7-1.6-.9h0ZM201.8,1088.8s.1,0,.4,0,.4-.1.5-.2.3-.2.4-.3.2-.3.3-.5c0-.2.1-.4.1-.6,0-.5-.2-.9-.5-1.2s-.7-.5-1.2-.5-.9.2-1.2.5-.5.7-.5,1.2,0,.5.2.8.3.4.4.5.4.2.6.3c.2,0,.4.1.4.1h0Z"/>
    <path d="M236,1085.7c-.6-.2-1.2-.3-1.8-.3s-1.1.1-1.5.4c-.4.3-.6.7-.6,1.2s.5,1.2,1.5,1.7c.8.3,1.3.6,1.5.7.2.1.5.3.8.6s.5.5.6.8c.1.3.2.7.2,1.1,0,1-.3,1.8-1,2.3-.7.6-1.5.8-2.4.8s-1.7-.2-2.3-.5l.2-1c.8.4,1.5.5,2.1.5s1.2-.2,1.6-.5.6-.8.6-1.5-.1-.8-.4-1.2c-.3-.3-.8-.7-1.5-1-.7-.3-1.2-.6-1.4-.7s-.4-.3-.6-.5-.4-.5-.5-.7-.2-.6-.2-.9c0-.8.3-1.5.9-2s1.4-.7,2.3-.7,1.4.1,2.1.3l-.3,1h0Z"/>
    <path d="M245.8,1094.6c-.8.3-1.5.5-2.3.5-1.4,0-2-.7-2-2.2v-4.7h-1.5v-1h1.5v-2.1h1.1v2.1h2.6v1h-2.6v4.4c0,.5.1.8.3,1.1.2.3.5.4.8.4.6,0,1.2-.1,1.9-.4l.2.9h0Z"/>
    <path d="M254.7,1094.9h-1.1v-1.1c-.8.9-1.7,1.3-2.6,1.3-1.4,0-2.1-.9-2.1-2.6v-5.2h1.1v4.9c0,.7.1,1.1.3,1.4.2.3.6.5,1,.5.7,0,1.4-.4,2.2-1.3v-5.5h1.1v7.6h0Z"/>
    <path d="M263.7,1094.9h-1.1v-1.1c-.2.4-.6.7-1,.9-.4.2-.9.4-1.4.4-.9,0-1.6-.4-2.1-1.2-.5-.8-.8-1.8-.8-3s.3-2,.8-2.8c.5-.7,1.2-1.1,2.1-1.1s1.7.4,2.3,1.2v-3.7h1.1v10.3h0ZM262.6,1092.6v-3.2c-.5-.9-1.2-1.3-2-1.3s-1.1.3-1.5.8c-.4.6-.5,1.3-.5,2.1s.2,1.6.5,2.2c.3.6.8.9,1.4.9s.6,0,.9-.2c.3-.2.6-.4.8-.7.3-.3.4-.5.4-.6h0Z"/>
    <path d="M273.1,1087.3l-2.9,7.6c-.4,1.1-.8,1.9-1.2,2.3s-.9.7-1.4.7-.9,0-1.4-.3l.2-.9c.4.1.7.2,1,.2s.8-.2,1-.5.5-.8.8-1.6l-2.9-7.6h1.2l2.2,6.1,2.2-6.1h1.2,0Z"/>
    <path d="M373.8,1024c-.6.5-1.3.8-2.1.8s-1.6-.3-2.2-.8c-.6-.6-.9-1.3-.9-2.2s.3-1.7.8-2.4,1.3-1,2.2-1,1.9.5,2.5,1.5.9,2.2.9,3.8-.4,2.8-1.1,3.9c-.7,1.1-1.7,1.6-2.9,1.6s-1.5-.1-2.1-.4l.2-1.1c.7.2,1.3.4,1.9.4.8,0,1.5-.4,1.9-1.2.5-.8.7-1.8.7-2.9h0ZM373.7,1022.9c0-.9-.2-1.7-.6-2.4-.4-.7-.9-1-1.5-1s-1,.2-1.3.6c-.3.4-.5.9-.5,1.6s.2,1.1.5,1.5c.3.4.8.6,1.3.6s1.4-.2,2-.7h0Z"/>
    <path d="M408,1018.6l-1.3,10.3h-1.1l-1.8-5.8-1.8,5.8h-1.1l-1.3-10.3h1.2l.9,8.4,1.5-5.1h1.2l1.5,5.1.9-8.4h1.2Z"/>
    <path d="M412.8,1021.1c1,0,1.9.4,2.5,1.1s.9,1.7.9,2.9-.3,2.2-.9,2.9-1.5,1.1-2.5,1.1-1.9-.4-2.5-1.1c-.6-.7-.9-1.7-.9-2.9s.3-2.2.9-2.9c.6-.7,1.5-1.1,2.5-1.1h0ZM412.8,1028.1c.7,0,1.2-.3,1.6-.9s.6-1.3.6-2.1-.2-1.6-.6-2.2-.9-.8-1.6-.8-1.3.3-1.6.8c-.4.6-.6,1.3-.6,2.2s.2,1.6.6,2.1c.4.6.9.9,1.6.9h0Z"/>
    <path d="M424.9,1021.5l-.5,1.1c-.5-.2-.9-.3-1.3-.3s-.7,0-1,.3c-.3.2-.6.5-.9.8-.3.4-.4.6-.4.6v4.9h-1.1v-7.6h1.1v1.5c.6-1.2,1.4-1.7,2.4-1.7s1.1.1,1.7.4h0Z"/>
    <path d="M434.5,1028.9h-1.5l-3.2-3.8-.8.6v3.2h-1.1v-10.3h1.1v5.9l3.6-3.2h1.5l-3.5,3.1,3.9,4.5h0Z"/>
    <path d="M442.9,1021.5l-.5,1.1c-.5-.2-.9-.3-1.3-.3s-.7,0-1,.3c-.3.2-.6.5-.9.8-.3.4-.4.6-.4.6v4.9h-1.1v-7.6h1.1v1.5c.6-1.2,1.4-1.7,2.4-1.7s1.1.1,1.7.4h0Z"/>
    <path d="M448.8,1021.1c1,0,1.9.4,2.5,1.1s.9,1.7.9,2.9-.3,2.2-.9,2.9-1.5,1.1-2.5,1.1-1.9-.4-2.5-1.1c-.6-.7-.9-1.7-.9-2.9s.3-2.2.9-2.9c.6-.7,1.5-1.1,2.5-1.1h0ZM448.8,1028.1c.7,0,1.2-.3,1.6-.9s.6-1.3.6-2.1-.2-1.6-.6-2.2-.9-.8-1.6-.8-1.3.3-1.6.8c-.4.6-.6,1.3-.6,2.2s.2,1.6.6,2.1c.4.6.9.9,1.6.9h0Z"/>
    <path d="M457.8,1021.1c1,0,1.9.4,2.5,1.1s.9,1.7.9,2.9-.3,2.2-.9,2.9-1.5,1.1-2.5,1.1-1.9-.4-2.5-1.1c-.6-.7-.9-1.7-.9-2.9s.3-2.2.9-2.9c.6-.7,1.5-1.1,2.5-1.1h0ZM457.8,1028.1c.7,0,1.2-.3,1.6-.9s.6-1.3.6-2.1-.2-1.6-.6-2.2-1-.8-1.6-.8-1.3.3-1.6.8c-.4.6-.6,1.3-.6,2.2s.2,1.6.6,2.1c.4.6.9.9,1.6.9h0Z"/>
    <path d="M470.4,1028.9h-1.1v-5c0-1.2-.2-1.8-.7-1.8s-.5.2-.8.6-.4.7-.4.7v5.5h-1.1v-5c0-1.2-.2-1.8-.7-1.8s-.5.2-.8.6c-.3.4-.4.7-.4.7v5.5h-1.1v-7.6h1.1v1.2c.2-.4.5-.7.8-1,.3-.2.6-.4.9-.4s.6.1.8.4c.2.2.4.6.5,1,.2-.4.5-.7.8-1s.6-.4.9-.4c.9,0,1.4.8,1.4,2.5v5.3h0Z"/>
    <path d="M374.8,1050.9h-5.4v-1.1h2.2v-8l-2.1,1v-1.2l2.2-1.2h1v9.3h2v1.1h0Z"/>
    <path d="M380.8,1040.4c1.1,0,1.9.5,2.5,1.4.6.9.9,2.3.9,4s-.3,2.9-.9,3.9c-.6,1-1.4,1.4-2.5,1.4s-1.9-.5-2.5-1.4-.9-2.3-.9-4,.3-3,.9-3.9c.6-1,1.4-1.4,2.5-1.4h0ZM380.8,1050.1c.7,0,1.3-.3,1.6-1,.4-.7.5-1.8.5-3.3s-.2-2.6-.5-3.3c-.4-.7-.9-1-1.6-1s-1.2.3-1.6,1.1c-.4.7-.5,1.8-.5,3.2s.2,2.6.5,3.3c.4.7.9,1,1.6,1h0ZM380.8,1044.7c.3,0,.6.1.8.3s.3.5.3.8-.1.6-.3.8c-.2.2-.5.3-.8.3s-.5-.1-.8-.3c-.2-.2-.3-.5-.3-.8s.1-.6.3-.8c.2-.2.5-.3.8-.3h0Z"/>
    <path d="M406.6,1050.9h-5.4v-10.3h5.4v1.1h-4.1v3.2h4v1.1h-4v4h4.2v1.1h0Z"/>
    <path d="M415.8,1050.9h-1.1v-4.9c0-.7-.1-1.2-.3-1.5-.2-.3-.6-.5-1-.5-.7,0-1.5.4-2.2,1.3v5.5h-1.1v-7.6h1.1v1.1c.8-.9,1.7-1.3,2.6-1.3,1.4,0,2.1.9,2.1,2.6v5.2h0Z"/>
    <path d="M424.8,1050.6c-.8.3-1.5.5-2.3.5-1.4,0-2-.7-2-2.2v-4.7h-1.5v-1h1.5v-2.1h1.1v2.1h2.6v1h-2.6v4.4c0,.5.1.8.3,1.1s.5.4.8.4c.6,0,1.2-.1,1.9-.4l.2.9h0Z"/>
    <path d="M433.9,1043.5l-.5,1.1c-.5-.2-.9-.3-1.3-.3s-.7,0-1,.3c-.3.2-.6.5-.9.8-.3.4-.4.6-.4.6v4.9h-1.1v-7.6h1.1v1.6c.6-1.2,1.4-1.7,2.4-1.7s1.1.1,1.7.4h0Z"/>
    <path d="M443.1,1043.3l-2.9,7.6c-.4,1.1-.8,1.9-1.2,2.3s-.9.7-1.4.7-.9,0-1.4-.3l.2-.9c.4.1.7.2,1,.2s.8-.2,1-.5.5-.8.8-1.6l-2.9-7.6h1.2l2.2,6.1,2.2-6.1h1.2,0Z"/>
    <path d="M374.8,1072.9h-5.4v-1.1h2.2v-8l-2.1,1v-1.2l2.2-1.2h1v9.3h2v1.1h0Z"/>
    <path d="M383.8,1072.9h-5.4v-1.1h2.2v-8l-2.1,1v-1.2l2.2-1.2h1v9.3h2v1.1h0Z"/>
    <path d="M407.1,1072.2c-.8.6-1.8.9-2.8.9s-2.4-.5-3-1.4-1-2.2-1-4,.3-3,1-4c.7-.9,1.7-1.4,3.1-1.4s1,0,1.5.2.9.3,1.2.5l-.4.9c-.7-.4-1.4-.6-2.3-.6s-1.6.3-2.1,1c-.5.7-.7,1.8-.7,3.3,0,2.9.9,4.3,2.8,4.3s1.2-.2,1.6-.4v-2.6h-1.9v-1h3.1v4.2h0Z"/>
    <path d="M415.9,1072.9h-1.1c0-.3-.1-.7-.1-1.2-.6.9-1.5,1.4-2.6,1.4s-1.1-.2-1.5-.6-.6-.9-.6-1.6,0-.7.2-1,.4-.5.7-.7c.3-.2.6-.3,1.1-.5s.9-.2,1.5-.2h1.3v-.5c0-1.3-.6-2-1.8-2s-.6,0-1.1.2c-.4.1-.8.3-1.1.4l-.3-.8c1-.5,2-.8,2.9-.8,1.7,0,2.6.9,2.6,2.8v3.3c0,.7,0,1.2.2,1.8h0ZM414.6,1070.7v-1.4c-1,0-1.7.2-2.1.3s-.7.2-1,.4-.4.5-.4.9.1.6.4.8.5.3.9.3.8-.1,1.2-.4.8-.6,1-1h0Z"/>
    <path d="M424.9,1065.5l-.5,1.1c-.5-.2-.9-.3-1.3-.3s-.7,0-1,.3c-.3.2-.6.5-.9.8-.3.4-.4.6-.4.6v4.9h-1.1v-7.6h1.1v1.6c.6-1.2,1.4-1.7,2.4-1.7s1.1.1,1.7.4h0Z"/>
    <path d="M433.9,1072.9h-1.1c0-.3-.1-.7-.1-1.2-.6.9-1.5,1.4-2.6,1.4s-1.1-.2-1.5-.6-.6-.9-.6-1.6,0-.7.2-1,.4-.5.7-.7c.3-.2.6-.3,1.1-.5s.9-.2,1.5-.2h1.3v-.5c0-1.3-.6-2-1.8-2s-.6,0-1.1.2c-.4.1-.8.3-1.1.4l-.3-.8c1-.5,2-.8,2.9-.8,1.7,0,2.6.9,2.6,2.8v3.3c0,.7,0,1.2.2,1.8h0ZM432.6,1070.7v-1.4c-1,0-1.7.2-2.1.3s-.7.2-1,.4-.4.5-.4.9.1.6.4.8.5.3.9.3.8-.1,1.2-.4.8-.6,1-1h0Z"/>
    <path d="M439,1070c-.7.3-1.1.7-1.1.9s0,.3.2.4c.2,0,.4.2.7.2h2.6c.6,0,1.1,0,1.4.4.3.3.5.7.5,1.3,0,.9-.4,1.6-1.2,2.1s-1.7.8-2.7.8-1.5-.2-2.1-.5c-.5-.3-.8-.8-.8-1.4s.4-1.1,1.2-1.5c-.7-.3-1-.7-1-1.2s.4-1,1.3-1.5c-.4-.2-.7-.6-1-1s-.3-.8-.3-1.2c0-.7.2-1.3.7-1.8.5-.5,1.1-.7,1.8-.7s1,.1,1.4.3l2.3-.3v1.1h-1.5c.2.4.3.8.3,1.4s-.2,1.3-.7,1.8c-.5.5-1.1.7-1.8.7s-.3,0-.5,0h0ZM439.5,1075.1c.8,0,1.4-.2,1.9-.5s.8-.8.8-1.2-.4-.8-1.1-.8-.7,0-1.3,0c-.4,0-.7,0-.9,0s-.3,0-.5.3c-.2.2-.4.3-.5.5s-.2.4-.2.6c0,.3.2.6.5.8.3.2.8.3,1.3.3h0ZM439.4,1069.2c.4,0,.8-.2,1-.4.3-.3.4-.7.4-1.1s-.1-.9-.4-1.2-.6-.4-1-.4-.8.2-1,.4c-.3.3-.4.7-.4,1.1s.1.8.4,1.1c.3.3.6.4,1,.4h0Z"/>
    <path d="M452,1069.1h-5.2c0,.9.2,1.6.8,2.1s1.1.8,1.8.8,1.4-.1,2.1-.4l.2.9c-.7.3-1.5.4-2.4.4s-2-.4-2.7-1.1-1-1.7-1-2.9.3-2.2.9-2.9,1.4-1.1,2.4-1.1,1.6.3,2.2,1,.9,1.6.9,2.7v.4h0ZM450.7,1068.2c0-.6-.2-1.1-.6-1.5s-.8-.6-1.2-.6-1.1.2-1.5.6-.6.9-.6,1.5h3.9Z"/>
    <path d="M374.8,1094.9h-5.4v-1.1h2.2v-8l-2.1,1v-1.2l2.2-1.2h1v9.3h2v1.1h0Z"/>
    <path d="M383.5,1094.9h-5.7v-.9c1.4-1.6,2.4-2.7,2.8-3.2s.8-1.1,1-1.7.4-1.2.4-1.8-.2-1-.5-1.4c-.4-.3-.8-.5-1.5-.5s-1.1.2-2,.4l-.2-1c.7-.3,1.5-.5,2.3-.5s1.7.3,2.2.8.9,1.2.9,2.1-.1,1.2-.4,1.8-.7,1.2-1.1,1.8-1.3,1.6-2.6,3h4.4v1.1h0Z"/>
    <path d="M407.9,1094.9h-1.5l-3-4.7h-1.3v4.7h-1.2v-10.3h2.9c1,0,1.8.2,2.3.7.6.5.9,1.1.9,2s-.2,1.2-.6,1.7c-.4.5-1,.8-1.7,1l3.3,4.9h0ZM402,1089.2h1.5c.6,0,1.1-.2,1.5-.5.4-.3.6-.8.6-1.3,0-1.2-.7-1.7-2.1-1.7h-1.5v3.5h0Z"/>
    <path d="M415.7,1094.9h-1.1v-1.1c-.8.9-1.7,1.3-2.6,1.3-1.4,0-2.1-.9-2.1-2.6v-5.2h1.1v4.9c0,.7.1,1.1.3,1.4s.5.5,1,.5c.7,0,1.5-.4,2.2-1.3v-5.5h1.1v7.6h0Z"/>
    <path d="M425.4,1094.9h-1.1v-5c0-1.2-.2-1.8-.7-1.8s-.5.2-.8.6-.4.7-.4.7v5.5h-1.1v-5c0-1.2-.2-1.8-.7-1.8s-.5.2-.8.6-.4.7-.4.7v5.5h-1.1v-7.6h1.1v1.2c.2-.4.5-.7.8-1,.3-.2.6-.4.9-.4s.6.1.8.4c.2.2.4.6.5,1,.2-.4.5-.7.8-1s.6-.4.9-.4c.9,0,1.4.8,1.4,2.5v5.3h0Z"/>
    <path d="M429,1088.3c.2-.3.6-.6,1-.8.4-.2.9-.3,1.4-.3.9,0,1.6.4,2.1,1.1s.8,1.7.8,2.8-.3,2.2-.8,2.9-1.2,1.2-2.1,1.2-.9-.1-1.3-.3c-.4-.2-.7-.6-1-.9v4.1h-1.1v-10.7h1.1v1h0ZM429,1089.4v3.2c.2.4.5.8.9,1.1s.7.4,1.1.4c.6,0,1.1-.3,1.5-.9.4-.6.5-1.3.5-2.2s-.2-1.6-.5-2.2-.8-.8-1.5-.8-1.5.4-2,1.3h0Z"/>
    <path d="M442.7,1094.9h-1.1v-1.1c-.8.9-1.7,1.3-2.6,1.3-1.4,0-2.1-.9-2.1-2.6v-5.2h1.1v4.9c0,.7.1,1.1.3,1.4s.5.5,1,.5c.7,0,1.5-.4,2.2-1.3v-5.5h1.1v7.6h0Z"/>
    <path d="M451,1088.4c-.6-.2-1.2-.3-1.8-.3s-1.1,0-1.5.3c-.4.2-.5.5-.5.8s0,.4.2.6c.2.2.5.3,1,.5l1.1.3c.5.1.9.3,1.2.5s.5.4.7.7.2.6.2,1c0,.7-.3,1.3-.9,1.7-.6.4-1.4.6-2.3.6s-1.7-.1-2.3-.4l.2-1c.6.3,1.3.4,2.1.4s1.1-.1,1.5-.4.6-.6.6-.9-.1-.5-.3-.7c-.2-.2-.7-.4-1.4-.7-.6-.2-1-.3-1.3-.4-.3,0-.5-.2-.8-.4s-.4-.4-.5-.6-.2-.5-.2-.8c0-.7.3-1.2.9-1.6s1.3-.6,2.3-.6,1.3,0,2,.3l-.3,1h0Z"/>
    <path d="M546.2,1028.9h-5.4v-1.1h2.2v-8l-2.1,1v-1.2l2.2-1.2h1v9.4h2v1.1h0Z"/>
    <path d="M552.9,1023.4c.6.2,1.1.5,1.5,1,.4.5.6,1,.6,1.6,0,.9-.3,1.7-1.1,2.3s-1.5.9-2.5.9-1.6-.2-2.2-.5l.2-1c.7.3,1.3.5,2,.5s1.2-.2,1.6-.6.7-.9.7-1.5-.2-1.1-.7-1.5c-.5-.4-1.1-.6-1.9-.6h-.3v-1h0c.8,0,1.4-.2,1.9-.5.5-.3.7-.8.7-1.4s-.2-.9-.5-1.2c-.3-.3-.8-.4-1.5-.4s-1.1.1-1.8.4l-.2-1c.7-.3,1.3-.5,2-.5s1.7.2,2.3.7c.6.5.9,1.1.9,1.9s-.2,1-.5,1.5c-.4.5-.8.7-1.3.9h0s0,0,0,0Z"/>
    <path d="M579,1019.5h-3.2v9.4h-1.2v-9.4h-3.2v-1h7.6v1h0Z"/>
    <path d="M587.4,1025.1h-5.2c0,.9.2,1.6.8,2.1s1.1.8,1.8.8,1.4-.1,2.2-.4l.2.9c-.7.3-1.5.4-2.4.4s-2-.4-2.7-1.1-1-1.7-1-2.9.3-2.2.9-2.9c.6-.7,1.4-1.1,2.4-1.1s1.6.3,2.2,1,.9,1.6.9,2.7v.4h0ZM586.1,1024.2c0-.6-.2-1.1-.6-1.5-.4-.4-.8-.6-1.2-.6s-1.1.2-1.5.6c-.4.4-.6.9-.7,1.5h3.9Z"/>
    <path d="M596.3,1021.5l-.5,1.1c-.5-.2-.9-.3-1.3-.3s-.7,0-1,.3-.6.5-.9.8c-.3.4-.4.6-.4.6v4.9h-1.1v-7.6h1.1v1.5c.6-1.2,1.4-1.7,2.4-1.7s1.1.1,1.7.4h0Z"/>
    <path d="M605.3,1021.5l-.5,1.1c-.5-.2-.9-.3-1.3-.3s-.7,0-1,.3-.6.5-.9.8c-.3.4-.4.6-.4.6v4.9h-1.1v-7.6h1.1v1.5c.6-1.2,1.4-1.7,2.4-1.7s1.1.1,1.7.4h0Z"/>
    <path d="M614.4,1028.9h-1.1c0-.3-.1-.7-.1-1.2-.7.9-1.5,1.4-2.7,1.4s-1.1-.2-1.5-.6-.7-.9-.7-1.6,0-.7.2-1,.4-.5.7-.7c.3-.2.7-.3,1.1-.5s.9-.2,1.5-.2h1.3v-.5c0-1.3-.6-2-1.8-2s-.7,0-1.1.2c-.4.1-.8.3-1.1.4l-.3-.8c1-.5,2-.8,2.9-.8,1.7,0,2.6.9,2.6,2.8v3.3c0,.7,0,1.2.2,1.8h0ZM613,1026.7v-1.4c-1,0-1.7.2-2.1.3s-.7.2-1,.4-.4.5-.4.9.1.6.4.8.5.3.9.3.8-.1,1.2-.4.8-.6,1-1h0Z"/>
    <path d="M623.1,1028.7c-.7.3-1.4.4-2.2.4-1.2,0-2.2-.4-2.9-1.1-.7-.7-1.1-1.7-1.1-2.9s.4-2.2,1.1-2.9c.7-.7,1.7-1.1,2.8-1.1s1.5.1,2.2.4l-.3,1c-.7-.2-1.3-.4-1.9-.4-.8,0-1.5.3-2,.8s-.7,1.3-.7,2.2.2,1.6.8,2.1,1.2.9,2,.9,1.3-.1,2-.4l.2.9h0Z"/>
    <path d="M632.4,1025.1h-5.2c0,.9.2,1.6.8,2.1s1.1.8,1.8.8,1.4-.1,2.2-.4l.2.9c-.7.3-1.5.4-2.4.4s-2-.4-2.7-1.1-1-1.7-1-2.9.3-2.2.9-2.9c.6-.7,1.4-1.1,2.4-1.1s1.6.3,2.2,1,.9,1.6.9,2.7v.4h0ZM631.2,1024.2c0-.6-.2-1.1-.6-1.5-.4-.4-.8-.6-1.2-.6s-1.1.2-1.5.6c-.4.4-.6.9-.7,1.5h3.9Z"/>
    <path d="M588.6,572.6c.6-.5,1.3-.8,2.1-.8s1.6.3,2.2.8c.6.6.9,1.3.9,2.2s-.3,1.8-.8,2.4c-.5.6-1.2,1-2.1,1s-2-.5-2.6-1.5-1-2.2-1-3.7.3-2.9,1-3.9,1.6-1.6,2.8-1.6,1.5.1,2.1.4l-.2,1.1c-.7-.2-1.3-.4-1.9-.4-.8,0-1.4.4-1.9,1.1-.5.8-.7,1.8-.7,3h0ZM588.6,573.6c0,.9.2,1.7.6,2.4.4.7.9,1.1,1.6,1.1s.9-.2,1.2-.6c.3-.4.4-.9.4-1.6s-.2-1.1-.5-1.5c-.3-.4-.8-.5-1.3-.5s-1.4.2-2,.8h0Z"/>
    <path d="M588.6,658.8c.6-.5,1.3-.8,2.1-.8s1.6.3,2.2.8c.6.6.9,1.3.9,2.2s-.3,1.8-.8,2.4c-.5.6-1.2,1-2.1,1s-2-.5-2.6-1.5-1-2.2-1-3.7.3-2.9,1-3.9,1.6-1.6,2.8-1.6,1.5.1,2.1.4l-.2,1.1c-.7-.2-1.3-.4-1.9-.4-.8,0-1.4.4-1.9,1.1-.5.8-.7,1.8-.7,3h0ZM588.6,659.8c0,.9.2,1.7.6,2.4.4.7.9,1.1,1.6,1.1s.9-.2,1.2-.6c.3-.4.4-.9.4-1.6s-.2-1.1-.5-1.5c-.3-.4-.8-.5-1.3-.5s-1.4.2-2,.8h0Z"/>
    <path d="M257.2,658c.3,0,.7-.1,1-.1,1,0,1.8.3,2.3.9.6.6.9,1.3.9,2.2s-.3,1.7-1,2.4-1.5,1-2.4,1-1.7-.2-2.3-.5l.2-1c.7.3,1.4.4,2.1.4s1.1-.2,1.5-.6c.4-.4.6-1,.6-1.7s-.2-1.2-.5-1.6c-.4-.4-.8-.6-1.4-.6s-.8,0-1.2.2l-.7-.3v-4.9h4.7v1h-3.7v3.1h0Z"/>
    <path d="M246,754.3h-5.4v-1h2.2v-8l-2.1,1v-1.2l2.2-1.2h1v9.3h2v1h0Z"/>
    <path d="M252.6,748.8c.6.2,1.1.5,1.5,1,.4.5.6,1,.6,1.6,0,.9-.4,1.7-1.1,2.3-.7.6-1.5.9-2.5.9s-1.6-.2-2.2-.5l.2-1c.7.3,1.4.5,2,.5s1.2-.2,1.6-.6.7-.9.7-1.5-.2-1.1-.7-1.5c-.5-.4-1.1-.6-1.9-.6h-.3v-1h0c.8,0,1.4-.2,1.9-.5.5-.3.7-.8.7-1.4s-.2-.9-.5-1.2-.8-.4-1.4-.4-1.1.1-1.8.4l-.2-1c.7-.3,1.3-.5,2-.5s1.7.2,2.3.7.9,1.1.9,1.9-.2,1-.6,1.5c-.4.5-.8.7-1.3.9h0s0,0,0,0Z"/>
    <path d="M261.6,559.6l-4.1,9.5h-1.2l4-9.3h-4.8v-1h6.1v.9h0Z"/>
    <path d="M181.4,608.2c.6-.5,1.3-.8,2.1-.8s1.6.3,2.2.8c.6.6.9,1.3.9,2.2s-.3,1.8-.8,2.4c-.5.6-1.2,1-2.1,1s-2-.5-2.6-1.5-1-2.2-1-3.7.3-2.9,1-3.9,1.6-1.6,2.8-1.6,1.5.1,2.1.4l-.2,1.1c-.7-.2-1.3-.4-1.9-.4-.8,0-1.4.4-1.9,1.1-.4.8-.7,1.8-.7,3h0ZM181.4,609.3c0,.9.2,1.7.6,2.4.4.7.9,1.1,1.6,1.1s.9-.2,1.2-.6c.3-.4.4-.9.4-1.6s-.2-1.1-.5-1.5c-.3-.4-.8-.5-1.3-.5s-1.4.2-2,.8h0Z"/>
    <path d="M403.6,631.5h-5.4v-1h2.2v-8l-2.1,1v-1.2l2.2-1.2h1v9.3h2v1h0Z"/>
    <path d="M412.3,631.5h-5.7v-.9c1.4-1.6,2.4-2.7,2.8-3.2s.8-1.1,1-1.7.4-1.2.4-1.8-.2-1-.5-1.4c-.4-.3-.8-.5-1.5-.5s-1.1.2-2,.5l-.2-1c.7-.3,1.5-.5,2.3-.5s1.7.3,2.2.8.9,1.2.9,2.1-.1,1.2-.4,1.8-.7,1.2-1.1,1.8-1.3,1.6-2.6,3h4.4v1h0Z"/>
  </g>
</svg>