<svg xmlns="http://www.w3.org/2000/svg" viewBox="0 0 800 1120" xmlns:v="https://vecta.io/nano"><style><![CDATA[.F{stroke-linejoin:round}.G{stroke-linecap:round}.H{stroke-width:.4}]]></style><g fill="none" stroke="#231f20" class="F"><g class="G"><g stroke-dasharray="0 2" stroke-width=".2"><path d="M341.6 189.5h115.9m6.1 0h200.6m-528.9 0h140.9m181.3 3.1H341.7m22.2 611.2h84.5"/><path d="M363.9 702.1h84.5m0 104.8h-84.5m307-391.7V534m-3.1-.1V415.2m-535.2 0V534m-3.1-.1V415.2"/></g><g stroke-width="1.2"><path d="M551.8 806.7v-6.3M335.8 312h-144m-56.4 0h53.2"/><path d="M135.4 312h0m322.5-17.2v120.5m6.3-120.5h-6.3m6.3 120.5V294.8m-6.3 120.5h6.3m0-158.1h-6.3m6.3-67.3v67.3"/><path d="M457.9 189.9v67.3m-122.1 37.6h6.3m-6.3 14.1v-14.1m6.3 120.5V294.8"/><path d="M342.1 257.2v-67.3m-6.3 67.3h6.3"/><path d="M335.8 196.1v61m-53.2-61h53.2M282.6 211v-14.9m-6.3 14.9h6.3"/><path d="M276.3 189.9V211m65.8-21.1h-65.7M514.3 694h-3.1m3.1 31.3V694m43.8 31.3h-43.8m156.5 0H561.2M511.1 694v34.4h153.5M285.7 600v18.8m-42.2 0h42.2m0-18.8h3.2m225.4-59.4H602m-87.7 81.5v-81.5m-3.2 81.5h3.1m-3.1-81.5v81.5m0-87.8v6.3"/><path d="M601.9 534.3h-90.8m153.5 0h6.2"/><path d="M664.6 534.3h6.2m-68.9 0v6.3m-259.8 78.2v3.1m21.9-3.1h-21.9m21.9 40.8v-40.8m36 40.8h-36m0 3.1h36m-36 144v-144m-6.3 144h6.3"/><path d="M357.7 622v39.1M342.1 622h15.6m-68.8-3.2h21.9M288.9 600v18.8m68.8 42.3v145.6m153.4-391.4h120.6M511.1 409l120.6.1"/><path d="M631.7 415.3v-6.2m-176.9 213h18.8m-18.8 103.2v-62.6m0 65.7h18.7v-3.1h-18.7M400 659.6v3.1M241.9 415.3h47.5m-47.5-6.4h47.5"/><path d="M289.4 415.3v-6.4m-154-96.9v18.8m0-140.9v119m56.4 106.4V409m-62.7 6.3h62.6m144.1 0V312m6.3 103.3h-6.3M135.4 308.9h200.4"/><path d="M129.1 409.2v6.1m0-225.4v140.9m6.3 0h-6.3m112.8 78.1v6.4"/><path d="M129.1 189.9h6.3m375.7 225.4v-6.2M153.5 764.2s.1 0 .2.2m310.5-230.1v3.1m-19 0V575m-24.9-37.6V575m-84.5-37.6l-.1-3.1m109.5 3.1h19m-128.4 0h84.5m43.8 37.6v3.1m-18.9-3.1h18.9m-128.3 3.1h128.4"/><path d="M335.8 578.1V575m0 0h84.5m-291.2-12.5v-28.2m6.3 28.2v-28.2m0 28.2h-6.3m0 37.5v206.7m6.3-206.7h-6.3m206.6-65.7h128.5m206.6-344.4h-6.3m0 219.2V189.9m6.3 225.4V189.9"/><path d="M464.2 189.9h-6.3m206.6 225.4h6.3"/><path d="M664.5 409.1v6.2M129.1 806.7h6.3"/><path d="M135.4 534.3h-6.3m6.3 272.4V622m529.2 40.7h6.2m-535.4-44V600m104.9 18.8H135.4m175.4 3.2v-3.1m-25.1 3.1h25m-65.7 0h40.7m-150.3 0H245"/><path d="M243.5 600h-3.1m3.1 18.8V600m-3.2 18.8V600m0-37.5v-28.2"/><path d="M243.5 562.5h-3.1m3.1-21.9v21.9m45.7-28.2h-48.9m49.1 28.2v-28.2m-3.7 28.2h3.5"/><path d="M285.7 540.6v21.9m0-21.9h-42.2m427.3 184.7v81.4m0-272.4v128.4m-6.2 0V534.3m0 266.1v-72m0 72h-18.8v6.3m25 0h-25m-191-21.9v-56.4m-6.3-65.7v144m0-147.1h-9.4v3.1h9.4m0-43.9v40.8m25-40.8h-25m25 3.3v-3.3m-18.7 166v15.7m106.4-137.8h72v-3.1H511.1v3.1h47m3.1 62.6v-62.6m-3.1 62.6v-62.6m-103.3-3.1v-37.5m0 40.6h18.7v-3.1h-18.7M188.6 409h-53.2v-40.6h-6.3v40.8m62.7-.2v-40.6h-3.2V409m3.2-97v18.8h-3.2V312m363.2 488.4h-97m-6.3 6.3h103.3"/></g><g stroke-width=".3"><path d="M129.1 330.8v37.6m111.2 172.2H135.4m529.2 122.1v62.6m6.2-62.6v62.6m-68.9-166h62.7"/><path d="M601.9 540.6h62.7m-62.7-6.3h62.7m-529.2 28.2V600M400 659.6h39.1m112.7 147.1h94"/><path d="M551.8 800.4h94M342.1 257.2h115.8m-115.8-6.3h115.8M135.4 806.7h206.7m289.6-397.6h32.8m-32.8 6.2h32.8M129.1 562.5V600M400 662.7h39.1"/><path d="M191.8 409h50.1m-50.1 6.3h50.1m-106.5-46.9v-37.6m140.9-123.7H135.4m140.9 4.7H135.4m261.8 325.6V575m-8.8-37.6V575m26.3-37.6V575m-8.8-37.6V575m-26.3-37.6V575m-8.7-37.6V575m-8.8-37.6V575m-8.8-37.6V575m-8.7-37.6V575m-8.8-37.6V575m128.4-367.9h200.3m-200.3 4.7h200.3M327 537.4V575m8.8 0H327"/><path d="M335.8 537.4H327m-43.8-3.1v-119m6.2 119v-119m228 119v-119m-6.3 119v-119m-270.8 119H135.4"/></g><g class="H"><path d="M511.1 728.4v9.4h153.5m-191.1-9.4v9.4h-18.7m-112.7 68.9h15.6M188.6 330.8h-53.2"/><path d="M473.5 725.3v-62.6m128.4-122.1v18.7h-87.6m-274 40.7H135.4"/><path d="M135.4 562.5h104.9m424.3 222.3H454.8M335.7 513.9v20.4"/><path d="M464.2 513.9v20.4m-128.5-20.4h128.5"/></g></g><path d="M335.8 451.3h128.3v25H335.8z" class="H"/><path d="M464 537.4V575m200.5-181.6H511.1m0 15.7v-15.7m-175.3-98.6H135.4m200.4 36h-144m150.3 475.9V622m-59.5-411h53.2M364 618.8h15.6v40.8" class="G H"/><g stroke-width=".8"><circle cx="765.5" cy="1024" r="11.4"/><path d="M765.5 1012.6v11.4" class="G"/></g></g><path d="M402.9 503.4h-5.4v-1h2.2v-8l-2.1 1v-1.2l2.2-1.1h1v9.4h2v1h0zm167.3-191.8h-5.7v-.9l2.8-3.2c.4-.5.8-1.1 1-1.7.3-.6.4-1.2.4-1.8s-.2-1-.5-1.4c-.3-.3-.8-.5-1.5-.5s-1.1.1-2 .5l-.2-1c.7-.3 1.5-.5 2.3-.5s1.7.3 2.2.8.8 1.2.8 2.1-.2 1.2-.4 1.9c-.3.6-.7 1.2-1.1 1.8s-1.3 1.6-2.7 3h4.3v1h0zM399 347.5c.6.2 1.1.5 1.5 1s.6 1 .6 1.6c0 .9-.4 1.7-1.1 2.3s-1.5.9-2.5.9-1.6-.2-2.2-.5l.2-1c.7.3 1.4.5 2 .5s1.2-.2 1.6-.6.7-.9.7-1.5-.2-1.1-.7-1.5-1.1-.6-1.9-.6h-.3v-1h0c.8 0 1.4-.2 1.9-.5s.7-.8.7-1.4-.2-.9-.5-1.1-.8-.4-1.5-.4-1.1.1-1.8.4l-.2-1c.7-.3 1.3-.5 2-.5s1.7.2 2.3.7a2.32 2.32 0 0 1 .9 1.9c0 .8-.2 1-.5 1.5-.4.5-.8.7-1.3.9h0zM191.2 586.2h-1.3v2.4h-1.2v-2.4h-4.5v-.9l4.1-7h1.6v6.9h1.3v1zm-2.4-1v-5.7l-3.3 5.7h3.3zm73.7-2.7c.3 0 .7-.1 1-.1 1 0 1.8.3 2.3.9.6.6.9 1.3.9 2.2s-.3 1.7-1 2.4-1.5 1-2.4 1-1.7-.2-2.3-.5l.2-1c.7.3 1.4.4 2.1.4s1.1-.2 1.5-.6.6-1 .6-1.7-.2-1.2-.5-1.6c-.4-.4-.8-.6-1.4-.6s-.8 0-1.2.2l-.7-.3v-4.9h4.7v1h-3.7v3.1h0zm272.3 111.2c.3 0 .7-.1 1-.1 1 0 1.8.3 2.3.9.6.6.8 1.3.8 2.2s-.3 1.7-1 2.4-1.5 1-2.4 1-1.7-.2-2.3-.5l.2-1c.7.3 1.3.4 2.1.4s1.1-.2 1.5-.6.6-1 .6-1.7-.2-1.2-.5-1.6c-.4-.4-.8-.6-1.4-.6s-.8 0-1.2.2l-.7-.3v-4.9h4.7v1h-3.7v3.1h0zm55.9-80.7c.6-.5 1.3-.8 2.1-.8s1.6.3 2.2.8c.6.6.9 1.3.9 2.2s-.3 1.8-.8 2.4-1.2 1-2.1 1a3.14 3.14 0 0 1-2.6-1.5c-.6-1-1-2.2-1-3.7s.3-2.9 1-3.9 1.6-1.6 2.8-1.6 1.5.1 2.1.4l-.2 1.1c-.7-.2-1.3-.4-1.9-.4-.8 0-1.4.4-1.9 1.1-.5.8-.7 1.8-.7 3h0zm0 1.1c0 .9.2 1.7.6 2.4s.9 1.1 1.6 1.1.9-.2 1.2-.6.4-.9.4-1.6-.2-1.1-.5-1.5-.8-.5-1.3-.5-1.4.2-2 .8h0zM265.1 368.8c.6-.5 1.4-.8 2.1-.8a3.72 3.72 0 0 1 2.2.8c.6.6.9 1.3.9 2.2s-.3 1.8-.8 2.4-1.2 1-2.1 1a3.14 3.14 0 0 1-2.6-1.5c-.6-1-1-2.2-1-3.7s.3-2.9 1-3.9 1.6-1.6 2.8-1.6 1.5.1 2.1.4l-.2 1.1c-.7-.2-1.3-.4-1.9-.4-.8 0-1.4.4-1.9 1.1s-.7 1.8-.7 3h0zm0 1.1c0 .9.2 1.7.6 2.4s.9 1.1 1.6 1.1.9-.2 1.2-.6.4-.9.4-1.6-.2-1.1-.5-1.5-.8-.5-1.3-.5-1.4.2-2 .8h0zm-100-5.2l-4.1 9.5h-1.2l4-9.3H159v-1h6.1v.9h0zM237.6 255c-.6.5-1.3.8-2.1.8s-1.6-.3-2.2-.8c-.6-.6-.9-1.3-.9-2.2s.3-1.7.8-2.4 1.3-1 2.2-1 1.9.5 2.5 1.5.9 2.2.9 3.8-.4 2.8-1.1 3.9-1.7 1.6-2.9 1.6-1.5-.1-2.1-.4l.2-1.1c.7.2 1.3.4 1.9.4.8 0 1.5-.4 1.9-1.2s.7-1.8.7-2.9h0zm-.1-1.1c0-.9-.2-1.7-.6-2.4s-.9-1.1-1.5-1.1-1 .2-1.3.6-.5.9-.5 1.6.2 1.1.5 1.5.8.6 1.3.6 1.4-.2 1.9-.7h.1zm172.7 371.4h-5.4v-1h2.2v-8l-2.1 1v-1.2l2.2-1.2h1v9.3h2v1h0zm6-10.5c1.1 0 1.9.5 2.5 1.4s.9 2.3.9 4-.3 3-.9 3.9c-.6 1-1.4 1.5-2.5 1.5s-1.9-.5-2.5-1.4-.9-2.3-.9-4 .3-3 .9-3.9c.6-1 1.4-1.5 2.5-1.5h0zm0 9.7c.7 0 1.3-.3 1.6-1 .4-.7.5-1.8.5-3.3s-.2-2.6-.5-3.3c-.4-.7-.9-1-1.6-1s-1.2.3-1.6 1-.5 1.8-.5 3.2.2 2.6.5 3.3c.4.7.9 1 1.6 1h0zm0-5.4c.3 0 .6.1.8.3s.3.5.3.8-.1.6-.3.8-.5.3-.8.3-.5-.1-.8-.3c-.2-.2-.3-.5-.3-.8s.1-.6.3-.8.5-.3.8-.3h0z"/><use href="#B"/><use href="#B" x="9"/><path d="M563.8 764.6c.7.2 1.2.5 1.6 1s.6 1.1.6 1.7c0 1-.3 1.7-.9 2.3s-1.4.8-2.3.8-1.8-.3-2.4-.8-.9-1.3-.9-2.2.2-1.2.6-1.7 1-.8 1.7-1.1c-.6-.2-1-.4-1.4-.8-.3-.4-.5-.9-.5-1.4s.3-1.3.8-1.8 1.2-.8 2.1-.8 1.6.3 2.1.8.8 1.1.8 1.8-.2 1-.5 1.4-.8.7-1.4.9h0zm-1 .5c-1.3.4-2 1.1-2 2.2s.2 1.1.6 1.5.9.6 1.4.6 1-.2 1.4-.6.6-.9.6-1.5-.1-.9-.4-1.3-.8-.7-1.6-.9h0zm0-1h.3c.2 0 .4-.1.5-.2.2 0 .3-.2.4-.3s.2-.3.3-.5c0-.2.1-.4.1-.6 0-.5-.2-.9-.5-1.2s-.8-.5-1.2-.5-.9.2-1.2.5-.5.7-.5 1.2 0 .5.2.8.3.4.5.5l.6.3c.2 0 .4.1.5.1h0zm56.3-73.7l-4.1 9.5h-1.2l4-9.3H613v-1h6.1v.9h0zM32.2 1028.9h-5.4v-1.1H29v-8l-2.1 1v-1.2l2.2-1.2h1v9.4h2v1.1h0zm33.4 0h-1.5l-3.5-5.1-1.1 1.2v3.9h-1.2v-10.3h1.2v5l4.6-5h1.4l-4 4.4 4.2 6h0zm5.7 0h-1.1v-6.6H68v-1h3.4v7.6zm-.6-10.5c.2 0 .4 0 .6.2s.2.3.2.5 0 .4-.2.6-.3.2-.6.2-.4 0-.5-.2-.2-.3-.2-.5 0-.4.2-.5.3-.2.5-.2h0zm11.6 10.2c-.8.3-1.5.5-2.3.5-1.4 0-2-.7-2-2.2v-4.7h-1.5v-1H78v-2.1h1.1v2.1h2.6v1h-2.6v4.4c0 .5 0 .8.3 1.1s.5.4.8.4c.6 0 1.2-.1 1.8-.4l.2.9z"/><use href="#C"/><path d="M100.2 1028.9h-1.1v-4.9c0-.7-.1-1.2-.3-1.5s-.6-.5-1-.5c-.7 0-1.4.4-2.2 1.3v5.5h-1.1v-10.3h1.1v3.8c.8-.9 1.7-1.3 2.6-1.3 1.4 0 2.2.9 2.2 2.6v5.2h0zm9.2-3.8h-5.2c0 .9.2 1.6.8 2.1s1.1.8 1.8.8 1.4-.1 2.2-.4l.2.9c-.7.3-1.5.4-2.4.4s-2.1-.4-2.7-1.1-1-1.7-1-2.9.3-2.2.9-2.9a3.04 3.04 0 0 1 2.4-1.1c1 0 1.6.3 2.2 1s.9 1.6.9 2.7v.4h0zm-1.2-.9c0-.6-.2-1.1-.6-1.5s-.8-.6-1.2-.6-1.1.2-1.5.6-.6.9-.7 1.5h3.9zm10 4.7h-1.1v-4.9c0-.7-.1-1.2-.3-1.5s-.6-.5-1-.5c-.7 0-1.4.4-2.2 1.3v5.5h-1.1v-7.6h1.1v1.1c.8-.9 1.7-1.3 2.6-1.3 1.4 0 2.2.9 2.2 2.6v5.2h0zm-86.3 22h-5.7v-.9l2.8-3.2c.4-.5.8-1.1 1-1.7.3-.6.4-1.2.4-1.8s-.2-1-.5-1.4-.8-.5-1.5-.5-1.1.2-2 .4l-.2-1c.7-.3 1.5-.5 2.3-.5s1.7.3 2.2.8.9 1.2.9 2.1-.1 1.2-.4 1.8-.7 1.2-1.1 1.8-1.3 1.6-2.6 3h4.4v1.1h0zm32.3 0h-5.6v-10.3h1.2v9.3h4.4v1.1h0z"/><use href="#D"/><path d="M82.5,1043.3l-2.9,7.6h-1l-2.9-7.6h1.2l2.2,6.1,2.2-6.1h1.2,0Z"/><use href="#E"/><use href="#F"/><use href="#G"/><path d="M29.9 1067.4c.6.2 1.1.5 1.5 1s.6 1 .6 1.6c0 .9-.4 1.7-1.1 2.3s-1.5.9-2.5.9-1.6-.2-2.2-.5l.2-1c.7.3 1.4.5 2 .5s1.2-.2 1.6-.6.7-.9.7-1.5-.2-1.1-.7-1.5-1.1-.6-1.9-.6h-.3v-1h0c.8 0 1.4-.2 1.9-.5s.7-.8.7-1.4-.2-.9-.5-1.2-.8-.4-1.5-.4-1.1.1-1.8.4l-.2-1c.7-.3 1.3-.4 2-.4s1.7.2 2.3.7a2.32 2.32 0 0 1 .9 1.9c0 .8-.2 1-.5 1.5-.4.5-.8.7-1.3.9h0zm28.4-4.8h2c1.3 0 2.4.5 3.2 1.4s1.2 2.2 1.2 3.8-.4 2.9-1.2 3.8-1.9 1.3-3.2 1.3h-2.1v-10.3h0zm1.2 9.3h.8c1 0 1.8-.4 2.3-1.1s.9-1.7.9-3-.3-2.3-.9-3-1.3-1.1-2.3-1.1h-.8v8.2z"/><use href="#D" y="22"/><use href="#F" x="-18" y="22"/><use href="#E" y="22"/><use href="#F" y="22"/><use href="#G" y="22"/><path d="M32.6 1092.5h-1.3v2.4h-1.2v-2.4h-4.5v-.9l4.1-7h1.6v6.9h1.3v1.1zm-2.5-1v-5.7l-3.3 5.7h3.3zm34.1 3.4h-5.6v-10.3h1.2v9.3h4.4v1.1h0zm9.2 0h-1.1c0-.3-.1-.7-.1-1.2-.7.9-1.5 1.4-2.7 1.4s-1.1-.2-1.5-.6-.7-.9-.7-1.6 0-.7.2-1 .4-.5.7-.7.7-.3 1.1-.5.9-.2 1.5-.2h1.3v-.5c0-1.3-.6-2-1.8-2s-.7 0-1.1.2c-.4.1-.8.3-1.1.4l-.3-.8c1-.5 2-.8 2.9-.8 1.7 0 2.6.9 2.6 2.8v3.3c0 .7 0 1.2.2 1.8h0zm-1.4-2.2v-1.4c-1 0-1.7.2-2.1.3-.4 0-.7.2-1 .4s-.4.5-.4.9.1.6.4.8.5.3.9.3a1.92 1.92 0 0 0 1.2-.4c.4-.3.8-.6 1.1-1h0zm10.2 2.2h-1.1v-1.1c-.8.9-1.7 1.3-2.6 1.3-1.4 0-2.2-.9-2.2-2.6v-5.2h1.1v4.9c0 .7 0 1.1.3 1.4s.6.5 1 .5c.7 0 1.4-.4 2.2-1.3v-5.5H82v7.6h0z"/><use href="#F" x="-9" y="44"/><path d="M100.2 1094.9h-1.1v-1.1c-.2.4-.6.7-1 .9s-.9.4-1.4.4c-.9 0-1.6-.4-2.1-1.2s-.8-1.8-.8-3 .3-2 .8-2.8c.5-.7 1.2-1.1 2.1-1.1s1.7.4 2.3 1.2v-3.7h1.1v10.3h0zm-1.2-2.3v-3.2c-.6-.9-1.2-1.3-2-1.3s-1.1.3-1.5.8c-.4.6-.6 1.3-.6 2.1s.2 1.6.5 2.2.8.9 1.4.9.6 0 .9-.2.6-.4.8-.7c.3-.3.4-.5.4-.6h0zm10.3-5.1l-.5 1.1c-.5-.2-.9-.3-1.3-.3s-.7 0-1 .3c-.3.2-.6.5-.9.8s-.4.6-.4.6v4.9h-1.1v-7.6h1.1v1.6c.6-1.2 1.4-1.7 2.4-1.7s1.1.1 1.7.4h0z"/><use href="#H"/><path d="M200.5 1022.8c.3 0 .7-.1 1-.1 1 0 1.8.3 2.3.9.6.6.9 1.3.9 2.2s-.3 1.7-1 2.4-1.5 1-2.4 1-1.7-.2-2.3-.4l.2-1c.7.3 1.4.4 2.1.4s1.1-.2 1.5-.6.6-1 .6-1.7-.2-1.2-.6-1.6-.8-.6-1.4-.6-.8 0-1.2.2l-.7-.3v-4.9h4.7v1h-3.7v3.1h0z"/><use href="#I"/><path d="M246.1 1028.3c-.8.6-1.8.8-2.8.8s-2.4-.5-3.1-1.4-1-2.2-1-4 .3-3 1-3.9 1.7-1.4 3.1-1.4 1 0 1.5.2.9.3 1.2.5l-.4.9a4.38 4.38 0 0 0-2.3-.6c-.9 0-1.7.3-2.1 1-.5.7-.7 1.8-.7 3.3 0 2.9.9 4.3 2.8 4.3s1.6-.2 2.4-.7l.4.9h0zm-46.1 17.2c.6-.5 1.3-.8 2.1-.8s1.6.3 2.2.8c.6.6.9 1.3.9 2.2s-.3 1.8-.8 2.4-1.2.9-2.1.9a3.14 3.14 0 0 1-2.6-1.5c-.6-1-1-2.2-1-3.7s.3-2.9 1-3.9c.7-1.1 1.6-1.6 2.8-1.6s1.5.1 2.1.4l-.2 1.1c-.7-.2-1.3-.4-1.9-.4-.8 0-1.4.4-1.9 1.1s-.7 1.8-.7 2.9h0zm0 1.1c0 .9.2 1.7.6 2.4s.9 1.1 1.6 1.1.9-.2 1.2-.6.4-.9.4-1.6-.2-1.1-.5-1.5-.8-.6-1.3-.6-1.4.2-2 .8h0z"/><use href="#J"/><path d="M246 1047.1h-5.2c0 .9.2 1.6.8 2.1s1.1.8 1.8.8 1.4-.1 2.1-.4l.2.9c-.7.3-1.5.4-2.4.4s-2.1-.4-2.7-1.1-1-1.7-1-2.9.3-2.2.9-2.9a3.04 3.04 0 0 1 2.4-1.1c1 0 1.6.3 2.2 1s.9 1.6.9 2.7v.4h0zm-1.3-.9c0-.6-.2-1.1-.6-1.5s-.8-.6-1.2-.6-1.1.2-1.5.6-.6.9-.6 1.5h3.9zm10 4.7h-1.1v-1.1c-.2.4-.6.7-1 .9s-.9.4-1.4.4c-.9 0-1.6-.4-2.1-1.2s-.8-1.8-.8-3 .3-2 .8-2.8c.5-.7 1.2-1.1 2.1-1.1s1.7.4 2.3 1.2v-3.7h1.1v10.3h0zm-1.1-2.3v-3.2c-.6-.9-1.2-1.3-2-1.3s-1.1.3-1.5.8c-.4.6-.6 1.3-.6 2.1s.2 1.6.5 2.2.8.9 1.4.9.6 0 .9-.2.6-.4.8-.7c.3-.3.4-.5.4-.6h0zm-48.7 14.8l-4.1 9.5h-1.2l4-9.3h-4.8v-1.1h6.1v.9h0z"/><use href="#J" y="22"/><path d="M245.9 1072.9h-1.1c0-.3-.1-.7-.1-1.2-.6.9-1.5 1.4-2.6 1.4s-1.1-.2-1.5-.6-.6-.9-.6-1.6 0-.7.2-1 .4-.5.7-.7.6-.3 1.1-.5c.4-.1.9-.2 1.5-.2h1.3v-.5c0-1.3-.6-2-1.8-2s-.6 0-1.1.2c-.4.1-.8.3-1.1.4l-.3-.8c1-.5 2-.8 2.9-.8 1.7 0 2.6.9 2.6 2.8v3.3c0 .7 0 1.2.2 1.8h0zm-1.3-2.2v-1.4c-1 0-1.7.2-2.1.3-.4 0-.7.2-1 .4s-.4.5-.4.9.1.6.4.8.5.3.9.3a1.92 1.92 0 0 0 1.2-.4c.4-.2.8-.6 1.1-1h0zm10.2 1.9c-.8.3-1.5.5-2.3.5-1.4 0-2-.7-2-2.2v-4.7H249v-1h1.5v-2.1h1.1v2.1h2.6v1h-2.6v4.4c0 .5.1.8.3 1.1s.5.4.8.4c.6 0 1.2-.1 1.9-.4l.2.9h0zm9 .3h-1.1v-4.9c0-.7-.1-1.2-.3-1.5s-.6-.5-1-.5c-.7 0-1.5.4-2.2 1.3v5.5h-1.1v-10.3h1.1v3.8c.8-.9 1.7-1.3 2.6-1.3 1.4 0 2.1.9 2.1 2.6v5.2h0z"/><use href="#K"/><use href="#L"/><use href="#M"/><use href="#N"/><path d="M202.8 1089.2c.7.2 1.2.6 1.6 1.1s.6 1.1.6 1.7c0 .9-.3 1.7-.9 2.3s-1.4.8-2.3.8-1.8-.3-2.4-.8c-.6-.6-.9-1.3-.9-2.2s.2-1.2.6-1.7 1-.8 1.7-1.1c-.6-.2-1-.4-1.4-.8-.3-.4-.5-.9-.5-1.4s.3-1.3.8-1.8 1.2-.8 2.1-.8 1.6.3 2.1.8.8 1.1.8 1.8-.2 1-.5 1.4-.8.7-1.4.9h0zm-1 .6c-1.3.4-2 1.1-2 2.2s.2 1.1.6 1.5.9.6 1.4.6 1-.2 1.4-.6.6-.9.6-1.5-.1-.9-.4-1.3-.8-.7-1.6-.9h0zm0-1h.4c.3 0 .4-.1.5-.2s.3-.2.4-.3.2-.3.3-.5c0-.2.1-.4.1-.6 0-.5-.2-.9-.5-1.2s-.7-.5-1.2-.5-.9.2-1.2.5-.5.7-.5 1.2 0 .5.2.8.3.4.4.5.4.2.6.3c.2 0 .4.1.4.1h0zm34.2-3.1c-.6-.2-1.2-.3-1.8-.3s-1.1.1-1.5.4-.6.7-.6 1.2.5 1.2 1.5 1.7c.8.3 1.3.6 1.5.7s.5.3.8.6.5.5.6.8.2.7.2 1.1c0 1-.3 1.8-1 2.3-.7.6-1.5.8-2.4.8s-1.7-.2-2.3-.5l.2-1a4.55 4.55 0 0 0 2.1.5c.6 0 1.2-.2 1.6-.5s.6-.8.6-1.5-.1-.8-.4-1.2c-.3-.3-.8-.7-1.5-1s-1.2-.6-1.4-.7-.4-.3-.6-.5a3.04 3.04 0 0 1-.5-.7 2.39 2.39 0 0 1-.2-.9c0-.8.3-1.5.9-2s1.4-.7 2.3-.7 1.4.1 2.1.3l-.3 1h0zm9.8 8.9c-.8.3-1.5.5-2.3.5-1.4 0-2-.7-2-2.2v-4.7H240v-1h1.5v-2.1h1.1v2.1h2.6v1h-2.6v4.4c0 .5.1.8.3 1.1s.5.4.8.4c.6 0 1.2-.1 1.9-.4l.2.9h0zm8.9.3h-1.1v-1.1c-.8.9-1.7 1.3-2.6 1.3-1.4 0-2.1-.9-2.1-2.6v-5.2h1.1v4.9c0 .7.1 1.1.3 1.4s.6.5 1 .5c.7 0 1.4-.4 2.2-1.3v-5.5h1.1v7.6h0zm9 0h-1.1v-1.1c-.2.4-.6.7-1 .9s-.9.4-1.4.4c-.9 0-1.6-.4-2.1-1.2s-.8-1.8-.8-3 .3-2 .8-2.8c.5-.7 1.2-1.1 2.1-1.1s1.7.4 2.3 1.2v-3.7h1.1v10.3h0zm-1.1-2.3v-3.2c-.5-.9-1.2-1.3-2-1.3s-1.1.3-1.5.8c-.4.6-.5 1.3-.5 2.1s.2 1.6.5 2.2.8.9 1.4.9.6 0 .9-.2.6-.4.8-.7c.3-.3.4-.5.4-.6h0z"/><use href="#H" x="154.6"/><path d="M373.8 1024c-.6.5-1.3.8-2.1.8s-1.6-.3-2.2-.8c-.6-.6-.9-1.3-.9-2.2s.3-1.7.8-2.4 1.3-1 2.2-1 1.9.5 2.5 1.5.9 2.2.9 3.8-.4 2.8-1.1 3.9-1.7 1.6-2.9 1.6-1.5-.1-2.1-.4l.2-1.1c.7.2 1.3.4 1.9.4.8 0 1.5-.4 1.9-1.2.5-.8.7-1.8.7-2.9h0zm-.1-1.1c0-.9-.2-1.7-.6-2.4s-.9-1-1.5-1-1 .2-1.3.6-.5.9-.5 1.6.2 1.1.5 1.5.8.6 1.3.6 1.4-.2 2-.7h0z"/><use href="#I" x="170"/><use href="#L" x="134" y="-44"/><use href="#O"/><path d="M434.5 1028.9H433l-3.2-3.8-.8.6v3.2h-1.1v-10.3h1.1v5.9l3.6-3.2h1.5l-3.5 3.1 3.9 4.5h0z"/><use href="#O" x="18"/><use href="#L" x="170" y="-44"/><use href="#M" x="170" y="-44"/><use href="#N" x="170" y="-44"/><path d="M374.8 1050.9h-5.4v-1.1h2.2v-8l-2.1 1v-1.2l2.2-1.2h1v9.3h2v1.1h0zm6-10.5c1.1 0 1.9.5 2.5 1.4s.9 2.3.9 4-.3 2.9-.9 3.9-1.4 1.4-2.5 1.4-1.9-.5-2.5-1.4-.9-2.3-.9-4 .3-3 .9-3.9c.6-1 1.4-1.4 2.5-1.4h0zm0 9.7c.7 0 1.3-.3 1.6-1 .4-.7.5-1.8.5-3.3s-.2-2.6-.5-3.3c-.4-.7-.9-1-1.6-1s-1.2.3-1.6 1.1c-.4.7-.5 1.8-.5 3.2s.2 2.6.5 3.3c.4.7.9 1 1.6 1h0zm0-5.4c.3 0 .6.1.8.3s.3.5.3.8-.1.6-.3.8-.5.3-.8.3-.5-.1-.8-.3c-.2-.2-.3-.5-.3-.8s.1-.6.3-.8.5-.3.8-.3h0zm25.8 6.2h-5.4v-10.3h5.4v1.1h-4.1v3.2h4v1.1h-4v4h4.2v1.1h0zm9.2 0h-1.1v-4.9c0-.7-.1-1.2-.3-1.5s-.6-.5-1-.5c-.7 0-1.5.4-2.2 1.3v5.5h-1.1v-7.6h1.1v1.1c.8-.9 1.7-1.3 2.6-1.3 1.4 0 2.1.9 2.1 2.6v5.2h0zm9-.3c-.8.3-1.5.5-2.3.5-1.4 0-2-.7-2-2.2v-4.7H419v-1h1.5v-2.1h1.1v2.1h2.6v1h-2.6v4.4c0 .5.1.8.3 1.1s.5.4.8.4c.6 0 1.2-.1 1.9-.4l.2.9h0zm9.1-7.1l-.5 1.1c-.5-.2-.9-.3-1.3-.3s-.7 0-1 .3c-.3.2-.6.5-.9.8-.3.4-.4.6-.4.6v4.9h-1.1v-7.6h1.1v1.6c.6-1.2 1.4-1.7 2.4-1.7s1.1.1 1.7.4h0zm9.2-.2l-2.9 7.6c-.4 1.1-.8 1.9-1.2 2.3s-.9.7-1.4.7-.9 0-1.4-.3l.2-.9c.4.1.7.2 1 .2s.8-.2 1-.5.5-.8.8-1.6l-2.9-7.6h1.2l2.2 6.1 2.2-6.1h1.2 0z"/><use href="#P"/><use href="#P" x="9"/><path d="M407.1 1072.2c-.8.6-1.8.9-2.8.9s-2.4-.5-3-1.4-1-2.2-1-4 .3-3 1-4c.7-.9 1.7-1.4 3.1-1.4s1 0 1.5.2.9.3 1.2.5l-.4.9a4.38 4.38 0 0 0-2.3-.6c-.9 0-1.6.3-2.1 1s-.7 1.8-.7 3.3c0 2.9.9 4.3 2.8 4.3s1.2-.2 1.6-.4v-2.6h-1.9v-1h3.1v4.2h0zm8.8.7h-1.1c0-.3-.1-.7-.1-1.2-.6.9-1.5 1.4-2.6 1.4s-1.1-.2-1.5-.6-.6-.9-.6-1.6 0-.7.2-1 .4-.5.7-.7.6-.3 1.1-.5.9-.2 1.5-.2h1.3v-.5c0-1.3-.6-2-1.8-2s-.6 0-1.1.2c-.4.1-.8.3-1.1.4l-.3-.8c1-.5 2-.8 2.9-.8 1.7 0 2.6.9 2.6 2.8v3.3c0 .7 0 1.2.2 1.8h0zm-1.3-2.2v-1.4c-1 0-1.7.2-2.1.3s-.7.2-1 .4-.4.5-.4.9.1.6.4.8.5.3.9.3a1.92 1.92 0 0 0 1.2-.4c.4-.3.8-.6 1-1h0z"/><use href="#K" x="152"/><path d="M433.9 1072.9h-1.1c0-.3-.1-.7-.1-1.2-.6.9-1.5 1.4-2.6 1.4s-1.1-.2-1.5-.6-.6-.9-.6-1.6 0-.7.2-1 .4-.5.7-.7.6-.3 1.1-.5.9-.2 1.5-.2h1.3v-.5c0-1.3-.6-2-1.8-2s-.6 0-1.1.2c-.4.1-.8.3-1.1.4l-.3-.8c1-.5 2-.8 2.9-.8 1.7 0 2.6.9 2.6 2.8v3.3c0 .7 0 1.2.2 1.8h0zm-1.3-2.2v-1.4c-1 0-1.7.2-2.1.3s-.7.2-1 .4-.4.5-.4.9.1.6.4.8.5.3.9.3a1.92 1.92 0 0 0 1.2-.4c.4-.3.8-.6 1-1h0zm6.4-.7c-.7.3-1.1.7-1.1.9s0 .3.2.4c.2 0 .4.2.7.2h2.6c.6 0 1.1 0 1.4.4.3.3.5.7.5 1.3 0 .9-.4 1.6-1.2 2.1s-1.7.8-2.7.8a4.06 4.06 0 0 1-2.1-.5c-.5-.3-.8-.8-.8-1.4s.4-1.1 1.2-1.5c-.7-.3-1-.7-1-1.2s.4-1 1.3-1.5c-.4-.2-.7-.6-1-1s-.3-.8-.3-1.2c0-.7.2-1.3.7-1.8s1.1-.7 1.8-.7 1 .1 1.4.3l2.3-.3v1.1h-1.5c.2.4.3.8.3 1.4s-.2 1.3-.7 1.8-1.1.7-1.8.7h-.5 0zm.5 5.1c.8 0 1.4-.2 1.9-.5s.8-.8.8-1.2-.4-.8-1.1-.8h-1.3-.9c-.2 0-.3 0-.5.3-.2.2-.4.3-.5.5s-.2.4-.2.6c0 .3.2.6.5.8s.8.3 1.3.3h0zm-.1-5.9a1.53 1.53 0 0 0 1-.4c.3-.3.4-.7.4-1.1s-.1-.9-.4-1.2-.6-.4-1-.4a1.53 1.53 0 0 0-1 .4c-.3.3-.4.7-.4 1.1s.1.8.4 1.1.6.4 1 .4h0zm12.6-.1h-5.2c0 .9.2 1.6.8 2.1s1.1.8 1.8.8 1.4-.1 2.1-.4l.2.9c-.7.3-1.5.4-2.4.4s-2-.4-2.7-1.1-1-1.7-1-2.9.3-2.2.9-2.9a3.04 3.04 0 0 1 2.4-1.1c1 0 1.6.3 2.2 1s.9 1.6.9 2.7v.4h0zm-1.3-.9c0-.6-.2-1.1-.6-1.5s-.8-.6-1.2-.6-1.1.2-1.5.6-.6.9-.6 1.5h3.9zm-75.9 26.7h-5.4v-1.1h2.2v-8l-2.1 1v-1.2l2.2-1.2h1v9.3h2v1.1h0zm8.7 0h-5.7v-.9l2.8-3.2c.4-.5.8-1.1 1-1.7s.4-1.2.4-1.8-.2-1-.5-1.4c-.4-.3-.8-.5-1.5-.5s-1.1.2-2 .4l-.2-1c.7-.3 1.5-.5 2.3-.5s1.7.3 2.2.8.9 1.2.9 2.1-.1 1.2-.4 1.8-.7 1.2-1.1 1.8-1.3 1.6-2.6 3h4.4v1.1h0zm24.4 0h-1.5l-3-4.7h-1.3v4.7h-1.2v-10.3h2.9c1 0 1.8.2 2.3.7.6.5.9 1.1.9 2s-.2 1.2-.6 1.7-1 .8-1.7 1l3.3 4.9h0zm-5.9-5.7h1.5c.6 0 1.1-.2 1.5-.5s.6-.8.6-1.3c0-1.2-.7-1.7-2.1-1.7H402v3.5h0z"/><use href="#Q"/><path d="M425.4 1094.9h-1.1v-5c0-1.2-.2-1.8-.7-1.8s-.5.2-.8.6-.4.7-.4.7v5.5h-1.1v-5c0-1.2-.2-1.8-.7-1.8s-.5.2-.8.6-.4.7-.4.7v5.5h-1.1v-7.6h1.1v1.2c.2-.4.5-.7.8-1 .3-.2.6-.4.9-.4s.6.1.8.4c.2.2.4.6.5 1 .2-.4.5-.7.8-1s.6-.4.9-.4c.9 0 1.4.8 1.4 2.5v5.3h0zm3.6-6.6c.2-.3.6-.6 1-.8s.9-.3 1.4-.3c.9 0 1.6.4 2.1 1.1s.8 1.7.8 2.8-.3 2.2-.8 2.9-1.2 1.2-2.1 1.2-.9-.1-1.3-.3-.7-.6-1-.9v4.1H428v-10.7h1.1v1h0zm0 1.1v3.2c.2.4.5.8.9 1.1s.7.4 1.1.4c.6 0 1.1-.3 1.5-.9s.5-1.3.5-2.2-.2-1.6-.5-2.2-.8-.8-1.5-.8-1.5.4-2 1.3h0z"/><use href="#Q" x="27"/><path d="M451 1088.4c-.6-.2-1.2-.3-1.8-.3s-1.1 0-1.5.3a.82.82 0 0 0-.5.8c0 .3 0 .4.2.6s.5.3 1 .5l1.1.3c.5.1.9.3 1.2.5s.5.4.7.7.2.6.2 1c0 .7-.3 1.3-.9 1.7s-1.4.6-2.3.6-1.7-.1-2.3-.4l.2-1c.6.3 1.3.4 2.1.4s1.1-.1 1.5-.4.6-.6.6-.9-.1-.5-.3-.7-.7-.4-1.4-.7l-1.3-.4c-.3 0-.5-.2-.8-.4s-.4-.4-.5-.6-.2-.5-.2-.8c0-.7.3-1.2.9-1.6s1.3-.6 2.3-.6 1.3 0 2 .3l-.3 1h0zm95.2-59.5h-5.4v-1.1h2.2v-8l-2.1 1v-1.2l2.2-1.2h1v9.4h2v1.1h0zm6.7-5.5c.6.2 1.1.5 1.5 1s.6 1 .6 1.6c0 .9-.3 1.7-1.1 2.3s-1.5.9-2.5.9-1.6-.2-2.2-.5l.2-1c.7.3 1.3.5 2 .5s1.2-.2 1.6-.6.7-.9.7-1.5-.2-1.1-.7-1.5-1.1-.6-1.9-.6h-.3v-1h0c.8 0 1.4-.2 1.9-.5s.7-.8.7-1.4-.2-.9-.5-1.2-.8-.4-1.5-.4-1.1.1-1.8.4l-.2-1c.7-.3 1.3-.5 2-.5s1.7.2 2.3.7a2.32 2.32 0 0 1 .9 1.9c0 .8-.2 1-.5 1.5-.4.5-.8.7-1.3.9h0zm26.1-3.9h-3.2v9.4h-1.2v-9.4h-3.2v-1h7.6v1h0zm8.4 5.6h-5.2c0 .9.2 1.6.8 2.1s1.1.8 1.8.8 1.4-.1 2.2-.4l.2.9c-.7.3-1.5.4-2.4.4s-2-.4-2.7-1.1-1-1.7-1-2.9.3-2.2.9-2.9a3.04 3.04 0 0 1 2.4-1.1c1 0 1.6.3 2.2 1s.9 1.6.9 2.7v.4h0zm-1.3-.9c0-.6-.2-1.1-.6-1.5s-.8-.6-1.2-.6-1.1.2-1.5.6-.6.9-.7 1.5h3.9z"/><use href="#R"/><use href="#R" x="9"/><path d="M614.4,1028.9h-1.1c0-.3-.1-.7-.1-1.2-.7.9-1.5,1.4-2.7,1.4s-1.1-.2-1.5-.6-.7-.9-.7-1.6,0-.7.2-1,.4-.5.7-.7c.3-.2.7-.3,1.1-.5s.9-.2,1.5-.2h1.3v-.5c0-1.3-.6-2-1.8-2s-.7,0-1.1.2c-.4.1-.8.3-1.1.4l-.3-.8c1-.5,2-.8,2.9-.8,1.7,0,2.6.9,2.6,2.8v3.3c0,.7,0,1.2.2,1.8h0ZM613,1026.7v-1.4c-1,0-1.7.2-2.1.3s-.7.2-1,.4-.4.5-.4.9.1.6.4.8.5.3.9.3.8-.1,1.2-.4.8-.6,1-1h0Z"/><use href="#C" x="531.9"/><path d="M632.4 1025.1h-5.2c0 .9.2 1.6.8 2.1s1.1.8 1.8.8 1.4-.1 2.2-.4l.2.9c-.7.3-1.5.4-2.4.4s-2-.4-2.7-1.1-1-1.7-1-2.9.3-2.2.9-2.9a3.04 3.04 0 0 1 2.4-1.1c1 0 1.6.3 2.2 1s.9 1.6.9 2.7v.4h0zm-1.2-.9c0-.6-.2-1.1-.6-1.5s-.8-.6-1.2-.6-1.1.2-1.5.6-.6.9-.7 1.5h3.9z"/><defs ><path id="B" d="M241.9,720h-5.4v-1h2.2v-8l-2.1,1v-1.2l2.2-1.2h1v9.3h2v1h0Z"/><path id="C" d="M91.2 1028.7c-.7.3-1.4.4-2.2.4-1.2 0-2.2-.4-2.9-1.1s-1.1-1.7-1.1-2.9.4-2.2 1.1-2.9 1.7-1.1 2.8-1.1 1.5.1 2.2.4l-.3 1c-.7-.2-1.3-.4-1.9-.4-.8 0-1.5.3-2 .8s-.7 1.3-.7 2.2.2 1.6.8 2.1 1.2.9 2 .9 1.3-.1 2-.4l.2.9h0z"/><path id="D" d="M71.3 1050.9h-1.1v-6.6H68v-1h3.4v7.6zm-.6-10.5c.2 0 .4 0 .6.2s.2.3.2.6 0 .4-.2.6-.3.2-.6.2-.4 0-.5-.2-.2-.3-.2-.6 0-.4.2-.6.3-.2.5-.2h0z"/><path id="E" d="M89.3 1050.9h-1.1v-6.6H86v-1h3.4v7.6zm-.6-10.5c.2 0 .4 0 .6.2s.2.3.2.6 0 .4-.2.6-.3.2-.6.2-.4 0-.5-.2-.2-.3-.2-.6 0-.4.2-.6.3-.2.5-.2h0z"/><path id="F" d="M100.2 1050.9h-1.1v-4.9c0-.7-.1-1.2-.3-1.5s-.6-.5-1-.5c-.7 0-1.4.4-2.2 1.3v5.5h-1.1v-7.6h1.1v1.1c.8-.9 1.7-1.3 2.6-1.3 1.4 0 2.2.9 2.2 2.6v5.2h0z"/><path id="G" d="M105.4 1048c-.7.3-1.1.7-1.1.9s0 .3.2.4.4.2.7.2h2.6c.6 0 1.1 0 1.4.4.3.3.5.7.5 1.3 0 .9-.4 1.6-1.2 2.1s-1.7.8-2.7.8a4.06 4.06 0 0 1-2.1-.5c-.5-.3-.8-.8-.8-1.4s.4-1.1 1.2-1.5c-.7-.3-1-.7-1-1.2s.4-1 1.3-1.5c-.4-.2-.7-.6-.9-1s-.3-.8-.3-1.2c0-.7.2-1.3.7-1.8s1.1-.7 1.8-.7 1 .1 1.4.3l2.3-.3v1.1h-1.5c.2.4.3.8.3 1.4s-.2 1.3-.7 1.8-1.1.7-1.8.7h-.4 0zm.5 5.1c.8 0 1.4-.2 1.9-.5s.8-.8.8-1.2-.4-.8-1.1-.8h-1.3-.9c-.2 0-.3 0-.5.3-.2.2-.4.3-.5.5s-.2.4-.2.6c0 .3.2.6.5.8s.8.3 1.3.3h0zm0-5.9a1.53 1.53 0 0 0 1-.4c.3-.3.4-.7.4-1.1s-.1-.9-.4-1.2-.6-.4-1-.4a1.53 1.53 0 0 0-1 .4c-.3.3-.4.7-.4 1.1s.1.8.4 1.1.6.4 1 .4h0z"/><path id="H" d="M118.5,1087.3l-2.9,7.6c-.4,1.1-.8,1.9-1.2,2.3s-.9.7-1.4.7-.9,0-1.4-.3l.2-.9c.4.1.7.2,1,.2s.8-.2,1-.5.5-.8.8-1.6l-2.9-7.6h1.2l2.2,6.1,2.2-6.1h1.2,0Z"/><path id="I" d="M238,1018.6l-1.3,10.3h-1.1l-1.8-5.8-1.8,5.8h-1.1l-1.3-10.3h1.2l.9,8.4,1.5-5.1h1.2l1.5,5.1.9-8.4h1.2Z"/><path id="J" d="M235 1045.2c.7.2 1.2.5 1.6.9s.6 1 .6 1.7c0 .9-.3 1.7-1 2.2-.7.6-1.5.8-2.5.8h-2.9v-10.3h2.9c1 0 1.8.2 2.3.7.6.4.8 1.1.8 1.8s-.2.9-.5 1.3-.8.7-1.3.8h0zm-3-.5h1.4c1.5 0 2.2-.5 2.2-1.6s-.2-.8-.5-1.1c-.4-.3-.9-.4-1.6-.4H232v3.1h0zm0 5.2h1.4c.8 0 1.4-.2 1.9-.5.5-.4.7-.9.7-1.5s-.2-1.2-.7-1.6-1.1-.6-2-.6H232v4.1h0z"/><path id="K" d="M272.9,1065.5l-.5,1.1c-.5-.2-.9-.3-1.3-.3s-.7,0-1,.3c-.3.2-.6.5-.9.8-.3.4-.4.6-.4.6v4.9h-1.1v-7.6h1.1v1.6c.6-1.2,1.4-1.7,2.4-1.7s1.1.1,1.7.4h0Z"/><path id="L" d="M278.8 1065.1c1 0 1.9.4 2.5 1.1s.9 1.7.9 2.9-.3 2.2-.9 2.9-1.5 1.1-2.5 1.1-1.9-.4-2.5-1.1-.9-1.7-.9-2.9.3-2.2.9-2.9 1.5-1.1 2.5-1.1h0zm0 7c.7 0 1.2-.3 1.6-.9s.6-1.3.6-2.1-.2-1.6-.6-2.2-.9-.8-1.6-.8-1.3.3-1.6.8c-.4.6-.6 1.3-.6 2.2s.2 1.6.6 2.1c.4.6.9.9 1.6.9h0z"/><path id="M" d="M287.8 1065.1c1 0 1.9.4 2.5 1.1s.9 1.7.9 2.9-.3 2.2-.9 2.9-1.5 1.1-2.5 1.1-1.9-.4-2.5-1.1-.9-1.7-.9-2.9.3-2.2.9-2.9 1.5-1.1 2.5-1.1h0zm0 7c.7 0 1.2-.3 1.6-.9s.6-1.3.6-2.1-.2-1.6-.6-2.2-1-.8-1.6-.8-1.3.3-1.6.8c-.4.6-.6 1.3-.6 2.2s.2 1.6.6 2.1c.4.6.9.9 1.6.9h0z"/><path id="N" d="M300.4 1072.9h-1.1v-5c0-1.2-.2-1.8-.7-1.8s-.5.2-.8.6-.4.7-.4.7v5.5h-1.1v-5c0-1.2-.2-1.8-.7-1.8s-.5.2-.8.6-.4.7-.4.7v5.5h-1.1v-7.6h1.1v1.2c.2-.4.5-.7.8-1 .3-.2.6-.4.9-.4s.6.1.8.4c.2.2.4.6.5 1 .2-.4.5-.7.8-1s.6-.4.9-.4c.9 0 1.4.8 1.4 2.5v5.3h0z"/><path id="O" d="M424.9,1021.5l-.5,1.1c-.5-.2-.9-.3-1.3-.3s-.7,0-1,.3c-.3.2-.6.5-.9.8-.3.4-.4.6-.4.6v4.9h-1.1v-7.6h1.1v1.5c.6-1.2,1.4-1.7,2.4-1.7s1.1.1,1.7.4h0Z"/><path id="P" d="M374.8,1072.9h-5.4v-1.1h2.2v-8l-2.1,1v-1.2l2.2-1.2h1v9.3h2v1.1h0Z"/><path id="Q" d="M415.7,1094.9h-1.1v-1.1c-.8.9-1.7,1.3-2.6,1.3-1.4,0-2.1-.9-2.1-2.6v-5.2h1.1v4.9c0,.7.1,1.1.3,1.4s.5.5,1,.5c.7,0,1.5-.4,2.2-1.3v-5.5h1.1v7.6h0Z"/><path id="R" d="M596.3,1021.5l-.5,1.1c-.5-.2-.9-.3-1.3-.3s-.7,0-1,.3-.6.5-.9.8c-.3.4-.4.6-.4.6v4.9h-1.1v-7.6h1.1v1.5c.6-1.2,1.4-1.7,2.4-1.7s1.1.1,1.7.4h0Z"/></defs></svg>