<?xml version="1.0" encoding="UTF-8"?><svg xmlns="http://www.w3.org/2000/svg" viewBox="0 0 800 1120"><defs><style>.cls-1{stroke-width:.75px;}.cls-1,.cls-2,.cls-3,.cls-4,.cls-5{fill:none;stroke:#231f20;stroke-linecap:round;stroke-linejoin:round;}.cls-2{stroke-width:1.2px;}.cls-3{stroke-dasharray:0 2;}.cls-3,.cls-4{stroke-width:.24px;}.cls-5{stroke-width:.36px;}</style></defs><g id="Wall"><polygon class="cls-2" points="436.09 471.08 436.09 454 363.91 454 363.91 546.32 436.09 546.32 436.09 495.82 432.26 495.82 432.26 542.49 367.74 542.49 367.74 457.82 432.26 457.82 432.26 471.08 436.09 471.08"/></g><g id="Window_Door_Stairs"><path class="cls-4" d="M417.22,498.07c.13-.33,.31-.64,.53-.91,.06-.07,.11-.14,.17-.2,.06-.06,.12-.13,.19-.19,.13-.12,.27-.23,.42-.33,.59-.4,1.29-.61,2-.61h7.9"/><line class="cls-4" x1="383.04" y1="497.55" x2="383.04" y2="465.47"/><path class="cls-3" d="M411.48,511.76c0-.7-.06-1.4-.19-2.09-.14-.73-.34-1.45-.61-2.14-.58-1.46-1.45-2.78-2.56-3.89-1.11-1.11-2.43-1.98-3.89-2.56-.69-.27-1.41-.48-2.14-.61-.69-.13-1.39-.19-2.09-.19s-1.4,.06-2.09,.19c-.73,.14-1.45,.34-2.14,.61-1.46,.58-2.78,1.45-3.89,2.56s-1.98,2.43-2.56,3.89c-.27,.69-.48,1.41-.61,2.14-.13,.69-.19,1.39-.19,2.09s.06,1.4,.19,2.09c.14,.73,.34,1.45,.61,2.14,.58,1.46,1.45,2.78,2.56,3.89,1.11,1.11,2.43,1.98,3.89,2.56,.69,.27,1.41,.48,2.14,.61,.69,.13,1.39,.19,2.09,.19s1.4-.06,2.09-.19c.73-.14,1.45-.34,2.14-.61,1.46-.58,2.78-1.45,3.89-2.56,1.11-1.11,1.98-2.43,2.56-3.89,.27-.69,.48-1.41,.61-2.14,.13-.69,.19-1.39,.19-2.09Z"/><path class="cls-5" d="M417.47,499.39v24.74c0,.95-.38,1.86-1.05,2.52-.67,.67-1.58,1.05-2.52,1.05h-27.8c-.95,0-1.86-.38-2.52-1.05-.67-.67-1.05-1.58-1.05-2.52v-24.74c0-.95,.38-1.86,1.05-2.52,.67-.67,1.58-1.05,2.52-1.05h27.8c.95,0,1.86,.38,2.52,1.05,.67,.67,1.05,1.58,1.05,2.52Z"/></g><g id="Accessory"><path class="cls-5" d="M432.26,465.47h-60.7v58.66c0,1.91,.38,3.8,1.11,5.56,.73,1.76,1.8,3.37,3.15,4.72s2.95,2.42,4.72,3.15c1.76,.73,3.65,1.11,5.56,1.11h27.8c1.91,0,3.8-.38,5.56-1.11,1.76-.73,3.37-1.8,4.72-3.15,1.35-1.35,2.42-2.95,3.15-4.72,.73-1.76,1.11-3.65,1.11-5.56v-28.31h3.83"/></g><g id="TEXT"><circle class="cls-1" cx="765.53" cy="1024.02" r="11.44"/><line class="cls-1" x1="776.94" y1="1023.11" x2="765.53" y2="1024.02"/><path d="M402.73,481.42h-5.43v-1.05h2.19v-8.03l-2.06,1.03v-1.2l2.23-1.15h1.03v9.35h2.04v1.05Z"/><path d="M402.46,517.08h-5.68v-.87c1.44-1.61,2.38-2.68,2.8-3.23s.78-1.12,1.05-1.72c.27-.6,.4-1.2,.4-1.79s-.17-1.03-.52-1.36c-.35-.33-.84-.5-1.47-.5-.48,0-1.13,.15-1.95,.45l-.17-1.03c.74-.31,1.51-.47,2.31-.47,.92,0,1.67,.26,2.23,.78,.56,.52,.85,1.21,.85,2.08,0,.62-.15,1.24-.44,1.85-.29,.61-.66,1.2-1.12,1.76-.46,.56-1.34,1.57-2.65,3.02h4.35v1.05Z"/><g><path d="M32.2,1028.91h-5.43v-1.05h2.19v-8.03l-2.07,1.03v-1.2l2.23-1.15h1.03v9.35h2.04v1.05Z"/><path d="M58.61,1018.58h2.62c.99,0,1.78,.25,2.38,.75s.89,1.18,.89,2.06-.3,1.58-.89,2.11c-.59,.53-1.37,.79-2.33,.79h-1.47v4.64h-1.2v-10.33Zm1.2,4.65h1.3c1.41,0,2.12-.59,2.12-1.77,0-.55-.19-.99-.57-1.33-.38-.34-.88-.51-1.48-.51h-1.36v3.6Z"/><path d="M73.42,1025.14h-5.24c0,.86,.25,1.58,.75,2.14,.5,.56,1.11,.84,1.84,.84s1.41-.12,2.15-.37l.2,.92c-.67,.3-1.46,.45-2.36,.45-1.13,0-2.04-.36-2.74-1.09s-1.04-1.71-1.04-2.94,.31-2.18,.93-2.9c.62-.72,1.43-1.08,2.41-1.08,.88,0,1.61,.33,2.21,1,.59,.67,.89,1.56,.89,2.67v.36Zm-1.25-.93c0-.6-.19-1.1-.56-1.51-.37-.41-.79-.61-1.25-.61-.59,0-1.08,.2-1.47,.59-.39,.39-.61,.9-.65,1.53h3.92Z"/><path d="M82.31,1021.49l-.46,1.1c-.5-.22-.94-.33-1.3-.33-.34,0-.67,.1-.99,.29-.32,.19-.62,.47-.89,.83-.27,.36-.41,.56-.41,.6v4.94h-1.13v-7.63h1.13v1.55c.61-1.15,1.4-1.73,2.37-1.73,.58,0,1.14,.13,1.68,.39Z"/><path d="M91.27,1018.7l-.3,.93c-.54-.16-1.03-.23-1.46-.23s-.69,.12-.85,.35c-.15,.23-.23,.7-.23,1.4v.14h2.56v.99h-2.56v6.64h-1.14v-6.64h-1.92v-.99h1.92v-.26c0-.97,.17-1.65,.5-2.04s.91-.59,1.72-.59c.53,0,1.11,.1,1.76,.3Z"/><path d="M97.24,1021.1c1.05,0,1.88,.37,2.5,1.1s.93,1.7,.93,2.89-.31,2.18-.93,2.92-1.46,1.11-2.5,1.11-1.89-.37-2.51-1.1c-.62-.74-.93-1.71-.93-2.92s.31-2.17,.93-2.9c.62-.73,1.46-1.09,2.5-1.09Zm0,7.02c.69,0,1.24-.29,1.64-.88s.6-1.3,.6-2.13c0-.88-.2-1.6-.59-2.17-.39-.57-.94-.85-1.65-.85s-1.26,.28-1.65,.84c-.39,.56-.59,1.29-.59,2.18s.2,1.56,.59,2.14c.4,.58,.94,.87,1.64,.87Z"/><path d="M109.31,1021.49l-.46,1.1c-.5-.22-.94-.33-1.3-.33-.34,0-.67,.1-.99,.29-.32,.19-.62,.47-.89,.83-.27,.36-.41,.56-.41,.6v4.94h-1.14v-7.63h1.14v1.55c.61-1.15,1.4-1.73,2.37-1.73,.58,0,1.14,.13,1.68,.39Z"/><path d="M118.8,1028.91h-1.14v-5.01c0-1.21-.22-1.82-.67-1.82-.23,0-.48,.21-.76,.63-.28,.42-.41,.65-.41,.69v5.51h-1.14v-5.01c0-1.21-.23-1.82-.68-1.82-.22,0-.48,.21-.75,.63-.28,.42-.41,.65-.41,.69v5.51h-1.14v-7.63h1.1v1.15c.21-.4,.47-.73,.76-.97,.3-.24,.59-.36,.88-.36,.31,0,.58,.12,.83,.36,.24,.24,.41,.57,.51,.97,.21-.4,.47-.73,.77-.97,.3-.24,.59-.36,.88-.36,.92,0,1.38,.83,1.38,2.47v5.34Z"/><path d="M127.39,1028.91h-1.13c-.09-.31-.14-.72-.14-1.23-.65,.95-1.53,1.43-2.65,1.43-.57,0-1.06-.2-1.5-.6-.43-.4-.65-.92-.65-1.56,0-.38,.08-.71,.23-1,.15-.29,.37-.53,.67-.73,.29-.2,.65-.35,1.07-.47,.42-.12,.92-.19,1.49-.24l1.28-.1v-.37c0-1.31-.61-1.96-1.83-1.96-.29,0-.65,.06-1.09,.19-.44,.12-.82,.27-1.14,.44l-.3-.82c1.04-.53,2.01-.8,2.9-.8,1.74,0,2.61,.92,2.61,2.76v3.28c0,.66,.06,1.25,.19,1.77Zm-1.33-2.26v-1.38c-1.03,.09-1.74,.18-2.12,.26-.38,.08-.71,.23-1,.45-.28,.22-.42,.52-.42,.89,0,.34,.12,.62,.36,.83,.24,.21,.54,.32,.92,.32,.41,0,.81-.12,1.21-.36,.4-.24,.75-.57,1.05-1Z"/><path d="M136.2,1028.91h-1.14v-4.89c0-.68-.11-1.17-.33-1.48-.22-.31-.56-.46-1.02-.46-.7,0-1.45,.43-2.25,1.3v5.52h-1.14v-7.63h1.14v1.12c.82-.87,1.69-1.3,2.59-1.3,1.43,0,2.15,.86,2.15,2.59v5.22Z"/><path d="M145.17,1028.66c-.66,.3-1.39,.45-2.19,.45-1.2,0-2.16-.36-2.88-1.09-.71-.73-1.07-1.7-1.07-2.91s.36-2.18,1.08-2.91c.72-.73,1.67-1.09,2.84-1.09,.77,0,1.5,.13,2.19,.4l-.3,.95c-.69-.24-1.32-.36-1.88-.36-.84,0-1.5,.27-2,.81-.49,.54-.74,1.28-.74,2.21,0,.85,.25,1.56,.76,2.14,.51,.58,1.17,.87,1.98,.87,.64,0,1.31-.12,1.99-.37l.2,.92Z"/><path d="M154.43,1025.14h-5.24c0,.86,.25,1.58,.75,2.14,.5,.56,1.11,.84,1.84,.84s1.41-.12,2.15-.37l.2,.92c-.67,.3-1.46,.45-2.36,.45-1.13,0-2.05-.36-2.74-1.09s-1.04-1.71-1.04-2.94,.31-2.18,.93-2.9c.62-.72,1.43-1.08,2.41-1.08,.88,0,1.61,.33,2.2,1s.89,1.56,.89,2.67v.36Zm-1.24-.93c0-.6-.19-1.1-.56-1.51-.37-.41-.79-.61-1.25-.61-.59,0-1.08,.2-1.47,.59-.39,.39-.6,.9-.65,1.53h3.92Z"/><path d="M31.93,1050.91h-5.68v-.87c1.44-1.61,2.38-2.68,2.81-3.23s.78-1.12,1.05-1.72c.27-.6,.4-1.2,.4-1.79s-.17-1.03-.52-1.36-.84-.5-1.47-.5c-.48,0-1.13,.15-1.95,.45l-.17-1.03c.74-.31,1.51-.47,2.31-.47,.92,0,1.67,.26,2.23,.78,.56,.52,.85,1.21,.85,2.08,0,.62-.15,1.24-.44,1.85-.29,.61-.66,1.2-1.12,1.76s-1.34,1.57-2.65,3.02h4.35v1.05Z"/><path d="M58.26,1040.58h2.04c1.35,0,2.44,.46,3.25,1.38,.82,.92,1.22,2.18,1.22,3.79s-.41,2.91-1.24,3.81c-.83,.9-1.89,1.35-3.18,1.35h-2.09v-10.33Zm1.2,9.29h.85c.98,0,1.76-.36,2.33-1.09,.57-.73,.86-1.74,.86-3.03s-.29-2.29-.86-3.02c-.57-.74-1.35-1.1-2.33-1.1h-.85v8.24Z"/><path d="M71.29,1050.91h-1.14v-6.64h-2.25v-.99h3.39v7.63Zm-.56-10.52c.21,0,.4,.08,.55,.23,.15,.15,.23,.34,.23,.55,0,.23-.08,.41-.22,.56-.15,.15-.33,.23-.55,.23-.2,0-.38-.08-.53-.24-.15-.16-.23-.34-.23-.55s.08-.39,.23-.55c.15-.16,.33-.23,.53-.23Z"/><path d="M82.19,1050.91h-1.14v-4.89c0-.68-.11-1.17-.33-1.48-.22-.31-.56-.46-1.02-.46-.7,0-1.45,.43-2.25,1.3v5.52h-1.14v-7.63h1.14v1.12c.82-.87,1.68-1.3,2.59-1.3,1.43,0,2.15,.86,2.15,2.59v5.22Z"/><path d="M89.29,1050.91h-1.14v-6.64h-2.25v-.99h3.39v7.63Zm-.56-10.52c.21,0,.4,.08,.55,.23,.15,.15,.23,.34,.23,.55,0,.23-.07,.41-.22,.56-.15,.15-.33,.23-.55,.23-.2,0-.38-.08-.53-.24-.15-.16-.23-.34-.23-.55s.08-.39,.23-.55,.33-.23,.53-.23Z"/><path d="M100.19,1050.91h-1.14v-4.89c0-.68-.11-1.17-.33-1.48-.22-.31-.56-.46-1.02-.46-.7,0-1.45,.43-2.25,1.3v5.52h-1.14v-7.63h1.14v1.12c.82-.87,1.69-1.3,2.59-1.3,1.43,0,2.15,.86,2.15,2.59v5.22Z"/><path d="M105.43,1048.04c-.71,.35-1.07,.65-1.07,.92,0,.14,.08,.26,.25,.36,.16,.1,.39,.15,.67,.15l2.57-.07c.61,0,1.09,.15,1.43,.45,.34,.3,.51,.72,.51,1.27,0,.86-.38,1.55-1.16,2.06-.77,.51-1.67,.77-2.7,.77-.84,0-1.54-.18-2.07-.53-.54-.35-.81-.81-.81-1.37,0-.61,.42-1.12,1.25-1.54-.69-.32-1.03-.72-1.03-1.19,0-.54,.44-1.04,1.33-1.5-.41-.25-.73-.57-.94-.97-.22-.4-.33-.81-.33-1.25,0-.72,.24-1.31,.73-1.77,.49-.46,1.1-.69,1.83-.69,.53,0,1,.11,1.43,.33l2.26-.34v1.11h-1.46c.22,.39,.33,.84,.33,1.36,0,.69-.24,1.28-.72,1.76-.48,.48-1.1,.72-1.84,.72-.16,0-.31,0-.45-.02Zm.49,5.01c.75,0,1.39-.17,1.92-.5,.53-.33,.79-.75,.79-1.24s-.38-.76-1.13-.76c-.25,0-.68,.01-1.29,.04-.39,.02-.69,.03-.91,.03-.11,0-.28,.09-.5,.26s-.4,.35-.52,.53c-.12,.18-.18,.36-.18,.55,0,.3,.17,.55,.5,.77,.33,.21,.77,.32,1.31,.32Zm-.04-5.88c.42,0,.76-.15,1.03-.44,.27-.29,.4-.67,.4-1.14,0-.49-.13-.88-.39-1.16-.26-.28-.61-.42-1.04-.42-.41,0-.75,.15-1.02,.44-.28,.29-.41,.67-.41,1.14s.14,.84,.41,1.13c.28,.3,.62,.44,1.02,.44Z"/></g></g></svg>