<svg width="83" height="18" viewBox="0 0 83 18" fill="none" xmlns="http://www.w3.org/2000/svg">
<path d="M14.2857 5.97619C14.2857 2.54762 11.6429 0.261904 7.88095 0.261904C3.04762 0.261904 0 3.88095 0 9.33333C0 13.5952 1.92857 17.9762 7.85714 17.9762C9.42857 17.9762 11.3571 17.619 12.881 16.0476C14.2619 14.619 14.3571 13.0238 14.4286 12H10.5476C10.4762 14.2857 9 15.2619 7.45238 15.2619C3.85714 15.2619 3.85714 10.381 3.85714 9.35714C3.85714 5.80952 5 2.95238 7.7381 2.95238C10.2381 2.95238 10.4524 5.38095 10.5238 5.97619H14.2857Z" fill="black"/>
<path d="M18.6189 17.5714H29.7617V14.6429H22.3808V0.380952H18.6189V17.5714Z" fill="black"/>
<path d="M31.925 9.21429C31.925 10.7857 32.1631 13.6429 34.0441 15.6429C35.6155 17.2857 37.8774 18 40.1393 18C41.5679 18 44.3536 17.6905 46.2584 15.5476C47.6631 13.9762 48.425 11.3095 48.425 8.80952C48.425 7.11905 48.0679 4.42857 46.2346 2.33333C44.5441 0.428571 42.0203 0 40.1869 0C33.9965 0 31.925 4.64286 31.925 9.21429ZM35.7822 9.09524C35.7822 7.14286 36.0679 5.28571 37.0441 4.09524C37.7346 3.21429 38.8298 2.64286 40.2108 2.64286C41.9727 2.64286 43.425 3.57143 44.1393 5.69048C44.4965 6.7381 44.5679 7.92857 44.5679 8.76191C44.5679 11.5 43.9727 12.8333 43.4012 13.6905C42.7108 14.7619 41.6869 15.2857 40.1869 15.2857C38.4727 15.2857 37.5917 14.619 37.0679 13.9048C36.0441 12.5714 35.7822 10.7381 35.7822 9.09524Z" fill="black"/>
<path d="M52.1946 12.0714C52.2184 13.7381 52.266 17.9762 58.8612 17.9762C63.6231 17.9762 66.1946 15.4762 66.1946 12.381C66.1946 9.02381 63.266 8.21429 60.2898 7.5C57.8136 6.88095 56.5517 6.59524 56.5517 5C56.5517 3.59524 57.6708 2.66667 59.385 2.66667C61.9327 2.66667 62.1231 4.69048 62.1708 5.28571H65.7184C65.7184 4.71429 65.7184 3.33333 64.7422 2.09524C63.4565 0.47619 61.3374 0.0714291 59.5517 0.0714291C54.766 0.0714291 52.7422 2.57143 52.7422 5.40476C52.7422 8.38095 54.9803 9.59524 59.0755 10.619C61.266 11.1429 62.3374 11.4048 62.3374 12.9286C62.3374 14.381 61.0755 15.3333 59.0755 15.3333C55.9089 15.3333 55.9565 12.881 55.9565 12.0714H52.1946Z" fill="black"/>
<path d="M70.9087 17.5714H82.6944V14.7143H74.5991V10.0714H81.9325V7.2619H74.5991V3.16667H82.4325V0.357143H70.9087V17.5714Z" fill="black"/>
</svg>
