<svg width="83" height="19" viewBox="0 0 83 19" fill="none" xmlns="http://www.w3.org/2000/svg">
<path d="M14.2857 6.5465C14.2857 3.11793 11.6429 0.832217 7.88095 0.832217C3.04762 0.832217 0 4.45126 0 9.90365C0 14.1656 1.92857 18.5465 7.85714 18.5465C9.42857 18.5465 11.3571 18.1894 12.881 16.6179C14.2619 15.1894 14.3571 13.5941 14.4286 12.5703H10.5476C10.4762 14.856 9 15.8322 7.45238 15.8322C3.85714 15.8322 3.85714 10.9513 3.85714 9.92746C3.85714 6.37984 5 3.52269 7.7381 3.52269C10.2381 3.52269 10.4524 5.95127 10.5238 6.5465H14.2857Z" fill="#F5F5C8"/>
<path d="M18.6189 18.1417H29.7617V15.2132H22.3808V0.951264H18.6189V18.1417Z" fill="#F5F5C8"/>
<path d="M31.925 9.7846C31.925 11.356 32.1631 14.2132 34.0441 16.2132C35.6155 17.856 37.8774 18.5703 40.1393 18.5703C41.5679 18.5703 44.3536 18.2608 46.2584 16.1179C47.6631 14.5465 48.425 11.8798 48.425 9.37984C48.425 7.68936 48.0679 4.99888 46.2346 2.90365C44.5441 0.998884 42.0203 0.570312 40.1869 0.570312C33.9965 0.570312 31.925 5.21317 31.925 9.7846ZM35.7822 9.66555C35.7822 7.71317 36.0679 5.85603 37.0441 4.66555C37.7346 3.7846 38.8298 3.21317 40.2108 3.21317C41.9727 3.21317 43.425 4.14174 44.1393 6.26079C44.4965 7.30841 44.5679 8.49888 44.5679 9.33222C44.5679 12.0703 43.9727 13.4036 43.4012 14.2608C42.7108 15.3322 41.6869 15.856 40.1869 15.856C38.4727 15.856 37.5917 15.1894 37.0679 14.4751C36.0441 13.1417 35.7822 11.3084 35.7822 9.66555Z" fill="#F5F5C8"/>
<path d="M52.1946 12.6417C52.2184 14.3084 52.266 18.5465 58.8612 18.5465C63.6231 18.5465 66.1946 16.0465 66.1946 12.9513C66.1946 9.59412 63.266 8.7846 60.2898 8.07031C57.8136 7.45126 56.5517 7.16555 56.5517 5.57031C56.5517 4.16555 57.6708 3.23698 59.385 3.23698C61.9327 3.23698 62.1231 5.26079 62.1708 5.85603H65.7184C65.7184 5.2846 65.7184 3.90365 64.7422 2.66555C63.4565 1.0465 61.3374 0.641742 59.5517 0.641742C54.766 0.641742 52.7422 3.14174 52.7422 5.97507C52.7422 8.95126 54.9803 10.1656 59.0755 11.1894C61.266 11.7132 62.3374 11.9751 62.3374 13.4989C62.3374 14.9513 61.0755 15.9036 59.0755 15.9036C55.9089 15.9036 55.9565 13.4513 55.9565 12.6417H52.1946Z" fill="#F5F5C8"/>
<path d="M70.9087 18.1417H82.6944V15.2846H74.5991V10.6417H81.9325V7.83222H74.5991V3.73698H82.4325V0.927455H70.9087V18.1417Z" fill="#F5F5C8"/>
</svg>
