<?xml version="1.0" encoding="UTF-8"?><svg xmlns="http://www.w3.org/2000/svg" viewBox="0 0 800 1120"><defs><style>.cls-1{stroke-width:.18px;}.cls-1,.cls-2,.cls-3{fill:none;stroke:#231f20;stroke-linecap:round;stroke-linejoin:round;}.cls-2{stroke-width:.75px;}.cls-3{stroke-width:.8px;}</style></defs><g id="Wall"><line class="cls-3" x1="357.25" y1="519.56" x2="357.25" y2="521.33"/><line class="cls-3" x1="357.25" y1="541.02" x2="357.25" y2="542.79"/><line class="cls-3" x1="420.57" y1="563.47" x2="422.34" y2="563.47"/><line class="cls-3" x1="377.66" y1="563.47" x2="379.43" y2="563.47"/><line class="cls-3" x1="442.75" y1="434.5" x2="442.75" y2="435.22"/><line class="cls-3" x1="442.75" y1="434.5" x2="442.03" y2="434.5"/><line class="cls-3" x1="357.25" y1="434.5" x2="357.25" y2="435.22"/><line class="cls-3" x1="357.25" y1="434.5" x2="357.97" y2="434.5"/><line class="cls-3" x1="442.75" y1="563.47" x2="442.03" y2="563.47"/><line class="cls-3" x1="442.75" y1="563.47" x2="442.75" y2="562.75"/><line class="cls-3" x1="357.25" y1="563.47" x2="357.25" y2="562.75"/><line class="cls-3" x1="357.25" y1="563.47" x2="357.97" y2="563.47"/><line class="cls-3" x1="421.46" y1="432.31" x2="421.46" y2="434.5"/><line class="cls-3" x1="378.54" y1="432.31" x2="378.54" y2="434.5"/><line class="cls-3" x1="355.06" y1="432.31" x2="357.25" y2="434.5"/><line class="cls-3" x1="444.94" y1="432.31" x2="442.75" y2="434.5"/><line class="cls-3" x1="444.94" y1="456.07" x2="442.75" y2="456.07"/><line class="cls-3" x1="444.94" y1="498.99" x2="442.75" y2="498.99"/><line class="cls-3" x1="444.94" y1="477.53" x2="442.75" y2="477.53"/><line class="cls-3" x1="444.94" y1="520.44" x2="442.75" y2="520.44"/><line class="cls-3" x1="444.94" y1="541.9" x2="442.75" y2="541.9"/><line class="cls-3" x1="444.94" y1="565.66" x2="442.75" y2="563.47"/><line class="cls-3" x1="421.46" y1="565.66" x2="421.46" y2="563.47"/><line class="cls-3" x1="378.54" y1="565.66" x2="378.54" y2="563.47"/><line class="cls-3" x1="355.06" y1="565.66" x2="357.25" y2="563.47"/><line class="cls-3" x1="355.06" y1="541.9" x2="357.25" y2="541.9"/><line class="cls-3" x1="355.06" y1="498.99" x2="357.25" y2="498.99"/><line class="cls-3" x1="355.06" y1="520.44" x2="357.25" y2="520.44"/><line class="cls-3" x1="355.06" y1="456.07" x2="357.25" y2="456.07"/><line class="cls-3" x1="355.06" y1="477.53" x2="357.25" y2="477.53"/><line class="cls-3" x1="420.57" y1="434.5" x2="422.34" y2="434.5"/><line class="cls-3" x1="377.66" y1="434.5" x2="379.43" y2="434.5"/><line class="cls-3" x1="442.75" y1="541.02" x2="442.75" y2="542.79"/><line class="cls-3" x1="442.75" y1="519.56" x2="442.75" y2="521.33"/><line class="cls-3" x1="442.75" y1="498.1" x2="442.75" y2="499.87"/><line class="cls-3" x1="442.75" y1="476.64" x2="442.75" y2="478.41"/><line class="cls-3" x1="442.75" y1="455.18" x2="442.75" y2="456.95"/><line class="cls-3" x1="357.25" y1="455.18" x2="357.25" y2="456.95"/><line class="cls-3" x1="357.25" y1="476.64" x2="357.25" y2="478.41"/><line class="cls-3" x1="357.25" y1="498.1" x2="357.25" y2="499.87"/></g><g id="Window_Door_Stairs"><line class="cls-1" x1="420.57" y1="563.47" x2="379.43" y2="563.47"/><line class="cls-1" x1="357.25" y1="456.95" x2="357.25" y2="476.64"/><line class="cls-1" x1="357.25" y1="542.79" x2="357.25" y2="562.75"/><line class="cls-1" x1="357.25" y1="521.33" x2="357.25" y2="541.02"/><line class="cls-1" x1="357.25" y1="499.87" x2="357.25" y2="519.56"/><line class="cls-1" x1="357.25" y1="478.41" x2="357.25" y2="498.1"/><line class="cls-1" x1="357.25" y1="435.22" x2="357.25" y2="455.18"/><line class="cls-1" x1="442.75" y1="542.79" x2="442.75" y2="562.75"/><line class="cls-1" x1="442.75" y1="521.33" x2="442.75" y2="541.02"/><line class="cls-1" x1="442.75" y1="499.87" x2="442.75" y2="519.56"/><line class="cls-1" x1="442.75" y1="478.41" x2="442.75" y2="498.1"/><line class="cls-1" x1="442.75" y1="456.95" x2="442.75" y2="476.64"/><line class="cls-1" x1="442.75" y1="435.22" x2="442.75" y2="455.18"/><line class="cls-1" x1="442.03" y1="434.5" x2="422.34" y2="434.5"/><line class="cls-1" x1="442.03" y1="563.47" x2="422.34" y2="563.47"/><line class="cls-1" x1="377.66" y1="434.5" x2="357.97" y2="434.5"/><line class="cls-1" x1="420.57" y1="434.5" x2="379.43" y2="434.5"/><line class="cls-1" x1="377.66" y1="563.47" x2="357.97" y2="563.47"/><polyline class="cls-1" points="378.54 565.66 355.06 565.66 355.06 432.31 378.54 432.31"/><polyline class="cls-1" points="421.46 432.31 444.94 432.31 444.94 565.66 421.46 565.66"/></g><g id="TEXT"><path d="M402.96,505.42h-5.43v-1.05h2.19v-8.03l-2.07,1.03v-1.2l2.23-1.15h1.03v9.35h2.04v1.05Z"/><circle class="cls-2" cx="765.53" cy="1024.02" r="11.44"/><g><path d="M32.2,1028.91h-5.43v-1.05h2.19v-8.03l-2.07,1.03v-1.2l2.23-1.15h1.03v9.35h2.04v1.05Z"/><path d="M63.43,1019.72c-.62-.21-1.2-.32-1.75-.32-.62,0-1.13,.14-1.53,.43-.39,.29-.59,.69-.59,1.22,0,.63,.52,1.17,1.55,1.65,.76,.35,1.27,.6,1.51,.73,.25,.14,.5,.33,.75,.56s.46,.52,.61,.85c.15,.32,.23,.69,.23,1.09,0,1.01-.34,1.79-1.01,2.34-.68,.55-1.47,.83-2.39,.83s-1.67-.18-2.34-.53l.25-1.03c.79,.36,1.47,.53,2.06,.53,.68,0,1.23-.18,1.64-.53,.41-.35,.62-.84,.62-1.46,0-.46-.13-.85-.4-1.17-.27-.32-.76-.65-1.49-.98-.74-.34-1.22-.58-1.44-.7-.22-.12-.43-.3-.65-.52s-.38-.47-.5-.74c-.12-.27-.18-.57-.18-.89,0-.85,.31-1.52,.92-2s1.39-.72,2.34-.72c.69,0,1.37,.11,2.05,.32l-.27,1.03Z"/><path d="M73.26,1028.57c-.77,.35-1.52,.53-2.26,.53-1.36,0-2.04-.72-2.04-2.16v-4.67h-1.46v-.99h1.46v-2.09h1.11v2.09h2.59v.99h-2.59v4.37c0,.46,.1,.82,.31,1.08,.21,.26,.48,.38,.83,.38,.62,0,1.24-.14,1.85-.42l.2,.89Z"/><path d="M79.23,1021.1c1.05,0,1.88,.37,2.5,1.1s.93,1.7,.93,2.89-.31,2.18-.93,2.92-1.46,1.11-2.5,1.11-1.89-.37-2.51-1.1c-.62-.74-.93-1.71-.93-2.92s.31-2.17,.93-2.9c.62-.73,1.46-1.09,2.5-1.09Zm0,7.02c.69,0,1.24-.29,1.64-.88s.6-1.3,.6-2.13c0-.88-.2-1.6-.59-2.17s-.94-.85-1.65-.85-1.26,.28-1.65,.84c-.39,.56-.59,1.29-.59,2.18s.2,1.56,.59,2.14c.4,.58,.94,.87,1.64,.87Z"/><path d="M91.31,1021.49l-.46,1.1c-.5-.22-.94-.33-1.3-.33-.34,0-.67,.1-.99,.29-.32,.19-.62,.47-.89,.83-.27,.36-.41,.56-.41,.6v4.94h-1.14v-7.63h1.14v1.55c.61-1.15,1.4-1.73,2.37-1.73,.58,0,1.13,.13,1.68,.39Z"/><path d="M100.39,1028.91h-1.14c-.09-.31-.14-.72-.14-1.23-.65,.95-1.53,1.43-2.65,1.43-.57,0-1.07-.2-1.5-.6-.43-.4-.65-.92-.65-1.56,0-.38,.08-.71,.23-1s.37-.53,.67-.73c.29-.2,.65-.35,1.07-.47,.42-.12,.92-.19,1.49-.24l1.28-.1v-.37c0-1.31-.61-1.96-1.83-1.96-.29,0-.65,.06-1.09,.19-.44,.12-.82,.27-1.14,.44l-.3-.82c1.04-.53,2.01-.8,2.9-.8,1.74,0,2.61,.92,2.61,2.76v3.28c0,.66,.06,1.25,.19,1.77Zm-1.33-2.26v-1.38c-1.03,.09-1.74,.18-2.12,.26-.38,.08-.72,.23-1,.45-.28,.22-.42,.52-.42,.89,0,.34,.12,.62,.36,.83s.54,.32,.92,.32c.41,0,.81-.12,1.21-.36,.4-.24,.75-.57,1.05-1Z"/><path d="M105.43,1026.04c-.71,.35-1.07,.65-1.07,.92,0,.14,.08,.26,.25,.36,.16,.1,.39,.15,.67,.15l2.57-.07c.61,0,1.08,.15,1.42,.45,.34,.3,.51,.72,.51,1.27,0,.86-.39,1.55-1.16,2.06-.77,.51-1.67,.77-2.7,.77-.84,0-1.54-.18-2.07-.53-.54-.35-.81-.81-.81-1.37,0-.61,.42-1.12,1.25-1.54-.69-.32-1.03-.72-1.03-1.19,0-.54,.44-1.04,1.33-1.5-.41-.25-.73-.57-.95-.97s-.33-.81-.33-1.25c0-.72,.24-1.31,.73-1.77,.49-.46,1.1-.69,1.83-.69,.53,0,1,.11,1.43,.33l2.26-.34v1.11h-1.46c.22,.39,.33,.84,.33,1.36,0,.69-.24,1.28-.73,1.76-.48,.48-1.1,.72-1.84,.72-.16,0-.31,0-.45-.02Zm.49,5.01c.75,0,1.39-.17,1.92-.5,.53-.33,.79-.75,.79-1.24s-.38-.76-1.13-.76c-.25,0-.68,.01-1.29,.04-.39,.02-.69,.03-.91,.03-.11,0-.27,.09-.5,.26-.23,.18-.4,.35-.52,.53-.12,.18-.18,.36-.18,.55,0,.3,.17,.55,.5,.77,.33,.21,.77,.32,1.31,.32Zm-.04-5.88c.42,0,.76-.15,1.03-.44,.27-.29,.4-.67,.4-1.14,0-.49-.13-.88-.39-1.16-.26-.28-.61-.42-1.04-.42-.41,0-.75,.15-1.02,.44-.28,.29-.41,.67-.41,1.14s.14,.84,.41,1.13c.28,.3,.62,.44,1.02,.44Z"/><path d="M118.42,1025.14h-5.24c0,.86,.25,1.58,.75,2.14,.5,.56,1.11,.84,1.84,.84s1.41-.12,2.15-.37l.2,.92c-.67,.3-1.46,.45-2.36,.45-1.13,0-2.05-.36-2.74-1.09s-1.04-1.71-1.04-2.94,.31-2.18,.93-2.9c.62-.72,1.43-1.08,2.41-1.08,.88,0,1.61,.33,2.21,1s.89,1.56,.89,2.67v.36Zm-1.25-.93c0-.6-.19-1.1-.56-1.51-.37-.41-.79-.61-1.25-.61-.59,0-1.08,.2-1.47,.59-.39,.39-.6,.9-.65,1.53h3.92Z"/></g></g></svg>