<?xml version="1.0" encoding="UTF-8"?><svg xmlns="http://www.w3.org/2000/svg" viewBox="0 0 800 1120"><defs><style>.cls-1{stroke-width:.75px;}.cls-1,.cls-2,.cls-3,.cls-4,.cls-5{fill:none;stroke:#231f20;stroke-linecap:round;stroke-linejoin:round;}.cls-2{stroke-width:.9px;}.cls-3{stroke-dasharray:0 2;}.cls-3,.cls-4{stroke-width:.24px;}.cls-5{stroke-width:.36px;}</style></defs><g id="Accessory"><polygon class="cls-2" points="402.24 405.93 406.58 404.35 490.55 404.35 490.55 417.53 485.94 417.53 485.94 408.97 403.35 408.97 402.24 405.93"/><polygon class="cls-2" points="395.1 372.81 396.68 377.15 314.38 407.11 379.36 585.64 404.33 576.55 374.19 493.72 377.08 492.66 411.4 586.95 450.95 586.94 450.96 591.56 376.6 591.56 308.46 404.35 395.1 372.81"/><line class="cls-2" x1="335.63" y1="479.02" x2="321.59" y2="440.43"/><polygon class="cls-2" points="485.94 452.23 485.94 496.42 403.35 496.42 403.35 499.49 485.94 499.49 485.93 591.56 490.55 591.56 490.55 452.23 485.94 452.23"/><line class="cls-4" x1="406.58" y1="404.35" x2="396.68" y2="377.15"/><line class="cls-4" x1="485.94" y1="452.23" x2="485.94" y2="417.53"/><line class="cls-4" x1="490.55" y1="417.53" x2="490.55" y2="452.23"/><line class="cls-4" x1="341.45" y1="481.51" x2="366.44" y2="472.42"/><line class="cls-4" x1="344.04" y1="488.61" x2="369.02" y2="479.52"/><line class="cls-4" x1="346.62" y1="495.71" x2="371.6" y2="486.62"/><line class="cls-4" x1="349.21" y1="502.81" x2="374.19" y2="493.72"/><line class="cls-4" x1="351.79" y1="509.91" x2="376.77" y2="500.82"/><line class="cls-4" x1="354.37" y1="517.01" x2="379.36" y2="507.92"/><line class="cls-4" x1="356.96" y1="524.11" x2="381.94" y2="515.02"/><line class="cls-4" x1="359.54" y1="531.21" x2="384.52" y2="522.12"/><line class="cls-4" x1="362.13" y1="538.31" x2="387.11" y2="529.21"/><line class="cls-4" x1="364.71" y1="545.41" x2="389.69" y2="536.31"/><line class="cls-4" x1="367.3" y1="552.51" x2="392.28" y2="543.41"/><line class="cls-4" x1="369.78" y1="559.34" x2="394.76" y2="550.25"/><line class="cls-4" x1="379.36" y1="585.64" x2="394.76" y2="550.25"/><polyline class="cls-3" points="340.59 397.57 350.15 423.84 323.94 433.38"/><line class="cls-4" x1="374.19" y1="493.72" x2="366.44" y2="472.42"/><line class="cls-4" x1="450.96" y1="591.56" x2="485.93" y2="591.56"/><line class="cls-4" x1="450.95" y1="586.94" x2="485.93" y2="586.94"/><line class="cls-4" x1="402.24" y1="405.93" x2="392.34" y2="378.73"/><path class="cls-5" d="M325.84,465.53c0-.43-.04-.85-.12-1.27-.08-.45-.21-.88-.37-1.3-.35-.89-.88-1.7-1.56-2.37s-1.48-1.21-2.37-1.56c-.42-.17-.86-.29-1.3-.37-.42-.08-.85-.12-1.27-.12s-.85,.04-1.27,.12c-.45,.08-.88,.21-1.3,.37-.89,.35-1.7,.88-2.37,1.56-.68,.68-1.21,1.48-1.56,2.37-.17,.42-.29,.86-.37,1.3-.08,.42-.12,.85-.12,1.27s.04,.85,.12,1.27c.08,.45,.21,.88,.37,1.3,.35,.89,.88,1.7,1.56,2.37,.68,.68,1.48,1.21,2.37,1.56,.42,.17,.86,.29,1.3,.37,.42,.08,.85,.12,1.27,.12s.85-.04,1.27-.12c.45-.08,.88-.21,1.3-.37,.89-.35,1.7-.88,2.37-1.56,.68-.68,1.21-1.48,1.56-2.37,.17-.42,.29-.86,.37-1.3,.08-.42,.12-.85,.12-1.27Z"/></g><g id="TEXT"><circle class="cls-1" cx="765.53" cy="1024.02" r="11.44"/><path d="M436.43,458.91h-5.43v-1.05h2.19v-8.03l-2.06,1.03v-1.2l2.23-1.15h1.03v9.35h2.04v1.05Z"/><path d="M364.81,413.5h-5.68v-.87c1.44-1.61,2.38-2.68,2.8-3.23s.78-1.12,1.05-1.72c.27-.6,.4-1.2,.4-1.79s-.17-1.03-.52-1.36c-.35-.33-.84-.5-1.47-.5-.48,0-1.13,.15-1.95,.45l-.17-1.03c.74-.31,1.51-.47,2.31-.47,.92,0,1.67,.26,2.23,.78,.56,.52,.85,1.21,.85,2.08,0,.62-.15,1.24-.44,1.85-.29,.61-.66,1.2-1.12,1.76-.46,.56-1.34,1.57-2.65,3.02h4.35v1.05Z"/><path d="M438.98,551.77h-5.43v-1.05h2.19v-8.03l-2.06,1.03v-1.2l2.23-1.15h1.03v9.35h2.04v1.05Z"/><line class="cls-1" x1="765.53" y1="1012.57" x2="765.53" y2="1024.02"/><line class="cls-3" x1="335.63" y1="465.53" x2="485.93" y2="465.53"/><g><path d="M32.2,1028.91h-5.44v-1.05h2.19v-8.03l-2.07,1.03v-1.2l2.23-1.15h1.03v9.35h2.04v1.05Z"/><path d="M62.48,1023.25c.69,.16,1.23,.47,1.62,.94s.59,1.02,.59,1.66c0,.94-.34,1.68-1.02,2.24-.68,.56-1.5,.83-2.46,.83h-2.94v-10.33h2.86c1,0,1.77,.22,2.34,.66,.56,.44,.84,1.05,.84,1.85,0,.49-.16,.92-.49,1.3s-.77,.66-1.34,.83v.03Zm-3.01-.56h1.41c1.47,0,2.21-.52,2.21-1.58,0-.48-.18-.85-.54-1.1-.36-.26-.89-.38-1.59-.38h-1.48v3.06Zm0,5.18h1.36c.79,0,1.43-.18,1.89-.54,.47-.36,.7-.86,.7-1.49,0-.67-.23-1.19-.69-1.55s-1.12-.55-1.99-.55h-1.28v4.13Z"/><path d="M73.42,1025.14h-5.24c0,.86,.25,1.58,.75,2.14s1.12,.84,1.84,.84,1.41-.12,2.15-.37l.2,.92c-.67,.3-1.46,.45-2.36,.45-1.13,0-2.05-.36-2.74-1.09s-1.04-1.71-1.04-2.94,.31-2.18,.93-2.9c.62-.72,1.43-1.08,2.41-1.08,.88,0,1.61,.33,2.2,1,.59,.67,.89,1.56,.89,2.67v.36Zm-1.25-.93c0-.6-.19-1.1-.56-1.51-.37-.41-.79-.61-1.25-.61-.59,0-1.08,.2-1.47,.59s-.6,.9-.65,1.53h3.92Z"/><path d="M82.16,1028.91h-1.14v-1.1c-.23,.38-.57,.69-1.01,.93-.44,.24-.9,.37-1.38,.37-.87,0-1.56-.39-2.07-1.17-.51-.78-.76-1.77-.76-2.96,0-1.12,.26-2.04,.79-2.78,.53-.73,1.23-1.1,2.11-1.1,.96,0,1.74,.39,2.32,1.17v-3.69h1.14v10.33Zm-1.14-2.34v-3.17c-.55-.88-1.21-1.32-1.98-1.32-.63,0-1.13,.28-1.49,.84-.37,.56-.55,1.27-.55,2.12s.17,1.61,.52,2.18c.34,.57,.82,.86,1.42,.86,.29,0,.58-.08,.87-.23,.29-.16,.57-.39,.83-.7,.26-.31,.39-.5,.39-.57Z"/><path d="M31.93,1050.91h-5.68v-.87c1.44-1.61,2.38-2.68,2.8-3.23s.78-1.12,1.05-1.72c.27-.6,.4-1.2,.4-1.79s-.18-1.03-.52-1.36c-.35-.33-.84-.5-1.47-.5-.48,0-1.13,.15-1.95,.45l-.17-1.03c.74-.31,1.51-.47,2.31-.47,.92,0,1.67,.26,2.23,.78,.56,.52,.85,1.21,.85,2.08,0,.62-.15,1.24-.44,1.85-.29,.61-.66,1.2-1.12,1.76s-1.34,1.57-2.65,3.02h4.35v1.05Z"/><path d="M63.44,1041.72c-.62-.21-1.2-.32-1.75-.32-.62,0-1.13,.14-1.53,.43-.39,.29-.59,.69-.59,1.22,0,.63,.51,1.17,1.54,1.65,.76,.35,1.27,.6,1.51,.73,.25,.14,.5,.33,.75,.56s.46,.52,.61,.85c.15,.32,.23,.69,.23,1.09,0,1.01-.34,1.79-1.01,2.34-.68,.55-1.47,.83-2.39,.83s-1.67-.18-2.34-.53l.25-1.03c.79,.36,1.47,.53,2.06,.53,.68,0,1.23-.18,1.64-.53,.41-.35,.62-.84,.62-1.46,0-.46-.13-.85-.4-1.17-.27-.32-.76-.65-1.49-.98-.74-.34-1.22-.58-1.44-.7-.22-.12-.43-.3-.65-.52s-.38-.47-.5-.74c-.12-.27-.18-.57-.18-.89,0-.85,.31-1.52,.92-2s1.39-.72,2.34-.72c.69,0,1.37,.11,2.05,.32l-.27,1.03Z"/><path d="M73.26,1050.57c-.77,.35-1.52,.53-2.26,.53-1.36,0-2.04-.72-2.04-2.16v-4.67h-1.46v-.99h1.46v-2.09h1.11v2.09h2.59v.99h-2.59v4.37c0,.46,.1,.82,.31,1.08,.21,.26,.48,.38,.83,.38,.62,0,1.24-.14,1.85-.42l.2,.89Z"/><path d="M82.18,1050.91h-1.14v-1.13c-.82,.87-1.68,1.31-2.59,1.31-1.43,0-2.15-.87-2.15-2.6v-5.21h1.14v4.89c0,.65,.1,1.13,.31,1.45,.21,.32,.55,.48,1.04,.48,.7,0,1.45-.43,2.25-1.3v-5.51h1.14v7.63Z"/><path d="M91.16,1050.91h-1.14v-1.1c-.23,.38-.57,.69-1.01,.93-.44,.24-.9,.37-1.38,.37-.88,0-1.57-.39-2.07-1.17-.51-.78-.76-1.77-.76-2.96,0-1.12,.26-2.04,.79-2.78,.53-.73,1.23-1.1,2.11-1.1,.96,0,1.74,.39,2.32,1.17v-3.69h1.14v10.33Zm-1.14-2.34v-3.17c-.55-.88-1.21-1.32-1.98-1.32-.63,0-1.13,.28-1.49,.84-.37,.56-.55,1.27-.55,2.12s.17,1.61,.52,2.18c.34,.57,.82,.86,1.42,.86,.29,0,.58-.08,.87-.23,.29-.16,.57-.39,.83-.7,.26-.31,.39-.5,.39-.57Z"/><path d="M100.54,1043.28l-2.89,7.63c-.42,1.12-.84,1.91-1.25,2.35-.41,.44-.88,.67-1.41,.67-.47,0-.93-.09-1.39-.26l.19-.92c.37,.12,.7,.18,1,.18,.41,0,.75-.16,1.01-.48s.53-.84,.8-1.56l-2.86-7.62h1.24l2.16,6.09,2.16-6.09h1.24Z"/></g></g></svg>