<?xml version="1.0" encoding="UTF-8"?><svg xmlns="http://www.w3.org/2000/svg" viewBox="0 0 800 1120"><defs><style>.cls-1{stroke-width:.75px;}.cls-1,.cls-2,.cls-3,.cls-4,.cls-5,.cls-6,.cls-7{fill:none;stroke:#231f20;stroke-linecap:round;stroke-linejoin:round;}.cls-2{stroke-width:1.2px;}.cls-3{stroke-width:.3px;}.cls-4{stroke-dasharray:0 0 2.01 2.01;}.cls-4,.cls-5,.cls-7{stroke-width:.24px;}.cls-6{stroke-width:.36px;}.cls-7{stroke-dasharray:0 0 2.11 2.11;}</style></defs><g id="Wall"><polyline class="cls-2" points="490.55 405.37 378.31 405.37 379.98 409.96 490.55 409.97"/><polyline class="cls-2" points="357.65 524.36 379.96 585.67 407.68 575.58 409.25 579.9 377.22 591.56 343.1 497.8"/><line class="cls-2" x1="490.55" y1="462.15" x2="485.96" y2="462.15"/><line class="cls-2" x1="485.96" y1="591.56" x2="485.96" y2="551.98"/><line class="cls-2" x1="485.96" y1="517.48" x2="485.96" y2="462.15"/><line class="cls-2" x1="490.55" y1="515.81" x2="490.55" y2="462.15"/><line class="cls-2" x1="490.55" y1="591.56" x2="490.55" y2="545.42"/><line class="cls-2" x1="485.96" y1="517.48" x2="490.55" y2="515.81"/><line class="cls-2" x1="424.05" y1="540.01" x2="387.46" y2="439.47"/><line class="cls-2" x1="485.96" y1="591.56" x2="490.55" y2="591.56"/><line class="cls-2" x1="426.93" y1="538.96" x2="424.05" y2="540.01"/><line class="cls-2" x1="336.48" y1="479.63" x2="365.64" y2="469.04"/><line class="cls-2" x1="426.93" y1="538.96" x2="390.34" y2="438.42"/><line class="cls-2" x1="351.26" y1="471.02" x2="358.5" y2="468.39"/><line class="cls-2" x1="361.57" y1="448.89" x2="358.69" y2="449.94"/><line class="cls-2" x1="336.48" y1="479.63" x2="322.51" y2="441.25"/><line class="cls-2" x1="358.69" y1="449.94" x2="364.6" y2="466.17"/><line class="cls-2" x1="365.64" y1="469.04" x2="368.52" y2="467.99"/><polyline class="cls-2" points="490.55 545.42 456.72 557.74 458.29 562.05 485.96 551.98"/><line class="cls-2" x1="387.46" y1="439.47" x2="390.34" y2="438.42"/><line class="cls-2" x1="361.57" y1="448.89" x2="368.52" y2="467.99"/><line class="cls-2" x1="363.29" y1="466.64" x2="364.6" y2="466.17"/><line class="cls-2" x1="343.1" y1="497.8" x2="347.41" y2="496.23"/><polyline class="cls-2" points="364.6 466.17 340.01 475.11 316.3 409.96 347.41 409.96 345.73 405.37 309.45 405.37 322.51 441.25"/><line class="cls-2" x1="490.55" y1="409.97" x2="490.55" y2="405.37"/><polyline class="cls-2" points="381.44 512.44 371.69 485.61 374.55 484.56 385.37 514.27 357.64 524.36"/><line class="cls-2" x1="356.6" y1="521.49" x2="381.44" y2="512.44"/><line class="cls-2" x1="347.41" y1="496.23" x2="356.6" y2="521.48"/></g><g id="Window_Door_Stairs"><line class="cls-5" x1="365.4" y1="545.66" x2="393.12" y2="535.57"/><line class="cls-5" x1="485.96" y1="409.97" x2="485.96" y2="462.15"/><line class="cls-5" x1="490.55" y1="409.97" x2="490.55" y2="462.15"/><g><line class="cls-5" x1="309.45" y1="405.37" x2="310.39" y2="405.03"/><line class="cls-4" x1="312.28" y1="404.35" x2="394.32" y2="374.48"/><polyline class="cls-5" points="395.27 374.14 396.21 373.8 396.55 374.74"/><line class="cls-7" x1="397.27" y1="376.72" x2="406.99" y2="403.44"/><line class="cls-5" x1="407.35" y1="404.43" x2="407.7" y2="405.37"/></g><line class="cls-5" x1="456.72" y1="557.74" x2="407.68" y2="575.58"/><line class="cls-5" x1="458.29" y1="562.05" x2="409.25" y2="579.9"/><line class="cls-5" x1="398.16" y1="549.43" x2="407.68" y2="575.58"/><line class="cls-5" x1="398.16" y1="549.43" x2="379.96" y2="585.67"/><line class="cls-5" x1="398.16" y1="549.43" x2="385.37" y2="514.27"/><line class="cls-5" x1="360.45" y1="532.06" x2="388.17" y2="521.97"/><line class="cls-5" x1="362.93" y1="538.86" x2="390.65" y2="528.77"/><line class="cls-5" x1="367.87" y1="552.46" x2="395.59" y2="542.37"/><line class="cls-5" x1="370.44" y1="559.52" x2="401.78" y2="548.11"/><line class="cls-5" x1="390.34" y1="438.42" x2="398.18" y2="435.57"/><line class="cls-5" x1="388.86" y1="409.96" x2="398.18" y2="435.57"/><line class="cls-5" x1="347.41" y1="409.96" x2="379.98" y2="409.96"/><line class="cls-5" x1="345.73" y1="405.37" x2="378.31" y2="405.37"/><line class="cls-5" x1="336.48" y1="479.63" x2="343.1" y2="497.8"/><line class="cls-5" x1="340.79" y1="478.07" x2="347.41" y2="496.23"/><line class="cls-5" x1="485.96" y1="591.56" x2="377.22" y2="591.56"/><rect class="cls-5" x="399.52" y="535.29" width="19.76" height="9.74" transform="translate(-160.06 172.6) rotate(-20)"/><line class="cls-5" x1="379.98" y1="409.97" x2="390.34" y2="438.42"/><line class="cls-5" x1="420.35" y1="541.27" x2="424.05" y2="539.93"/></g><g id="Accessory"><line class="cls-6" x1="426.93" y1="538.96" x2="485.96" y2="517.48"/><line class="cls-6" x1="347.41" y1="409.96" x2="320.46" y2="419.77"/><line class="cls-6" x1="421.22" y1="523.27" x2="485.96" y2="499.71"/><path class="cls-6" d="M326.74,466.22c0-.42-.04-.85-.12-1.27-.08-.44-.21-.88-.37-1.29-.35-.88-.88-1.69-1.55-2.36-.67-.67-1.47-1.2-2.36-1.55-.42-.17-.85-.29-1.3-.37-.42-.08-.84-.12-1.27-.12s-.85,.04-1.27,.12c-.44,.08-.88,.21-1.29,.37-.88,.35-1.69,.88-2.36,1.55-.67,.67-1.2,1.47-1.55,2.36-.17,.42-.29,.85-.37,1.3-.08,.42-.12,.84-.12,1.27s.04,.85,.12,1.27c.08,.44,.21,.88,.37,1.29,.35,.88,.88,1.69,1.55,2.36s1.47,1.2,2.36,1.55c.42,.17,.85,.29,1.3,.37,.42,.08,.84,.12,1.27,.12s.85-.04,1.27-.12c.44-.08,.88-.21,1.29-.37,.88-.35,1.69-.88,2.36-1.55,.67-.67,1.2-1.47,1.55-2.36,.17-.42,.29-.85,.37-1.29,.08-.42,.12-.84,.12-1.27Z"/><line class="cls-3" x1="485.96" y1="497.93" x2="485.96" y2="497.94"/><line class="cls-3" x1="485.96" y1="517.48" x2="485.96" y2="517.48"/></g><g id="TEXT"><g><path d="M31.17,1024.55h-4.68v-.9h1.89v-6.91l-1.78,.89v-1.04l1.92-.99h.89v8.05h1.76v.9Z"/><path d="M61.68,1019.67c.59,.14,1.06,.41,1.39,.81,.34,.4,.5,.88,.5,1.43,0,.81-.29,1.45-.88,1.93-.59,.48-1.29,.72-2.12,.72h-2.53v-8.9h2.47c.86,0,1.53,.19,2.01,.56s.73,.91,.73,1.59c0,.42-.14,.79-.42,1.12-.28,.33-.67,.57-1.16,.71v.02Zm-2.59-.48h1.21c1.27,0,1.9-.45,1.9-1.36,0-.41-.16-.73-.47-.95-.31-.22-.77-.33-1.37-.33h-1.27v2.64Zm0,4.46h1.17c.69,0,1.23-.16,1.63-.47,.4-.31,.6-.74,.6-1.28,0-.58-.2-1.02-.59-1.34s-.97-.47-1.72-.47h-1.1v3.56Z"/><path d="M71.1,1021.3h-4.51c0,.74,.22,1.36,.65,1.84,.43,.48,.96,.73,1.59,.73s1.21-.11,1.85-.32l.17,.79c-.58,.26-1.26,.39-2.03,.39-.98,0-1.76-.31-2.36-.94-.6-.63-.9-1.47-.9-2.54s.27-1.87,.8-2.49,1.23-.93,2.08-.93c.76,0,1.39,.29,1.9,.86s.76,1.34,.76,2.3v.31Zm-1.07-.8c0-.51-.16-.95-.48-1.3-.32-.35-.68-.53-1.07-.53-.51,0-.93,.17-1.26,.5-.33,.34-.52,.78-.56,1.32h3.38Z"/><path d="M78.63,1024.55h-.98v-.95c-.2,.32-.49,.59-.87,.8-.38,.21-.77,.32-1.19,.32-.75,0-1.35-.33-1.79-1.01s-.66-1.52-.66-2.55c0-.96,.23-1.76,.68-2.39,.46-.63,1.06-.95,1.81-.95,.83,0,1.5,.34,2,1.01v-3.18h.98v8.9Zm-.98-2.01v-2.73c-.47-.76-1.04-1.14-1.7-1.14-.54,0-.97,.24-1.29,.72-.32,.48-.47,1.09-.47,1.83s.15,1.38,.44,1.88c.3,.49,.7,.74,1.22,.74,.25,0,.5-.07,.75-.2,.25-.13,.49-.34,.71-.61,.22-.27,.33-.43,.33-.49Z"/><path d="M30.93,1043.62h-4.9v-.75c1.24-1.38,2.05-2.31,2.42-2.78s.67-.96,.9-1.48,.35-1.03,.35-1.55-.15-.89-.45-1.17-.72-.43-1.26-.43c-.42,0-.98,.13-1.68,.38l-.15-.89c.64-.27,1.3-.4,1.99-.4,.79,0,1.44,.22,1.92,.67,.49,.45,.73,1.05,.73,1.79,0,.53-.12,1.06-.38,1.59s-.57,1.03-.96,1.51c-.39,.48-1.15,1.35-2.28,2.6h3.75v.9Z"/><path d="M64.21,1034.72l-1.14,8.9h-.96l-1.51-5.01-1.51,5.01h-.98l-1.11-8.9h1.02l.75,7.24,1.31-4.38h1.04l1.32,4.39,.76-7.25h1.01Z"/><path d="M71.24,1043.07c-.7,.48-1.51,.72-2.43,.72-1.15,0-2.03-.39-2.63-1.19-.6-.79-.9-1.93-.9-3.43s.29-2.58,.87-3.4c.58-.82,1.46-1.23,2.66-1.23,.43,0,.85,.05,1.27,.16,.42,.11,.76,.25,1.02,.44l-.34,.81c-.59-.34-1.24-.5-1.95-.5-.82,0-1.43,.3-1.83,.89-.4,.59-.6,1.54-.6,2.82,0,2.47,.81,3.71,2.43,3.71,.69,0,1.39-.21,2.11-.63l.32,.81Z"/><path d="M29.17,1057.91c.54,.15,.98,.43,1.31,.83,.33,.4,.49,.85,.49,1.35,0,.78-.3,1.44-.91,1.97-.61,.53-1.33,.8-2.16,.8-.71,0-1.34-.16-1.9-.47l.2-.85c.58,.27,1.16,.41,1.73,.41,.54,0,1-.17,1.38-.5,.38-.33,.57-.76,.57-1.29s-.2-.94-.61-1.26c-.41-.32-.95-.49-1.62-.49h-.27v-.85h.08c.65,0,1.18-.15,1.6-.46,.42-.3,.63-.72,.63-1.23,0-.42-.15-.75-.45-.99-.3-.24-.72-.36-1.25-.36-.46,0-.97,.12-1.54,.37l-.14-.89c.57-.26,1.15-.39,1.73-.39,.79,0,1.45,.21,1.96,.63,.51,.42,.77,.96,.77,1.61,0,.45-.16,.88-.47,1.27-.31,.39-.69,.64-1.13,.74v.04Z"/><path d="M62.5,1054.78c-.53-.18-1.03-.27-1.51-.27-.54,0-.98,.12-1.31,.37-.34,.25-.51,.6-.51,1.05,0,.54,.44,1.01,1.33,1.42,.66,.3,1.09,.51,1.3,.63,.21,.12,.43,.28,.65,.49,.22,.21,.39,.45,.53,.73s.2,.59,.2,.94c0,.87-.29,1.54-.87,2.01-.58,.48-1.27,.72-2.06,.72s-1.44-.15-2.01-.45l.21-.89c.68,.31,1.27,.46,1.77,.46,.59,0,1.06-.15,1.42-.46s.53-.72,.53-1.26c0-.4-.12-.73-.35-1.01-.23-.28-.66-.56-1.28-.84-.64-.29-1.05-.5-1.24-.6-.19-.11-.37-.26-.56-.45-.19-.19-.33-.4-.43-.64-.1-.24-.15-.49-.15-.77,0-.74,.27-1.31,.79-1.72,.53-.41,1.2-.62,2.01-.62,.59,0,1.18,.09,1.77,.27l-.23,.88Z"/><path d="M70.91,1062.69h-.98v-4.21c0-.58-.09-1.01-.28-1.27-.19-.26-.48-.39-.88-.39-.6,0-1.25,.37-1.94,1.12v4.76h-.98v-8.9h.98v3.29c.71-.75,1.45-1.12,2.23-1.12,1.23,0,1.85,.74,1.85,2.23v4.5Z"/><path d="M76.11,1055.96c.9,0,1.62,.32,2.16,.95s.8,1.46,.8,2.49-.27,1.88-.8,2.51-1.25,.95-2.16,.95-1.63-.32-2.16-.95c-.53-.63-.8-1.47-.8-2.51s.27-1.87,.8-2.49c.53-.63,1.25-.94,2.16-.94Zm0,6.04c.6,0,1.07-.25,1.41-.76s.52-1.12,.52-1.84c0-.76-.17-1.38-.51-1.87-.34-.49-.81-.73-1.42-.73s-1.08,.24-1.42,.72c-.34,.48-.5,1.11-.5,1.88s.17,1.35,.51,1.85c.34,.5,.81,.75,1.41,.75Z"/><path d="M87.19,1056.12l-.95,6.57h-.75l-1.55-3.72-1.55,3.72h-.75l-.93-6.57h.98c.35,3.07,.53,4.68,.54,4.83l1.2-2.86h1.01l1.2,2.84,.53-4.81h1.01Z"/><path d="M94.36,1059.44h-4.51c0,.74,.22,1.36,.65,1.84,.43,.48,.96,.73,1.59,.73s1.21-.11,1.85-.32l.17,.79c-.58,.26-1.26,.39-2.03,.39-.98,0-1.76-.31-2.36-.94-.6-.63-.9-1.47-.9-2.54s.27-1.87,.8-2.49,1.23-.93,2.08-.93c.76,0,1.39,.29,1.9,.86s.76,1.34,.76,2.3v.31Zm-1.07-.8c0-.51-.16-.95-.48-1.3-.32-.35-.68-.53-1.07-.53-.51,0-.93,.17-1.26,.5-.33,.34-.52,.78-.56,1.32h3.38Z"/><path d="M102.02,1056.29l-.4,.95c-.43-.19-.81-.28-1.12-.28-.29,0-.57,.08-.85,.25s-.53,.4-.77,.71c-.23,.31-.35,.48-.35,.52v4.25h-.98v-6.57h.98v1.33c.53-.99,1.21-1.49,2.04-1.49,.5,0,.98,.11,1.44,.33Z"/><path d="M31.51,1079.7h-1.1v2.06h-1.03v-2.06h-3.87v-.79l3.51-6.06h1.39v5.94h1.1v.9Zm-2.13-.9v-4.92l-2.83,4.92h2.83Z"/><path d="M63,1081.76h-4.65v-8.9h4.61v.9h-3.58v2.76h3.44v.9h-3.44v3.44h3.61v.9Z"/><path d="M70.91,1081.76h-.98v-4.21c0-.58-.09-1.01-.28-1.27-.19-.26-.48-.39-.88-.39-.6,0-1.25,.37-1.94,1.12v4.76h-.98v-6.57h.98v.97c.71-.75,1.45-1.12,2.23-1.12,1.23,0,1.85,.74,1.85,2.23v4.5Z"/><path d="M78.72,1081.46c-.66,.3-1.31,.45-1.95,.45-1.17,0-1.76-.62-1.76-1.86v-4.02h-1.26v-.85h1.26v-1.8h.96v1.8h2.23v.85h-2.23v3.76c0,.4,.09,.71,.26,.93s.42,.33,.72,.33c.54,0,1.07-.12,1.6-.36l.17,.76Z"/><path d="M86.51,1075.37l-.4,.95c-.43-.19-.81-.28-1.12-.28-.29,0-.57,.08-.85,.25s-.53,.4-.77,.71c-.23,.31-.35,.48-.35,.52v4.25h-.98v-6.57h.98v1.33c.53-.99,1.21-1.49,2.04-1.49,.5,0,.98,.11,1.44,.33Z"/><path d="M94.46,1075.19l-2.49,6.57c-.36,.97-.72,1.64-1.08,2.02-.36,.38-.76,.57-1.21,.57-.4,0-.8-.07-1.2-.22l.16-.79c.32,.1,.61,.15,.86,.15,.35,0,.64-.14,.87-.41,.23-.27,.46-.72,.69-1.34l-2.47-6.56h1.07l1.86,5.24,1.86-5.24h1.07Z"/><path d="M27.48,1095.52c.29-.08,.57-.11,.84-.11,.84,0,1.51,.26,1.99,.77,.49,.52,.73,1.16,.73,1.93s-.28,1.49-.85,2.05-1.26,.84-2.08,.84-1.43-.13-1.96-.39l.21-.88c.57,.24,1.16,.36,1.77,.36,.54,0,.98-.17,1.31-.52,.33-.35,.5-.84,.5-1.46,0-.59-.16-1.05-.47-1.37s-.72-.48-1.22-.48c-.36,0-.72,.07-1.07,.21l-.62-.28v-4.25h4.07v.9h-3.17v2.69Z"/><path d="M58.05,1091.93h1.75c1.16,0,2.1,.4,2.8,1.19,.7,.79,1.05,1.88,1.05,3.26s-.36,2.51-1.07,3.28c-.71,.78-1.63,1.16-2.74,1.16h-1.8v-8.9Zm1.03,8h.73c.84,0,1.51-.31,2.01-.94,.49-.63,.74-1.5,.74-2.61s-.25-1.97-.74-2.6-1.16-.95-2-.95h-.73v7.1Z"/><path d="M71.1,1097.58h-4.51c0,.74,.22,1.36,.65,1.84,.43,.48,.96,.73,1.59,.73s1.21-.11,1.85-.32l.17,.79c-.58,.26-1.26,.39-2.03,.39-.98,0-1.76-.31-2.36-.94-.6-.63-.9-1.47-.9-2.54s.27-1.87,.8-2.49,1.23-.93,2.08-.93c.76,0,1.39,.29,1.9,.86s.76,1.34,.76,2.3v.31Zm-1.07-.8c0-.51-.16-.95-.48-1.3-.32-.35-.68-.53-1.07-.53-.51,0-.93,.17-1.26,.5-.33,.34-.52,.78-.56,1.32h3.38Z"/><path d="M78.63,1100.61c-.57,.26-1.2,.39-1.89,.39-1.03,0-1.86-.31-2.48-.94s-.92-1.46-.92-2.51,.31-1.88,.93-2.51c.62-.63,1.43-.94,2.44-.94,.66,0,1.29,.12,1.89,.35l-.26,.81c-.6-.21-1.14-.31-1.62-.31-.72,0-1.3,.23-1.72,.7-.42,.47-.63,1.1-.63,1.9,0,.73,.22,1.35,.66,1.85,.44,.5,1.01,.75,1.71,.75,.56,0,1.13-.11,1.72-.32l.17,.79Z"/><path d="M87.05,1100.83h-1.29l-2.79-3.27-.64,.55v2.71h-.98v-8.9h.98v5.1l3.08-2.78h1.25l-3,2.69,3.38,3.89Z"/></g><circle class="cls-1" cx="765.53" cy="1024.02" r="11.44"/><path d="M446.96,469.78h-4.68v-.9h1.89v-6.91l-1.78,.89v-1.04l1.92-.99h.89v8.05h1.76v.9Z"/><path d="M362.76,501.06h-4.9v-.75c1.24-1.38,2.05-2.31,2.42-2.78s.67-.96,.9-1.48,.35-1.03,.35-1.55-.15-.89-.45-1.17-.72-.43-1.26-.43c-.42,0-.98,.13-1.68,.38l-.15-.89c.64-.27,1.3-.4,1.99-.4,.79,0,1.44,.22,1.92,.67,.49,.45,.73,1.05,.73,1.79,0,.53-.12,1.06-.38,1.59s-.57,1.03-.96,1.51c-.39,.48-1.15,1.35-2.28,2.6h3.75v.9Z"/><path d="M343.65,441.23c.54,.15,.98,.43,1.31,.83,.33,.4,.49,.85,.49,1.35,0,.78-.3,1.44-.91,1.97-.61,.53-1.33,.8-2.16,.8-.71,0-1.34-.16-1.9-.47l.2-.85c.58,.27,1.16,.41,1.73,.41,.54,0,1-.17,1.38-.5,.38-.33,.57-.76,.57-1.29s-.2-.94-.61-1.26c-.41-.32-.95-.49-1.62-.49h-.27v-.85h.08c.65,0,1.18-.15,1.6-.46,.42-.3,.63-.72,.63-1.23,0-.42-.15-.75-.45-.99-.3-.24-.72-.36-1.25-.36-.46,0-.97,.12-1.54,.37l-.14-.89c.57-.26,1.15-.39,1.73-.39,.79,0,1.45,.21,1.96,.63,.51,.42,.77,.96,.77,1.61,0,.45-.16,.88-.47,1.27-.31,.39-.69,.64-1.13,.74v.04Z"/><path d="M428.39,556.59h-1.1v2.06h-1.03v-2.06h-3.87v-.79l3.51-6.06h1.39v5.94h1.1v.9Zm-2.13-.9v-4.92l-2.83,4.92h2.83Z"/><path d="M457.15,578.26c.29-.08,.57-.11,.84-.11,.84,0,1.51,.26,1.99,.77,.49,.52,.73,1.16,.73,1.93s-.28,1.49-.85,2.05-1.26,.84-2.08,.84-1.43-.13-1.96-.39l.21-.88c.57,.24,1.16,.36,1.77,.36,.54,0,.98-.17,1.31-.52,.33-.35,.5-.84,.5-1.46,0-.59-.16-1.05-.47-1.37s-.72-.48-1.22-.48c-.36,0-.72,.07-1.07,.21l-.62-.28v-4.25h4.07v.9h-3.17v2.69Z"/><line class="cls-1" x1="765.53" y1="1012.57" x2="765.53" y2="1024.02"/></g></svg>