<?xml version="1.0" encoding="UTF-8"?><svg xmlns="http://www.w3.org/2000/svg" viewBox="0 0 800 1120"><defs><style>.cls-1{stroke-width:.75px;}.cls-1,.cls-2,.cls-3,.cls-4,.cls-5,.cls-6,.cls-7{fill:none;stroke:#231f20;stroke-linecap:round;stroke-linejoin:round;}.cls-2{stroke-width:1.2px;}.cls-3{stroke-width:.3px;}.cls-4{stroke-dasharray:0 0 2.01 2.01;}.cls-4,.cls-5,.cls-7{stroke-width:.24px;}.cls-6{stroke-width:.36px;}.cls-7{stroke-dasharray:0 0 2.11 2.11;}</style></defs><g id="Wall"><polyline class="cls-2" points="490.55 405.37 378.31 405.37 379.98 409.96 490.55 409.97"/><polyline class="cls-2" points="357.65 524.36 379.96 585.67 407.68 575.58 409.25 579.9 377.22 591.56 343.1 497.8"/><line class="cls-2" x1="490.55" y1="462.15" x2="485.96" y2="462.15"/><line class="cls-2" x1="485.96" y1="591.56" x2="485.96" y2="551.98"/><line class="cls-2" x1="485.96" y1="517.48" x2="485.96" y2="462.15"/><line class="cls-2" x1="490.55" y1="515.81" x2="490.55" y2="462.15"/><line class="cls-2" x1="490.55" y1="591.56" x2="490.55" y2="545.42"/><line class="cls-2" x1="485.96" y1="517.48" x2="490.55" y2="515.81"/><line class="cls-2" x1="424.05" y1="540.01" x2="387.46" y2="439.47"/><line class="cls-2" x1="485.96" y1="591.56" x2="490.55" y2="591.56"/><line class="cls-2" x1="426.93" y1="538.96" x2="424.05" y2="540.01"/><line class="cls-2" x1="336.48" y1="479.63" x2="365.64" y2="469.04"/><line class="cls-2" x1="426.93" y1="538.96" x2="390.34" y2="438.42"/><line class="cls-2" x1="351.26" y1="471.02" x2="358.5" y2="468.39"/><line class="cls-2" x1="361.57" y1="448.89" x2="358.69" y2="449.94"/><line class="cls-2" x1="336.48" y1="479.63" x2="322.51" y2="441.25"/><line class="cls-2" x1="358.69" y1="449.94" x2="364.6" y2="466.17"/><line class="cls-2" x1="365.64" y1="469.04" x2="368.52" y2="467.99"/><polyline class="cls-2" points="490.55 545.42 456.72 557.74 458.29 562.05 485.96 551.98"/><line class="cls-2" x1="387.46" y1="439.47" x2="390.34" y2="438.42"/><line class="cls-2" x1="361.57" y1="448.89" x2="368.52" y2="467.99"/><line class="cls-2" x1="363.29" y1="466.64" x2="364.6" y2="466.17"/><line class="cls-2" x1="343.1" y1="497.8" x2="347.41" y2="496.23"/><polyline class="cls-2" points="364.6 466.17 340.01 475.11 316.3 409.96 347.41 409.96 345.73 405.37 309.45 405.37 322.51 441.25"/><line class="cls-2" x1="490.55" y1="409.97" x2="490.55" y2="405.37"/><polyline class="cls-2" points="381.44 512.44 371.69 485.61 374.55 484.56 385.37 514.27 357.64 524.36"/><line class="cls-2" x1="356.6" y1="521.49" x2="381.44" y2="512.44"/><line class="cls-2" x1="347.41" y1="496.23" x2="356.6" y2="521.48"/></g><g id="Window_Door_Stairs"><line class="cls-5" x1="365.4" y1="545.66" x2="393.12" y2="535.57"/><line class="cls-5" x1="485.96" y1="409.97" x2="485.96" y2="462.15"/><line class="cls-5" x1="490.55" y1="409.97" x2="490.55" y2="462.15"/><g><line class="cls-5" x1="309.45" y1="405.37" x2="310.39" y2="405.03"/><line class="cls-4" x1="312.28" y1="404.35" x2="394.32" y2="374.48"/><polyline class="cls-5" points="395.27 374.14 396.21 373.8 396.55 374.74"/><line class="cls-7" x1="397.27" y1="376.72" x2="406.99" y2="403.44"/><line class="cls-5" x1="407.35" y1="404.43" x2="407.7" y2="405.37"/></g><line class="cls-5" x1="456.72" y1="557.74" x2="407.68" y2="575.58"/><line class="cls-5" x1="458.29" y1="562.05" x2="409.25" y2="579.9"/><line class="cls-5" x1="398.16" y1="549.43" x2="407.68" y2="575.58"/><line class="cls-5" x1="398.16" y1="549.43" x2="379.96" y2="585.67"/><line class="cls-5" x1="398.16" y1="549.43" x2="385.37" y2="514.27"/><line class="cls-5" x1="360.45" y1="532.06" x2="388.17" y2="521.97"/><line class="cls-5" x1="362.93" y1="538.86" x2="390.65" y2="528.77"/><line class="cls-5" x1="367.87" y1="552.46" x2="395.59" y2="542.37"/><line class="cls-5" x1="370.44" y1="559.52" x2="401.78" y2="548.11"/><line class="cls-5" x1="390.34" y1="438.42" x2="398.18" y2="435.57"/><line class="cls-5" x1="388.86" y1="409.96" x2="398.18" y2="435.57"/><line class="cls-5" x1="347.41" y1="409.96" x2="379.98" y2="409.96"/><line class="cls-5" x1="345.73" y1="405.37" x2="378.31" y2="405.37"/><line class="cls-5" x1="336.48" y1="479.63" x2="343.1" y2="497.8"/><line class="cls-5" x1="340.79" y1="478.07" x2="347.41" y2="496.23"/><line class="cls-5" x1="485.96" y1="591.56" x2="377.22" y2="591.56"/><rect class="cls-5" x="399.52" y="535.29" width="19.76" height="9.74" transform="translate(-160.06 172.6) rotate(-20)"/><line class="cls-5" x1="379.98" y1="409.97" x2="390.34" y2="438.42"/><line class="cls-5" x1="420.35" y1="541.27" x2="424.05" y2="539.93"/></g><g id="Accessory"><line class="cls-6" x1="426.93" y1="538.96" x2="485.96" y2="517.48"/><line class="cls-6" x1="347.41" y1="409.96" x2="320.46" y2="419.77"/><line class="cls-6" x1="421.22" y1="523.27" x2="485.96" y2="499.71"/><path class="cls-6" d="M326.74,466.22c0-.42-.04-.85-.12-1.27-.08-.44-.21-.88-.37-1.29-.35-.88-.88-1.69-1.55-2.36-.67-.67-1.47-1.2-2.36-1.55-.42-.17-.85-.29-1.3-.37-.42-.08-.84-.12-1.27-.12s-.85,.04-1.27,.12c-.44,.08-.88,.21-1.29,.37-.88,.35-1.69,.88-2.36,1.55-.67,.67-1.2,1.47-1.55,2.36-.17,.42-.29,.85-.37,1.3-.08,.42-.12,.84-.12,1.27s.04,.85,.12,1.27c.08,.44,.21,.88,.37,1.29,.35,.88,.88,1.69,1.55,2.36s1.47,1.2,2.36,1.55c.42,.17,.85,.29,1.3,.37,.42,.08,.84,.12,1.27,.12s.85-.04,1.27-.12c.44-.08,.88-.21,1.29-.37,.88-.35,1.69-.88,2.36-1.55,.67-.67,1.2-1.47,1.55-2.36,.17-.42,.29-.85,.37-1.29,.08-.42,.12-.84,.12-1.27Z"/><line class="cls-3" x1="485.96" y1="497.93" x2="485.96" y2="497.94"/><line class="cls-3" x1="485.96" y1="517.48" x2="485.96" y2="517.48"/></g><g id="TEXT"><circle class="cls-1" cx="765.53" cy="1024.02" r="11.44"/><path d="M447.37,471.21h-5.43v-1.05h2.19v-8.03l-2.06,1.03v-1.2l2.23-1.15h1.03v9.35h2.04v1.05Z"/><path d="M363.14,502.49h-5.68v-.87c1.44-1.61,2.38-2.68,2.8-3.23s.78-1.12,1.05-1.72c.27-.6,.4-1.2,.4-1.79s-.17-1.03-.52-1.36c-.35-.33-.84-.5-1.47-.5-.48,0-1.13,.15-1.95,.45l-.17-1.03c.74-.31,1.51-.47,2.31-.47,.92,0,1.67,.26,2.23,.78,.56,.52,.85,1.21,.85,2.08,0,.62-.15,1.24-.44,1.85-.29,.61-.66,1.2-1.12,1.76-.46,.56-1.34,1.57-2.65,3.02h4.35v1.05Z"/><path d="M343.74,441.9c.63,.18,1.14,.5,1.52,.96,.38,.47,.57,.99,.57,1.57,0,.91-.35,1.67-1.06,2.29-.71,.62-1.54,.93-2.5,.93-.82,0-1.56-.18-2.21-.54l.23-.99c.68,.32,1.35,.48,2.01,.48,.62,0,1.16-.19,1.6-.58,.44-.39,.66-.89,.66-1.5s-.24-1.09-.71-1.46c-.47-.38-1.1-.56-1.88-.56h-.32v-.99h.09c.75,0,1.37-.18,1.86-.53,.49-.35,.73-.83,.73-1.43,0-.49-.18-.87-.53-1.15-.35-.28-.83-.41-1.45-.41-.53,0-1.13,.14-1.79,.43l-.16-1.03c.66-.3,1.33-.45,2.01-.45,.92,0,1.68,.24,2.28,.73,.6,.49,.9,1.11,.9,1.87,0,.53-.18,1.02-.55,1.48-.36,.46-.8,.74-1.31,.86v.04Z"/><path d="M428.85,557.7h-1.28v2.39h-1.2v-2.39h-4.5v-.92l4.08-7.03h1.62v6.9h1.28v1.05Zm-2.48-1.05v-5.71l-3.28,5.71h3.28Z"/><path d="M456.97,578.84c.33-.09,.66-.13,.97-.13,.98,0,1.75,.3,2.31,.9,.57,.6,.85,1.34,.85,2.24,0,.94-.33,1.73-.99,2.38-.66,.65-1.46,.98-2.41,.98s-1.66-.15-2.27-.45l.24-1.02c.66,.28,1.35,.42,2.06,.42,.63,0,1.14-.2,1.53-.61,.39-.41,.58-.97,.58-1.7,0-.69-.18-1.22-.55-1.59-.37-.37-.84-.56-1.41-.56-.42,0-.83,.08-1.24,.24l-.72-.33v-4.94h4.72v1.05h-3.68v3.12Z"/><line class="cls-1" x1="765.53" y1="1012.57" x2="765.53" y2="1024.02"/><g><path d="M32.2,1028.91h-5.44v-1.05h2.19v-8.03l-2.07,1.03v-1.2l2.23-1.15h1.03v9.35h2.04v1.05Z"/><path d="M62.48,1023.25c.69,.16,1.23,.47,1.62,.94s.59,1.02,.59,1.66c0,.94-.34,1.68-1.02,2.24-.68,.56-1.5,.83-2.46,.83h-2.94v-10.33h2.86c1,0,1.77,.22,2.34,.66,.56,.44,.84,1.05,.84,1.85,0,.49-.16,.92-.49,1.3s-.77,.66-1.34,.83v.03Zm-3.01-.56h1.41c1.47,0,2.21-.52,2.21-1.58,0-.48-.18-.85-.54-1.1-.36-.26-.89-.38-1.59-.38h-1.48v3.06Zm0,5.18h1.36c.79,0,1.43-.18,1.89-.54,.47-.36,.7-.86,.7-1.49,0-.67-.23-1.19-.69-1.55s-1.12-.55-1.99-.55h-1.28v4.13Z"/><path d="M73.42,1025.14h-5.24c0,.86,.25,1.58,.75,2.14s1.12,.84,1.84,.84,1.41-.12,2.15-.37l.2,.92c-.67,.3-1.46,.45-2.36,.45-1.13,0-2.05-.36-2.74-1.09s-1.04-1.71-1.04-2.94,.31-2.18,.93-2.9c.62-.72,1.43-1.08,2.41-1.08,.88,0,1.61,.33,2.2,1,.59,.67,.89,1.56,.89,2.67v.36Zm-1.25-.93c0-.6-.19-1.1-.56-1.51-.37-.41-.79-.61-1.25-.61-.59,0-1.08,.2-1.47,.59s-.6,.9-.65,1.53h3.92Z"/><path d="M82.16,1028.91h-1.14v-1.1c-.23,.38-.57,.69-1.01,.93-.44,.24-.9,.37-1.38,.37-.87,0-1.56-.39-2.07-1.17-.51-.78-.76-1.77-.76-2.96,0-1.12,.26-2.04,.79-2.78,.53-.73,1.23-1.1,2.11-1.1,.96,0,1.74,.39,2.32,1.17v-3.69h1.14v10.33Zm-1.14-2.34v-3.17c-.55-.88-1.21-1.32-1.98-1.32-.63,0-1.13,.28-1.49,.84-.37,.56-.55,1.27-.55,2.12s.17,1.61,.52,2.18c.34,.57,.82,.86,1.42,.86,.29,0,.58-.08,.87-.23,.29-.16,.57-.39,.83-.7,.26-.31,.39-.5,.39-.57Z"/><path d="M31.93,1050.91h-5.68v-.87c1.44-1.61,2.38-2.68,2.8-3.23s.78-1.12,1.05-1.72c.27-.6,.4-1.2,.4-1.79s-.18-1.03-.52-1.36c-.35-.33-.84-.5-1.47-.5-.48,0-1.13,.15-1.95,.45l-.17-1.03c.74-.31,1.51-.47,2.31-.47,.92,0,1.67,.26,2.23,.78,.56,.52,.85,1.21,.85,2.08,0,.62-.15,1.24-.44,1.85-.29,.61-.66,1.2-1.12,1.76s-1.34,1.57-2.65,3.02h4.35v1.05Z"/><path d="M65.42,1040.58l-1.32,10.33h-1.11l-1.76-5.82-1.75,5.82h-1.14l-1.29-10.33h1.19l.87,8.4,1.52-5.08h1.2l1.53,5.1,.89-8.42h1.17Z"/><path d="M73.58,1050.27c-.81,.56-1.75,.84-2.82,.84-1.34,0-2.36-.46-3.05-1.38-.7-.92-1.04-2.25-1.04-3.98s.34-2.99,1.01-3.94c.67-.95,1.7-1.42,3.08-1.42,.5,0,.99,.06,1.48,.19s.88,.3,1.18,.51l-.4,.94c-.69-.39-1.44-.59-2.26-.59-.95,0-1.66,.35-2.12,1.04-.46,.69-.7,1.78-.7,3.28,0,2.87,.94,4.31,2.82,4.31,.79,0,1.61-.24,2.45-.73l.37,.95Z"/><path d="M29.89,1067.36c.63,.18,1.13,.5,1.52,.96,.38,.47,.57,.99,.57,1.57,0,.91-.35,1.67-1.06,2.29-.71,.62-1.54,.93-2.51,.93-.82,0-1.55-.18-2.2-.54l.23-.99c.68,.32,1.35,.48,2.01,.48,.62,0,1.16-.19,1.6-.58,.44-.39,.66-.89,.66-1.5s-.24-1.09-.71-1.46c-.47-.38-1.1-.56-1.88-.56h-.31v-.99h.09c.75,0,1.37-.18,1.86-.53,.49-.35,.73-.83,.73-1.43,0-.49-.18-.87-.53-1.15-.35-.28-.83-.41-1.45-.41-.53,0-1.13,.14-1.79,.43l-.16-1.03c.66-.3,1.33-.45,2.01-.45,.92,0,1.68,.24,2.28,.73,.6,.49,.9,1.11,.9,1.87,0,.53-.18,1.02-.54,1.48-.36,.46-.8,.74-1.31,.86v.04Z"/><path d="M63.44,1063.72c-.62-.21-1.2-.32-1.75-.32-.62,0-1.13,.14-1.53,.43-.39,.29-.59,.69-.59,1.22,0,.63,.51,1.17,1.54,1.65,.76,.35,1.27,.6,1.51,.73,.25,.14,.5,.33,.75,.56s.46,.52,.61,.85c.15,.32,.23,.69,.23,1.09,0,1.01-.34,1.79-1.01,2.34-.68,.55-1.47,.83-2.39,.83s-1.67-.18-2.34-.53l.25-1.03c.79,.36,1.47,.53,2.06,.53,.68,0,1.23-.18,1.64-.53,.41-.35,.62-.84,.62-1.46,0-.46-.13-.85-.4-1.17-.27-.32-.76-.65-1.49-.98-.74-.34-1.22-.58-1.44-.7-.22-.12-.43-.3-.65-.52s-.38-.47-.5-.74c-.12-.27-.18-.57-.18-.89,0-.85,.31-1.52,.92-2s1.39-.72,2.34-.72c.69,0,1.37,.11,2.05,.32l-.27,1.03Z"/><path d="M73.19,1072.91h-1.14v-4.89c0-.68-.11-1.17-.33-1.48-.22-.31-.56-.46-1.02-.46-.7,0-1.45,.43-2.25,1.3v5.52h-1.14v-10.33h1.14v3.82c.82-.87,1.68-1.3,2.59-1.3,1.43,0,2.15,.86,2.15,2.59v5.22Z"/><path d="M79.23,1065.1c1.05,0,1.88,.37,2.5,1.1s.93,1.7,.93,2.89-.31,2.18-.93,2.92-1.46,1.11-2.5,1.11-1.89-.37-2.51-1.1c-.62-.74-.93-1.71-.93-2.92s.31-2.17,.93-2.9c.62-.73,1.46-1.09,2.5-1.09Zm0,7.02c.69,0,1.24-.29,1.64-.88s.6-1.3,.6-2.13c0-.88-.2-1.6-.59-2.17-.39-.57-.94-.85-1.65-.85s-1.26,.28-1.65,.84c-.39,.56-.59,1.29-.59,2.18s.2,1.56,.59,2.14c.4,.58,.94,.87,1.64,.87Z"/><path d="M92.09,1065.28l-1.1,7.63h-.87l-1.79-4.32-1.8,4.32h-.87l-1.08-7.63h1.13c.41,3.56,.62,5.43,.63,5.61l1.4-3.32h1.17l1.39,3.3,.62-5.59h1.17Z"/><path d="M100.42,1069.14h-5.24c0,.86,.25,1.58,.75,2.14,.5,.56,1.11,.84,1.84,.84s1.41-.12,2.15-.37l.2,.92c-.67,.3-1.46,.45-2.36,.45-1.13,0-2.05-.36-2.74-1.09s-1.04-1.71-1.04-2.94,.31-2.18,.93-2.9c.62-.72,1.43-1.08,2.41-1.08,.88,0,1.61,.33,2.2,1s.89,1.56,.89,2.67v.36Zm-1.24-.93c0-.6-.19-1.1-.56-1.51-.37-.41-.79-.61-1.25-.61-.59,0-1.08,.2-1.47,.59-.39,.39-.6,.9-.65,1.53h3.92Z"/><path d="M109.31,1065.49l-.46,1.1c-.5-.22-.94-.33-1.3-.33-.34,0-.67,.1-.99,.29-.32,.19-.62,.47-.89,.83-.27,.36-.41,.56-.41,.6v4.94h-1.13v-7.63h1.13v1.55c.61-1.15,1.4-1.73,2.37-1.73,.58,0,1.13,.13,1.68,.39Z"/><path d="M32.6,1092.53h-1.27v2.39h-1.2v-2.39h-4.5v-.92l4.08-7.03h1.62v6.9h1.27v1.05Zm-2.48-1.05v-5.71l-3.28,5.71h3.28Z"/><path d="M64.01,1094.91h-5.4v-10.33h5.35v1.05h-4.15v3.2h3.99v1.05h-3.99v3.99h4.2v1.05Z"/><path d="M73.19,1094.91h-1.14v-4.89c0-.68-.11-1.17-.33-1.48-.22-.31-.56-.46-1.02-.46-.7,0-1.45,.43-2.25,1.3v5.52h-1.14v-7.63h1.14v1.12c.82-.87,1.68-1.3,2.59-1.3,1.43,0,2.15,.86,2.15,2.59v5.22Z"/><path d="M82.27,1094.57c-.77,.35-1.52,.53-2.26,.53-1.36,0-2.04-.72-2.04-2.16v-4.67h-1.46v-.99h1.46v-2.09h1.11v2.09h2.59v.99h-2.59v4.37c0,.46,.1,.82,.31,1.08,.21,.26,.48,.38,.83,.38,.62,0,1.24-.14,1.85-.42l.2,.89Z"/><path d="M91.31,1087.49l-.46,1.1c-.5-.22-.94-.33-1.3-.33-.34,0-.67,.1-.99,.29-.32,.19-.62,.47-.89,.83-.27,.36-.41,.56-.41,.6v4.94h-1.14v-7.63h1.14v1.55c.61-1.15,1.4-1.73,2.37-1.73,.58,0,1.14,.13,1.68,.39Z"/><path d="M100.54,1087.28l-2.89,7.63c-.42,1.12-.84,1.91-1.25,2.35-.41,.44-.88,.67-1.41,.67-.47,0-.93-.09-1.39-.26l.19-.92c.37,.12,.7,.18,1,.18,.41,0,.75-.16,1.01-.48s.53-.84,.8-1.56l-2.86-7.62h1.24l2.16,6.09,2.16-6.09h1.24Z"/></g><g><path d="M200.48,1022.75c.33-.09,.66-.13,.97-.13,.98,0,1.75,.3,2.31,.9,.57,.6,.85,1.34,.85,2.24,0,.94-.33,1.73-.99,2.38-.66,.65-1.46,.98-2.41,.98s-1.66-.15-2.27-.45l.24-1.02c.66,.28,1.35,.42,2.06,.42,.63,0,1.14-.2,1.53-.61s.58-.97,.58-1.7c0-.69-.18-1.22-.55-1.59-.37-.37-.84-.56-1.41-.56-.42,0-.83,.08-1.25,.24l-.72-.33v-4.94h4.72v1.05h-3.68v3.12Z"/><path d="M230.82,1018.58h2.04c1.35,0,2.44,.46,3.25,1.38,.82,.92,1.22,2.18,1.22,3.79s-.41,2.91-1.24,3.81c-.83,.9-1.89,1.35-3.18,1.35h-2.09v-10.33Zm1.2,9.29h.85c.98,0,1.76-.36,2.33-1.09,.57-.73,.86-1.74,.86-3.03s-.29-2.29-.86-3.02c-.57-.74-1.35-1.1-2.33-1.1h-.85v8.24Z"/><path d="M245.98,1025.14h-5.24c0,.86,.25,1.58,.75,2.14,.5,.56,1.11,.84,1.84,.84s1.41-.12,2.15-.37l.2,.92c-.67,.3-1.46,.45-2.36,.45-1.13,0-2.04-.36-2.74-1.09s-1.04-1.71-1.04-2.94,.31-2.18,.93-2.9c.62-.72,1.43-1.08,2.41-1.08,.88,0,1.61,.33,2.21,1,.59,.67,.89,1.56,.89,2.67v.36Zm-1.25-.93c0-.6-.19-1.1-.56-1.51-.37-.41-.79-.61-1.25-.61-.59,0-1.08,.2-1.47,.59-.39,.39-.61,.9-.65,1.53h3.92Z"/><path d="M254.72,1028.66c-.66,.3-1.39,.45-2.19,.45-1.2,0-2.16-.36-2.88-1.09-.72-.73-1.07-1.7-1.07-2.91s.36-2.18,1.08-2.91c.72-.73,1.67-1.09,2.84-1.09,.77,0,1.5,.13,2.19,.4l-.3,.95c-.69-.24-1.32-.36-1.88-.36-.84,0-1.5,.27-2,.81-.49,.54-.74,1.28-.74,2.21,0,.85,.25,1.56,.76,2.14,.51,.58,1.17,.87,1.99,.87,.64,0,1.31-.12,1.99-.37l.2,.92Z"/><path d="M264.5,1028.91h-1.5l-3.24-3.79-.75,.64v3.15h-1.14v-10.33h1.14v5.92l3.58-3.22h1.46l-3.48,3.12,3.93,4.51Z"/></g></g></svg>