<?xml version="1.0" encoding="UTF-8"?>
<svg id="Layer_1" xmlns="http://www.w3.org/2000/svg" version="1.1" viewBox="0 0 800 1120">
  <!-- Generator: Adobe Illustrator 29.3.0, SVG Export Plug-In . SVG Version: 2.1.0 Build 146)  -->
  <defs>
    <style>
      .st0 {
        stroke-width: .8px;
      }

      .st0, .st1, .st2, .st3, .st4, .st5 {
        fill: none;
        stroke: #231f20;
        stroke-linecap: round;
        stroke-linejoin: round;
      }

      .st1 {
        stroke-width: 1.2px;
      }

      .st2 {
        stroke-width: .9px;
      }

      .st3 {
        stroke-width: .4px;
      }

      .st4, .st5 {
        stroke-width: .2px;
      }

      .st5 {
        stroke-dasharray: 0 2;
      }
    </style>
  </defs>
  <g id="Accessory">
    <polygon class="st1" points="402.2 405.9 406.6 404.4 490.5 404.4 490.5 417.5 485.9 417.5 485.9 409 403.4 409 402.2 405.9"/>
    <polygon class="st1" points="395.1 372.8 396.7 377.1 314.4 407.1 379.4 585.6 404.3 576.5 374.2 493.7 377.1 492.7 411.4 587 451 586.9 451 591.6 376.6 591.6 308.5 404.4 395.1 372.8"/>
    <line class="st2" x1="335.6" y1="479" x2="321.6" y2="440.4"/>
    <polygon class="st1" points="485.9 452.2 485.9 496.4 403.4 496.4 403.4 499.5 485.9 499.5 485.9 591.6 490.5 591.6 490.5 452.2 485.9 452.2"/>
    <line class="st4" x1="406.6" y1="404.4" x2="396.7" y2="377.1"/>
    <line class="st4" x1="485.9" y1="452.2" x2="485.9" y2="417.5"/>
    <line class="st4" x1="490.5" y1="417.5" x2="490.5" y2="452.2"/>
    <line class="st4" x1="341.5" y1="481.5" x2="366.4" y2="472.4"/>
    <line class="st4" x1="344" y1="488.6" x2="369" y2="479.5"/>
    <line class="st4" x1="346.6" y1="495.7" x2="371.6" y2="486.6"/>
    <line class="st4" x1="349.2" y1="502.8" x2="374.2" y2="493.7"/>
    <line class="st4" x1="351.8" y1="509.9" x2="376.8" y2="500.8"/>
    <line class="st4" x1="354.4" y1="517" x2="379.4" y2="507.9"/>
    <line class="st4" x1="357" y1="524.1" x2="381.9" y2="515"/>
    <line class="st4" x1="359.5" y1="531.2" x2="384.5" y2="522.1"/>
    <line class="st4" x1="362.1" y1="538.3" x2="387.1" y2="529.2"/>
    <line class="st4" x1="364.7" y1="545.4" x2="389.7" y2="536.3"/>
    <line class="st4" x1="367.3" y1="552.5" x2="392.3" y2="543.4"/>
    <line class="st4" x1="369.8" y1="559.3" x2="394.8" y2="550.2"/>
    <line class="st4" x1="379.4" y1="585.6" x2="394.8" y2="550.2"/>
    <polyline class="st5" points="340.6 397.6 350.1 423.8 323.9 433.4"/>
    <line class="st4" x1="374.2" y1="493.7" x2="366.4" y2="472.4"/>
    <line class="st4" x1="451" y1="591.6" x2="485.9" y2="591.6"/>
    <line class="st4" x1="451" y1="586.9" x2="485.9" y2="586.9"/>
    <line class="st4" x1="402.2" y1="405.9" x2="392.3" y2="378.7"/>
    <path class="st3" d="M325.8,465.5c0-.4,0-.9-.1-1.3,0-.5-.2-.9-.4-1.3-.4-.9-.9-1.7-1.6-2.4s-1.5-1.2-2.4-1.6c-.4-.2-.9-.3-1.3-.4-.4,0-.9-.1-1.3-.1s-.9,0-1.3.1c-.5,0-.9.2-1.3.4-.9.4-1.7.9-2.4,1.6-.7.7-1.2,1.5-1.6,2.4-.2.4-.3.9-.4,1.3,0,.4-.1.9-.1,1.3s0,.9.1,1.3c0,.5.2.9.4,1.3.4.9.9,1.7,1.6,2.4.7.7,1.5,1.2,2.4,1.6.4.2.9.3,1.3.4.4,0,.9.1,1.3.1s.9,0,1.3-.1c.5,0,.9-.2,1.3-.4.9-.4,1.7-.9,2.4-1.6.7-.7,1.2-1.5,1.6-2.4.2-.4.3-.9.4-1.3,0-.4.1-.9.1-1.3Z"/>
  </g>
  <g id="TEXT">
    <g>
      <path d="M31.2,1024.6h-4.7v-.9h1.9v-6.9l-1.8.9v-1l1.9-1h.9v8h1.8s0,.9,0,.9Z"/>
      <path d="M61.7,1019.7c.6.1,1.1.4,1.4.8.3.4.5.9.5,1.4,0,.8-.3,1.5-.9,1.9s-1.3.7-2.1.7h-2.5v-8.9h2.5c.9,0,1.5.2,2,.6s.7.9.7,1.6-.1.8-.4,1.1-.7.6-1.2.7h0s0,0,0,0ZM59.1,1019.2h1.2c1.3,0,1.9-.5,1.9-1.4s-.2-.7-.5-1c-.3-.2-.8-.3-1.4-.3h-1.3v2.6ZM59.1,1023.7h1.2c.7,0,1.2-.2,1.6-.5s.6-.7.6-1.3-.2-1-.6-1.3-1-.5-1.7-.5h-1.1v3.6h0Z"/>
      <path d="M71.1,1021.3h-4.5c0,.7.2,1.4.7,1.8.4.5,1,.7,1.6.7s1.2-.1,1.8-.3l.2.8c-.6.3-1.3.4-2,.4s-1.8-.3-2.4-.9c-.6-.6-.9-1.5-.9-2.5s.3-1.9.8-2.5,1.2-.9,2.1-.9,1.4.3,1.9.9.8,1.3.8,2.3v.3ZM70,1020.5c0-.5-.2-1-.5-1.3s-.7-.5-1.1-.5-.9.2-1.3.5c-.3.3-.5.8-.6,1.3h3.4,0Z"/>
      <path d="M78.6,1024.6h-1v-1c-.2.3-.5.6-.9.8-.4.2-.8.3-1.2.3-.8,0-1.3-.3-1.8-1s-.7-1.5-.7-2.5.2-1.8.7-2.4c.5-.6,1.1-1,1.8-1s1.5.3,2,1v-3.2h1v8.9h0ZM77.6,1022.5v-2.7c-.5-.8-1-1.1-1.7-1.1s-1,.2-1.3.7-.5,1.1-.5,1.8.2,1.4.4,1.9c.3.5.7.7,1.2.7s.5,0,.8-.2.5-.3.7-.6c.2-.3.3-.4.3-.5h0Z"/>
      <path d="M30.9,1043.6h-4.9v-.8c1.2-1.4,2-2.3,2.4-2.8s.7-1,.9-1.5.4-1,.4-1.6-.1-.9-.5-1.2-.7-.4-1.3-.4-1,.1-1.7.4v-.9c.5-.3,1.1-.4,1.8-.4s1.4.2,1.9.7c.5.4.7,1.1.7,1.8s-.1,1.1-.4,1.6-.6,1-1,1.5-1.1,1.3-2.3,2.6h3.8v.9h0Z"/>
      <path d="M62.5,1035.7c-.5-.2-1-.3-1.5-.3s-1,.1-1.3.4c-.3.2-.5.6-.5,1.1s.4,1,1.3,1.4c.7.3,1.1.5,1.3.6s.4.3.7.5.4.4.5.7.2.6.2.9c0,.9-.3,1.5-.9,2-.6.5-1.3.7-2.1.7s-1.4-.2-2-.4l.2-.9c.7.3,1.3.5,1.8.5s1.1-.2,1.4-.5.5-.7.5-1.3-.1-.7-.3-1-.7-.6-1.3-.8c-.6-.3-1-.5-1.2-.6-.2-.1-.4-.3-.6-.4-.2-.2-.3-.4-.4-.6s-.2-.5-.2-.8c0-.7.3-1.3.8-1.7.5-.4,1.2-.6,2-.6s1.2,0,1.8.3l-.2.9h0Z"/>
      <path d="M71,1043.3c-.7.3-1.3.4-1.9.4-1.2,0-1.8-.6-1.8-1.9v-4h-1.3v-.8h1.3v-1.8h1v1.8h2.2v.8h-2.2v3.8c0,.4,0,.7.3.9s.4.3.7.3c.5,0,1.1-.1,1.6-.4l.2.8h0Z"/>
      <path d="M78.7,1043.6h-1v-1c-.7.8-1.4,1.1-2.2,1.1-1.2,0-1.8-.8-1.8-2.2v-4.5h1v4.2c0,.6,0,1,.3,1.2s.5.4.9.4,1.2-.4,1.9-1.1v-4.8h1v6.6h0Z"/>
      <path d="M86.4,1043.6h-1v-.9c-.2.3-.5.6-.9.8-.4.2-.8.3-1.2.3-.8,0-1.3-.3-1.8-1s-.7-1.5-.7-2.6.2-1.8.7-2.4c.5-.6,1.1-.9,1.8-.9s1.5.3,2,1v-3.2h1v8.9h0ZM85.4,1041.6v-2.7c-.5-.8-1-1.1-1.7-1.1s-1,.2-1.3.7-.5,1.1-.5,1.8.2,1.4.4,1.9c.3.5.7.7,1.2.7s.5,0,.8-.2.5-.3.7-.6.3-.4.3-.5h0Z"/>
      <path d="M94.5,1037.1l-2.5,6.6c-.4,1-.7,1.6-1.1,2s-.8.6-1.2.6-.8,0-1.2-.2l.2-.8c.3,0,.6.2.9.2s.6-.1.9-.4.5-.7.7-1.3l-2.5-6.6h1.1l1.9,5.2,1.9-5.2h1.1Z"/>
    </g>
    <circle class="st0" cx="765.5" cy="1024" r="11.4"/>
    <path d="M436,457.5h-4.7v-.9h1.9v-6.9l-1.8.9v-1l1.9-1h.9v8h1.8v.9h0Z"/>
    <path d="M364.4,412.1h-4.9v-.8c1.2-1.4,2-2.3,2.4-2.8s.7-1,.9-1.5.4-1,.4-1.5-.1-.9-.5-1.2-.7-.4-1.3-.4-1,.1-1.7.4v-.9c.5-.3,1.1-.4,1.8-.4s1.4.2,1.9.7c.5.5.7,1,.7,1.8s-.1,1.1-.4,1.6-.6,1-1,1.5c-.4.5-1.1,1.4-2.3,2.6h3.8v.9h0Z"/>
    <path d="M438.6,550.3h-4.7v-.9h1.9v-6.9l-1.8.9v-1l1.9-1h.9v8h1.8v.9h0Z"/>
    <line class="st0" x1="765.5" y1="1012.6" x2="765.5" y2="1024"/>
    <line class="st5" x1="335.6" y1="465.5" x2="485.9" y2="465.5"/>
  </g>
</svg>