<?xml version="1.0" encoding="UTF-8"?><svg xmlns="http://www.w3.org/2000/svg" viewBox="0 0 800 1120"><defs><style>.cls-1{stroke-width:.75px;}.cls-1,.cls-2,.cls-3,.cls-4{fill:none;stroke:#231f20;stroke-linecap:round;stroke-linejoin:round;}.cls-2{stroke-width:1.2px;}.cls-3{stroke-width:.24px;}.cls-4{stroke-width:.36px;}</style></defs><g id="Wall"><rect class="cls-2" x="395.3" y="349.57" width="9.39" height="4.7"/><polygon class="cls-2" points="326.42 619.59 321.73 619.59 321.73 647.01 481.4 647.01 481.4 349.57 445.4 349.57 445.4 354.27 476.71 354.27 476.71 642.31 326.42 642.31 326.42 619.59"/><polygon class="cls-2" points="326.42 519.27 321.73 519.27 321.73 349.57 354.6 349.57 354.6 354.27 326.42 354.27 326.42 519.27"/></g><g id="Accessory"><line class="cls-4" x1="476.71" y1="623.53" x2="326.42" y2="623.53"/><line class="cls-3" x1="395.3" y1="354.27" x2="354.6" y2="354.27"/><line class="cls-3" x1="354.6" y1="349.57" x2="395.3" y2="349.57"/><line class="cls-3" x1="404.7" y1="354.27" x2="445.4" y2="354.27"/><line class="cls-3" x1="445.4" y1="349.57" x2="404.7" y2="349.57"/><line class="cls-3" x1="321.73" y1="519.27" x2="321.73" y2="619.59"/><line class="cls-3" x1="326.42" y1="619.59" x2="326.42" y2="519.27"/><line class="cls-4" x1="448.53" y1="576.25" x2="476.71" y2="576.25"/><line class="cls-4" x1="448.53" y1="568.11" x2="476.71" y2="568.11"/><line class="cls-4" x1="448.53" y1="559.97" x2="476.71" y2="559.97"/><line class="cls-4" x1="448.53" y1="551.83" x2="476.71" y2="551.83"/><line class="cls-4" x1="448.53" y1="543.69" x2="476.71" y2="543.69"/><line class="cls-4" x1="448.53" y1="535.55" x2="476.71" y2="535.55"/><line class="cls-4" x1="448.53" y1="527.41" x2="476.71" y2="527.41"/><line class="cls-4" x1="476.71" y1="519.27" x2="450.02" y2="519.27"/><line class="cls-4" x1="464.11" y1="511.13" x2="476.71" y2="511.13"/><line class="cls-4" x1="448.53" y1="520.13" x2="476.71" y2="503.85"/><path class="cls-4" d="M400,346.1c.29,0,.57-.03,.85-.08,.3-.06,.59-.14,.87-.25,.6-.24,1.14-.59,1.59-1.05s.81-1,1.05-1.59c.11-.28,.2-.58,.25-.87,.05-.28,.08-.57,.08-.85s-.03-.57-.08-.85c-.06-.3-.14-.59-.25-.87-.24-.6-.59-1.14-1.05-1.59s-1-.81-1.59-1.05c-.28-.11-.58-.2-.87-.25-.28-.05-.57-.08-.85-.08s-.57,.03-.85,.08c-.3,.06-.59,.14-.87,.25-.6,.24-1.14,.59-1.59,1.05s-.81,1-1.05,1.59c-.11,.28-.2,.58-.25,.87-.05,.28-.08,.57-.08,.85s.03,.57,.08,.85c.06,.3,.14,.59,.25,.87,.24,.6,.59,1.14,1.05,1.59s1,.81,1.59,1.05c.28,.11,.58,.2,.87,.25,.28,.05,.57,.08,.85,.08Z"/><line class="cls-4" x1="448.53" y1="502.99" x2="326.42" y2="502.99"/><path class="cls-4" d="M468.04,411.39c.19-.02,.38-.07,.56-.12,.19-.06,.38-.14,.56-.24,.37-.21,.7-.49,.96-.83,.26-.34,.45-.73,.56-1.14,.05-.2,.08-.4,.09-.6,.01-.19,0-.38-.02-.57-.02-.19-.07-.38-.12-.56-.06-.19-.14-.38-.24-.56-.21-.37-.49-.7-.83-.96s-.73-.45-1.14-.56c-.2-.05-.4-.08-.6-.09-.19-.01-.38,0-.57,.02-.19,.02-.38,.07-.56,.12-.19,.06-.38,.14-.56,.24-.37,.21-.7,.49-.96,.83-.26,.34-.45,.73-.56,1.14-.05,.2-.08,.4-.09,.6-.01,.19,0,.38,.02,.57s.07,.38,.12,.56c.06,.19,.14,.38,.24,.56,.21,.37,.49,.7,.83,.96,.34,.26,.73,.45,1.14,.56,.2,.05,.4,.08,.6,.09,.19,.01,.38,0,.57-.02Z"/><line class="cls-4" x1="448.53" y1="576.25" x2="448.53" y2="502.99"/><polyline class="cls-4" points="448.53 576.25 445.4 576.25 445.4 506.12 326.42 506.12"/></g><g id="TEXT"><g><path d="M32.2,1028.91h-5.43v-1.05h2.19v-8.03l-2.07,1.03v-1.2l2.23-1.15h1.03v9.35h2.04v1.05Z"/><path d="M62.48,1023.24c.69,.16,1.23,.47,1.62,.94s.59,1.02,.59,1.66c0,.94-.34,1.68-1.02,2.24-.68,.56-1.5,.83-2.46,.83h-2.94v-10.33h2.86c1,0,1.77,.22,2.34,.66,.56,.44,.84,1.05,.84,1.85,0,.49-.16,.92-.49,1.3s-.77,.66-1.34,.83v.03Zm-3.01-.56h1.41c1.47,0,2.2-.52,2.2-1.58,0-.48-.18-.85-.54-1.1-.36-.26-.89-.38-1.59-.38h-1.48v3.06Zm0,5.18h1.36c.8,0,1.43-.18,1.89-.54,.47-.36,.7-.86,.7-1.49,0-.67-.23-1.19-.69-1.55s-1.12-.55-1.99-.55h-1.27v4.13Z"/><path d="M73.42,1025.13h-5.24c0,.86,.25,1.58,.75,2.14,.5,.56,1.11,.84,1.84,.84s1.41-.12,2.15-.37l.2,.92c-.67,.3-1.46,.45-2.36,.45-1.13,0-2.05-.36-2.74-1.09s-1.04-1.71-1.04-2.94,.31-2.18,.93-2.9c.62-.72,1.43-1.08,2.41-1.08,.88,0,1.61,.33,2.2,1s.89,1.56,.89,2.67v.36Zm-1.25-.93c0-.6-.19-1.1-.56-1.51-.37-.41-.79-.61-1.25-.61-.59,0-1.08,.2-1.47,.59-.39,.39-.6,.9-.65,1.53h3.92Z"/><path d="M82.16,1028.91h-1.14v-1.1c-.23,.38-.57,.69-1.01,.93-.44,.24-.9,.37-1.38,.37-.87,0-1.56-.39-2.07-1.17-.51-.78-.76-1.77-.76-2.96,0-1.12,.26-2.04,.79-2.78,.53-.73,1.23-1.1,2.11-1.1,.96,0,1.74,.39,2.32,1.17v-3.69h1.14v10.33Zm-1.14-2.34v-3.17c-.55-.88-1.21-1.32-1.98-1.32-.63,0-1.13,.28-1.49,.84-.37,.56-.55,1.27-.55,2.12s.17,1.61,.52,2.18c.34,.57,.82,.86,1.42,.86,.29,0,.58-.08,.87-.23,.29-.16,.57-.39,.83-.7,.26-.31,.39-.5,.39-.57Z"/><path d="M31.93,1050.91h-5.68v-.87c1.44-1.61,2.38-2.68,2.81-3.23s.78-1.12,1.05-1.72c.27-.6,.4-1.2,.4-1.79s-.17-1.03-.52-1.36c-.35-.33-.84-.5-1.47-.5-.48,0-1.13,.15-1.95,.45l-.17-1.03c.74-.31,1.51-.47,2.31-.47,.92,0,1.67,.26,2.23,.78,.56,.52,.85,1.21,.85,2.08,0,.62-.15,1.24-.44,1.85s-.66,1.2-1.12,1.76-1.34,1.57-2.65,3.02h4.35v1.05Z"/><path d="M65.31,1040.58l-3.37,10.33h-1.44l-3.38-10.33h1.26l2.83,8.94,2.85-8.94h1.25Z"/><path d="M70.23,1043.1c1.05,0,1.88,.37,2.5,1.1s.93,1.7,.93,2.89-.31,2.18-.93,2.92-1.46,1.11-2.5,1.11-1.89-.37-2.51-1.1c-.62-.74-.93-1.71-.93-2.92s.31-2.17,.93-2.9c.62-.73,1.46-1.09,2.5-1.09Zm0,7.02c.69,0,1.24-.29,1.64-.88s.6-1.3,.6-2.13c0-.88-.2-1.6-.59-2.17s-.94-.85-1.65-.85-1.26,.28-1.65,.84c-.39,.56-.59,1.29-.59,2.18s.2,1.56,.59,2.14c.4,.58,.94,.87,1.64,.87Z"/><path d="M80.29,1050.91h-1.14v-6.64h-2.25v-.99h3.39v7.63Zm-.56-10.52c.21,0,.4,.08,.55,.23,.15,.15,.23,.34,.23,.55,0,.23-.07,.41-.22,.56s-.33,.23-.55,.23c-.2,0-.38-.08-.53-.24-.15-.16-.23-.34-.23-.55s.08-.39,.23-.55c.15-.16,.33-.23,.53-.23Z"/><path d="M91.16,1050.91h-1.14v-1.1c-.23,.38-.57,.69-1.01,.93-.44,.24-.9,.37-1.38,.37-.87,0-1.56-.39-2.07-1.17-.51-.78-.76-1.77-.76-2.96,0-1.12,.26-2.04,.79-2.78,.53-.73,1.23-1.1,2.11-1.1,.96,0,1.74,.39,2.32,1.17v-3.69h1.14v10.33Zm-1.14-2.34v-3.17c-.55-.88-1.21-1.32-1.98-1.32-.63,0-1.13,.28-1.49,.84-.37,.56-.55,1.27-.55,2.12s.17,1.61,.52,2.18c.34,.57,.82,.86,1.42,.86,.29,0,.58-.08,.87-.23,.29-.16,.57-.39,.83-.7,.26-.31,.39-.5,.39-.57Z"/></g><circle class="cls-1" cx="765.53" cy="1024.02" r="11.44"/><line class="cls-1" x1="760.45" y1="1013.76" x2="765.53" y2="1024.02"/><path d="M385.47,570.33h-5.43v-1.05h2.19v-8.03l-2.07,1.03v-1.2l2.23-1.15h1.03v9.35h2.04v1.05Z"/><path d="M402.68,436.37h-5.68v-.87c1.44-1.61,2.38-2.68,2.81-3.23s.78-1.12,1.05-1.72c.27-.6,.4-1.2,.4-1.79s-.17-1.03-.52-1.36c-.35-.33-.84-.5-1.47-.5-.48,0-1.13,.15-1.95,.45l-.17-1.03c.74-.31,1.51-.47,2.31-.47,.92,0,1.67,.26,2.23,.78,.56,.52,.85,1.21,.85,2.08,0,.62-.15,1.24-.44,1.85s-.66,1.2-1.12,1.76-1.34,1.57-2.65,3.02h4.35v1.05Z"/></g></svg>