<?xml version="1.0" encoding="UTF-8"?><svg xmlns="http://www.w3.org/2000/svg" viewBox="0 0 800 1120"><defs><style>.cls-1{stroke-width:.75px;}.cls-1,.cls-2,.cls-3,.cls-4{fill:none;stroke:#231f20;stroke-linecap:round;stroke-linejoin:round;}.cls-2{stroke-width:1.2px;}.cls-3{stroke-width:.24px;}.cls-4{stroke-width:.36px;}</style></defs><g id="Wall"><line class="cls-2" x1="476.71" y1="382.45" x2="481.4" y2="382.45"/><line class="cls-2" x1="476.71" y1="354.27" x2="481.4" y2="354.27"/><line class="cls-2" x1="326.42" y1="519.27" x2="321.73" y2="519.27"/><line class="cls-2" x1="326.42" y1="619.59" x2="321.73" y2="619.59"/><line class="cls-2" x1="326.42" y1="462.28" x2="326.42" y2="519.27"/><polyline class="cls-2" points="326.42 349.57 321.73 349.57 321.73 387.14"/><line class="cls-2" x1="321.73" y1="462.28" x2="321.73" y2="519.27"/><polyline class="cls-2" points="395.3 642.31 395.3 564.67 418.79 564.67"/><polyline class="cls-2" points="398.43 642.31 398.43 567.8 418.79 567.8"/><polyline class="cls-2" points="445.4 567.8 448.53 567.8 448.53 543.69 476.71 543.69"/><line class="cls-2" x1="326.42" y1="387.14" x2="321.73" y2="387.14"/><line class="cls-2" x1="326.42" y1="462.28" x2="321.73" y2="462.28"/><line class="cls-2" x1="326.42" y1="387.14" x2="326.42" y2="349.57"/><line class="cls-2" x1="354.6" y1="354.27" x2="354.6" y2="349.57"/><line class="cls-2" x1="476.71" y1="588.15" x2="481.4" y2="588.15"/><line class="cls-2" x1="476.71" y1="567.8" x2="481.4" y2="567.8"/><polyline class="cls-2" points="326.42 619.59 326.42 642.31 390.29 642.31"/><line class="cls-2" x1="390.29" y1="642.31" x2="395.3" y2="642.31"/><line class="cls-2" x1="398.43" y1="642.31" x2="476.71" y2="642.31"/><line class="cls-2" x1="476.71" y1="434.11" x2="476.71" y2="382.45"/><polyline class="cls-2" points="321.73 619.59 321.73 647.01 390.29 647.01"/><polyline class="cls-2" points="390.29 647.01 481.4 647.01 481.4 588.15"/><line class="cls-2" x1="481.4" y1="567.8" x2="481.4" y2="462.28"/><line class="cls-2" x1="481.4" y1="434.11" x2="481.4" y2="382.45"/><line class="cls-2" x1="476.71" y1="349.57" x2="476.71" y2="354.27"/><line class="cls-2" x1="445.4" y1="354.27" x2="445.4" y2="349.57"/><line class="cls-2" x1="445.4" y1="354.27" x2="354.6" y2="354.27"/><polyline class="cls-2" points="481.4 354.27 481.4 349.57 476.71 349.57"/><line class="cls-2" x1="445.4" y1="349.57" x2="354.6" y2="349.57"/><line class="cls-2" x1="445.4" y1="567.8" x2="445.4" y2="564.67"/><line class="cls-2" x1="418.79" y1="564.67" x2="418.79" y2="567.8"/><line class="cls-2" x1="476.71" y1="462.28" x2="481.4" y2="462.28"/><line class="cls-2" x1="476.71" y1="434.11" x2="481.4" y2="434.11"/><line class="cls-2" x1="476.71" y1="588.15" x2="476.71" y2="642.31"/><polyline class="cls-2" points="445.4 564.67 445.4 519.27 448.53 519.27 448.53 540.56 476.71 540.56"/><line class="cls-2" x1="476.71" y1="567.8" x2="476.71" y2="543.69"/><line class="cls-2" x1="476.71" y1="540.56" x2="476.71" y2="462.28"/></g><g id="Window_Door_Stairs"><line class="cls-3" x1="481.4" y1="382.45" x2="481.4" y2="354.27"/><line class="cls-3" x1="326.42" y1="619.59" x2="326.42" y2="519.27"/><line class="cls-3" x1="321.73" y1="519.27" x2="321.73" y2="619.59"/><polyline class="cls-3" points="476.71 462.28 445.4 462.28 445.4 470.42 476.71 470.42"/><polyline class="cls-3" points="445.4 470.42 445.4 478.57 476.71 478.57"/><polyline class="cls-3" points="445.4 478.57 445.4 486.71 476.71 486.71"/><polyline class="cls-3" points="445.4 486.71 445.4 494.85 476.71 494.85"/><polyline class="cls-3" points="445.4 494.85 445.4 502.99 476.71 502.99"/><polyline class="cls-3" points="445.4 502.99 445.4 511.13 476.71 511.13"/><line class="cls-3" x1="448.53" y1="535.55" x2="476.71" y2="535.55"/><line class="cls-3" x1="476.71" y1="535.55" x2="448.53" y2="535.55"/><line class="cls-3" x1="354.6" y1="349.57" x2="326.42" y2="349.57"/><line class="cls-3" x1="321.73" y1="462.28" x2="321.73" y2="387.14"/><line class="cls-3" x1="326.42" y1="462.28" x2="326.42" y2="387.14"/><line class="cls-3" x1="481.4" y1="588.15" x2="481.4" y2="567.8"/><line class="cls-3" x1="476.71" y1="567.8" x2="476.71" y2="588.15"/><line class="cls-3" x1="476.71" y1="349.57" x2="445.4" y2="349.57"/><line class="cls-3" x1="326.42" y1="354.27" x2="354.6" y2="354.27"/><line class="cls-3" x1="445.4" y1="354.27" x2="476.71" y2="354.27"/><line class="cls-3" x1="481.4" y1="462.28" x2="481.4" y2="434.11"/><line class="cls-3" x1="476.71" y1="462.28" x2="476.71" y2="434.11"/><polyline class="cls-3" points="321.73 387.14 284.16 387.14 284.16 619.59 321.73 619.59"/><line class="cls-3" x1="476.71" y1="527.41" x2="448.53" y2="527.41"/><polyline class="cls-3" points="445.4 511.13 445.4 519.27 459.4 519.27 476.71 519.27"/><line class="cls-3" x1="476.71" y1="382.45" x2="476.71" y2="354.27"/><polyline class="cls-3" points="445.4 368.36 445.4 434.11 476.71 434.11"/></g><g id="Accessory"><path class="cls-4" d="M400,346.1c.29,0,.57-.03,.85-.08,.3-.06,.59-.14,.87-.25,.6-.24,1.14-.59,1.59-1.05s.81-1,1.05-1.59c.11-.28,.2-.58,.25-.87,.05-.28,.08-.57,.08-.85s-.03-.57-.08-.85c-.06-.3-.14-.59-.25-.87-.24-.6-.59-1.14-1.05-1.59s-1-.81-1.59-1.05c-.28-.11-.58-.2-.87-.25-.28-.05-.57-.08-.85-.08s-.57,.03-.85,.08c-.3,.06-.59,.14-.87,.25-.6,.24-1.14,.59-1.59,1.05s-.81,1-1.05,1.59c-.11,.28-.2,.58-.25,.87-.05,.28-.08,.57-.08,.85s.03,.57,.08,.85c.06,.3,.14,.59,.25,.87,.24,.6,.59,1.14,1.05,1.59,.45,.45,1,.81,1.59,1.05,.28,.11,.58,.2,.87,.25,.28,.05,.57,.08,.85,.08Z"/><line class="cls-4" x1="376.52" y1="614.29" x2="376.52" y2="564.67"/><line class="cls-4" x1="376.52" y1="642.31" x2="376.52" y2="614.29"/><line class="cls-4" x1="476.71" y1="368.36" x2="326.42" y2="368.36"/><line class="cls-4" x1="395.3" y1="564.67" x2="376.52" y2="564.67"/><line class="cls-4" x1="345.21" y1="619.59" x2="326.42" y2="619.59"/><polyline class="cls-4" points="345.21 619.59 345.21 519.27 326.42 519.27"/><line class="cls-4" x1="418.79" y1="642.31" x2="418.79" y2="567.8"/></g><g id="TEXT"><circle class="cls-1" cx="765.53" cy="1024.02" r="11.44"/><line class="cls-1" x1="760.45" y1="1013.76" x2="765.53" y2="1024.02"/><path d="M363.82,601.52h-5.43v-1.05h2.19v-8.03l-2.07,1.03v-1.2l2.23-1.15h1.03v9.35h2.04v1.05Z"/><path d="M392.98,452.08h-5.68v-.87c1.44-1.61,2.38-2.68,2.81-3.23s.78-1.12,1.05-1.72c.27-.6,.4-1.2,.4-1.79s-.17-1.03-.52-1.36c-.35-.33-.84-.5-1.47-.5-.48,0-1.13,.15-1.95,.45l-.17-1.03c.74-.31,1.51-.47,2.31-.47,.92,0,1.67,.26,2.23,.78,.56,.52,.85,1.21,.85,2.08,0,.62-.15,1.24-.44,1.85s-.66,1.2-1.12,1.76-1.34,1.57-2.65,3.02h4.35v1.05Z"/><path d="M306.3,514.91h-1.27v2.39h-1.2v-2.39h-4.5v-.92l4.08-7.03h1.62v6.9h1.27v1.05Zm-2.48-1.05v-5.71l-3.28,5.71h3.28Z"/><path d="M448.39,595.97c.63,.18,1.14,.5,1.52,.96,.38,.47,.57,.99,.57,1.57,0,.91-.35,1.67-1.06,2.29-.71,.62-1.54,.93-2.5,.93-.82,0-1.56-.18-2.2-.54l.23-.99c.68,.32,1.35,.48,2.01,.48,.62,0,1.16-.19,1.6-.58,.44-.39,.66-.89,.66-1.5s-.24-1.09-.71-1.46c-.47-.38-1.1-.56-1.88-.56h-.31v-.99h.09c.75,0,1.37-.18,1.86-.53,.49-.35,.73-.83,.73-1.43,0-.49-.18-.87-.53-1.15-.35-.28-.83-.41-1.45-.41-.53,0-1.13,.14-1.79,.43l-.16-1.03c.66-.3,1.33-.45,2.01-.45,.92,0,1.68,.24,2.28,.73,.6,.49,.9,1.11,.9,1.87,0,.53-.18,1.02-.55,1.48-.36,.46-.8,.74-1.31,.86v.04Z"/><g><path d="M32.2,1028.91h-5.43v-1.05h2.19v-8.03l-2.07,1.03v-1.2l2.23-1.15h1.03v9.35h2.04v1.05Z"/><path d="M65.57,1028.91h-1.52l-3.49-5.07-1.09,1.19v3.88h-1.2v-10.33h1.2v4.95l4.58-4.95h1.38l-4.04,4.37,4.17,5.97Z"/><path d="M71.29,1028.91h-1.14v-6.64h-2.25v-.99h3.39v7.63Zm-.56-10.52c.21,0,.4,.08,.55,.23,.15,.15,.23,.34,.23,.55,0,.23-.07,.41-.22,.56s-.33,.23-.55,.23c-.2,0-.38-.08-.53-.24-.15-.16-.23-.34-.23-.55s.08-.39,.23-.55c.15-.16,.33-.23,.53-.23Z"/><path d="M82.27,1028.57c-.77,.35-1.52,.53-2.26,.53-1.36,0-2.04-.72-2.04-2.16v-4.67h-1.46v-.99h1.46v-2.09h1.11v2.09h2.59v.99h-2.59v4.37c0,.46,.1,.82,.31,1.08,.21,.26,.48,.38,.83,.38,.62,0,1.24-.14,1.85-.42l.2,.89Z"/><path d="M91.16,1028.66c-.66,.3-1.39,.45-2.19,.45-1.2,0-2.16-.36-2.87-1.09-.72-.73-1.07-1.7-1.07-2.91s.36-2.18,1.08-2.91c.72-.73,1.67-1.09,2.84-1.09,.77,0,1.5,.13,2.19,.4l-.3,.95c-.69-.24-1.32-.36-1.88-.36-.84,0-1.51,.27-2,.81-.49,.54-.74,1.28-.74,2.21,0,.85,.25,1.56,.76,2.14,.51,.58,1.17,.87,1.98,.87,.64,0,1.31-.12,1.99-.37l.2,.92Z"/><path d="M100.19,1028.91h-1.14v-4.89c0-.68-.11-1.17-.33-1.48-.22-.31-.56-.46-1.02-.46-.7,0-1.45,.43-2.25,1.3v5.52h-1.14v-10.33h1.14v3.82c.82-.87,1.68-1.3,2.59-1.3,1.43,0,2.15,.86,2.15,2.59v5.22Z"/><path d="M109.42,1025.13h-5.24c0,.86,.25,1.58,.75,2.14,.5,.56,1.11,.84,1.84,.84s1.41-.12,2.15-.37l.2,.92c-.67,.3-1.46,.45-2.36,.45-1.13,0-2.05-.36-2.74-1.09s-1.04-1.71-1.04-2.94,.31-2.18,.93-2.9c.62-.72,1.43-1.08,2.41-1.08,.88,0,1.61,.33,2.2,1s.89,1.56,.89,2.67v.36Zm-1.25-.93c0-.6-.19-1.1-.56-1.51-.37-.41-.79-.61-1.25-.61-.59,0-1.08,.2-1.47,.59-.39,.39-.6,.9-.65,1.53h3.92Z"/><path d="M118.2,1028.91h-1.14v-4.89c0-.68-.11-1.17-.33-1.48-.22-.31-.56-.46-1.02-.46-.7,0-1.45,.43-2.25,1.3v5.52h-1.14v-7.63h1.14v1.12c.82-.87,1.68-1.3,2.59-1.3,1.43,0,2.15,.86,2.15,2.59v5.22Z"/><path d="M31.93,1050.91h-5.68v-.87c1.44-1.61,2.38-2.68,2.81-3.23s.78-1.12,1.05-1.72c.27-.6,.4-1.2,.4-1.79s-.17-1.03-.52-1.36c-.35-.33-.84-.5-1.47-.5-.48,0-1.13,.15-1.95,.45l-.17-1.03c.74-.31,1.51-.47,2.31-.47,.92,0,1.67,.26,2.23,.78,.56,.52,.85,1.21,.85,2.08,0,.62-.15,1.24-.44,1.85s-.66,1.2-1.12,1.76-1.34,1.57-2.65,3.02h4.35v1.05Z"/><path d="M64.23,1050.91h-5.62v-10.33h1.2v9.29h4.42v1.05Z"/><path d="M71.29,1050.91h-1.14v-6.64h-2.25v-.99h3.39v7.63Zm-.56-10.52c.21,0,.4,.08,.55,.23,.15,.15,.23,.34,.23,.55,0,.23-.07,.41-.22,.56s-.33,.23-.55,.23c-.2,0-.38-.08-.53-.24-.15-.16-.23-.34-.23-.55s.08-.39,.23-.55c.15-.16,.33-.23,.53-.23Z"/><path d="M82.54,1043.28l-2.89,7.63h-1.04l-2.88-7.63h1.25l2.16,6.07,2.16-6.07h1.25Z"/><path d="M89.29,1050.91h-1.14v-6.64h-2.25v-.99h3.39v7.63Zm-.56-10.52c.21,0,.4,.08,.55,.23,.15,.15,.23,.34,.23,.55,0,.23-.07,.41-.22,.56s-.33,.23-.55,.23c-.2,0-.38-.08-.53-.24-.15-.16-.23-.34-.23-.55s.08-.39,.23-.55c.15-.16,.33-.23,.53-.23Z"/><path d="M100.19,1050.91h-1.14v-4.89c0-.68-.11-1.17-.33-1.48-.22-.31-.56-.46-1.02-.46-.7,0-1.45,.43-2.25,1.3v5.52h-1.14v-7.63h1.14v1.12c.82-.87,1.68-1.3,2.59-1.3,1.43,0,2.15,.86,2.15,2.59v5.22Z"/><path d="M105.43,1048.04c-.71,.35-1.07,.65-1.07,.92,0,.14,.08,.26,.25,.36s.39,.15,.67,.15l2.57-.07c.61,0,1.08,.15,1.42,.45,.34,.3,.51,.72,.51,1.27,0,.86-.39,1.55-1.16,2.06-.77,.51-1.67,.77-2.7,.77-.84,0-1.54-.18-2.07-.53-.54-.35-.81-.81-.81-1.37,0-.61,.42-1.12,1.25-1.54-.69-.32-1.03-.72-1.03-1.19,0-.54,.44-1.04,1.33-1.5-.41-.25-.73-.57-.94-.97s-.33-.81-.33-1.25c0-.72,.24-1.31,.73-1.77,.49-.46,1.1-.69,1.83-.69,.53,0,1,.11,1.43,.33l2.26-.34v1.11h-1.46c.22,.39,.33,.84,.33,1.36,0,.69-.24,1.28-.73,1.76-.48,.48-1.1,.72-1.84,.72-.16,0-.31,0-.45-.02Zm.49,5.01c.75,0,1.39-.17,1.92-.5,.53-.33,.79-.75,.79-1.24s-.38-.76-1.13-.76c-.25,0-.68,.01-1.29,.04-.39,.02-.69,.03-.91,.03-.11,0-.27,.09-.5,.26-.23,.18-.4,.35-.52,.53-.12,.18-.18,.36-.18,.55,0,.3,.17,.55,.5,.77,.33,.21,.77,.32,1.31,.32Zm-.04-5.88c.42,0,.76-.15,1.03-.44,.27-.29,.4-.67,.4-1.14,0-.49-.13-.88-.39-1.16-.26-.28-.61-.42-1.04-.42-.41,0-.75,.15-1.02,.44-.28,.29-.41,.67-.41,1.14s.14,.84,.41,1.13c.28,.3,.62,.44,1.02,.44Z"/><path d="M29.89,1067.36c.63,.18,1.14,.5,1.52,.96,.38,.47,.57,.99,.57,1.57,0,.91-.35,1.67-1.06,2.29-.71,.62-1.54,.93-2.5,.93-.82,0-1.56-.18-2.2-.54l.23-.99c.68,.32,1.35,.48,2.01,.48,.62,0,1.16-.19,1.6-.58,.44-.39,.66-.89,.66-1.5s-.24-1.09-.71-1.46c-.47-.38-1.1-.56-1.88-.56h-.31v-.99h.09c.75,0,1.37-.18,1.86-.53,.49-.35,.73-.83,.73-1.43,0-.49-.18-.87-.53-1.15-.35-.28-.83-.41-1.45-.41-.53,0-1.13,.14-1.79,.43l-.16-1.03c.66-.3,1.33-.45,2.01-.45,.92,0,1.68,.24,2.28,.73,.6,.49,.9,1.11,.9,1.87,0,.53-.18,1.02-.55,1.48-.36,.46-.8,.74-1.31,.86v.04Z"/><path d="M62.48,1067.24c.69,.16,1.23,.47,1.62,.94s.59,1.02,.59,1.66c0,.94-.34,1.68-1.02,2.24-.68,.56-1.5,.83-2.46,.83h-2.94v-10.33h2.86c1,0,1.77,.22,2.34,.66,.56,.44,.84,1.05,.84,1.85,0,.49-.16,.92-.49,1.3s-.77,.66-1.34,.83v.03Zm-3.01-.56h1.41c1.47,0,2.2-.52,2.2-1.58,0-.48-.18-.85-.54-1.1-.36-.26-.89-.38-1.59-.38h-1.48v3.06Zm0,5.18h1.36c.8,0,1.43-.18,1.89-.54,.47-.36,.7-.86,.7-1.49,0-.67-.23-1.19-.69-1.55s-1.12-.55-1.99-.55h-1.27v4.13Z"/><path d="M73.38,1072.91h-1.14c-.09-.31-.14-.72-.14-1.23-.65,.95-1.53,1.43-2.65,1.43-.57,0-1.07-.2-1.5-.6-.43-.4-.65-.92-.65-1.56,0-.38,.08-.71,.23-1s.37-.53,.67-.73c.29-.2,.65-.35,1.07-.47,.42-.12,.92-.19,1.49-.24l1.28-.1v-.37c0-1.31-.61-1.96-1.83-1.96-.29,0-.65,.06-1.09,.19-.44,.12-.82,.27-1.14,.44l-.3-.82c1.04-.53,2.01-.8,2.9-.8,1.74,0,2.61,.92,2.61,2.76v3.28c0,.66,.06,1.25,.19,1.77Zm-1.33-2.26v-1.38c-1.03,.09-1.74,.18-2.12,.26-.38,.08-.72,.23-1,.45-.28,.22-.42,.52-.42,.89,0,.34,.12,.62,.36,.83s.54,.32,.92,.32c.41,0,.81-.12,1.21-.36,.4-.24,.75-.57,1.05-1Z"/><path d="M82.27,1072.57c-.77,.35-1.52,.53-2.26,.53-1.36,0-2.04-.72-2.04-2.16v-4.67h-1.46v-.99h1.46v-2.09h1.11v2.09h2.59v.99h-2.59v4.37c0,.46,.1,.82,.31,1.08,.21,.26,.48,.38,.83,.38,.62,0,1.24-.14,1.85-.42l.2,.89Z"/><path d="M91.19,1072.91h-1.14v-4.89c0-.68-.11-1.17-.33-1.48-.22-.31-.56-.46-1.02-.46-.7,0-1.45,.43-2.25,1.3v5.52h-1.14v-10.33h1.14v3.82c.82-.87,1.68-1.3,2.59-1.3,1.43,0,2.15,.86,2.15,2.59v5.22Z"/><path d="M100.31,1065.49l-.46,1.1c-.5-.22-.94-.33-1.3-.33-.34,0-.67,.1-.99,.29-.32,.19-.62,.47-.89,.83-.27,.36-.41,.56-.41,.6v4.94h-1.14v-7.63h1.14v1.55c.61-1.15,1.4-1.73,2.37-1.73,.58,0,1.14,.13,1.68,.39Z"/><path d="M106.24,1065.1c1.05,0,1.88,.37,2.5,1.1s.93,1.7,.93,2.89-.31,2.18-.93,2.92-1.46,1.11-2.5,1.11-1.89-.37-2.51-1.1c-.62-.74-.93-1.71-.93-2.92s.31-2.17,.93-2.9c.62-.73,1.46-1.09,2.5-1.09Zm0,7.02c.69,0,1.24-.29,1.64-.88s.6-1.3,.6-2.13c0-.88-.2-1.6-.59-2.17s-.94-.85-1.65-.85-1.26,.28-1.65,.84c-.39,.56-.59,1.29-.59,2.18s.2,1.56,.59,2.14c.4,.58,.94,.87,1.64,.87Z"/><path d="M115.24,1065.1c1.05,0,1.88,.37,2.5,1.1s.93,1.7,.93,2.89-.31,2.18-.93,2.92-1.46,1.11-2.5,1.11-1.89-.37-2.51-1.1c-.62-.74-.93-1.71-.93-2.92s.31-2.17,.93-2.9c.62-.73,1.46-1.09,2.5-1.09Zm0,7.02c.69,0,1.24-.29,1.64-.88s.6-1.3,.6-2.13c0-.88-.2-1.6-.59-2.17s-.94-.85-1.65-.85-1.26,.28-1.65,.84c-.39,.56-.59,1.29-.59,2.18s.2,1.56,.59,2.14c.4,.58,.94,.87,1.64,.87Z"/><path d="M127.8,1072.91h-1.14v-5.01c0-1.21-.22-1.82-.67-1.82-.23,0-.48,.21-.76,.63-.28,.42-.41,.65-.41,.69v5.51h-1.14v-5.01c0-1.21-.23-1.82-.68-1.82-.22,0-.48,.21-.75,.63-.28,.42-.41,.65-.41,.69v5.51h-1.14v-7.63h1.1v1.15c.21-.4,.47-.73,.77-.97,.3-.24,.59-.36,.88-.36,.31,0,.58,.12,.83,.36,.24,.24,.41,.57,.51,.97,.21-.4,.47-.73,.77-.97,.3-.24,.59-.36,.88-.36,.92,0,1.38,.83,1.38,2.47v5.34Z"/><path d="M32.6,1092.53h-1.27v2.39h-1.2v-2.39h-4.5v-.92l4.08-7.03h1.62v6.9h1.27v1.05Zm-2.48-1.05v-5.71l-3.28,5.71h3.28Z"/><path d="M58.26,1084.58h2.04c1.35,0,2.44,.46,3.25,1.38,.82,.92,1.22,2.18,1.22,3.79s-.41,2.91-1.24,3.81c-.83,.9-1.89,1.35-3.18,1.35h-2.09v-10.33Zm1.2,9.29h.85c.98,0,1.76-.36,2.33-1.09s.86-1.74,.86-3.03-.29-2.29-.86-3.02c-.57-.74-1.35-1.1-2.33-1.1h-.85v8.24Z"/><path d="M73.42,1091.13h-5.24c0,.86,.25,1.58,.75,2.14,.5,.56,1.11,.84,1.84,.84s1.41-.12,2.15-.37l.2,.92c-.67,.3-1.46,.45-2.36,.45-1.13,0-2.05-.36-2.74-1.09s-1.04-1.71-1.04-2.94,.31-2.18,.93-2.9c.62-.72,1.43-1.08,2.41-1.08,.88,0,1.61,.33,2.2,1s.89,1.56,.89,2.67v.36Zm-1.25-.93c0-.6-.19-1.1-.56-1.51-.37-.41-.79-.61-1.25-.61-.59,0-1.08,.2-1.47,.59-.39,.39-.6,.9-.65,1.53h3.92Z"/><path d="M82.16,1094.66c-.66,.3-1.39,.45-2.19,.45-1.2,0-2.16-.36-2.87-1.09-.72-.73-1.07-1.7-1.07-2.91s.36-2.18,1.08-2.91c.72-.73,1.67-1.09,2.84-1.09,.77,0,1.5,.13,2.19,.4l-.3,.95c-.69-.24-1.32-.36-1.88-.36-.84,0-1.51,.27-2,.81-.49,.54-.74,1.28-.74,2.21,0,.85,.25,1.56,.76,2.14,.51,.58,1.17,.87,1.98,.87,.64,0,1.31-.12,1.99-.37l.2,.92Z"/><path d="M91.94,1094.91h-1.5l-3.24-3.79-.75,.64v3.15h-1.14v-10.33h1.14v5.92l3.58-3.22h1.46l-3.48,3.12,3.93,4.51Z"/></g></g></svg>