<?xml version="1.0" encoding="utf-8"?>
<!-- Generator: Adobe Illustrator 26.0.2, SVG Export Plug-In . SVG Version: 6.00 Build 0)  -->
<svg version="1.1" id="Layer_1" xmlns="http://www.w3.org/2000/svg" xmlns:xlink="http://www.w3.org/1999/xlink" x="0px" y="0px"
	 viewBox="0 0 1000 300" style="enable-background:new 0 0 1000 300;" xml:space="preserve">
<style type="text/css">
	.st0{clip-path:url(#SVGID_00000104699271791461027730000011755337454002427306_);}
</style>
<rect x="381.9" y="22.8" width="35.3" height="250.6"/>
<g>
	<defs>
		<rect id="SVGID_1_" width="1000" height="300"/>
	</defs>
	<clipPath id="SVGID_00000088828047275363746820000011008843800084182421_">
		<use xlink:href="#SVGID_1_"  style="overflow:visible;"/>
	</clipPath>
	<path style="clip-path:url(#SVGID_00000088828047275363746820000011008843800084182421_);" d="M696.8,205.4
		c0,10.1,0.7,29.9,12.7,45.8c17.6,22.9,47.3,26,60.7,26c42,0,79-25,79-71.2V22.8h-35.3v173.9c0,7.6,0,23.6-6,33.7
		c-7.4,11.8-20.8,17.7-35.3,17.7c-18,0-28.6-8.7-32.8-15.3c-5.3-8-5.3-18.7-5.6-27.4H696.8z"/>
</g>
<rect x="479.6" y="113.4" width="254.6" height="34.7"/>
<rect x="928.7" y="22.8" width="35.3" height="250.6"/>
<polygon points="36,273.4 70.2,273.4 70.2,49.2 150.6,273.4 184.1,273.4 267.7,47.8 267.7,273.4 302.2,273.4 302.2,22.8 244.1,22.8 
	170.4,229.3 98.4,22.8 36,22.8 "/>
</svg>
