<?xml version="1.0" encoding="UTF-8"?>
<svg id="Layer_1" xmlns="http://www.w3.org/2000/svg" version="1.1" viewBox="0 0 800 1120">
  <!-- Generator: Adobe Illustrator 29.3.0, SVG Export Plug-In . SVG Version: 2.1.0 Build 146)  -->
  <defs>
    <style>
      .st0 {
        stroke-width: .8px;
      }

      .st0, .st1, .st2, .st3, .st4, .st5, .st6, .st7, .st8, .st9, .st10, .st11, .st12, .st13, .st14, .st15, .st16, .st17, .st18, .st19, .st20, .st21, .st22, .st23, .st24, .st25, .st26, .st27 {
        fill: none;
        stroke-linecap: round;
        stroke-linejoin: round;
      }

      .st0, .st1, .st4, .st5, .st16, .st17 {
        stroke: #231f20;
      }

      .st1 {
        stroke-width: 1.2px;
      }

      .st2 {
        stroke-dasharray: 2.1 2.1;
      }

      .st2, .st3, .st6, .st7, .st8, .st9, .st10, .st11, .st12, .st14, .st15, .st18, .st19, .st20, .st21, .st22, .st23, .st24, .st25, .st26, .st27 {
        stroke: #ff5000;
      }

      .st2, .st8, .st9, .st10, .st12, .st18, .st19, .st20, .st21, .st23, .st24, .st25, .st27 {
        stroke-width: .9px;
      }

      .st3 {
        stroke-dasharray: 1.9 1.9;
      }

      .st3, .st4, .st6, .st7, .st11, .st14, .st22, .st26 {
        stroke-width: .4px;
      }

      .st28, .st29 {
        font-family: AndaleMono, 'Andale Mono';
        font-size: 15px;
      }

      .st28, .st29, .st30 {
        isolation: isolate;
      }

      .st5, .st15 {
        stroke-width: .3px;
      }

      .st29 {
        fill: #ff5000;
      }

      .st6 {
        stroke-dasharray: 2.4 2.4;
      }

      .st7, .st9 {
        stroke-dasharray: 2.8 2.8;
      }

      .st8 {
        stroke-dasharray: 2.5 2.5;
      }

      .st10 {
        stroke-dasharray: 3.3 3.3;
      }

      .st11 {
        stroke-dasharray: 3.2 3.2;
      }

      .st12, .st15 {
        stroke-dasharray: 2.8;
      }

      .st13 {
        stroke: #696969;
      }

      .st13, .st17 {
        stroke-width: .2px;
      }

      .st14, .st18 {
        stroke-dasharray: 1.8 1.8;
      }

      .st16 {
        stroke-width: .2px;
      }

      .st16, .st17 {
        stroke-dasharray: 2.8 2.8 2.8 2.8 2.8 2.8;
      }

      .st20 {
        stroke-dasharray: 1.6 1.6;
      }

      .st21 {
        stroke-dasharray: 2.5;
      }

      .st23 {
        stroke-dasharray: 1.4 1.4;
      }

      .st24 {
        stroke-dasharray: 2.9 2.9;
      }

      .st25, .st26 {
        stroke-dasharray: 3.1 3.1;
      }

      .st27 {
        stroke-dasharray: 1.7 1.7;
      }
    </style>
  </defs>
  <g id="_0-PLAN-ABOVE">
    <polyline class="st17" points="457.7 805.1 434.4 828.9 397.1 828.7 374.2 805.1"/>
    <line class="st17" x1="446.4" y1="798.5" x2="384.7" y2="798.5"/>
  </g>
  <g id="_0-Demolition">
    <g>
      <line class="st22" x1="361.7" y1="524.4" x2="361.7" y2="523"/>
      <line class="st6" x1="361.8" y1="520.6" x2="361.8" y2="512.1"/>
      <polyline class="st22" points="361.8 510.9 361.8 509.5 363.2 509.5"/>
      <line class="st3" x1="365.1" y1="509.5" x2="368" y2="509.6"/>
      <polyline class="st22" points="368.9 509.6 370.3 509.6 370.3 511"/>
      <line class="st14" x1="370.3" y1="512.8" x2="370.3" y2="515.6"/>
      <polyline class="st22" points="370.3 516.5 370.3 517.9 371.7 517.9"/>
      <line class="st3" x1="373.6" y1="517.9" x2="376.4" y2="517.9"/>
      <polyline class="st22" points="377.3 517.9 378.7 517.9 378.7 519.3"/>
      <line class="st22" x1="378.7" y1="523" x2="378.7" y2="524.4"/>
    </g>
    <g>
      <polyline class="st22" points="378.7 525.9 378.7 524.4 377.3 524.4"/>
      <line class="st7" x1="374.5" y1="524.4" x2="364.6" y2="524.4"/>
      <polyline class="st22" points="363.2 524.4 361.7 524.4 361.7 525.8"/>
      <line class="st26" x1="361.7" y1="528.9" x2="361.6" y2="552.1"/>
      <polyline class="st22" points="361.6 553.6 361.5 555.1 363 555.1"/>
      <line class="st7" x1="365.8" y1="555.1" x2="375.7" y2="555.1"/>
      <polyline class="st22" points="377.1 555.1 378.6 555.1 378.6 553.6"/>
      <line class="st26" x1="378.6" y1="550.6" x2="378.7" y2="527.4"/>
    </g>
    <g>
      <line class="st19" x1="342.4" y1="752.3" x2="342.4" y2="750.9"/>
      <line class="st25" x1="342.4" y1="747.8" x2="342.4" y2="724.9"/>
      <polyline class="st19" points="342.4 723.4 342.4 722 341 722"/>
      <polyline class="st19" points="339.9 722 338.5 722 338.5 723.4"/>
      <line class="st25" x1="338.5" y1="726.4" x2="338.5" y2="749.4"/>
      <line class="st19" x1="338.5" y1="750.9" x2="338.5" y2="752.3"/>
    </g>
    <g>
      <line class="st22" x1="309.4" y1="612.9" x2="310.8" y2="612.9"/>
      <line class="st11" x1="314" y1="612.9" x2="325.3" y2="613"/>
      <line class="st22" x1="326.9" y1="613" x2="328.3" y2="613"/>
    </g>
    <line class="st15" x1="445.9" y1="618.3" x2="445.9" y2="592.2"/>
    <line class="st12" x1="356.1" y1="672.3" x2="356.1" y2="686.9"/>
    <line class="st12" x1="359.2" y1="672.3" x2="356.1" y2="672.3"/>
    <line class="st12" x1="359.2" y1="686.9" x2="359.2" y2="672.3"/>
    <g>
      <polyline class="st19" points="453.9 636.2 453.9 637.6 452.5 637.6"/>
      <line class="st18" x1="450.7" y1="637.6" x2="448.1" y2="637.6"/>
      <polyline class="st19" points="447.2 637.6 445.8 637.6 445.8 636.2"/>
      <line class="st10" x1="445.8" y1="632.9" x2="445.8" y2="621.4"/>
      <polyline class="st19" points="445.9 619.7 445.9 618.3 447.3 618.3"/>
      <line class="st23" x1="448.7" y1="618.3" x2="450.8" y2="618.3"/>
      <polyline class="st19" points="451.5 618.3 452.9 618.3 452.9 619.7"/>
      <line class="st8" x1="452.9" y1="622.2" x2="452.9" y2="625.9"/>
      <polyline class="st19" points="452.9 627.2 452.9 628.6 453.9 628.6 453.9 630"/>
      <line class="st2" x1="453.9" y1="632.1" x2="453.9" y2="635.2"/>
    </g>
    <line class="st21" x1="311.3" y1="690.9" x2="308.8" y2="690.9"/>
    <g>
      <line class="st22" x1="328.4" y1="596.1" x2="327" y2="596.1"/>
      <line class="st11" x1="323.8" y1="596" x2="312.6" y2="595.9"/>
      <line class="st22" x1="311" y1="595.9" x2="309.5" y2="595.9"/>
    </g>
    <g>
      <line class="st19" x1="378.3" y1="584.3" x2="376.9" y2="584.3"/>
      <line class="st10" x1="373.7" y1="584.3" x2="362.2" y2="584.3"/>
      <polyline class="st19" points="360.6 584.3 359.2 584.3 359.2 585.7"/>
      <line class="st24" x1="359.2" y1="588.6" x2="359.2" y2="644.3"/>
      <polyline class="st19" points="359.2 645.7 359.2 647.1 357.8 647.1"/>
      <polyline class="st19" points="357.5 647.1 356.1 647.1 356.1 645.7"/>
      <line class="st9" x1="356.1" y1="642.9" x2="356.1" y2="582.3"/>
      <polyline class="st19" points="356.1 580.9 356.1 579.5 357.5 579.5"/>
      <line class="st9" x1="360.3" y1="579.5" x2="375.6" y2="579.5"/>
      <line class="st19" x1="377" y1="579.5" x2="378.4" y2="579.5"/>
    </g>
    <line class="st15" x1="452.9" y1="618.3" x2="453" y2="592.2"/>
    <line class="st15" x1="474.8" y1="628.5" x2="453.9" y2="628.6"/>
    <line class="st15" x1="474.8" y1="637.7" x2="453.9" y2="637.6"/>
    <g>
      <line class="st22" x1="328.5" y1="579.1" x2="327.1" y2="579.1"/>
      <line class="st11" x1="323.9" y1="579" x2="312.7" y2="578.9"/>
      <line class="st22" x1="311.1" y1="578.9" x2="309.7" y2="578.9"/>
    </g>
    <g>
      <line class="st22" x1="328.6" y1="562.1" x2="327.2" y2="562"/>
      <line class="st11" x1="324" y1="562" x2="312.8" y2="561.9"/>
      <line class="st22" x1="311.2" y1="561.9" x2="309.8" y2="561.9"/>
    </g>
    <g>
      <line class="st22" x1="328.7" y1="545.1" x2="327.3" y2="545"/>
      <line class="st11" x1="324.1" y1="545" x2="312.9" y2="544.9"/>
      <line class="st22" x1="311.3" y1="544.9" x2="309.9" y2="544.9"/>
    </g>
    <g>
      <line class="st22" x1="328.8" y1="527.9" x2="328.8" y2="529.3"/>
      <line class="st7" x1="328.8" y1="532.2" x2="328.3" y2="610.2"/>
      <line class="st22" x1="328.3" y1="611.6" x2="328.3" y2="613"/>
    </g>
    <g>
      <polyline class="st19" points="308.8 686.9 311.3 686.9 311.3 688.3"/>
      <line class="st19" x1="311.3" y1="689.5" x2="311.3" y2="690.9"/>
    </g>
    <g>
      <polyline class="st19" points="344.5 691.6 342.4 691.6 342.4 693"/>
      <polyline class="st19" points="342.4 695.4 342.4 696.8 341 696.8"/>
      <polyline class="st19" points="339.9 696.8 338.5 696.8 338.5 695.4"/>
      <polyline class="st19" points="338.5 692.3 338.5 690.9 337 690.9 337 689.5"/>
      <polyline class="st19" points="337 688.3 337 686.9 338.5 686.9"/>
      <line class="st20" x1="340" y1="686.9" x2="342.3" y2="686.9"/>
      <line class="st19" x1="343.1" y1="686.9" x2="344.5" y2="686.9"/>
    </g>
    <g>
      <line class="st19" x1="453.1" y1="584.3" x2="453.1" y2="585.7"/>
      <line class="st27" x1="453.1" y1="587.4" x2="453.1" y2="590"/>
      <polyline class="st19" points="453.1 590.8 453.1 592.2 453 592.2 451.7 592.2"/>
      <line class="st23" x1="450.2" y1="592.2" x2="448.1" y2="592.2"/>
      <polyline class="st19" points="447.4 592.2 445.9 592.2 446 590.8"/>
      <line class="st27" x1="446" y1="589.1" x2="446" y2="586.6"/>
      <line class="st19" x1="446" y1="585.7" x2="446" y2="584.3"/>
    </g>
    <rect class="st19" x="310" y="527.8" width="2.5" height="2.5"/>
  </g>
  <g id="_0-00-Title">
    <polygon class="st4" points="485 165 481.8 628.5 481.7 805.3 478.5 886.7 300.4 886.9 304.5 805.4 305.1 758.8 307.3 440.7 341.2 440.9 341.5 381.5 275.8 381.1 276.1 317.9 308 318.1 308.3 264.6 308.1 165.2 485 165"/>
    <line class="st4" x1="308.1" y1="165.2" x2="485" y2="165"/>
  </g>
  <g id="Window_Door_Stairs">
    <line class="st5" x1="370.3" y1="509.6" x2="472" y2="510.7"/>
    <line class="st5" x1="432.2" y1="555.6" x2="383.7" y2="555.1"/>
    <rect class="st5" x="386.8" y="511.9" width="14.2" height="13.8"/>
    <line class="st5" x1="297.7" y1="321.9" x2="297.7" y2="339.5"/>
    <line class="st5" x1="337.3" y1="314.2" x2="337.4" y2="293.8"/>
    <line class="st5" x1="344.5" y1="314.2" x2="344.6" y2="293.8"/>
    <line class="st5" x1="470.7" y1="532.8" x2="453.2" y2="532.2"/>
    <line class="st5" x1="470.7" y1="527.7" x2="453.2" y2="527.5"/>
    <line class="st5" x1="453.2" y1="560" x2="453.2" y2="539"/>
    <polyline class="st5" points="443.2 801.8 429.3 816.1 402.8 816.1 388 801.7"/>
    <polyline class="st5" points="446.6 805.1 431.3 820.9 400.9 820.9 384.6 805.2"/>
    <line class="st5" x1="446.1" y1="560" x2="446.1" y2="539"/>
    <line class="st5" x1="347.3" y1="323" x2="467" y2="324.1"/>
    <line class="st5" x1="347.3" y1="319.4" x2="467" y2="320.5"/>
    <polyline class="st5" points="347.1 363.5 358.1 363.5 358.1 406 346.8 406"/>
    <line class="st5" x1="346.6" y1="437.5" x2="349.5" y2="437.5"/>
    <line class="st5" x1="349.5" y1="437.5" x2="349.6" y2="409.1"/>
    <line class="st5" x1="346.8" y1="409.1" x2="349.6" y2="409.1"/>
    <line class="st5" x1="432.2" y1="579.5" x2="432.2" y2="533.8"/>
    <line class="st5" x1="307.7" y1="805.5" x2="343.7" y2="805.1"/>
    <polyline class="st5" points="344.7 284 472.5 285.1 472.2 320.6"/>
    <polyline class="st5" points="344.8 264.9 374.7 265.1 374.6 284.2"/>
    <line class="st5" x1="344.7" y1="274.5" x2="374.6" y2="274.7"/>
    <polyline class="st5" points="392.6 677 392.6 675.6 375.9 675.6 375.9 677"/>
    <polyline class="st5" points="395.9 677 395.9 674.2 372.6 674.2 372.6 677"/>
    <line class="st5" x1="328.8" y1="527.8" x2="361.4" y2="528.3"/>
  </g>
  <g id="Accessory">
    <line class="st4" x1="297.7" y1="339.5" x2="297.7" y2="378"/>
    <line class="st4" x1="279.9" y1="339.5" x2="297.7" y2="339.5"/>
    <line class="st4" x1="328.8" y1="527.9" x2="329.4" y2="448.5"/>
    <line class="st4" x1="328.8" y1="527.9" x2="310" y2="527.7"/>
  </g>
  <g id="Windows_Site">
    <rect class="st16" x="404.6" y="383.3" width="112.7" height="5.2" transform="translate(71 843.5) rotate(-89.5)"/>
    <rect class="st16" x="422.9" y="483" width="74.5" height="5.2" transform="translate(-29.4 941.5) rotate(-89.5)"/>
    <polyline class="st17" points="459.2 320.5 460 233.3 332.5 233 332.2 264.8"/>
    <polyline class="st17" points="357.9 319.5 357.9 252.6 308.3 252.1"/>
    <line class="st17" x1="303.8" y1="818.4" x2="481.2" y2="818.6"/>
  </g>
  <g id="Wall">
    <line class="st1" x1="446" y1="579.5" x2="378.4" y2="579.5"/>
    <line class="st1" x1="378.4" y1="579.5" x2="378.4" y2="584.3"/>
    <polyline class="st1" points="344.9 686.9 362.3 686.9 362.3 677 375.9 677 375.9 685.6 392.6 685.6 392.6 677 406.2 677 406.2 686.9 478.8 686.9 478.9 637.7 474.8 637.7 474.8 628.5 481.8 628.5"/>
    <polyline class="st1" points="337.4 752.3 337.4 758.8 343.9 758.8 343.7 805.1 384.5 805.3 388 801.7 384.7 798.5 351 798.5"/>
    <polyline class="st1" points="351 798.5 351 753.4 342.4 753.4 342.4 752.3"/>
    <line class="st1" x1="342.4" y1="752.3" x2="337.4" y2="752.3"/>
    <line class="st1" x1="310.5" y1="752.3" x2="308.5" y2="752.3"/>
    <line class="st1" x1="308.4" y1="752.3" x2="308.8" y2="690.9"/>
    <polyline class="st1" points="308.8 690.9 310.5 448.4 346.6 448.6 346.6 437.5 344.3 437.5 344.5 409.1 346.8 409.1 347.1 352.2 337.1 352.2 336.9 378.2 279.6 377.9 280 321.8 312.6 322 312.6 315.6 310.6 315.6 310.9 271.5 337.6 271.7 337.4 293.8 344.6 293.8 344.8 264.9 308.3 264.6"/>
    <polyline class="st1" points="344.9 691.6 478.8 691.6 478.7 798.5 446.4 798.5 443.2 801.8 446.6 805.1 481.7 805.2"/>
    <polyline class="st1" points="310.5 752.3 310.5 758.7 308.4 758.7"/>
    <polyline class="st1" points="308.4 758.7 307.7 805.5 304.5 805.4"/>
    <polygon class="st1" points="467 320.5 467 329.7 473.4 329.7 471.9 527.7 470.7 527.7 470.7 532.8 482.7 533.2 484.4 320.7 467 320.5"/>
    <polyline class="st1" points="446 579.5 446.1 560 453.2 560 453.1 584.3"/>
    <polygon class="st1" points="453.3 527.5 453.2 539 446.1 539 446.2 534 384 533.3 383.7 555.1 378.6 555.1 378.7 524.4 385.4 524.5 385.4 526.7 453.3 527.5"/>
    <line class="st1" x1="378.4" y1="584.3" x2="453.1" y2="584.3"/>
    <polygon class="st1" points="347.3 327.5 334.4 327.4 334.5 315.8 337.3 315.8 337.3 314.2 344.5 314.2 344.5 319.4 347.3 319.4 347.3 327.5"/>
    <line class="st1" x1="344.9" y1="691.6" x2="344.9" y2="686.9"/>
    <rect class="st1" x="456.3" y="264.9" width="2.3" height="2.3" transform="translate(187.4 721.2) rotate(-89.5)"/>
    <rect class="st1" x="334" y="248.8" width="2.3" height="2.3" transform="translate(82.3 582.9) rotate(-89.5)"/>
  </g>
  <g id="TEXT">
    <circle class="st0" cx="765.5" cy="1024" r="11.4"/>
    <line class="st0" x1="777" y1="1024" x2="765.5" y2="1024"/>
    <g class="st30">
      <g class="st30">
        <text class="st28" transform="translate(24.7 1028.9)"><tspan x="0" y="0">1</tspan></text>
      </g>
      <g class="st30">
        <text class="st28" transform="translate(56.7 1028.9)"><tspan x="0" y="0">Bed</tspan></text>
      </g>
      <g class="st30">
        <text class="st28" transform="translate(24.7 1050.9)"><tspan x="0" y="0">2</tspan></text>
      </g>
      <g class="st30">
        <text class="st28" transform="translate(56.7 1050.9)"><tspan x="0" y="0">Living</tspan></text>
      </g>
      <g class="st30">
        <text class="st28" transform="translate(24.7 1072.9)"><tspan x="0" y="0">3</tspan></text>
      </g>
      <g class="st30">
        <text class="st28" transform="translate(56.7 1072.9)"><tspan x="0" y="0">Kitchen</tspan></text>
      </g>
      <g class="st30">
        <text class="st28" transform="translate(24.7 1094.9)"><tspan x="0" y="0">4</tspan></text>
      </g>
      <g class="st30">
        <text class="st28" transform="translate(56.7 1094.9)"><tspan x="0" y="0">Bath</tspan></text>
      </g>
    </g>
    <g class="st30">
      <g class="st30">
        <text class="st28" transform="translate(197.3 1028.9)"><tspan x="0" y="0">5</tspan></text>
      </g>
      <g class="st30">
        <text class="st28" transform="translate(229.3 1028.9)"><tspan x="0" y="0">WC</tspan></text>
      </g>
      <g class="st30">
        <text class="st28" transform="translate(197.3 1050.9)"><tspan x="0" y="0">6</tspan></text>
      </g>
      <g class="st30">
        <text class="st28" transform="translate(229.3 1050.9)"><tspan x="0" y="0">Laundry</tspan></text>
      </g>
      <g class="st30">
        <text class="st28" transform="translate(197.3 1072.9)"><tspan x="0" y="0">7</tspan></text>
      </g>
      <g class="st30">
        <text class="st28" transform="translate(229.3 1072.9)"><tspan x="0" y="0">Sitting Room</tspan></text>
      </g>
      <g class="st30">
        <text class="st28" transform="translate(197.3 1094.9)"><tspan x="0" y="0">8</tspan></text>
      </g>
      <g class="st30">
        <text class="st28" transform="translate(229.3 1094.9)"><tspan x="0" y="0">Roof Garden</tspan></text>
      </g>
    </g>
    <g class="st30">
      <g class="st30">
        <text class="st28" transform="translate(404.7 381.2)"><tspan x="0" y="0">2</tspan></text>
      </g>
    </g>
    <g class="st30">
      <g class="st30">
        <text class="st28" transform="translate(404.7 483.2)"><tspan x="0" y="0">3</tspan></text>
      </g>
    </g>
    <g class="st30">
      <g class="st30">
        <text class="st28" transform="translate(404.7 571.4)"><tspan x="0" y="0">4</tspan></text>
      </g>
    </g>
    <g class="st30">
      <g class="st30">
        <text class="st28" transform="translate(320.4 300.9)"><tspan x="0" y="0">5</tspan></text>
      </g>
    </g>
    <g class="st30">
      <g class="st30">
        <text class="st28" transform="translate(313.5 354.4)"><tspan x="0" y="0">6</tspan></text>
      </g>
    </g>
    <g class="st30">
      <g class="st30">
        <text class="st29" transform="translate(402.7 636.7)"><tspan x="0" y="0">1</tspan></text>
      </g>
    </g>
    <g class="st30">
      <g class="st30">
        <text class="st29" transform="translate(414.6 754.7)"><tspan x="0" y="0">1</tspan></text>
      </g>
    </g>
  </g>
  <g id="Trees-2">
    <path class="st13" d="M388,801.7h0c.3-.3.6-.4,1-.4s.7,0,1,.4c4.5,4.3,9,8.7,13.4,13h25.3c4.2-4.3,8.3-8.6,12.5-12.8s.6-.4,1-.4.7,0,1,.4"/>
    <polyline class="st13" points="448.9 805.2 431.8 822.6 400 822.6 382.1 805.3"/>
    <line class="st13" x1="310.5" y1="752.3" x2="337.4" y2="752.3"/>
    <line class="st13" x1="310.5" y1="758.7" x2="337.4" y2="758.8"/>
  </g>
</svg>