<?xml version="1.0" encoding="UTF-8"?><svg xmlns="http://www.w3.org/2000/svg" viewBox="0 0 800 1120"><defs><style>.cls-1{stroke-width:.75px;}.cls-1,.cls-2,.cls-3,.cls-4{fill:none;stroke:#231f20;stroke-linecap:round;stroke-linejoin:round;}.cls-2{stroke-width:1.2px;}.cls-3{stroke-width:.24px;}.cls-4{stroke-width:.36px;}</style></defs><g id="Wall"><line class="cls-2" x1="412.96" y1="331.47" x2="409.2" y2="331.47"/><path class="cls-2" d="M304.97,504.17c1.74,.47,3.52,.82,5.31,1.03"/><polyline class="cls-2" points="376.14 145.65 388.85 145.65 388.85 149.41 376.14 149.41 376.14 205.45 390.73 205.45 409.2 205.45"/><line class="cls-2" x1="259.54" y1="91.18" x2="253.59" y2="91.18"/><line class="cls-2" x1="546.33" y1="91.18" x2="540.39" y2="91.18"/><line class="cls-2" x1="359.15" y1="664.27" x2="407.94" y2="680.33"/><line class="cls-2" x1="381.72" y1="856.14" x2="376.49" y2="872.05"/><line class="cls-2" x1="407.94" y1="680.33" x2="410.59" y2="672.3"/><line class="cls-2" x1="410.59" y1="672.3" x2="367.76" y2="658.21"/><line class="cls-2" x1="329.8" y1="883.7" x2="258.58" y2="860.25"/><line class="cls-2" x1="253.67" y1="864.59" x2="328.04" y2="889.05"/><line class="cls-2" x1="307.71" y1="760.08" x2="312.4" y2="745.81"/><rect class="cls-2" x="416.81" y="858.31" width="5.63" height="115.84" transform="translate(-581.87 1028.36) rotate(-71.78)"/><rect class="cls-2" x="298.68" y="91.18" width="82.59" height="5.95"/><line class="cls-2" x1="418.65" y1="97.12" x2="418.65" y2="91.18"/><path class="cls-2" d="M359.15,664.27c31.63-93.97,48.82-192.19,50.99-291.31"/><line class="cls-2" x1="376.49" y1="872.05" x2="373.22" y2="870.97"/><path class="cls-2" d="M367.76,658.21c29.35-89.31,45.68-182.39,48.49-276.35"/><line class="cls-2" x1="375.7" y1="379.22" x2="375.7" y2="372.96"/><line class="cls-2" x1="310.2" y1="764.52" x2="315.97" y2="746.98"/><line class="cls-2" x1="315.97" y1="746.98" x2="376.71" y2="766.72"/><line class="cls-2" x1="293.55" y1="735.98" x2="381.13" y2="764.8"/><line class="cls-2" x1="412.96" y1="331.47" x2="412.96" y2="138.92"/><line class="cls-2" x1="409.2" y1="138.92" x2="412.96" y2="138.92"/><polyline class="cls-2" points="258.58 860.25 292.05 758.55 310.2 764.52"/><line class="cls-2" x1="416.25" y1="372.96" x2="416.25" y2="381.85"/><polyline class="cls-2" points="253.67 864.59 287.78 753.52 307.71 760.08"/><polyline class="cls-2" points="312.4 745.81 292.53 739.27 293.55 735.98"/><line class="cls-2" x1="540.39" y1="379.22" x2="546.33" y2="379.22"/><line class="cls-2" x1="546.33" y1="379.22" x2="546.33" y2="91.18"/><line class="cls-2" x1="540.39" y1="379.22" x2="540.39" y2="91.18"/><line class="cls-2" x1="328.04" y1="889.05" x2="329.8" y2="883.7"/><polyline class="cls-2" points="381.72 856.14 488.79 891.38 489.86 888.1 382.8 852.87 401.94 794.72 428.7 803.53 422.83 821.38 473.39 838.02 480.34 816.9 477.07 815.83 471.19 833.67 427.18 819.18 433.05 801.34 399.74 790.38 373.22 870.97"/><polyline class="cls-2" points="407.77 765.99 435.87 680.63 546.2 716.95 521.82 791 516.47 789.24 539.08 720.54 437.37 687.06"/><rect class="cls-2" x="492.81" y="833.55" width="22.24" height="5.64" transform="translate(-448.07 1053.55) rotate(-71.78)"/><line class="cls-2" x1="416.25" y1="372.96" x2="410.14" y2="372.96"/><path class="cls-2" d="M310.83,500.54c16.29,1.92,32.58,3.83,48.87,5.75,1.41-8.5,2.71-17.01,3.89-25.55,1.14,.13,2.28,.27,3.42,.4-2.25,16.27-4.92,32.48-8.02,48.62-2.17-.45-4.34-.9-6.51-1.35-.38-1.48-.88-2.92-1.5-4.32-.64-1.46-1.41-2.87-2.29-4.2-1.83-2.77-4.14-5.2-6.82-7.17-2.68-1.97-5.69-3.45-8.88-4.37-1.53-.44-3.1-.75-4.69-.93-1.52-.17-3.05-.21-4.57-.13-1.53,.08-3.04,.28-4.53,.61-1.56,.34-3.09,.81-4.57,1.41-3.08,1.25-5.92,3.03-8.38,5.26-2.46,2.23-4.51,4.89-6.05,7.84-.74,1.42-1.35,2.89-1.84,4.41-.47,1.45-.81,2.94-1.04,4.45-.23,1.51-.33,3.04-.31,4.56,.02,1.6,.18,3.19,.47,4.76,.61,3.27,1.79,6.4,3.49,9.26,1.7,2.86,3.89,5.39,6.48,7.48,1.24,1,2.56,1.9,3.96,2.68,1.33,.75,2.72,1.38,4.16,1.9,1.44,.52,2.91,.92,4.41,1.21,1.57,.3,3.16,.46,4.76,.48,3.32,.05,6.63-.48,9.77-1.58,3.14-1.1,6.06-2.75,8.62-4.86,1.23-1.02,2.37-2.14,3.42-3.34,1-1.16,1.9-2.39,2.69-3.7,1.79,.37,3.58,.75,5.37,1.12-.54,2.5-1.09,5-1.65,7.49-1.78-.41-3.56-.81-5.34-1.22-1.63,1.71-3.45,3.23-5.42,4.54-2.02,1.34-4.18,2.46-6.44,3.32-2.26,.86-4.62,1.46-7.02,1.8-2.34,.33-4.71,.39-7.06,.2-2.36-.19-4.68-.64-6.94-1.34-2.31-.72-4.54-1.69-6.64-2.9-2.1-1.21-4.05-2.66-5.82-4.31-1.73-1.61-3.28-3.4-4.61-5.35-1.34-1.95-2.46-4.04-3.34-6.23-.9-2.25-1.55-4.59-1.93-6.98s-.49-4.82-.33-7.24c.16-2.36,.58-4.69,1.24-6.96,.67-2.27,1.58-4.45,2.73-6.52,1.17-2.12,2.58-4.1,4.2-5.9,1.62-1.8,3.43-3.42,5.41-4.82,1.93-1.36,4-2.51,6.18-3.42l-1.55-.18c-3.54-.42-7.01-1.36-10.27-2.79,1.11-1.25,2.21-2.5,3.32-3.75,2.37,1.02,4.94,1.65,7.5,1.88Z"/><path class="cls-2" d="M367.92,444.21c-16.59-1.95-33.18-3.9-49.78-5.86-5.65-.66-11.38,.23-16.56,2.58-5.18,2.35-9.63,6.06-12.87,10.75-3.23,4.68-5.13,10.16-5.49,15.84-.36,5.68,.84,11.35,3.46,16.4-1.09,1.23-2.19,2.47-3.28,3.7-3.38-5.78-5.08-12.39-4.91-19.08,.17-6.69,2.2-13.21,5.86-18.81,3.67-5.6,8.82-10.07,14.89-12.91,6.07-2.83,12.8-3.92,19.45-3.14,17.7,2.08,35.4,4.16,53.1,6.25-.61,6.5-1.29,12.98-2.03,19.46-1.14-.13-2.28-.27-3.42-.4,.57-4.93,1.09-9.85,1.58-14.79Z"/><line class="cls-2" x1="437.37" y1="687.06" x2="411.04" y2="767.07"/><line class="cls-2" x1="399.74" y1="790.38" x2="403.01" y2="791.45"/><line class="cls-2" x1="376.71" y1="766.76" x2="370.92" y2="784.34"/><line class="cls-2" x1="370.92" y1="784.54" x2="374.28" y2="785.62"/><line class="cls-2" x1="375.7" y1="379.22" x2="253.59" y2="379.22"/><line class="cls-2" x1="375.7" y1="372.96" x2="259.54" y2="372.96"/><line class="cls-2" x1="374.31" y1="785.6" x2="381.11" y2="764.79"/><line class="cls-2" x1="253.59" y1="91.18" x2="253.59" y2="379.22"/><line class="cls-2" x1="259.54" y1="91.18" x2="259.54" y2="372.96"/><line class="cls-2" x1="409.2" y1="205.45" x2="409.2" y2="138.92"/><line class="cls-2" x1="376.64" y1="210.15" x2="409.2" y2="210.15"/><line class="cls-2" x1="376.64" y1="210.15" x2="376.64" y2="331.47"/><line class="cls-2" x1="376.64" y1="331.47" x2="371.94" y2="331.47"/><line class="cls-2" x1="376.14" y1="145.65" x2="376.16" y2="138.92"/><line class="cls-2" x1="376.16" y1="138.92" x2="371.94" y2="138.92"/><line class="cls-2" x1="371.94" y1="138.92" x2="371.94" y2="331.47"/><line class="cls-2" x1="409.2" y1="210.15" x2="409.2" y2="331.47"/><line class="cls-2" x1="502.81" y1="97.12" x2="502.81" y2="91.18"/><line class="cls-2" x1="502.81" y1="91.18" x2="418.65" y2="91.18"/><line class="cls-2" x1="502.81" y1="97.12" x2="418.65" y2="97.12"/><line class="cls-2" x1="411.04" y1="767.07" x2="407.77" y2="765.99"/><g><path class="cls-2" d="M250.15,187.67c-.2,0-.39,.04-.58,.11-.2,.08-.38,.2-.53,.35-.15,.15-.27,.33-.35,.53-.07,.18-.11,.38-.11,.58s.04,.39,.11,.58c.08,.2,.2,.38,.35,.53,.15,.15,.33,.27,.53,.35,.18,.07,.38,.11,.58,.11s.39-.04,.58-.11c.2-.08,.38-.2,.53-.35,.15-.15,.27-.33,.35-.53,.07-.18,.11-.38,.11-.58s-.04-.39-.11-.58c-.08-.2-.2-.38-.35-.53-.15-.15-.33-.27-.53-.35-.18-.07-.38-.11-.58-.11Z"/><path class="cls-2" d="M250.15,280.1c-.2,0-.39,.04-.58,.11-.2,.08-.38,.2-.53,.35s-.27,.33-.35,.53c-.07,.18-.11,.38-.11,.58s.04,.39,.11,.58c.08,.2,.2,.38,.35,.53s.33,.27,.53,.35c.18,.07,.38,.11,.58,.11s.39-.04,.58-.11c.2-.08,.38-.2,.53-.35s.27-.33,.35-.53c.07-.18,.11-.38,.11-.58s-.04-.39-.11-.58c-.08-.2-.2-.38-.35-.53s-.33-.27-.53-.35c-.18-.07-.38-.11-.58-.11Z"/><path class="cls-2" d="M250.15,326.31c-.2,0-.39,.04-.58,.11-.2,.08-.38,.2-.53,.35s-.27,.33-.35,.53c-.07,.18-.11,.38-.11,.58s.04,.39,.11,.58c.08,.2,.2,.38,.35,.53s.33,.27,.53,.35c.18,.07,.38,.11,.58,.11s.39-.04,.58-.11c.2-.08,.38-.2,.53-.35s.27-.33,.35-.53c.07-.18,.11-.38,.11-.58s-.04-.39-.11-.58c-.08-.2-.2-.38-.35-.53s-.33-.27-.53-.35c-.18-.07-.38-.11-.58-.11Z"/><path class="cls-2" d="M250.15,372.52c-.2,0-.39,.04-.58,.11-.2,.08-.38,.2-.53,.35-.15,.15-.27,.33-.35,.53-.07,.18-.11,.38-.11,.58s.04,.39,.11,.58c.08,.2,.2,.38,.35,.53,.15,.15,.33,.27,.53,.35,.18,.07,.38,.11,.58,.11s.39-.04,.58-.11c.2-.08,.38-.2,.53-.35,.15-.15,.27-.33,.35-.53,.07-.18,.11-.38,.11-.58s-.04-.39-.11-.58c-.08-.2-.2-.38-.35-.53-.15-.15-.33-.27-.53-.35-.18-.07-.38-.11-.58-.11Z"/><path class="cls-2" d="M250.15,416.04c-.2,0-.39,.04-.58,.11-.2,.08-.38,.2-.53,.35-.15,.15-.27,.33-.35,.53-.07,.18-.11,.38-.11,.58s.04,.39,.11,.58c.08,.2,.2,.38,.35,.53,.15,.15,.33,.27,.53,.35,.18,.07,.38,.11,.58,.11s.39-.04,.58-.11c.2-.08,.38-.2,.53-.35,.15-.15,.27-.33,.35-.53,.07-.18,.11-.38,.11-.58s-.04-.39-.11-.58c-.08-.2-.2-.38-.35-.53-.15-.15-.33-.27-.53-.35-.18-.07-.38-.11-.58-.11Z"/><path class="cls-2" d="M250.21,459.56c-.2,0-.39,.04-.58,.11-.2,.08-.38,.2-.53,.35s-.27,.33-.35,.53c-.07,.18-.11,.38-.11,.58s.04,.39,.11,.58c.08,.2,.2,.38,.35,.53s.33,.27,.53,.35c.18,.07,.38,.11,.58,.11s.39-.04,.58-.11c.2-.08,.38-.2,.53-.35s.27-.33,.35-.53c.07-.18,.11-.38,.11-.58s-.04-.39-.11-.58c-.08-.2-.2-.38-.35-.53s-.33-.27-.53-.35c-.18-.07-.38-.11-.58-.11Z"/><path class="cls-2" d="M251.6,503.08c-.2,0-.39,.04-.58,.11-.2,.08-.38,.2-.53,.35-.15,.15-.27,.33-.35,.53-.07,.18-.11,.38-.11,.58s.04,.39,.11,.58c.08,.2,.2,.38,.35,.53s.33,.27,.53,.35c.18,.07,.38,.11,.58,.11s.39-.04,.58-.11c.2-.08,.38-.2,.53-.35,.15-.15,.27-.33,.35-.53,.07-.18,.11-.38,.11-.58s-.04-.39-.11-.58c-.08-.2-.2-.38-.35-.53s-.33-.27-.53-.35c-.18-.07-.38-.11-.58-.11Z"/><path class="cls-2" d="M260.83,546.6c-.2,0-.39,.04-.58,.11-.2,.08-.38,.2-.53,.35-.15,.15-.27,.33-.35,.53-.07,.18-.11,.38-.11,.58s.04,.39,.11,.58c.08,.2,.2,.38,.35,.53s.33,.27,.53,.35c.18,.07,.38,.11,.58,.11s.39-.04,.58-.11c.2-.08,.38-.2,.53-.35s.27-.33,.35-.53c.07-.18,.11-.38,.11-.58s-.04-.39-.11-.58c-.08-.2-.2-.38-.35-.53-.15-.15-.33-.27-.53-.35-.18-.07-.38-.11-.58-.11Z"/><path class="cls-2" d="M277.48,590.12c-.2,0-.39,.04-.58,.11-.2,.08-.38,.2-.53,.35-.15,.15-.27,.33-.35,.53-.07,.18-.11,.38-.11,.58s.04,.39,.11,.58c.08,.2,.2,.38,.35,.53s.33,.27,.53,.35c.18,.07,.38,.11,.58,.11s.39-.04,.58-.11c.2-.08,.38-.2,.53-.35,.15-.15,.27-.33,.35-.53,.07-.18,.11-.38,.11-.58s-.04-.39-.11-.58c-.08-.2-.2-.38-.35-.53s-.33-.27-.53-.35c-.18-.07-.38-.11-.58-.11Z"/><path class="cls-2" d="M281.81,633.64c-.2,0-.39,.04-.58,.11-.2,.08-.38,.2-.53,.35-.15,.15-.27,.33-.35,.53-.07,.18-.11,.38-.11,.58s.04,.39,.11,.58c.08,.2,.2,.38,.35,.53,.15,.15,.33,.27,.53,.35,.18,.07,.38,.11,.58,.11s.39-.04,.58-.11c.2-.08,.38-.2,.53-.35,.15-.15,.27-.33,.35-.53,.07-.18,.11-.38,.11-.58s-.04-.39-.11-.58c-.08-.2-.2-.38-.35-.53-.15-.15-.33-.27-.53-.35-.18-.07-.38-.11-.58-.11Z"/><path class="cls-2" d="M267.38,677.16c-.2,0-.39,.04-.58,.11-.2,.08-.38,.2-.53,.35s-.27,.33-.35,.53c-.07,.18-.11,.38-.11,.58s.04,.39,.11,.58c.08,.2,.2,.38,.35,.53,.15,.15,.33,.27,.53,.35,.18,.07,.38,.11,.58,.11s.39-.04,.58-.11c.2-.08,.38-.2,.53-.35s.27-.33,.35-.53c.07-.18,.11-.38,.11-.58s-.04-.39-.11-.58c-.08-.2-.2-.38-.35-.53-.15-.15-.33-.27-.53-.35-.18-.07-.38-.11-.58-.11Z"/><path class="cls-2" d="M250.22,902.28c-.2,0-.39,.04-.58,.11-.2,.08-.38,.2-.53,.35-.15,.15-.27,.33-.35,.53-.07,.18-.11,.38-.11,.58s.04,.39,.11,.58c.08,.2,.2,.38,.35,.53,.15,.15,.33,.27,.53,.35,.18,.07,.38,.11,.58,.11s.39-.04,.58-.11c.2-.08,.38-.2,.53-.35,.15-.15,.27-.33,.35-.53,.07-.18,.11-.38,.11-.58s-.04-.39-.11-.58c-.08-.2-.2-.38-.35-.53-.15-.15-.33-.27-.53-.35-.18-.07-.38-.11-.58-.11Z"/><path class="cls-2" d="M250.22,856.88c-.2,0-.39,.04-.58,.11-.2,.08-.38,.2-.53,.35s-.27,.33-.35,.53c-.07,.18-.11,.38-.11,.58s.04,.39,.11,.58c.08,.2,.2,.38,.35,.53,.15,.15,.33,.27,.53,.35,.18,.07,.38,.11,.58,.11s.39-.04,.58-.11c.2-.08,.38-.2,.53-.35s.27-.33,.35-.53c.07-.18,.11-.38,.11-.58s-.04-.39-.11-.58c-.08-.2-.2-.38-.35-.53-.15-.15-.33-.27-.53-.35-.18-.07-.38-.11-.58-.11Z"/><path class="cls-2" d="M250.22,811.48c-.2,0-.39,.04-.58,.11-.2,.08-.38,.2-.53,.35-.15,.15-.27,.33-.35,.53-.07,.18-.11,.38-.11,.58s.04,.39,.11,.58c.08,.2,.2,.38,.35,.53s.33,.27,.53,.35c.18,.07,.38,.11,.58,.11s.39-.04,.58-.11c.2-.08,.38-.2,.53-.35,.15-.15,.27-.33,.35-.53,.07-.18,.11-.38,.11-.58s-.04-.39-.11-.58c-.08-.2-.2-.38-.35-.53s-.33-.27-.53-.35c-.18-.07-.38-.11-.58-.11Z"/><path class="cls-2" d="M250.22,766.08c-.2,0-.39,.04-.58,.11-.2,.08-.38,.2-.53,.35s-.27,.33-.35,.53c-.07,.18-.11,.38-.11,.58s.04,.39,.11,.58c.08,.2,.2,.38,.35,.53,.15,.15,.33,.27,.53,.35,.18,.07,.38,.11,.58,.11s.39-.04,.58-.11c.2-.08,.38-.2,.53-.35s.27-.33,.35-.53c.07-.18,.11-.38,.11-.58s-.04-.39-.11-.58c-.08-.2-.2-.38-.35-.53-.15-.15-.33-.27-.53-.35-.18-.07-.38-.11-.58-.11Z"/><path class="cls-2" d="M253.84,720.68c-.2,0-.39,.04-.58,.11-.2,.08-.38,.2-.53,.35s-.27,.33-.35,.53c-.07,.18-.11,.38-.11,.58s.04,.39,.11,.58c.08,.2,.2,.38,.35,.53,.15,.15,.33,.27,.53,.35,.18,.07,.38,.11,.58,.11s.39-.04,.58-.11c.2-.08,.38-.2,.53-.35s.27-.33,.35-.53c.07-.18,.11-.38,.11-.58s-.04-.39-.11-.58c-.08-.2-.2-.38-.35-.53-.15-.15-.33-.27-.53-.35-.18-.07-.38-.11-.58-.11Z"/><path class="cls-2" d="M549.78,95.25c-.2,0-.39,.04-.58,.11-.2,.08-.38,.2-.53,.35-.15,.15-.27,.33-.35,.53-.07,.18-.11,.38-.11,.58s.04,.39,.11,.58c.08,.2,.2,.38,.35,.53,.15,.15,.33,.27,.53,.35,.18,.07,.38,.11,.58,.11s.39-.04,.58-.11c.2-.08,.38-.2,.53-.35,.15-.15,.27-.33,.35-.53,.07-.18,.11-.38,.11-.58s-.04-.39-.11-.58c-.08-.2-.2-.38-.35-.53-.15-.15-.33-.27-.53-.35-.18-.07-.38-.11-.58-.11Z"/><path class="cls-2" d="M549.78,141.46c-.2,0-.39,.04-.58,.11-.2,.08-.38,.2-.53,.35s-.27,.33-.35,.53c-.07,.18-.11,.38-.11,.58s.04,.39,.11,.58c.08,.2,.2,.38,.35,.53s.33,.27,.53,.35c.18,.07,.38,.11,.58,.11s.39-.04,.58-.11c.2-.08,.38-.2,.53-.35s.27-.33,.35-.53c.07-.18,.11-.38,.11-.58s-.04-.39-.11-.58c-.08-.2-.2-.38-.35-.53s-.33-.27-.53-.35c-.18-.07-.38-.11-.58-.11Z"/><path class="cls-2" d="M549.78,187.67c-.2,0-.39,.04-.58,.11-.2,.08-.38,.2-.53,.35-.15,.15-.27,.33-.35,.53-.07,.18-.11,.38-.11,.58s.04,.39,.11,.58c.08,.2,.2,.38,.35,.53,.15,.15,.33,.27,.53,.35,.18,.07,.38,.11,.58,.11s.39-.04,.58-.11c.2-.08,.38-.2,.53-.35,.15-.15,.27-.33,.35-.53,.07-.18,.11-.38,.11-.58s-.04-.39-.11-.58c-.08-.2-.2-.38-.35-.53-.15-.15-.33-.27-.53-.35-.18-.07-.38-.11-.58-.11Z"/><path class="cls-2" d="M549.78,233.88c-.2,0-.39,.04-.58,.11-.2,.08-.38,.2-.53,.35-.15,.15-.27,.33-.35,.53-.07,.18-.11,.38-.11,.58s.04,.39,.11,.58c.08,.2,.2,.38,.35,.53,.15,.15,.33,.27,.53,.35,.18,.07,.38,.11,.58,.11s.39-.04,.58-.11c.2-.08,.38-.2,.53-.35,.15-.15,.27-.33,.35-.53,.07-.18,.11-.38,.11-.58s-.04-.39-.11-.58c-.08-.2-.2-.38-.35-.53-.15-.15-.33-.27-.53-.35-.18-.07-.38-.11-.58-.11Z"/><path class="cls-2" d="M549.78,280.1c-.2,0-.39,.04-.58,.11-.2,.08-.38,.2-.53,.35s-.27,.33-.35,.53c-.07,.18-.11,.38-.11,.58s.04,.39,.11,.58c.08,.2,.2,.38,.35,.53s.33,.27,.53,.35c.18,.07,.38,.11,.58,.11s.39-.04,.58-.11c.2-.08,.38-.2,.53-.35s.27-.33,.35-.53c.07-.18,.11-.38,.11-.58s-.04-.39-.11-.58c-.08-.2-.2-.38-.35-.53s-.33-.27-.53-.35c-.18-.07-.38-.11-.58-.11Z"/><path class="cls-2" d="M549.78,326.31c-.2,0-.39,.04-.58,.11-.2,.08-.38,.2-.53,.35s-.27,.33-.35,.53c-.07,.18-.11,.38-.11,.58s.04,.39,.11,.58c.08,.2,.2,.38,.35,.53s.33,.27,.53,.35c.18,.07,.38,.11,.58,.11s.39-.04,.58-.11c.2-.08,.38-.2,.53-.35s.27-.33,.35-.53c.07-.18,.11-.38,.11-.58s-.04-.39-.11-.58c-.08-.2-.2-.38-.35-.53s-.33-.27-.53-.35c-.18-.07-.38-.11-.58-.11Z"/><path class="cls-2" d="M549.78,372.52c-.2,0-.39,.04-.58,.11-.2,.08-.38,.2-.53,.35-.15,.15-.27,.33-.35,.53-.07,.18-.11,.38-.11,.58s.04,.39,.11,.58c.08,.2,.2,.38,.35,.53,.15,.15,.33,.27,.53,.35,.18,.07,.38,.11,.58,.11s.39-.04,.58-.11c.2-.08,.38-.2,.53-.35,.15-.15,.27-.33,.35-.53,.07-.18,.11-.38,.11-.58s-.04-.39-.11-.58c-.08-.2-.2-.38-.35-.53-.15-.15-.33-.27-.53-.35-.18-.07-.38-.11-.58-.11Z"/><path class="cls-2" d="M549.78,416.04c-.2,0-.39,.04-.58,.11-.2,.08-.38,.2-.53,.35-.15,.15-.27,.33-.35,.53-.07,.18-.11,.38-.11,.58s.04,.39,.11,.58c.08,.2,.2,.38,.35,.53,.15,.15,.33,.27,.53,.35,.18,.07,.38,.11,.58,.11s.39-.04,.58-.11c.2-.08,.38-.2,.53-.35,.15-.15,.27-.33,.35-.53,.07-.18,.11-.38,.11-.58s-.04-.39-.11-.58c-.08-.2-.2-.38-.35-.53-.15-.15-.33-.27-.53-.35-.18-.07-.38-.11-.58-.11Z"/><path class="cls-2" d="M549.78,459.56c-.2,0-.39,.04-.58,.11-.2,.08-.38,.2-.53,.35s-.27,.33-.35,.53c-.07,.18-.11,.38-.11,.58s.04,.39,.11,.58c.08,.2,.2,.38,.35,.53s.33,.27,.53,.35c.18,.07,.38,.11,.58,.11s.39-.04,.58-.11c.2-.08,.38-.2,.53-.35s.27-.33,.35-.53c.07-.18,.11-.38,.11-.58s-.04-.39-.11-.58c-.08-.2-.2-.38-.35-.53s-.33-.27-.53-.35c-.18-.07-.38-.11-.58-.11Z"/><path class="cls-2" d="M549.78,503.08c-.2,0-.39,.04-.58,.11-.2,.08-.38,.2-.53,.35-.15,.15-.27,.33-.35,.53-.07,.18-.11,.38-.11,.58s.04,.39,.11,.58c.08,.2,.2,.38,.35,.53s.33,.27,.53,.35c.18,.07,.38,.11,.58,.11s.39-.04,.58-.11c.2-.08,.38-.2,.53-.35,.15-.15,.27-.33,.35-.53,.07-.18,.11-.38,.11-.58s-.04-.39-.11-.58c-.08-.2-.2-.38-.35-.53s-.33-.27-.53-.35c-.18-.07-.38-.11-.58-.11Z"/><path class="cls-2" d="M549.78,546.6c-.2,0-.39,.04-.58,.11-.2,.08-.38,.2-.53,.35-.15,.15-.27,.33-.35,.53-.07,.18-.11,.38-.11,.58s.04,.39,.11,.58c.08,.2,.2,.38,.35,.53,.15,.15,.33,.27,.53,.35,.18,.07,.38,.11,.58,.11s.39-.04,.58-.11c.2-.08,.38-.2,.53-.35,.15-.15,.27-.33,.35-.53,.07-.18,.11-.38,.11-.58s-.04-.39-.11-.58c-.08-.2-.2-.38-.35-.53-.15-.15-.33-.27-.53-.35-.18-.07-.38-.11-.58-.11Z"/><path class="cls-2" d="M549.78,590.12c-.2,0-.39,.04-.58,.11-.2,.08-.38,.2-.53,.35-.15,.15-.27,.33-.35,.53-.07,.18-.11,.38-.11,.58s.04,.39,.11,.58c.08,.2,.2,.38,.35,.53,.15,.15,.33,.27,.53,.35,.18,.07,.38,.11,.58,.11s.39-.04,.58-.11c.2-.08,.38-.2,.53-.35,.15-.15,.27-.33,.35-.53,.07-.18,.11-.38,.11-.58s-.04-.39-.11-.58c-.08-.2-.2-.38-.35-.53-.15-.15-.33-.27-.53-.35-.18-.07-.38-.11-.58-.11Z"/><path class="cls-2" d="M549.78,633.64c-.2,0-.39,.04-.58,.11-.2,.08-.38,.2-.53,.35s-.27,.33-.35,.53c-.07,.18-.11,.38-.11,.58s.04,.39,.11,.58c.08,.2,.2,.38,.35,.53s.33,.27,.53,.35c.18,.07,.38,.11,.58,.11s.39-.04,.58-.11c.2-.08,.38-.2,.53-.35s.27-.33,.35-.53c.07-.18,.11-.38,.11-.58s-.04-.39-.11-.58c-.08-.2-.2-.38-.35-.53s-.33-.27-.53-.35c-.18-.07-.38-.11-.58-.11Z"/><path class="cls-2" d="M549.78,677.16c-.2,0-.39,.04-.58,.11-.2,.08-.38,.2-.53,.35-.15,.15-.27,.33-.35,.53-.07,.18-.11,.38-.11,.58s.04,.39,.11,.58c.08,.2,.2,.38,.35,.53s.33,.27,.53,.35c.18,.07,.38,.11,.58,.11s.39-.04,.58-.11c.2-.08,.38-.2,.53-.35,.15-.15,.27-.33,.35-.53,.07-.18,.11-.38,.11-.58s-.04-.39-.11-.58c-.08-.2-.2-.38-.35-.53s-.33-.27-.53-.35c-.18-.07-.38-.11-.58-.11Z"/><path class="cls-2" d="M549.78,902.28c-.2,0-.39,.04-.58,.11-.2,.08-.38,.2-.53,.35s-.27,.33-.35,.53c-.07,.18-.11,.38-.11,.58s.04,.39,.11,.58c.08,.2,.2,.38,.35,.53s.33,.27,.53,.35c.18,.07,.38,.11,.58,.11s.39-.04,.58-.11c.2-.08,.38-.2,.53-.35s.27-.33,.35-.53c.07-.18,.11-.38,.11-.58s-.04-.39-.11-.58c-.08-.2-.2-.38-.35-.53s-.33-.27-.53-.35c-.18-.07-.38-.11-.58-.11Z"/><path class="cls-2" d="M549.78,856.88c-.2,0-.39,.04-.58,.11-.2,.08-.38,.2-.53,.35-.15,.15-.27,.33-.35,.53-.07,.18-.11,.38-.11,.58s.04,.39,.11,.58c.08,.2,.2,.38,.35,.53,.15,.15,.33,.27,.53,.35,.18,.07,.38,.11,.58,.11s.39-.04,.58-.11c.2-.08,.38-.2,.53-.35,.15-.15,.27-.33,.35-.53,.07-.18,.11-.38,.11-.58s-.04-.39-.11-.58c-.08-.2-.2-.38-.35-.53-.15-.15-.33-.27-.53-.35-.18-.07-.38-.11-.58-.11Z"/><path class="cls-2" d="M549.78,811.48c-.2,0-.39,.04-.58,.11-.2,.08-.38,.2-.53,.35-.15,.15-.27,.33-.35,.53-.07,.18-.11,.38-.11,.58s.04,.39,.11,.58c.08,.2,.2,.38,.35,.53,.15,.15,.33,.27,.53,.35,.18,.07,.38,.11,.58,.11s.39-.04,.58-.11c.2-.08,.38-.2,.53-.35,.15-.15,.27-.33,.35-.53,.07-.18,.11-.38,.11-.58s-.04-.39-.11-.58c-.08-.2-.2-.38-.35-.53-.15-.15-.33-.27-.53-.35-.18-.07-.38-.11-.58-.11Z"/><path class="cls-2" d="M549.78,766.08c-.2,0-.39,.04-.58,.11-.2,.08-.38,.2-.53,.35-.15,.15-.27,.33-.35,.53-.07,.18-.11,.38-.11,.58s.04,.39,.11,.58c.08,.2,.2,.38,.35,.53s.33,.27,.53,.35c.18,.07,.38,.11,.58,.11s.39-.04,.58-.11c.2-.08,.38-.2,.53-.35,.15-.15,.27-.33,.35-.53,.07-.18,.11-.38,.11-.58s-.04-.39-.11-.58c-.08-.2-.2-.38-.35-.53s-.33-.27-.53-.35c-.18-.07-.38-.11-.58-.11Z"/><path class="cls-2" d="M549.78,720.68c-.2,0-.39,.04-.58,.11-.2,.08-.38,.2-.53,.35-.15,.15-.27,.33-.35,.53-.07,.18-.11,.38-.11,.58s.04,.39,.11,.58c.08,.2,.2,.38,.35,.53,.15,.15,.33,.27,.53,.35,.18,.07,.38,.11,.58,.11s.39-.04,.58-.11c.2-.08,.38-.2,.53-.35,.15-.15,.27-.33,.35-.53,.07-.18,.11-.38,.11-.58s-.04-.39-.11-.58c-.08-.2-.2-.38-.35-.53-.15-.15-.33-.27-.53-.35-.18-.07-.38-.11-.58-.11Z"/><path class="cls-2" d="M468.55,938.91c-.18,0-.36,.03-.53,.1-.18,.07-.35,.18-.49,.32-.14,.14-.25,.31-.32,.49-.07,.17-.1,.35-.1,.53s.03,.36,.1,.53c.07,.18,.18,.35,.32,.49s.31,.25,.49,.32c.17,.07,.35,.1,.53,.1s.36-.03,.53-.1c.18-.07,.35-.18,.49-.32,.14-.14,.25-.31,.32-.49,.07-.17,.1-.35,.1-.53s-.03-.36-.1-.53c-.07-.18-.18-.35-.32-.49s-.31-.25-.49-.32c-.17-.07-.35-.1-.53-.1Z"/><path class="cls-2" d="M259.23,86.13c-.2,0-.39,.04-.58,.11-.2,.08-.38,.2-.53,.35-.15,.15-.27,.33-.35,.53-.07,.18-.11,.38-.11,.58s.04,.39,.11,.58c.08,.2,.2,.38,.35,.53,.15,.15,.33,.27,.53,.35,.18,.07,.38,.11,.58,.11s.39-.04,.58-.11c.2-.08,.38-.2,.53-.35,.15-.15,.27-.33,.35-.53,.07-.18,.11-.38,.11-.58s-.04-.39-.11-.58c-.08-.2-.2-.38-.35-.53-.15-.15-.33-.27-.53-.35-.18-.07-.38-.11-.58-.11Z"/><path class="cls-2" d="M298.68,86.13c-.2,0-.39,.04-.58,.11-.2,.08-.38,.2-.53,.35s-.27,.33-.35,.53c-.07,.18-.11,.38-.11,.58s.04,.39,.11,.58c.08,.2,.2,.38,.35,.53s.33,.27,.53,.35c.18,.07,.38,.11,.58,.11s.39-.04,.58-.11c.2-.08,.38-.2,.53-.35s.27-.33,.35-.53c.07-.18,.11-.38,.11-.58s-.04-.39-.11-.58c-.08-.2-.2-.38-.35-.53s-.33-.27-.53-.35c-.18-.07-.38-.11-.58-.11Z"/><path class="cls-2" d="M339.19,86.13c-.2,0-.39,.04-.58,.11-.2,.08-.38,.2-.53,.35-.15,.15-.27,.33-.35,.53-.07,.18-.11,.38-.11,.58s.04,.39,.11,.58c.08,.2,.2,.38,.35,.53,.15,.15,.33,.27,.53,.35,.18,.07,.38,.11,.58,.11s.39-.04,.58-.11c.2-.08,.38-.2,.53-.35,.15-.15,.27-.33,.35-.53,.07-.18,.11-.38,.11-.58s-.04-.39-.11-.58c-.08-.2-.2-.38-.35-.53-.15-.15-.33-.27-.53-.35-.18-.07-.38-.11-.58-.11Z"/><path class="cls-2" d="M379.71,86.13c-.2,0-.39,.04-.58,.11-.2,.08-.38,.2-.53,.35-.15,.15-.27,.33-.35,.53-.07,.18-.11,.38-.11,.58s.04,.39,.11,.58c.08,.2,.2,.38,.35,.53,.15,.15,.33,.27,.53,.35,.18,.07,.38,.11,.58,.11s.39-.04,.58-.11c.2-.08,.38-.2,.53-.35,.15-.15,.27-.33,.35-.53,.07-.18,.11-.38,.11-.58s-.04-.39-.11-.58c-.08-.2-.2-.38-.35-.53-.15-.15-.33-.27-.53-.35-.18-.07-.38-.11-.58-.11Z"/><path class="cls-2" d="M420.22,86.13c-.2,0-.39,.04-.58,.11-.2,.08-.38,.2-.53,.35-.15,.15-.27,.33-.35,.53-.07,.18-.11,.38-.11,.58s.04,.39,.11,.58c.08,.2,.2,.38,.35,.53,.15,.15,.33,.27,.53,.35,.18,.07,.38,.11,.58,.11s.39-.04,.58-.11c.2-.08,.38-.2,.53-.35,.15-.15,.27-.33,.35-.53,.07-.18,.11-.38,.11-.58s-.04-.39-.11-.58c-.08-.2-.2-.38-.35-.53-.15-.15-.33-.27-.53-.35-.18-.07-.38-.11-.58-.11Z"/><path class="cls-2" d="M460.73,86.13c-.2,0-.39,.04-.58,.11-.2,.08-.38,.2-.53,.35-.15,.15-.27,.33-.35,.53-.07,.18-.11,.38-.11,.58s.04,.39,.11,.58c.08,.2,.2,.38,.35,.53,.15,.15,.33,.27,.53,.35,.18,.07,.38,.11,.58,.11s.39-.04,.58-.11c.2-.08,.38-.2,.53-.35,.15-.15,.27-.33,.35-.53,.07-.18,.11-.38,.11-.58s-.04-.39-.11-.58c-.08-.2-.2-.38-.35-.53-.15-.15-.33-.27-.53-.35-.18-.07-.38-.11-.58-.11Z"/><path class="cls-2" d="M501.25,86.13c-.2,0-.39,.04-.58,.11-.2,.08-.38,.2-.53,.35s-.27,.33-.35,.53c-.07,.18-.11,.38-.11,.58s.04,.39,.11,.58c.08,.2,.2,.38,.35,.53s.33,.27,.53,.35c.18,.07,.38,.11,.58,.11s.39-.04,.58-.11c.2-.08,.38-.2,.53-.35s.27-.33,.35-.53c.07-.18,.11-.38,.11-.58s-.04-.39-.11-.58c-.08-.2-.2-.38-.35-.53s-.33-.27-.53-.35c-.18-.07-.38-.11-.58-.11Z"/><path class="cls-2" d="M540.7,86.13c-.2,0-.39,.04-.58,.11-.2,.08-.38,.2-.53,.35-.15,.15-.27,.33-.35,.53-.07,.18-.11,.38-.11,.58s.04,.39,.11,.58c.08,.2,.2,.38,.35,.53,.15,.15,.33,.27,.53,.35,.18,.07,.38,.11,.58,.11s.39-.04,.58-.11c.2-.08,.38-.2,.53-.35,.15-.15,.27-.33,.35-.53,.07-.18,.11-.38,.11-.58s-.04-.39-.11-.58c-.08-.2-.2-.38-.35-.53-.15-.15-.33-.27-.53-.35-.18-.07-.38-.11-.58-.11Z"/><path class="cls-2" d="M334.74,938.91c-.18,0-.36,.03-.53,.1-.18,.07-.35,.18-.49,.32-.14,.14-.25,.31-.32,.49-.07,.17-.1,.35-.1,.53s.03,.36,.1,.53c.07,.18,.18,.35,.32,.49,.14,.14,.31,.25,.49,.32,.17,.07,.35,.1,.53,.1s.36-.03,.53-.1c.18-.07,.35-.18,.49-.32s.25-.31,.32-.49c.07-.17,.1-.35,.1-.53s-.03-.36-.1-.53c-.07-.18-.18-.35-.32-.49s-.31-.25-.49-.32c-.17-.07-.35-.1-.53-.1Z"/><path class="cls-2" d="M423.94,938.91c-.18,0-.36,.03-.53,.1-.18,.07-.35,.18-.49,.32-.14,.14-.25,.31-.32,.49-.07,.17-.1,.35-.1,.53s.03,.36,.1,.53c.07,.18,.18,.35,.32,.49,.14,.14,.31,.25,.49,.32,.17,.07,.35,.1,.53,.1s.36-.03,.53-.1c.18-.07,.35-.18,.49-.32,.14-.14,.25-.31,.32-.49,.07-.17,.1-.35,.1-.53s-.03-.36-.1-.53c-.07-.18-.18-.35-.32-.49s-.31-.25-.49-.32c-.17-.07-.35-.1-.53-.1Z"/><path class="cls-2" d="M513.15,938.91c-.2,0-.39,.04-.58,.11-.2,.08-.38,.2-.53,.35s-.27,.33-.35,.53c-.07,.18-.11,.38-.11,.58s.04,.39,.11,.58c.08,.2,.2,.38,.35,.53s.33,.27,.53,.35c.18,.07,.38,.11,.58,.11s.39-.04,.58-.11c.2-.08,.38-.2,.53-.35s.27-.33,.35-.53c.07-.18,.11-.38,.11-.58s-.04-.39-.11-.58c-.08-.2-.2-.38-.35-.53s-.33-.27-.53-.35c-.18-.07-.38-.11-.58-.11Z"/><path class="cls-2" d="M290.13,938.91c-.18,0-.36,.03-.53,.1-.18,.07-.35,.18-.49,.32-.14,.14-.25,.31-.32,.49-.07,.17-.1,.35-.1,.53s.03,.36,.1,.53c.07,.18,.18,.35,.32,.49,.14,.14,.31,.25,.49,.32,.17,.07,.35,.1,.53,.1s.36-.03,.53-.1c.18-.07,.35-.18,.49-.32s.25-.31,.32-.49c.07-.17,.1-.35,.1-.53s-.03-.36-.1-.53c-.07-.18-.18-.35-.32-.49-.14-.14-.31-.25-.49-.32-.17-.07-.35-.1-.53-.1Z"/><path class="cls-2" d="M379.34,938.91c-.18,0-.36,.03-.53,.1-.18,.07-.35,.18-.49,.32-.14,.14-.25,.31-.32,.49-.07,.17-.1,.35-.1,.53s.03,.36,.1,.53c.07,.18,.18,.35,.32,.49,.14,.14,.31,.25,.49,.32,.17,.07,.35,.1,.53,.1s.36-.03,.53-.1c.18-.07,.35-.18,.49-.32,.14-.14,.25-.31,.32-.49,.07-.17,.1-.35,.1-.53s-.03-.36-.1-.53c-.07-.18-.18-.35-.32-.49s-.31-.25-.49-.32c-.17-.07-.35-.1-.53-.1Z"/><path class="cls-2" d="M250.15,95.25c-.2,0-.39,.04-.58,.11-.2,.08-.38,.2-.53,.35-.15,.15-.27,.33-.35,.53-.07,.18-.11,.38-.11,.58s.04,.39,.11,.58c.08,.2,.2,.38,.35,.53,.15,.15,.33,.27,.53,.35,.18,.07,.38,.11,.58,.11s.39-.04,.58-.11c.2-.08,.38-.2,.53-.35,.15-.15,.27-.33,.35-.53,.07-.18,.11-.38,.11-.58s-.04-.39-.11-.58c-.08-.2-.2-.38-.35-.53-.15-.15-.33-.27-.53-.35-.18-.07-.38-.11-.58-.11Z"/><path class="cls-2" d="M250.15,141.46c-.2,0-.39,.04-.58,.11-.2,.08-.38,.2-.53,.35s-.27,.33-.35,.53c-.07,.18-.11,.38-.11,.58s.04,.39,.11,.58c.08,.2,.2,.38,.35,.53s.33,.27,.53,.35c.18,.07,.38,.11,.58,.11s.39-.04,.58-.11c.2-.08,.38-.2,.53-.35s.27-.33,.35-.53c.07-.18,.11-.38,.11-.58s-.04-.39-.11-.58c-.08-.2-.2-.38-.35-.53s-.33-.27-.53-.35c-.18-.07-.38-.11-.58-.11Z"/><path class="cls-2" d="M250.15,233.88c-.2,0-.39,.04-.58,.11-.2,.08-.38,.2-.53,.35-.15,.15-.27,.33-.35,.53-.07,.18-.11,.38-.11,.58s.04,.39,.11,.58c.08,.2,.2,.38,.35,.53,.15,.15,.33,.27,.53,.35,.18,.07,.38,.11,.58,.11s.39-.04,.58-.11c.2-.08,.38-.2,.53-.35,.15-.15,.27-.33,.35-.53,.07-.18,.11-.38,.11-.58s-.04-.39-.11-.58c-.08-.2-.2-.38-.35-.53-.15-.15-.33-.27-.53-.35-.18-.07-.38-.11-.58-.11Z"/></g></g><g id="Window_Door_Stairs"><path class="cls-3" d="M283.41,487.62c1.92,3.24,4.35,6.17,7.16,8.67,2.81,2.5,6,4.59,9.44,6.11"/><path class="cls-3" d="M286.69,483.92c1.78,3.35,4.15,6.36,6.99,8.88,2.84,2.52,6.11,4.51,9.66,5.87"/><line class="cls-3" x1="294.29" y1="91.18" x2="294.29" y2="54.54"/><line class="cls-3" x1="516.47" y1="789.24" x2="504.72" y2="824.93"/><line class="cls-3" x1="521.82" y1="791" x2="510.08" y2="826.69"/><line class="cls-3" x1="484.51" y1="886.34" x2="497.77" y2="846.05"/><line class="cls-3" x1="470.17" y1="929.91" x2="483.43" y2="889.61"/><line class="cls-3" x1="363.73" y1="900.8" x2="328.04" y2="889.05"/><line class="cls-3" x1="365.49" y1="895.45" x2="329.8" y2="883.7"/><path class="cls-3" d="M490.94,698.75c17.01-51.53,30.14-104.26,39.38-157.74,9.24-53.47,14.56-107.55,16.02-161.8"/><line class="cls-3" x1="540.39" y1="379.22" x2="416.25" y2="379.22"/><polyline class="cls-3" points="298.76 737.69 309.64 704.64 321.35 669.04 328.1 648.53"/><polyline class="cls-3" points="293.55 735.98 304.43 702.92 316.14 667.33 322.9 646.81"/><line class="cls-3" x1="381.08" y1="97.12" x2="418.65" y2="97.12"/><line class="cls-3" x1="540.39" y1="91.18" x2="502.81" y2="91.18"/><line class="cls-3" x1="322.12" y1="649.16" x2="322.52" y2="647.97"/><line class="cls-3" x1="327.33" y1="650.88" x2="327.72" y2="649.69"/><polyline class="cls-3" points="292.95 541.82 285.77 505.56 255.8 511.5"/><line class="cls-3" x1="257.19" y1="520.64" x2="287.57" y2="514.63"/><line class="cls-3" x1="258.98" y1="529.7" x2="289.36" y2="523.69"/><line class="cls-3" x1="261.29" y1="538.66" x2="291.15" y2="532.75"/><line class="cls-3" x1="264.16" y1="547.51" x2="292.95" y2="541.81"/><line class="cls-3" x1="532.85" y1="679.59" x2="500.33" y2="668.89"/><line class="cls-3" x1="523.06" y1="709.33" x2="532.85" y2="679.59"/><line class="cls-3" x1="515.03" y1="706.68" x2="524.82" y2="676.95"/><line class="cls-3" x1="507" y1="704.04" x2="516.79" y2="674.31"/><line class="cls-3" x1="498.97" y1="701.4" x2="508.76" y2="671.66"/><line class="cls-3" x1="253.59" y1="91.18" x2="253.59" y2="54.54"/><line class="cls-3" x1="263.77" y1="91.18" x2="263.77" y2="54.54"/><line class="cls-3" x1="273.94" y1="91.18" x2="273.94" y2="54.54"/><line class="cls-3" x1="284.12" y1="91.18" x2="284.12" y2="54.54"/><polyline class="cls-3" points="253.59 91.18 253.59 54.54 546.33 54.54 546.33 91.18"/><polyline class="cls-3" points="317.14 433.5 276.72 428.75 282.54 379.22"/><line class="cls-3" x1="286.82" y1="429.93" x2="292.79" y2="379.22"/><line class="cls-3" x1="296.93" y1="431.16" x2="303.04" y2="379.22"/><line class="cls-3" x1="307.03" y1="432.35" x2="313.28" y2="379.22"/><line class="cls-3" x1="251.71" y1="96.81" x2="253.59" y2="96.81"/><line class="cls-3" x1="251.71" y1="189.24" x2="253.59" y2="189.24"/><line class="cls-3" x1="251.71" y1="281.66" x2="253.59" y2="281.66"/><line class="cls-3" x1="251.71" y1="374.09" x2="253.59" y2="374.09"/><line class="cls-3" x1="548.21" y1="96.81" x2="546.33" y2="96.81"/><line class="cls-3" x1="548.21" y1="189.24" x2="546.33" y2="189.24"/><line class="cls-3" x1="548.21" y1="281.66" x2="546.33" y2="281.66"/><line class="cls-3" x1="469" y1="938.98" x2="470.05" y2="935.8"/><path class="cls-3" d="M371.8,439.93c1.82-20.2,3.12-40.44,3.9-60.71"/><path class="cls-3" d="M366.35,439.35c1.88-20.02,3.11-40.09,3.7-60.19"/><path class="cls-3" d="M328.1,648.53c9.79-29.51,18.09-59.49,24.87-89.83"/><path class="cls-3" d="M322.9,646.81c9.73-29.34,17.98-59.14,24.73-89.3"/><line class="cls-3" x1="381.27" y1="91.18" x2="418.65" y2="91.18"/><line class="cls-3" x1="489.86" y1="888.11" x2="503.12" y2="847.81"/><line class="cls-3" x1="475.52" y1="931.67" x2="488.79" y2="891.38"/><line class="cls-3" x1="548.21" y1="374.09" x2="546.33" y2="374.09"/><line class="cls-3" x1="548.29" y1="721.76" x2="544.97" y2="720.67"/><line class="cls-3" x1="317.14" y1="433.54" x2="323.53" y2="379.22"/><line class="cls-3" x1="415.37" y1="91.18" x2="416.3" y2="91.18"/><line class="cls-3" x1="259.54" y1="91.18" x2="298.68" y2="91.18"/><line class="cls-3" x1="407.94" y1="680.33" x2="433.22" y2="688.66"/><line class="cls-3" x1="253.59" y1="450.43" x2="253.59" y2="379.22"/><path class="cls-3" d="M256.25,514.83c-.03-.22-.06-.43-.09-.65-.34-2.45-.64-4.91-.89-7.37-.25-2.46-.47-4.93-.65-7.41-.18-2.47-.33-4.95-.45-7.43-.12-2.48-.21-4.96-.28-7.45s-.12-4.97-.15-7.46c-.06-4.25-.07-8.5-.07-12.76,0-1.39,0-2.78-.08-13.88"/><line class="cls-3" x1="298.68" y1="97.12" x2="259.54" y2="97.12"/><line class="cls-3" x1="502.81" y1="97.12" x2="540.39" y2="97.12"/><line class="cls-3" x1="540.39" y1="372.96" x2="416.25" y2="372.96"/><line class="cls-3" x1="410.59" y1="672.3" x2="435.87" y2="680.63"/><path class="cls-3" d="M253.67,864.59v-83.42c0-.14,0-2.85,0-5.56,0-1.13,0-2.26,.02-3.39,0-1.54,.02-3.08,.04-4.61,.02-1.99,.06-3.99,.1-5.98,.04-1.54,.08-3.08,.13-4.61,.03-.92,.07-1.85,.1-2.77,.06-1.57,.14-3.13,.22-4.69,.09-1.56,.18-3.13,.29-4.69,.11-1.57,.24-3.13,.38-4.69,.14-1.57,.3-3.14,.47-4.71,.09-.78,.18-1.56,.27-2.34,.09-.78,.19-1.56,.3-2.34,.1-.78,.21-1.56,.32-2.34,.11-.78,.23-1.56,.35-2.34,.25-1.57,.51-3.13,.8-4.69,.14-.78,.29-1.56,.45-2.34,.15-.78,.31-1.55,.48-2.33,.16-.78,.34-1.55,.51-2.32,.18-.78,.36-1.56,.55-2.33,.19-.78,.39-1.56,.59-2.34,.22-.86,.46-1.73,.7-2.59,.26-.93,.53-1.85,.8-2.78,.08-.28,.17-.56,.25-.84,.11-.35,.21-.69,.32-1.04,.12-.39,.24-.78,.37-1.16,.13-.39,.25-.79,.38-1.18,.08-.24,.16-.48,.24-.72,.13-.39,.26-.78,.39-1.17,.27-.78,.54-1.56,.81-2.34,.28-.78,.56-1.57,.85-2.35,.29-.79,.58-1.57,.87-2.35,.3-.79,.6-1.57,.9-2.36,.3-.79,.61-1.58,.92-2.36,.4-1.01,.8-2.02,1.2-3.03,.3-.76,.61-1.52,.91-2.27,.31-.77,.62-1.53,.93-2.3,.68-1.68,1.36-3.35,2.04-5.03,.39-.97,.78-1.94,1.17-2.91,.28-.7,.56-1.4,.84-2.11,.32-.8,.63-1.6,.95-2.41,.31-.8,.62-1.59,.92-2.39,.3-.8,.61-1.59,.9-2.39,.3-.8,.59-1.6,.88-2.41,.29-.8,.58-1.61,.86-2.41,.28-.8,.56-1.61,.83-2.41,.27-.8,.53-1.61,.79-2.42,.26-.81,.51-1.61,.75-2.42,.26-.85,.51-1.71,.75-2.57,.25-.87,.48-1.75,.71-2.62,.21-.81,.42-1.63,.61-2.45,.19-.81,.38-1.63,.55-2.44,.17-.81,.34-1.63,.49-2.45,.08-.43,.16-.87,.24-1.3,.14-.82,.28-1.63,.4-2.45,.12-.82,.23-1.64,.33-2.46,.1-.83,.18-1.65,.26-2.48,.07-.82,.13-1.65,.18-2.48,.05-.83,.08-1.65,.09-2.48,0-.3,.01-.6,.01-.91,0-.21,0-.41,0-.62,0-.26,0-.52,0-.78,0-.41-.01-.83-.03-1.24-.02-.83-.06-1.65-.11-2.48-.05-.83-.12-1.65-.19-2.48-.08-.83-.17-1.65-.27-2.47-.07-.53-.14-1.05-.21-1.58-.12-.82-.25-1.64-.39-2.46-.14-.82-.29-1.64-.45-2.45-.16-.82-.33-1.63-.51-2.44-.18-.82-.37-1.63-.57-2.44-.17-.68-.34-1.37-.52-2.05-.19-.74-.4-1.47-.6-2.21-.23-.81-.47-1.62-.71-2.43-.24-.81-.49-1.62-.75-2.42-.26-.81-.52-1.62-.79-2.42-.27-.81-.55-1.61-.83-2.42-.28-.8-.57-1.61-.85-2.41-.29-.8-.58-1.6-.88-2.4-.3-.8-.6-1.6-.9-2.39-.3-.8-.61-1.59-.92-2.39-.31-.8-.63-1.6-.94-2.4-.57-1.45-1.15-2.89-1.73-4.34-.95-2.36-1.91-4.72-2.87-7.08-.4-.98-.79-1.96-1.18-2.95-.42-1.05-.84-2.1-1.25-3.16-.31-.79-.62-1.57-.92-2.36-.3-.78-.6-1.57-.9-2.35-.3-.78-.59-1.57-.88-2.35-.29-.78-.57-1.57-.85-2.35-.28-.78-.55-1.56-.82-2.34-.37-1.07-.72-2.13-1.07-3.21-.24-.74-.47-1.47-.69-2.21-.09-.29-.18-.58-.26-.87-.09-.31-.18-.62-.27-.92-.15-.52-.3-1.05-.45-1.57-.25-.89-.49-1.79-.73-2.68-.2-.78-.4-1.56-.93-3.82-.58-2.47-1.55-6.7-2.93-15.74"/></g><g id="Accessory"><line class="cls-4" x1="371.52" y1="784.83" x2="310.2" y2="764.52"/><line class="cls-4" x1="376.64" y1="332.88" x2="376.64" y2="331.47"/><line class="cls-4" x1="409.2" y1="332.88" x2="409.2" y2="331.47"/><line class="cls-4" x1="366.61" y1="456.66" x2="341.36" y2="453.69"/><line class="cls-4" x1="363.27" y1="483.06" x2="283.47" y2="473.68"/><line class="cls-4" x1="341.36" y1="453.69" x2="291.81" y2="447.86"/><line class="cls-4" x1="431.59" y1="331.47" x2="431.74" y2="331.47"/><rect class="cls-4" x="467.12" y="254.3" width="32.87" height="77.18"/><line class="cls-4" x1="375.07" y1="341.65" x2="375.07" y2="331.47"/><line class="cls-4" x1="410.76" y1="341.65" x2="410.76" y2="331.47"/><line class="cls-4" x1="287.73" y1="753.84" x2="292.53" y2="739.27"/><line class="cls-4" x1="376.64" y1="218.92" x2="409.2" y2="218.92"/><line class="cls-4" x1="376.64" y1="227.68" x2="409.2" y2="227.68"/><line class="cls-4" x1="376.64" y1="236.45" x2="409.2" y2="236.45"/><line class="cls-4" x1="376.64" y1="245.22" x2="409.2" y2="245.22"/><line class="cls-4" x1="433.05" y1="801.34" x2="477.07" y2="815.83"/><line class="cls-4" x1="376.64" y1="253.98" x2="409.2" y2="253.98"/><line class="cls-4" x1="376.64" y1="262.75" x2="409.2" y2="262.75"/><line class="cls-4" x1="376.64" y1="271.52" x2="409.2" y2="271.52"/><line class="cls-4" x1="376.64" y1="280.28" x2="409.2" y2="280.28"/><polyline class="cls-4" points="412.96 331.47 431.74 331.47 431.74 138.92 412.96 138.92"/><line class="cls-4" x1="376.64" y1="289.05" x2="409.2" y2="289.05"/><line class="cls-4" x1="376.64" y1="297.82" x2="409.2" y2="297.82"/><line class="cls-4" x1="376.64" y1="306.58" x2="409.2" y2="306.58"/><line class="cls-4" x1="376.64" y1="315.35" x2="409.2" y2="315.35"/><line class="cls-4" x1="376.64" y1="324.12" x2="409.2" y2="324.12"/><line class="cls-4" x1="376.64" y1="332.88" x2="409.2" y2="332.88"/><line class="cls-4" x1="375.07" y1="341.65" x2="410.76" y2="341.65"/></g><g id="TEXT"><g><path d="M32.2,1028.91h-5.43v-1.05h2.19v-8.03l-2.07,1.03v-1.2l2.23-1.15h1.03v9.35h2.04v1.05Z"/><path d="M65.57,1028.91h-1.52l-3.49-5.07-1.09,1.19v3.88h-1.2v-10.33h1.2v4.95l4.58-4.95h1.38l-4.04,4.37,4.17,5.97Z"/><path d="M71.29,1028.91h-1.14v-6.64h-2.25v-.99h3.39v7.63Zm-.56-10.52c.21,0,.4,.08,.55,.23,.15,.15,.23,.34,.23,.55,0,.23-.07,.41-.22,.56s-.33,.23-.55,.23c-.2,0-.38-.08-.53-.24-.15-.16-.23-.34-.23-.55s.08-.39,.23-.55c.15-.16,.33-.23,.53-.23Z"/><path d="M82.27,1028.57c-.77,.35-1.52,.53-2.26,.53-1.36,0-2.04-.72-2.04-2.16v-4.67h-1.46v-.99h1.46v-2.09h1.11v2.09h2.59v.99h-2.59v4.37c0,.46,.1,.82,.31,1.08,.21,.26,.48,.38,.83,.38,.62,0,1.24-.14,1.85-.42l.2,.89Z"/><path d="M91.16,1028.66c-.66,.3-1.39,.45-2.19,.45-1.2,0-2.16-.36-2.87-1.09-.72-.73-1.07-1.7-1.07-2.91s.36-2.18,1.08-2.91c.72-.73,1.67-1.09,2.84-1.09,.77,0,1.5,.13,2.19,.4l-.3,.95c-.69-.24-1.32-.36-1.88-.36-.84,0-1.51,.27-2,.81-.49,.54-.74,1.28-.74,2.21,0,.85,.25,1.56,.76,2.14,.51,.58,1.17,.87,1.98,.87,.64,0,1.31-.12,1.99-.37l.2,.92Z"/><path d="M100.19,1028.91h-1.14v-4.89c0-.68-.11-1.17-.33-1.48-.22-.31-.56-.46-1.02-.46-.7,0-1.45,.43-2.25,1.3v5.52h-1.14v-10.33h1.14v3.82c.82-.87,1.68-1.3,2.59-1.3,1.43,0,2.15,.86,2.15,2.59v5.22Z"/><path d="M109.42,1025.14h-5.24c0,.86,.25,1.58,.75,2.14,.5,.56,1.11,.84,1.84,.84s1.41-.12,2.15-.37l.2,.92c-.67,.3-1.46,.45-2.36,.45-1.13,0-2.05-.36-2.74-1.09s-1.04-1.71-1.04-2.94,.31-2.18,.93-2.9c.62-.72,1.43-1.08,2.41-1.08,.88,0,1.61,.33,2.2,1s.89,1.56,.89,2.67v.36Zm-1.25-.93c0-.6-.19-1.1-.56-1.51-.37-.41-.79-.61-1.25-.61-.59,0-1.08,.2-1.47,.59-.39,.39-.6,.9-.65,1.53h3.92Z"/><path d="M118.2,1028.91h-1.14v-4.89c0-.68-.11-1.17-.33-1.48-.22-.31-.56-.46-1.02-.46-.7,0-1.45,.43-2.25,1.3v5.52h-1.14v-7.63h1.14v1.12c.82-.87,1.68-1.3,2.59-1.3,1.43,0,2.15,.86,2.15,2.59v5.22Z"/><path d="M31.93,1050.91h-5.68v-.87c1.44-1.61,2.38-2.68,2.81-3.23s.78-1.12,1.05-1.72c.27-.6,.4-1.2,.4-1.79s-.17-1.03-.52-1.36c-.35-.33-.84-.5-1.47-.5-.48,0-1.13,.15-1.95,.45l-.17-1.03c.74-.31,1.51-.47,2.31-.47,.92,0,1.67,.26,2.23,.78,.56,.52,.85,1.21,.85,2.08,0,.62-.15,1.24-.44,1.85s-.66,1.2-1.12,1.76-1.34,1.57-2.65,3.02h4.35v1.05Z"/><path d="M64.23,1050.91h-5.62v-10.33h1.2v9.29h4.42v1.05Z"/><path d="M71.29,1050.91h-1.14v-6.64h-2.25v-.99h3.39v7.63Zm-.56-10.52c.21,0,.4,.08,.55,.23,.15,.15,.23,.34,.23,.55,0,.23-.07,.41-.22,.56s-.33,.23-.55,.23c-.2,0-.38-.08-.53-.24-.15-.16-.23-.34-.23-.55s.08-.39,.23-.55c.15-.16,.33-.23,.53-.23Z"/><path d="M82.54,1043.28l-2.89,7.63h-1.04l-2.88-7.63h1.25l2.16,6.07,2.16-6.07h1.25Z"/><path d="M89.29,1050.91h-1.14v-6.64h-2.25v-.99h3.39v7.63Zm-.56-10.52c.21,0,.4,.08,.55,.23,.15,.15,.23,.34,.23,.55,0,.23-.07,.41-.22,.56s-.33,.23-.55,.23c-.2,0-.38-.08-.53-.24-.15-.16-.23-.34-.23-.55s.08-.39,.23-.55c.15-.16,.33-.23,.53-.23Z"/><path d="M100.19,1050.91h-1.14v-4.89c0-.68-.11-1.17-.33-1.48-.22-.31-.56-.46-1.02-.46-.7,0-1.45,.43-2.25,1.3v5.52h-1.14v-7.63h1.14v1.12c.82-.87,1.68-1.3,2.59-1.3,1.43,0,2.15,.86,2.15,2.59v5.22Z"/><path d="M105.43,1048.04c-.71,.35-1.07,.65-1.07,.92,0,.14,.08,.26,.25,.36s.39,.15,.67,.15l2.57-.07c.61,0,1.08,.15,1.42,.45,.34,.3,.51,.72,.51,1.27,0,.86-.39,1.55-1.16,2.06-.77,.51-1.67,.77-2.7,.77-.84,0-1.54-.18-2.07-.53-.54-.35-.81-.81-.81-1.37,0-.61,.42-1.12,1.25-1.54-.69-.32-1.03-.72-1.03-1.19,0-.54,.44-1.04,1.33-1.5-.41-.25-.73-.57-.94-.97s-.33-.81-.33-1.25c0-.72,.24-1.31,.73-1.77,.49-.46,1.1-.69,1.83-.69,.53,0,1,.11,1.43,.33l2.26-.34v1.11h-1.46c.22,.39,.33,.84,.33,1.36,0,.69-.24,1.28-.73,1.76-.48,.48-1.1,.72-1.84,.72-.16,0-.31,0-.45-.02Zm.49,5.01c.75,0,1.39-.17,1.92-.5,.53-.33,.79-.75,.79-1.24s-.38-.76-1.13-.76c-.25,0-.68,.01-1.29,.04-.39,.02-.69,.03-.91,.03-.11,0-.27,.09-.5,.26-.23,.18-.4,.35-.52,.53-.12,.18-.18,.36-.18,.55,0,.3,.17,.55,.5,.77,.33,.21,.77,.32,1.31,.32Zm-.04-5.88c.42,0,.76-.15,1.03-.44,.27-.29,.4-.67,.4-1.14,0-.49-.13-.88-.39-1.16-.26-.28-.61-.42-1.04-.42-.41,0-.75,.15-1.02,.44-.28,.29-.41,.67-.41,1.14s.14,.84,.41,1.13c.28,.3,.62,.44,1.02,.44Z"/><path d="M29.89,1067.36c.63,.18,1.14,.5,1.52,.96,.38,.47,.57,.99,.57,1.57,0,.91-.35,1.67-1.06,2.29-.71,.62-1.54,.93-2.5,.93-.82,0-1.56-.18-2.2-.54l.23-.99c.68,.32,1.35,.48,2.01,.48,.62,0,1.16-.19,1.6-.58,.44-.39,.66-.89,.66-1.5s-.24-1.09-.71-1.46c-.47-.38-1.1-.56-1.88-.56h-.31v-.99h.09c.75,0,1.37-.18,1.86-.53,.49-.35,.73-.83,.73-1.43,0-.49-.18-.87-.53-1.15-.35-.28-.83-.41-1.45-.41-.53,0-1.13,.14-1.79,.43l-.16-1.03c.66-.3,1.33-.45,2.01-.45,.92,0,1.68,.24,2.28,.73,.6,.49,.9,1.11,.9,1.87,0,.53-.18,1.02-.55,1.48-.36,.46-.8,.74-1.31,.86v.04Z"/><path d="M58.26,1062.58h2.04c1.35,0,2.44,.46,3.25,1.38,.82,.92,1.22,2.18,1.22,3.79s-.41,2.91-1.24,3.81c-.83,.9-1.89,1.35-3.18,1.35h-2.09v-10.33Zm1.2,9.29h.85c.98,0,1.76-.36,2.33-1.09s.86-1.74,.86-3.03-.29-2.29-.86-3.02c-.57-.74-1.35-1.1-2.33-1.1h-.85v8.24Z"/><path d="M71.29,1072.91h-1.14v-6.64h-2.25v-.99h3.39v7.63Zm-.56-10.52c.21,0,.4,.08,.55,.23,.15,.15,.23,.34,.23,.55,0,.23-.07,.41-.22,.56s-.33,.23-.55,.23c-.2,0-.38-.08-.53-.24-.15-.16-.23-.34-.23-.55s.08-.39,.23-.55c.15-.16,.33-.23,.53-.23Z"/><path d="M82.19,1072.91h-1.14v-4.89c0-.68-.11-1.17-.33-1.48-.22-.31-.56-.46-1.02-.46-.7,0-1.45,.43-2.25,1.3v5.52h-1.14v-7.63h1.14v1.12c.82-.87,1.68-1.3,2.59-1.3,1.43,0,2.15,.86,2.15,2.59v5.22Z"/><path d="M89.29,1072.91h-1.14v-6.64h-2.25v-.99h3.39v7.63Zm-.56-10.52c.21,0,.4,.08,.55,.23,.15,.15,.23,.34,.23,.55,0,.23-.07,.41-.22,.56s-.33,.23-.55,.23c-.2,0-.38-.08-.53-.24-.15-.16-.23-.34-.23-.55s.08-.39,.23-.55c.15-.16,.33-.23,.53-.23Z"/><path d="M100.19,1072.91h-1.14v-4.89c0-.68-.11-1.17-.33-1.48-.22-.31-.56-.46-1.02-.46-.7,0-1.45,.43-2.25,1.3v5.52h-1.14v-7.63h1.14v1.12c.82-.87,1.68-1.3,2.59-1.3,1.43,0,2.15,.86,2.15,2.59v5.22Z"/><path d="M105.43,1070.04c-.71,.35-1.07,.65-1.07,.92,0,.14,.08,.26,.25,.36s.39,.15,.67,.15l2.57-.07c.61,0,1.08,.15,1.42,.45,.34,.3,.51,.72,.51,1.27,0,.86-.39,1.55-1.16,2.06-.77,.51-1.67,.77-2.7,.77-.84,0-1.54-.18-2.07-.53-.54-.35-.81-.81-.81-1.37,0-.61,.42-1.12,1.25-1.54-.69-.32-1.03-.72-1.03-1.19,0-.54,.44-1.04,1.33-1.5-.41-.25-.73-.57-.94-.97s-.33-.81-.33-1.25c0-.72,.24-1.31,.73-1.77,.49-.46,1.1-.69,1.83-.69,.53,0,1,.11,1.43,.33l2.26-.34v1.11h-1.46c.22,.39,.33,.84,.33,1.36,0,.69-.24,1.28-.73,1.76-.48,.48-1.1,.72-1.84,.72-.16,0-.31,0-.45-.02Zm.49,5.01c.75,0,1.39-.17,1.92-.5,.53-.33,.79-.75,.79-1.24s-.38-.76-1.13-.76c-.25,0-.68,.01-1.29,.04-.39,.02-.69,.03-.91,.03-.11,0-.27,.09-.5,.26-.23,.18-.4,.35-.52,.53-.12,.18-.18,.36-.18,.55,0,.3,.17,.55,.5,.77,.33,.21,.77,.32,1.31,.32Zm-.04-5.88c.42,0,.76-.15,1.03-.44,.27-.29,.4-.67,.4-1.14,0-.49-.13-.88-.39-1.16-.26-.28-.61-.42-1.04-.42-.41,0-.75,.15-1.02,.44-.28,.29-.41,.67-.41,1.14s.14,.84,.41,1.13c.28,.3,.62,.44,1.02,.44Z"/><path d="M32.6,1092.53h-1.27v2.39h-1.2v-2.39h-4.5v-.92l4.08-7.03h1.62v6.9h1.27v1.05Zm-2.48-1.05v-5.71l-3.28,5.71h3.28Z"/><path d="M64.23,1094.91h-5.62v-10.33h1.2v9.29h4.42v1.05Z"/><path d="M73.38,1094.91h-1.14c-.09-.31-.14-.72-.14-1.23-.65,.95-1.53,1.43-2.65,1.43-.57,0-1.07-.2-1.5-.6-.43-.4-.65-.92-.65-1.56,0-.38,.08-.71,.23-1s.37-.53,.67-.73c.29-.2,.65-.35,1.07-.47,.42-.12,.92-.19,1.49-.24l1.28-.1v-.37c0-1.31-.61-1.96-1.83-1.96-.29,0-.65,.06-1.09,.19-.44,.12-.82,.27-1.14,.44l-.3-.82c1.04-.53,2.01-.8,2.9-.8,1.74,0,2.61,.92,2.61,2.76v3.28c0,.66,.06,1.25,.19,1.77Zm-1.33-2.26v-1.38c-1.03,.09-1.74,.18-2.12,.26-.38,.08-.72,.23-1,.45-.28,.22-.42,.52-.42,.89,0,.34,.12,.62,.36,.83s.54,.32,.92,.32c.41,0,.81-.12,1.21-.36,.4-.24,.75-.57,1.05-1Z"/><path d="M82.18,1094.91h-1.14v-1.13c-.82,.87-1.68,1.31-2.59,1.31-1.43,0-2.15-.87-2.15-2.6v-5.21h1.14v4.89c0,.65,.1,1.13,.31,1.45,.21,.32,.55,.48,1.04,.48,.7,0,1.45-.43,2.25-1.3v-5.51h1.14v7.63Z"/><path d="M91.19,1094.91h-1.14v-4.89c0-.68-.11-1.17-.33-1.48-.22-.31-.56-.46-1.02-.46-.7,0-1.45,.43-2.25,1.3v5.52h-1.14v-7.63h1.14v1.12c.82-.87,1.68-1.3,2.59-1.3,1.43,0,2.15,.86,2.15,2.59v5.22Z"/><path d="M100.17,1094.91h-1.14v-1.1c-.23,.38-.57,.69-1.01,.93-.44,.24-.9,.37-1.38,.37-.87,0-1.56-.39-2.07-1.17-.51-.78-.76-1.77-.76-2.96,0-1.12,.26-2.04,.79-2.78,.53-.73,1.23-1.1,2.11-1.1,.96,0,1.74,.39,2.32,1.17v-3.69h1.14v10.33Zm-1.14-2.34v-3.17c-.55-.88-1.21-1.32-1.98-1.32-.63,0-1.13,.28-1.49,.84-.37,.56-.55,1.27-.55,2.12s.17,1.61,.52,2.18c.34,.57,.82,.86,1.42,.86,.29,0,.58-.08,.87-.23,.29-.16,.57-.39,.83-.7,.26-.31,.39-.5,.39-.57Z"/><path d="M109.31,1087.49l-.46,1.1c-.5-.22-.94-.33-1.3-.33-.34,0-.67,.1-.99,.29-.32,.19-.62,.47-.89,.83-.27,.36-.41,.56-.41,.6v4.94h-1.14v-7.63h1.14v1.55c.61-1.15,1.4-1.73,2.37-1.73,.58,0,1.14,.13,1.68,.39Z"/><path d="M118.54,1087.28l-2.89,7.63c-.42,1.12-.84,1.91-1.25,2.35-.41,.44-.88,.67-1.41,.67-.47,0-.93-.09-1.39-.26l.19-.92c.37,.12,.7,.18,1,.18,.41,0,.75-.16,1.01-.48s.53-.84,.8-1.56l-2.86-7.62h1.25l2.16,6.09,2.16-6.09h1.25Z"/></g><g><path d="M200.48,1022.75c.33-.09,.66-.13,.97-.13,.98,0,1.75,.3,2.31,.9,.57,.6,.85,1.34,.85,2.24,0,.94-.33,1.73-.99,2.38-.66,.65-1.46,.98-2.41,.98s-1.66-.15-2.27-.45l.24-1.02c.66,.28,1.35,.42,2.06,.42,.63,0,1.14-.2,1.53-.61,.39-.41,.58-.97,.58-1.7,0-.69-.18-1.22-.55-1.59-.37-.37-.84-.56-1.41-.56-.42,0-.83,.08-1.25,.24l-.72-.33v-4.94h4.72v1.05h-3.68v3.12Z"/><path d="M237.98,1018.58l-1.32,10.33h-1.11l-1.76-5.82-1.75,5.82h-1.14l-1.29-10.33h1.19l.87,8.4,1.52-5.08h1.2l1.53,5.1,.89-8.42h1.17Z"/><path d="M246.14,1028.27c-.81,.56-1.75,.84-2.82,.84-1.34,0-2.35-.46-3.05-1.38-.7-.92-1.04-2.25-1.04-3.98s.34-2.99,1.01-3.94c.67-.95,1.7-1.42,3.08-1.42,.5,0,.99,.06,1.48,.19s.88,.3,1.18,.51l-.4,.94c-.69-.39-1.44-.59-2.26-.59-.95,0-1.66,.35-2.12,1.04-.46,.69-.7,1.78-.7,3.28,0,2.87,.94,4.31,2.82,4.31,.8,0,1.61-.24,2.45-.73l.37,.95Z"/><path d="M199.95,1045.53c.64-.52,1.35-.78,2.1-.78,.87,0,1.6,.28,2.19,.84,.58,.56,.88,1.28,.88,2.16,0,.97-.26,1.78-.78,2.41s-1.21,.95-2.07,.95c-1.1,0-1.98-.51-2.62-1.52-.64-1.01-.97-2.25-.97-3.72,0-1.56,.34-2.87,1.01-3.92s1.59-1.58,2.76-1.58c.81,0,1.5,.12,2.09,.36l-.19,1.07c-.68-.25-1.3-.37-1.86-.37-.8,0-1.42,.38-1.86,1.14s-.67,1.75-.67,2.95Zm.04,1.03c0,.88,.21,1.69,.62,2.41,.42,.72,.94,1.08,1.57,1.08,.53,0,.94-.19,1.23-.59,.29-.39,.43-.93,.43-1.62,0-.63-.16-1.14-.48-1.5-.32-.37-.76-.55-1.34-.55-.75,0-1.43,.25-2.04,.76Z"/><path d="M235.03,1045.25c.69,.16,1.23,.47,1.62,.94s.59,1.02,.59,1.66c0,.94-.34,1.68-1.02,2.24-.68,.56-1.5,.83-2.46,.83h-2.94v-10.33h2.86c1,0,1.77,.22,2.34,.66,.56,.44,.84,1.05,.84,1.85,0,.49-.16,.92-.49,1.3s-.77,.66-1.34,.83v.03Zm-3.01-.56h1.41c1.47,0,2.2-.52,2.2-1.58,0-.48-.18-.85-.54-1.1-.36-.26-.89-.38-1.59-.38h-1.48v3.06Zm0,5.18h1.36c.8,0,1.43-.18,1.89-.54,.47-.36,.7-.86,.7-1.49,0-.67-.23-1.19-.69-1.55s-1.12-.55-1.99-.55h-1.27v4.13Z"/><path d="M245.98,1047.14h-5.24c0,.86,.25,1.58,.75,2.14,.5,.56,1.11,.84,1.84,.84s1.41-.12,2.15-.37l.2,.92c-.67,.3-1.46,.45-2.36,.45-1.13,0-2.05-.36-2.74-1.09s-1.04-1.71-1.04-2.94,.31-2.18,.93-2.9c.62-.72,1.43-1.08,2.41-1.08,.88,0,1.61,.33,2.2,1s.89,1.56,.89,2.67v.36Zm-1.25-.93c0-.6-.19-1.1-.56-1.51-.37-.41-.79-.61-1.25-.61-.59,0-1.08,.2-1.47,.59-.39,.39-.6,.9-.65,1.53h3.92Z"/><path d="M254.72,1050.91h-1.14v-1.1c-.23,.38-.57,.69-1.01,.93-.44,.24-.9,.37-1.38,.37-.87,0-1.56-.39-2.07-1.17-.51-.78-.76-1.77-.76-2.96,0-1.12,.26-2.04,.79-2.78,.53-.73,1.23-1.1,2.11-1.1,.96,0,1.74,.39,2.32,1.17v-3.69h1.14v10.33Zm-1.14-2.34v-3.17c-.55-.88-1.21-1.32-1.98-1.32-.63,0-1.13,.28-1.49,.84-.37,.56-.55,1.27-.55,2.12s.17,1.61,.52,2.18c.34,.57,.82,.86,1.42,.86,.29,0,.58-.08,.87-.23,.29-.16,.57-.39,.83-.7,.26-.31,.39-.5,.39-.57Z"/><path d="M204.89,1063.44l-4.09,9.48h-1.23l4.04-9.29h-4.84v-1.05h6.13v.86Z"/><path d="M235.03,1067.25c.69,.16,1.23,.47,1.62,.94s.59,1.02,.59,1.66c0,.94-.34,1.68-1.02,2.24-.68,.56-1.5,.83-2.46,.83h-2.94v-10.33h2.86c1,0,1.77,.22,2.34,.66,.56,.44,.84,1.05,.84,1.85,0,.49-.16,.92-.49,1.3s-.77,.66-1.34,.83v.03Zm-3.01-.56h1.41c1.47,0,2.2-.52,2.2-1.58,0-.48-.18-.85-.54-1.1-.36-.26-.89-.38-1.59-.38h-1.48v3.06Zm0,5.18h1.36c.8,0,1.43-.18,1.89-.54,.47-.36,.7-.86,.7-1.49,0-.67-.23-1.19-.69-1.55s-1.12-.55-1.99-.55h-1.27v4.13Z"/><path d="M245.94,1072.91h-1.14c-.09-.31-.14-.72-.14-1.23-.65,.95-1.53,1.43-2.65,1.43-.57,0-1.07-.2-1.5-.6-.43-.4-.65-.92-.65-1.56,0-.38,.08-.71,.23-1s.37-.53,.67-.73c.29-.2,.65-.35,1.07-.47,.42-.12,.92-.19,1.49-.24l1.28-.1v-.37c0-1.31-.61-1.96-1.83-1.96-.29,0-.65,.06-1.09,.19-.44,.12-.82,.27-1.14,.44l-.3-.82c1.04-.53,2.01-.8,2.9-.8,1.74,0,2.61,.92,2.61,2.76v3.28c0,.66,.06,1.25,.19,1.77Zm-1.33-2.26v-1.38c-1.03,.09-1.74,.18-2.12,.26-.38,.08-.72,.23-1,.45-.28,.22-.42,.52-.42,.89,0,.34,.12,.62,.36,.83s.54,.32,.92,.32c.41,0,.81-.12,1.21-.36,.4-.24,.75-.57,1.05-1Z"/><path d="M254.82,1072.57c-.77,.35-1.52,.53-2.26,.53-1.36,0-2.04-.72-2.04-2.16v-4.67h-1.46v-.99h1.46v-2.09h1.11v2.09h2.59v.99h-2.59v4.37c0,.46,.1,.82,.31,1.08,.21,.26,.48,.38,.83,.38,.62,0,1.24-.14,1.85-.42l.2,.89Z"/><path d="M263.75,1072.91h-1.14v-4.89c0-.68-.11-1.17-.33-1.48-.22-.31-.56-.46-1.02-.46-.7,0-1.45,.43-2.25,1.3v5.52h-1.14v-10.33h1.14v3.82c.82-.87,1.68-1.3,2.59-1.3,1.43,0,2.15,.86,2.15,2.59v5.22Z"/><path d="M272.87,1065.49l-.46,1.1c-.5-.22-.94-.33-1.3-.33-.34,0-.67,.1-.99,.29-.32,.19-.62,.47-.89,.83-.27,.36-.41,.56-.41,.6v4.94h-1.14v-7.63h1.14v1.55c.61-1.15,1.4-1.73,2.37-1.73,.58,0,1.14,.13,1.68,.39Z"/><path d="M278.8,1065.1c1.05,0,1.88,.37,2.5,1.1s.93,1.7,.93,2.89-.31,2.18-.93,2.92-1.46,1.11-2.5,1.11-1.89-.37-2.51-1.1c-.62-.74-.93-1.71-.93-2.92s.31-2.17,.93-2.9c.62-.73,1.46-1.09,2.5-1.09Zm0,7.02c.69,0,1.24-.29,1.64-.88s.6-1.3,.6-2.13c0-.88-.2-1.6-.59-2.17s-.94-.85-1.65-.85-1.26,.28-1.65,.84c-.39,.56-.59,1.29-.59,2.18s.2,1.56,.59,2.14c.4,.58,.94,.87,1.64,.87Z"/><path d="M287.8,1065.1c1.05,0,1.88,.37,2.5,1.1s.93,1.7,.93,2.89-.31,2.18-.93,2.92-1.46,1.11-2.5,1.11-1.89-.37-2.51-1.1c-.62-.74-.93-1.71-.93-2.92s.31-2.17,.93-2.9c.62-.73,1.46-1.09,2.5-1.09Zm0,7.02c.69,0,1.24-.29,1.64-.88s.6-1.3,.6-2.13c0-.88-.2-1.6-.59-2.17s-.94-.85-1.65-.85-1.26,.28-1.65,.84c-.39,.56-.59,1.29-.59,2.18s.2,1.56,.59,2.14c.4,.58,.94,.87,1.64,.87Z"/><path d="M300.36,1072.91h-1.14v-5.01c0-1.21-.22-1.82-.67-1.82-.23,0-.48,.21-.76,.63-.28,.42-.41,.65-.41,.69v5.51h-1.14v-5.01c0-1.21-.23-1.82-.68-1.82-.22,0-.48,.21-.75,.63-.28,.42-.41,.65-.41,.69v5.51h-1.14v-7.63h1.1v1.15c.21-.4,.47-.73,.77-.97,.3-.24,.59-.36,.88-.36,.31,0,.58,.12,.83,.36,.24,.24,.41,.57,.51,.97,.21-.4,.47-.73,.77-.97,.3-.24,.59-.36,.88-.36,.92,0,1.38,.83,1.38,2.47v5.34Z"/><path d="M202.84,1089.25c.7,.21,1.25,.55,1.64,1.05,.39,.49,.58,1.07,.58,1.73,0,.95-.31,1.7-.94,2.26-.63,.56-1.4,.83-2.32,.83s-1.75-.28-2.37-.84c-.62-.56-.93-1.31-.93-2.23,0-.65,.2-1.23,.6-1.73s.96-.85,1.68-1.06c-.57-.15-1.03-.43-1.37-.85-.34-.42-.52-.88-.52-1.4,0-.66,.26-1.27,.79-1.8,.53-.54,1.22-.81,2.09-.81s1.56,.27,2.12,.81,.84,1.14,.84,1.81c0,.5-.18,.97-.53,1.39-.35,.42-.81,.71-1.36,.86Zm-1.07,.53c-1.34,.39-2.01,1.13-2.01,2.2,0,.63,.2,1.13,.61,1.51,.41,.38,.88,.57,1.43,.57s1.04-.19,1.43-.56c.39-.37,.58-.88,.58-1.52,0-.48-.13-.92-.4-1.3-.27-.38-.82-.68-1.64-.9Zm0-1.03s.14-.03,.35-.09,.39-.13,.54-.22c.15-.09,.29-.19,.41-.33s.23-.29,.31-.46c.08-.18,.12-.38,.12-.6,0-.47-.17-.86-.51-1.17-.34-.31-.74-.46-1.22-.46s-.86,.16-1.19,.48-.5,.7-.5,1.16c0,.29,.06,.54,.18,.75s.27,.39,.45,.52c.18,.13,.38,.23,.62,.31,.23,.07,.38,.11,.45,.11Z"/><path d="M235.99,1085.72c-.62-.21-1.2-.32-1.75-.32-.62,0-1.13,.14-1.53,.43-.39,.29-.59,.69-.59,1.22,0,.63,.52,1.17,1.55,1.65,.76,.35,1.27,.6,1.51,.73,.25,.14,.5,.33,.75,.56s.46,.52,.61,.85c.15,.32,.23,.69,.23,1.09,0,1.01-.34,1.79-1.01,2.34-.68,.55-1.47,.83-2.39,.83s-1.67-.18-2.34-.53l.25-1.03c.79,.36,1.47,.53,2.06,.53,.68,0,1.23-.18,1.64-.53,.41-.35,.62-.84,.62-1.46,0-.46-.13-.85-.4-1.17-.27-.32-.76-.65-1.49-.98-.74-.34-1.22-.58-1.44-.7-.22-.12-.43-.3-.65-.52s-.38-.47-.5-.74c-.12-.27-.18-.57-.18-.89,0-.85,.31-1.52,.92-2s1.39-.72,2.34-.72c.69,0,1.37,.11,2.05,.32l-.27,1.03Z"/><path d="M243.85,1094.91h-1.14v-6.64h-2.25v-.99h3.39v7.63Zm-.56-10.52c.21,0,.4,.08,.55,.23,.15,.15,.23,.34,.23,.55,0,.23-.07,.41-.22,.56s-.33,.23-.55,.23c-.2,0-.38-.08-.53-.24-.15-.16-.23-.34-.23-.55s.08-.39,.23-.55c.15-.16,.33-.23,.53-.23Z"/><path d="M254.82,1094.57c-.77,.35-1.52,.53-2.26,.53-1.36,0-2.04-.72-2.04-2.16v-4.67h-1.46v-.99h1.46v-2.09h1.11v2.09h2.59v.99h-2.59v4.37c0,.46,.1,.82,.31,1.08,.21,.26,.48,.38,.83,.38,.62,0,1.24-.14,1.85-.42l.2,.89Z"/><path d="M263.83,1094.57c-.77,.35-1.52,.53-2.26,.53-1.36,0-2.04-.72-2.04-2.16v-4.67h-1.46v-.99h1.46v-2.09h1.11v2.09h2.59v.99h-2.59v4.37c0,.46,.1,.82,.31,1.08,.21,.26,.48,.38,.83,.38,.62,0,1.24-.14,1.85-.42l.2,.89Z"/><path d="M270.85,1094.91h-1.14v-6.64h-2.25v-.99h3.39v7.63Zm-.56-10.52c.21,0,.4,.08,.55,.23,.15,.15,.23,.34,.23,.55,0,.23-.07,.41-.22,.56s-.33,.23-.55,.23c-.2,0-.38-.08-.53-.24-.15-.16-.23-.34-.23-.55s.08-.39,.23-.55c.15-.16,.33-.23,.53-.23Z"/><path d="M281.76,1094.91h-1.14v-4.89c0-.68-.11-1.17-.33-1.48-.22-.31-.56-.46-1.02-.46-.7,0-1.45,.43-2.25,1.3v5.52h-1.14v-7.63h1.14v1.12c.82-.87,1.68-1.3,2.59-1.3,1.43,0,2.15,.86,2.15,2.59v5.22Z"/><path d="M286.99,1092.04c-.71,.35-1.07,.65-1.07,.92,0,.14,.08,.26,.25,.36s.39,.15,.67,.15l2.57-.07c.61,0,1.08,.15,1.42,.45,.34,.3,.51,.72,.51,1.27,0,.86-.39,1.55-1.16,2.06-.77,.51-1.67,.77-2.7,.77-.84,0-1.54-.18-2.07-.53-.54-.35-.81-.81-.81-1.37,0-.61,.42-1.12,1.25-1.54-.69-.32-1.03-.72-1.03-1.19,0-.54,.44-1.04,1.33-1.5-.41-.25-.73-.57-.94-.97s-.33-.81-.33-1.25c0-.72,.24-1.31,.73-1.77,.49-.46,1.1-.69,1.83-.69,.53,0,1,.11,1.43,.33l2.26-.34v1.11h-1.46c.22,.39,.33,.84,.33,1.36,0,.69-.24,1.28-.73,1.76-.48,.48-1.1,.72-1.84,.72-.16,0-.31,0-.45-.02Zm.49,5.01c.75,0,1.39-.17,1.92-.5,.53-.33,.79-.75,.79-1.24s-.38-.76-1.13-.76c-.25,0-.68,.01-1.29,.04-.39,.02-.69,.03-.91,.03-.11,0-.27,.09-.5,.26-.23,.18-.4,.35-.52,.53-.12,.18-.18,.36-.18,.55,0,.3,.17,.55,.5,.77,.33,.21,.77,.32,1.31,.32Zm-.04-5.88c.42,0,.76-.15,1.03-.44,.27-.29,.4-.67,.4-1.14,0-.49-.13-.88-.39-1.16-.26-.28-.61-.42-1.04-.42-.41,0-.75,.15-1.02,.44-.28,.29-.41,.67-.41,1.14s.14,.84,.41,1.13c.28,.3,.62,.44,1.02,.44Z"/></g><g><path d="M373.77,1023.95c-.6,.52-1.3,.78-2.1,.78-.87,0-1.6-.28-2.19-.84-.58-.56-.88-1.28-.88-2.17,0-.95,.28-1.74,.84-2.39,.56-.65,1.28-.97,2.16-.97,1.08,0,1.92,.49,2.53,1.48s.91,2.24,.91,3.76-.35,2.81-1.07,3.89c-.71,1.07-1.66,1.61-2.85,1.61-.8,0-1.49-.12-2.08-.37l.19-1.06c.67,.25,1.29,.37,1.86,.37,.81,0,1.46-.39,1.94-1.18s.73-1.76,.73-2.92Zm-.03-1.03c0-.93-.19-1.74-.56-2.44-.38-.7-.87-1.05-1.48-1.05-.55,0-.99,.2-1.32,.61-.33,.41-.49,.94-.49,1.59,0,.6,.17,1.09,.5,1.48,.33,.38,.77,.58,1.31,.58,.75,0,1.4-.23,1.95-.69l.1-.07Z"/><path d="M406.57,1028.91h-5.4v-10.33h5.35v1.05h-4.15v3.2h3.99v1.05h-3.99v3.99h4.2v1.05Z"/><path d="M415.75,1028.91h-1.14v-4.89c0-.68-.11-1.17-.33-1.48-.22-.31-.56-.46-1.02-.46-.7,0-1.45,.43-2.25,1.3v5.52h-1.14v-7.63h1.14v1.12c.82-.87,1.68-1.3,2.59-1.3,1.43,0,2.15,.86,2.15,2.59v5.22Z"/><path d="M424.82,1028.57c-.77,.35-1.52,.53-2.26,.53-1.36,0-2.04-.72-2.04-2.16v-4.67h-1.46v-.99h1.46v-2.09h1.11v2.09h2.59v.99h-2.59v4.37c0,.46,.1,.82,.31,1.08,.21,.26,.48,.38,.83,.38,.62,0,1.24-.14,1.85-.42l.2,.89Z"/><path d="M433.87,1021.49l-.46,1.1c-.5-.22-.94-.33-1.3-.33-.34,0-.67,.1-.99,.29-.32,.19-.62,.47-.89,.83-.27,.36-.41,.56-.41,.6v4.94h-1.14v-7.63h1.14v1.55c.61-1.15,1.4-1.73,2.37-1.73,.58,0,1.14,.13,1.68,.39Z"/><path d="M443.1,1021.28l-2.89,7.63c-.42,1.12-.84,1.91-1.25,2.35-.41,.44-.88,.67-1.41,.67-.47,0-.93-.09-1.39-.26l.19-.92c.37,.12,.7,.18,1,.18,.41,0,.75-.16,1.01-.48s.53-.84,.8-1.56l-2.86-7.62h1.25l2.16,6.09,2.16-6.09h1.25Z"/><path d="M374.76,1050.91h-5.43v-1.05h2.19v-8.03l-2.07,1.03v-1.2l2.23-1.15h1.03v9.35h2.04v1.05Z"/><path d="M380.79,1040.38c1.09,0,1.93,.47,2.52,1.41,.59,.94,.88,2.26,.88,3.96s-.29,2.95-.86,3.92c-.57,.96-1.42,1.45-2.55,1.45s-1.93-.47-2.52-1.41-.89-2.26-.89-3.96,.29-2.96,.86-3.92c.57-.96,1.42-1.45,2.54-1.45Zm0,9.67c.72,0,1.26-.34,1.61-1.03,.35-.69,.52-1.78,.52-3.28s-.17-2.6-.52-3.28c-.35-.68-.88-1.02-1.61-1.02s-1.25,.35-1.6,1.05c-.35,.7-.53,1.78-.53,3.25s.17,2.58,.52,3.27c.35,.69,.88,1.04,1.6,1.04Zm-.03-5.4c.31,0,.57,.11,.78,.32s.32,.47,.32,.78-.11,.59-.32,.82c-.21,.23-.47,.34-.78,.34s-.55-.11-.77-.34c-.21-.23-.32-.5-.32-.82s.1-.57,.31-.78c.21-.21,.46-.31,.77-.31Z"/><path d="M400.82,1040.58h2.04c1.35,0,2.44,.46,3.25,1.38,.82,.92,1.22,2.18,1.22,3.79s-.41,2.91-1.24,3.81c-.83,.9-1.89,1.35-3.18,1.35h-2.09v-10.33Zm1.2,9.29h.85c.98,0,1.76-.36,2.33-1.09s.86-1.74,.86-3.03-.29-2.29-.86-3.02c-.57-.74-1.35-1.1-2.33-1.1h-.85v8.24Z"/><path d="M415.98,1047.14h-5.24c0,.86,.25,1.58,.75,2.14,.5,.56,1.11,.84,1.84,.84s1.41-.12,2.15-.37l.2,.92c-.67,.3-1.46,.45-2.36,.45-1.13,0-2.05-.36-2.74-1.09s-1.04-1.71-1.04-2.94,.31-2.18,.93-2.9c.62-.72,1.43-1.08,2.41-1.08,.88,0,1.61,.33,2.2,1s.89,1.56,.89,2.67v.36Zm-1.25-.93c0-.6-.19-1.1-.56-1.51-.37-.41-.79-.61-1.25-.61-.59,0-1.08,.2-1.47,.59-.39,.39-.6,.9-.65,1.53h3.92Z"/><path d="M424.72,1050.66c-.66,.3-1.39,.45-2.19,.45-1.2,0-2.16-.36-2.87-1.09-.72-.73-1.07-1.7-1.07-2.91s.36-2.18,1.08-2.91c.72-.73,1.67-1.09,2.84-1.09,.77,0,1.5,.13,2.19,.4l-.3,.95c-.69-.24-1.32-.36-1.88-.36-.84,0-1.51,.27-2,.81-.49,.54-.74,1.28-.74,2.21,0,.85,.25,1.56,.76,2.14,.51,.58,1.17,.87,1.98,.87,.64,0,1.31-.12,1.99-.37l.2,.92Z"/><path d="M434.5,1050.91h-1.5l-3.24-3.79-.75,.64v3.15h-1.14v-10.33h1.14v5.92l3.58-3.22h1.46l-3.48,3.12,3.93,4.51Z"/></g><circle class="cls-1" cx="765.53" cy="1024.02" r="11.44"/><line class="cls-1" x1="765.53" y1="1024.02" x2="765.53" y2="1035.46"/><path d="M486.51,304.62h-5.43v-1.05h2.19v-8.03l-2.07,1.03v-1.2l2.23-1.15h1.03v9.35h2.04v1.05Z"/><path d="M484.2,185.21c.63,.18,1.14,.5,1.52,.96,.38,.47,.57,.99,.57,1.57,0,.91-.35,1.67-1.06,2.29-.71,.62-1.54,.93-2.5,.93-.82,0-1.56-.18-2.2-.54l.23-.99c.68,.32,1.35,.48,2.01,.48,.62,0,1.16-.19,1.6-.58,.44-.39,.66-.89,.66-1.5s-.24-1.09-.71-1.46c-.47-.38-1.1-.56-1.88-.56h-.31v-.99h.09c.75,0,1.37-.18,1.86-.53,.49-.35,.73-.83,.73-1.43,0-.49-.18-.87-.53-1.15-.35-.28-.83-.41-1.45-.41-.53,0-1.13,.14-1.79,.43l-.16-1.03c.66-.3,1.33-.45,2.01-.45,.92,0,1.68,.24,2.28,.73,.6,.49,.9,1.11,.9,1.87,0,.53-.18,1.02-.55,1.48-.36,.46-.8,.74-1.31,.86v.04Z"/><path d="M320.77,243.25h-5.68v-.87c1.44-1.61,2.38-2.68,2.81-3.23s.78-1.12,1.05-1.72c.27-.6,.4-1.2,.4-1.79s-.17-1.03-.52-1.36c-.35-.33-.84-.5-1.47-.5-.48,0-1.13,.15-1.95,.45l-.17-1.03c.74-.31,1.51-.47,2.31-.47,.92,0,1.67,.26,2.23,.78,.56,.52,.85,1.21,.85,2.08,0,.62-.15,1.24-.44,1.85s-.66,1.2-1.12,1.76-1.34,1.57-2.65,3.02h4.35v1.05Z"/><path d="M401.83,119.68c-.6,.52-1.3,.78-2.1,.78-.87,0-1.6-.28-2.19-.84-.58-.56-.88-1.28-.88-2.17,0-.95,.28-1.74,.84-2.39,.56-.65,1.28-.97,2.16-.97,1.08,0,1.92,.49,2.53,1.48s.91,2.24,.91,3.76-.35,2.81-1.07,3.89c-.71,1.07-1.66,1.61-2.85,1.61-.8,0-1.49-.12-2.08-.37l.19-1.06c.67,.25,1.29,.37,1.86,.37,.81,0,1.46-.39,1.94-1.18s.73-1.76,.73-2.92Zm-.03-1.03c0-.93-.19-1.74-.56-2.44-.38-.7-.87-1.05-1.48-1.05-.55,0-.99,.2-1.32,.61-.33,.41-.49,.94-.49,1.59,0,.6,.17,1.09,.5,1.48,.33,.38,.77,.58,1.31,.58,.75,0,1.4-.23,1.95-.69l.1-.07Z"/><path d="M330.68,469.32h-1.27v2.39h-1.2v-2.39h-4.5v-.92l4.08-7.03h1.62v6.9h1.27v1.05Zm-2.48-1.05v-5.71l-3.28,5.71h3.28Z"/><path d="M323.63,536.52c.33-.09,.66-.13,.97-.13,.98,0,1.75,.3,2.31,.9,.57,.6,.85,1.34,.85,2.24,0,.94-.33,1.73-.99,2.38-.66,.65-1.46,.98-2.41,.98s-1.66-.15-2.27-.45l.24-1.02c.66,.28,1.35,.42,2.06,.42,.63,0,1.14-.2,1.53-.61,.39-.41,.58-.97,.58-1.7,0-.69-.18-1.22-.55-1.59-.37-.37-.84-.56-1.41-.56-.42,0-.83,.08-1.25,.24l-.72-.33v-4.94h4.72v1.05h-3.68v3.12Z"/><g><path d="M398.32,76.9h-5.43v-1.05h2.19v-8.03l-2.07,1.03v-1.2l2.23-1.15h1.03v9.35h2.04v1.05Z"/><path d="M404.35,66.37c1.09,0,1.93,.47,2.52,1.41,.59,.94,.88,2.26,.88,3.96s-.29,2.95-.86,3.92c-.57,.96-1.42,1.45-2.55,1.45s-1.93-.47-2.52-1.41-.89-2.26-.89-3.96,.29-2.96,.86-3.92c.57-.96,1.42-1.45,2.54-1.45Zm0,9.67c.72,0,1.26-.34,1.61-1.03,.35-.69,.52-1.78,.52-3.28s-.17-2.6-.52-3.28c-.35-.68-.88-1.02-1.61-1.02s-1.25,.35-1.6,1.05c-.35,.7-.53,1.78-.53,3.25s.17,2.58,.52,3.27c.35,.69,.88,1.04,1.6,1.04Zm-.03-5.4c.31,0,.57,.11,.78,.32s.32,.47,.32,.78-.11,.59-.32,.82c-.21,.23-.47,.34-.78,.34s-.55-.11-.77-.34c-.21-.23-.32-.5-.32-.82s.1-.57,.31-.78c.21-.21,.46-.31,.77-.31Z"/></g><g><path d="M459.19,527.73h-5.43v-1.05h2.19v-8.03l-2.07,1.03v-1.2l2.23-1.15h1.03v9.35h2.04v1.05Z"/><path d="M465.22,517.2c1.09,0,1.93,.47,2.52,1.41,.59,.94,.88,2.26,.88,3.96s-.29,2.95-.86,3.92c-.57,.96-1.42,1.45-2.55,1.45s-1.93-.47-2.52-1.41-.89-2.26-.89-3.96,.29-2.96,.86-3.92c.57-.96,1.42-1.45,2.54-1.45Zm0,9.67c.72,0,1.26-.34,1.61-1.03,.35-.69,.52-1.78,.52-3.28s-.17-2.6-.52-3.28c-.35-.68-.88-1.02-1.61-1.02s-1.25,.35-1.6,1.05c-.35,.7-.53,1.78-.53,3.25s.17,2.58,.52,3.27c.35,.69,.88,1.04,1.6,1.04Zm-.03-5.4c.31,0,.57,.11,.78,.32s.32,.47,.32,.78-.11,.59-.32,.82c-.21,.23-.47,.34-.78,.34s-.55-.11-.77-.34c-.21-.23-.32-.5-.32-.82s.1-.57,.31-.78c.21-.21,.46-.31,.77-.31Z"/></g><path d="M469.11,755.53c.64-.52,1.35-.78,2.1-.78,.87,0,1.6,.28,2.19,.84,.58,.56,.88,1.28,.88,2.16,0,.97-.26,1.78-.78,2.41s-1.21,.95-2.07,.95c-1.1,0-1.98-.51-2.62-1.52-.64-1.01-.97-2.25-.97-3.72,0-1.56,.34-2.87,1.01-3.92s1.59-1.58,2.76-1.58c.81,0,1.5,.12,2.09,.36l-.19,1.07c-.68-.25-1.3-.37-1.86-.37-.8,0-1.42,.38-1.86,1.14s-.67,1.75-.67,2.95Zm.04,1.03c0,.88,.21,1.69,.62,2.41,.42,.72,.94,1.08,1.57,1.08,.53,0,.94-.19,1.23-.59,.29-.39,.43-.93,.43-1.62,0-.63-.16-1.14-.48-1.5-.32-.37-.76-.55-1.34-.55-.75,0-1.43,.25-2.04,.76Z"/><path d="M354.01,716.17c.7,.21,1.25,.55,1.64,1.05,.39,.49,.58,1.07,.58,1.73,0,.95-.31,1.7-.94,2.26-.63,.56-1.4,.83-2.32,.83s-1.75-.28-2.37-.84c-.62-.56-.93-1.31-.93-2.23,0-.65,.2-1.23,.6-1.73s.96-.85,1.68-1.06c-.57-.15-1.03-.43-1.37-.85-.34-.42-.52-.88-.52-1.4,0-.66,.26-1.27,.79-1.8,.53-.54,1.22-.81,2.09-.81s1.56,.27,2.12,.81,.84,1.14,.84,1.81c0,.5-.18,.97-.53,1.39-.35,.42-.81,.71-1.36,.86Zm-1.07,.53c-1.34,.39-2.01,1.13-2.01,2.2,0,.63,.2,1.13,.61,1.51,.41,.38,.88,.57,1.43,.57s1.04-.19,1.43-.56c.39-.37,.58-.88,.58-1.52,0-.48-.13-.92-.4-1.3-.27-.38-.82-.68-1.64-.9Zm0-1.03s.14-.03,.35-.09,.39-.13,.54-.22c.15-.09,.29-.19,.41-.33s.23-.29,.31-.46c.08-.18,.12-.38,.12-.6,0-.47-.17-.86-.51-1.17-.34-.31-.74-.46-1.22-.46s-.86,.16-1.19,.48-.5,.7-.5,1.16c0,.29,.06,.54,.18,.75s.27,.39,.45,.52c.18,.13,.38,.23,.62,.31,.23,.07,.38,.11,.45,.11Z"/><path d="M442.84,845.43l-4.09,9.48h-1.23l4.04-9.29h-4.84v-1.05h6.13v.86Z"/><path d="M427.03,890.83l-4.09,9.48h-1.23l4.04-9.29h-4.84v-1.05h6.13v.86Z"/><path d="M322.91,824.84c.64-.52,1.35-.78,2.1-.78,.87,0,1.6,.28,2.19,.84,.58,.56,.88,1.28,.88,2.16,0,.97-.26,1.78-.78,2.41s-1.21,.95-2.07,.95c-1.1,0-1.98-.51-2.62-1.52-.64-1.01-.97-2.25-.97-3.72,0-1.56,.34-2.87,1.01-3.92s1.59-1.58,2.76-1.58c.81,0,1.5,.12,2.09,.36l-.19,1.07c-.68-.25-1.3-.37-1.86-.37-.8,0-1.42,.38-1.86,1.14s-.67,1.75-.67,2.95Zm.04,1.03c0,.88,.21,1.69,.62,2.41,.42,.72,.94,1.08,1.57,1.08,.53,0,.94-.19,1.23-.59,.29-.39,.43-.93,.43-1.62,0-.63-.16-1.14-.48-1.5-.32-.37-.76-.55-1.34-.55-.75,0-1.43,.25-2.04,.76Z"/><g><path d="M305.73,605.17h-5.43v-1.05h2.19v-8.03l-2.07,1.03v-1.2l2.23-1.15h1.03v9.35h2.04v1.05Z"/><path d="M311.76,594.64c1.09,0,1.93,.47,2.52,1.41,.59,.94,.88,2.26,.88,3.96s-.29,2.95-.86,3.92c-.57,.96-1.42,1.45-2.55,1.45s-1.93-.47-2.52-1.41-.89-2.26-.89-3.96,.29-2.96,.86-3.92c.57-.96,1.42-1.45,2.54-1.45Zm0,9.67c.72,0,1.26-.34,1.61-1.03,.35-.69,.52-1.78,.52-3.28s-.17-2.6-.52-3.28c-.35-.68-.88-1.02-1.61-1.02s-1.25,.35-1.6,1.05c-.35,.7-.53,1.78-.53,3.25s.17,2.58,.52,3.27c.35,.69,.88,1.04,1.6,1.04Zm-.03-5.4c.31,0,.57,.11,.78,.32s.32,.47,.32,.78-.11,.59-.32,.82c-.21,.23-.47,.34-.78,.34s-.55-.11-.77-.34c-.21-.23-.32-.5-.32-.82s.1-.57,.31-.78c.21-.21,.46-.31,.77-.31Z"/></g></g></svg>