<?xml version="1.0" encoding="UTF-8"?><svg xmlns="http://www.w3.org/2000/svg" xmlns:xlink="http://www.w3.org/1999/xlink" viewBox="0 0 800 1120"><defs><style>.cls-1,.cls-2,.cls-3,.cls-4,.cls-5,.cls-6,.cls-7,.cls-8{fill:none;}.cls-2{stroke-width:.75px;}.cls-2,.cls-3,.cls-4,.cls-5,.cls-7{stroke:#231f20;}.cls-2,.cls-4,.cls-5,.cls-6,.cls-7,.cls-8{stroke-linecap:round;stroke-linejoin:round;}.cls-9{fill:url(#_10_lpi_10_);}.cls-3{stroke-width:.1px;}.cls-4{stroke-width:1.2px;}.cls-5{stroke-width:.24px;}.cls-6{stroke-width:.2px;}.cls-6,.cls-8{stroke:#5b5b5b;}.cls-7{stroke-width:.36px;}.cls-8{stroke-width:.1px;}</style><pattern id="_10_lpi_10_" x="0" y="0" width="72" height="72" patternTransform="translate(3435.49 -3444.75)" patternUnits="userSpaceOnUse" viewBox="0 0 72 72"><g><rect class="cls-1" width="72" height="72"/><g><line class="cls-3" x1="71.75" y1="68.4" x2="144.25" y2="68.4"/><line class="cls-3" x1="71.75" y1="54" x2="144.25" y2="54"/><line class="cls-3" x1="71.75" y1="39.6" x2="144.25" y2="39.6"/><line class="cls-3" x1="71.75" y1="25.2" x2="144.25" y2="25.2"/><line class="cls-3" x1="71.75" y1="10.8" x2="144.25" y2="10.8"/><line class="cls-3" x1="71.75" y1="61.2" x2="144.25" y2="61.2"/><line class="cls-3" x1="71.75" y1="46.8" x2="144.25" y2="46.8"/><line class="cls-3" x1="71.75" y1="32.4" x2="144.25" y2="32.4"/><line class="cls-3" x1="71.75" y1="18" x2="144.25" y2="18"/><line class="cls-3" x1="71.75" y1="3.6" x2="144.25" y2="3.6"/></g><g><line class="cls-3" x1="-.25" y1="68.4" x2="72.25" y2="68.4"/><line class="cls-3" x1="-.25" y1="54" x2="72.25" y2="54"/><line class="cls-3" x1="-.25" y1="39.6" x2="72.25" y2="39.6"/><line class="cls-3" x1="-.25" y1="25.2" x2="72.25" y2="25.2"/><line class="cls-3" x1="-.25" y1="10.8" x2="72.25" y2="10.8"/><line class="cls-3" x1="-.25" y1="61.2" x2="72.25" y2="61.2"/><line class="cls-3" x1="-.25" y1="46.8" x2="72.25" y2="46.8"/><line class="cls-3" x1="-.25" y1="32.4" x2="72.25" y2="32.4"/><line class="cls-3" x1="-.25" y1="18" x2="72.25" y2="18"/><line class="cls-3" x1="-.25" y1="3.6" x2="72.25" y2="3.6"/></g><g><line class="cls-3" x1="-72.25" y1="68.4" x2=".25" y2="68.4"/><line class="cls-3" x1="-72.25" y1="54" x2=".25" y2="54"/><line class="cls-3" x1="-72.25" y1="39.6" x2=".25" y2="39.6"/><line class="cls-3" x1="-72.25" y1="25.2" x2=".25" y2="25.2"/><line class="cls-3" x1="-72.25" y1="10.8" x2=".25" y2="10.8"/><line class="cls-3" x1="-72.25" y1="61.2" x2=".25" y2="61.2"/><line class="cls-3" x1="-72.25" y1="46.8" x2=".25" y2="46.8"/><line class="cls-3" x1="-72.25" y1="32.4" x2=".25" y2="32.4"/><line class="cls-3" x1="-72.25" y1="18" x2=".25" y2="18"/><line class="cls-3" x1="-72.25" y1="3.6" x2=".25" y2="3.6"/></g></g></pattern></defs><g id="Below"><path class="cls-6" d="M250.18,326.31c-.2,0-.39,.04-.58,.11-.2,.08-.38,.2-.53,.35-.15,.15-.27,.33-.35,.53-.07,.18-.11,.38-.11,.58s.04,.39,.11,.58c.08,.2,.2,.38,.35,.53,.15,.15,.33,.27,.53,.35,.18,.07,.38,.11,.58,.11s.39-.04,.58-.11c.2-.08,.38-.2,.53-.35s.27-.33,.35-.53c.07-.18,.11-.38,.11-.58s-.04-.39-.11-.58c-.08-.2-.2-.38-.35-.53s-.33-.27-.53-.35c-.18-.07-.38-.11-.58-.11Z"/><path class="cls-6" d="M250.18,280.1c-.2,0-.39,.04-.58,.11-.2,.08-.38,.2-.53,.35-.15,.15-.27,.33-.35,.53-.07,.18-.11,.38-.11,.58s.04,.39,.11,.58c.08,.2,.2,.38,.35,.53,.15,.15,.33,.27,.53,.35,.18,.07,.38,.11,.58,.11s.39-.04,.58-.11c.2-.08,.38-.2,.53-.35,.15-.15,.27-.33,.35-.53,.07-.18,.11-.38,.11-.58s-.04-.39-.11-.58c-.08-.2-.2-.38-.35-.53-.15-.15-.33-.27-.53-.35-.18-.07-.38-.11-.58-.11Z"/><line class="cls-6" x1="251.75" y1="281.66" x2="253.63" y2="281.66"/><path class="cls-6" d="M250.18,233.88c-.2,0-.39,.04-.58,.11-.2,.08-.38,.2-.53,.35-.15,.15-.27,.33-.35,.53-.07,.18-.11,.38-.11,.58s.04,.39,.11,.58c.08,.2,.2,.38,.35,.53,.15,.15,.33,.27,.53,.35,.18,.07,.38,.11,.58,.11s.39-.04,.58-.11c.2-.08,.38-.2,.53-.35,.15-.15,.27-.33,.35-.53,.07-.18,.11-.38,.11-.58s-.04-.39-.11-.58c-.08-.2-.2-.38-.35-.53-.15-.15-.33-.27-.53-.35-.18-.07-.38-.11-.58-.11Z"/><path class="cls-6" d="M250.18,187.67c-.2,0-.39,.04-.58,.11-.2,.08-.38,.2-.53,.35s-.27,.33-.35,.53c-.07,.18-.11,.38-.11,.58s.04,.39,.11,.58c.08,.2,.2,.38,.35,.53,.15,.15,.33,.27,.53,.35,.18,.07,.38,.11,.58,.11s.39-.04,.58-.11c.2-.08,.38-.2,.53-.35s.27-.33,.35-.53c.07-.18,.11-.38,.11-.58s-.04-.39-.11-.58c-.08-.2-.2-.38-.35-.53-.15-.15-.33-.27-.53-.35-.18-.07-.38-.11-.58-.11Z"/><line class="cls-6" x1="251.75" y1="189.24" x2="253.63" y2="189.24"/><path class="cls-6" d="M250.18,141.46c-.2,0-.39,.04-.58,.11-.2,.08-.38,.2-.53,.35-.15,.15-.27,.33-.35,.53-.07,.18-.11,.38-.11,.58s.04,.39,.11,.58c.08,.2,.2,.38,.35,.53s.33,.27,.53,.35c.18,.07,.38,.11,.58,.11s.39-.04,.58-.11c.2-.08,.38-.2,.53-.35,.15-.15,.27-.33,.35-.53,.07-.18,.11-.38,.11-.58s-.04-.39-.11-.58c-.08-.2-.2-.38-.35-.53s-.33-.27-.53-.35c-.18-.07-.38-.11-.58-.11Z"/><path class="cls-6" d="M250.18,95.25c-.2,0-.39,.04-.58,.11-.2,.08-.38,.2-.53,.35-.15,.15-.27,.33-.35,.53-.07,.18-.11,.38-.11,.58s.04,.39,.11,.58c.08,.2,.2,.38,.35,.53,.15,.15,.33,.27,.53,.35,.18,.07,.38,.11,.58,.11s.39-.04,.58-.11c.2-.08,.38-.2,.53-.35,.15-.15,.27-.33,.35-.53,.07-.18,.11-.38,.11-.58s-.04-.39-.11-.58c-.08-.2-.2-.38-.35-.53-.15-.15-.33-.27-.53-.35-.18-.07-.38-.11-.58-.11Z"/><line class="cls-6" x1="251.75" y1="96.81" x2="253.63" y2="96.81"/><line class="cls-6" x1="257.47" y1="89.22" x2="257.47" y2="91.18"/><line class="cls-6" x1="298.71" y1="89.22" x2="298.71" y2="91.18"/><line class="cls-6" x1="339.23" y1="89.22" x2="339.23" y2="91.18"/><line class="cls-6" x1="379.74" y1="89.22" x2="379.74" y2="91.18"/><line class="cls-6" x1="420.26" y1="89.22" x2="420.26" y2="91.18"/><line class="cls-6" x1="460.77" y1="89.22" x2="460.77" y2="91.18"/><line class="cls-6" x1="501.29" y1="89.22" x2="501.29" y2="91.18"/><line class="cls-6" x1="540.74" y1="89.22" x2="540.74" y2="91.18"/><line class="cls-6" x1="540.74" y1="86.16" x2="540.74" y2="58.64"/><line class="cls-6" x1="501.29" y1="86.16" x2="501.29" y2="58.64"/><line class="cls-6" x1="460.77" y1="86.16" x2="460.77" y2="58.64"/><line class="cls-6" x1="420.26" y1="86.16" x2="420.26" y2="58.64"/><line class="cls-6" x1="379.74" y1="86.16" x2="379.74" y2="58.64"/><line class="cls-6" x1="339.23" y1="86.16" x2="339.23" y2="58.64"/><line class="cls-6" x1="298.71" y1="86.16" x2="298.71" y2="58.64"/><line class="cls-6" x1="257.47" y1="86.16" x2="257.47" y2="58.64"/><polyline class="cls-6" points="253.63 91.18 253.63 52.04 546.37 52.04 546.37 91.18"/><path class="cls-6" d="M381.35,87.69c0,.19-.04,.39-.11,.57-.08,.2-.2,.37-.35,.52-.15,.15-.33,.26-.53,.34-.18,.07-.38,.11-.57,.11s-.39-.04-.57-.11c-.2-.08-.38-.19-.53-.34-.15-.15-.27-.32-.35-.52-.07-.18-.11-.37-.11-.57s.04-.39,.11-.57c.08-.2,.2-.37,.35-.52,.15-.15,.33-.26,.53-.34,.18-.07,.38-.11,.57-.11s.39,.04,.57,.11c.2,.08,.38,.19,.53,.34,.15,.15,.27,.32,.35,.52,.07,.18,.11,.37,.11,.57Z"/><path class="cls-6" d="M499.72,87.69c0,.19,.04,.39,.11,.57,.08,.2,.2,.37,.35,.52,.15,.15,.33,.26,.53,.34,.18,.07,.38,.11,.57,.11s.39-.04,.57-.11c.2-.08,.38-.19,.53-.34,.15-.15,.27-.32,.35-.52,.07-.18,.11-.37,.11-.57s-.04-.39-.11-.57c-.08-.2-.2-.37-.35-.52-.15-.15-.33-.26-.53-.34-.18-.07-.38-.11-.57-.11s-.39,.04-.57,.11c-.2,.08-.38,.19-.53,.34-.15,.15-.27,.32-.35,.52-.07,.18-.11,.37-.11,.57Z"/><path class="cls-6" d="M542.3,87.69c0,.19-.04,.39-.11,.57-.08,.2-.2,.37-.35,.52-.15,.15-.33,.26-.53,.34-.18,.07-.38,.11-.57,.11s-.39-.04-.57-.11c-.2-.08-.38-.19-.53-.34-.15-.15-.27-.32-.35-.52-.07-.18-.11-.37-.11-.57s.04-.39,.11-.57c.08-.2,.2-.37,.35-.52,.15-.15,.33-.26,.53-.34,.18-.07,.38-.11,.57-.11s.39,.04,.57,.11c.2,.08,.38,.19,.53,.34,.15,.15,.27,.32,.35,.52,.07,.18,.11,.37,.11,.57Z"/><path class="cls-6" d="M255.9,87.69c0,.19,.04,.39,.11,.57,.08,.2,.2,.37,.35,.52,.15,.15,.33,.26,.53,.34,.18,.07,.38,.11,.57,.11s.39-.04,.57-.11c.2-.08,.38-.19,.53-.34,.15-.15,.27-.32,.35-.52,.07-.18,.11-.37,.11-.57s-.04-.39-.11-.57c-.08-.2-.2-.37-.35-.52-.15-.15-.33-.26-.53-.34-.18-.07-.38-.11-.57-.11s-.39,.04-.57,.11c-.2,.08-.38,.19-.53,.34-.15,.15-.27,.32-.35,.52-.07,.18-.11,.37-.11,.57Z"/><path class="cls-6" d="M340.79,87.69c0,.19-.04,.39-.11,.57-.08,.2-.2,.37-.35,.52-.15,.15-.33,.26-.53,.34-.18,.07-.38,.11-.57,.11s-.39-.04-.57-.11c-.2-.08-.38-.19-.53-.34-.15-.15-.27-.32-.35-.52-.07-.18-.11-.37-.11-.57s.04-.39,.11-.57c.08-.2,.2-.37,.35-.52,.15-.15,.33-.26,.53-.34,.18-.07,.38-.11,.57-.11s.39,.04,.57,.11c.2,.08,.38,.19,.53,.34,.15,.15,.27,.32,.35,.52,.07,.18,.11,.37,.11,.57Z"/><path class="cls-6" d="M459.18,87.69c0,.19,.04,.39,.11,.57,.08,.2,.2,.37,.35,.52,.15,.15,.33,.26,.53,.34,.18,.07,.38,.11,.57,.11s.39-.04,.57-.11c.2-.08,.38-.19,.53-.34,.15-.15,.27-.32,.35-.52,.07-.18,.11-.37,.11-.57s-.04-.39-.11-.57c-.08-.2-.2-.37-.35-.52-.15-.15-.33-.26-.53-.34-.18-.07-.38-.11-.57-.11s-.39,.04-.57,.11c-.2,.08-.38,.19-.53,.34-.15,.15-.27,.32-.35,.52-.07,.18-.11,.37-.11,.57Z"/><path class="cls-6" d="M418.55,87.69c0,.19,.04,.39,.11,.57,.08,.2,.2,.37,.35,.52,.15,.15,.33,.26,.53,.34,.18,.07,.38,.11,.57,.11s.39-.04,.57-.11c.2-.08,.38-.19,.53-.34,.15-.15,.27-.32,.35-.52,.07-.18,.11-.37,.11-.57s-.04-.39-.11-.57c-.08-.2-.2-.37-.35-.52-.15-.15-.33-.26-.53-.34-.18-.07-.38-.11-.57-.11s-.39,.04-.57,.11c-.2,.08-.38,.19-.53,.34-.15,.15-.27,.32-.35,.52-.07,.18-.11,.37-.11,.57Z"/><path class="cls-6" d="M297.05,87.69c0,.2,.04,.39,.12,.57,.09,.2,.22,.38,.38,.52,.16,.14,.34,.25,.54,.33,.19,.07,.39,.11,.59,.11,.05,0,.1,0,.14,0,.05,0,.1,0,.14-.02,.1-.02,.2-.04,.29-.08,.2-.07,.39-.19,.54-.33,.16-.15,.28-.33,.36-.53,.08-.18,.11-.38,.11-.58s-.04-.39-.11-.58c-.08-.2-.21-.38-.36-.53-.16-.15-.34-.26-.54-.33-.1-.03-.19-.06-.29-.08-.05,0-.1-.01-.14-.02-.05,0-.1,0-.14,0-.2,0-.4,.04-.59,.11-.2,.07-.38,.18-.54,.33-.16,.15-.29,.32-.38,.52-.08,.18-.12,.37-.12,.57Z"/><line class="cls-6" x1="546.37" y1="91.18" x2="253.63" y2="91.18"/><line class="cls-6" x1="548.25" y1="143.02" x2="546.37" y2="143.02"/><line class="cls-6" x1="548.25" y1="235.45" x2="546.37" y2="235.45"/><line class="cls-6" x1="548.25" y1="327.87" x2="546.37" y2="327.87"/><line class="cls-6" x1="251.75" y1="327.87" x2="253.63" y2="327.87"/><line class="cls-6" x1="251.75" y1="235.45" x2="253.63" y2="235.45"/><line class="cls-6" x1="251.75" y1="143.02" x2="253.63" y2="143.02"/><path class="cls-6" d="M549.82,326.31c-.2,0-.39,.04-.58,.11-.2,.08-.38,.2-.53,.35-.15,.15-.27,.33-.35,.53-.07,.18-.11,.38-.11,.58s.04,.39,.11,.58c.08,.2,.2,.38,.35,.53,.15,.15,.33,.27,.53,.35,.18,.07,.38,.11,.58,.11s.39-.04,.58-.11c.2-.08,.38-.2,.53-.35s.27-.33,.35-.53c.07-.18,.11-.38,.11-.58s-.04-.39-.11-.58c-.08-.2-.2-.38-.35-.53s-.33-.27-.53-.35c-.18-.07-.38-.11-.58-.11Z"/><path class="cls-6" d="M549.82,280.1c-.2,0-.39,.04-.58,.11-.2,.08-.38,.2-.53,.35-.15,.15-.27,.33-.35,.53-.07,.18-.11,.38-.11,.58s.04,.39,.11,.58c.08,.2,.2,.38,.35,.53,.15,.15,.33,.27,.53,.35,.18,.07,.38,.11,.58,.11s.39-.04,.58-.11c.2-.08,.38-.2,.53-.35,.15-.15,.27-.33,.35-.53,.07-.18,.11-.38,.11-.58s-.04-.39-.11-.58c-.08-.2-.2-.38-.35-.53-.15-.15-.33-.27-.53-.35-.18-.07-.38-.11-.58-.11Z"/><line class="cls-6" x1="548.25" y1="281.66" x2="546.37" y2="281.66"/><path class="cls-6" d="M549.82,233.88c-.2,0-.39,.04-.58,.11-.2,.08-.38,.2-.53,.35-.15,.15-.27,.33-.35,.53-.07,.18-.11,.38-.11,.58s.04,.39,.11,.58c.08,.2,.2,.38,.35,.53,.15,.15,.33,.27,.53,.35,.18,.07,.38,.11,.58,.11s.39-.04,.58-.11c.2-.08,.38-.2,.53-.35,.15-.15,.27-.33,.35-.53,.07-.18,.11-.38,.11-.58s-.04-.39-.11-.58c-.08-.2-.2-.38-.35-.53-.15-.15-.33-.27-.53-.35-.18-.07-.38-.11-.58-.11Z"/><path class="cls-6" d="M549.82,187.67c-.2,0-.39,.04-.58,.11-.2,.08-.38,.2-.53,.35s-.27,.33-.35,.53c-.07,.18-.11,.38-.11,.58s.04,.39,.11,.58c.08,.2,.2,.38,.35,.53,.15,.15,.33,.27,.53,.35,.18,.07,.38,.11,.58,.11s.39-.04,.58-.11c.2-.08,.38-.2,.53-.35s.27-.33,.35-.53c.07-.18,.11-.38,.11-.58s-.04-.39-.11-.58c-.08-.2-.2-.38-.35-.53-.15-.15-.33-.27-.53-.35-.18-.07-.38-.11-.58-.11Z"/><line class="cls-6" x1="548.25" y1="189.24" x2="546.37" y2="189.24"/><path class="cls-6" d="M549.82,141.46c-.2,0-.39,.04-.58,.11-.2,.08-.38,.2-.53,.35-.15,.15-.27,.33-.35,.53-.07,.18-.11,.38-.11,.58s.04,.39,.11,.58c.08,.2,.2,.38,.35,.53s.33,.27,.53,.35c.18,.07,.38,.11,.58,.11s.39-.04,.58-.11c.2-.08,.38-.2,.53-.35,.15-.15,.27-.33,.35-.53,.07-.18,.11-.38,.11-.58s-.04-.39-.11-.58c-.08-.2-.2-.38-.35-.53s-.33-.27-.53-.35c-.18-.07-.38-.11-.58-.11Z"/><path class="cls-6" d="M549.82,95.25c-.2,0-.39,.04-.58,.11-.2,.08-.38,.2-.53,.35-.15,.15-.27,.33-.35,.53-.07,.18-.11,.38-.11,.58s.04,.39,.11,.58c.08,.2,.2,.38,.35,.53,.15,.15,.33,.27,.53,.35,.18,.07,.38,.11,.58,.11s.39-.04,.58-.11c.2-.08,.38-.2,.53-.35,.15-.15,.27-.33,.35-.53,.07-.18,.11-.38,.11-.58s-.04-.39-.11-.58c-.08-.2-.2-.38-.35-.53-.15-.15-.33-.27-.53-.35-.18-.07-.38-.11-.58-.11Z"/><line class="cls-6" x1="548.25" y1="96.81" x2="546.37" y2="96.81"/><line class="cls-6" x1="531.34" y1="104.33" x2="531.34" y2="97.66"/><line class="cls-6" x1="295.42" y1="97.67" x2="295.43" y2="104.33"/><line class="cls-6" x1="295.42" y1="363.57" x2="295.42" y2="373.23"/><line class="cls-6" x1="531.34" y1="363.57" x2="531.34" y2="373.23"/><line class="cls-6" x1="255.19" y1="142.24" x2="295.42" y2="142.24"/><line class="cls-6" x1="255.19" y1="143.94" x2="295.42" y2="143.94"/><line class="cls-6" x1="255.19" y1="97.67" x2="295.42" y2="97.67"/><line class="cls-6" x1="255.19" y1="188.38" x2="295.42" y2="188.38"/><line class="cls-6" x1="255.19" y1="190.09" x2="295.42" y2="190.09"/><line class="cls-6" x1="255.19" y1="234.6" x2="295.42" y2="234.6"/><line class="cls-6" x1="255.19" y1="236.3" x2="295.42" y2="236.3"/><line class="cls-6" x1="255.19" y1="280.81" x2="295.42" y2="280.81"/><line class="cls-6" x1="255.19" y1="282.52" x2="295.42" y2="282.52"/><line class="cls-6" x1="255.19" y1="327.02" x2="295.42" y2="327.02"/><line class="cls-6" x1="255.19" y1="328.73" x2="295.42" y2="328.73"/><line class="cls-6" x1="255.19" y1="373.23" x2="295.42" y2="373.23"/><line class="cls-6" x1="531.27" y1="142.24" x2="544.73" y2="142.24"/><line class="cls-6" x1="531.27" y1="143.94" x2="544.73" y2="143.94"/><line class="cls-6" x1="531.27" y1="97.66" x2="544.73" y2="97.66"/><line class="cls-6" x1="531.27" y1="188.38" x2="544.73" y2="188.38"/><line class="cls-6" x1="531.27" y1="190.09" x2="544.73" y2="190.09"/><line class="cls-6" x1="531.27" y1="234.59" x2="544.73" y2="234.59"/><line class="cls-6" x1="531.27" y1="236.3" x2="544.73" y2="236.3"/><line class="cls-6" x1="531.27" y1="280.81" x2="544.73" y2="280.81"/><line class="cls-6" x1="531.27" y1="282.52" x2="544.73" y2="282.52"/><line class="cls-6" x1="531.27" y1="327.02" x2="544.73" y2="327.02"/><line class="cls-6" x1="531.27" y1="328.73" x2="544.73" y2="328.73"/><line class="cls-6" x1="531.27" y1="373.23" x2="544.73" y2="373.23"/><g><g><path class="cls-9" d="M544.73,718.18v217.36h-181.94v-276.29h2.94c59.67,19.64,119.33,39.28,179,58.93Z"/><path class="cls-9" d="M362.79,379.22h51.93c-2.59,95.23-19.1,189.57-48.99,280.03h-2.94V379.22Z"/><path class="cls-9" d="M353.4,763.62v171.92h-98.13v-151.79c0-2.9,0-5.79,.01-8.67,0-3.54,.04-7.07,.1-10.59,.05-3.14,.14-6.28,.26-9.41,.11-2.85,.25-5.68,.44-8.51,.18-2.84,.41-5.66,.69-8.48,.23-2.27,.49-4.55,.79-6.81,.3-2.27,.63-4.52,1.01-6.77s.81-4.49,1.27-6.72c.47-2.22,.99-4.44,1.55-6.64,.28-1.08,.57-2.16,.87-3.24,.25-.9,.51-1.8,.78-2.69,.26-.89,.54-1.78,.83-2.67,.28-.89,.58-1.78,.88-2.67s.6-1.77,.92-2.66c.6-1.71,1.23-3.41,1.87-5.12,.65-1.7,1.31-3.4,1.98-5.1,1.34-3.4,2.73-6.8,4.11-10.22,1.13-2.78,2.25-5.58,3.36-8.39,1.1-2.82,2.18-5.65,3.2-8.52,.65-1.8,1.28-3.62,1.88-5.45s1.18-3.68,1.72-5.54c.49-1.7,.95-3.42,1.38-5.15,.39-1.6,.76-3.21,1.08-4.84,.33-1.63,.62-3.27,.87-4.92,.21-1.39,.38-2.79,.52-4.19,.15-1.4,.25-2.81,.32-4.22,.03-.65,.05-1.3,.07-1.95,0-.44,.02-.88,.02-1.33s0-.89-.01-1.34c0-.44,0-.89-.03-1.34-.03-1.05-.09-2.1-.16-3.14-.08-1.05-.17-2.09-.29-3.13-.11-1.04-.24-2.08-.39-3.11-.24-1.64-.52-3.27-.84-4.89s-.68-3.22-1.07-4.82c-.39-1.59-.81-3.17-1.25-4.75-.45-1.57-.92-3.13-1.41-4.68-.5-1.55-1.01-3.09-1.54-4.63-.53-1.53-1.08-3.05-1.63-4.57-.56-1.51-1.13-3.02-1.71-4.52s-1.17-3-1.76-4.49c-1.19-2.97-2.39-5.92-3.58-8.86-.82-2.04-1.64-4.07-2.45-6.1-.8-2.02-1.59-4.05-2.36-6.08-.77-2.04-1.52-4.07-2.23-6.11-.49-1.42-.97-2.84-1.43-4.26-.28-.89-.56-1.78-.83-2.68-.27-.89-.53-1.79-.78-2.69-.26-.9-.5-1.8-.74-2.7-.56-2.16-1.07-4.33-1.54-6.51s-.9-4.37-1.28-6.58c-.39-2.2-.73-4.41-1.04-6.63-.36-2.64-.67-5.29-.93-7.96-.27-2.66-.49-5.33-.67-8.01-.18-2.67-.32-5.35-.43-8.04s-.19-5.38-.25-8.08c-.06-2.69-.09-5.39-.12-8.1-.02-2.7-.03-5.41-.03-8.12v-5.24l-.08-80.9h98.21v384.4Zm-.23-228.16c0-1.72-.16-3.43-.47-5.12-.33-1.8-.83-3.55-1.51-5.25-.7-1.76-1.57-3.46-2.61-5.05-1.06-1.62-2.29-3.13-3.66-4.5s-2.88-2.6-4.51-3.66c-1.59-1.04-3.28-1.92-5.04-2.62-1.7-.67-3.46-1.17-5.25-1.5-1.69-.32-3.41-.47-5.13-.47s-3.43,.15-5.12,.47c-1.8,.33-3.55,.83-5.25,1.5-1.76,.7-3.46,1.58-5.05,2.62-1.62,1.06-3.13,2.29-4.5,3.66s-2.6,2.88-3.66,4.5c-1.04,1.59-1.92,3.28-2.62,5.05-.67,1.7-1.17,3.45-1.5,5.25-.32,1.69-.47,3.4-.47,5.12s.15,3.44,.47,5.13c.33,1.79,.83,3.55,1.5,5.25,.7,1.76,1.58,3.45,2.62,5.04,1.06,1.63,2.29,3.14,3.66,4.51s2.88,2.6,4.5,3.66c1.59,1.04,3.28,1.91,5.05,2.61,1.7,.67,3.45,1.18,5.25,1.51,1.69,.31,3.4,.47,5.12,.47s3.44-.16,5.13-.47c1.79-.33,3.55-.83,5.25-1.51,1.76-.7,3.45-1.57,5.04-2.61,1.63-1.06,3.14-2.29,4.51-3.66s2.6-2.88,3.66-4.51c1.04-1.59,1.91-3.28,2.61-5.04,.67-1.7,1.18-3.46,1.51-5.25,.31-1.69,.47-3.41,.47-5.13Z"/></g><g><path class="cls-7" d="M324.99,507.29c-1.72,0-3.43,.15-5.12,.47-1.8,.33-3.55,.83-5.25,1.5-1.76,.7-3.46,1.58-5.05,2.62-1.62,1.06-3.13,2.29-4.5,3.66s-2.6,2.88-3.66,4.5c-1.04,1.59-1.92,3.28-2.62,5.05-.67,1.7-1.17,3.45-1.5,5.25-.32,1.69-.47,3.4-.47,5.12s.15,3.44,.47,5.13c.33,1.79,.83,3.55,1.5,5.25,.7,1.76,1.58,3.45,2.62,5.04,1.06,1.63,2.29,3.14,3.66,4.51s2.88,2.6,4.5,3.66c1.59,1.04,3.28,1.91,5.05,2.61,1.7,.67,3.45,1.18,5.25,1.51,1.69,.31,3.4,.47,5.12,.47s3.44-.16,5.13-.47c1.79-.33,3.55-.83,5.25-1.51,1.76-.7,3.45-1.57,5.04-2.61,1.63-1.06,3.14-2.29,4.51-3.66s2.6-2.88,3.66-4.51c1.04-1.59,1.91-3.28,2.61-5.04,.67-1.7,1.18-3.46,1.51-5.25,.31-1.69,.47-3.41,.47-5.13s-.16-3.43-.47-5.12c-.33-1.8-.83-3.55-1.51-5.25-.7-1.76-1.57-3.46-2.61-5.05-1.06-1.62-2.29-3.13-3.66-4.5s-2.88-2.6-4.51-3.66c-1.59-1.04-3.28-1.92-5.04-2.62-1.7-.67-3.46-1.17-5.25-1.5-1.69-.32-3.41-.47-5.13-.47Z"/><path class="cls-7" d="M324.99,515.11c-1.24,0-2.48,.12-3.7,.34-1.29,.24-2.56,.61-3.79,1.09-1.27,.51-2.49,1.14-3.64,1.89-1.18,.77-2.27,1.65-3.26,2.64s-1.87,2.08-2.64,3.26c-.75,1.15-1.38,2.37-1.89,3.64-.48,1.23-.85,2.5-1.09,3.79-.22,1.22-.34,2.46-.34,3.7s.12,2.49,.34,3.71c.24,1.29,.61,2.56,1.09,3.78,.51,1.28,1.14,2.5,1.89,3.65,.77,1.17,1.65,2.26,2.64,3.25s2.08,1.88,3.26,2.65c1.15,.75,2.37,1.38,3.64,1.89,1.23,.48,2.5,.85,3.79,1.09,1.22,.22,2.46,.33,3.7,.33s2.49-.11,3.71-.33c1.29-.24,2.56-.61,3.78-1.09,1.28-.51,2.5-1.14,3.65-1.89,1.17-.77,2.26-1.65,3.25-2.65,.99-.99,1.88-2.08,2.65-3.25,.75-1.15,1.38-2.37,1.89-3.64,.48-1.23,.85-2.5,1.09-3.79,.22-1.22,.33-2.46,.33-3.71s-.11-2.48-.33-3.7c-.24-1.29-.61-2.56-1.09-3.79-.51-1.27-1.14-2.49-1.89-3.64-.77-1.18-1.65-2.27-2.65-3.26-.99-.99-2.08-1.87-3.25-2.64-1.15-.75-2.37-1.38-3.64-1.89-1.23-.48-2.5-.85-3.79-1.09-1.22-.22-2.46-.34-3.71-.34Z"/><path class="cls-6" d="M281.84,633.64c-.19,0-.39,.04-.57,.11-.2,.08-.38,.2-.53,.35s-.27,.33-.35,.53c-.07,.18-.11,.38-.11,.57,0,.2,.04,.4,.11,.58,.08,.2,.2,.38,.35,.53s.33,.27,.53,.35c.18,.07,.38,.11,.57,.11,.2,0,.4-.04,.58-.11,.2-.08,.38-.2,.53-.35s.27-.33,.35-.53c.07-.18,.11-.38,.11-.58s-.04-.39-.11-.57c-.08-.2-.2-.38-.35-.53s-.33-.27-.53-.35c-.18-.07-.38-.11-.58-.11Z"/><path class="cls-6" d="M277.51,590.12c-.19,0-.39,.04-.57,.11-.2,.08-.38,.2-.53,.35s-.27,.33-.35,.53c-.07,.18-.11,.38-.11,.57,0,.2,.04,.4,.11,.58,.08,.2,.2,.38,.35,.53s.33,.27,.53,.35c.18,.07,.38,.11,.57,.11,.2,0,.4-.04,.58-.11,.2-.08,.38-.2,.53-.35s.27-.33,.35-.53c.07-.18,.11-.38,.11-.58,0-.16-.03-.33-.08-.48l-.03-.09c-.08-.2-.2-.38-.35-.53s-.33-.27-.53-.35c-.18-.07-.38-.11-.58-.11Z"/><path class="cls-6" d="M260.87,546.6c-.2,0-.39,.04-.58,.11-.19,.08-.37,.2-.53,.35-.15,.15-.27,.33-.34,.53-.08,.18-.11,.38-.11,.57,0,.2,.03,.4,.11,.58,.07,.2,.19,.38,.34,.53,.16,.15,.34,.27,.53,.35,.19,.07,.38,.11,.58,.11s.39-.04,.58-.11c.2-.08,.38-.2,.53-.35s.27-.33,.35-.53c.07-.18,.11-.38,.11-.58,0-.17-.03-.35-.09-.52-.01-.02-.01-.03-.02-.05-.08-.2-.2-.38-.35-.53s-.33-.27-.53-.35c-.19-.07-.38-.11-.58-.11Z"/><path class="cls-6" d="M251.64,503.08c-.2,0-.4,.04-.58,.11-.2,.08-.38,.2-.53,.35s-.27,.33-.35,.53c-.07,.18-.11,.38-.11,.57,0,.2,.04,.4,.11,.58,.08,.2,.2,.38,.35,.53s.33,.27,.53,.35c.18,.07,.38,.11,.58,.11s.39-.04,.57-.11c.2-.08,.38-.2,.53-.35,.16-.15,.27-.33,.35-.53,.08-.18,.11-.38,.11-.58s-.03-.39-.11-.57c-.08-.2-.19-.38-.35-.53-.15-.15-.33-.27-.53-.35-.18-.07-.38-.11-.57-.11Z"/><path class="cls-6" d="M250.25,459.56c-.2,0-.39,.04-.58,.11-.2,.08-.38,.2-.53,.35s-.27,.33-.35,.53c-.07,.18-.11,.38-.11,.57,0,.2,.04,.4,.11,.58,.08,.2,.2,.38,.35,.53s.33,.27,.53,.35c.19,.07,.38,.11,.58,.11s.39-.04,.58-.11c.19-.08,.38-.2,.53-.35s.27-.33,.35-.53c.07-.18,.11-.38,.11-.58s-.04-.39-.11-.57c-.08-.2-.2-.38-.35-.53s-.34-.27-.53-.35c-.19-.07-.38-.11-.58-.11Z"/><path class="cls-6" d="M250.18,416.04c-.19,0-.39,.04-.57,.11-.2,.08-.38,.2-.53,.35s-.27,.33-.35,.53c-.07,.18-.11,.38-.11,.57,0,.2,.04,.4,.11,.58,.08,.2,.2,.38,.35,.53s.33,.27,.53,.35c.18,.07,.38,.11,.57,.11,.2,0,.4-.04,.58-.11,.2-.08,.38-.2,.53-.35s.27-.33,.35-.53c.07-.18,.11-.38,.11-.58s-.04-.39-.11-.57c-.08-.2-.2-.38-.35-.53s-.33-.27-.53-.35c-.18-.07-.38-.11-.58-.11Z"/><path class="cls-6" d="M250.18,372.52c-.19,0-.39,.04-.57,.11-.2,.08-.38,.2-.53,.35s-.27,.33-.35,.53c-.07,.18-.11,.38-.11,.57,0,.2,.04,.4,.11,.58,.08,.2,.2,.38,.35,.53s.33,.27,.53,.35c.18,.07,.38,.11,.57,.11,.2,0,.4-.04,.58-.11,.2-.08,.38-.2,.53-.35s.27-.33,.35-.53c.07-.18,.11-.38,.11-.58s-.04-.39-.11-.57c-.08-.2-.2-.38-.35-.53s-.33-.27-.53-.35c-.18-.07-.38-.11-.58-.11Z"/><polyline class="cls-6" points="544.73 716.24 544.73 416.04 544.73 379.22"/><path class="cls-6" d="M290.17,938.9c-.18,0-.37,.04-.54,.1-.18,.08-.35,.19-.49,.33s-.25,.3-.32,.49c-.07,.17-.1,.35-.1,.53,0,.19,.03,.37,.1,.54,.07,.18,.18,.35,.32,.49s.31,.25,.49,.32c.17,.07,.36,.1,.54,.1s.36-.03,.53-.1c.19-.07,.36-.18,.5-.32s.25-.31,.32-.49c.07-.17,.1-.35,.1-.54,0-.18-.03-.36-.1-.53-.07-.19-.18-.35-.32-.49s-.31-.25-.5-.33c-.17-.06-.35-.1-.53-.1Z"/><path class="cls-6" d="M513.18,938.9c-.19,0-.39,.04-.57,.11-.2,.08-.38,.2-.53,.35s-.27,.33-.35,.53c-.07,.18-.11,.38-.11,.58s.04,.39,.11,.57c.08,.2,.2,.38,.35,.53,.15,.16,.33,.27,.53,.35,.18,.08,.38,.11,.57,.11,.2,0,.4-.03,.58-.11,.2-.08,.38-.19,.53-.35,.15-.15,.27-.33,.35-.53,.07-.18,.11-.38,.11-.57,0-.2-.04-.4-.11-.58-.08-.2-.2-.38-.35-.53s-.33-.27-.53-.35c-.18-.07-.38-.11-.58-.11Z"/><path class="cls-6" d="M423.98,938.9c-.18,0-.37,.04-.54,.1-.18,.08-.35,.19-.49,.33s-.25,.3-.32,.49c-.07,.17-.1,.35-.1,.53,0,.19,.03,.37,.1,.54,.07,.18,.18,.35,.32,.49s.31,.25,.49,.32c.17,.07,.36,.1,.54,.1s.36-.03,.53-.1c.19-.07,.35-.18,.49-.32s.25-.31,.33-.49c.07-.17,.1-.35,.1-.54,0-.18-.03-.36-.1-.53-.08-.19-.18-.35-.33-.49-.14-.14-.3-.25-.49-.33-.17-.06-.35-.1-.53-.1Z"/><path class="cls-6" d="M334.77,938.9c-.18,0-.36,.04-.53,.1-.19,.08-.35,.19-.49,.33s-.25,.3-.33,.49c-.06,.17-.1,.35-.1,.53,0,.19,.04,.37,.1,.54,.08,.18,.19,.35,.33,.49s.3,.25,.49,.32c.17,.07,.35,.1,.53,.1,.19,0,.37-.03,.54-.1,.18-.07,.35-.18,.49-.32s.25-.31,.32-.49c.07-.17,.1-.35,.1-.54,0-.18-.03-.36-.1-.53-.07-.19-.18-.35-.32-.49s-.31-.25-.49-.33c-.17-.06-.35-.1-.54-.1Z"/><polyline class="cls-6" points="541.44 379.22 541.44 404.27 420.13 404.27 420.13 379.22"/><line class="cls-6" x1="439.3" y1="398" x2="439.3" y2="379.22"/><line class="cls-6" x1="522.27" y1="398" x2="522.27" y2="379.22"/><line class="cls-6" x1="480.79" y1="398" x2="480.79" y2="379.22"/><line class="cls-6" x1="255.19" y1="97.66" x2="255.19" y2="373.23"/><polyline class="cls-6" points="356.53 937.11 356.53 938 359.66 938 359.66 937.11"/><polyline class="cls-8" points="538.75 681.55 529.24 678.42 519.72 675.29 510.2 672.15 500.22 668.87"/><polyline class="cls-8" points="538.75 681.55 528.97 711.26 528.96 711.29"/><polyline class="cls-8" points="510.2 672.15 500.42 701.86 500.41 701.89"/><polyline class="cls-8" points="519.72 675.28 519.72 675.29 509.94 705 509.93 705.02"/><polyline class="cls-8" points="529.24 678.42 519.46 708.13 519.45 708.16"/><path class="cls-8" d="M490.9,698.75s0-.01,.01-.02c3.24-9.91,6.34-19.87,9.3-29.86,24.42-82.28,39.35-167.12,44.49-252.83"/><line class="cls-6" x1="362.79" y1="643.12" x2="353.4" y2="643.12"/><path class="cls-6" d="M356.78,771.99c-.03-.2-.03-.4,0-.59,.05-.21,.13-.41,.26-.58,.12-.18,.28-.32,.46-.43,.17-.11,.36-.18,.55-.21,.2-.03,.39-.03,.59,.01,.21,.05,.41,.13,.58,.26,.17,.12,.32,.28,.43,.46,.1,.17,.17,.36,.21,.55,.03,.2,.03,.4-.02,.59-.04,.21-.13,.41-.25,.58-.12,.18-.28,.32-.47,.43-.16,.11-.35,.18-.55,.21-.19,.03-.39,.03-.58-.01-.21-.05-.41-.14-.58-.26-.18-.12-.32-.28-.44-.46-.1-.17-.17-.36-.2-.55Z"/><line class="cls-6" x1="362.79" y1="775.59" x2="353.4" y2="775.59"/><line class="cls-6" x1="353.4" y1="763.62" x2="362.79" y2="763.62"/><path class="cls-6" d="M356.78,767.22c-.03,.2-.03,.39,0,.59,.05,.21,.13,.4,.26,.58,.12,.17,.28,.32,.46,.43,.17,.1,.36,.17,.55,.21,.2,.03,.39,.02,.59-.02,.21-.04,.41-.13,.58-.25s.32-.28,.43-.47c.1-.16,.17-.35,.21-.55,.03-.19,.03-.39-.02-.58-.04-.21-.13-.41-.25-.58-.12-.18-.28-.33-.47-.44-.16-.1-.35-.17-.55-.2-.19-.03-.39-.03-.58,.01-.21,.05-.41,.13-.58,.26-.18,.12-.32,.28-.44,.46-.1,.17-.17,.36-.2,.55Z"/><path class="cls-6" d="M356.78,519.01c-.03-.2-.03-.39,0-.59,.05-.21,.13-.4,.26-.58,.12-.17,.28-.32,.46-.43,.17-.1,.36-.17,.55-.21,.2-.03,.39-.02,.59,.02,.21,.04,.41,.13,.58,.25,.17,.13,.32,.28,.43,.47,.1,.17,.17,.35,.21,.55,.03,.19,.03,.39-.02,.58-.04,.21-.13,.41-.25,.58-.12,.18-.28,.33-.47,.44-.16,.1-.35,.17-.55,.2-.19,.03-.39,.03-.58-.01-.21-.04-.41-.13-.58-.26-.18-.12-.32-.28-.44-.46-.1-.17-.17-.36-.2-.55Z"/><line class="cls-6" x1="362.79" y1="522.61" x2="353.4" y2="522.61"/><line class="cls-6" x1="353.4" y1="510.64" x2="362.79" y2="510.64"/><line class="cls-6" x1="255.27" y1="460.12" x2="255.19" y2="379.22"/><line class="cls-6" x1="253.7" y1="460.12" x2="253.63" y2="379.22"/><path class="cls-6" d="M255.27,783.75c0-2.9,0-5.79,.01-8.67,0-3.54,.04-7.07,.1-10.59,.05-3.14,.14-6.28,.26-9.41,.11-2.85,.25-5.68,.44-8.51,.18-2.84,.41-5.66,.69-8.48,.23-2.27,.49-4.55,.79-6.81,.3-2.27,.63-4.52,1.01-6.77s.81-4.49,1.27-6.72c.47-2.22,.99-4.44,1.55-6.64,.28-1.08,.57-2.16,.87-3.24,.25-.9,.51-1.8,.78-2.69,.26-.89,.54-1.78,.83-2.67,.28-.89,.58-1.78,.88-2.67s.6-1.77,.92-2.66c.6-1.71,1.23-3.41,1.87-5.12,.65-1.7,1.31-3.4,1.98-5.1,1.34-3.4,2.73-6.8,4.11-10.22,1.13-2.78,2.25-5.58,3.36-8.39,1.1-2.82,2.18-5.65,3.2-8.52,.65-1.8,1.28-3.62,1.88-5.45s1.18-3.68,1.72-5.54c.49-1.7,.95-3.42,1.38-5.15,.39-1.6,.76-3.21,1.08-4.84,.33-1.63,.62-3.27,.87-4.92,.21-1.39,.38-2.79,.52-4.19,.15-1.4,.25-2.81,.32-4.22,.03-.65,.05-1.3,.07-1.95,0-.44,.02-.88,.02-1.33s0-.89-.01-1.34c0-.44,0-.89-.03-1.34-.03-1.05-.09-2.1-.16-3.14-.08-1.05-.17-2.09-.29-3.13-.11-1.04-.24-2.08-.39-3.11-.24-1.64-.52-3.27-.84-4.89s-.68-3.22-1.07-4.82c-.39-1.59-.81-3.17-1.25-4.75-.45-1.57-.92-3.13-1.41-4.68-.5-1.55-1.01-3.09-1.54-4.63-.53-1.53-1.08-3.05-1.63-4.57-.56-1.51-1.13-3.02-1.71-4.52s-1.17-3-1.76-4.49c-1.19-2.97-2.39-5.92-3.58-8.86-.82-2.04-1.64-4.07-2.45-6.1-.8-2.02-1.59-4.05-2.36-6.08-.77-2.04-1.52-4.07-2.23-6.11-.49-1.42-.97-2.84-1.43-4.26-.28-.89-.56-1.78-.83-2.68-.27-.89-.53-1.79-.78-2.69-.26-.9-.5-1.8-.74-2.7-.56-2.16-1.07-4.33-1.54-6.51s-.9-4.37-1.28-6.58c-.39-2.2-.73-4.41-1.04-6.63-.36-2.64-.67-5.29-.93-7.96-.27-2.66-.49-5.33-.67-8.01-.18-2.67-.32-5.35-.43-8.04s-.19-5.38-.25-8.08c-.06-2.69-.09-5.39-.12-8.1-.02-2.7-.03-5.41-.03-8.12v-5.24"/><path class="cls-6" d="M253.7,783.75c0-2.9,0-5.79,0-8.68,.01-3.5,.04-7,.1-10.5s.16-6.99,.3-10.48,.34-6.98,.6-10.45c.22-2.79,.47-5.57,.78-8.35,.31-2.77,.67-5.54,1.1-8.3,.21-1.39,.44-2.77,.68-4.15,.25-1.36,.51-2.72,.78-4.08,.55-2.73,1.17-5.44,1.86-8.14,.26-1.01,.53-2.02,.81-3.03,.26-.92,.52-1.83,.79-2.74,.21-.7,.43-1.39,.64-2.08,.22-.69,.44-1.38,.67-2.07s.46-1.38,.7-2.07c.72-2.09,1.47-4.17,2.25-6.25s1.58-4.15,2.4-6.22,1.65-4.14,2.49-6.21c.83-2.07,1.68-4.14,2.51-6.22,.87-2.16,1.74-4.33,2.59-6.51s1.68-4.37,2.49-6.57c.8-2.2,1.58-4.42,2.31-6.66,.6-1.8,1.16-3.62,1.69-5.44,.53-1.83,1.03-3.67,1.48-5.53,.45-1.85,.86-3.72,1.22-5.6,.1-.54,.2-1.08,.29-1.63,.23-1.35,.44-2.7,.61-4.06,.2-1.57,.35-3.16,.46-4.75s.17-3.18,.17-4.78c0-.51,0-1.01-.01-1.52-.01-.5-.02-1.01-.04-1.51-.05-1.44-.15-2.87-.28-4.3-.14-1.43-.31-2.86-.51-4.28-.21-1.42-.44-2.83-.71-4.23-.27-1.41-.56-2.81-.89-4.2-.32-1.39-.67-2.77-1.03-4.14-.37-1.38-.77-2.75-1.17-4.11-.41-1.36-.84-2.71-1.28-4.06-.45-1.35-.91-2.69-1.38-4.02-.73-2.09-1.49-4.15-2.28-6.21-.78-2.06-1.58-4.11-2.39-6.15s-1.64-4.08-2.46-6.11c-1-2.46-1.99-4.92-2.98-7.37-.98-2.46-1.95-4.92-2.88-7.39-.7-1.83-1.37-3.66-2.02-5.5s-1.28-3.68-1.87-5.53c-.27-.85-.53-1.69-.78-2.54-.26-.84-.5-1.69-.74-2.55-.24-.85-.47-1.7-.69-2.56-.45-1.71-.87-3.43-1.26-5.16-.54-2.4-1.03-4.82-1.47-7.26-.44-2.43-.83-4.87-1.17-7.32s-.63-4.91-.89-7.37c-.08-.82-.16-1.65-.23-2.48-.16-1.64-.3-3.28-.42-4.92-.18-2.48-.32-4.96-.44-7.44s-.21-4.96-.28-7.44c-.07-2.49-.12-4.98-.15-7.47-.06-4.24-.07-8.5-.08-12.76v-4.18"/><polyline class="cls-6" points="546.37 379.22 544.73 379.22 541.44 379.22 522.27 379.22 480.79 379.22 439.3 379.22 420.13 379.22 416.36 379.22"/><polyline class="cls-6" points="353.4 935.54 353.4 775.59 353.4 763.62 353.4 643.12 353.4 522.61 353.4 510.64 353.4 379.22"/><polyline class="cls-6" points="354.96 379.22 353.4 379.22 255.19 379.22 253.63 379.22"/><polyline class="cls-6" points="253.63 91.17 253.63 374.08 253.63 379.22"/><polyline class="cls-6" points="544.73 935.54 544.73 718.18 544.73 718.1"/><polyline class="cls-6" points="546.37 937.11 546.37 903.84 546.37 858.44 546.37 813.04 546.37 767.64 546.37 722.24 546.37 716.99 546.37 678.72 546.37 635.2 546.37 591.68 546.37 548.16 546.37 504.64 546.37 461.12 546.37 417.6 546.37 379.22 546.37 374.08 546.37 91.17"/><polyline class="cls-6" points="255.27 935.54 353.4 935.54 362.79 935.54 544.73 935.54"/><polyline class="cls-6" points="253.7 937.11 290.17 937.11 334.77 937.11 356.53 937.11 359.66 937.11 379.38 937.11 423.98 937.11 468.58 937.11 513.18 937.11 546.37 937.11"/><polyline class="cls-6" points="255.27 769.65 255.27 783.75 255.27 935.54"/><polyline class="cls-6" points="253.7 769.65 253.7 783.75 253.7 813.04 253.7 858.44 253.7 903.84 253.7 937.11"/><polyline class="cls-6" points="362.79 533.25 362.79 643.12 362.79 659.25 362.79 763.62 362.79 775.59 362.79 935.54"/><line class="cls-6" x1="361.22" y1="379.22" x2="354.96" y2="379.22"/><polyline class="cls-6" points="362.79 533.25 362.79 522.61 362.79 510.64 362.79 379.22"/><path class="cls-6" d="M356.78,514.24c-.03,.2-.03,.4,0,.59,.05,.21,.13,.41,.26,.58,.12,.18,.28,.32,.46,.43,.17,.11,.36,.18,.55,.21,.2,.03,.39,.03,.59,0,.21-.05,.41-.13,.58-.26,.17-.12,.32-.28,.43-.46,.1-.17,.17-.36,.21-.55,.03-.2,.03-.4-.02-.59-.04-.21-.13-.41-.25-.58s-.28-.32-.47-.43c-.16-.11-.35-.17-.55-.21-.19-.03-.39-.03-.58,.01-.21,.05-.41,.14-.58,.26-.18,.12-.32,.28-.44,.46-.1,.17-.17,.36-.2,.55Z"/><line class="cls-6" x1="544.73" y1="97.66" x2="544.73" y2="373.23"/><path class="cls-6" d="M379.38,938.9c-.19,0-.37,.04-.54,.1-.18,.08-.35,.19-.49,.33s-.25,.3-.32,.49c-.07,.17-.11,.35-.11,.53,0,.19,.04,.37,.11,.54,.07,.18,.18,.35,.32,.49s.31,.25,.49,.32c.17,.07,.35,.1,.54,.1,.18,0,.36-.03,.53-.1,.18-.07,.35-.18,.49-.32s.25-.31,.32-.49c.07-.17,.11-.35,.11-.54,0-.18-.04-.36-.11-.53-.07-.19-.18-.35-.32-.49s-.31-.25-.49-.33c-.17-.06-.35-.1-.53-.1Z"/><path class="cls-6" d="M544.73,718.18c-59.67-19.65-119.33-39.29-179-58.93,29.89-90.46,46.4-184.8,48.99-280.03"/><line class="cls-6" x1="548.25" y1="417.6" x2="546.37" y2="417.6"/><line class="cls-6" x1="548.25" y1="461.12" x2="546.37" y2="461.12"/><line class="cls-6" x1="548.25" y1="504.64" x2="546.37" y2="504.64"/><line class="cls-6" x1="548.25" y1="548.16" x2="546.37" y2="548.16"/><line class="cls-6" x1="548.25" y1="591.68" x2="546.37" y2="591.68"/><line class="cls-6" x1="548.25" y1="635.2" x2="546.37" y2="635.2"/><line class="cls-6" x1="548.25" y1="678.72" x2="546.37" y2="678.72"/><line class="cls-6" x1="548.25" y1="722.24" x2="546.37" y2="722.24"/><line class="cls-6" x1="548.25" y1="767.64" x2="546.37" y2="767.64"/><line class="cls-6" x1="548.25" y1="813.04" x2="546.37" y2="813.04"/><line class="cls-6" x1="548.25" y1="858.44" x2="546.37" y2="858.44"/><line class="cls-6" x1="548.25" y1="903.84" x2="546.37" y2="903.84"/><line class="cls-6" x1="513.18" y1="938.9" x2="513.18" y2="937.11"/><line class="cls-6" x1="468.58" y1="938.9" x2="468.58" y2="937.11"/><line class="cls-6" x1="423.98" y1="938.9" x2="423.98" y2="937.11"/><polyline class="cls-6" points="379.38 938.89 379.38 937.11 379.38 937.1"/><line class="cls-6" x1="334.77" y1="938.9" x2="334.77" y2="937.11"/><line class="cls-6" x1="290.17" y1="938.9" x2="290.17" y2="937.11"/><line class="cls-6" x1="253.2" y1="504.5" x2="255.07" y2="504.33"/><line class="cls-6" x1="262.35" y1="547.64" x2="264.12" y2="547.02"/><line class="cls-6" x1="279" y1="591.2" x2="280.79" y2="590.62"/><line class="cls-6" x1="283.39" y1="635.47" x2="285.24" y2="635.79"/><line class="cls-6" x1="268.86" y1="679.31" x2="270.61" y2="680.01"/><line class="cls-6" x1="255.42" y1="722.52" x2="257.27" y2="722.84"/><line class="cls-6" x1="251.82" y1="903.84" x2="253.7" y2="903.84"/><line class="cls-6" x1="251.82" y1="858.44" x2="253.7" y2="858.44"/><line class="cls-6" x1="251.82" y1="813.04" x2="253.7" y2="813.04"/><line class="cls-6" x1="251.82" y1="767.64" x2="253.7" y2="767.64"/><line class="cls-6" x1="251.82" y1="461.12" x2="253.69" y2="461.12"/><line class="cls-6" x1="251.75" y1="417.6" x2="253.63" y2="417.6"/><polyline class="cls-6" points="416.36 379.22 416.34 379.22 414.72 379.22 362.79 379.22 361.22 379.22"/><path class="cls-6" d="M367.8,658.2c29.62-90.15,45.98-184.13,48.56-278.98"/><polyline class="cls-6" points="546.37 716.99 544.67 716.43 528.97 711.26 519.46 708.13 509.94 705 500.42 701.86 490.91 698.73 367.8 658.2"/><line class="cls-6" x1="548.25" y1="374.08" x2="546.37" y2="374.08"/><path class="cls-6" d="M468.58,938.9c-.18,0-.36,.04-.53,.1-.19,.08-.35,.19-.49,.33-.15,.14-.25,.3-.33,.49-.07,.17-.1,.35-.1,.53,0,.19,.03,.37,.1,.54,.07,.18,.18,.35,.33,.49,.14,.14,.3,.25,.49,.32,.17,.07,.35,.1,.53,.1s.37-.03,.54-.1c.18-.07,.35-.18,.49-.32s.25-.31,.32-.49c.07-.17,.1-.35,.1-.54,0-.18-.03-.36-.1-.53-.07-.19-.18-.35-.32-.49s-.31-.25-.49-.33c-.17-.06-.36-.1-.54-.1Z"/><path class="cls-6" d="M549.81,720.68c-.19,0-.39,.04-.57,.11-.2,.08-.38,.2-.53,.35s-.27,.33-.35,.53c-.07,.18-.11,.38-.11,.57,0,.2,.04,.4,.11,.58,.08,.2,.2,.38,.35,.53s.33,.27,.53,.35c.18,.07,.38,.11,.57,.11,.2,0,.4-.04,.58-.11,.2-.08,.38-.2,.53-.35s.27-.33,.35-.53c.07-.18,.11-.38,.11-.58s-.04-.39-.11-.57c-.08-.2-.2-.38-.35-.53s-.33-.27-.53-.35c-.18-.07-.38-.11-.58-.11Z"/><path class="cls-6" d="M549.81,766.08c-.19,0-.39,.03-.57,.11-.2,.08-.38,.19-.53,.35-.15,.15-.27,.33-.35,.53-.07,.18-.11,.37-.11,.57s.04,.39,.11,.58c.08,.2,.2,.38,.35,.53s.33,.27,.53,.35c.18,.07,.38,.11,.57,.11,.2,0,.4-.04,.58-.11,.2-.08,.38-.2,.53-.35s.27-.33,.35-.53c.07-.19,.11-.38,.11-.58s-.04-.39-.11-.57c-.08-.2-.2-.38-.35-.53-.15-.16-.33-.27-.53-.35-.18-.08-.38-.11-.58-.11Z"/><path class="cls-6" d="M549.81,811.48c-.19,0-.39,.03-.57,.11-.2,.07-.38,.19-.53,.34s-.27,.34-.35,.53c-.07,.19-.11,.38-.11,.58s.04,.39,.11,.58c.08,.2,.2,.38,.35,.53s.33,.27,.53,.35c.18,.07,.38,.11,.57,.11,.2,0,.4-.04,.58-.11,.2-.08,.38-.2,.53-.35s.27-.33,.35-.53c.07-.19,.11-.38,.11-.58s-.04-.39-.11-.58c-.08-.19-.2-.38-.35-.53s-.33-.27-.53-.34c-.18-.08-.38-.11-.58-.11Z"/><path class="cls-6" d="M549.81,856.87c-.19,0-.39,.04-.57,.11-.2,.08-.38,.2-.53,.35s-.27,.33-.35,.53c-.07,.19-.11,.38-.11,.58s.04,.39,.11,.58c.08,.19,.2,.37,.35,.53,.15,.15,.33,.27,.53,.34,.18,.08,.38,.11,.57,.11,.2,0,.4-.03,.58-.11,.2-.07,.38-.19,.53-.34,.15-.16,.27-.34,.35-.53,.07-.19,.11-.38,.11-.58s-.04-.39-.11-.58c-.08-.2-.2-.38-.35-.53s-.33-.27-.53-.35c-.18-.07-.38-.11-.58-.11Z"/><path class="cls-6" d="M549.81,902.27c-.19,0-.39,.04-.57,.11-.2,.08-.38,.2-.53,.35s-.27,.33-.35,.53c-.07,.19-.11,.38-.11,.58s.04,.39,.11,.57c.08,.2,.2,.38,.35,.53,.15,.16,.33,.27,.53,.35,.18,.08,.38,.11,.57,.11,.2,0,.4-.03,.58-.11,.2-.08,.38-.19,.53-.35,.15-.15,.27-.33,.35-.53,.07-.18,.11-.37,.11-.57s-.04-.39-.11-.58c-.08-.2-.2-.38-.35-.53s-.33-.27-.53-.35c-.18-.07-.38-.11-.58-.11Z"/><path class="cls-6" d="M549.81,677.16c-.19,0-.39,.04-.57,.11-.2,.08-.38,.2-.53,.35s-.27,.33-.35,.53c-.07,.18-.11,.38-.11,.57,0,.2,.04,.4,.11,.58,.08,.2,.2,.38,.35,.53s.33,.27,.53,.35c.18,.07,.38,.11,.57,.11,.2,0,.4-.04,.58-.11,.2-.08,.38-.2,.53-.35s.27-.33,.35-.53c.07-.18,.11-.38,.11-.58s-.04-.39-.11-.57c-.08-.2-.2-.38-.35-.53s-.33-.27-.53-.35c-.18-.07-.38-.11-.58-.11Z"/><path class="cls-6" d="M549.81,633.64c-.19,0-.39,.04-.57,.11-.2,.08-.38,.2-.53,.35s-.27,.33-.35,.53c-.07,.18-.11,.38-.11,.57,0,.2,.04,.4,.11,.58,.08,.2,.2,.38,.35,.53s.33,.27,.53,.35c.18,.07,.38,.11,.57,.11,.2,0,.4-.04,.58-.11,.2-.08,.38-.2,.53-.35s.27-.33,.35-.53c.07-.18,.11-.38,.11-.58s-.04-.39-.11-.57c-.08-.2-.2-.38-.35-.53s-.33-.27-.53-.35c-.18-.07-.38-.11-.58-.11Z"/><path class="cls-6" d="M549.81,590.12c-.19,0-.39,.04-.57,.11-.2,.08-.38,.2-.53,.35s-.27,.33-.35,.53c-.07,.18-.11,.38-.11,.57,0,.2,.04,.4,.11,.58,.08,.2,.2,.38,.35,.53s.33,.27,.53,.35c.18,.07,.38,.11,.57,.11,.2,0,.4-.04,.58-.11,.2-.08,.38-.2,.53-.35s.27-.33,.35-.53c.07-.18,.11-.38,.11-.58s-.04-.39-.11-.57c-.08-.2-.2-.38-.35-.53s-.33-.27-.53-.35c-.18-.07-.38-.11-.58-.11Z"/><path class="cls-6" d="M549.81,546.6c-.19,0-.39,.04-.57,.11-.2,.08-.38,.2-.53,.35s-.27,.33-.35,.53c-.07,.18-.11,.38-.11,.57,0,.2,.04,.4,.11,.58,.08,.2,.2,.38,.35,.53s.33,.27,.53,.35c.18,.07,.38,.11,.57,.11,.2,0,.4-.04,.58-.11,.2-.08,.38-.2,.53-.35s.27-.33,.35-.53c.07-.18,.11-.38,.11-.58s-.04-.39-.11-.57c-.08-.2-.2-.38-.35-.53s-.33-.27-.53-.35c-.18-.07-.38-.11-.58-.11Z"/><path class="cls-6" d="M549.81,503.08c-.19,0-.39,.04-.57,.11-.2,.08-.38,.2-.53,.35s-.27,.33-.35,.53c-.07,.18-.11,.38-.11,.57,0,.2,.04,.4,.11,.58,.08,.2,.2,.38,.35,.53s.33,.27,.53,.35c.18,.07,.38,.11,.57,.11,.2,0,.4-.04,.58-.11,.2-.08,.38-.2,.53-.35s.27-.33,.35-.53c.07-.18,.11-.38,.11-.58s-.04-.39-.11-.57c-.08-.2-.2-.38-.35-.53s-.33-.27-.53-.35c-.18-.07-.38-.11-.58-.11Z"/><path class="cls-6" d="M549.81,459.56c-.19,0-.39,.04-.57,.11-.2,.08-.38,.2-.53,.35s-.27,.33-.35,.53c-.07,.18-.11,.38-.11,.57,0,.2,.04,.4,.11,.58,.08,.2,.2,.38,.35,.53s.33,.27,.53,.35c.18,.07,.38,.11,.57,.11,.2,0,.4-.04,.58-.11,.2-.08,.38-.2,.53-.35s.27-.33,.35-.53c.07-.18,.11-.38,.11-.58s-.04-.39-.11-.57c-.08-.2-.2-.38-.35-.53s-.33-.27-.53-.35c-.18-.07-.38-.11-.58-.11Z"/><path class="cls-6" d="M549.81,416.04c-.19,0-.39,.04-.57,.11-.2,.08-.38,.2-.53,.35s-.27,.33-.35,.53c-.07,.18-.11,.38-.11,.57,0,.2,.04,.4,.11,.58,.08,.2,.2,.38,.35,.53s.33,.27,.53,.35c.18,.07,.38,.11,.57,.11,.2,0,.4-.04,.58-.11,.2-.08,.38-.2,.53-.35s.27-.33,.35-.53c.07-.18,.11-.38,.11-.58s-.04-.39-.11-.57c-.08-.2-.2-.38-.35-.53s-.33-.27-.53-.35c-.18-.07-.38-.11-.58-.11Z"/><path class="cls-6" d="M549.81,372.52c-.19,0-.39,.04-.57,.11-.2,.08-.38,.2-.53,.35s-.27,.33-.35,.53c-.07,.18-.11,.38-.11,.57,0,.2,.04,.4,.11,.58,.08,.2,.2,.38,.35,.53s.33,.27,.53,.35c.18,.07,.38,.11,.57,.11,.2,0,.4-.04,.58-.11,.2-.08,.38-.2,.53-.35s.27-.33,.35-.53c.07-.18,.11-.38,.11-.58s-.04-.39-.11-.57c-.08-.2-.2-.38-.35-.53s-.33-.27-.53-.35c-.18-.07-.38-.11-.58-.11Z"/><line class="cls-6" x1="251.75" y1="374.08" x2="253.63" y2="374.08"/><path class="cls-6" d="M253.88,720.68c-.2,0-.4,.04-.58,.11-.2,.08-.38,.2-.53,.35s-.27,.33-.35,.53c-.07,.18-.11,.38-.11,.57,0,.2,.04,.4,.11,.58,.08,.2,.2,.38,.35,.53s.33,.27,.53,.35c.18,.07,.38,.11,.58,.11s.39-.04,.57-.11c.2-.08,.38-.2,.53-.35,.16-.15,.27-.33,.35-.53,.08-.18,.11-.38,.11-.58s-.03-.39-.11-.57c-.08-.2-.19-.38-.35-.53-.15-.15-.33-.27-.53-.35-.18-.07-.38-.11-.57-.11Z"/><path class="cls-6" d="M250.26,766.08c-.2,0-.39,.03-.58,.11-.2,.08-.38,.19-.53,.35-.15,.15-.27,.33-.35,.53-.07,.18-.11,.37-.11,.57s.04,.39,.11,.58c.08,.2,.2,.38,.35,.53s.33,.27,.53,.35c.19,.07,.38,.11,.58,.11s.39-.04,.57-.11c.2-.08,.38-.2,.54-.35,.15-.15,.26-.33,.34-.53,.08-.19,.11-.38,.11-.58s-.03-.39-.11-.57c-.08-.2-.19-.38-.34-.53-.16-.16-.34-.27-.54-.35-.18-.08-.37-.11-.57-.11Z"/><path class="cls-6" d="M250.26,811.48c-.2,0-.39,.03-.58,.11-.2,.07-.38,.19-.53,.34s-.27,.34-.35,.53c-.07,.19-.11,.38-.11,.58s.04,.39,.11,.58c.08,.2,.2,.38,.35,.53s.33,.27,.53,.35c.19,.07,.38,.11,.58,.11s.39-.04,.57-.11c.2-.08,.38-.2,.54-.35,.15-.15,.26-.33,.34-.53,.08-.19,.11-.38,.11-.58s-.03-.39-.11-.58-.19-.38-.34-.53c-.16-.15-.34-.27-.54-.34-.18-.08-.37-.11-.57-.11Z"/><path class="cls-6" d="M250.26,856.87c-.2,0-.39,.04-.58,.11-.2,.08-.38,.2-.53,.35s-.27,.33-.35,.53c-.07,.19-.11,.38-.11,.58s.04,.39,.11,.58c.08,.19,.2,.37,.35,.53,.15,.15,.33,.27,.53,.34,.19,.08,.38,.11,.58,.11s.39-.03,.57-.11c.2-.07,.38-.19,.54-.34,.15-.16,.26-.34,.34-.53s.11-.38,.11-.58-.03-.39-.11-.58c-.08-.2-.19-.38-.34-.53-.16-.15-.34-.27-.54-.35-.18-.07-.37-.11-.57-.11Z"/><path class="cls-6" d="M250.26,902.27c-.2,0-.39,.04-.58,.11-.2,.08-.38,.2-.53,.35s-.27,.33-.35,.53c-.07,.19-.11,.38-.11,.58s.04,.39,.11,.57c.08,.2,.2,.38,.35,.53,.15,.16,.33,.27,.53,.35,.19,.08,.38,.11,.58,.11s.39-.03,.57-.11c.2-.08,.38-.19,.54-.35,.15-.15,.26-.33,.34-.53,.08-.18,.11-.37,.11-.57s-.03-.39-.11-.58c-.08-.2-.19-.38-.34-.53-.16-.15-.34-.27-.54-.35-.18-.07-.37-.11-.57-.11Z"/><path class="cls-6" d="M267.41,677.16c-.19,0-.39,.04-.57,.11-.2,.08-.38,.2-.53,.35s-.27,.33-.35,.53c-.07,.18-.11,.38-.11,.57,0,.2,.04,.4,.11,.58,.08,.2,.2,.38,.35,.53s.33,.27,.53,.35c.18,.07,.38,.11,.57,.11,.2,0,.4-.04,.58-.11,.2-.08,.38-.2,.53-.35s.27-.32,.34-.52h.01c.07-.19,.11-.39,.11-.59s-.04-.39-.11-.57c-.08-.2-.2-.38-.35-.53s-.33-.27-.53-.35c-.18-.07-.38-.11-.58-.11Z"/></g></g></g><g id="Wall"><line class="cls-4" x1="413.93" y1="197" x2="413.93" y2="330.69"/><line class="cls-4" x1="375.74" y1="149.41" x2="375.74" y2="109.02"/><line class="cls-4" x1="410.18" y1="109.02" x2="410.18" y2="128.12"/><rect class="cls-4" x="375.74" y="152.65" width="34.44" height="9.91"/><polygon class="cls-4" points="498.47 232.07 498.47 228.62 468.41 228.62 468.41 166 498.47 166 498.47 162.56 448.69 162.56 448.69 166 464.97 166 464.97 228.62 448.69 228.62 448.69 232.07 498.47 232.07"/><line class="cls-4" x1="375.74" y1="149.41" x2="413.93" y2="149.41"/><line class="cls-4" x1="531.34" y1="104.33" x2="371.98" y2="104.33"/><line class="cls-4" x1="371.98" y1="104.33" x2="371.98" y2="109.02"/><line class="cls-4" x1="413.93" y1="149.41" x2="413.93" y2="166"/><line class="cls-4" x1="413.93" y1="166" x2="371.98" y2="166"/><polyline class="cls-4" points="531.34 104.33 531.34 358.87 526.65 358.87 526.65 109.02"/><line class="cls-4" x1="410.18" y1="128.12" x2="413.93" y2="128.12"/><line class="cls-4" x1="413.93" y1="128.12" x2="413.93" y2="109.02"/><line class="cls-4" x1="410.18" y1="109.02" x2="375.74" y2="109.02"/><line class="cls-4" x1="526.65" y1="109.02" x2="413.93" y2="109.02"/><line class="cls-4" x1="413.93" y1="358.87" x2="339.25" y2="358.87"/><line class="cls-4" x1="410.18" y1="197" x2="413.93" y2="197"/><line class="cls-4" x1="413.93" y1="330.69" x2="410.18" y2="330.69"/><line class="cls-4" x1="371.98" y1="109.02" x2="371.98" y2="166"/><line class="cls-4" x1="300.12" y1="358.87" x2="300.12" y2="109.02"/><line class="cls-4" x1="295.43" y1="358.87" x2="295.43" y2="109.02"/><line class="cls-4" x1="300.12" y1="358.87" x2="295.43" y2="358.87"/><line class="cls-4" x1="410.18" y1="330.69" x2="410.18" y2="197"/><line class="cls-4" x1="339.25" y1="363.57" x2="339.25" y2="358.87"/><line class="cls-4" x1="413.93" y1="363.57" x2="339.25" y2="363.57"/><line class="cls-4" x1="413.93" y1="358.87" x2="413.93" y2="363.57"/><line class="cls-4" x1="300.12" y1="109.02" x2="295.43" y2="109.02"/></g><g id="Window_Door_Stairs"><line class="cls-5" x1="295.43" y1="104.33" x2="295.43" y2="109.02"/><line class="cls-5" x1="413.93" y1="330.69" x2="413.93" y2="358.87"/><line class="cls-5" x1="410.18" y1="330.69" x2="410.18" y2="358.88"/><polyline class="cls-5" points="413.93 363.57 531.34 363.57 531.34 358.87"/><line class="cls-5" x1="413.93" y1="358.87" x2="526.65" y2="358.87"/><line class="cls-5" x1="339.25" y1="358.87" x2="300.12" y2="358.87"/><polyline class="cls-5" points="339.25 363.57 295.43 363.57 295.43 358.87"/><line class="cls-5" x1="371.98" y1="109.02" x2="295.43" y2="109.02"/><line class="cls-5" x1="371.98" y1="104.33" x2="295.43" y2="104.33"/><line class="cls-5" x1="410.18" y1="340.71" x2="375.74" y2="340.71"/><line class="cls-5" x1="410.18" y1="247.72" x2="375.74" y2="247.72"/><line class="cls-5" x1="410.18" y1="256.18" x2="375.74" y2="256.18"/><line class="cls-5" x1="410.18" y1="264.63" x2="375.74" y2="264.63"/><line class="cls-5" x1="410.18" y1="273.08" x2="375.74" y2="273.08"/><line class="cls-5" x1="410.18" y1="281.54" x2="375.74" y2="281.54"/><line class="cls-5" x1="410.18" y1="289.99" x2="375.74" y2="289.99"/><line class="cls-5" x1="410.18" y1="298.44" x2="375.74" y2="298.44"/><line class="cls-5" x1="410.18" y1="306.9" x2="375.74" y2="306.9"/><line class="cls-5" x1="410.18" y1="315.35" x2="375.74" y2="315.35"/><line class="cls-5" x1="410.18" y1="323.8" x2="375.74" y2="323.8"/><line class="cls-5" x1="410.18" y1="332.26" x2="375.74" y2="332.26"/><line class="cls-5" x1="410.18" y1="239.27" x2="375.74" y2="239.27"/><line class="cls-5" x1="375.74" y1="197" x2="410.18" y2="197"/><line class="cls-5" x1="410.18" y1="205.45" x2="375.74" y2="205.45"/><line class="cls-5" x1="410.18" y1="213.91" x2="375.74" y2="213.91"/><line class="cls-5" x1="410.18" y1="222.36" x2="375.74" y2="222.36"/><line class="cls-5" x1="410.18" y1="230.82" x2="375.74" y2="230.82"/><line class="cls-5" x1="375.74" y1="340.71" x2="375.74" y2="330.69"/></g><g id="Accessory"><line class="cls-7" x1="371.98" y1="224.62" x2="300.12" y2="224.62"/><line class="cls-7" x1="414.04" y1="128.12" x2="526.65" y2="128.12"/><line class="cls-7" x1="371.98" y1="330.69" x2="375.74" y2="330.69"/><line class="cls-7" x1="300.12" y1="123.11" x2="371.98" y2="123.11"/><line class="cls-7" x1="498.47" y1="228.62" x2="498.48" y2="166"/><line class="cls-7" x1="371.98" y1="330.69" x2="371.98" y2="214.37"/><polyline class="cls-7" points="448.69 162.56 448.69 157.86 498.47 157.86 498.47 162.56"/><polyline class="cls-7" points="448.69 232.07 448.69 236.76 498.47 236.76 498.47 232.07"/><line class="cls-7" x1="375.74" y1="197" x2="375.74" y2="214.37"/><line class="cls-7" x1="371.98" y1="197" x2="375.74" y2="197"/><line class="cls-7" x1="371.98" y1="214.37" x2="371.98" y2="197"/><line class="cls-7" x1="375.74" y1="214.37" x2="375.74" y2="330.69"/><line class="cls-7" x1="448.69" y1="228.62" x2="448.69" y2="166"/><line class="cls-7" x1="300.12" y1="234.89" x2="371.98" y2="234.89"/><line class="cls-7" x1="300.12" y1="235.82" x2="371.98" y2="235.82"/></g><g id="TEXT"><g><path d="M32.2,1028.91h-5.43v-1.05h2.19v-8.03l-2.07,1.03v-1.2l2.23-1.15h1.03v9.35h2.04v1.05Z"/><path d="M62.48,1023.24c.69,.16,1.23,.47,1.62,.94s.59,1.02,.59,1.66c0,.94-.34,1.68-1.02,2.24-.68,.56-1.5,.83-2.46,.83h-2.94v-10.33h2.86c1,0,1.77,.22,2.34,.66,.56,.44,.84,1.05,.84,1.85,0,.49-.16,.92-.49,1.3s-.77,.66-1.34,.83v.03Zm-3.01-.56h1.41c1.47,0,2.2-.52,2.2-1.58,0-.48-.18-.85-.54-1.1-.36-.26-.89-.38-1.59-.38h-1.48v3.06Zm0,5.18h1.36c.8,0,1.43-.18,1.89-.54,.47-.36,.7-.86,.7-1.49,0-.67-.23-1.19-.69-1.55s-1.12-.55-1.99-.55h-1.27v4.13Z"/><path d="M73.42,1025.13h-5.24c0,.86,.25,1.58,.75,2.14,.5,.56,1.11,.84,1.84,.84s1.41-.12,2.15-.37l.2,.92c-.67,.3-1.46,.45-2.36,.45-1.13,0-2.05-.36-2.74-1.09s-1.04-1.71-1.04-2.94,.31-2.18,.93-2.9c.62-.72,1.43-1.08,2.41-1.08,.88,0,1.61,.33,2.2,1s.89,1.56,.89,2.67v.36Zm-1.25-.93c0-.6-.19-1.1-.56-1.51-.37-.41-.79-.61-1.25-.61-.59,0-1.08,.2-1.47,.59-.39,.39-.6,.9-.65,1.53h3.92Z"/><path d="M82.16,1028.91h-1.14v-1.1c-.23,.38-.57,.69-1.01,.93-.44,.24-.9,.37-1.38,.37-.87,0-1.56-.39-2.07-1.17-.51-.78-.76-1.77-.76-2.96,0-1.12,.26-2.04,.79-2.78,.53-.73,1.23-1.1,2.11-1.1,.96,0,1.74,.39,2.32,1.17v-3.69h1.14v10.33Zm-1.14-2.34v-3.17c-.55-.88-1.21-1.32-1.98-1.32-.63,0-1.13,.28-1.49,.84-.37,.56-.55,1.27-.55,2.12s.17,1.61,.52,2.18c.34,.57,.82,.86,1.42,.86,.29,0,.58-.08,.87-.23,.29-.16,.57-.39,.83-.7,.26-.31,.39-.5,.39-.57Z"/><path d="M31.93,1050.91h-5.68v-.87c1.44-1.61,2.38-2.68,2.81-3.23s.78-1.12,1.05-1.72c.27-.6,.4-1.2,.4-1.79s-.17-1.03-.52-1.36c-.35-.33-.84-.5-1.47-.5-.48,0-1.13,.15-1.95,.45l-.17-1.03c.74-.31,1.51-.47,2.31-.47,.92,0,1.67,.26,2.23,.78,.56,.52,.85,1.21,.85,2.08,0,.62-.15,1.24-.44,1.85s-.66,1.2-1.12,1.76-1.34,1.57-2.65,3.02h4.35v1.05Z"/><path d="M62.48,1045.24c.69,.16,1.23,.47,1.62,.94s.59,1.02,.59,1.66c0,.94-.34,1.68-1.02,2.24-.68,.56-1.5,.83-2.46,.83h-2.94v-10.33h2.86c1,0,1.77,.22,2.34,.66,.56,.44,.84,1.05,.84,1.85,0,.49-.16,.92-.49,1.3s-.77,.66-1.34,.83v.03Zm-3.01-.56h1.41c1.47,0,2.2-.52,2.2-1.58,0-.48-.18-.85-.54-1.1-.36-.26-.89-.38-1.59-.38h-1.48v3.06Zm0,5.18h1.36c.8,0,1.43-.18,1.89-.54,.47-.36,.7-.86,.7-1.49,0-.67-.23-1.19-.69-1.55s-1.12-.55-1.99-.55h-1.27v4.13Z"/><path d="M73.38,1050.91h-1.14c-.09-.31-.14-.72-.14-1.23-.65,.95-1.53,1.43-2.65,1.43-.57,0-1.07-.2-1.5-.6-.43-.4-.65-.92-.65-1.56,0-.38,.08-.71,.23-1s.37-.53,.67-.73c.29-.2,.65-.35,1.07-.47,.42-.12,.92-.19,1.49-.24l1.28-.1v-.37c0-1.31-.61-1.96-1.83-1.96-.29,0-.65,.06-1.09,.19-.44,.12-.82,.27-1.14,.44l-.3-.82c1.04-.53,2.01-.8,2.9-.8,1.74,0,2.61,.92,2.61,2.76v3.28c0,.66,.06,1.25,.19,1.77Zm-1.33-2.26v-1.38c-1.03,.09-1.74,.18-2.12,.26-.38,.08-.72,.23-1,.45-.28,.22-.42,.52-.42,.89,0,.34,.12,.62,.36,.83s.54,.32,.92,.32c.41,0,.81-.12,1.21-.36,.4-.24,.75-.57,1.05-1Z"/><path d="M82.27,1050.57c-.77,.35-1.52,.53-2.26,.53-1.36,0-2.04-.72-2.04-2.16v-4.67h-1.46v-.99h1.46v-2.09h1.11v2.09h2.59v.99h-2.59v4.37c0,.46,.1,.82,.31,1.08,.21,.26,.48,.38,.83,.38,.62,0,1.24-.14,1.85-.42l.2,.89Z"/><path d="M91.19,1050.91h-1.14v-4.89c0-.68-.11-1.17-.33-1.48-.22-.31-.56-.46-1.02-.46-.7,0-1.45,.43-2.25,1.3v5.52h-1.14v-10.33h1.14v3.82c.82-.87,1.68-1.3,2.59-1.3,1.43,0,2.15,.86,2.15,2.59v5.22Z"/><path d="M100.31,1043.49l-.46,1.1c-.5-.22-.94-.33-1.3-.33-.34,0-.67,.1-.99,.29-.32,.19-.62,.47-.89,.83-.27,.36-.41,.56-.41,.6v4.94h-1.14v-7.63h1.14v1.55c.61-1.15,1.4-1.73,2.37-1.73,.58,0,1.14,.13,1.68,.39Z"/><path d="M106.24,1043.1c1.05,0,1.88,.37,2.5,1.1s.93,1.7,.93,2.89-.31,2.18-.93,2.92-1.46,1.11-2.5,1.11-1.89-.37-2.51-1.1c-.62-.74-.93-1.71-.93-2.92s.31-2.17,.93-2.9c.62-.73,1.46-1.09,2.5-1.09Zm0,7.02c.69,0,1.24-.29,1.64-.88s.6-1.3,.6-2.13c0-.88-.2-1.6-.59-2.17s-.94-.85-1.65-.85-1.26,.28-1.65,.84c-.39,.56-.59,1.29-.59,2.18s.2,1.56,.59,2.14c.4,.58,.94,.87,1.64,.87Z"/><path d="M115.24,1043.1c1.05,0,1.88,.37,2.5,1.1s.93,1.7,.93,2.89-.31,2.18-.93,2.92-1.46,1.11-2.5,1.11-1.89-.37-2.51-1.1c-.62-.74-.93-1.71-.93-2.92s.31-2.17,.93-2.9c.62-.73,1.46-1.09,2.5-1.09Zm0,7.02c.69,0,1.24-.29,1.64-.88s.6-1.3,.6-2.13c0-.88-.2-1.6-.59-2.17s-.94-.85-1.65-.85-1.26,.28-1.65,.84c-.39,.56-.59,1.29-.59,2.18s.2,1.56,.59,2.14c.4,.58,.94,.87,1.64,.87Z"/><path d="M127.8,1050.91h-1.14v-5.01c0-1.21-.22-1.82-.67-1.82-.23,0-.48,.21-.76,.63-.28,.42-.41,.65-.41,.69v5.51h-1.14v-5.01c0-1.21-.23-1.82-.68-1.82-.22,0-.48,.21-.75,.63-.28,.42-.41,.65-.41,.69v5.51h-1.14v-7.63h1.1v1.15c.21-.4,.47-.73,.77-.97,.3-.24,.59-.36,.88-.36,.31,0,.58,.12,.83,.36,.24,.24,.41,.57,.51,.97,.21-.4,.47-.73,.77-.97,.3-.24,.59-.36,.88-.36,.92,0,1.38,.83,1.38,2.47v5.34Z"/><path d="M29.89,1067.36c.63,.18,1.14,.5,1.52,.96,.38,.47,.57,.99,.57,1.57,0,.91-.35,1.67-1.06,2.29-.71,.62-1.54,.93-2.5,.93-.82,0-1.56-.18-2.2-.54l.23-.99c.68,.32,1.35,.48,2.01,.48,.62,0,1.16-.19,1.6-.58,.44-.39,.66-.89,.66-1.5s-.24-1.09-.71-1.46c-.47-.38-1.1-.56-1.88-.56h-.31v-.99h.09c.75,0,1.37-.18,1.86-.53,.49-.35,.73-.83,.73-1.43,0-.49-.18-.87-.53-1.15-.35-.28-.83-.41-1.45-.41-.53,0-1.13,.14-1.79,.43l-.16-1.03c.66-.3,1.33-.45,2.01-.45,.92,0,1.68,.24,2.28,.73,.6,.49,.9,1.11,.9,1.87,0,.53-.18,1.02-.55,1.48-.36,.46-.8,.74-1.31,.86v.04Z"/><path d="M65.42,1062.58l-1.32,10.33h-1.11l-1.76-5.82-1.75,5.82h-1.14l-1.29-10.33h1.19l.87,8.4,1.52-5.08h1.2l1.53,5.1,.89-8.42h1.17Z"/><path d="M73.58,1072.27c-.81,.56-1.75,.84-2.82,.84-1.34,0-2.35-.46-3.05-1.38-.7-.92-1.04-2.25-1.04-3.98s.34-2.99,1.01-3.94c.67-.95,1.7-1.42,3.08-1.42,.5,0,.99,.06,1.48,.19s.88,.3,1.18,.51l-.4,.94c-.69-.39-1.44-.59-2.26-.59-.95,0-1.66,.35-2.12,1.04-.46,.69-.7,1.78-.7,3.28,0,2.87,.94,4.31,2.82,4.31,.8,0,1.61-.24,2.45-.73l.37,.95Z"/><path d="M32.6,1092.53h-1.27v2.39h-1.2v-2.39h-4.5v-.92l4.08-7.03h1.62v6.9h1.27v1.05Zm-2.48-1.05v-5.71l-3.28,5.71h3.28Z"/><path d="M63.43,1085.72c-.62-.21-1.2-.32-1.75-.32-.62,0-1.13,.14-1.53,.43-.39,.29-.59,.69-.59,1.22,0,.63,.52,1.17,1.55,1.65,.76,.35,1.27,.6,1.51,.73,.25,.14,.5,.33,.75,.56s.46,.52,.61,.85c.15,.32,.23,.69,.23,1.09,0,1.01-.34,1.79-1.01,2.34-.68,.55-1.47,.83-2.39,.83s-1.67-.18-2.34-.53l.25-1.03c.79,.36,1.47,.53,2.06,.53,.68,0,1.23-.18,1.64-.53,.41-.35,.62-.84,.62-1.46,0-.46-.13-.85-.4-1.17-.27-.32-.76-.65-1.49-.98-.74-.34-1.22-.58-1.44-.7-.22-.12-.43-.3-.65-.52s-.38-.47-.5-.74c-.12-.27-.18-.57-.18-.89,0-.85,.31-1.52,.92-2s1.39-.72,2.34-.72c.69,0,1.37,.11,2.05,.32l-.27,1.03Z"/><path d="M73.26,1094.57c-.77,.35-1.52,.53-2.26,.53-1.36,0-2.04-.72-2.04-2.16v-4.67h-1.46v-.99h1.46v-2.09h1.11v2.09h2.59v.99h-2.59v4.37c0,.46,.1,.82,.31,1.08,.21,.26,.48,.38,.83,.38,.62,0,1.24-.14,1.85-.42l.2,.89Z"/><path d="M82.18,1094.91h-1.14v-1.13c-.82,.87-1.68,1.31-2.59,1.31-1.43,0-2.15-.87-2.15-2.6v-5.21h1.14v4.89c0,.65,.1,1.13,.31,1.45,.21,.32,.55,.48,1.04,.48,.7,0,1.45-.43,2.25-1.3v-5.51h1.14v7.63Z"/><path d="M91.16,1094.91h-1.14v-1.1c-.23,.38-.57,.69-1.01,.93-.44,.24-.9,.37-1.38,.37-.87,0-1.56-.39-2.07-1.17-.51-.78-.76-1.77-.76-2.96,0-1.12,.26-2.04,.79-2.78,.53-.73,1.23-1.1,2.11-1.1,.96,0,1.74,.39,2.32,1.17v-3.69h1.14v10.33Zm-1.14-2.34v-3.17c-.55-.88-1.21-1.32-1.98-1.32-.63,0-1.13,.28-1.49,.84-.37,.56-.55,1.27-.55,2.12s.17,1.61,.52,2.18c.34,.57,.82,.86,1.42,.86,.29,0,.58-.08,.87-.23,.29-.16,.57-.39,.83-.7,.26-.31,.39-.5,.39-.57Z"/><path d="M100.54,1087.28l-2.89,7.63c-.42,1.12-.84,1.91-1.25,2.35-.41,.44-.88,.67-1.41,.67-.47,0-.93-.09-1.39-.26l.19-.92c.37,.12,.7,.18,1,.18,.41,0,.75-.16,1.01-.48s.53-.84,.8-1.56l-2.86-7.62h1.25l2.16,6.09,2.16-6.09h1.25Z"/></g><circle class="cls-2" cx="765.53" cy="1024.02" r="11.44"/><line class="cls-2" x1="765.53" y1="1024.02" x2="765.53" y2="1035.46"/><path d="M472.48,300.64h-5.43v-1.05h2.19v-8.03l-2.07,1.03v-1.2l2.23-1.15h1.03v9.35h2.04v1.05Z"/><path d="M334.73,294.47c.33-.09,.66-.13,.97-.13,.98,0,1.75,.3,2.31,.9,.57,.6,.85,1.34,.85,2.24,0,.94-.33,1.73-.99,2.38-.66,.65-1.46,.98-2.41,.98s-1.66-.15-2.27-.45l.24-1.02c.66,.28,1.35,.42,2.06,.42,.63,0,1.14-.2,1.53-.61,.39-.41,.58-.97,.58-1.7,0-.69-.18-1.22-.55-1.59-.37-.37-.84-.56-1.41-.56-.42,0-.83,.08-1.25,.24l-.72-.33v-4.94h4.72v1.05h-3.68v3.12Z"/><path d="M339.41,151.04h-1.27v2.39h-1.2v-2.39h-4.5v-.92l4.08-7.03h1.62v6.9h1.27v1.05Zm-2.48-1.05v-5.71l-3.28,5.71h3.28Z"/><path d="M393.6,129.99c.63,.18,1.14,.5,1.52,.96,.38,.47,.57,.99,.57,1.57,0,.91-.35,1.67-1.06,2.29-.71,.62-1.54,.93-2.5,.93-.82,0-1.56-.18-2.2-.54l.23-.99c.68,.32,1.35,.48,2.01,.48,.62,0,1.16-.19,1.6-.58,.44-.39,.66-.89,.66-1.5s-.24-1.09-.71-1.46c-.47-.38-1.1-.56-1.88-.56h-.31v-.99h.09c.75,0,1.37-.18,1.86-.53,.49-.35,.73-.83,.73-1.43,0-.49-.18-.87-.53-1.15-.35-.28-.83-.41-1.45-.41-.53,0-1.13,.14-1.79,.43l-.16-1.03c.66-.3,1.33-.45,2.01-.45,.92,0,1.68,.24,2.28,.73,.6,.49,.9,1.11,.9,1.87,0,.53-.18,1.02-.55,1.48-.36,.46-.8,.74-1.31,.86v.04Z"/><path d="M487.04,203.72h-5.68v-.87c1.44-1.61,2.38-2.68,2.81-3.23s.78-1.12,1.05-1.72c.27-.6,.4-1.2,.4-1.79s-.17-1.03-.52-1.36c-.35-.33-.84-.5-1.47-.5-.48,0-1.13,.15-1.95,.45l-.17-1.03c.74-.31,1.51-.47,2.31-.47,.92,0,1.67,.26,2.23,.78,.56,.52,.85,1.21,.85,2.08,0,.62-.15,1.24-.44,1.85s-.66,1.2-1.12,1.76-1.34,1.57-2.65,3.02h4.35v1.05Z"/><g><path d="M200.48,1022.75c.33-.09,.66-.13,.97-.13,.98,0,1.75,.3,2.31,.9,.57,.6,.85,1.34,.85,2.24,0,.94-.33,1.73-.99,2.38-.66,.65-1.46,.98-2.41,.98s-1.66-.15-2.27-.45l.24-1.02c.66,.28,1.35,.42,2.06,.42,.63,0,1.14-.2,1.53-.61,.39-.41,.58-.97,.58-1.7,0-.69-.18-1.22-.55-1.59-.37-.37-.84-.56-1.41-.56-.42,0-.83,.08-1.25,.24l-.72-.33v-4.94h4.72v1.05h-3.68v3.12Z"/><path d="M237.87,1018.58l-3.37,10.33h-1.44l-3.38-10.33h1.26l2.83,8.94,2.85-8.94h1.25Z"/><path d="M242.79,1021.1c1.05,0,1.88,.37,2.5,1.1s.93,1.7,.93,2.89-.31,2.18-.93,2.92-1.46,1.11-2.5,1.11-1.89-.37-2.51-1.1c-.62-.74-.93-1.71-.93-2.92s.31-2.17,.93-2.9c.62-.73,1.46-1.09,2.5-1.09Zm0,7.02c.69,0,1.24-.29,1.64-.88s.6-1.3,.6-2.13c0-.88-.2-1.6-.59-2.17s-.94-.85-1.65-.85-1.26,.28-1.65,.84c-.39,.56-.59,1.29-.59,2.18s.2,1.56,.59,2.14c.4,.58,.94,.87,1.64,.87Z"/><path d="M252.85,1028.91h-1.14v-6.64h-2.25v-.99h3.39v7.63Zm-.56-10.52c.21,0,.4,.08,.55,.23,.15,.15,.23,.34,.23,.55,0,.23-.07,.41-.22,.56s-.33,.23-.55,.23c-.2,0-.38-.08-.53-.24-.15-.16-.23-.34-.23-.55s.08-.39,.23-.55c.15-.16,.33-.23,.53-.23Z"/><path d="M263.72,1028.91h-1.14v-1.1c-.23,.38-.57,.69-1.01,.93-.44,.24-.9,.37-1.38,.37-.87,0-1.56-.39-2.07-1.17-.51-.78-.76-1.77-.76-2.96,0-1.12,.26-2.04,.79-2.78,.53-.73,1.23-1.1,2.11-1.1,.96,0,1.74,.39,2.32,1.17v-3.69h1.14v10.33Zm-1.14-2.34v-3.17c-.55-.88-1.21-1.32-1.98-1.32-.63,0-1.13,.28-1.49,.84-.37,.56-.55,1.27-.55,2.12s.17,1.61,.52,2.18c.34,.57,.82,.86,1.42,.86,.29,0,.58-.08,.87-.23,.29-.16,.57-.39,.83-.7,.26-.31,.39-.5,.39-.57Z"/></g></g></svg>