<svg xmlns="http://www.w3.org/2000/svg" viewBox="0 0 800 1120" xmlns:v="https://vecta.io/nano"><style><![CDATA[.J{stroke:#5b5b5b}.K{stroke:#231f20}.L{stroke-linecap:round}.M{stroke-width:1.2}.N{stroke-linejoin:round}.O{stroke-width:.2}]]></style><defs><pattern id="A" width="72" height="72" patternTransform="translate(3435.49 -3444.75)" patternUnits="userSpaceOnUse" viewBox="0 0 72 72"><g fill="none"><path d="M0 0h72v72H0z"/><g stroke-width=".1" class="K"><path d="M71.75 68.4h72.5M71.75 54h72.5m-72.5-14.4h72.5m-72.5-14.4h72.5m-72.5-14.4h72.5"/><path d="M71.75 61.2h72.5m-72.5-14.4h72.5m-72.5-14.4h72.5M71.75 18h72.5M71.75 3.6h72.5M-.25 68.4h72.5M-.25 54h72.5M-.25 39.6h72.5"/><path d="M-.25 25.2h72.5M-.25 10.8h72.5M-.25 61.2h72.5"/><path d="M-.25 46.8h72.5M-.25 32.4h72.5M-.25 18h72.5M-.25 3.6h72.5m-144.5 64.8H.25"/><path d="M-72.25 54H.25m-72.5-14.4H.25m-72.5-14.4H.25m-72.5-14.4H.25m-72.5 50.4H.25m-72.5-14.4H.25m-72.5-14.4H.25M-72.25 18H.25m-72.5-14.4H.25"/></g></g></pattern><path id="B" d="M250.18 326.31c-.2 0-.39.04-.58.11a1.58 1.58 0 0 0-.88.88c-.07.18-.11.38-.11.58s.04.39.11.58a1.58 1.58 0 0 0 .88.88c.18.07.38.11.58.11s.39-.04.58-.11a1.58 1.58 0 0 0 .88-.88c.07-.18.11-.38.11-.58s-.04-.39-.11-.58a1.58 1.58 0 0 0-.88-.88c-.18-.07-.38-.11-.58-.11z"/><path id="C" d="M257.47 89.22v1.96"/><path id="D" d="M540.74 86.16V58.64"/><path id="E" d="M381.35 87.69c0 .19-.04.39-.11.57a1.54 1.54 0 0 1-.35.52c-.15.15-.33.26-.53.34-.18.07-.38.11-.57.11s-.39-.04-.57-.11c-.2-.08-.38-.19-.53-.34a1.54 1.54 0 0 1-.35-.52c-.07-.18-.11-.37-.11-.57s.04-.39.11-.57a1.54 1.54 0 0 1 .35-.52c.15-.15.33-.26.53-.34.18-.07.38-.11.57-.11s.39.04.57.11c.2.08.38.19.53.34a1.54 1.54 0 0 1 .35.52c.07.18.11.37.11.57z"/><path id="F" d="M499.72 87.69c0 .19.04.39.11.57a1.54 1.54 0 0 0 .35.52c.15.15.33.26.53.34.18.07.38.11.57.11s.39-.04.57-.11c.2-.08.38-.19.53-.34a1.54 1.54 0 0 0 .35-.52c.07-.18.11-.37.11-.57s-.04-.39-.11-.57a1.54 1.54 0 0 0-.35-.52c-.15-.15-.33-.26-.53-.34-.18-.07-.38-.11-.57-.11s-.39.04-.57.11c-.2.08-.38.19-.53.34a1.54 1.54 0 0 0-.35.52c-.07.18-.11.37-.11.57z"/><path id="G" d="M548.25 143.02h-1.88"/><path id="H" d="M255.19 142.24h40.23"/><path id="I" d="M531.27 142.24h13.46"/><path id="J" d="M281.84 633.64c-.19 0-.39.04-.57.11a1.58 1.58 0 0 0-.88.88c-.07.18-.11.38-.11.57 0 .2.04.4.11.58a1.58 1.58 0 0 0 .88.88c.18.07.38.11.57.11.2 0 .4-.04.58-.11a1.58 1.58 0 0 0 .88-.88c.07-.18.11-.38.11-.58s-.04-.39-.11-.57a1.58 1.58 0 0 0-.88-.88c-.18-.07-.38-.11-.58-.11z"/><path id="K" d="M251.64 503.08c-.2 0-.4.04-.58.11a1.58 1.58 0 0 0-.88.88c-.07.18-.11.38-.11.57 0 .2.04.4.11.58a1.58 1.58 0 0 0 .88.88c.18.07.38.11.58.11s.39-.04.57-.11a1.58 1.58 0 0 0 .53-.35c.16-.15.27-.33.35-.53.08-.18.11-.38.11-.58a1.38 1.38 0 0 0-.11-.57c-.08-.2-.19-.38-.35-.53a1.58 1.58 0 0 0-.53-.35c-.18-.07-.38-.11-.57-.11z"/><path id="L" d="M410.18 109.02h-34.44"/><path id="M" d="M62.48 1023.24c.69.16 1.23.47 1.62.94s.59 1.02.59 1.66c0 .94-.34 1.68-1.02 2.24s-1.5.83-2.46.83h-2.94v-10.33h2.86c1 0 1.77.22 2.34.66.56.44.84 1.05.84 1.85 0 .49-.16.92-.49 1.3s-.77.66-1.34.83v.03zm-3.01-.56h1.41c1.47 0 2.2-.52 2.2-1.58 0-.48-.18-.85-.54-1.1-.36-.26-.89-.38-1.59-.38h-1.48v3.06zm0 5.18h1.36c.8 0 1.43-.18 1.89-.54.47-.36.7-.86.7-1.49 0-.67-.23-1.19-.69-1.55s-1.12-.55-1.99-.55h-1.27v4.13z"/><path id="N" d="M82.16 1028.91h-1.14v-1.1c-.23.38-.57.69-1.01.93s-.9.37-1.38.37c-.87 0-1.56-.39-2.07-1.17s-.76-1.77-.76-2.96c0-1.12.26-2.04.79-2.78.53-.73 1.23-1.1 2.11-1.1.96 0 1.74.39 2.32 1.17v-3.69h1.14v10.33zm-1.14-2.34v-3.17c-.55-.88-1.21-1.32-1.98-1.32-.63 0-1.13.28-1.49.84-.37.56-.55 1.27-.55 2.12s.17 1.61.52 2.18c.34.57.82.86 1.42.86.29 0 .58-.08.87-.23a2.95 2.95 0 0 0 .83-.7c.26-.31.39-.5.39-.57z"/><path id="O" d="M31.93 1050.91h-5.68v-.87l2.81-3.23c.43-.55.78-1.12 1.05-1.72s.4-1.2.4-1.79-.17-1.03-.52-1.36-.84-.5-1.47-.5c-.48 0-1.13.15-1.95.45l-.17-1.03c.74-.31 1.51-.47 2.31-.47.92 0 1.67.26 2.23.78s.85 1.21.85 2.08c0 .62-.15 1.24-.44 1.85a8.55 8.55 0 0 1-1.12 1.76l-2.65 3.02h4.35v1.05z"/><path id="P" d="M106.24 1043.1c1.05 0 1.88.37 2.5 1.1s.93 1.7.93 2.89-.31 2.18-.93 2.92-1.46 1.11-2.5 1.11-1.89-.37-2.51-1.1c-.62-.74-.93-1.71-.93-2.92s.31-2.17.93-2.9 1.46-1.09 2.5-1.09zm0 7.02c.69 0 1.24-.29 1.64-.88s.6-1.3.6-2.13c0-.88-.2-1.6-.59-2.17s-.94-.85-1.65-.85-1.26.28-1.65.84-.59 1.29-.59 2.18.2 1.56.59 2.14a1.88 1.88 0 0 0 1.64.87z"/><path id="Q" d="M29.89 1067.36c.63.18 1.14.5 1.52.96.38.47.57.99.57 1.57 0 .91-.35 1.67-1.06 2.29s-1.54.93-2.5.93c-.82 0-1.56-.18-2.2-.54l.23-.99c.68.32 1.35.48 2.01.48.62 0 1.16-.19 1.6-.58s.66-.89.66-1.5a1.76 1.76 0 0 0-.71-1.46c-.47-.38-1.1-.56-1.88-.56h-.31v-.99h.09c.75 0 1.37-.18 1.86-.53s.73-.83.73-1.43c0-.49-.18-.87-.53-1.15s-.83-.41-1.45-.41c-.53 0-1.13.14-1.79.43l-.16-1.03c.66-.3 1.33-.45 2.01-.45.92 0 1.68.24 2.28.73s.9 1.11.9 1.87c0 .53-.18 1.02-.55 1.48-.36.46-.8.74-1.31.86v.04z"/><path id="R" d="M334.73 294.47c.33-.09.66-.13.97-.13.98 0 1.75.3 2.31.9.57.6.85 1.34.85 2.24 0 .94-.33 1.73-.99 2.38s-1.46.98-2.41.98-1.66-.15-2.27-.45l.24-1.02c.66.28 1.35.42 2.06.42.63 0 1.14-.2 1.53-.61s.58-.97.58-1.7c0-.69-.18-1.22-.55-1.59s-.84-.56-1.41-.56c-.42 0-.83.08-1.25.24l-.72-.33v-4.94h4.72v1.05h-3.68v3.12z"/></defs><g fill="none" class="J N O"><use href="#B"/><use href="#B" y="-46.21"/><path d="M251.75 281.66h1.88" class="L"/><use href="#B" y="-92.43"/><use href="#B" y="-138.64"/><path d="M251.75 189.24h1.88" class="L"/><use href="#B" y="-184.85"/><use href="#B" y="-231.06"/><g class="L"><path d="M251.75 96.81h1.88"/><use href="#C"/><use href="#C" x="41.24"/><use href="#C" x="81.76"/><use href="#C" x="122.27"/><use href="#C" x="162.79"/><use href="#C" x="203.3"/><use href="#C" x="243.82"/><use href="#C" x="283.27"/><use href="#D"/><use href="#D" x="-39.45"/><use href="#D" x="-79.97"/><use href="#D" x="-120.48"/><use href="#D" x="-161"/><use href="#D" x="-201.51"/><use href="#D" x="-242.03"/><use href="#D" x="-283.27"/><path d="M253.63 91.18V52.04h292.74v39.14"/></g><use href="#E"/><use href="#F"/><use href="#E" x="160.95"/><use href="#F" x="-243.82"/><use href="#E" x="-40.56"/><use href="#F" x="-40.54"/><use href="#F" x="-81.17"/><path d="M297.05 87.69a1.39 1.39 0 0 0 .12.57 1.52 1.52 0 0 0 .38.52c.16.14.34.25.54.33.19.07.39.11.59.11h.14c.05 0 .1 0 .14-.02a1.38 1.38 0 0 0 .29-.08 1.57 1.57 0 0 0 .54-.33 1.47 1.47 0 0 0 .36-.53c.08-.18.11-.38.11-.58s-.04-.39-.11-.58c-.08-.2-.21-.38-.36-.53-.16-.15-.34-.26-.54-.33l-.29-.08a.59.59 0 0 1-.14-.02h-.14c-.2 0-.4.04-.59.11-.2.07-.38.18-.54.33s-.29.32-.38.52a1.39 1.39 0 0 0-.12.57z"/><g class="L"><path d="M546.37 91.18H253.63"/><use href="#G"/><use href="#G" y="92.43"/><use href="#G" y="184.85"/><path d="M251.75 327.87h1.88m-1.88-92.42h1.88m-1.88-92.43h1.88"/></g><use href="#B" x="299.64"/><use href="#B" x="299.64" y="-46.21"/><use href="#G" y="138.64" class="L"/><use href="#B" x="299.64" y="-92.43"/><use href="#B" x="299.64" y="-138.64"/><use href="#G" y="46.22" class="L"/><use href="#B" x="299.64" y="-184.85"/><use href="#B" x="299.64" y="-231.06"/><g class="L"><use href="#G" y="-46.21"/><path d="M531.34 104.33v-6.67m-235.92.01l.01 6.66m-.01 259.24v9.66m235.92-9.66v9.66"/><use href="#H"/><use href="#H" y="1.7"/><use href="#H" y="-44.57"/><use href="#H" y="46.14"/><use href="#H" y="47.85"/><use href="#H" y="92.36"/><use href="#H" y="94.06"/><use href="#H" y="138.57"/><use href="#H" y="140.28"/><use href="#H" y="184.78"/><use href="#H" y="186.49"/><use href="#H" y="230.99"/><use href="#I"/><use href="#I" y="1.7"/><use href="#I" y="-44.58"/><use href="#I" y="46.14"/><use href="#I" y="47.85"/><use href="#I" y="92.35"/><use href="#I" y="94.06"/><use href="#I" y="138.57"/><use href="#I" y="140.28"/><use href="#I" y="184.78"/><use href="#I" y="186.49"/><use href="#I" y="230.99"/></g></g><g fill="url(#A)"><path d="M544.73 718.18v217.36H362.79V659.25h2.94l179 58.93z"/><path d="M362.79,379.22h51.93c-2.59,95.23-19.1,189.57-48.99,280.03h-2.94V379.22Z"/><path d="M353.4 763.62v171.92h-98.13V783.75l.01-8.67.1-10.59.26-9.41.44-8.51a238.23 238.23 0 0 1 .69-8.48l.79-6.81a190.3 190.3 0 0 1 1.01-6.77l1.27-6.72a168.12 168.12 0 0 1 1.55-6.64l.87-3.24.78-2.69a90.97 90.97 0 0 1 .83-2.67l.88-2.67.92-2.66 1.87-5.12 1.98-5.1 4.11-10.22 3.36-8.39 3.2-8.52a194.21 194.21 0 0 0 1.88-5.45l1.72-5.54 1.38-5.15 1.08-4.84a101.17 101.17 0 0 0 .87-4.92l.52-4.19.32-4.22.07-1.95.02-1.33-.01-1.34-.03-1.34-.16-3.14a80.83 80.83 0 0 0-.29-3.13 80.01 80.01 0 0 0-.39-3.11l-.84-4.89a111.83 111.83 0 0 0-1.07-4.82l-1.25-4.75-1.41-4.68-1.54-4.63-1.63-4.57-1.71-4.52-1.76-4.49-3.58-8.86-2.45-6.1-2.36-6.08-2.23-6.11-1.43-4.26-.83-2.68-.78-2.69-.74-2.7-1.54-6.51s-.9-4.37-1.28-6.58l-1.04-6.63-.93-7.96-.67-8.01-.43-8.04-.25-8.08-.12-8.1-.03-8.12v-5.24l-.08-80.9h98.21v384.4zm-.23-228.16a28.35 28.35 0 0 0-.47-5.12c-.33-1.8-.83-3.55-1.51-5.25a28.41 28.41 0 0 0-2.61-5.05c-1.06-1.62-2.29-3.13-3.66-4.5s-2.88-2.6-4.51-3.66a28.37 28.37 0 0 0-5.04-2.62c-1.7-.67-3.46-1.17-5.25-1.5-1.69-.32-3.41-.47-5.13-.47s-3.43.15-5.12.47c-1.8.33-3.55.83-5.25 1.5-1.76.7-3.46 1.58-5.05 2.62-1.62 1.06-3.13 2.29-4.5 3.66s-2.6 2.88-3.66 4.5c-1.04 1.59-1.92 3.28-2.62 5.05-.67 1.7-1.17 3.45-1.5 5.25-.32 1.69-.47 3.4-.47 5.12s.15 3.44.47 5.13c.33 1.79.83 3.55 1.5 5.25a28.37 28.37 0 0 0 2.62 5.04c1.06 1.63 2.29 3.14 3.66 4.51s2.88 2.6 4.5 3.66c1.59 1.04 3.28 1.91 5.05 2.61 1.7.67 3.45 1.18 5.25 1.51a28.35 28.35 0 0 0 5.12.47 28.46 28.46 0 0 0 5.13-.47c1.79-.33 3.55-.83 5.25-1.51 1.76-.7 3.45-1.57 5.04-2.61 1.63-1.06 3.14-2.29 4.51-3.66s2.6-2.88 3.66-4.51c1.04-1.59 1.91-3.28 2.61-5.04.67-1.7 1.18-3.46 1.51-5.25a28.46 28.46 0 0 0 .47-5.13z"/></g><g fill="none" class="N"><g stroke-width=".36" class="K"><path d="M324.99,507.29c-1.72,0-3.43,.15-5.12,.47-1.8,.33-3.55,.83-5.25,1.5-1.76,.7-3.46,1.58-5.05,2.62-1.62,1.06-3.13,2.29-4.5,3.66s-2.6,2.88-3.66,4.5c-1.04,1.59-1.92,3.28-2.62,5.05-.67,1.7-1.17,3.45-1.5,5.25-.32,1.69-.47,3.4-.47,5.12s.15,3.44,.47,5.13c.33,1.79,.83,3.55,1.5,5.25,.7,1.76,1.58,3.45,2.62,5.04,1.06,1.63,2.29,3.14,3.66,4.51s2.88,2.6,4.5,3.66c1.59,1.04,3.28,1.91,5.05,2.61,1.7,.67,3.45,1.18,5.25,1.51,1.69,.31,3.4,.47,5.12,.47s3.44-.16,5.13-.47c1.79-.33,3.55-.83,5.25-1.51,1.76-.7,3.45-1.57,5.04-2.61,1.63-1.06,3.14-2.29,4.51-3.66s2.6-2.88,3.66-4.51c1.04-1.59,1.91-3.28,2.61-5.04,.67-1.7,1.18-3.46,1.51-5.25,.31-1.69,.47-3.41,.47-5.13s-.16-3.43-.47-5.12c-.33-1.8-.83-3.55-1.51-5.25-.7-1.76-1.57-3.46-2.61-5.05-1.06-1.62-2.29-3.13-3.66-4.5s-2.88-2.6-4.51-3.66c-1.59-1.04-3.28-1.92-5.04-2.62-1.7-.67-3.46-1.17-5.25-1.5-1.69-.32-3.41-.47-5.13-.47Z"/><path d="M324.99 515.11c-1.24 0-2.48.12-3.7.34-1.29.24-2.56.61-3.79 1.09a20.95 20.95 0 0 0-3.64 1.89c-1.18.77-2.27 1.65-3.26 2.64s-1.87 2.08-2.64 3.26a20.95 20.95 0 0 0-1.89 3.64c-.48 1.23-.85 2.5-1.09 3.79-.22 1.22-.34 2.46-.34 3.7s.12 2.49.34 3.71c.24 1.29.61 2.56 1.09 3.78.51 1.28 1.14 2.5 1.89 3.65.77 1.17 1.65 2.26 2.64 3.25s2.08 1.88 3.26 2.65a20.95 20.95 0 0 0 3.64 1.89c1.23.48 2.5.85 3.79 1.09 1.22.22 2.46.33 3.7.33s2.49-.11 3.71-.33c1.29-.24 2.56-.61 3.78-1.09 1.28-.51 2.5-1.14 3.65-1.89a20.13 20.13 0 0 0 3.25-2.65c.99-.99 1.88-2.08 2.65-3.25a20.95 20.95 0 0 0 1.89-3.64c.48-1.23.85-2.5 1.09-3.79a20.89 20.89 0 0 0 .33-3.71 20.78 20.78 0 0 0-.33-3.7c-.24-1.29-.61-2.56-1.09-3.79a20.95 20.95 0 0 0-1.89-3.64c-.77-1.18-1.65-2.27-2.65-3.26-.99-.99-2.08-1.87-3.25-2.64a20.95 20.95 0 0 0-3.64-1.89c-1.23-.48-2.5-.85-3.79-1.09a20.9 20.9 0 0 0-3.71-.34z"/></g><g class="J O"><use href="#J"/><path d="M277.51 590.12c-.19 0-.39.04-.57.11a1.58 1.58 0 0 0-.88.88c-.07.18-.11.38-.11.57 0 .2.04.4.11.58a1.58 1.58 0 0 0 .88.88c.18.07.38.11.57.11.2 0 .4-.04.58-.11a1.58 1.58 0 0 0 .88-.88c.07-.18.11-.38.11-.58a1.56 1.56 0 0 0-.08-.48l-.03-.09a1.58 1.58 0 0 0-.88-.88c-.18-.07-.38-.11-.58-.11zm-16.64-43.52c-.2 0-.39.04-.58.11-.19.08-.37.2-.53.35a1.42 1.42 0 0 0-.34.53 1.41 1.41 0 0 0-.11.57c0 .2.03.4.11.58a1.42 1.42 0 0 0 .34.53c.16.15.34.27.53.35.19.07.38.11.58.11s.39-.04.58-.11a1.58 1.58 0 0 0 .88-.88c.07-.18.11-.38.11-.58a1.58 1.58 0 0 0-.09-.52c-.01-.02-.01-.03-.02-.05a1.58 1.58 0 0 0-.88-.88c-.19-.07-.38-.11-.58-.11z"/><use href="#K"/><path d="M250.25 459.56c-.2 0-.39.04-.58.11a1.58 1.58 0 0 0-.88.88c-.07.18-.11.38-.11.57 0 .2.04.4.11.58a1.58 1.58 0 0 0 .88.88c.19.07.38.11.58.11s.39-.04.58-.11c.19-.08.38-.2.53-.35a1.58 1.58 0 0 0 .35-.53c.07-.18.11-.38.11-.58s-.04-.39-.11-.57a1.58 1.58 0 0 0-.35-.53c-.15-.15-.34-.27-.53-.35-.19-.07-.38-.11-.58-.11z"/><use href="#J" x="-31.66" y="-217.6"/><use href="#J" x="-31.66" y="-261.12"/><path d="M544.73 716.24V379.22" class="L"/><path d="M290.17 938.9c-.18 0-.37.04-.54.1-.18.08-.35.19-.49.33s-.25.3-.32.49c-.07.17-.1.35-.1.53a1.4 1.4 0 0 0 .1.54c.07.18.18.35.32.49s.31.25.49.32c.17.07.36.1.54.1s.36-.03.53-.1c.19-.07.36-.18.5-.32s.25-.31.32-.49a1.4 1.4 0 0 0 .1-.54c0-.18-.03-.36-.1-.53-.07-.19-.18-.35-.32-.49s-.31-.25-.5-.33c-.17-.06-.35-.1-.53-.1zm223.01 0c-.19 0-.39.04-.57.11a1.58 1.58 0 0 0-.88.88c-.07.18-.11.38-.11.58s.04.39.11.57a1.58 1.58 0 0 0 .35.53c.15.16.33.27.53.35a1.41 1.41 0 0 0 .57.11c.2 0 .4-.03.58-.11.2-.08.38-.19.53-.35a1.58 1.58 0 0 0 .35-.53c.07-.18.11-.38.11-.57 0-.2-.04-.4-.11-.58a1.58 1.58 0 0 0-.88-.88c-.18-.07-.38-.11-.58-.11zm-89.2 0c-.18 0-.37.04-.54.1-.18.08-.35.19-.49.33s-.25.3-.32.49c-.07.17-.1.35-.1.53a1.4 1.4 0 0 0 .1.54c.07.18.18.35.32.49s.31.25.49.32c.17.07.36.1.54.1s.36-.03.53-.1c.19-.07.35-.18.49-.32s.25-.31.33-.49a1.4 1.4 0 0 0 .1-.54c0-.18-.03-.36-.1-.53a1.37 1.37 0 0 0-.33-.49 1.51 1.51 0 0 0-.49-.33c-.17-.06-.35-.1-.53-.1zm-89.21 0c-.18 0-.36.04-.53.1a1.51 1.51 0 0 0-.82.82c-.06.17-.1.35-.1.53 0 .19.04.37.1.54.08.18.19.35.33.49s.3.25.49.32c.17.07.35.1.53.1a1.4 1.4 0 0 0 .54-.1c.18-.07.35-.18.49-.32s.25-.31.32-.49a1.4 1.4 0 0 0 .1-.54c0-.18-.03-.36-.1-.53-.07-.19-.18-.35-.32-.49s-.31-.25-.49-.33c-.17-.06-.35-.1-.54-.1z"/><g class="L"><path d="M541.44 379.22v25.05H420.13v-25.05"/><path d="M439.3 398v-18.78M522.27 398v-18.78M480.79 398v-18.78M255.19 97.66v275.57m101.34 563.88v.89h3.13v-.89"/></g></g><g stroke-width=".1" class="J L"><path d="M538.75 681.55l-9.51-3.13-9.52-3.13-9.52-3.14-9.98-3.28m38.53 12.68l-9.79 29.74m-18.76-39.14l-9.79 29.74"/><path d="M519.72 675.28v.01l-9.79 29.73m19.31-26.6l-9.79 29.74m-28.55-9.41s0-.01.01-.02l9.3-29.86a1125.45 1125.45 0 0 0 44.49-252.83"/></g><g class="O J"><path d="M362.79 643.12h-9.39" class="L"/><path d="M356.78 771.99c-.03-.2-.03-.4 0-.59.05-.21.13-.41.26-.58.12-.18.28-.32.46-.43.17-.11.36-.18.55-.21a1.67 1.67 0 0 1 .59.01c.21.05.41.13.58.26.17.12.32.28.43.46a1.84 1.84 0 0 1 .21.55c.03.2.03.4-.02.59-.04.21-.13.41-.25.58-.12.18-.28.32-.47.43-.16.11-.35.18-.55.21-.19.03-.39.03-.58-.01-.21-.05-.41-.14-.58-.26-.18-.12-.32-.28-.44-.46-.1-.17-.17-.36-.2-.55z"/><path d="M362.79 775.59h-9.39m0-11.97h9.39" class="L"/><path d="M356.78 767.22c-.03.2-.03.39 0 .59.05.21.13.4.26.58.12.17.28.32.46.43a1.84 1.84 0 0 0 .55.21c.2.03.39.02.59-.02.21-.04.41-.13.58-.25s.32-.28.43-.47c.1-.16.17-.35.21-.55a1.42 1.42 0 0 0-.02-.58c-.04-.21-.13-.41-.25-.58-.12-.18-.28-.33-.47-.44a1.45 1.45 0 0 0-.55-.2c-.19-.03-.39-.03-.58.01-.21.05-.41.13-.58.26-.18.12-.32.28-.44.46-.1.17-.17.36-.2.55zm0-248.21c-.03-.2-.03-.39 0-.59.05-.21.13-.4.26-.58.12-.17.28-.32.46-.43a1.84 1.84 0 0 1 .55-.21c.2-.03.39-.02.59.02.21.04.41.13.58.25.17.13.32.28.43.47.1.17.17.35.21.55a1.42 1.42 0 0 1-.02.58c-.04.21-.13.41-.25.58-.12.18-.28.33-.47.44a1.45 1.45 0 0 1-.55.2c-.19.03-.39.03-.58-.01-.21-.04-.41-.13-.58-.26-.18-.12-.32-.28-.44-.46-.1-.17-.17-.36-.2-.55z"/><g class="L"><path d="M362.79 522.61h-9.39m0-11.97h9.39m-107.52-50.52l-.08-80.9m-1.49 80.9l-.07-80.9m1.64 404.53l.01-8.67.1-10.59.26-9.41.44-8.51a238.23 238.23 0 0 1 .69-8.48l.79-6.81a190.3 190.3 0 0 1 1.01-6.77l1.27-6.72a168.12 168.12 0 0 1 1.55-6.64l.87-3.24.78-2.69a90.97 90.97 0 0 1 .83-2.67l.88-2.67.92-2.66 1.87-5.12 1.98-5.1 4.11-10.22 3.36-8.39 3.2-8.52a194.21 194.21 0 0 0 1.88-5.45l1.72-5.54 1.38-5.15 1.08-4.84a101.17 101.17 0 0 0 .87-4.92l.52-4.19.32-4.22.07-1.95.02-1.33-.01-1.34-.03-1.34-.16-3.14a80.83 80.83 0 0 0-.29-3.13 80.01 80.01 0 0 0-.39-3.11l-.84-4.89a111.83 111.83 0 0 0-1.07-4.82l-1.25-4.75-1.41-4.68-1.54-4.63-1.63-4.57-1.71-4.52-1.76-4.49-3.58-8.86-2.45-6.1-2.36-6.08-2.23-6.11-1.43-4.26-.83-2.68-.78-2.69-.74-2.7-1.54-6.51-1.28-6.58-1.04-6.63-.93-7.96-.67-8.01-.43-8.04-.25-8.08-.12-8.1-.03-8.12v-5.24m-1.57 323.63v-8.68l.1-10.5.3-10.48c.14-3.49.34-6.98.6-10.45l.78-8.35c.31-2.77.67-5.54 1.1-8.3l.68-4.15.78-4.08c.55-2.73 1.17-5.44 1.86-8.14l.81-3.03.79-2.74.64-2.08.67-2.07.7-2.07 2.25-6.25 2.4-6.22 2.49-6.21 2.51-6.22 2.59-6.51 2.49-6.57c.8-2.2 1.58-4.42 2.31-6.66a148.63 148.63 0 0 0 1.69-5.44c.53-1.83 1.03-3.67 1.48-5.53a116.1 116.1 0 0 0 1.22-5.6l.29-1.63c.23-1.35.44-2.7.61-4.06.2-1.57.35-3.16.46-4.75s.17-3.18.17-4.78l-.01-1.52-.04-1.51a76.92 76.92 0 0 0-.28-4.3 101.93 101.93 0 0 0-.51-4.28c-.21-1.42-.44-2.83-.71-4.23a97.78 97.78 0 0 0-.89-4.2 139.01 139.01 0 0 0-1.03-4.14c-.37-1.38-.77-2.75-1.17-4.11l-1.28-4.06-1.38-4.02c-.73-2.09-1.49-4.15-2.28-6.21l-2.39-6.15-2.46-6.11-2.98-7.37-2.88-7.39-2.02-5.5-1.87-5.53-.78-2.54c-.26-.84-.5-1.69-.74-2.55l-.69-2.56c-.45-1.71-.87-3.43-1.26-5.16-.54-2.4-1.03-4.82-1.47-7.26a179.77 179.77 0 0 1-1.17-7.32c-.34-2.45-.63-4.91-.89-7.37l-.23-2.48-.42-4.92-.44-7.44-.28-7.44-.15-7.47-.08-12.76v-4.18m292.68-80.9h-1.64-3.29-19.17-41.48-64.43M353.4 935.54V775.59v-11.97-120.5-263.9m1.56 0H253.63m0-288.05v288.05m291.1 556.32V718.1"/><path d="M546.37 937.11v-33.27-45.4-45.4-45.4-45.4-5.25-38.27-43.52-43.52-43.52-43.52-43.52-43.52V91.17m-291.1 844.37h289.46m-291.03 1.57h36.47 44.6 21.76 3.13 19.72 44.6 122.39m-291.1-167.46v165.89"/><path d="M253.7 769.65v14.1 29.29 124.07m109.09-403.86v109.87 16.13 276.29m-1.57-556.32h-6.26m7.83 154.03V379.22"/></g><path d="M356.78 514.24c-.03.2-.03.4 0 .59.05.21.13.41.26.58.12.18.28.32.46.43.17.11.36.18.55.21.2.03.39.03.59 0 .21-.05.41-.13.58-.26.17-.12.32-.28.43-.46a1.84 1.84 0 0 0 .21-.55c.03-.2.03-.4-.02-.59-.04-.21-.13-.41-.25-.58s-.28-.32-.47-.43c-.16-.11-.35-.17-.55-.21-.19-.03-.39-.03-.58.01-.21.05-.41.14-.58.26-.18.12-.32.28-.44.46-.1.17-.17.36-.2.55z"/><path d="M544.73 97.66v275.57" class="L"/><path d="M379.38 938.9c-.19 0-.37.04-.54.1-.18.08-.35.19-.49.33s-.25.3-.32.49c-.07.17-.11.35-.11.53a1.41 1.41 0 0 0 .11.54c.07.18.18.35.32.49s.31.25.49.32a1.4 1.4 0 0 0 .54.1c.18 0 .36-.03.53-.1.18-.07.35-.18.49-.32s.25-.31.32-.49a1.41 1.41 0 0 0 .11-.54c0-.18-.04-.36-.11-.53-.07-.19-.18-.35-.32-.49s-.31-.25-.49-.33c-.17-.06-.35-.1-.53-.1z"/><g class="L"><path d="M544.73 718.18l-179-58.93c29.89-90.46 46.4-184.8 48.99-280.03"/><use href="#G" y="274.58"/><use href="#G" y="318.1"/><use href="#G" y="361.62"/><use href="#G" y="405.14"/><use href="#G" y="448.66"/><use href="#G" y="492.18"/><use href="#G" y="535.7"/><use href="#G" y="579.22"/><use href="#G" y="624.62"/><use href="#G" y="670.02"/><use href="#G" y="715.42"/><use href="#G" y="760.82"/><path d="M513.18 938.9v-1.79m-44.6 1.79v-1.79m-44.6 1.79v-1.79m-44.6 1.78v-1.79m-44.61 1.8v-1.79m-44.6 1.79v-1.79M253.2 504.5l1.87-.17m7.28 43.31l1.77-.62M279 591.2l1.79-.58m2.6 44.85l1.85.32m-16.38 43.52l1.75.7m-15.19 42.51l1.85.32m-5.45 181h1.88"/><path d="M251.82 858.44h1.88m-1.88-45.4h1.88m-1.88-45.4h1.88m-1.88-306.52h1.87m-1.94-43.52h1.88m162.73-38.38h-55.14"/><path d="M367.8 658.2c29.62-90.15 45.98-184.13 48.56-278.98m130.01 337.77l-1.7-.56-15.7-5.17-9.51-3.13-9.52-3.13-9.52-3.14L367.8 658.2"/><use href="#G" y="231.06"/></g><path d="M468.58 938.9c-.18 0-.36.04-.53.1a1.51 1.51 0 0 0-.49.33 1.37 1.37 0 0 0-.33.49c-.07.17-.1.35-.1.53a1.4 1.4 0 0 0 .1.54 1.33 1.33 0 0 0 .33.49c.14.14.3.25.49.32.17.07.35.1.53.1s.37-.03.54-.1c.18-.07.35-.18.49-.32s.25-.31.32-.49a1.4 1.4 0 0 0 .1-.54c0-.18-.03-.36-.1-.53-.07-.19-.18-.35-.32-.49s-.31-.25-.49-.33c-.17-.06-.36-.1-.54-.1z"/><use href="#J" x="267.97" y="87.04"/><path d="M549.81 766.08a1.41 1.41 0 0 0-.57.11c-.2.08-.38.19-.53.35a1.58 1.58 0 0 0-.35.53c-.07.18-.11.37-.11.57s.04.39.11.58a1.58 1.58 0 0 0 .88.88c.18.07.38.11.57.11.2 0 .4-.04.58-.11a1.58 1.58 0 0 0 .88-.88c.07-.19.11-.38.11-.58s-.04-.39-.11-.57a1.58 1.58 0 0 0-.35-.53c-.15-.16-.33-.27-.53-.35-.18-.08-.38-.11-.58-.11zm0 45.4a1.41 1.41 0 0 0-.57.11 1.42 1.42 0 0 0-.53.34c-.15.15-.27.34-.35.53-.07.19-.11.38-.11.58s.04.39.11.58a1.58 1.58 0 0 0 .88.88c.18.07.38.11.57.11.2 0 .4-.04.58-.11a1.58 1.58 0 0 0 .88-.88c.07-.19.11-.38.11-.58s-.04-.39-.11-.58c-.08-.19-.2-.38-.35-.53a1.42 1.42 0 0 0-.53-.34c-.18-.08-.38-.11-.58-.11zm0 45.39c-.19 0-.39.04-.57.11a1.58 1.58 0 0 0-.88.88c-.07.19-.11.38-.11.58s.04.39.11.58c.08.19.2.37.35.53a1.42 1.42 0 0 0 .53.34 1.41 1.41 0 0 0 .57.11c.2 0 .4-.03.58-.11a1.42 1.42 0 0 0 .53-.34c.15-.16.27-.34.35-.53.07-.19.11-.38.11-.58s-.04-.39-.11-.58a1.58 1.58 0 0 0-.88-.88c-.18-.07-.38-.11-.58-.11zm0 45.4c-.19 0-.39.04-.57.11a1.58 1.58 0 0 0-.88.88c-.07.19-.11.38-.11.58s.04.39.11.57a1.58 1.58 0 0 0 .35.53c.15.16.33.27.53.35a1.41 1.41 0 0 0 .57.11c.2 0 .4-.03.58-.11.2-.08.38-.19.53-.35a1.58 1.58 0 0 0 .35-.53c.07-.18.11-.37.11-.57s-.04-.39-.11-.58a1.58 1.58 0 0 0-.88-.88c-.18-.07-.38-.11-.58-.11z"/><use href="#J" x="267.97" y="43.52"/><use href="#J" x="267.97"/><use href="#J" x="267.97" y="-43.52"/><use href="#J" x="267.97" y="-87.04"/><use href="#J" x="267.97" y="-130.56"/><use href="#J" x="267.97" y="-174.08"/><use href="#J" x="267.97" y="-217.6"/><use href="#J" x="267.97" y="-261.12"/><path d="M251.75 374.08h1.88" class="L"/><use href="#K" x="2.24" y="217.6"/><path d="M250.26 766.08a1.46 1.46 0 0 0-.58.11c-.2.08-.38.19-.53.35a1.58 1.58 0 0 0-.35.53c-.07.18-.11.37-.11.57s.04.39.11.58a1.58 1.58 0 0 0 .88.88c.19.07.38.11.58.11s.39-.04.57-.11a1.73 1.73 0 0 0 .54-.35c.15-.15.26-.33.34-.53a1.46 1.46 0 0 0 .11-.58 1.38 1.38 0 0 0-.11-.57c-.08-.2-.19-.38-.34-.53a1.57 1.57 0 0 0-.54-.35 1.38 1.38 0 0 0-.57-.11zm0 45.4a1.46 1.46 0 0 0-.58.11 1.42 1.42 0 0 0-.53.34c-.15.15-.27.34-.35.53-.07.19-.11.38-.11.58s.04.39.11.58a1.58 1.58 0 0 0 .88.88c.19.07.38.11.58.11s.39-.04.57-.11a1.73 1.73 0 0 0 .54-.35c.15-.15.26-.33.34-.53a1.46 1.46 0 0 0 .11-.58 1.46 1.46 0 0 0-.11-.58c-.08-.19-.19-.38-.34-.53a1.54 1.54 0 0 0-.54-.34 1.38 1.38 0 0 0-.57-.11zm0 45.39c-.2 0-.39.04-.58.11a1.58 1.58 0 0 0-.88.88c-.07.19-.11.38-.11.58s.04.39.11.58c.08.19.2.37.35.53a1.42 1.42 0 0 0 .53.34 1.46 1.46 0 0 0 .58.11 1.38 1.38 0 0 0 .57-.11 1.54 1.54 0 0 0 .54-.34c.15-.16.26-.34.34-.53a1.46 1.46 0 0 0 .11-.58 1.46 1.46 0 0 0-.11-.58c-.08-.2-.19-.38-.34-.53a1.73 1.73 0 0 0-.54-.35c-.18-.07-.37-.11-.57-.11zm0 45.4c-.2 0-.39.04-.58.11a1.58 1.58 0 0 0-.88.88c-.07.19-.11.38-.11.58s.04.39.11.57a1.58 1.58 0 0 0 .35.53c.15.16.33.27.53.35a1.46 1.46 0 0 0 .58.11 1.38 1.38 0 0 0 .57-.11 1.57 1.57 0 0 0 .54-.35c.15-.15.26-.33.34-.53a1.38 1.38 0 0 0 .11-.57 1.46 1.46 0 0 0-.11-.58c-.08-.2-.19-.38-.34-.53a1.73 1.73 0 0 0-.54-.35c-.18-.07-.37-.11-.57-.11zm17.15-225.11c-.19 0-.39.04-.57.11a1.58 1.58 0 0 0-.88.88c-.07.18-.11.38-.11.57 0 .2.04.4.11.58a1.58 1.58 0 0 0 .88.88c.18.07.38.11.57.11.2 0 .4-.04.58-.11a1.58 1.58 0 0 0 .53-.35c.15-.15.27-.32.34-.52h.01c.07-.19.11-.39.11-.59s-.04-.39-.11-.57a1.58 1.58 0 0 0-.88-.88c-.18-.07-.38-.11-.58-.11z"/></g><path d="M413.93 197v133.69m-38.19-181.28v-40.39m34.44 0v19.1" class="K L M"/><path d="M375.74 152.65h34.44v9.91h-34.44zm122.73 79.42v-3.45h-30.06V166h30.06v-3.44h-49.78V166h16.28v62.62h-16.28v3.45h49.78z" class="K M"/><g class="L K"><path d="M375.74 149.41h38.19m117.41-45.08H371.98m0 0v4.69m41.95 40.39V166m0 0h-41.95m159.36-61.67v254.54h-4.69V109.02m-116.47 19.1h3.75m0 0v-19.1" class="M"/><use href="#L" class="M"/><path d="M526.65 109.02H413.93m0 249.85h-74.68" class="M"/><path d="M410.18 197h3.75m0 133.69h-3.75m-38.2-221.67V166m-71.86 192.87V109.02m-4.69 249.85V109.02m4.69 249.85h-4.69" class="M"/><path d="M410.18 330.69V197m-70.93 166.57v-4.7m74.68 4.7h-74.68" class="M"/><path d="M413.93 358.87v4.7M300.12 109.02h-4.69" class="M"/><g stroke-width=".24"><path d="M295.43 104.33v4.69m118.5 221.67v28.18m-3.75-28.18v28.19m3.75 4.69h117.41v-4.7"/><path d="M413.93 358.87h112.72m-187.4 0h-39.13m39.13 4.7h-43.82v-4.7m76.55-249.85h-76.55m76.55-4.69h-76.55"/><use href="#L" y="231.69"/><use href="#L" y="138.7"/><use href="#L" y="147.16"/><use href="#L" y="155.61"/><use href="#L" y="164.06"/><use href="#L" y="172.52"/><use href="#L" y="180.97"/><use href="#L" y="189.42"/><use href="#L" y="197.88"/><use href="#L" y="206.33"/><use href="#L" y="214.78"/><use href="#L" y="223.24"/><use href="#L" y="130.25"/><path d="M375.74 197h34.44"/><use href="#L" y="96.43"/><use href="#L" y="104.89"/><use href="#L" y="113.34"/><use href="#L" y="121.8"/><path d="M375.74 340.71v-10.02"/></g><g stroke-width=".36"><path d="M371.98 224.62h-71.86m113.92-96.5h112.61M371.98 330.69h3.76m-75.62-207.58h71.86m126.49 105.51l.01-62.62"/><path d="M371.98 330.69V214.37m76.71-51.81v-4.7h49.78v4.7m-49.78 69.51v4.69h49.78v-4.69M375.74 197v17.37M371.98 197h3.76m-3.76 17.37V197m3.76 17.37v116.32"/><path d="M448.69 228.62V166m-148.57 68.89h71.86m-71.86.93h71.86"/></g></g></g><path d="M32.2,1028.91h-5.43v-1.05h2.19v-8.03l-2.07,1.03v-1.2l2.23-1.15h1.03v9.35h2.04v1.05Z"/><use href="#M"/><path d="M73.42 1025.13h-5.24c0 .86.25 1.58.75 2.14s1.11.84 1.84.84 1.41-.12 2.15-.37l.2.92c-.67.3-1.46.45-2.36.45-1.13 0-2.05-.36-2.74-1.09s-1.04-1.71-1.04-2.94.31-2.18.93-2.9 1.43-1.08 2.41-1.08a2.8 2.8 0 0 1 2.2 1c.59.67.89 1.56.89 2.67v.36zm-1.25-.93c0-.6-.19-1.1-.56-1.51s-.79-.61-1.25-.61c-.59 0-1.08.2-1.47.59s-.6.9-.65 1.53h3.92z"/><use href="#N"/><use href="#O"/><use href="#M" y="22"/><path d="M73.38 1050.91h-1.14c-.09-.31-.14-.72-.14-1.23-.65.95-1.53 1.43-2.65 1.43-.57 0-1.07-.2-1.5-.6s-.65-.92-.65-1.56c0-.38.08-.71.23-1a1.94 1.94 0 0 1 .67-.73c.29-.2.65-.35 1.07-.47s.92-.19 1.49-.24l1.28-.1v-.37c0-1.31-.61-1.96-1.83-1.96-.29 0-.65.06-1.09.19-.44.12-.82.27-1.14.44l-.3-.82c1.04-.53 2.01-.8 2.9-.8 1.74 0 2.61.92 2.61 2.76v3.28c0 .66.06 1.25.19 1.77zm-1.33-2.26v-1.38l-2.12.26c-.38.08-.72.23-1 .45s-.42.52-.42.89c0 .34.12.62.36.83s.54.32.92.32c.41 0 .81-.12 1.21-.36s.75-.57 1.05-1zm10.22 1.92c-.77.35-1.52.53-2.26.53-1.36 0-2.04-.72-2.04-2.16v-4.67h-1.46v-.99h1.46v-2.09h1.11v2.09h2.59v.99h-2.59v4.37c0 .46.1.82.31 1.08s.48.38.83.38c.62 0 1.24-.14 1.85-.42l.2.89zm8.92.34h-1.14v-4.89c0-.68-.11-1.17-.33-1.48s-.56-.46-1.02-.46c-.7 0-1.45.43-2.25 1.3v5.52h-1.14v-10.33h1.14v3.82c.82-.87 1.68-1.3 2.59-1.3 1.43 0 2.15.86 2.15 2.59v5.22zm9.12-7.42l-.46 1.1c-.5-.22-.94-.33-1.3-.33-.34 0-.67.1-.99.29s-.62.47-.89.83l-.41.6v4.94h-1.14v-7.63h1.14v1.55c.61-1.15 1.4-1.73 2.37-1.73a3.83 3.83 0 0 1 1.68.39z"/><use href="#P"/><use href="#P" x="9"/><path d="M127.8 1050.91h-1.14v-5.01c0-1.21-.22-1.82-.67-1.82-.23 0-.48.21-.76.63s-.41.65-.41.69v5.51h-1.14v-5.01c0-1.21-.23-1.82-.68-1.82-.22 0-.48.21-.75.63-.28.42-.41.65-.41.69v5.51h-1.14v-7.63h1.1v1.15c.21-.4.47-.73.77-.97s.59-.36.88-.36c.31 0 .58.12.83.36.24.24.41.57.51.97.21-.4.47-.73.77-.97s.59-.36.88-.36c.92 0 1.38.83 1.38 2.47v5.34z"/><use href="#Q"/><path d="M65.42 1062.58l-1.32 10.33h-1.11l-1.76-5.82-1.75 5.82h-1.14l-1.29-10.33h1.19l.87 8.4 1.52-5.08h1.2l1.53 5.1.89-8.42h1.17zm8.16 9.69c-.81.56-1.75.84-2.82.84-1.34 0-2.35-.46-3.05-1.38s-1.04-2.25-1.04-3.98.34-2.99 1.01-3.94 1.7-1.42 3.08-1.42c.5 0 .99.06 1.48.19s.88.3 1.18.51l-.4.94a4.51 4.51 0 0 0-2.26-.59c-.95 0-1.66.35-2.12 1.04s-.7 1.78-.7 3.28c0 2.87.94 4.31 2.82 4.31.8 0 1.61-.24 2.45-.73l.37.95zm-40.98 20.26h-1.27v2.39h-1.2v-2.39h-4.5v-.92l4.08-7.03h1.62v6.9h1.27v1.05zm-2.48-1.05v-5.71l-3.28 5.71h3.28zm33.31-5.76c-.62-.21-1.2-.32-1.75-.32-.62 0-1.13.14-1.53.43-.39.29-.59.69-.59 1.22 0 .63.52 1.17 1.55 1.65l1.51.73c.25.14.5.33.75.56a2.64 2.64 0 0 1 .61.85c.15.32.23.69.23 1.09 0 1.01-.34 1.79-1.01 2.34-.68.55-1.47.83-2.39.83s-1.67-.18-2.34-.53l.25-1.03c.79.36 1.47.53 2.06.53.68 0 1.23-.18 1.64-.53s.62-.84.62-1.46c0-.46-.13-.85-.4-1.17s-.76-.65-1.49-.98l-1.44-.7c-.22-.12-.43-.3-.65-.52a2.42 2.42 0 0 1-.5-.74c-.12-.27-.18-.57-.18-.89 0-.85.31-1.52.92-2s1.39-.72 2.34-.72c.69 0 1.37.11 2.05.32l-.27 1.03zm9.83 8.85c-.77.35-1.52.53-2.26.53-1.36 0-2.04-.72-2.04-2.16v-4.67H67.5v-.99h1.46v-2.09h1.11v2.09h2.59v.99h-2.59v4.37c0 .46.1.82.31 1.08s.48.38.83.38c.62 0 1.24-.14 1.85-.42l.2.89zm8.92.34h-1.14v-1.13c-.82.87-1.68 1.31-2.59 1.31-1.43 0-2.15-.87-2.15-2.6v-5.21h1.14v4.89c0 .65.1 1.13.31 1.45s.55.48 1.04.48c.7 0 1.45-.43 2.25-1.3v-5.51h1.14v7.63z"/><use href="#N" x="9" y="66"/><path d="M100.54 1087.28l-2.89 7.63c-.42 1.12-.84 1.91-1.25 2.35s-.88.67-1.41.67c-.47 0-.93-.09-1.39-.26l.19-.92c.37.12.7.18 1 .18.41 0 .75-.16 1.01-.48s.53-.84.8-1.56l-2.86-7.62h1.25l2.16 6.09 2.16-6.09h1.25z"/><g fill="none" stroke-width=".75" class="K N"><circle cx="765.53" cy="1024.02" r="11.44"/><path d="M765.53 1024.02v11.44" class="L"/></g><path d="M472.48,300.64h-5.43v-1.05h2.19v-8.03l-2.07,1.03v-1.2l2.23-1.15h1.03v9.35h2.04v1.05Z"/><use href="#R"/><path d="M339.41,151.04h-1.27v2.39h-1.2v-2.39h-4.5v-.92l4.08-7.03h1.62v6.9h1.27v1.05Zm-2.48-1.05v-5.71l-3.28,5.71h3.28Z"/><use href="#Q" x="363.71" y="-937.37"/><use href="#O" x="455.11" y="-847.19"/><use href="#R" x="-134.25" y="728.28"/><path d="M237.87,1018.58l-3.37,10.33h-1.44l-3.38-10.33h1.26l2.83,8.94,2.85-8.94h1.25Z"/><use href="#P" x="136.55" y="-22"/><path d="M252.85 1028.91h-1.14v-6.64h-2.25v-.99h3.39v7.63zm-.56-10.52c.21 0 .4.08.55.23s.23.34.23.55c0 .23-.07.41-.22.56s-.33.23-.55.23a.71.71 0 0 1-.53-.24.78.78 0 0 1-.23-.55.78.78 0 0 1 .23-.55.7.7 0 0 1 .53-.23z"/><use href="#N" x="181.56"/></svg>