<svg width="83" height="19" viewBox="0 0 83 19" fill="none" xmlns="http://www.w3.org/2000/svg">
<path d="M14.2857 6.26135C14.2857 2.83278 11.6429 0.54706 7.88095 0.54706C3.04762 0.54706 0 4.16611 0 9.61849C0 13.8804 1.92857 18.2613 7.85714 18.2613C9.42857 18.2613 11.3571 17.9042 12.881 16.3328C14.2619 14.9042 14.3571 13.309 14.4286 12.2852H10.5476C10.4762 14.5709 9 15.5471 7.45238 15.5471C3.85714 15.5471 3.85714 10.6661 3.85714 9.6423C3.85714 6.09468 5 3.23754 7.7381 3.23754C10.2381 3.23754 10.4524 5.66611 10.5238 6.26135H14.2857Z" fill="#F1F1F1"/>
<path d="M18.6189 17.8566H29.7617V14.928H22.3808V0.666108H18.6189V17.8566Z" fill="#F1F1F1"/>
<path d="M31.925 9.49944C31.925 11.0709 32.1631 13.928 34.0441 15.928C35.6155 17.5709 37.8774 18.2852 40.1393 18.2852C41.5679 18.2852 44.3536 17.9756 46.2584 15.8328C47.6631 14.2613 48.425 11.5947 48.425 9.09468C48.425 7.4042 48.0679 4.71373 46.2346 2.61849C44.5441 0.713728 42.0203 0.285156 40.1869 0.285156C33.9965 0.285156 31.925 4.92801 31.925 9.49944ZM35.7822 9.38039C35.7822 7.42801 36.0679 5.57087 37.0441 4.38039C37.7346 3.49944 38.8298 2.92801 40.2108 2.92801C41.9727 2.92801 43.425 3.85659 44.1393 5.97563C44.4965 7.02325 44.5679 8.21373 44.5679 9.04706C44.5679 11.7852 43.9727 13.1185 43.4012 13.9756C42.7108 15.0471 41.6869 15.5709 40.1869 15.5709C38.4727 15.5709 37.5917 14.9042 37.0679 14.1899C36.0441 12.8566 35.7822 11.0233 35.7822 9.38039Z" fill="#F1F1F1"/>
<path d="M52.1946 12.3566C52.2184 14.0233 52.266 18.2613 58.8612 18.2613C63.6231 18.2613 66.1946 15.7613 66.1946 12.6661C66.1946 9.30897 63.266 8.49944 60.2898 7.78516C57.8136 7.16611 56.5517 6.88039 56.5517 5.28516C56.5517 3.8804 57.6708 2.95182 59.385 2.95182C61.9327 2.95182 62.1231 4.97563 62.1708 5.57087H65.7184C65.7184 4.99944 65.7184 3.61849 64.7422 2.38039C63.4565 0.761346 61.3374 0.356585 59.5517 0.356585C54.766 0.356585 52.7422 2.85658 52.7422 5.68992C52.7422 8.66611 54.9803 9.88039 59.0755 10.9042C61.266 11.428 62.3374 11.6899 62.3374 13.2137C62.3374 14.6661 61.0755 15.6185 59.0755 15.6185C55.9089 15.6185 55.9565 13.1661 55.9565 12.3566H52.1946Z" fill="#F1F1F1"/>
<path d="M70.9087 17.8566H82.6944V14.9994H74.5991V10.3566H81.9325V7.54706H74.5991V3.45182H82.4325V0.642299H70.9087V17.8566Z" fill="#F1F1F1"/>
</svg>
