<svg xmlns="http://www.w3.org/2000/svg" viewBox="0 0 800 1120" xmlns:v="https://vecta.io/nano"><style><![CDATA[.E{stroke-linejoin:round}.F{stroke-width:1.2}.G{stroke-width:.36}.H{stroke-linecap:round}]]></style><g fill="none" stroke="#231f20" class="E"><g class="F H"><path d="M412.96 331.47h-3.76m-104.23 172.7c1.74.47 3.52.82 5.31 1.03m65.86-359.55h12.71v3.76h-12.71v56.04h33.06M259.54 91.18h-5.95m292.74 0h-5.94M359.15 664.27l48.79 16.06m-26.22 175.81l-5.23 15.91m31.45-191.72l2.65-8.03"/><path d="M410.59 672.3l-42.83-14.09M329.8 883.7l-71.22-23.45m-4.91 4.34l74.37 24.46m-20.33-128.97l4.69-14.27"/></g><path d="M363.729 900.812l1.76-5.348 110.032 36.219-1.76 5.348zM298.68 91.18h82.59v5.95h-82.59z" class="F"/><g class="H F"><path d="M418.65 97.12v-5.94m-59.5 573.09a980.43 980.43 0 0 0 50.99-291.31m-33.65 499.09l-3.27-1.08m-5.46-212.76a978.92 978.92 0 0 0 48.49-276.35"/><path d="M375.7 379.22v-6.26m-65.5 391.56l5.77-17.54m0 0l60.74 19.74m-83.16-30.74l87.58 28.82m31.83-433.33V138.92m-3.76 0h3.76M258.58 860.25l33.47-101.7 18.15 5.97m106.05-391.56v8.89M253.67 864.59l34.11-111.07 19.93 6.56m4.69-14.27l-19.87-6.54 1.02-3.29m246.84-356.76h5.94"/><path d="M546.33 379.22V91.18m-5.94 288.04V91.18M328.04 889.05l1.76-5.35m51.92-27.56l107.07 35.24 1.07-3.28-107.06-35.23 19.14-58.15 26.76 8.81-5.87 17.85 50.56 16.64 6.95-21.12-3.27-1.07-5.88 17.84-44.01-14.49 5.87-17.84-33.31-10.96-26.52 80.59m34.55-104.98l28.1-85.36 110.33 36.32L521.82 791l-5.35-1.76 22.61-68.7-101.71-33.48"/></g><path d="M497.773 846.071l6.954-21.125 5.357 1.763-6.954 21.125z" class="F"/><path d="M416.25 372.96h-6.11" class="F H"/><path d="M310.83 500.54l48.87 5.75 3.89-25.55 3.42.4c-2.25 16.27-4.92 32.48-8.02 48.62l-6.51-1.35c-.38-1.48-.88-2.92-1.5-4.32a28 28 0 0 0-2.29-4.2c-1.83-2.77-4.14-5.2-6.82-7.17a28.19 28.19 0 0 0-8.88-4.37 28.62 28.62 0 0 0-4.69-.93c-1.52-.17-3.05-.21-4.57-.13-1.53.08-3.04.28-4.53.61a28.08 28.08 0 0 0-4.57 1.41c-3.08 1.25-5.92 3.03-8.38 5.26a28.2 28.2 0 0 0-6.05 7.84 28.32 28.32 0 0 0-1.84 4.41 28.19 28.19 0 0 0-1.04 4.45 27.89 27.89 0 0 0-.31 4.56c.02 1.6.18 3.19.47 4.76a28.25 28.25 0 0 0 3.49 9.26 27.96 27.96 0 0 0 6.48 7.48c1.24 1 2.56 1.9 3.96 2.68 1.33.75 2.72 1.38 4.16 1.9s2.91.92 4.41 1.21c1.57.3 3.16.46 4.76.48a28.27 28.27 0 0 0 9.77-1.58c3.14-1.1 6.06-2.75 8.62-4.86 1.23-1.02 2.37-2.14 3.42-3.34a27.08 27.08 0 0 0 2.69-3.7l5.37 1.12-1.65 7.49-5.34-1.22a31.84 31.84 0 0 1-5.42 4.54 32.71 32.71 0 0 1-6.44 3.32c-2.26.86-4.62 1.46-7.02 1.8a32.07 32.07 0 0 1-7.06.2 32.14 32.14 0 0 1-6.94-1.34c-2.31-.72-4.54-1.69-6.64-2.9a31.89 31.89 0 0 1-5.82-4.31c-1.73-1.61-3.28-3.4-4.61-5.35a32.2 32.2 0 0 1-3.34-6.23c-.9-2.25-1.55-4.59-1.93-6.98s-.49-4.82-.33-7.24c.16-2.36.58-4.69 1.24-6.96.67-2.27 1.58-4.45 2.73-6.52 1.17-2.12 2.58-4.1 4.2-5.9a32.62 32.62 0 0 1 5.41-4.82 32.4 32.4 0 0 1 6.18-3.42l-1.55-.18c-3.54-.42-7.01-1.36-10.27-2.79l3.32-3.75a24.68 24.68 0 0 0 7.5 1.88zm57.09-56.33l-49.78-5.86c-5.65-.66-11.38.23-16.56 2.58s-9.63 6.06-12.87 10.75c-3.23 4.68-5.13 10.16-5.49 15.84s.84 11.35 3.46 16.4l-3.28 3.7a35.99 35.99 0 0 1-4.91-19.08c.17-6.69 2.2-13.21 5.86-18.81a36.08 36.08 0 0 1 14.89-12.91c6.07-2.83 12.8-3.92 19.45-3.14l53.1 6.25-2.03 19.46-3.42-.4 1.58-14.79z" class="F"/><g class="H F"><path d="M437.37 687.06l-26.33 80.01m-11.3 23.31l3.27 1.07m-26.3-24.69l-5.79 17.58m0 .2l3.36 1.08m1.42-406.4H253.59m122.11-6.26H259.54M374.31 785.6l6.8-20.81M253.59 91.18v288.04m5.95-288.04v281.78M409.2 205.45v-66.53"/><use href="#B"/><path d="M376.64 210.15v121.32m0 0h-4.7m4.2-185.82l.02-6.73"/><path d="M376.16 138.92h-4.22m0 0v192.55m37.26-121.32v121.32m93.61-234.35v-5.94m0 0h-84.16m84.16 5.94h-84.16m-7.61 669.95l-3.27-1.08"/></g><use href="#C" class="F"/><use href="#C" y="92.43" class="F"/><use href="#C" y="138.64" class="F"/><use href="#C" y="184.85" class="F"/><use href="#C" y="228.37" class="F"/><use href="#C" x="0.06" y="271.89" class="F"/><use href="#C" x="1.45" y="315.41" class="F"/><use href="#C" x="10.68" y="358.93" class="F"/><use href="#C" x="27.33" y="402.45" class="F"/><use href="#C" x="31.66" y="445.97" class="F"/><use href="#C" x="17.23" y="489.49" class="F"/><use href="#C" x="0.07" y="714.61" class="F"/><use href="#C" x="0.07" y="669.21" class="F"/><use href="#C" x="0.07" y="623.81" class="F"/><use href="#C" x="0.07" y="578.41" class="F"/><use href="#C" x="3.69" y="533.01" class="F"/><use href="#C" x="299.63" y="-92.42" class="F"/><use href="#C" x="299.63" y="-46.21" class="F"/><use href="#C" x="299.63" class="F"/><use href="#C" x="299.63" y="46.21" class="F"/><use href="#C" x="299.63" y="92.43" class="F"/><use href="#C" x="299.63" y="138.64" class="F"/><use href="#C" x="299.63" y="184.85" class="F"/><use href="#C" x="299.63" y="228.37" class="F"/><use href="#C" x="299.63" y="271.89" class="F"/><use href="#C" x="299.63" y="315.41" class="F"/><use href="#C" x="299.63" y="358.93" class="F"/><use href="#C" x="299.63" y="402.45" class="F"/><use href="#C" x="299.63" y="445.97" class="F"/><use href="#C" x="299.63" y="489.49" class="F"/><use href="#C" x="299.63" y="714.61" class="F"/><use href="#C" x="299.63" y="669.21" class="F"/><use href="#C" x="299.63" y="623.81" class="F"/><use href="#C" x="299.63" y="578.41" class="F"/><use href="#C" x="299.63" y="533.01" class="F"/><use href="#D" class="F"/><use href="#C" x="9.08" y="-101.54" class="F"/><use href="#C" x="48.53" y="-101.54" class="F"/><use href="#C" x="89.04" y="-101.54" class="F"/><use href="#C" x="129.56" y="-101.54" class="F"/><use href="#C" x="170.07" y="-101.54" class="F"/><use href="#C" x="210.58" y="-101.54" class="F"/><use href="#C" x="251.1" y="-101.54" class="F"/><use href="#C" x="290.55" y="-101.54" class="F"/><use href="#D" x="-133.81" class="F"/><use href="#D" x="-44.61" class="F"/><use href="#C" x="263" y="751.24" class="F"/><use href="#D" x="-178.42" class="F"/><use href="#D" x="-89.21" class="F"/><use href="#C" y="-92.42" class="F"/><use href="#C" y="-46.21" class="F"/><use href="#C" y="46.21" class="F"/><g class="H"><g stroke-width=".24"><path d="M283.41 487.62a36.63 36.63 0 0 0 7.16 8.67c2.81 2.5 6 4.59 9.44 6.11m-13.32-18.48c1.78 3.35 4.15 6.36 6.99 8.88a31.57 31.57 0 0 0 9.66 5.87m-9.05-407.49V54.54m222.18 734.7l-11.75 35.69m17.1-33.93l-11.74 35.69m-25.57 59.65l13.26-40.29m-27.6 83.86l13.26-40.3m-119.7 11.19l-35.69-11.75m37.45 6.4L329.8 883.7m161.14-184.95c17.01-51.53 30.14-104.26 39.38-157.74 9.24-53.47 14.56-107.55 16.02-161.8m-5.95.01H416.25M298.76 737.69l29.34-89.16m-34.55 87.45l29.35-89.17m58.18-549.69h37.57m121.74-5.94h-37.58"/><path d="M322.12 649.16l.4-1.19m4.81 2.91l.39-1.19m-34.77-107.87l-7.18-36.26-29.97 5.94m1.39 9.14l30.38-6.01"/><path d="M258.98 529.7l30.38-6.01m-28.07 14.97l29.86-5.91m-26.99 14.76l28.79-5.7m239.9 137.78l-32.52-10.7m22.73 40.44l9.79-29.74m-17.82 27.09l9.79-29.73M507 704.04l9.79-29.73m-17.82 27.09l9.79-29.74M253.59 91.18V54.54m10.18 36.64V54.54"/><path d="M273.94 91.18V54.54m10.18 36.64V54.54m-30.53 36.64V54.54h292.74v36.64M317.14 433.5l-40.42-4.75 5.82-49.53"/><path d="M286.82 429.93l5.97-50.71m4.14 51.94l6.11-51.94m3.99 53.13l6.25-53.13M251.71 96.81h1.88m-1.88 92.43h1.88m-1.88 92.42h1.88m-1.88 92.43h1.88M548.21 96.81h-1.88m1.88 92.43h-1.88m1.88 92.42h-1.88M469 938.98l1.05-3.18M371.8 439.93c1.82-20.2 3.12-40.44 3.9-60.71m-9.35 60.13a938.11 938.11 0 0 0 3.7-60.19M328.1 648.53a928.09 928.09 0 0 0 24.87-89.83m-30.07 88.11c9.73-29.34 17.98-59.14 24.73-89.3m33.64-466.33h37.38m71.21 796.93l13.26-40.3m-27.6 83.86l13.27-40.29m59.42-517.29h-1.88m1.96 347.67l-3.32-1.09M317.14 433.54l6.39-54.32"/><path d="M415.37 91.18h.93m-156.76 0h39.14m109.26 589.15l25.28 8.33M253.59 450.43v-71.21m2.66 135.61l-.09-.65-.89-7.37-.65-7.41-.45-7.43-.28-7.45-.15-7.46-.15-26.64m45.09-353.3h-39.14m243.27 0h37.58m0 275.84H416.25m-5.66 299.34l25.28 8.33m-182.2 183.96v-83.42-5.56l.02-3.39.04-4.61.1-5.98.13-4.61.1-2.77.22-4.69.29-4.69.38-4.69.47-4.71.27-2.34.3-2.34.32-2.34.35-2.34.8-4.69.45-2.34.48-2.33.51-2.32.55-2.33.59-2.34.7-2.59.8-2.78.25-.84.32-1.04.37-1.16.38-1.18.24-.72.39-1.17.81-2.34.85-2.35.87-2.35.9-2.36.92-2.36 1.2-3.03.91-2.27.93-2.3 2.04-5.03 1.17-2.91.84-2.11.95-2.41.92-2.39.9-2.39.88-2.41.86-2.41.83-2.41.79-2.42.75-2.42.75-2.57.71-2.62.61-2.45.55-2.44.49-2.45.24-1.3.4-2.45.33-2.46.26-2.48.18-2.48.09-2.48.01-.91v-.62-.78l-.03-1.24-.11-2.48-.19-2.48-.27-2.47-.21-1.58-.39-2.46-.45-2.45-.51-2.44-.57-2.44-.52-2.05-.6-2.21-.71-2.43-.75-2.42-.79-2.42-.83-2.42-.85-2.41-.88-2.4-.9-2.39-.92-2.39-.94-2.4-1.73-4.34-2.87-7.08-1.18-2.95-1.25-3.16-.92-2.36-.9-2.35-.88-2.35-.85-2.35-.82-2.34-1.07-3.21-.69-2.21-.26-.87-.27-.92-.45-1.57-.73-2.68-.93-3.82c-.58-2.47-1.55-6.7-2.93-15.74"/></g><g class="G"><path d="M371.52 784.83l-61.32-20.31m66.44-431.64v-1.41m32.56 1.41v-1.41"/><path d="M366.61 456.66l-25.25-2.97m21.91 29.37l-79.8-9.38m57.89-19.99l-49.55-5.83m139.78-116.39h.15"/></g></g><path d="M467.12 254.3h32.87v77.18h-32.87z" class="G"/><g class="H G"><path d="M375.07 341.65v-10.18m35.69 10.18v-10.18M287.73 753.84l4.8-14.57"/><use href="#B" y="8.77"/><use href="#B" y="17.53"/><use href="#B" y="26.3"/><use href="#B" y="35.07"/><path d="M433.05 801.34l44.02 14.49"/><use href="#B" y="43.83"/><use href="#B" y="52.6"/><use href="#B" y="61.37"/><use href="#B" y="70.13"/><path d="M412.96 331.47h18.78V138.92h-18.78"/><use href="#B" y="78.9"/><use href="#B" y="87.67"/><use href="#B" y="96.43"/><use href="#B" y="105.2"/><use href="#B" y="113.97"/><use href="#B" y="122.73"/><path d="M375.07 341.65h35.69"/></g></g><path d="M32.2 1028.91h-5.43v-1.05h2.19v-8.03l-2.07 1.03v-1.2l2.23-1.15h1.03v9.35h2.04v1.05zm33.37 0h-1.52l-3.49-5.07-1.09 1.19v3.88h-1.2v-10.33h1.2v4.95l4.58-4.95h1.38l-4.04 4.37 4.17 5.97z"/><use href="#E"/><use href="#F"/><use href="#G"/><use href="#H"/><use href="#I"/><use href="#J"/><use href="#K"/><path d="M64.23,1050.91h-5.62v-10.33h1.2v9.29h4.42v1.05Z"/><use href="#E" y="22"/><path d="M82.54,1043.28l-2.89,7.63h-1.04l-2.88-7.63h1.25l2.16,6.07,2.16-6.07h1.25Z"/><use href="#L"/><use href="#J" x="-18.01" y="22"/><use href="#M"/><use href="#N"/><use href="#O"/><use href="#E" y="44"/><use href="#J" x="-36.01" y="44"/><use href="#L" y="22"/><use href="#J" x="-18.01" y="44"/><use href="#M" y="22"/><path d="M32.6 1092.53h-1.27v2.39h-1.2v-2.39h-4.5v-.92l4.08-7.03h1.62v6.9h1.27v1.05zm-2.48-1.05v-5.71l-3.28 5.71h3.28zm34.11 3.43h-5.62v-10.33h1.2v9.29h4.42v1.05z"/><use href="#P"/><path d="M82.18 1094.91h-1.14v-1.13c-.82.87-1.68 1.31-2.59 1.31-1.43 0-2.15-.87-2.15-2.6v-5.21h1.14v4.89c0 .65.1 1.13.31 1.45s.55.48 1.04.48c.7 0 1.45-.43 2.25-1.3v-5.51h1.14v7.63z"/><use href="#J" x="-27.01" y="66"/><use href="#Q"/><use href="#R"/><use href="#S"/><use href="#T"/><path d="M237.98 1018.58l-1.32 10.33h-1.11l-1.76-5.82-1.75 5.82h-1.14l-1.29-10.33h1.19l.87 8.4 1.52-5.08h1.2l1.53 5.1.89-8.42h1.17zm8.16 9.69c-.81.56-1.75.84-2.82.84-1.34 0-2.35-.46-3.05-1.38s-1.04-2.25-1.04-3.98.34-2.99 1.01-3.94 1.7-1.42 3.08-1.42c.5 0 .99.06 1.48.19s.88.3 1.18.51l-.4.94a4.51 4.51 0 0 0-2.26-.59c-.95 0-1.66.35-2.12 1.04s-.7 1.78-.7 3.28c0 2.87.94 4.31 2.82 4.31.8 0 1.61-.24 2.45-.73l.37.95z"/><use href="#U"/><use href="#V"/><use href="#I" x="136.56" y="22"/><use href="#Q" x="154.55" y="-44"/><path d="M204.89,1063.44l-4.09,9.48h-1.23l4.04-9.29h-4.84v-1.05h6.13v.86Z"/><use href="#V" y="22"/><use href="#P" x="172.56" y="-22"/><use href="#F" x="172.55" y="44"/><use href="#H" x="163.56" y="44"/><use href="#R" x="163.56" y="-22"/><use href="#W"/><use href="#W" x="9"/><path d="M300.36 1072.91h-1.14v-5.01c0-1.21-.22-1.82-.67-1.82-.23 0-.48.21-.76.63s-.41.65-.41.69v5.51h-1.14v-5.01c0-1.21-.23-1.82-.68-1.82-.22 0-.48.21-.75.63-.28.42-.41.65-.41.69v5.51h-1.14v-7.63h1.1v1.15c.21-.4.47-.73.77-.97s.59-.36.88-.36c.31 0 .58.12.83.36.24.24.41.57.51.97.21-.4.47-.73.77-.97s.59-.36.88-.36c.92 0 1.38.83 1.38 2.47v5.34z"/><use href="#X"/><path d="M235.99 1085.72c-.62-.21-1.2-.32-1.75-.32-.62 0-1.13.14-1.53.43-.39.29-.59.69-.59 1.22 0 .63.52 1.17 1.55 1.65l1.51.73c.25.14.5.33.75.56a2.64 2.64 0 0 1 .61.85c.15.32.23.69.23 1.09 0 1.01-.34 1.79-1.01 2.34-.68.55-1.47.83-2.39.83s-1.67-.18-2.34-.53l.25-1.03c.79.36 1.47.53 2.06.53.68 0 1.23-.18 1.64-.53s.62-.84.62-1.46c0-.46-.13-.85-.4-1.17s-.76-.65-1.49-.98l-1.44-.7c-.22-.12-.43-.3-.65-.52a2.42 2.42 0 0 1-.5-.74c-.12-.27-.18-.57-.18-.89 0-.85.31-1.52.92-2s1.39-.72 2.34-.72c.69 0 1.37.11 2.05.32l-.27 1.03z"/><use href="#Y"/><use href="#F" x="172.55" y="66"/><use href="#F" x="181.56" y="66"/><use href="#Y" x="27"/><use href="#J" x="163.56" y="66"/><use href="#M" x="181.56" y="44"/><use href="#Z"/><path d="M406.57,1028.91h-5.4v-10.33h5.35v1.05h-4.15v3.2h3.99v1.05h-3.99v3.99h4.2v1.05Z"/><use href="#J" x="297.55"/><use href="#F" x="342.55"/><use href="#R" x="324.56" y="-66"/><use href="#S" x="324.56" y="-66"/><path d="M374.76,1050.91h-5.43v-1.05h2.19v-8.03l-2.07,1.03v-1.2l2.23-1.15h1.03v9.35h2.04v1.05Z"/><use href="#a"/><use href="#O" x="342.56" y="-22"/><use href="#I" x="306.56" y="22"/><use href="#G" x="333.56" y="22"/><path d="M434.5 1050.91H433l-3.24-3.79-.75.64v3.15h-1.14v-10.33h1.14v5.92l3.58-3.22h1.46l-3.48 3.12 3.93 4.51z"/><g fill="none" stroke="#231f20" stroke-width=".75" class="E"><circle cx="765.53" cy="1024.02" r="11.44"/><path d="M765.53 1024.02v11.44" class="H"/></g><path d="M486.51,304.62h-5.43v-1.05h2.19v-8.03l-2.07,1.03v-1.2l2.23-1.15h1.03v9.35h2.04v1.05Z"/><use href="#N" x="454.31" y="-882.15"/><use href="#K" x="288.84" y="-807.66"/><use href="#Z" x="28.06" y="-904.27"/><path d="M330.68,469.32h-1.27v2.39h-1.2v-2.39h-4.5v-.92l4.08-7.03h1.62v6.9h1.27v1.05Zm-2.48-1.05v-5.71l-3.28,5.71h3.28Z"/><use href="#T" x="123.15" y="-486.23"/><path d="M398.32,76.9h-5.43v-1.05h2.19v-8.03l-2.07,1.03v-1.2l2.23-1.15h1.03v9.35h2.04v1.05Z"/><use href="#a" x="23.56" y="-974.01"/><path d="M459.19,527.73h-5.43v-1.05h2.19v-8.03l-2.07,1.03v-1.2l2.23-1.15h1.03v9.35h2.04v1.05Z"/><use href="#a" x="84.43" y="-523.18"/><use href="#U" x="269.16" y="-290"/><use href="#X" x="151.17" y="-373.08"/><path d="M442.84 845.43l-4.09 9.48h-1.23l4.04-9.29h-4.84v-1.05h6.13v.86zm-15.81 45.4l-4.09 9.48h-1.23l4.04-9.29h-4.84v-1.05h6.13v.86z"/><use href="#U" x="122.96" y="-220.69"/><path d="M305.73,605.17h-5.43v-1.05h2.19v-8.03l-2.07,1.03v-1.2l2.23-1.15h1.03v9.35h2.04v1.05Z"/><use href="#a" x="-69.03" y="-445.74"/><defs ><path id="B" d="M376.64 210.15h32.56"/><path id="C" d="M250.15 187.67c-.2 0-.39.04-.58.11a1.58 1.58 0 0 0-.88.88c-.07.18-.11.38-.11.58s.04.39.11.58a1.58 1.58 0 0 0 .88.88c.18.07.38.11.58.11s.39-.04.58-.11a1.58 1.58 0 0 0 .88-.88c.07-.18.11-.38.11-.58s-.04-.39-.11-.58a1.58 1.58 0 0 0-.88-.88c-.18-.07-.38-.11-.58-.11z"/><path id="D" d="M468.55 938.91c-.18 0-.36.03-.53.1-.18.07-.35.18-.49.32s-.25.31-.32.49c-.07.17-.1.35-.1.53s.03.36.1.53c.07.18.18.35.32.49s.31.25.49.32c.17.07.35.1.53.1s.36-.03.53-.1c.18-.07.35-.18.49-.32s.25-.31.32-.49c.07-.17.1-.35.1-.53s-.03-.36-.1-.53c-.07-.18-.18-.35-.32-.49s-.31-.25-.49-.32c-.17-.07-.35-.1-.53-.1z"/><path id="E" d="M71.29 1028.91h-1.14v-6.64H67.9v-.99h3.39v7.63zm-.56-10.52c.21 0 .4.08.55.23s.23.34.23.55c0 .23-.07.41-.22.56s-.33.23-.55.23a.71.71 0 0 1-.53-.24.78.78 0 0 1-.23-.55.78.78 0 0 1 .23-.55.7.7 0 0 1 .53-.23z"/><path id="F" d="M82.27 1028.57c-.77.35-1.52.53-2.26.53-1.36 0-2.04-.72-2.04-2.16v-4.67h-1.46v-.99h1.46v-2.09h1.11v2.09h2.59v.99h-2.59v4.37c0 .46.1.82.31 1.08s.48.38.83.38c.62 0 1.24-.14 1.85-.42l.2.89z"/><path id="G" d="M91.16 1028.66c-.66.3-1.39.45-2.19.45-1.2 0-2.16-.36-2.87-1.09-.72-.73-1.07-1.7-1.07-2.91s.36-2.18 1.08-2.91 1.67-1.09 2.84-1.09c.77 0 1.5.13 2.19.4l-.3.95c-.69-.24-1.32-.36-1.88-.36-.84 0-1.51.27-2 .81s-.74 1.28-.74 2.21c0 .85.25 1.56.76 2.14s1.17.87 1.98.87c.64 0 1.31-.12 1.99-.37l.2.92z"/><path id="H" d="M100.19 1028.91h-1.14v-4.89c0-.68-.11-1.17-.33-1.48s-.56-.46-1.02-.46c-.7 0-1.45.43-2.25 1.3v5.52h-1.14v-10.33h1.14v3.82c.82-.87 1.68-1.3 2.59-1.3 1.43 0 2.15.86 2.15 2.59v5.22z"/><path id="I" d="M109.42 1025.14h-5.24c0 .86.25 1.58.75 2.14s1.11.84 1.84.84 1.41-.12 2.15-.37l.2.92c-.67.3-1.46.45-2.36.45-1.13 0-2.05-.36-2.74-1.09s-1.04-1.71-1.04-2.94.31-2.18.93-2.9 1.43-1.08 2.41-1.08a2.8 2.8 0 0 1 2.2 1c.59.67.89 1.56.89 2.67v.36zm-1.25-.93c0-.6-.19-1.1-.56-1.51s-.79-.61-1.25-.61c-.59 0-1.08.2-1.47.59s-.6.9-.65 1.53h3.92z"/><path id="J" d="M118.2 1028.91h-1.14v-4.89c0-.68-.11-1.17-.33-1.48s-.56-.46-1.02-.46c-.7 0-1.45.43-2.25 1.3v5.52h-1.14v-7.63h1.14v1.12c.82-.87 1.68-1.3 2.59-1.3 1.43 0 2.15.86 2.15 2.59v5.22z"/><path id="K" d="M31.93 1050.91h-5.68v-.87l2.81-3.23c.43-.55.78-1.12 1.05-1.72s.4-1.2.4-1.79-.17-1.03-.52-1.36-.84-.5-1.47-.5c-.48 0-1.13.15-1.95.45l-.17-1.03c.74-.31 1.51-.47 2.31-.47.92 0 1.67.26 2.23.78s.85 1.21.85 2.08c0 .62-.15 1.24-.44 1.85a8.55 8.55 0 0 1-1.12 1.76l-2.65 3.02h4.35v1.05z"/><path id="L" d="M89.29 1050.91h-1.14v-6.64H85.9v-.99h3.39v7.63zm-.56-10.52c.21 0 .4.08.55.23s.23.34.23.55c0 .23-.07.41-.22.56s-.33.23-.55.23a.71.71 0 0 1-.53-.24.78.78 0 0 1-.23-.55.78.78 0 0 1 .23-.55.7.7 0 0 1 .53-.23z"/><path id="M" d="M105.43 1048.04c-.71.35-1.07.65-1.07.92 0 .14.08.26.25.36s.39.15.67.15l2.57-.07c.61 0 1.08.15 1.42.45s.51.72.51 1.27c0 .86-.39 1.55-1.16 2.06s-1.67.77-2.7.77c-.84 0-1.54-.18-2.07-.53-.54-.35-.81-.81-.81-1.37 0-.61.42-1.12 1.25-1.54-.69-.32-1.03-.72-1.03-1.19 0-.54.44-1.04 1.33-1.5-.41-.25-.73-.57-.94-.97s-.33-.81-.33-1.25c0-.72.24-1.31.73-1.77s1.1-.69 1.83-.69c.53 0 1 .11 1.43.33l2.26-.34v1.11h-1.46c.22.39.33.84.33 1.36a2.37 2.37 0 0 1-.73 1.76c-.48.48-1.1.72-1.84.72-.16 0-.31 0-.45-.02zm.49 5.01c.75 0 1.39-.17 1.92-.5s.79-.75.79-1.24-.38-.76-1.13-.76l-1.29.04-.91.03c-.11 0-.27.09-.5.26-.23.18-.4.35-.52.53s-.18.36-.18.55c0 .3.17.55.5.77.33.21.77.32 1.31.32zm-.04-5.88c.42 0 .76-.15 1.03-.44s.4-.67.4-1.14c0-.49-.13-.88-.39-1.16s-.61-.42-1.04-.42c-.41 0-.75.15-1.02.44-.28.29-.41.67-.41 1.14s.14.84.41 1.13c.28.3.62.44 1.02.44z"/><path id="N" d="M29.89 1067.36c.63.18 1.14.5 1.52.96.38.47.57.99.57 1.57 0 .91-.35 1.67-1.06 2.29s-1.54.93-2.5.93c-.82 0-1.56-.18-2.2-.54l.23-.99c.68.32 1.35.48 2.01.48.62 0 1.16-.19 1.6-.58s.66-.89.66-1.5a1.76 1.76 0 0 0-.71-1.46c-.47-.38-1.1-.56-1.88-.56h-.31v-.99h.09c.75 0 1.37-.18 1.86-.53s.73-.83.73-1.43c0-.49-.18-.87-.53-1.15s-.83-.41-1.45-.41c-.53 0-1.13.14-1.79.43l-.16-1.03c.66-.3 1.33-.45 2.01-.45.92 0 1.68.24 2.28.73s.9 1.11.9 1.87c0 .53-.18 1.02-.55 1.48-.36.46-.8.74-1.31.86v.04z"/><path id="O" d="M58.26 1062.58h2.04c1.35 0 2.44.46 3.25 1.38.82.92 1.22 2.18 1.22 3.79s-.41 2.91-1.24 3.81-1.89 1.35-3.18 1.35h-2.09v-10.33zm1.2 9.29h.85c.98 0 1.76-.36 2.33-1.09s.86-1.74.86-3.03-.29-2.29-.86-3.02c-.57-.74-1.35-1.1-2.33-1.1h-.85v8.24z"/><path id="P" d="M73.38 1094.91h-1.14c-.09-.31-.14-.72-.14-1.23-.65.95-1.53 1.43-2.65 1.43-.57 0-1.07-.2-1.5-.6s-.65-.92-.65-1.56c0-.38.08-.71.23-1a1.94 1.94 0 0 1 .67-.73c.29-.2.65-.35 1.07-.47s.92-.19 1.49-.24l1.28-.1v-.37c0-1.31-.61-1.96-1.83-1.96-.29 0-.65.06-1.09.19-.44.12-.82.27-1.14.44l-.3-.82c1.04-.53 2.01-.8 2.9-.8 1.74 0 2.61.92 2.61 2.76v3.28c0 .66.06 1.25.19 1.77zm-1.33-2.26v-1.38l-2.12.26c-.38.08-.72.23-1 .45s-.42.52-.42.89c0 .34.12.62.36.83s.54.32.92.32c.41 0 .81-.12 1.21-.36s.75-.57 1.05-1z"/><path id="Q" d="M100.17 1094.91h-1.14v-1.1c-.23.38-.57.69-1.01.93s-.9.37-1.38.37c-.87 0-1.56-.39-2.07-1.17s-.76-1.77-.76-2.96c0-1.12.26-2.04.79-2.78.53-.73 1.23-1.1 2.11-1.1.96 0 1.74.39 2.32 1.17v-3.69h1.14v10.33zm-1.14-2.34v-3.17c-.55-.88-1.21-1.32-1.98-1.32-.63 0-1.13.28-1.49.84-.37.56-.55 1.27-.55 2.12s.17 1.61.52 2.18c.34.57.82.86 1.42.86.29 0 .58-.08.87-.23a2.95 2.95 0 0 0 .83-.7c.26-.31.39-.5.39-.57z"/><path id="R" d="M109.31 1087.49l-.46 1.1c-.5-.22-.94-.33-1.3-.33-.34 0-.67.1-.99.29s-.62.47-.89.83l-.41.6v4.94h-1.14v-7.63h1.14v1.55c.61-1.15 1.4-1.73 2.37-1.73a3.83 3.83 0 0 1 1.68.39z"/><path id="S" d="M118.54 1087.28l-2.89 7.63c-.42 1.12-.84 1.91-1.25 2.35s-.88.67-1.41.67c-.47 0-.93-.09-1.39-.26l.19-.92c.37.12.7.18 1 .18.41 0 .75-.16 1.01-.48s.53-.84.8-1.56l-2.86-7.62h1.25l2.16 6.09 2.16-6.09h1.25z"/><path id="T" d="M200.48 1022.75c.33-.09.66-.13.97-.13.98 0 1.75.3 2.31.9.57.6.85 1.34.85 2.24 0 .94-.33 1.73-.99 2.38s-1.46.98-2.41.98-1.66-.15-2.27-.45l.24-1.02c.66.28 1.35.42 2.06.42.63 0 1.14-.2 1.53-.61s.58-.97.58-1.7c0-.69-.18-1.22-.55-1.59s-.84-.56-1.41-.56c-.42 0-.83.08-1.25.24l-.72-.33v-4.94h4.72v1.05h-3.68v3.12z"/><path id="U" d="M199.95 1045.53c.64-.52 1.35-.78 2.1-.78.87 0 1.6.28 2.19.84.58.56.88 1.28.88 2.16 0 .97-.26 1.78-.78 2.41s-1.21.95-2.07.95c-1.1 0-1.98-.51-2.62-1.52s-.97-2.25-.97-3.72c0-1.56.34-2.87 1.01-3.92s1.59-1.58 2.76-1.58c.81 0 1.5.12 2.09.36l-.19 1.07c-.68-.25-1.3-.37-1.86-.37-.8 0-1.42.38-1.86 1.14s-.67 1.75-.67 2.95zm.04 1.03c0 .88.21 1.69.62 2.41.42.72.94 1.08 1.57 1.08.53 0 .94-.19 1.23-.59.29-.39.43-.93.43-1.62 0-.63-.16-1.14-.48-1.5-.32-.37-.76-.55-1.34-.55-.75 0-1.43.25-2.04.76z"/><path id="V" d="M235.03 1045.25c.69.16 1.23.47 1.62.94s.59 1.02.59 1.66c0 .94-.34 1.68-1.02 2.24s-1.5.83-2.46.83h-2.94v-10.33h2.86c1 0 1.77.22 2.34.66.56.44.84 1.05.84 1.85 0 .49-.16.92-.49 1.3s-.77.66-1.34.83v.03zm-3.01-.56h1.41c1.47 0 2.2-.52 2.2-1.58 0-.48-.18-.85-.54-1.1-.36-.26-.89-.38-1.59-.38h-1.48v3.06zm0 5.18h1.36c.8 0 1.43-.18 1.89-.54.47-.36.7-.86.7-1.49 0-.67-.23-1.19-.69-1.55s-1.12-.55-1.99-.55h-1.27v4.13z"/><path id="W" d="M278.8 1065.1c1.05 0 1.88.37 2.5 1.1s.93 1.7.93 2.89-.31 2.18-.93 2.92-1.46 1.11-2.5 1.11-1.89-.37-2.51-1.1c-.62-.74-.93-1.71-.93-2.92s.31-2.17.93-2.9 1.46-1.09 2.5-1.09zm0 7.02c.69 0 1.24-.29 1.64-.88s.6-1.3.6-2.13c0-.88-.2-1.6-.59-2.17s-.94-.85-1.65-.85-1.26.28-1.65.84-.59 1.29-.59 2.18.2 1.56.59 2.14a1.88 1.88 0 0 0 1.64.87z"/><path id="X" d="M202.84 1089.25c.7.21 1.25.55 1.64 1.05.39.49.58 1.07.58 1.73 0 .95-.31 1.7-.94 2.26s-1.4.83-2.32.83-1.75-.28-2.37-.84-.93-1.31-.93-2.23c0-.65.2-1.23.6-1.73s.96-.85 1.68-1.06c-.57-.15-1.03-.43-1.37-.85s-.52-.88-.52-1.4c0-.66.26-1.27.79-1.8.53-.54 1.22-.81 2.09-.81s1.56.27 2.12.81.84 1.14.84 1.81c0 .5-.18.97-.53 1.39s-.81.71-1.36.86zm-1.07.53c-1.34.39-2.01 1.13-2.01 2.2 0 .63.2 1.13.61 1.51s.88.57 1.43.57 1.04-.19 1.43-.56.58-.88.58-1.52c0-.48-.13-.92-.4-1.3s-.82-.68-1.64-.9zm0-1.03l.35-.09a2.25 2.25 0 0 0 .54-.22 1.61 1.61 0 0 0 .41-.33c.12-.14.23-.29.31-.46a1.46 1.46 0 0 0 .12-.6c0-.47-.17-.86-.51-1.17s-.74-.46-1.22-.46a1.62 1.62 0 0 0-1.19.48 1.55 1.55 0 0 0-.5 1.16c0 .29.06.54.18.75a1.63 1.63 0 0 0 .45.52 2.25 2.25 0 0 0 .62.31c.23.07.38.11.45.11z"/><path id="Y" d="M243.85 1094.91h-1.14v-6.64h-2.25v-.99h3.39v7.63zm-.56-10.52c.21 0 .4.08.55.23s.23.34.23.55c0 .23-.07.41-.22.56s-.33.23-.55.23a.71.71 0 0 1-.53-.24.78.78 0 0 1-.23-.55.78.78 0 0 1 .23-.55.7.7 0 0 1 .53-.23z"/><path id="Z" d="M373.77 1023.95c-.6.52-1.3.78-2.1.78-.87 0-1.6-.28-2.19-.84-.58-.56-.88-1.28-.88-2.17 0-.95.28-1.74.84-2.39s1.28-.97 2.16-.97c1.08 0 1.92.49 2.53 1.48s.91 2.24.91 3.76-.35 2.81-1.07 3.89c-.71 1.07-1.66 1.61-2.85 1.61-.8 0-1.49-.12-2.08-.37l.19-1.06c.67.25 1.29.37 1.86.37.81 0 1.46-.39 1.94-1.18s.73-1.76.73-2.92zm-.03-1.03c0-.93-.19-1.74-.56-2.44-.38-.7-.87-1.05-1.48-1.05-.55 0-.99.2-1.32.61s-.49.94-.49 1.59c0 .6.17 1.09.5 1.48.33.38.77.58 1.31.58.75 0 1.4-.23 1.95-.69l.1-.07z"/><path id="a" d="M380.79 1040.38c1.09 0 1.93.47 2.52 1.41s.88 2.26.88 3.96-.29 2.95-.86 3.92c-.57.96-1.42 1.45-2.55 1.45s-1.93-.47-2.52-1.41-.89-2.26-.89-3.96.29-2.96.86-3.92a2.78 2.78 0 0 1 2.54-1.45zm0 9.67c.72 0 1.26-.34 1.61-1.03s.52-1.78.52-3.28-.17-2.6-.52-3.28-.88-1.02-1.61-1.02-1.25.35-1.6 1.05-.53 1.78-.53 3.25.17 2.58.52 3.27.88 1.04 1.6 1.04zm-.03-5.4c.31 0 .57.11.78.32s.32.47.32.78a1.19 1.19 0 0 1-.32.82 1.01 1.01 0 0 1-.78.34c-.31 0-.55-.11-.77-.34-.21-.23-.32-.5-.32-.82s.1-.57.31-.78.46-.31.77-.31z"/></defs></svg>