<svg xmlns="http://www.w3.org/2000/svg" viewBox="0 0 800 1120" xmlns:v="https://vecta.io/nano"><style><![CDATA[.P{stroke-linejoin:round}.Q{stroke:#231f20}.R{stroke:#5b5b5b}.S{stroke-width:.2}.T{stroke-width:.4}.U{stroke-width:.1}.V{stroke-linecap:round}.W{stroke-width:.3}.X{fill:none}.Y{stroke-linecap:square}]]></style><defs><pattern id="A" width="72" height="72" patternTransform="translate(-15772.9 5667.1) rotate(-90) scale(1 -1)" patternUnits="userSpaceOnUse" viewBox="0 0 72 72"><g class="X"><path d="M0 0h72v72H0z"/><path d="M0 0h72v72H0z"/><g class="Q U"><path d="M71.8 3.6h72.4M71.8 18h72.4M71.8 32.4h72.4M71.8 46.8h72.4M71.8 61.2h72.4M71.8 10.8h72.4M71.8 25.2h72.4M71.8 39.6h72.4"/><path d="M71.8 54h72.4M71.8 68.4h72.4M-.2 3.6h72.4M-.2 18h72.4M-.2 32.4h72.4M-.2 46.8h72.4M-.2 61.2h72.4M-.2 10.8h72.4M-.2 25.2h72.4M-.2 39.6h72.4"/><path d="M-.2 54h72.4M-.2 68.4h72.4M-72.2 3.6H.2M-72.2 18H.2m-72.4 14.4H.2m-72.4 14.4H.2m-72.4 14.4H.2m-72.4-50.4H.2m-72.4 14.4H.2m-72.4 14.4H.2"/><path d="M-72.2 54H.2m-72.4 14.4H.2"/></g></g></pattern><pattern id="B" width="72" height="72" patternTransform="translate(243.9 -11970.4) scale(1 -1)" patternUnits="userSpaceOnUse" viewBox="0 0 72 72"><g class="X"><path d="M0 0h72v72H0z"/><path d="M0 0h72v72H0z"/><g class="Q U"><path d="M71.8 3.6h72.4M71.8 18h72.4M71.8 32.4h72.4M71.8 46.8h72.4M71.8 61.2h72.4M71.8 10.8h72.4M71.8 25.2h72.4M71.8 39.6h72.4"/><path d="M71.8 54h72.4M71.8 68.4h72.4M-.2 3.6h72.4M-.2 18h72.4M-.2 32.4h72.4M-.2 46.8h72.4M-.2 61.2h72.4M-.2 10.8h72.4M-.2 25.2h72.4M-.2 39.6h72.4"/><path d="M-.2 54h72.4M-.2 68.4h72.4M-72.2 3.6H.2M-72.2 18H.2m-72.4 14.4H.2m-72.4 14.4H.2m-72.4 14.4H.2m-72.4-50.4H.2m-72.4 14.4H.2m-72.4 14.4H.2"/><path d="M-72.2 54H.2m-72.4 14.4H.2"/></g></g></pattern><pattern id="C" width="72" height="72" patternTransform="translate(243.9 -11970.4) scale(1 -1)" patternUnits="userSpaceOnUse" viewBox="0 0 72 72"><g class="X"><path d="M0 0h72v72H0z"/><path d="M0 0h72v72H0z"/><g class="Q U"><path d="M71.8 3.6h72.4M71.8 18h72.4M71.8 32.4h72.4M71.8 46.8h72.4M71.8 61.2h72.4M71.8 10.8h72.4M71.8 25.2h72.4M71.8 39.6h72.4"/><path d="M71.8 54h72.4M71.8 68.4h72.4M-.2 3.6h72.4M-.2 18h72.4M-.2 32.4h72.4M-.2 46.8h72.4M-.2 61.2h72.4M-.2 10.8h72.4M-.2 25.2h72.4M-.2 39.6h72.4"/><path d="M-.2 54h72.4M-.2 68.4h72.4M-72.2 3.6H.2M-72.2 18H.2m-72.4 14.4H.2m-72.4 14.4H.2m-72.4 14.4H.2m-72.4-50.4H.2m-72.4 14.4H.2m-72.4 14.4H.2"/><path d="M-72.2 54H.2m-72.4 14.4H.2"/></g></g></pattern><pattern id="D" width="57.6" height="43.2" patternTransform="translate(-15818.2 5473.4) rotate(-90) scale(.7 -.5)" patternUnits="userSpaceOnUse" viewBox="0 0 57.6 43.2"><g class="X"><path d="M0 0h57.6v43.2H0z"/><path d="M0 0h57.6v43.2H0z"/><g class="Q"><path d="M57.6 42.4h57.6m-57.6-7.2h57.6M57.6 28h57.6m-57.6-7.2h57.6m-57.6-7.2h57.6M57.6 6.4h57.6" class="U Y"/><path d="M54 35.2V28m-14.4 7.2V28m-14.4 7.2V28m-14.4 7.2V28M54 20.8v-7.2m-14.4 7.2v-7.2m-14.4 7.2v-7.2m-14.4 7.2v-7.2M54 6.4V-1M39.6 6.4V-1M25.2 6.4V-1M10.8 6.4V-1m36 14.6V6.4m-14.4 7.2V6.4M18 13.6V6.4M3.6 13.6V6.4M46.8 28v-7.2M32.4 28v-7.2M18 28v-7.2M3.6 28v-7.2m43.2 21.6v-7.2m-14.4 7.2v-7.2M18 42.4v-7.2M3.6 42.4v-7.2" class="U"/><g class="Y"><path d="M0 42.4h57.6M0 35.2h57.6M0 28h57.6M0 20.8h57.6M0 13.6h57.6M0 6.4h57.6m-115.2 36H0" class="U"/><path d="M-57.6 35.2H0M-57.6 28H0m-57.6-7.2H0m-57.6-7.2H0m-57.6-7.2H0" class="U"/></g><path d="M54 49.6v-7.4m-14.4 7.4v-7.4m-14.4 7.4v-7.4m-14.4 7.4v-7.4" class="U"/></g></g></pattern><pattern id="E" width="57.6" height="43.2" patternTransform="translate(-15815.1 5473.4) rotate(-90) scale(.7 -.5)" patternUnits="userSpaceOnUse" viewBox="0 0 57.6 43.2"><g class="X"><path d="M0 0h57.6v43.2H0z"/><path d="M0 0h57.6v43.2H0z"/><g class="Q"><path d="M57.6 42.4h57.6m-57.6-7.2h57.6M57.6 28h57.6m-57.6-7.2h57.6m-57.6-7.2h57.6M57.6 6.4h57.6" class="U Y"/><path d="M54 35.2V28m-14.4 7.2V28m-14.4 7.2V28m-14.4 7.2V28M54 20.8v-7.2m-14.4 7.2v-7.2m-14.4 7.2v-7.2m-14.4 7.2v-7.2M54 6.4V-1M39.6 6.4V-1M25.2 6.4V-1M10.8 6.4V-1m36 14.6V6.4m-14.4 7.2V6.4M18 13.6V6.4M3.6 13.6V6.4M46.8 28v-7.2M32.4 28v-7.2M18 28v-7.2M3.6 28v-7.2m43.2 21.6v-7.2m-14.4 7.2v-7.2M18 42.4v-7.2M3.6 42.4v-7.2" class="U"/><g class="Y"><path d="M0 42.4h57.6M0 35.2h57.6M0 28h57.6M0 20.8h57.6M0 13.6h57.6M0 6.4h57.6m-115.2 36H0" class="U"/><path d="M-57.6 35.2H0M-57.6 28H0m-57.6-7.2H0m-57.6-7.2H0m-57.6-7.2H0" class="U"/></g><path d="M54 49.6v-7.4m-14.4 7.4v-7.4m-14.4 7.4v-7.4m-14.4 7.4v-7.4" class="U"/></g></g></pattern><pattern id="F" width="57.6" height="43.2" patternTransform="translate(-15812.5 5473.4) rotate(-90) scale(.7 -.5)" patternUnits="userSpaceOnUse" viewBox="0 0 57.6 43.2"><g class="X"><path d="M0 0h57.6v43.2H0z"/><path d="M0 0h57.6v43.2H0z"/><g class="Q"><path d="M57.6 42.4h57.6m-57.6-7.2h57.6M57.6 28h57.6m-57.6-7.2h57.6m-57.6-7.2h57.6M57.6 6.4h57.6" class="U Y"/><path d="M54 35.2V28m-14.4 7.2V28m-14.4 7.2V28m-14.4 7.2V28M54 20.8v-7.2m-14.4 7.2v-7.2m-14.4 7.2v-7.2m-14.4 7.2v-7.2M54 6.4V-1M39.6 6.4V-1M25.2 6.4V-1M10.8 6.4V-1m36 14.6V6.4m-14.4 7.2V6.4M18 13.6V6.4M3.6 13.6V6.4M46.8 28v-7.2M32.4 28v-7.2M18 28v-7.2M3.6 28v-7.2m43.2 21.6v-7.2m-14.4 7.2v-7.2M18 42.4v-7.2M3.6 42.4v-7.2" class="U"/><g class="Y"><path d="M0 42.4h57.6M0 35.2h57.6M0 28h57.6M0 20.8h57.6M0 13.6h57.6M0 6.4h57.6m-115.2 36H0" class="U"/><path d="M-57.6 35.2H0M-57.6 28H0m-57.6-7.2H0m-57.6-7.2H0m-57.6-7.2H0" class="U"/></g><path d="M54 49.6v-7.4m-14.4 7.4v-7.4m-14.4 7.4v-7.4m-14.4 7.4v-7.4" class="U"/></g></g></pattern><path id="G" d="M659.5 378.4h11.4"/><path id="H" d="M588.3 378.4h11.5"/><path id="I" d="M517.5 378.4H529"/><path id="J" d="M580.9 421.2c0-.3 0-.6-.2-.9-.1-.3-.3-.6-.5-.8s-.5-.4-.8-.5-.6-.2-.9-.2-.6 0-.9.2c-.3.1-.6.3-.8.5s-.4.5-.5.8-.2.6-.2.9 0 .6.2.9c.1.3.3.6.5.8s.5.4.8.5.6.2.9.2.6 0 .9-.2c.3-.1.6-.3.8-.5s.4-.5.5-.8.2-.6.2-.9z"/><path id="K" d="M458.7 540.2v34.5"/><path id="L" d="M585.5 189.2v225.9"/><path id="M" d="M359.6 801.1v-.3s-.1-.2-.2-.3c0 0-.2-.1-.3-.2h-.3-.3c-.1 0-.2 0-.3.2 0 0-.1.2-.2.3v.3.3a1.44 1.44 0 0 0 .2.3 1.44 1.44 0 0 0 .3.2h.3.3c.1 0 .2 0 .3-.2 0 0 .1-.2.2-.3v-.3z"/><path id="N" d="M139.6 700.8v-.3s-.1-.2-.2-.3c0 0-.2-.1-.3-.2h-.3-.3c-.1 0-.2 0-.3.2s-.1.2-.2.3v.3.3a1.44 1.44 0 0 0 .2.3 1.44 1.44 0 0 0 .3.2h.3.3c.1 0 .2 0 .3-.2s.1-.2.2-.3v-.3z"/><path id="O" d="M210.4 801.1v-.3s-.1-.2-.2-.3-.2-.1-.3-.2h-.3-.3c-.1 0-.2 0-.3.2 0 0-.1.2-.2.3v.3.3a1.44 1.44 0 0 0 .2.3 1.44 1.44 0 0 0 .3.2h.3.3c.1 0 .2 0 .3-.2s.1-.2.2-.3v-.3z"/><path id="P" d="M91.2 1028.7c-.7.3-1.4.4-2.2.4-1.2 0-2.2-.4-2.9-1.1s-1.1-1.7-1.1-2.9.4-2.2 1.1-2.9 1.7-1.1 2.8-1.1 1.5.1 2.2.4l-.3 1c-.7-.2-1.3-.4-1.9-.4-.8 0-1.5.3-2 .8s-.7 1.3-.7 2.2.2 1.6.8 2.1 1.2.9 2 .9 1.3-.1 2-.4l.2.9h0z"/><path id="Q" d="M71.3 1050.9h-1.1v-6.6H68v-1h3.4v7.6zm-.6-10.5c.2 0 .4 0 .6.2s.2.3.2.6 0 .4-.2.6-.3.2-.6.2-.4 0-.5-.2-.2-.3-.2-.6 0-.4.2-.6.3-.2.5-.2h0z"/><path id="R" d="M89.3 1050.9h-1.1v-6.6H86v-1h3.4v7.6zm-.6-10.5c.2 0 .4 0 .6.2s.2.3.2.6 0 .4-.2.6-.3.2-.6.2-.4 0-.5-.2-.2-.3-.2-.6 0-.4.2-.6.3-.2.5-.2h0z"/><path id="S" d="M100.2 1050.9h-1.1v-4.9c0-.7-.1-1.2-.3-1.5s-.6-.5-1-.5c-.7 0-1.4.4-2.2 1.3v5.5h-1.1v-7.6h1.1v1.1c.8-.9 1.7-1.3 2.6-1.3 1.4 0 2.2.9 2.2 2.6v5.2h0z"/><path id="T" d="M105.4 1048c-.7.3-1.1.7-1.1.9s0 .3.2.4.4.2.7.2h2.6c.6 0 1.1 0 1.4.4.3.3.5.7.5 1.3 0 .9-.4 1.6-1.2 2.1s-1.7.8-2.7.8a4.06 4.06 0 0 1-2.1-.5c-.5-.3-.8-.8-.8-1.4s.4-1.1 1.2-1.5c-.7-.3-1-.7-1-1.2s.4-1 1.3-1.5c-.4-.2-.7-.6-.9-1s-.3-.8-.3-1.2c0-.7.2-1.3.7-1.8s1.1-.7 1.8-.7 1 .1 1.4.3l2.3-.3v1.1h-1.5c.2.4.3.8.3 1.4s-.2 1.3-.7 1.8-1.1.7-1.8.7h-.4 0zm.5 5.1c.8 0 1.4-.2 1.9-.5s.8-.8.8-1.2-.4-.8-1.1-.8h-1.3-.9c-.2 0-.3 0-.5.3-.2.2-.4.3-.5.5s-.2.4-.2.6c0 .3.2.6.5.8s.8.3 1.3.3h0zm0-5.9a1.53 1.53 0 0 0 1-.4c.3-.3.4-.7.4-1.1s-.1-.9-.4-1.2-.6-.4-1-.4a1.53 1.53 0 0 0-1 .4c-.3.3-.4.7-.4 1.1s.1.8.4 1.1.6.4 1 .4h0z"/><path id="U" d="M118.5,1087.3l-2.9,7.6c-.4,1.1-.8,1.9-1.2,2.3s-.9.7-1.4.7-.9,0-1.4-.3l.2-.9c.4.1.7.2,1,.2s.8-.2,1-.5.5-.8.8-1.6l-2.9-7.6h1.2l2.2,6.1,2.2-6.1h1.2,0Z"/><path id="V" d="M238,1018.6l-1.3,10.3h-1.1l-1.8-5.8-1.8,5.8h-1.1l-1.3-10.3h1.2l.9,8.4,1.5-5.1h1.2l1.5,5.1.9-8.4h1.2Z"/><path id="W" d="M235 1045.2c.7.2 1.2.5 1.6.9s.6 1 .6 1.7c0 .9-.3 1.7-1 2.2-.7.6-1.5.8-2.5.8h-2.9v-10.3h2.9c1 0 1.8.2 2.3.7.6.4.8 1.1.8 1.8s-.2.9-.5 1.3-.8.7-1.3.8h0zm-3-.5h1.4c1.5 0 2.2-.5 2.2-1.6s-.2-.8-.5-1.1c-.4-.3-.9-.4-1.6-.4H232v3.1h0zm0 5.2h1.4c.8 0 1.4-.2 1.9-.5.5-.4.7-.9.7-1.5s-.2-1.2-.7-1.6-1.1-.6-2-.6H232v4.1h0z"/><path id="X" d="M272.9,1065.5l-.5,1.1c-.5-.2-.9-.3-1.3-.3s-.7,0-1,.3c-.3.2-.6.5-.9.8-.3.4-.4.6-.4.6v4.9h-1.1v-7.6h1.1v1.6c.6-1.2,1.4-1.7,2.4-1.7s1.1.1,1.7.4h0Z"/><path id="Y" d="M278.8 1065.1c1 0 1.9.4 2.5 1.1s.9 1.7.9 2.9-.3 2.2-.9 2.9-1.5 1.1-2.5 1.1-1.9-.4-2.5-1.1-.9-1.7-.9-2.9.3-2.2.9-2.9 1.5-1.1 2.5-1.1h0zm0 7c.7 0 1.2-.3 1.6-.9s.6-1.3.6-2.1-.2-1.6-.6-2.2-.9-.8-1.6-.8-1.3.3-1.6.8c-.4.6-.6 1.3-.6 2.2s.2 1.6.6 2.1c.4.6.9.9 1.6.9h0z"/><path id="Z" d="M287.8 1065.1c1 0 1.9.4 2.5 1.1s.9 1.7.9 2.9-.3 2.2-.9 2.9-1.5 1.1-2.5 1.1-1.9-.4-2.5-1.1-.9-1.7-.9-2.9.3-2.2.9-2.9 1.5-1.1 2.5-1.1h0zm0 7c.7 0 1.2-.3 1.6-.9s.6-1.3.6-2.1-.2-1.6-.6-2.2-1-.8-1.6-.8-1.3.3-1.6.8c-.4.6-.6 1.3-.6 2.2s.2 1.6.6 2.1c.4.6.9.9 1.6.9h0z"/><path id="a" d="M300.4 1072.9h-1.1v-5c0-1.2-.2-1.8-.7-1.8s-.5.2-.8.6-.4.7-.4.7v5.5h-1.1v-5c0-1.2-.2-1.8-.7-1.8s-.5.2-.8.6-.4.7-.4.7v5.5h-1.1v-7.6h1.1v1.2c.2-.4.5-.7.8-1 .3-.2.6-.4.9-.4s.6.1.8.4c.2.2.4.6.5 1 .2-.4.5-.7.8-1s.6-.4.9-.4c.9 0 1.4.8 1.4 2.5v5.3h0z"/><path id="b" d="M424.9,1021.5l-.5,1.1c-.5-.2-.9-.3-1.3-.3s-.7,0-1,.3c-.3.2-.6.5-.9.8-.3.4-.4.6-.4.6v4.9h-1.1v-7.6h1.1v1.5c.6-1.2,1.4-1.7,2.4-1.7s1.1.1,1.7.4h0Z"/><path id="c" d="M374.8,1072.9h-5.4v-1.1h2.2v-8l-2.1,1v-1.2l2.2-1.2h1v9.3h2v1.1h0Z"/><path id="d" d="M415.7,1094.9h-1.1v-1.1c-.8.9-1.7,1.3-2.6,1.3-1.4,0-2.1-.9-2.1-2.6v-5.2h1.1v4.9c0,.7.1,1.1.3,1.4s.5.5,1,.5c.7,0,1.5-.4,2.2-1.3v-5.5h1.1v7.6h0Z"/><path id="e" d="M596.3,1021.5l-.5,1.1c-.5-.2-.9-.3-1.3-.3s-.7,0-1,.3-.6.5-.9.8c-.3.4-.4.6-.4.6v4.9h-1.1v-7.6h1.1v1.5c.6-1.2,1.4-1.7,2.4-1.7s1.1.1,1.7.4h0Z"/><path id="f" d="M588.6 572.6c.6-.5 1.3-.8 2.1-.8s1.6.3 2.2.8c.6.6.9 1.3.9 2.2s-.3 1.8-.8 2.4-1.2 1-2.1 1a3.14 3.14 0 0 1-2.6-1.5c-.6-1-1-2.2-1-3.7s.3-2.9 1-3.9 1.6-1.6 2.8-1.6 1.5.1 2.1.4l-.2 1.1c-.7-.2-1.3-.4-1.9-.4-.8 0-1.4.4-1.9 1.1-.5.8-.7 1.8-.7 3h0zm0 1c0 .9.2 1.7.6 2.4s.9 1.1 1.6 1.1.9-.2 1.2-.6.4-.9.4-1.6-.2-1.1-.5-1.5-.8-.5-1.3-.5-1.4.2-2 .8h0z"/></defs><g fill="url(#A)"><path d="M276.7 256.9l2.7.1.1 6.3 59.4-.1.1-6.2 3.2-.1v-4.1l115.5.1v41.6H132V192.8l144-.3.7 64.4z"/><path d="M280 192.8h58.8v70.7H280z"/></g><g class="X P R S"><g class="V"><path d="M129.4 534V415M458 403.8H340.3v13.1H458"/><use href="#G"/><use href="#G" y="1.3"/><use href="#G" y="-28"/><use href="#G" y="-26.8"/><use href="#G" y="-56"/><use href="#G" y="-54.8"/><use href="#G" y="-84"/><use href="#G" y="-82.8"/><use href="#G" y="-112"/><use href="#G" y="-110.8"/><use href="#G" y="-140"/><use href="#G" y="-138.8"/><use href="#G" y="-168"/><use href="#G" y="-166.8"/><path d="M659.5 196l.1 212.8"/><use href="#G" y="-181.2"/><use href="#G" y="-182.4"/><path d="M671 407.5h-11.4m11.4 1.3h-11.4"/><use href="#H"/><use href="#H" y="1.3"/><use href="#H" y="-28"/><use href="#H" y="-26.8"/><use href="#H" y="-56"/><use href="#H" y="-54.8"/><use href="#H" y="-84"/><use href="#H" y="-82.8"/><use href="#H" y="-112"/><use href="#H" y="-110.8"/><use href="#H" y="-140"/><use href="#H" y="-138.8"/><use href="#H" y="-168"/><use href="#H" y="-166.8"/><path d="M588.3 196l.1 212.8"/><use href="#H" y="-181.2"/><use href="#H" y="-182.4"/><path d="M599.9 407.5h-11.5m11.5 1.3h-11.5"/><use href="#I"/><use href="#I" y="1.3"/><use href="#I" y="-28"/><use href="#I" y="-26.8"/><use href="#I" y="-56"/><use href="#I" y="-54.8"/><use href="#I" y="-84"/><use href="#I" y="-82.8"/><use href="#I" y="-112"/><use href="#I" y="-110.8"/><use href="#I" y="-140"/><use href="#I" y="-138.8"/><path d="M529.1 407.5h-11.5m89.3 4.7H600m-64 0h-6.9m0-3.4h-11.5m-.1-212.8l.1 212.8m-.1-219.1h0"/><use href="#I" y="-182.4"/><use href="#I" y="-181.2"/><path d="M514.4 197.2h0m85.5-4.7h6.9m-77.8 0h6.9"/><use href="#I" y="-166.8"/><use href="#I" y="-168"/><path d="M606.8 189.7l.1 225.3m-71-225.3L536 415"/></g><use href="#J"/><path d="M514.3 427.5h115.9v-12.3" class="V"/><use href="#J" x="-6.9"/><path d="M655.6 803.2V696.7m-95.9 1.5v-1.5m0 106.7v-86.8m95.9-1.1h12.5" class="V"/><use href="#J" x="83.3" y="289.6"/><g class="V"><path d="M463.9 803.2V696.7M364 803.4h84.6"/><path d="M448.6 803.4l-.1-106.7m222.4 0v109.6H448.6"/><path d="M668.1 696.7v106.7H451.4l-.1-106.7M364 806.3l-234.6-.1V696.7"/><path d="M364 696.7v106.7m-2.8-106.7v106.7h-229V696.7m441.1-167.3c.2-.2.3-.4.5-.6.1-.2.2-.5.2-.8v-.8c0-.2-.2-.5-.3-.7s-.3-.4-.5-.6-.5-.3-.7-.4-.5-.1-.8-.1-.5 0-.8.2c-.2 0-.5.2-.7.4s-.4.4-.5.6-.2.5-.3.8v.8c0 .3.1.5.2.7a3.04 3.04 0 0 0 .5.7c.2.2.4.3.7.4.2 0 .5.2.8.2m9-3.6c-.3-.5-.7-.9-1.2-1.1s-1.1-.2-1.7 0-1 .6-1.2 1.1c-.3.5-.3 1.1-.2 1.6M511.5 415v119m-222.9-12.5h222.9m2.8 0h80M342.2 405.7v9.3m-210-107.9h325.7m-325.7-12.6h325.7m-115.7-41.7h115.7M288.6 534V412.2H132.2V192.5h144.3"/><path d="M342.2 405.7h113.9v9.3H342.2M188.1 524.2v-2.7"/></g><use href="#J" x="-345" y="106.5"/><use href="#J" x="-338" y="106.5"/><path d="M188.1 521.5h97.7m178.1 194h-12.6" class="V"/><use href="#J" x="-120.9" y="289.6"/><path d="M249.3 294.5v12.6" class="V"/><use href="#J" x="-333.9" y="-120.4"/><path d="M230.5 294.5v12.6" class="V"/><use href="#J" x="-343.3" y="-120.4"/><g class="V"><path d="M656.3 189.7l.2 225.3m-71.3-225.3l.1 225.3m-70.9-225.3l.1 225.1m-172.4-222h115.8"/><path d="M342.1 189.7h115.8M364 806.3h84.6M670.9 534V415m-3.2 119V415M132.6 534V415"/></g><path d="M471.8 698.2h89.8v18.4h-89.8z"/><path d="M473.7 700.1h86v14.6h-86z"/><g class="V"><path d="M529 189.7l.1 225.3m70.8-225.3L600 415M457.9 249.9l.1 167m56.3-1.9H458"/><path d="M285.8 534V415H129.4V189.7h212.8v60.2h115.7l.1-60.2h212.9V415H514.3v119M340.4 412.2h-51.8"/></g></g><g fill="url(#A)"><path d="M457.7 403.5l-117.6.4v8.2H132V306.9h325.5l.2 96.6z"/><path d="M511.5 415.1H458v1.8H340.3l-.2-4.6-51.5.1.1 109 222.5.3.3-106.6z"/></g><path d="M559.6 696.8l.1 1.3 1.9.1-.1 18.4h-1.8l.1 86.8h95.6l.1-106.4-95.9-.2z" fill="url(#B)"/><path d="M559.8 696.8l-.1 1.4-87.8.1v18.3l87.8.1v86.7H464l-.1-106.4 95.9-.2z" fill="url(#C)"/><path d="M529.1 415l-71.1.1V189.7h71v6.3l-11.9.1.5 212.8 11.4-.1.1 6.2z" fill="url(#D)"/><path d="M600.2 415l-64.2.1-.1-225.4h64.2v6.3l-11.9.1.5 212.8 11.4-.1.1 6.2z" fill="url(#E)"/><path d="M670.9 415l-64.3.1V189.7h64.2v6.3l-11.9.1.5 212.8 11.4-.1.1 6.2z" fill="url(#F)"/><g class="X P Q"><g class="V"><g stroke-width="1.2"><path d="M135.7 540.2v150.2m76.2-150.2l2.3-6.2m0 0h18.5m234.7 6.2V534M336 540.2h131.5"/><path d="M336 534v6.2m131.4-6.2H335.9m-103.2 0h56.9m224.8 6.2h49m-49 36v-36m-3.1-6.2h49.8m-49.8 42.2v-42.3m3.1 42.3h-3.1M336 690.5v6.3m175.3-6.3H336"/><path d="M511.3 690.5v-39.2m3.1 0h-3.1m76.6-45.3v18.7m3.2-21.9v18.8m73.5 3.1h-76.7m76.7-84.5h-42.7"/><path d="M664.6 621.6v-81.4m-73.5 81.4h73.5m-153.3-18.8v-1.5h3.1v1.5m76.7 0h-76.7m0 23.5h-3.1"/><path d="M514.4 606v20.3m73.5-20.3h-73.5m-3.1 18.7v1.6m0-23.5v21.9m-224.8-48.5h0M264 600.4v-3.2m-34.4 3.2H264m-34.4-60.2v60.1m-17.7-60.1h17.7m60.1-6.2h-75.5m75.5 66.4V534m-3.2 66.4h3.1"/><path d="M286.5 540.2v60.1m-53.8-60.1h53.8m-53.8 57v-57m-3.1 150.3v-58.8m-93.9 58.8h93.9"/><path d="M153.4 540.2h-17.7M264 634.8v-3.1m25.7 65h-56.9"/><path d="M289.7 631.7v65.1m-57-6.3v-55.7m53.8 55.7h-53.8"/><path d="M286.5 631.7v58.8m340.5 0v6.2m-81.3-6.2v6.2m-31.3-6.2h31.3"/><path d="M514.4 651.3v39.1m150.2.1v-65.7M627 690.5h37.6m6.3 6.2h-43.8M670.9 534v162.8m-48-162.8h47.9M336 696.7h209.7M622.9 534l-7.4-20.5-2.9 1.1m-379.9 82.6H264m22.5 34.5h3.1m-60 0H264m-31.3 3.1H264m-31.3 61.9H129.4V534h23"/><path d="M152.4 534l7.4-20.5 2.9 1.1m-9.3 25.6l9.3-25.6M561.1 534l.2.6m60.6 5.6l-9.3-25.6m-49.2 25.6l-2.3-6.2"/></g><g class="W"><use href="#K"/><path d="M162.7 514.6l51.5 19.4"/><path d="M176.3 523.1l1.1-3m421.6 3l-1.1-3"/><path d="M613.7 517.5l-51.5 19.4m50.4-22.3L561.1 534"/><use href="#K" x="-113.9"/><use href="#K" x="-105.2"/><use href="#K" x="-96.4"/><use href="#K" x="-87.7"/><use href="#K" x="-78.9"/><use href="#K" x="-70.1"/><use href="#K" x="-61.4"/><use href="#K" x="-52.6"/><use href="#K" x="-35.1"/><use href="#K" x="-43.8"/><use href="#K" x="-26.3"/><use href="#K" x="-17.6"/><use href="#K" x="-8.8"/><path d="M356.8 700.8v98.4H136.6v-98.4"/><use href="#K" x="8.7"/><path d="M336 696.7h-46.3m256-6.2H627M511.3 534h-43.9"/><path d="M336 534h-46.3M627 696.7h-81.3"/><use href="#K" x="-122.7"/><path d="M511.3 540.2h-43.9m-131.4 0h-46.3M339.1 257h3.1v-67.3h-65.7V257m0 0h3.1"/></g></g><path d="M279.6 192.8H339v70.4h-59.4zm178.1-3.3H671v225.6H457.7z" class="W"/><g class="V"><path d="M511.3 574.7h-43.9M336 690.5h-46.3m-128.1-173l51.5 19.4" class="W"/><use href="#L" class="W"/><use href="#L" x="-71" class="W"/><use href="#L" x="70.7" class="W"/><use href="#L" x="21.1" class="W"/><use href="#L" x="14.9" class="W"/><use href="#L" x="-49.5" class="W"/><use href="#L" x="-56.2" class="W"/><path d="M587.9 624.7h-73.5" class="T"/></g><path d="M135.4 748v-.3s-.1-.2-.2-.3-.2-.1-.3-.2h-.3-.3c-.1 0-.2 0-.3.2s-.1.2-.2.3v.3.3a1.44 1.44 0 0 0 .2.3 1.44 1.44 0 0 0 .3.2h.3.3c.1 0 .2 0 .3-.2 0 0 .1-.2.2-.3v-.3z" class="T"/><use href="#M" class="T"/><use href="#M" x="-149.2" y="-4.2" class="T"/><use href="#N" class="T"/><path d="M467.4 576.2H289.7m177.7-1.5v1.5m96-36h58.5" class="V T"/><use href="#N" y="96.1" class="T"/><path d="M284.6 801.1v-.3s-.1-.2-.2-.3c0 0-.2-.1-.3-.2h-.3-.3c-.1 0-.2 0-.3.2s-.1.2-.2.3v.3.3a1.44 1.44 0 0 0 .2.3 1.44 1.44 0 0 0 .3.2h.3.3c.1 0 .2 0 .3-.2 0 0 .1-.2.2-.3v-.3z" class="T"/><use href="#O" class="T"/><use href="#O" x="149.2" y="-100.3" class="T"/><use href="#M" y="-53.1" class="T"/><use href="#N" x="-4.2" y="100.3" class="T"/><path d="M664.6 602.8h-73.5m-455.4 68.9h93.9" class="V T"/><path d="M135.4 700.8v-.3s-.1-.2-.2-.3c0 0-.2-.1-.3-.2h-.3-.3c-.1 0-.2 0-.3.2 0 0-.1.2-.2.3v.3.3a1.44 1.44 0 0 0 .2.3c.1.1.2.1.3.2h.3.3c.1 0 .2 0 .3-.2 0 0 .1-.2.2-.3v-.3z" class="T"/><use href="#N" x="215.9" y="96.1" class="T"/><use href="#M" x="-4.1" y="-100.3" class="T"/><path d="M355.5 748v-.3s-.1-.2-.2-.3-.2-.1-.3-.2h-.3-.3c-.1 0-.2 0-.3.2s-.1.2-.2.3v.3.3a1.44 1.44 0 0 0 .2.3c.1.1.2.1.3.2h.3.3c.1 0 .2 0 .3-.2s.1-.2.2-.3v-.3z" class="T"/><use href="#N" x="145" y="96.1" class="T"/><use href="#M" x="-220" y="-53.1" class="T"/><path d="M153.4 540.2h58.5m255.5 34.5H289.7" class="V T"/><g stroke-width=".8"><circle cx="765.5" cy="1024" r="11.4"/><path d="M765.5 1012.6v11.4" class="V"/></g></g><path d="M32.2 1028.9h-5.4v-1.1H29v-8l-2.1 1v-1.2l2.2-1.2h1v9.4h2v1.1h0zm33.4 0h-1.5l-3.5-5.1-1.1 1.2v3.9h-1.2v-10.3h1.2v5l4.6-5h1.4l-4 4.4 4.2 6h0zm5.7 0h-1.1v-6.6H68v-1h3.4v7.6zm-.6-10.5c.2 0 .4 0 .6.2s.2.3.2.5 0 .4-.2.6-.3.2-.6.2-.4 0-.5-.2-.2-.3-.2-.5 0-.4.2-.5.3-.2.5-.2h0zm11.6 10.2c-.8.3-1.5.5-2.3.5-1.4 0-2-.7-2-2.2v-4.7h-1.5v-1H78v-2.1h1.1v2.1h2.6v1h-2.6v4.4c0 .5 0 .8.3 1.1s.5.4.8.4c.6 0 1.2-.1 1.8-.4l.2.9z"/><use href="#P"/><path d="M100.2 1028.9h-1.1v-4.9c0-.7-.1-1.2-.3-1.5s-.6-.5-1-.5c-.7 0-1.4.4-2.2 1.3v5.5h-1.1v-10.3h1.1v3.8c.8-.9 1.7-1.3 2.6-1.3 1.4 0 2.2.9 2.2 2.6v5.2h0zm9.2-3.8h-5.2c0 .9.2 1.6.8 2.1s1.1.8 1.8.8 1.4-.1 2.2-.4l.2.9c-.7.3-1.5.4-2.4.4s-2.1-.4-2.7-1.1-1-1.7-1-2.9.3-2.2.9-2.9a3.04 3.04 0 0 1 2.4-1.1c1 0 1.6.3 2.2 1s.9 1.6.9 2.7v.4h0zm-1.2-.9c0-.6-.2-1.1-.6-1.5s-.8-.6-1.2-.6-1.1.2-1.5.6-.6.9-.7 1.5h3.9zm10 4.7h-1.1v-4.9c0-.7-.1-1.2-.3-1.5s-.6-.5-1-.5c-.7 0-1.4.4-2.2 1.3v5.5h-1.1v-7.6h1.1v1.1c.8-.9 1.7-1.3 2.6-1.3 1.4 0 2.2.9 2.2 2.6v5.2h0zm-86.3 22h-5.7v-.9l2.8-3.2c.4-.5.8-1.1 1-1.7.3-.6.4-1.2.4-1.8s-.2-1-.5-1.4-.8-.5-1.5-.5-1.1.2-2 .4l-.2-1c.7-.3 1.5-.5 2.3-.5s1.7.3 2.2.8.9 1.2.9 2.1-.1 1.2-.4 1.8-.7 1.2-1.1 1.8-1.3 1.6-2.6 3h4.4v1.1h0zm32.3 0h-5.6v-10.3h1.2v9.3h4.4v1.1h0z"/><use href="#Q"/><path d="M82.5,1043.3l-2.9,7.6h-1l-2.9-7.6h1.2l2.2,6.1,2.2-6.1h1.2,0Z"/><use href="#R"/><use href="#S"/><use href="#T"/><path d="M29.9 1067.4c.6.2 1.1.5 1.5 1s.6 1 .6 1.6c0 .9-.4 1.7-1.1 2.3s-1.5.9-2.5.9-1.6-.2-2.2-.5l.2-1c.7.3 1.4.5 2 .5s1.2-.2 1.6-.6.7-.9.7-1.5-.2-1.1-.7-1.5-1.1-.6-1.9-.6h-.3v-1h0c.8 0 1.4-.2 1.9-.5s.7-.8.7-1.4-.2-.9-.5-1.2-.8-.4-1.5-.4-1.1.1-1.8.4l-.2-1c.7-.3 1.3-.4 2-.4s1.7.2 2.3.7a2.32 2.32 0 0 1 .9 1.9c0 .8-.2 1-.5 1.5-.4.5-.8.7-1.3.9h0zm28.4-4.8h2c1.3 0 2.4.5 3.2 1.4s1.2 2.2 1.2 3.8-.4 2.9-1.2 3.8-1.9 1.3-3.2 1.3h-2.1v-10.3h0zm1.2 9.3h.8c1 0 1.8-.4 2.3-1.1s.9-1.7.9-3-.3-2.3-.9-3-1.3-1.1-2.3-1.1h-.8v8.2z"/><use href="#Q" y="22"/><use href="#S" x="-18" y="22"/><use href="#R" y="22"/><use href="#S" y="22"/><use href="#T" y="22"/><path d="M32.6 1092.5h-1.3v2.4h-1.2v-2.4h-4.5v-.9l4.1-7h1.6v6.9h1.3v1.1zm-2.5-1v-5.7l-3.3 5.7h3.3zm34.1 3.4h-5.6v-10.3h1.2v9.3h4.4v1.1h0zm9.2 0h-1.1c0-.3-.1-.7-.1-1.2-.7.9-1.5 1.4-2.7 1.4s-1.1-.2-1.5-.6-.7-.9-.7-1.6 0-.7.2-1 .4-.5.7-.7.7-.3 1.1-.5.9-.2 1.5-.2h1.3v-.5c0-1.3-.6-2-1.8-2s-.7 0-1.1.2c-.4.1-.8.3-1.1.4l-.3-.8c1-.5 2-.8 2.9-.8 1.7 0 2.6.9 2.6 2.8v3.3c0 .7 0 1.2.2 1.8h0zm-1.4-2.2v-1.4c-1 0-1.7.2-2.1.3-.4 0-.7.2-1 .4s-.4.5-.4.9.1.6.4.8.5.3.9.3a1.92 1.92 0 0 0 1.2-.4c.4-.3.8-.6 1.1-1h0zm10.2 2.2h-1.1v-1.1c-.8.9-1.7 1.3-2.6 1.3-1.4 0-2.2-.9-2.2-2.6v-5.2h1.1v4.9c0 .7 0 1.1.3 1.4s.6.5 1 .5c.7 0 1.4-.4 2.2-1.3v-5.5H82v7.6h0z"/><use href="#S" x="-9" y="44"/><path d="M100.2 1094.9h-1.1v-1.1c-.2.4-.6.7-1 .9s-.9.4-1.4.4c-.9 0-1.6-.4-2.1-1.2s-.8-1.8-.8-3 .3-2 .8-2.8c.5-.7 1.2-1.1 2.1-1.1s1.7.4 2.3 1.2v-3.7h1.1v10.3h0zm-1.2-2.3v-3.2c-.6-.9-1.2-1.3-2-1.3s-1.1.3-1.5.8c-.4.6-.6 1.3-.6 2.1s.2 1.6.5 2.2.8.9 1.4.9.6 0 .9-.2.6-.4.8-.7c.3-.3.4-.5.4-.6h0zm10.3-5.1l-.5 1.1c-.5-.2-.9-.3-1.3-.3s-.7 0-1 .3c-.3.2-.6.5-.9.8s-.4.6-.4.6v4.9h-1.1v-7.6h1.1v1.6c.6-1.2 1.4-1.7 2.4-1.7s1.1.1 1.7.4h0z"/><use href="#U"/><path d="M200.5 1022.8c.3 0 .7-.1 1-.1 1 0 1.8.3 2.3.9.6.6.9 1.3.9 2.2s-.3 1.7-1 2.4-1.5 1-2.4 1-1.7-.2-2.3-.4l.2-1c.7.3 1.4.4 2.1.4s1.1-.2 1.5-.6.6-1 .6-1.7-.2-1.2-.6-1.6-.8-.6-1.4-.6-.8 0-1.2.2l-.7-.3v-4.9h4.7v1h-3.7v3.1h0z"/><use href="#V"/><path d="M246.1 1028.3c-.8.6-1.8.8-2.8.8s-2.4-.5-3.1-1.4-1-2.2-1-4 .3-3 1-3.9 1.7-1.4 3.1-1.4 1 0 1.5.2.9.3 1.2.5l-.4.9a4.38 4.38 0 0 0-2.3-.6c-.9 0-1.7.3-2.1 1-.5.7-.7 1.8-.7 3.3 0 2.9.9 4.3 2.8 4.3s1.6-.2 2.4-.7l.4.9h0zm-46.1 17.2c.6-.5 1.3-.8 2.1-.8s1.6.3 2.2.8c.6.6.9 1.3.9 2.2s-.3 1.8-.8 2.4-1.2.9-2.1.9a3.14 3.14 0 0 1-2.6-1.5c-.6-1-1-2.2-1-3.7s.3-2.9 1-3.9c.7-1.1 1.6-1.6 2.8-1.6s1.5.1 2.1.4l-.2 1.1c-.7-.2-1.3-.4-1.9-.4-.8 0-1.4.4-1.9 1.1s-.7 1.8-.7 2.9h0zm0 1.1c0 .9.2 1.7.6 2.4s.9 1.1 1.6 1.1.9-.2 1.2-.6.4-.9.4-1.6-.2-1.1-.5-1.5-.8-.6-1.3-.6-1.4.2-2 .8h0z"/><use href="#W"/><path d="M246 1047.1h-5.2c0 .9.2 1.6.8 2.1s1.1.8 1.8.8 1.4-.1 2.1-.4l.2.9c-.7.3-1.5.4-2.4.4s-2.1-.4-2.7-1.1-1-1.7-1-2.9.3-2.2.9-2.9a3.04 3.04 0 0 1 2.4-1.1c1 0 1.6.3 2.2 1s.9 1.6.9 2.7v.4h0zm-1.3-.9c0-.6-.2-1.1-.6-1.5s-.8-.6-1.2-.6-1.1.2-1.5.6-.6.9-.6 1.5h3.9zm10 4.7h-1.1v-1.1c-.2.4-.6.7-1 .9s-.9.4-1.4.4c-.9 0-1.6-.4-2.1-1.2s-.8-1.8-.8-3 .3-2 .8-2.8c.5-.7 1.2-1.1 2.1-1.1s1.7.4 2.3 1.2v-3.7h1.1v10.3h0zm-1.1-2.3v-3.2c-.6-.9-1.2-1.3-2-1.3s-1.1.3-1.5.8c-.4.6-.6 1.3-.6 2.1s.2 1.6.5 2.2.8.9 1.4.9.6 0 .9-.2.6-.4.8-.7c.3-.3.4-.5.4-.6h0zm-48.7 14.8l-4.1 9.5h-1.2l4-9.3h-4.8v-1.1h6.1v.9h0z"/><use href="#W" y="22"/><path d="M245.9 1072.9h-1.1c0-.3-.1-.7-.1-1.2-.6.9-1.5 1.4-2.6 1.4s-1.1-.2-1.5-.6-.6-.9-.6-1.6 0-.7.2-1 .4-.5.7-.7.6-.3 1.1-.5c.4-.1.9-.2 1.5-.2h1.3v-.5c0-1.3-.6-2-1.8-2s-.6 0-1.1.2c-.4.1-.8.3-1.1.4l-.3-.8c1-.5 2-.8 2.9-.8 1.7 0 2.6.9 2.6 2.8v3.3c0 .7 0 1.2.2 1.8h0zm-1.3-2.2v-1.4c-1 0-1.7.2-2.1.3-.4 0-.7.2-1 .4s-.4.5-.4.9.1.6.4.8.5.3.9.3a1.92 1.92 0 0 0 1.2-.4c.4-.2.8-.6 1.1-1h0zm10.2 1.9c-.8.3-1.5.5-2.3.5-1.4 0-2-.7-2-2.2v-4.7H249v-1h1.5v-2.1h1.1v2.1h2.6v1h-2.6v4.4c0 .5.1.8.3 1.1s.5.4.8.4c.6 0 1.2-.1 1.9-.4l.2.9h0zm9 .3h-1.1v-4.9c0-.7-.1-1.2-.3-1.5s-.6-.5-1-.5c-.7 0-1.5.4-2.2 1.3v5.5h-1.1v-10.3h1.1v3.8c.8-.9 1.7-1.3 2.6-1.3 1.4 0 2.1.9 2.1 2.6v5.2h0z"/><use href="#X"/><use href="#Y"/><use href="#Z"/><use href="#a"/><path d="M202.8 1089.2c.7.2 1.2.6 1.6 1.1s.6 1.1.6 1.7c0 .9-.3 1.7-.9 2.3s-1.4.8-2.3.8-1.8-.3-2.4-.8c-.6-.6-.9-1.3-.9-2.2s.2-1.2.6-1.7 1-.8 1.7-1.1c-.6-.2-1-.4-1.4-.8-.3-.4-.5-.9-.5-1.4s.3-1.3.8-1.8 1.2-.8 2.1-.8 1.6.3 2.1.8.8 1.1.8 1.8-.2 1-.5 1.4-.8.7-1.4.9h0zm-1 .6c-1.3.4-2 1.1-2 2.2s.2 1.1.6 1.5.9.6 1.4.6 1-.2 1.4-.6.6-.9.6-1.5-.1-.9-.4-1.3-.8-.7-1.6-.9h0zm0-1h.4c.3 0 .4-.1.5-.2s.3-.2.4-.3.2-.3.3-.5c0-.2.1-.4.1-.6 0-.5-.2-.9-.5-1.2s-.7-.5-1.2-.5-.9.2-1.2.5-.5.7-.5 1.2 0 .5.2.8.3.4.4.5.4.2.6.3c.2 0 .4.1.4.1h0zm34.2-3.1c-.6-.2-1.2-.3-1.8-.3s-1.1.1-1.5.4-.6.7-.6 1.2.5 1.2 1.5 1.7c.8.3 1.3.6 1.5.7s.5.3.8.6.5.5.6.8.2.7.2 1.1c0 1-.3 1.8-1 2.3-.7.6-1.5.8-2.4.8s-1.7-.2-2.3-.5l.2-1a4.55 4.55 0 0 0 2.1.5c.6 0 1.2-.2 1.6-.5s.6-.8.6-1.5-.1-.8-.4-1.2c-.3-.3-.8-.7-1.5-1s-1.2-.6-1.4-.7-.4-.3-.6-.5a3.04 3.04 0 0 1-.5-.7 2.39 2.39 0 0 1-.2-.9c0-.8.3-1.5.9-2s1.4-.7 2.3-.7 1.4.1 2.1.3l-.3 1h0zm9.8 8.9c-.8.3-1.5.5-2.3.5-1.4 0-2-.7-2-2.2v-4.7H240v-1h1.5v-2.1h1.1v2.1h2.6v1h-2.6v4.4c0 .5.1.8.3 1.1s.5.4.8.4c.6 0 1.2-.1 1.9-.4l.2.9h0zm8.9.3h-1.1v-1.1c-.8.9-1.7 1.3-2.6 1.3-1.4 0-2.1-.9-2.1-2.6v-5.2h1.1v4.9c0 .7.1 1.1.3 1.4s.6.5 1 .5c.7 0 1.4-.4 2.2-1.3v-5.5h1.1v7.6h0zm9 0h-1.1v-1.1c-.2.4-.6.7-1 .9s-.9.4-1.4.4c-.9 0-1.6-.4-2.1-1.2s-.8-1.8-.8-3 .3-2 .8-2.8c.5-.7 1.2-1.1 2.1-1.1s1.7.4 2.3 1.2v-3.7h1.1v10.3h0zm-1.1-2.3v-3.2c-.5-.9-1.2-1.3-2-1.3s-1.1.3-1.5.8c-.4.6-.5 1.3-.5 2.1s.2 1.6.5 2.2.8.9 1.4.9.6 0 .9-.2.6-.4.8-.7c.3-.3.4-.5.4-.6h0z"/><use href="#U" x="154.6"/><path d="M373.8 1024c-.6.5-1.3.8-2.1.8s-1.6-.3-2.2-.8c-.6-.6-.9-1.3-.9-2.2s.3-1.7.8-2.4 1.3-1 2.2-1 1.9.5 2.5 1.5.9 2.2.9 3.8-.4 2.8-1.1 3.9-1.7 1.6-2.9 1.6-1.5-.1-2.1-.4l.2-1.1c.7.2 1.3.4 1.9.4.8 0 1.5-.4 1.9-1.2.5-.8.7-1.8.7-2.9h0zm-.1-1.1c0-.9-.2-1.7-.6-2.4s-.9-1-1.5-1-1 .2-1.3.6-.5.9-.5 1.6.2 1.1.5 1.5.8.6 1.3.6 1.4-.2 2-.7h0z"/><use href="#V" x="170"/><use href="#Y" x="134" y="-44"/><use href="#b"/><path d="M434.5 1028.9H433l-3.2-3.8-.8.6v3.2h-1.1v-10.3h1.1v5.9l3.6-3.2h1.5l-3.5 3.1 3.9 4.5h0z"/><use href="#b" x="18"/><use href="#Y" x="170" y="-44"/><use href="#Z" x="170" y="-44"/><use href="#a" x="170" y="-44"/><path d="M374.8 1050.9h-5.4v-1.1h2.2v-8l-2.1 1v-1.2l2.2-1.2h1v9.3h2v1.1h0zm6-10.5c1.1 0 1.9.5 2.5 1.4s.9 2.3.9 4-.3 2.9-.9 3.9-1.4 1.4-2.5 1.4-1.9-.5-2.5-1.4-.9-2.3-.9-4 .3-3 .9-3.9c.6-1 1.4-1.4 2.5-1.4h0zm0 9.7c.7 0 1.3-.3 1.6-1 .4-.7.5-1.8.5-3.3s-.2-2.6-.5-3.3c-.4-.7-.9-1-1.6-1s-1.2.3-1.6 1.1c-.4.7-.5 1.8-.5 3.2s.2 2.6.5 3.3c.4.7.9 1 1.6 1h0zm0-5.4c.3 0 .6.1.8.3s.3.5.3.8-.1.6-.3.8-.5.3-.8.3-.5-.1-.8-.3c-.2-.2-.3-.5-.3-.8s.1-.6.3-.8.5-.3.8-.3h0zm25.8 6.2h-5.4v-10.3h5.4v1.1h-4.1v3.2h4v1.1h-4v4h4.2v1.1h0zm9.2 0h-1.1v-4.9c0-.7-.1-1.2-.3-1.5s-.6-.5-1-.5c-.7 0-1.5.4-2.2 1.3v5.5h-1.1v-7.6h1.1v1.1c.8-.9 1.7-1.3 2.6-1.3 1.4 0 2.1.9 2.1 2.6v5.2h0zm9-.3c-.8.3-1.5.5-2.3.5-1.4 0-2-.7-2-2.2v-4.7H419v-1h1.5v-2.1h1.1v2.1h2.6v1h-2.6v4.4c0 .5.1.8.3 1.1s.5.4.8.4c.6 0 1.2-.1 1.9-.4l.2.9h0zm9.1-7.1l-.5 1.1c-.5-.2-.9-.3-1.3-.3s-.7 0-1 .3c-.3.2-.6.5-.9.8-.3.4-.4.6-.4.6v4.9h-1.1v-7.6h1.1v1.6c.6-1.2 1.4-1.7 2.4-1.7s1.1.1 1.7.4h0zm9.2-.2l-2.9 7.6c-.4 1.1-.8 1.9-1.2 2.3s-.9.7-1.4.7-.9 0-1.4-.3l.2-.9c.4.1.7.2 1 .2s.8-.2 1-.5.5-.8.8-1.6l-2.9-7.6h1.2l2.2 6.1 2.2-6.1h1.2 0z"/><use href="#c"/><use href="#c" x="9"/><path d="M407.1 1072.2c-.8.6-1.8.9-2.8.9s-2.4-.5-3-1.4-1-2.2-1-4 .3-3 1-4c.7-.9 1.7-1.4 3.1-1.4s1 0 1.5.2.9.3 1.2.5l-.4.9a4.38 4.38 0 0 0-2.3-.6c-.9 0-1.6.3-2.1 1s-.7 1.8-.7 3.3c0 2.9.9 4.3 2.8 4.3s1.2-.2 1.6-.4v-2.6h-1.9v-1h3.1v4.2h0zm8.8.7h-1.1c0-.3-.1-.7-.1-1.2-.6.9-1.5 1.4-2.6 1.4s-1.1-.2-1.5-.6-.6-.9-.6-1.6 0-.7.2-1 .4-.5.7-.7.6-.3 1.1-.5.9-.2 1.5-.2h1.3v-.5c0-1.3-.6-2-1.8-2s-.6 0-1.1.2c-.4.1-.8.3-1.1.4l-.3-.8c1-.5 2-.8 2.9-.8 1.7 0 2.6.9 2.6 2.8v3.3c0 .7 0 1.2.2 1.8h0zm-1.3-2.2v-1.4c-1 0-1.7.2-2.1.3s-.7.2-1 .4-.4.5-.4.9.1.6.4.8.5.3.9.3a1.92 1.92 0 0 0 1.2-.4c.4-.3.8-.6 1-1h0z"/><use href="#X" x="152"/><path d="M433.9 1072.9h-1.1c0-.3-.1-.7-.1-1.2-.6.9-1.5 1.4-2.6 1.4s-1.1-.2-1.5-.6-.6-.9-.6-1.6 0-.7.2-1 .4-.5.7-.7.6-.3 1.1-.5.9-.2 1.5-.2h1.3v-.5c0-1.3-.6-2-1.8-2s-.6 0-1.1.2c-.4.1-.8.3-1.1.4l-.3-.8c1-.5 2-.8 2.9-.8 1.7 0 2.6.9 2.6 2.8v3.3c0 .7 0 1.2.2 1.8h0zm-1.3-2.2v-1.4c-1 0-1.7.2-2.1.3s-.7.2-1 .4-.4.5-.4.9.1.6.4.8.5.3.9.3a1.92 1.92 0 0 0 1.2-.4c.4-.3.8-.6 1-1h0zm6.4-.7c-.7.3-1.1.7-1.1.9s0 .3.2.4c.2 0 .4.2.7.2h2.6c.6 0 1.1 0 1.4.4.3.3.5.7.5 1.3 0 .9-.4 1.6-1.2 2.1s-1.7.8-2.7.8a4.06 4.06 0 0 1-2.1-.5c-.5-.3-.8-.8-.8-1.4s.4-1.1 1.2-1.5c-.7-.3-1-.7-1-1.2s.4-1 1.3-1.5c-.4-.2-.7-.6-1-1s-.3-.8-.3-1.2c0-.7.2-1.3.7-1.8s1.1-.7 1.8-.7 1 .1 1.4.3l2.3-.3v1.1h-1.5c.2.4.3.8.3 1.4s-.2 1.3-.7 1.8-1.1.7-1.8.7h-.5 0zm.5 5.1c.8 0 1.4-.2 1.9-.5s.8-.8.8-1.2-.4-.8-1.1-.8h-1.3-.9c-.2 0-.3 0-.5.3-.2.2-.4.3-.5.5s-.2.4-.2.6c0 .3.2.6.5.8s.8.3 1.3.3h0zm-.1-5.9a1.53 1.53 0 0 0 1-.4c.3-.3.4-.7.4-1.1s-.1-.9-.4-1.2-.6-.4-1-.4a1.53 1.53 0 0 0-1 .4c-.3.3-.4.7-.4 1.1s.1.8.4 1.1.6.4 1 .4h0zm12.6-.1h-5.2c0 .9.2 1.6.8 2.1s1.1.8 1.8.8 1.4-.1 2.1-.4l.2.9c-.7.3-1.5.4-2.4.4s-2-.4-2.7-1.1-1-1.7-1-2.9.3-2.2.9-2.9a3.04 3.04 0 0 1 2.4-1.1c1 0 1.6.3 2.2 1s.9 1.6.9 2.7v.4h0zm-1.3-.9c0-.6-.2-1.1-.6-1.5s-.8-.6-1.2-.6-1.1.2-1.5.6-.6.9-.6 1.5h3.9zm-75.9 26.7h-5.4v-1.1h2.2v-8l-2.1 1v-1.2l2.2-1.2h1v9.3h2v1.1h0zm8.7 0h-5.7v-.9l2.8-3.2c.4-.5.8-1.1 1-1.7s.4-1.2.4-1.8-.2-1-.5-1.4c-.4-.3-.8-.5-1.5-.5s-1.1.2-2 .4l-.2-1c.7-.3 1.5-.5 2.3-.5s1.7.3 2.2.8.9 1.2.9 2.1-.1 1.2-.4 1.8-.7 1.2-1.1 1.8-1.3 1.6-2.6 3h4.4v1.1h0zm24.4 0h-1.5l-3-4.7h-1.3v4.7h-1.2v-10.3h2.9c1 0 1.8.2 2.3.7.6.5.9 1.1.9 2s-.2 1.2-.6 1.7-1 .8-1.7 1l3.3 4.9h0zm-5.9-5.7h1.5c.6 0 1.1-.2 1.5-.5s.6-.8.6-1.3c0-1.2-.7-1.7-2.1-1.7H402v3.5h0z"/><use href="#d"/><path d="M425.4 1094.9h-1.1v-5c0-1.2-.2-1.8-.7-1.8s-.5.2-.8.6-.4.7-.4.7v5.5h-1.1v-5c0-1.2-.2-1.8-.7-1.8s-.5.2-.8.6-.4.7-.4.7v5.5h-1.1v-7.6h1.1v1.2c.2-.4.5-.7.8-1 .3-.2.6-.4.9-.4s.6.1.8.4c.2.2.4.6.5 1 .2-.4.5-.7.8-1s.6-.4.9-.4c.9 0 1.4.8 1.4 2.5v5.3h0zm3.6-6.6c.2-.3.6-.6 1-.8s.9-.3 1.4-.3c.9 0 1.6.4 2.1 1.1s.8 1.7.8 2.8-.3 2.2-.8 2.9-1.2 1.2-2.1 1.2-.9-.1-1.3-.3-.7-.6-1-.9v4.1H428v-10.7h1.1v1h0zm0 1.1v3.2c.2.4.5.8.9 1.1s.7.4 1.1.4c.6 0 1.1-.3 1.5-.9s.5-1.3.5-2.2-.2-1.6-.5-2.2-.8-.8-1.5-.8-1.5.4-2 1.3h0z"/><use href="#d" x="27"/><path d="M451 1088.4c-.6-.2-1.2-.3-1.8-.3s-1.1 0-1.5.3a.82.82 0 0 0-.5.8c0 .3 0 .4.2.6s.5.3 1 .5l1.1.3c.5.1.9.3 1.2.5s.5.4.7.7.2.6.2 1c0 .7-.3 1.3-.9 1.7s-1.4.6-2.3.6-1.7-.1-2.3-.4l.2-1c.6.3 1.3.4 2.1.4s1.1-.1 1.5-.4.6-.6.6-.9-.1-.5-.3-.7-.7-.4-1.4-.7l-1.3-.4c-.3 0-.5-.2-.8-.4s-.4-.4-.5-.6-.2-.5-.2-.8c0-.7.3-1.2.9-1.6s1.3-.6 2.3-.6 1.3 0 2 .3l-.3 1h0zm95.2-59.5h-5.4v-1.1h2.2v-8l-2.1 1v-1.2l2.2-1.2h1v9.4h2v1.1h0zm6.7-5.5c.6.2 1.1.5 1.5 1s.6 1 .6 1.6c0 .9-.3 1.7-1.1 2.3s-1.5.9-2.5.9-1.6-.2-2.2-.5l.2-1c.7.3 1.3.5 2 .5s1.2-.2 1.6-.6.7-.9.7-1.5-.2-1.1-.7-1.5-1.1-.6-1.9-.6h-.3v-1h0c.8 0 1.4-.2 1.9-.5s.7-.8.7-1.4-.2-.9-.5-1.2-.8-.4-1.5-.4-1.1.1-1.8.4l-.2-1c.7-.3 1.3-.5 2-.5s1.7.2 2.3.7a2.32 2.32 0 0 1 .9 1.9c0 .8-.2 1-.5 1.5-.4.5-.8.7-1.3.9h0zm26.1-3.9h-3.2v9.4h-1.2v-9.4h-3.2v-1h7.6v1h0zm8.4 5.6h-5.2c0 .9.2 1.6.8 2.1s1.1.8 1.8.8 1.4-.1 2.2-.4l.2.9c-.7.3-1.5.4-2.4.4s-2-.4-2.7-1.1-1-1.7-1-2.9.3-2.2.9-2.9a3.04 3.04 0 0 1 2.4-1.1c1 0 1.6.3 2.2 1s.9 1.6.9 2.7v.4h0zm-1.3-.9c0-.6-.2-1.1-.6-1.5s-.8-.6-1.2-.6-1.1.2-1.5.6-.6.9-.7 1.5h3.9z"/><use href="#e"/><use href="#e" x="9"/><path d="M614.4,1028.9h-1.1c0-.3-.1-.7-.1-1.2-.7.9-1.5,1.4-2.7,1.4s-1.1-.2-1.5-.6-.7-.9-.7-1.6,0-.7.2-1,.4-.5.7-.7c.3-.2.7-.3,1.1-.5s.9-.2,1.5-.2h1.3v-.5c0-1.3-.6-2-1.8-2s-.7,0-1.1.2c-.4.1-.8.3-1.1.4l-.3-.8c1-.5,2-.8,2.9-.8,1.7,0,2.6.9,2.6,2.8v3.3c0,.7,0,1.2.2,1.8h0ZM613,1026.7v-1.4c-1,0-1.7.2-2.1.3s-.7.2-1,.4-.4.5-.4.9.1.6.4.8.5.3.9.3.8-.1,1.2-.4.8-.6,1-1h0Z"/><use href="#P" x="531.9"/><path d="M632.4 1025.1h-5.2c0 .9.2 1.6.8 2.1s1.1.8 1.8.8 1.4-.1 2.2-.4l.2.9c-.7.3-1.5.4-2.4.4s-2-.4-2.7-1.1-1-1.7-1-2.9.3-2.2.9-2.9a3.04 3.04 0 0 1 2.4-1.1c1 0 1.6.3 2.2 1s.9 1.6.9 2.7v.4h0zm-1.2-.9c0-.6-.2-1.1-.6-1.5s-.8-.6-1.2-.6-1.1.2-1.5.6-.6.9-.7 1.5h3.9z"/><use href="#f"/><use href="#f" y="86.2"/><path d="M257.2 658c.3 0 .7-.1 1-.1 1 0 1.8.3 2.3.9.6.6.9 1.3.9 2.2s-.3 1.7-1 2.4-1.5 1-2.4 1-1.7-.2-2.3-.5l.2-1c.7.3 1.4.4 2.1.4s1.1-.2 1.5-.6.6-1 .6-1.7-.2-1.2-.5-1.6c-.4-.4-.8-.6-1.4-.6s-.8 0-1.2.2l-.7-.3v-4.9h4.7v1h-3.7v3.1h0zM246 754.3h-5.4v-1h2.2v-8l-2.1 1v-1.2l2.2-1.2h1v9.3h2v1h0zm6.6-5.5c.6.2 1.1.5 1.5 1s.6 1 .6 1.6c0 .9-.4 1.7-1.1 2.3s-1.5.9-2.5.9-1.6-.2-2.2-.5l.2-1c.7.3 1.4.5 2 .5s1.2-.2 1.6-.6.7-.9.7-1.5-.2-1.1-.7-1.5-1.1-.6-1.9-.6h-.3v-1h0c.8 0 1.4-.2 1.9-.5s.7-.8.7-1.4-.2-.9-.5-1.2-.8-.4-1.4-.4-1.1.1-1.8.4l-.2-1c.7-.3 1.3-.5 2-.5s1.7.2 2.3.7a2.32 2.32 0 0 1 .9 1.9c0 .8-.2 1-.6 1.5s-.8.7-1.3.9h0zm9-189.2l-4.1 9.5h-1.2l4-9.3h-4.8v-1h6.1v.9h0zm-80.2 48.6c.6-.5 1.3-.8 2.1-.8s1.6.3 2.2.8c.6.6.9 1.3.9 2.2s-.3 1.8-.8 2.4-1.2 1-2.1 1a3.14 3.14 0 0 1-2.6-1.5c-.6-1-1-2.2-1-3.7s.3-2.9 1-3.9 1.6-1.6 2.8-1.6 1.5.1 2.1.4l-.2 1.1c-.7-.2-1.3-.4-1.9-.4-.8 0-1.4.4-1.9 1.1a6.64 6.64 0 0 0-.7 3h0zm0 1.1c0 .9.2 1.7.6 2.4s.9 1.1 1.6 1.1.9-.2 1.2-.6.4-.9.4-1.6-.2-1.1-.5-1.5-.8-.5-1.3-.5-1.4.2-2 .8h0zm222.2 22.2h-5.4v-1h2.2v-8l-2.1 1v-1.2l2.2-1.2h1v9.3h2v1h0zm8.7 0h-5.7v-.9l2.8-3.2c.4-.5.8-1.1 1-1.7s.4-1.2.4-1.8-.2-1-.5-1.4c-.4-.3-.8-.5-1.5-.5s-1.1.2-2 .5l-.2-1c.7-.3 1.5-.5 2.3-.5s1.7.3 2.2.8.9 1.2.9 2.1-.1 1.2-.4 1.8-.7 1.2-1.1 1.8-1.3 1.6-2.6 3h4.4v1h0z"/></svg>